M48
;DRILL file {KiCad 4.0.6} date 11/09/17 18:30:33
;FORMAT={2:4/ absolute / inch / suppress trailing zeros}
FMAT,2
INCH,LZ
T1C0.031
T2C0.035
T3C0.039
T4C0.126
%
G90
G05
M72
T1
X041488Y-052362
X044488Y-052362
X044783Y-05
X044783Y-050984
X070197Y-053543
X070197Y-056543
X071197Y-053543
X071197Y-056543
X072197Y-053543
X072197Y-056543
X073197Y-053543
X073197Y-056543
X074197Y-053543
X074197Y-056543
X075197Y-053543
X075197Y-056543
X076197Y-053543
X076197Y-056543
X077197Y-053543
X077197Y-056543
T2
X0439Y-0388
X0444Y-0408
X0449Y-0388
X0451Y-0431
X0454Y-0408
X0457Y-0455
X0461Y-0431
X0463Y-0475
X0467Y-0455
X0473Y-0475
X0485Y-035
X0488Y-0366
X0495Y-035
X0495Y-0392
X0498Y-0366
X0502Y-0417
X0505Y-0392
X0508Y-0447
X0512Y-0417
X0518Y-0447
X0544Y-0359
X0545Y-0334
X0546Y-0312
X0547Y-0266
X0548Y-0286
X0554Y-0359
X0555Y-0334
X0556Y-0312
X0557Y-0266
X0558Y-0286
X0593Y-0381
X06Y-0362
X0603Y-034
X0603Y-0381
X0608Y-0314
X061Y-0362
X0613Y-0289
X0613Y-034
X0618Y-0314
X0623Y-0289
X070276Y-049823
X070276Y-051122
X07126Y-049823
X07126Y-051122
X072244Y-049823
X072244Y-051122
T3
X040339Y-054118
X040339Y-055118
X041339Y-054118
X041339Y-055118
X042339Y-054118
X042339Y-055118
X043339Y-054118
X043339Y-055118
X044339Y-054118
X044339Y-055118
X074409Y-050787
X074409Y-051787
T4
X046457Y-052165
X046457Y-057087
X067717Y-052165
X067717Y-057087
T0
M30
