G04 #@! TF.FileFunction,Legend,Top*
%FSLAX46Y46*%
G04 Gerber Fmt 4.6, Leading zero omitted, Abs format (unit mm)*
G04 Created by KiCad (PCBNEW 4.0.6) date 11/09/17 18:30:30*
%MOMM*%
%LPD*%
G01*
G04 APERTURE LIST*
%ADD10C,0.100000*%
%ADD11C,0.120000*%
%ADD12C,0.010000*%
%ADD13C,0.150000*%
G04 APERTURE END LIST*
D10*
D11*
X115766000Y-98552462D02*
G75*
G03X110216000Y-97007170I-2990000J462D01*
G01*
X115766000Y-98551538D02*
G75*
G02X110216000Y-100096830I-2990000J-462D01*
G01*
X115276000Y-98552000D02*
G75*
G03X115276000Y-98552000I-2500000J0D01*
G01*
X110216000Y-97007000D02*
X110216000Y-100097000D01*
X118814000Y-109474462D02*
G75*
G03X113264000Y-107929170I-2990000J462D01*
G01*
X118814000Y-109473538D02*
G75*
G02X113264000Y-111018830I-2990000J-462D01*
G01*
X118324000Y-109474000D02*
G75*
G03X118324000Y-109474000I-2500000J0D01*
G01*
X113264000Y-107929000D02*
X113264000Y-111019000D01*
X121862000Y-120650462D02*
G75*
G03X116312000Y-119105170I-2990000J462D01*
G01*
X121862000Y-120649538D02*
G75*
G02X116312000Y-122194830I-2990000J-462D01*
G01*
X121372000Y-120650000D02*
G75*
G03X121372000Y-120650000I-2500000J0D01*
G01*
X116312000Y-119105000D02*
X116312000Y-122195000D01*
X127450000Y-88900462D02*
G75*
G03X121900000Y-87355170I-2990000J462D01*
G01*
X127450000Y-88899538D02*
G75*
G02X121900000Y-90444830I-2990000J-462D01*
G01*
X126960000Y-88900000D02*
G75*
G03X126960000Y-88900000I-2500000J0D01*
G01*
X121900000Y-87355000D02*
X121900000Y-90445000D01*
X129990000Y-99568462D02*
G75*
G03X124440000Y-98023170I-2990000J462D01*
G01*
X129990000Y-99567538D02*
G75*
G02X124440000Y-101112830I-2990000J-462D01*
G01*
X129500000Y-99568000D02*
G75*
G03X129500000Y-99568000I-2500000J0D01*
G01*
X124440000Y-98023000D02*
X124440000Y-101113000D01*
X133292000Y-113538462D02*
G75*
G03X127742000Y-111993170I-2990000J462D01*
G01*
X133292000Y-113537538D02*
G75*
G02X127742000Y-115082830I-2990000J-462D01*
G01*
X132802000Y-113538000D02*
G75*
G03X132802000Y-113538000I-2500000J0D01*
G01*
X127742000Y-111993000D02*
X127742000Y-115083000D01*
X143198000Y-67564462D02*
G75*
G03X137648000Y-66019170I-2990000J462D01*
G01*
X143198000Y-67563538D02*
G75*
G02X137648000Y-69108830I-2990000J-462D01*
G01*
X142708000Y-67564000D02*
G75*
G03X142708000Y-67564000I-2500000J0D01*
G01*
X137648000Y-66019000D02*
X137648000Y-69109000D01*
X142944000Y-79248462D02*
G75*
G03X137394000Y-77703170I-2990000J462D01*
G01*
X142944000Y-79247538D02*
G75*
G02X137394000Y-80792830I-2990000J-462D01*
G01*
X142454000Y-79248000D02*
G75*
G03X142454000Y-79248000I-2500000J0D01*
G01*
X137394000Y-77703000D02*
X137394000Y-80793000D01*
X142436000Y-91186462D02*
G75*
G03X136886000Y-89641170I-2990000J462D01*
G01*
X142436000Y-91185538D02*
G75*
G02X136886000Y-92730830I-2990000J-462D01*
G01*
X141946000Y-91186000D02*
G75*
G03X141946000Y-91186000I-2500000J0D01*
G01*
X136886000Y-89641000D02*
X136886000Y-92731000D01*
X159962000Y-73406462D02*
G75*
G03X154412000Y-71861170I-2990000J462D01*
G01*
X159962000Y-73405538D02*
G75*
G02X154412000Y-74950830I-2990000J-462D01*
G01*
X159472000Y-73406000D02*
G75*
G03X159472000Y-73406000I-2500000J0D01*
G01*
X154412000Y-71861000D02*
X154412000Y-74951000D01*
X157422000Y-86360462D02*
G75*
G03X151872000Y-84815170I-2990000J462D01*
G01*
X157422000Y-86359538D02*
G75*
G02X151872000Y-87904830I-2990000J-462D01*
G01*
X156932000Y-86360000D02*
G75*
G03X156932000Y-86360000I-2500000J0D01*
G01*
X151872000Y-84815000D02*
X151872000Y-87905000D01*
X154882000Y-96774462D02*
G75*
G03X149332000Y-95229170I-2990000J462D01*
G01*
X154882000Y-96773538D02*
G75*
G02X149332000Y-98318830I-2990000J-462D01*
G01*
X154392000Y-96774000D02*
G75*
G03X154392000Y-96774000I-2500000J0D01*
G01*
X149332000Y-95229000D02*
X149332000Y-98319000D01*
X105980000Y-132020000D02*
X105980000Y-131690000D01*
X105980000Y-131690000D02*
X112400000Y-131690000D01*
X112400000Y-131690000D02*
X112400000Y-132020000D01*
X105980000Y-133980000D02*
X105980000Y-134310000D01*
X105980000Y-134310000D02*
X112400000Y-134310000D01*
X112400000Y-134310000D02*
X112400000Y-133980000D01*
D10*
X185500000Y-131000000D02*
X185500000Y-125500000D01*
X176500000Y-131000000D02*
X185500000Y-131000000D01*
X176500000Y-125500000D02*
X176500000Y-131000000D01*
X185500000Y-125500000D02*
X176500000Y-125500000D01*
D11*
X176970000Y-138810000D02*
G75*
G02X176970000Y-140810000I0J-1000000D01*
G01*
X176970000Y-140810000D02*
X176970000Y-142460000D01*
X176970000Y-142460000D02*
X197410000Y-142460000D01*
X197410000Y-142460000D02*
X197410000Y-137160000D01*
X197410000Y-137160000D02*
X176970000Y-137160000D01*
X176970000Y-137160000D02*
X176970000Y-138810000D01*
X187670000Y-132870000D02*
X190330000Y-132870000D01*
X187670000Y-130270000D02*
X187670000Y-132870000D01*
X190330000Y-130270000D02*
X190330000Y-132870000D01*
X187670000Y-130270000D02*
X190330000Y-130270000D01*
X187670000Y-129000000D02*
X187670000Y-127670000D01*
X187670000Y-127670000D02*
X189000000Y-127670000D01*
X112390000Y-130210000D02*
X112390000Y-126290000D01*
X115110000Y-130210000D02*
X115110000Y-126290000D01*
X112390000Y-130210000D02*
X113000000Y-130210000D01*
X114500000Y-130210000D02*
X115110000Y-130210000D01*
X112390000Y-126290000D02*
X113000000Y-126290000D01*
X114500000Y-126290000D02*
X115110000Y-126290000D01*
X113950000Y-141330000D02*
X113950000Y-136130000D01*
X103730000Y-141330000D02*
X113950000Y-141330000D01*
X101130000Y-136130000D02*
X113950000Y-136130000D01*
X103730000Y-141330000D02*
X103730000Y-138730000D01*
X103730000Y-138730000D02*
X101130000Y-138730000D01*
X101130000Y-138730000D02*
X101130000Y-136130000D01*
X102460000Y-141330000D02*
X101130000Y-141330000D01*
X101130000Y-141330000D02*
X101130000Y-140000000D01*
D12*
G36*
X118247569Y-87694651D02*
X118208416Y-87806389D01*
X118012353Y-88592907D01*
X117836710Y-89708773D01*
X117793416Y-90099444D01*
X117563822Y-91445225D01*
X117139826Y-92216887D01*
X116430651Y-92538215D01*
X115982456Y-92568889D01*
X114850842Y-92733010D01*
X113415887Y-93153501D01*
X111974796Y-93722549D01*
X110824774Y-94332342D01*
X110534335Y-94545202D01*
X109271703Y-96044671D01*
X108474452Y-97943209D01*
X108175504Y-100082398D01*
X108407783Y-102303822D01*
X108708883Y-103328611D01*
X109050383Y-104605101D01*
X109226998Y-105902105D01*
X109232738Y-106076924D01*
X109434475Y-107269528D01*
X109905454Y-108326544D01*
X109935805Y-108369979D01*
X110348488Y-109230518D01*
X110732019Y-110518029D01*
X110980022Y-111795278D01*
X111363402Y-114287168D01*
X111750043Y-116504021D01*
X112119733Y-118347698D01*
X112452257Y-119720062D01*
X112727404Y-120522974D01*
X112803289Y-120647603D01*
X113050317Y-121202018D01*
X113349418Y-122238949D01*
X113639751Y-123544448D01*
X113665768Y-123680516D01*
X114293815Y-126521086D01*
X115155325Y-129540222D01*
X116306439Y-132929946D01*
X116623174Y-133796009D01*
X117113817Y-135179092D01*
X117490184Y-136348455D01*
X117694378Y-137119485D01*
X117714889Y-137277215D01*
X117934429Y-137852163D01*
X118486137Y-138667924D01*
X118755822Y-138993246D01*
X119472340Y-140028890D01*
X119959666Y-141129575D01*
X120023068Y-141385159D01*
X120681762Y-143077269D01*
X121959232Y-144430766D01*
X123855129Y-145445401D01*
X126369103Y-146120925D01*
X126778994Y-146189781D01*
X127891878Y-146395737D01*
X128727821Y-146606621D01*
X128986262Y-146709452D01*
X129511266Y-146848935D01*
X130517892Y-146987380D01*
X131717695Y-147089680D01*
X133124191Y-147217478D01*
X134403431Y-147399979D01*
X135154872Y-147565140D01*
X136102653Y-147754206D01*
X137695660Y-147940857D01*
X139948836Y-148126317D01*
X142877124Y-148311807D01*
X146495467Y-148498552D01*
X146642667Y-148505497D01*
X148318199Y-148583328D01*
X149496980Y-148630134D01*
X150387079Y-148647131D01*
X151196563Y-148635538D01*
X152133502Y-148596571D01*
X153169055Y-148543689D01*
X155840101Y-148194544D01*
X157937050Y-147450564D01*
X159473883Y-146306754D01*
X159495856Y-146283167D01*
X161566093Y-144090068D01*
X163519134Y-142104105D01*
X165250260Y-140428783D01*
X166654753Y-139167610D01*
X166905634Y-138959167D01*
X168618250Y-137485749D01*
X170242187Y-135947848D01*
X171651475Y-134475446D01*
X172720149Y-133198523D01*
X173230011Y-132433310D01*
X174023609Y-131120294D01*
X175065936Y-129603578D01*
X176271572Y-127985608D01*
X177555098Y-126368827D01*
X178831092Y-124855682D01*
X180014136Y-123548617D01*
X181018808Y-122550076D01*
X181759689Y-121962504D01*
X182055009Y-121849444D01*
X182009213Y-122050679D01*
X181528316Y-122569637D01*
X180974276Y-123070000D01*
X180150928Y-123885253D01*
X179075711Y-125104619D01*
X177859165Y-126584775D01*
X176611825Y-128182399D01*
X175444231Y-129754170D01*
X174466920Y-131156765D01*
X173790429Y-132246862D01*
X173597606Y-132634528D01*
X173179008Y-133260290D01*
X172340565Y-134235509D01*
X171191221Y-135442533D01*
X169839918Y-136763708D01*
X169350977Y-137220639D01*
X166855545Y-139531254D01*
X164843355Y-141410153D01*
X163273367Y-142897786D01*
X162104542Y-144034600D01*
X161295841Y-144861045D01*
X160806224Y-145417567D01*
X160594653Y-145744616D01*
X160588756Y-145856726D01*
X160445380Y-146228883D01*
X159831903Y-146795832D01*
X158913840Y-147446097D01*
X157856707Y-148068202D01*
X156826020Y-148550671D01*
X156351776Y-148710370D01*
X155224949Y-148928114D01*
X153752795Y-149097875D01*
X152559099Y-149170088D01*
X150908436Y-149308802D01*
X149856760Y-149615966D01*
X149532710Y-149833901D01*
X148673482Y-150348138D01*
X147946685Y-150314881D01*
X147561210Y-149863442D01*
X147448606Y-149251739D01*
X147492553Y-149065205D01*
X147217114Y-148973195D01*
X146359907Y-148886298D01*
X145044712Y-148812965D01*
X143395308Y-148761644D01*
X142915448Y-148752765D01*
X140998486Y-148729425D01*
X139666762Y-148740799D01*
X138800246Y-148801532D01*
X138278904Y-148926268D01*
X137982706Y-149129653D01*
X137818672Y-149374613D01*
X137163817Y-149945086D01*
X136569367Y-150071667D01*
X135942131Y-149968963D01*
X135840754Y-149525543D01*
X135898758Y-149252314D01*
X135939951Y-148697838D01*
X135603289Y-148342317D01*
X134731963Y-148021774D01*
X134718022Y-148017592D01*
X133447633Y-147751852D01*
X132021048Y-147609689D01*
X131685546Y-147602222D01*
X130352183Y-147481366D01*
X129064557Y-147180531D01*
X128772975Y-147073056D01*
X127669987Y-146716643D01*
X126651378Y-146546327D01*
X126554094Y-146543889D01*
X124512458Y-146237634D01*
X122627008Y-145390548D01*
X121045431Y-144110155D01*
X119915415Y-142503974D01*
X119512807Y-141417604D01*
X119179332Y-140458905D01*
X118790419Y-139832595D01*
X118655585Y-139736083D01*
X118271380Y-139295162D01*
X117749826Y-138275750D01*
X117126668Y-136783352D01*
X116437654Y-134923470D01*
X115718527Y-132801608D01*
X115005034Y-130523268D01*
X114332920Y-128193953D01*
X113737932Y-125919168D01*
X113255814Y-123804415D01*
X113252777Y-123789722D01*
X112947101Y-122456551D01*
X112650171Y-121408563D01*
X112414417Y-120824313D01*
X112365278Y-120767312D01*
X112201907Y-120368938D01*
X111946197Y-119396580D01*
X111625975Y-117971499D01*
X111269067Y-116214959D01*
X111028805Y-114943203D01*
X110588707Y-112576432D01*
X110243888Y-110817957D01*
X109971193Y-109580527D01*
X109747470Y-108776894D01*
X109549565Y-108319808D01*
X109354325Y-108122019D01*
X109210479Y-108091111D01*
X108993743Y-107782413D01*
X108888649Y-107030597D01*
X108887141Y-106944583D01*
X108791699Y-106038610D01*
X108548133Y-104726114D01*
X108207273Y-103277500D01*
X108174235Y-103152222D01*
X107727919Y-100509575D01*
X107859119Y-98161658D01*
X108556970Y-96156938D01*
X109810604Y-94543881D01*
X110173306Y-94235817D01*
X111217905Y-93594797D01*
X112597800Y-92974354D01*
X114028071Y-92483107D01*
X115223795Y-92229674D01*
X115471287Y-92216111D01*
X116488421Y-91905162D01*
X117159721Y-91060571D01*
X117374612Y-89986052D01*
X117560582Y-88870687D01*
X117928145Y-87982778D01*
X118241023Y-87534099D01*
X118247569Y-87694651D01*
X118247569Y-87694651D01*
G37*
X118247569Y-87694651D02*
X118208416Y-87806389D01*
X118012353Y-88592907D01*
X117836710Y-89708773D01*
X117793416Y-90099444D01*
X117563822Y-91445225D01*
X117139826Y-92216887D01*
X116430651Y-92538215D01*
X115982456Y-92568889D01*
X114850842Y-92733010D01*
X113415887Y-93153501D01*
X111974796Y-93722549D01*
X110824774Y-94332342D01*
X110534335Y-94545202D01*
X109271703Y-96044671D01*
X108474452Y-97943209D01*
X108175504Y-100082398D01*
X108407783Y-102303822D01*
X108708883Y-103328611D01*
X109050383Y-104605101D01*
X109226998Y-105902105D01*
X109232738Y-106076924D01*
X109434475Y-107269528D01*
X109905454Y-108326544D01*
X109935805Y-108369979D01*
X110348488Y-109230518D01*
X110732019Y-110518029D01*
X110980022Y-111795278D01*
X111363402Y-114287168D01*
X111750043Y-116504021D01*
X112119733Y-118347698D01*
X112452257Y-119720062D01*
X112727404Y-120522974D01*
X112803289Y-120647603D01*
X113050317Y-121202018D01*
X113349418Y-122238949D01*
X113639751Y-123544448D01*
X113665768Y-123680516D01*
X114293815Y-126521086D01*
X115155325Y-129540222D01*
X116306439Y-132929946D01*
X116623174Y-133796009D01*
X117113817Y-135179092D01*
X117490184Y-136348455D01*
X117694378Y-137119485D01*
X117714889Y-137277215D01*
X117934429Y-137852163D01*
X118486137Y-138667924D01*
X118755822Y-138993246D01*
X119472340Y-140028890D01*
X119959666Y-141129575D01*
X120023068Y-141385159D01*
X120681762Y-143077269D01*
X121959232Y-144430766D01*
X123855129Y-145445401D01*
X126369103Y-146120925D01*
X126778994Y-146189781D01*
X127891878Y-146395737D01*
X128727821Y-146606621D01*
X128986262Y-146709452D01*
X129511266Y-146848935D01*
X130517892Y-146987380D01*
X131717695Y-147089680D01*
X133124191Y-147217478D01*
X134403431Y-147399979D01*
X135154872Y-147565140D01*
X136102653Y-147754206D01*
X137695660Y-147940857D01*
X139948836Y-148126317D01*
X142877124Y-148311807D01*
X146495467Y-148498552D01*
X146642667Y-148505497D01*
X148318199Y-148583328D01*
X149496980Y-148630134D01*
X150387079Y-148647131D01*
X151196563Y-148635538D01*
X152133502Y-148596571D01*
X153169055Y-148543689D01*
X155840101Y-148194544D01*
X157937050Y-147450564D01*
X159473883Y-146306754D01*
X159495856Y-146283167D01*
X161566093Y-144090068D01*
X163519134Y-142104105D01*
X165250260Y-140428783D01*
X166654753Y-139167610D01*
X166905634Y-138959167D01*
X168618250Y-137485749D01*
X170242187Y-135947848D01*
X171651475Y-134475446D01*
X172720149Y-133198523D01*
X173230011Y-132433310D01*
X174023609Y-131120294D01*
X175065936Y-129603578D01*
X176271572Y-127985608D01*
X177555098Y-126368827D01*
X178831092Y-124855682D01*
X180014136Y-123548617D01*
X181018808Y-122550076D01*
X181759689Y-121962504D01*
X182055009Y-121849444D01*
X182009213Y-122050679D01*
X181528316Y-122569637D01*
X180974276Y-123070000D01*
X180150928Y-123885253D01*
X179075711Y-125104619D01*
X177859165Y-126584775D01*
X176611825Y-128182399D01*
X175444231Y-129754170D01*
X174466920Y-131156765D01*
X173790429Y-132246862D01*
X173597606Y-132634528D01*
X173179008Y-133260290D01*
X172340565Y-134235509D01*
X171191221Y-135442533D01*
X169839918Y-136763708D01*
X169350977Y-137220639D01*
X166855545Y-139531254D01*
X164843355Y-141410153D01*
X163273367Y-142897786D01*
X162104542Y-144034600D01*
X161295841Y-144861045D01*
X160806224Y-145417567D01*
X160594653Y-145744616D01*
X160588756Y-145856726D01*
X160445380Y-146228883D01*
X159831903Y-146795832D01*
X158913840Y-147446097D01*
X157856707Y-148068202D01*
X156826020Y-148550671D01*
X156351776Y-148710370D01*
X155224949Y-148928114D01*
X153752795Y-149097875D01*
X152559099Y-149170088D01*
X150908436Y-149308802D01*
X149856760Y-149615966D01*
X149532710Y-149833901D01*
X148673482Y-150348138D01*
X147946685Y-150314881D01*
X147561210Y-149863442D01*
X147448606Y-149251739D01*
X147492553Y-149065205D01*
X147217114Y-148973195D01*
X146359907Y-148886298D01*
X145044712Y-148812965D01*
X143395308Y-148761644D01*
X142915448Y-148752765D01*
X140998486Y-148729425D01*
X139666762Y-148740799D01*
X138800246Y-148801532D01*
X138278904Y-148926268D01*
X137982706Y-149129653D01*
X137818672Y-149374613D01*
X137163817Y-149945086D01*
X136569367Y-150071667D01*
X135942131Y-149968963D01*
X135840754Y-149525543D01*
X135898758Y-149252314D01*
X135939951Y-148697838D01*
X135603289Y-148342317D01*
X134731963Y-148021774D01*
X134718022Y-148017592D01*
X133447633Y-147751852D01*
X132021048Y-147609689D01*
X131685546Y-147602222D01*
X130352183Y-147481366D01*
X129064557Y-147180531D01*
X128772975Y-147073056D01*
X127669987Y-146716643D01*
X126651378Y-146546327D01*
X126554094Y-146543889D01*
X124512458Y-146237634D01*
X122627008Y-145390548D01*
X121045431Y-144110155D01*
X119915415Y-142503974D01*
X119512807Y-141417604D01*
X119179332Y-140458905D01*
X118790419Y-139832595D01*
X118655585Y-139736083D01*
X118271380Y-139295162D01*
X117749826Y-138275750D01*
X117126668Y-136783352D01*
X116437654Y-134923470D01*
X115718527Y-132801608D01*
X115005034Y-130523268D01*
X114332920Y-128193953D01*
X113737932Y-125919168D01*
X113255814Y-123804415D01*
X113252777Y-123789722D01*
X112947101Y-122456551D01*
X112650171Y-121408563D01*
X112414417Y-120824313D01*
X112365278Y-120767312D01*
X112201907Y-120368938D01*
X111946197Y-119396580D01*
X111625975Y-117971499D01*
X111269067Y-116214959D01*
X111028805Y-114943203D01*
X110588707Y-112576432D01*
X110243888Y-110817957D01*
X109971193Y-109580527D01*
X109747470Y-108776894D01*
X109549565Y-108319808D01*
X109354325Y-108122019D01*
X109210479Y-108091111D01*
X108993743Y-107782413D01*
X108888649Y-107030597D01*
X108887141Y-106944583D01*
X108791699Y-106038610D01*
X108548133Y-104726114D01*
X108207273Y-103277500D01*
X108174235Y-103152222D01*
X107727919Y-100509575D01*
X107859119Y-98161658D01*
X108556970Y-96156938D01*
X109810604Y-94543881D01*
X110173306Y-94235817D01*
X111217905Y-93594797D01*
X112597800Y-92974354D01*
X114028071Y-92483107D01*
X115223795Y-92229674D01*
X115471287Y-92216111D01*
X116488421Y-91905162D01*
X117159721Y-91060571D01*
X117374612Y-89986052D01*
X117560582Y-88870687D01*
X117928145Y-87982778D01*
X118241023Y-87534099D01*
X118247569Y-87694651D01*
G36*
X129962543Y-137333077D02*
X129975959Y-138158517D01*
X129853094Y-139319523D01*
X129606310Y-140640408D01*
X129520260Y-141000775D01*
X129458972Y-141536910D01*
X129761204Y-141749643D01*
X130560424Y-141766909D01*
X131534052Y-141806323D01*
X132162256Y-141960776D01*
X132326333Y-142174420D01*
X131907580Y-142391405D01*
X131894874Y-142394762D01*
X131139083Y-142438858D01*
X130811432Y-142337604D01*
X130159242Y-142180342D01*
X129286234Y-142230073D01*
X128469232Y-142435639D01*
X127985060Y-142745881D01*
X127945444Y-142867246D01*
X127700539Y-143186223D01*
X127416278Y-143143685D01*
X126947801Y-142720327D01*
X126887111Y-142486520D01*
X126586998Y-142152764D01*
X126039019Y-142083291D01*
X125448276Y-142200045D01*
X125331437Y-142361784D01*
X125191894Y-142663457D01*
X124974003Y-142780481D01*
X124441490Y-142678851D01*
X124270498Y-142435881D01*
X124051703Y-142140873D01*
X123629405Y-142210836D01*
X122876746Y-142634545D01*
X121945002Y-143175487D01*
X121457686Y-143286218D01*
X121271418Y-142926766D01*
X121242667Y-142179011D01*
X121313791Y-141682123D01*
X121636367Y-141682123D01*
X121667794Y-142536690D01*
X121876426Y-142831149D01*
X122133615Y-142787452D01*
X122464538Y-142443271D01*
X122347966Y-142181163D01*
X121992260Y-141511133D01*
X121902836Y-141236116D01*
X122400764Y-141236116D01*
X122612961Y-141871463D01*
X123064439Y-141873905D01*
X123678315Y-141215476D01*
X123861442Y-140899444D01*
X124241278Y-140899444D01*
X124269248Y-141224523D01*
X124396847Y-141252222D01*
X124756088Y-140996137D01*
X124770444Y-140899444D01*
X124650082Y-140555839D01*
X124614875Y-140546667D01*
X124313685Y-140793871D01*
X124241278Y-140899444D01*
X123861442Y-140899444D01*
X124057719Y-140560721D01*
X124496717Y-139484922D01*
X124735239Y-138466404D01*
X124747486Y-137698084D01*
X124507661Y-137372876D01*
X124484187Y-137371667D01*
X123855113Y-137672658D01*
X123196040Y-138425977D01*
X122676302Y-139407136D01*
X122504730Y-139995830D01*
X122400764Y-141236116D01*
X121902836Y-141236116D01*
X121850718Y-141075833D01*
X121733458Y-140899768D01*
X121652409Y-141359121D01*
X121636367Y-141682123D01*
X121313791Y-141682123D01*
X121413917Y-140982623D01*
X121855733Y-139653175D01*
X122460217Y-138432084D01*
X123119469Y-137560764D01*
X123401334Y-137349188D01*
X124270678Y-137064110D01*
X124806842Y-137350871D01*
X125040721Y-138242688D01*
X125047265Y-139118772D01*
X125066335Y-140398166D01*
X125332141Y-141146980D01*
X125948964Y-141525661D01*
X126700796Y-141662851D01*
X127315340Y-141686192D01*
X127682819Y-141472372D01*
X127815502Y-141154316D01*
X128392065Y-141154316D01*
X128512141Y-141586431D01*
X128771615Y-141427709D01*
X129094056Y-140703820D01*
X129327323Y-139823747D01*
X129599846Y-138452105D01*
X129685126Y-137702248D01*
X129579970Y-137514835D01*
X129281183Y-137830522D01*
X129224386Y-137910532D01*
X128857020Y-138700760D01*
X128545990Y-139800972D01*
X128487822Y-140105694D01*
X128392065Y-141154316D01*
X127815502Y-141154316D01*
X127937785Y-140861193D01*
X128164082Y-139920659D01*
X128643811Y-138299268D01*
X129209332Y-137322314D01*
X129800480Y-137018889D01*
X129962543Y-137333077D01*
X129962543Y-137333077D01*
G37*
X129962543Y-137333077D02*
X129975959Y-138158517D01*
X129853094Y-139319523D01*
X129606310Y-140640408D01*
X129520260Y-141000775D01*
X129458972Y-141536910D01*
X129761204Y-141749643D01*
X130560424Y-141766909D01*
X131534052Y-141806323D01*
X132162256Y-141960776D01*
X132326333Y-142174420D01*
X131907580Y-142391405D01*
X131894874Y-142394762D01*
X131139083Y-142438858D01*
X130811432Y-142337604D01*
X130159242Y-142180342D01*
X129286234Y-142230073D01*
X128469232Y-142435639D01*
X127985060Y-142745881D01*
X127945444Y-142867246D01*
X127700539Y-143186223D01*
X127416278Y-143143685D01*
X126947801Y-142720327D01*
X126887111Y-142486520D01*
X126586998Y-142152764D01*
X126039019Y-142083291D01*
X125448276Y-142200045D01*
X125331437Y-142361784D01*
X125191894Y-142663457D01*
X124974003Y-142780481D01*
X124441490Y-142678851D01*
X124270498Y-142435881D01*
X124051703Y-142140873D01*
X123629405Y-142210836D01*
X122876746Y-142634545D01*
X121945002Y-143175487D01*
X121457686Y-143286218D01*
X121271418Y-142926766D01*
X121242667Y-142179011D01*
X121313791Y-141682123D01*
X121636367Y-141682123D01*
X121667794Y-142536690D01*
X121876426Y-142831149D01*
X122133615Y-142787452D01*
X122464538Y-142443271D01*
X122347966Y-142181163D01*
X121992260Y-141511133D01*
X121902836Y-141236116D01*
X122400764Y-141236116D01*
X122612961Y-141871463D01*
X123064439Y-141873905D01*
X123678315Y-141215476D01*
X123861442Y-140899444D01*
X124241278Y-140899444D01*
X124269248Y-141224523D01*
X124396847Y-141252222D01*
X124756088Y-140996137D01*
X124770444Y-140899444D01*
X124650082Y-140555839D01*
X124614875Y-140546667D01*
X124313685Y-140793871D01*
X124241278Y-140899444D01*
X123861442Y-140899444D01*
X124057719Y-140560721D01*
X124496717Y-139484922D01*
X124735239Y-138466404D01*
X124747486Y-137698084D01*
X124507661Y-137372876D01*
X124484187Y-137371667D01*
X123855113Y-137672658D01*
X123196040Y-138425977D01*
X122676302Y-139407136D01*
X122504730Y-139995830D01*
X122400764Y-141236116D01*
X121902836Y-141236116D01*
X121850718Y-141075833D01*
X121733458Y-140899768D01*
X121652409Y-141359121D01*
X121636367Y-141682123D01*
X121313791Y-141682123D01*
X121413917Y-140982623D01*
X121855733Y-139653175D01*
X122460217Y-138432084D01*
X123119469Y-137560764D01*
X123401334Y-137349188D01*
X124270678Y-137064110D01*
X124806842Y-137350871D01*
X125040721Y-138242688D01*
X125047265Y-139118772D01*
X125066335Y-140398166D01*
X125332141Y-141146980D01*
X125948964Y-141525661D01*
X126700796Y-141662851D01*
X127315340Y-141686192D01*
X127682819Y-141472372D01*
X127815502Y-141154316D01*
X128392065Y-141154316D01*
X128512141Y-141586431D01*
X128771615Y-141427709D01*
X129094056Y-140703820D01*
X129327323Y-139823747D01*
X129599846Y-138452105D01*
X129685126Y-137702248D01*
X129579970Y-137514835D01*
X129281183Y-137830522D01*
X129224386Y-137910532D01*
X128857020Y-138700760D01*
X128545990Y-139800972D01*
X128487822Y-140105694D01*
X128392065Y-141154316D01*
X127815502Y-141154316D01*
X127937785Y-140861193D01*
X128164082Y-139920659D01*
X128643811Y-138299268D01*
X129209332Y-137322314D01*
X129800480Y-137018889D01*
X129962543Y-137333077D01*
G36*
X195182736Y-97578154D02*
X195098448Y-101802444D01*
X196711530Y-101571399D01*
X197783451Y-101312250D01*
X198585813Y-100931388D01*
X198765583Y-100767751D01*
X199104497Y-100409295D01*
X199202741Y-100684469D01*
X199206556Y-100930386D01*
X199036095Y-101549311D01*
X198450862Y-101914944D01*
X197340081Y-102075471D01*
X196531869Y-102093889D01*
X195595117Y-102160702D01*
X195039303Y-102329422D01*
X194973222Y-102424487D01*
X194665442Y-102599261D01*
X193901080Y-102621514D01*
X193650306Y-102597674D01*
X192934903Y-102548587D01*
X192734951Y-102615050D01*
X192812458Y-102663951D01*
X193455723Y-103072936D01*
X193933700Y-103460903D01*
X194689731Y-104123125D01*
X195124325Y-104489048D01*
X195589714Y-105206168D01*
X195678778Y-105675867D01*
X195900635Y-106282012D01*
X196487446Y-107218237D01*
X197321071Y-108300395D01*
X197488662Y-108496982D01*
X198319431Y-109494966D01*
X198906820Y-110276516D01*
X199149584Y-110704474D01*
X199144520Y-110740184D01*
X198715995Y-110773768D01*
X197947002Y-110606514D01*
X197120587Y-110328240D01*
X196519793Y-110028766D01*
X196384333Y-109864285D01*
X196125132Y-109491115D01*
X195513097Y-109463332D01*
X194796585Y-109757026D01*
X194444056Y-110051089D01*
X193737841Y-110691672D01*
X192727605Y-111477635D01*
X192151000Y-111885367D01*
X190139871Y-113462591D01*
X187955211Y-115556703D01*
X185721986Y-118045291D01*
X185138661Y-118754398D01*
X184204875Y-119853617D01*
X183374364Y-120730557D01*
X182787032Y-121240750D01*
X182669216Y-121304436D01*
X182511608Y-121262850D01*
X182859334Y-120901293D01*
X182978778Y-120803597D01*
X183507576Y-120327010D01*
X183626383Y-120096956D01*
X183607102Y-120093400D01*
X183671267Y-119854824D01*
X184217946Y-119145411D01*
X185252942Y-117958382D01*
X186782061Y-116286960D01*
X187795509Y-115201656D01*
X189613629Y-113265006D01*
X188805204Y-112000975D01*
X188528996Y-111354305D01*
X189582235Y-111354305D01*
X189594573Y-111901897D01*
X189810686Y-112569257D01*
X190102337Y-113000120D01*
X190185391Y-113030000D01*
X190400992Y-112753650D01*
X190521716Y-112482511D01*
X190547610Y-112117766D01*
X190345276Y-112173911D01*
X190108917Y-112138874D01*
X190196701Y-111663067D01*
X190210042Y-111204049D01*
X191112950Y-111204049D01*
X191191163Y-111572576D01*
X191745132Y-111469380D01*
X192468270Y-111039609D01*
X193014409Y-110604518D01*
X193007081Y-110332203D01*
X192666307Y-110108321D01*
X192048290Y-109977434D01*
X191564986Y-110402250D01*
X191112950Y-111204049D01*
X190210042Y-111204049D01*
X190213877Y-111072106D01*
X189936835Y-110911665D01*
X189602576Y-111300832D01*
X189582235Y-111354305D01*
X188528996Y-111354305D01*
X188159920Y-110490213D01*
X188660632Y-110490213D01*
X188670316Y-111019175D01*
X188938257Y-111266111D01*
X189328755Y-110986940D01*
X189443117Y-110771434D01*
X189478623Y-110185729D01*
X190453257Y-110185729D01*
X190549558Y-110513733D01*
X190761937Y-110494410D01*
X191296572Y-110047762D01*
X191379299Y-109877049D01*
X191282998Y-109549045D01*
X191070618Y-109568368D01*
X190535983Y-110015016D01*
X190453257Y-110185729D01*
X189478623Y-110185729D01*
X189478801Y-110182793D01*
X189145242Y-109978227D01*
X188926794Y-110061800D01*
X188660632Y-110490213D01*
X188159920Y-110490213D01*
X188141880Y-110447978D01*
X187925376Y-109149444D01*
X188270444Y-109149444D01*
X188341586Y-109710170D01*
X188607593Y-109653813D01*
X188693778Y-109572778D01*
X188787005Y-109387604D01*
X189478313Y-109387604D01*
X189760643Y-109770786D01*
X190055153Y-109855000D01*
X190380740Y-109618306D01*
X190387111Y-109561018D01*
X190156982Y-109049768D01*
X189679275Y-108978773D01*
X189626596Y-109007023D01*
X189478313Y-109387604D01*
X188787005Y-109387604D01*
X188935466Y-109092721D01*
X188693778Y-108726111D01*
X188377844Y-108552461D01*
X188273019Y-108979650D01*
X188270444Y-109149444D01*
X187925376Y-109149444D01*
X187795475Y-108370335D01*
X187781920Y-108208704D01*
X189093593Y-108208704D01*
X189142018Y-108418430D01*
X189328778Y-108443889D01*
X189619154Y-108314813D01*
X189563963Y-108208704D01*
X189145298Y-108166483D01*
X189093593Y-108208704D01*
X187781920Y-108208704D01*
X187694026Y-107160686D01*
X187709821Y-106502324D01*
X187942103Y-106372339D01*
X188490118Y-106747818D01*
X189453109Y-107605851D01*
X189789162Y-107910081D01*
X190671786Y-108562439D01*
X191775212Y-109193676D01*
X192836780Y-109669340D01*
X193588686Y-109855000D01*
X193891658Y-109557181D01*
X194316309Y-108811978D01*
X194762452Y-107841768D01*
X195129900Y-106868932D01*
X195318465Y-106115849D01*
X195326000Y-105998803D01*
X195084913Y-105407317D01*
X194478849Y-104620816D01*
X194179472Y-104315020D01*
X192641086Y-103322449D01*
X190752238Y-102910616D01*
X188560481Y-103077683D01*
X186113372Y-103821816D01*
X184249152Y-104698297D01*
X183102327Y-105295491D01*
X182490386Y-105560803D01*
X182335972Y-105513021D01*
X182561728Y-105170930D01*
X182626000Y-105092500D01*
X183191136Y-104646018D01*
X183483714Y-104563333D01*
X184088291Y-104369825D01*
X184534800Y-104100808D01*
X184864886Y-103809435D01*
X184680764Y-103719802D01*
X183893401Y-103787008D01*
X183001465Y-103964477D01*
X182461154Y-104207826D01*
X182425521Y-104249533D01*
X181954464Y-104463834D01*
X181077360Y-104553039D01*
X180081489Y-104522833D01*
X179254133Y-104378904D01*
X178902836Y-104179817D01*
X178903087Y-103630807D01*
X179058405Y-103403706D01*
X179391430Y-103195942D01*
X179451000Y-103410672D01*
X179755002Y-103862155D01*
X180529318Y-104075045D01*
X181567411Y-104009953D01*
X182007257Y-103898191D01*
X183087927Y-103583911D01*
X184391285Y-103235516D01*
X184785497Y-103136155D01*
X186415828Y-102733152D01*
X186426703Y-102186799D01*
X186859333Y-102186799D01*
X187200450Y-102366263D01*
X188205652Y-102403288D01*
X189558393Y-102322043D01*
X191050144Y-102209122D01*
X192425248Y-102127537D01*
X193399346Y-102094007D01*
X193438948Y-102093889D01*
X194233667Y-102001586D01*
X194614708Y-101775883D01*
X194620444Y-101741111D01*
X194287936Y-101570886D01*
X193369524Y-101451218D01*
X191983882Y-101395485D01*
X191533639Y-101393150D01*
X189463097Y-101436182D01*
X188034665Y-101564478D01*
X187188911Y-101788129D01*
X186866405Y-102117226D01*
X186859333Y-102186799D01*
X186426703Y-102186799D01*
X186455546Y-100737826D01*
X186454799Y-100720521D01*
X186859333Y-100720521D01*
X187006556Y-101258060D01*
X187417353Y-101249688D01*
X188180010Y-101089398D01*
X188993781Y-101035556D01*
X189705544Y-100940616D01*
X189841556Y-100608213D01*
X189809129Y-100506389D01*
X189348543Y-100153611D01*
X191798222Y-100153611D01*
X192031235Y-100521557D01*
X192803650Y-100673174D01*
X193209333Y-100682778D01*
X194190522Y-100595398D01*
X194594834Y-100305742D01*
X194620444Y-100153611D01*
X194387432Y-99785665D01*
X193615017Y-99634048D01*
X193209333Y-99624444D01*
X192228145Y-99711824D01*
X191823832Y-100001480D01*
X191798222Y-100153611D01*
X189348543Y-100153611D01*
X189285613Y-100105411D01*
X188232701Y-99977222D01*
X187329375Y-100036743D01*
X186935720Y-100284147D01*
X186859333Y-100720521D01*
X186454799Y-100720521D01*
X186387593Y-99164797D01*
X186169979Y-97464433D01*
X186029328Y-96762515D01*
X185748067Y-95567299D01*
X186218433Y-95567299D01*
X186275054Y-95832083D01*
X186455806Y-96684083D01*
X186662609Y-97829275D01*
X186717519Y-98164886D01*
X186962221Y-99703938D01*
X189115638Y-99450538D01*
X190592917Y-99288420D01*
X192058398Y-99146033D01*
X192801003Y-99084167D01*
X193782885Y-98972044D01*
X194431576Y-98824422D01*
X194535902Y-98768246D01*
X194712071Y-98258569D01*
X194830086Y-97310208D01*
X194879994Y-96188386D01*
X194851841Y-95158325D01*
X194735672Y-94485248D01*
X194699315Y-94414304D01*
X194363873Y-94177094D01*
X193746108Y-94229844D01*
X192875455Y-94502498D01*
X191724196Y-94777293D01*
X190201276Y-94970123D01*
X188717014Y-95038333D01*
X187376725Y-95049119D01*
X186604903Y-95111175D01*
X186264492Y-95269052D01*
X186218433Y-95567299D01*
X185748067Y-95567299D01*
X185563392Y-94782531D01*
X188592613Y-94568220D01*
X190270355Y-94403754D01*
X191937102Y-94164831D01*
X193273058Y-93898536D01*
X193444429Y-93853887D01*
X195267025Y-93353863D01*
X195182736Y-97578154D01*
X195182736Y-97578154D01*
G37*
X195182736Y-97578154D02*
X195098448Y-101802444D01*
X196711530Y-101571399D01*
X197783451Y-101312250D01*
X198585813Y-100931388D01*
X198765583Y-100767751D01*
X199104497Y-100409295D01*
X199202741Y-100684469D01*
X199206556Y-100930386D01*
X199036095Y-101549311D01*
X198450862Y-101914944D01*
X197340081Y-102075471D01*
X196531869Y-102093889D01*
X195595117Y-102160702D01*
X195039303Y-102329422D01*
X194973222Y-102424487D01*
X194665442Y-102599261D01*
X193901080Y-102621514D01*
X193650306Y-102597674D01*
X192934903Y-102548587D01*
X192734951Y-102615050D01*
X192812458Y-102663951D01*
X193455723Y-103072936D01*
X193933700Y-103460903D01*
X194689731Y-104123125D01*
X195124325Y-104489048D01*
X195589714Y-105206168D01*
X195678778Y-105675867D01*
X195900635Y-106282012D01*
X196487446Y-107218237D01*
X197321071Y-108300395D01*
X197488662Y-108496982D01*
X198319431Y-109494966D01*
X198906820Y-110276516D01*
X199149584Y-110704474D01*
X199144520Y-110740184D01*
X198715995Y-110773768D01*
X197947002Y-110606514D01*
X197120587Y-110328240D01*
X196519793Y-110028766D01*
X196384333Y-109864285D01*
X196125132Y-109491115D01*
X195513097Y-109463332D01*
X194796585Y-109757026D01*
X194444056Y-110051089D01*
X193737841Y-110691672D01*
X192727605Y-111477635D01*
X192151000Y-111885367D01*
X190139871Y-113462591D01*
X187955211Y-115556703D01*
X185721986Y-118045291D01*
X185138661Y-118754398D01*
X184204875Y-119853617D01*
X183374364Y-120730557D01*
X182787032Y-121240750D01*
X182669216Y-121304436D01*
X182511608Y-121262850D01*
X182859334Y-120901293D01*
X182978778Y-120803597D01*
X183507576Y-120327010D01*
X183626383Y-120096956D01*
X183607102Y-120093400D01*
X183671267Y-119854824D01*
X184217946Y-119145411D01*
X185252942Y-117958382D01*
X186782061Y-116286960D01*
X187795509Y-115201656D01*
X189613629Y-113265006D01*
X188805204Y-112000975D01*
X188528996Y-111354305D01*
X189582235Y-111354305D01*
X189594573Y-111901897D01*
X189810686Y-112569257D01*
X190102337Y-113000120D01*
X190185391Y-113030000D01*
X190400992Y-112753650D01*
X190521716Y-112482511D01*
X190547610Y-112117766D01*
X190345276Y-112173911D01*
X190108917Y-112138874D01*
X190196701Y-111663067D01*
X190210042Y-111204049D01*
X191112950Y-111204049D01*
X191191163Y-111572576D01*
X191745132Y-111469380D01*
X192468270Y-111039609D01*
X193014409Y-110604518D01*
X193007081Y-110332203D01*
X192666307Y-110108321D01*
X192048290Y-109977434D01*
X191564986Y-110402250D01*
X191112950Y-111204049D01*
X190210042Y-111204049D01*
X190213877Y-111072106D01*
X189936835Y-110911665D01*
X189602576Y-111300832D01*
X189582235Y-111354305D01*
X188528996Y-111354305D01*
X188159920Y-110490213D01*
X188660632Y-110490213D01*
X188670316Y-111019175D01*
X188938257Y-111266111D01*
X189328755Y-110986940D01*
X189443117Y-110771434D01*
X189478623Y-110185729D01*
X190453257Y-110185729D01*
X190549558Y-110513733D01*
X190761937Y-110494410D01*
X191296572Y-110047762D01*
X191379299Y-109877049D01*
X191282998Y-109549045D01*
X191070618Y-109568368D01*
X190535983Y-110015016D01*
X190453257Y-110185729D01*
X189478623Y-110185729D01*
X189478801Y-110182793D01*
X189145242Y-109978227D01*
X188926794Y-110061800D01*
X188660632Y-110490213D01*
X188159920Y-110490213D01*
X188141880Y-110447978D01*
X187925376Y-109149444D01*
X188270444Y-109149444D01*
X188341586Y-109710170D01*
X188607593Y-109653813D01*
X188693778Y-109572778D01*
X188787005Y-109387604D01*
X189478313Y-109387604D01*
X189760643Y-109770786D01*
X190055153Y-109855000D01*
X190380740Y-109618306D01*
X190387111Y-109561018D01*
X190156982Y-109049768D01*
X189679275Y-108978773D01*
X189626596Y-109007023D01*
X189478313Y-109387604D01*
X188787005Y-109387604D01*
X188935466Y-109092721D01*
X188693778Y-108726111D01*
X188377844Y-108552461D01*
X188273019Y-108979650D01*
X188270444Y-109149444D01*
X187925376Y-109149444D01*
X187795475Y-108370335D01*
X187781920Y-108208704D01*
X189093593Y-108208704D01*
X189142018Y-108418430D01*
X189328778Y-108443889D01*
X189619154Y-108314813D01*
X189563963Y-108208704D01*
X189145298Y-108166483D01*
X189093593Y-108208704D01*
X187781920Y-108208704D01*
X187694026Y-107160686D01*
X187709821Y-106502324D01*
X187942103Y-106372339D01*
X188490118Y-106747818D01*
X189453109Y-107605851D01*
X189789162Y-107910081D01*
X190671786Y-108562439D01*
X191775212Y-109193676D01*
X192836780Y-109669340D01*
X193588686Y-109855000D01*
X193891658Y-109557181D01*
X194316309Y-108811978D01*
X194762452Y-107841768D01*
X195129900Y-106868932D01*
X195318465Y-106115849D01*
X195326000Y-105998803D01*
X195084913Y-105407317D01*
X194478849Y-104620816D01*
X194179472Y-104315020D01*
X192641086Y-103322449D01*
X190752238Y-102910616D01*
X188560481Y-103077683D01*
X186113372Y-103821816D01*
X184249152Y-104698297D01*
X183102327Y-105295491D01*
X182490386Y-105560803D01*
X182335972Y-105513021D01*
X182561728Y-105170930D01*
X182626000Y-105092500D01*
X183191136Y-104646018D01*
X183483714Y-104563333D01*
X184088291Y-104369825D01*
X184534800Y-104100808D01*
X184864886Y-103809435D01*
X184680764Y-103719802D01*
X183893401Y-103787008D01*
X183001465Y-103964477D01*
X182461154Y-104207826D01*
X182425521Y-104249533D01*
X181954464Y-104463834D01*
X181077360Y-104553039D01*
X180081489Y-104522833D01*
X179254133Y-104378904D01*
X178902836Y-104179817D01*
X178903087Y-103630807D01*
X179058405Y-103403706D01*
X179391430Y-103195942D01*
X179451000Y-103410672D01*
X179755002Y-103862155D01*
X180529318Y-104075045D01*
X181567411Y-104009953D01*
X182007257Y-103898191D01*
X183087927Y-103583911D01*
X184391285Y-103235516D01*
X184785497Y-103136155D01*
X186415828Y-102733152D01*
X186426703Y-102186799D01*
X186859333Y-102186799D01*
X187200450Y-102366263D01*
X188205652Y-102403288D01*
X189558393Y-102322043D01*
X191050144Y-102209122D01*
X192425248Y-102127537D01*
X193399346Y-102094007D01*
X193438948Y-102093889D01*
X194233667Y-102001586D01*
X194614708Y-101775883D01*
X194620444Y-101741111D01*
X194287936Y-101570886D01*
X193369524Y-101451218D01*
X191983882Y-101395485D01*
X191533639Y-101393150D01*
X189463097Y-101436182D01*
X188034665Y-101564478D01*
X187188911Y-101788129D01*
X186866405Y-102117226D01*
X186859333Y-102186799D01*
X186426703Y-102186799D01*
X186455546Y-100737826D01*
X186454799Y-100720521D01*
X186859333Y-100720521D01*
X187006556Y-101258060D01*
X187417353Y-101249688D01*
X188180010Y-101089398D01*
X188993781Y-101035556D01*
X189705544Y-100940616D01*
X189841556Y-100608213D01*
X189809129Y-100506389D01*
X189348543Y-100153611D01*
X191798222Y-100153611D01*
X192031235Y-100521557D01*
X192803650Y-100673174D01*
X193209333Y-100682778D01*
X194190522Y-100595398D01*
X194594834Y-100305742D01*
X194620444Y-100153611D01*
X194387432Y-99785665D01*
X193615017Y-99634048D01*
X193209333Y-99624444D01*
X192228145Y-99711824D01*
X191823832Y-100001480D01*
X191798222Y-100153611D01*
X189348543Y-100153611D01*
X189285613Y-100105411D01*
X188232701Y-99977222D01*
X187329375Y-100036743D01*
X186935720Y-100284147D01*
X186859333Y-100720521D01*
X186454799Y-100720521D01*
X186387593Y-99164797D01*
X186169979Y-97464433D01*
X186029328Y-96762515D01*
X185748067Y-95567299D01*
X186218433Y-95567299D01*
X186275054Y-95832083D01*
X186455806Y-96684083D01*
X186662609Y-97829275D01*
X186717519Y-98164886D01*
X186962221Y-99703938D01*
X189115638Y-99450538D01*
X190592917Y-99288420D01*
X192058398Y-99146033D01*
X192801003Y-99084167D01*
X193782885Y-98972044D01*
X194431576Y-98824422D01*
X194535902Y-98768246D01*
X194712071Y-98258569D01*
X194830086Y-97310208D01*
X194879994Y-96188386D01*
X194851841Y-95158325D01*
X194735672Y-94485248D01*
X194699315Y-94414304D01*
X194363873Y-94177094D01*
X193746108Y-94229844D01*
X192875455Y-94502498D01*
X191724196Y-94777293D01*
X190201276Y-94970123D01*
X188717014Y-95038333D01*
X187376725Y-95049119D01*
X186604903Y-95111175D01*
X186264492Y-95269052D01*
X186218433Y-95567299D01*
X185748067Y-95567299D01*
X185563392Y-94782531D01*
X188592613Y-94568220D01*
X190270355Y-94403754D01*
X191937102Y-94164831D01*
X193273058Y-93898536D01*
X193444429Y-93853887D01*
X195267025Y-93353863D01*
X195182736Y-97578154D01*
G36*
X142102642Y-51671331D02*
X143053517Y-52057603D01*
X143578755Y-52196377D01*
X144349056Y-52531013D01*
X144970722Y-53278573D01*
X145523027Y-54554899D01*
X145803857Y-55447855D01*
X146009164Y-56279887D01*
X146135960Y-57178644D01*
X146187931Y-58283424D01*
X146168761Y-59733525D01*
X146082135Y-61668248D01*
X146004506Y-63032578D01*
X145838969Y-66419378D01*
X145786726Y-69200575D01*
X145850289Y-71467369D01*
X146032168Y-73310960D01*
X146328299Y-74797582D01*
X146498805Y-76013691D01*
X146548012Y-77817249D01*
X146479545Y-80101297D01*
X146297028Y-82758876D01*
X146004088Y-85683027D01*
X145941177Y-86218889D01*
X145774502Y-88169493D01*
X145758775Y-89856471D01*
X145884438Y-91166841D01*
X146141934Y-91987622D01*
X146448495Y-92216111D01*
X146754592Y-91901325D01*
X147124470Y-91086979D01*
X147497933Y-89968089D01*
X147814782Y-88739672D01*
X148014819Y-87596746D01*
X148053778Y-87015636D01*
X148161005Y-85984114D01*
X148420090Y-84841399D01*
X148430969Y-84805449D01*
X148670004Y-83722895D01*
X148857894Y-82340855D01*
X148917111Y-81600371D01*
X149113401Y-80025136D01*
X149569213Y-78437570D01*
X150357759Y-76605524D01*
X150727041Y-75861362D01*
X150983813Y-75080377D01*
X151254901Y-73804555D01*
X151499900Y-72242490D01*
X151615412Y-71275251D01*
X151806274Y-69687617D01*
X151964876Y-68647604D01*
X152287111Y-68647604D01*
X152397506Y-69024641D01*
X152837262Y-69217927D01*
X153769241Y-69282837D01*
X154163359Y-69285556D01*
X155694648Y-69172844D01*
X157309855Y-68889766D01*
X157830049Y-68753852D01*
X158885466Y-68396584D01*
X159412272Y-68053146D01*
X159572332Y-67592271D01*
X159569773Y-67342990D01*
X159410224Y-66682593D01*
X159166278Y-66468984D01*
X158715532Y-66592958D01*
X158236101Y-66851558D01*
X157973336Y-67090346D01*
X158062946Y-67163487D01*
X158144466Y-67353316D01*
X157879955Y-67751460D01*
X157468092Y-68117794D01*
X157182804Y-68227222D01*
X156925282Y-67933554D01*
X156873222Y-67569788D01*
X156832444Y-67230133D01*
X156608706Y-67086791D01*
X156049906Y-67132545D01*
X155003939Y-67360180D01*
X154580167Y-67461003D01*
X153286715Y-67816490D01*
X152568094Y-68149701D01*
X152298980Y-68525489D01*
X152287111Y-68647604D01*
X151964876Y-68647604D01*
X152016793Y-68307171D01*
X152215877Y-67322737D01*
X152320665Y-66992500D01*
X152564011Y-66286185D01*
X152583589Y-66213158D01*
X160290959Y-66213158D01*
X160301684Y-66370831D01*
X160312805Y-66374719D01*
X160695251Y-66782700D01*
X160702295Y-67356413D01*
X160489194Y-67610839D01*
X160503846Y-67678611D01*
X160694436Y-67640237D01*
X161357284Y-67528133D01*
X161488186Y-67521667D01*
X161736803Y-67221140D01*
X161812111Y-66688643D01*
X161713484Y-66106800D01*
X161274942Y-65977410D01*
X160841972Y-66041464D01*
X160290959Y-66213158D01*
X152583589Y-66213158D01*
X152868860Y-65149120D01*
X152905355Y-64989483D01*
X153524383Y-64989483D01*
X153765959Y-65454329D01*
X154440341Y-65711790D01*
X155125210Y-65751398D01*
X155575364Y-65591615D01*
X155592718Y-65316805D01*
X155100030Y-64755989D01*
X154684051Y-64410723D01*
X154256695Y-63922699D01*
X154255617Y-63899790D01*
X155462111Y-63899790D01*
X155705268Y-64276753D01*
X156167667Y-64244450D01*
X156745838Y-64160568D01*
X156813368Y-64439325D01*
X156554123Y-64987220D01*
X156458798Y-65280742D01*
X156647120Y-65446738D01*
X157242076Y-65509072D01*
X158366657Y-65491604D01*
X159023567Y-65466331D01*
X161812111Y-65351274D01*
X161812111Y-63790637D01*
X161740911Y-62853248D01*
X161561087Y-62296581D01*
X161459333Y-62230000D01*
X161131688Y-62508658D01*
X161106555Y-62672118D01*
X160854318Y-63196863D01*
X160246889Y-63906003D01*
X159508199Y-64580905D01*
X158862175Y-65002939D01*
X158668794Y-65052222D01*
X158308195Y-64830359D01*
X158338210Y-64349627D01*
X158690818Y-63887310D01*
X158989889Y-63743328D01*
X159563210Y-63388964D01*
X159695444Y-63070799D01*
X159401457Y-62675028D01*
X158989889Y-62582778D01*
X158435954Y-62692547D01*
X158326110Y-62847361D01*
X158239658Y-63595001D01*
X157842749Y-63999537D01*
X157347671Y-63954636D01*
X157015756Y-63503707D01*
X156600847Y-63181065D01*
X155996739Y-63249328D01*
X155535447Y-63623853D01*
X155462111Y-63899790D01*
X154255617Y-63899790D01*
X154242307Y-63616973D01*
X154213406Y-63308695D01*
X154110064Y-63288333D01*
X153742638Y-63583932D01*
X153530478Y-64257563D01*
X153524383Y-64989483D01*
X152905355Y-64989483D01*
X153132966Y-63993889D01*
X153505940Y-62450111D01*
X153942199Y-62450111D01*
X153986318Y-62474128D01*
X154409337Y-62273486D01*
X155279874Y-61867307D01*
X156344055Y-61373813D01*
X158102527Y-60555339D01*
X159311248Y-59974012D01*
X160063345Y-59576255D01*
X160451942Y-59308490D01*
X160570165Y-59117143D01*
X160524184Y-58968913D01*
X159948680Y-58507686D01*
X158988398Y-58092664D01*
X157961410Y-57831803D01*
X157185787Y-57833058D01*
X157181531Y-57834392D01*
X156710137Y-58099109D01*
X156865695Y-58515596D01*
X156907825Y-58567527D01*
X157148812Y-59122091D01*
X156918298Y-59850577D01*
X156866786Y-59948970D01*
X156272430Y-60665347D01*
X155661308Y-60755616D01*
X155215057Y-60315484D01*
X154957134Y-60167321D01*
X154617713Y-60606531D01*
X154339096Y-61203717D01*
X154030841Y-62015816D01*
X153942199Y-62450111D01*
X153505940Y-62450111D01*
X153600361Y-62059294D01*
X154117036Y-60633389D01*
X154776127Y-59520670D01*
X155670773Y-58525635D01*
X155793328Y-58409579D01*
X156674646Y-57680496D01*
X157396240Y-57389753D01*
X158233452Y-57423316D01*
X159939363Y-57995881D01*
X161203696Y-59069761D01*
X161596020Y-59683779D01*
X161800684Y-60444260D01*
X161966450Y-61768839D01*
X162090524Y-63516983D01*
X162170113Y-65548160D01*
X162202424Y-67721836D01*
X162184662Y-69897479D01*
X162114035Y-71934555D01*
X161987749Y-73692533D01*
X161890714Y-74509409D01*
X161726041Y-76151827D01*
X161726131Y-77504594D01*
X161826502Y-78155179D01*
X162130620Y-80091301D01*
X162101913Y-82474565D01*
X161754252Y-85137614D01*
X161101509Y-87913091D01*
X160985216Y-88305550D01*
X160217521Y-91081907D01*
X159769823Y-93338979D01*
X159623530Y-95176488D01*
X159631259Y-95567500D01*
X159833476Y-99996442D01*
X160044221Y-103736483D01*
X160263218Y-106784183D01*
X160490190Y-109136107D01*
X160724860Y-110788815D01*
X160926242Y-111629892D01*
X161958182Y-113690542D01*
X163460714Y-115225862D01*
X165425782Y-116228891D01*
X166598934Y-116532375D01*
X167915573Y-116691023D01*
X168893006Y-116551102D01*
X169362839Y-116357264D01*
X170205729Y-116002303D01*
X170806203Y-115852249D01*
X170810631Y-115852222D01*
X171335397Y-115629656D01*
X172059502Y-115085288D01*
X172153584Y-115000058D01*
X172980347Y-114270714D01*
X173704105Y-113688988D01*
X173720318Y-113677141D01*
X174322691Y-113112682D01*
X175083125Y-112241175D01*
X175391411Y-111847071D01*
X176045066Y-111089176D01*
X177001007Y-110113398D01*
X178131501Y-109034712D01*
X179308818Y-107968090D01*
X180405227Y-107028506D01*
X181292997Y-106330933D01*
X181844397Y-105990344D01*
X181915680Y-105974444D01*
X181914997Y-106186046D01*
X181501551Y-106709499D01*
X181359207Y-106856389D01*
X180700556Y-107445409D01*
X180242514Y-107732794D01*
X180206662Y-107738333D01*
X179853855Y-107975328D01*
X179147036Y-108607286D01*
X178216057Y-109515674D01*
X177841447Y-109897417D01*
X175778797Y-112006536D01*
X174145059Y-113636117D01*
X172894273Y-114828454D01*
X171980479Y-115625837D01*
X171357717Y-116070561D01*
X170986870Y-116205000D01*
X170262763Y-116408653D01*
X169728843Y-116722947D01*
X168671874Y-117129604D01*
X167204643Y-117153552D01*
X165508562Y-116796441D01*
X165163500Y-116681440D01*
X163603291Y-115818188D01*
X162163097Y-114465957D01*
X161055484Y-112835228D01*
X160860560Y-112420661D01*
X160458099Y-111331486D01*
X160145144Y-110101250D01*
X159908251Y-108618873D01*
X159733979Y-106773277D01*
X159608884Y-104453382D01*
X159519526Y-101548109D01*
X159513589Y-101290231D01*
X159457054Y-99246573D01*
X159387477Y-97444412D01*
X159311075Y-96003606D01*
X159234069Y-95044010D01*
X159171348Y-94693760D01*
X159180081Y-94245289D01*
X159351140Y-93261386D01*
X159655470Y-91885725D01*
X160064016Y-90261978D01*
X160078958Y-90205751D01*
X160729856Y-87692259D01*
X161191870Y-85710050D01*
X161486387Y-84116913D01*
X161634795Y-82770635D01*
X161658480Y-81529006D01*
X161578829Y-80249814D01*
X161577829Y-80239000D01*
X161433785Y-77987402D01*
X161410487Y-75804065D01*
X161502360Y-73870484D01*
X161703830Y-72368152D01*
X161835104Y-71861718D01*
X162038176Y-70690423D01*
X162009951Y-69422083D01*
X161993920Y-69317636D01*
X161785501Y-68439436D01*
X161483061Y-68107893D01*
X161053762Y-68138811D01*
X160521393Y-68512335D01*
X160517544Y-68987566D01*
X160419988Y-69735717D01*
X159926573Y-70411845D01*
X159284441Y-70696667D01*
X158914977Y-70402451D01*
X158739328Y-69991111D01*
X158315585Y-69415045D01*
X157640654Y-69339355D01*
X156960776Y-69764040D01*
X156791352Y-69991111D01*
X156279362Y-70475218D01*
X155662669Y-70695903D01*
X155202154Y-70595970D01*
X155109333Y-70359874D01*
X154806151Y-70097827D01*
X154091276Y-69851375D01*
X153256712Y-69687265D01*
X152594464Y-69672245D01*
X152416333Y-69744297D01*
X152278691Y-70167488D01*
X152104254Y-71088875D01*
X151938358Y-72251710D01*
X151645864Y-73763979D01*
X151150265Y-75537036D01*
X150556629Y-77196974D01*
X150532020Y-77256477D01*
X149782556Y-79399706D01*
X149349703Y-81393036D01*
X149286503Y-82018292D01*
X149185243Y-83192452D01*
X149054249Y-84083109D01*
X148954150Y-84425184D01*
X148812998Y-84916638D01*
X148629151Y-85909062D01*
X148438937Y-87202307D01*
X148411404Y-87415370D01*
X148058665Y-89532878D01*
X147613835Y-91126323D01*
X147099046Y-92139389D01*
X146536432Y-92515755D01*
X146410111Y-92507844D01*
X145821156Y-92048193D01*
X145459317Y-90982719D01*
X145339176Y-89378384D01*
X145411131Y-87920357D01*
X145560210Y-86265370D01*
X145731990Y-84373447D01*
X145859273Y-82981468D01*
X146069706Y-79076478D01*
X145952334Y-75603327D01*
X145615938Y-73166111D01*
X145349787Y-70918553D01*
X145326667Y-68172125D01*
X145367030Y-67295522D01*
X145572914Y-63717989D01*
X144255707Y-64023912D01*
X143343455Y-64154067D01*
X141946083Y-64258488D01*
X140283923Y-64323546D01*
X139174218Y-64338251D01*
X135409936Y-64346667D01*
X135205675Y-66551528D01*
X135101636Y-67878184D01*
X135042820Y-69040150D01*
X135038833Y-69638333D01*
X134951689Y-70368936D01*
X134686963Y-71553702D01*
X134294742Y-72978981D01*
X134129113Y-73518889D01*
X133752952Y-74747962D01*
X133501201Y-75747288D01*
X133358502Y-76697184D01*
X133309501Y-77777970D01*
X133338841Y-79169963D01*
X133431168Y-81053482D01*
X133453167Y-81456389D01*
X133604399Y-84404217D01*
X133697633Y-86727045D01*
X133733537Y-88502984D01*
X133712783Y-89810147D01*
X133636038Y-90726646D01*
X133536859Y-91223704D01*
X133365004Y-91748253D01*
X133292284Y-91613213D01*
X133274404Y-91334167D01*
X133062296Y-90331410D01*
X132582167Y-89107487D01*
X131954063Y-87899013D01*
X131298029Y-86942606D01*
X130829877Y-86515855D01*
X130121323Y-85881069D01*
X129547653Y-84964598D01*
X129537144Y-84939804D01*
X129197922Y-84282383D01*
X128735825Y-83903273D01*
X127935477Y-83682239D01*
X127061008Y-83557481D01*
X125140994Y-83439476D01*
X123268171Y-83537676D01*
X121646233Y-83827335D01*
X120478876Y-84283706D01*
X120343833Y-84373496D01*
X119573362Y-85142443D01*
X118971458Y-86042500D01*
X118611274Y-86619034D01*
X118436276Y-86601142D01*
X118428477Y-86510539D01*
X118719020Y-85632972D01*
X119488258Y-84696445D01*
X120550407Y-83879225D01*
X121709392Y-83362360D01*
X122796425Y-83196404D01*
X124285478Y-83130582D01*
X125930078Y-83157657D01*
X127483755Y-83270390D01*
X128700036Y-83461543D01*
X129091972Y-83579160D01*
X129613373Y-84034766D01*
X129709333Y-84356970D01*
X129951710Y-84903603D01*
X130563137Y-85662006D01*
X130897657Y-85994921D01*
X131785458Y-86937979D01*
X132529153Y-87920910D01*
X132673408Y-88159167D01*
X132878029Y-88496005D01*
X133023949Y-88604994D01*
X133116565Y-88408170D01*
X133161275Y-87827567D01*
X133163478Y-86785220D01*
X133128570Y-85203163D01*
X133061951Y-83003433D01*
X133051981Y-82691111D01*
X132981993Y-80373847D01*
X132948469Y-78620903D01*
X132962003Y-77291521D01*
X133033191Y-76244940D01*
X133172628Y-75340399D01*
X133390908Y-74437140D01*
X133698628Y-73394401D01*
X133768940Y-73166111D01*
X134196286Y-71576199D01*
X134508535Y-70018381D01*
X134652442Y-68771432D01*
X134655526Y-68524172D01*
X134697601Y-67311064D01*
X134848444Y-65806527D01*
X135073887Y-64234595D01*
X135289398Y-63087408D01*
X135706556Y-63087408D01*
X136006578Y-63537703D01*
X136500306Y-63739904D01*
X137365298Y-63807366D01*
X138711599Y-63810438D01*
X140318777Y-63758010D01*
X141966400Y-63658970D01*
X143434037Y-63522206D01*
X144085028Y-63434067D01*
X145052364Y-63176789D01*
X145525574Y-62856558D01*
X145457565Y-62578412D01*
X144801245Y-62447391D01*
X144526000Y-62450486D01*
X143738882Y-62472693D01*
X142445289Y-62497984D01*
X140844267Y-62522803D01*
X139587111Y-62538681D01*
X137830744Y-62576046D01*
X136673593Y-62650605D01*
X136009669Y-62777344D01*
X135732982Y-62971251D01*
X135706556Y-63087408D01*
X135289398Y-63087408D01*
X135339765Y-62819304D01*
X135584303Y-61889634D01*
X136059333Y-61889634D01*
X136384989Y-62039667D01*
X137255747Y-62147252D01*
X138512296Y-62210045D01*
X139995323Y-62225703D01*
X141545517Y-62191882D01*
X143003566Y-62106239D01*
X143947596Y-62005660D01*
X144932672Y-61787587D01*
X145510804Y-61494417D01*
X145584333Y-61354323D01*
X145365168Y-61149451D01*
X144655649Y-61033265D01*
X143377738Y-60998316D01*
X142072210Y-61019002D01*
X140547190Y-61078223D01*
X139281631Y-61163522D01*
X138445382Y-61261495D01*
X138216031Y-61323315D01*
X137748772Y-61288243D01*
X137649800Y-61176467D01*
X137227026Y-61037480D01*
X136617369Y-61240745D01*
X136144223Y-61641251D01*
X136059333Y-61889634D01*
X135584303Y-61889634D01*
X135611909Y-61784685D01*
X135725895Y-61505724D01*
X135875988Y-60917362D01*
X136029711Y-59824596D01*
X136160891Y-58427947D01*
X136197251Y-57894400D01*
X136316348Y-56573455D01*
X137029472Y-56785076D01*
X137614304Y-57143740D01*
X137818003Y-57611603D01*
X137584369Y-57950094D01*
X137314875Y-57996667D01*
X136735311Y-58179628D01*
X136619232Y-58299720D01*
X136794694Y-58464371D01*
X137466484Y-58485254D01*
X137656745Y-58467800D01*
X138531712Y-58459622D01*
X138867085Y-58722820D01*
X138881556Y-58846707D01*
X138568966Y-59244291D01*
X137818253Y-59330356D01*
X136902293Y-59404208D01*
X136444054Y-59642164D01*
X136555449Y-59974355D01*
X136663985Y-60050971D01*
X137134461Y-60155361D01*
X137972163Y-60217820D01*
X138919088Y-60234705D01*
X139717236Y-60202372D01*
X140108605Y-60117178D01*
X140116278Y-60099725D01*
X140437970Y-60049880D01*
X141279673Y-59987702D01*
X142409333Y-59929013D01*
X143700677Y-59871379D01*
X144769699Y-59821843D01*
X145319750Y-59794526D01*
X145843134Y-59518906D01*
X145937111Y-59236840D01*
X145786878Y-58929182D01*
X145237746Y-58814675D01*
X144151341Y-58861512D01*
X143037614Y-58900846D01*
X142537312Y-58770537D01*
X142505044Y-58591478D01*
X142890770Y-58197279D01*
X143026694Y-58173055D01*
X143590975Y-57984194D01*
X143641212Y-57940714D01*
X144108017Y-57866529D01*
X144916059Y-58007502D01*
X144949552Y-58016965D01*
X145666546Y-58186641D01*
X145919059Y-58014073D01*
X145865108Y-57338898D01*
X145830408Y-57123028D01*
X145557254Y-56027971D01*
X145113692Y-54762672D01*
X144961516Y-54400944D01*
X144496068Y-53502253D01*
X143943113Y-52927094D01*
X143074059Y-52488047D01*
X142281837Y-52203880D01*
X140275907Y-51526372D01*
X139240238Y-52292075D01*
X138459435Y-52800467D01*
X137890483Y-53051978D01*
X137837507Y-53057778D01*
X137483451Y-53317622D01*
X137470444Y-53410556D01*
X137758149Y-53718787D01*
X138029009Y-53763333D01*
X138414588Y-53959282D01*
X138363670Y-54355131D01*
X137949430Y-54662883D01*
X137792852Y-54692779D01*
X137105332Y-54764233D01*
X136962046Y-54780974D01*
X136944052Y-54980472D01*
X137314824Y-55326520D01*
X137764025Y-55711364D01*
X137643669Y-55955034D01*
X137117667Y-56190452D01*
X136321660Y-56514540D01*
X136371214Y-55964914D01*
X136663364Y-54569231D01*
X137142693Y-53537316D01*
X137878194Y-52699132D01*
X138512805Y-52187618D01*
X139947987Y-51435206D01*
X141299976Y-51372257D01*
X142102642Y-51671331D01*
X142102642Y-51671331D01*
G37*
X142102642Y-51671331D02*
X143053517Y-52057603D01*
X143578755Y-52196377D01*
X144349056Y-52531013D01*
X144970722Y-53278573D01*
X145523027Y-54554899D01*
X145803857Y-55447855D01*
X146009164Y-56279887D01*
X146135960Y-57178644D01*
X146187931Y-58283424D01*
X146168761Y-59733525D01*
X146082135Y-61668248D01*
X146004506Y-63032578D01*
X145838969Y-66419378D01*
X145786726Y-69200575D01*
X145850289Y-71467369D01*
X146032168Y-73310960D01*
X146328299Y-74797582D01*
X146498805Y-76013691D01*
X146548012Y-77817249D01*
X146479545Y-80101297D01*
X146297028Y-82758876D01*
X146004088Y-85683027D01*
X145941177Y-86218889D01*
X145774502Y-88169493D01*
X145758775Y-89856471D01*
X145884438Y-91166841D01*
X146141934Y-91987622D01*
X146448495Y-92216111D01*
X146754592Y-91901325D01*
X147124470Y-91086979D01*
X147497933Y-89968089D01*
X147814782Y-88739672D01*
X148014819Y-87596746D01*
X148053778Y-87015636D01*
X148161005Y-85984114D01*
X148420090Y-84841399D01*
X148430969Y-84805449D01*
X148670004Y-83722895D01*
X148857894Y-82340855D01*
X148917111Y-81600371D01*
X149113401Y-80025136D01*
X149569213Y-78437570D01*
X150357759Y-76605524D01*
X150727041Y-75861362D01*
X150983813Y-75080377D01*
X151254901Y-73804555D01*
X151499900Y-72242490D01*
X151615412Y-71275251D01*
X151806274Y-69687617D01*
X151964876Y-68647604D01*
X152287111Y-68647604D01*
X152397506Y-69024641D01*
X152837262Y-69217927D01*
X153769241Y-69282837D01*
X154163359Y-69285556D01*
X155694648Y-69172844D01*
X157309855Y-68889766D01*
X157830049Y-68753852D01*
X158885466Y-68396584D01*
X159412272Y-68053146D01*
X159572332Y-67592271D01*
X159569773Y-67342990D01*
X159410224Y-66682593D01*
X159166278Y-66468984D01*
X158715532Y-66592958D01*
X158236101Y-66851558D01*
X157973336Y-67090346D01*
X158062946Y-67163487D01*
X158144466Y-67353316D01*
X157879955Y-67751460D01*
X157468092Y-68117794D01*
X157182804Y-68227222D01*
X156925282Y-67933554D01*
X156873222Y-67569788D01*
X156832444Y-67230133D01*
X156608706Y-67086791D01*
X156049906Y-67132545D01*
X155003939Y-67360180D01*
X154580167Y-67461003D01*
X153286715Y-67816490D01*
X152568094Y-68149701D01*
X152298980Y-68525489D01*
X152287111Y-68647604D01*
X151964876Y-68647604D01*
X152016793Y-68307171D01*
X152215877Y-67322737D01*
X152320665Y-66992500D01*
X152564011Y-66286185D01*
X152583589Y-66213158D01*
X160290959Y-66213158D01*
X160301684Y-66370831D01*
X160312805Y-66374719D01*
X160695251Y-66782700D01*
X160702295Y-67356413D01*
X160489194Y-67610839D01*
X160503846Y-67678611D01*
X160694436Y-67640237D01*
X161357284Y-67528133D01*
X161488186Y-67521667D01*
X161736803Y-67221140D01*
X161812111Y-66688643D01*
X161713484Y-66106800D01*
X161274942Y-65977410D01*
X160841972Y-66041464D01*
X160290959Y-66213158D01*
X152583589Y-66213158D01*
X152868860Y-65149120D01*
X152905355Y-64989483D01*
X153524383Y-64989483D01*
X153765959Y-65454329D01*
X154440341Y-65711790D01*
X155125210Y-65751398D01*
X155575364Y-65591615D01*
X155592718Y-65316805D01*
X155100030Y-64755989D01*
X154684051Y-64410723D01*
X154256695Y-63922699D01*
X154255617Y-63899790D01*
X155462111Y-63899790D01*
X155705268Y-64276753D01*
X156167667Y-64244450D01*
X156745838Y-64160568D01*
X156813368Y-64439325D01*
X156554123Y-64987220D01*
X156458798Y-65280742D01*
X156647120Y-65446738D01*
X157242076Y-65509072D01*
X158366657Y-65491604D01*
X159023567Y-65466331D01*
X161812111Y-65351274D01*
X161812111Y-63790637D01*
X161740911Y-62853248D01*
X161561087Y-62296581D01*
X161459333Y-62230000D01*
X161131688Y-62508658D01*
X161106555Y-62672118D01*
X160854318Y-63196863D01*
X160246889Y-63906003D01*
X159508199Y-64580905D01*
X158862175Y-65002939D01*
X158668794Y-65052222D01*
X158308195Y-64830359D01*
X158338210Y-64349627D01*
X158690818Y-63887310D01*
X158989889Y-63743328D01*
X159563210Y-63388964D01*
X159695444Y-63070799D01*
X159401457Y-62675028D01*
X158989889Y-62582778D01*
X158435954Y-62692547D01*
X158326110Y-62847361D01*
X158239658Y-63595001D01*
X157842749Y-63999537D01*
X157347671Y-63954636D01*
X157015756Y-63503707D01*
X156600847Y-63181065D01*
X155996739Y-63249328D01*
X155535447Y-63623853D01*
X155462111Y-63899790D01*
X154255617Y-63899790D01*
X154242307Y-63616973D01*
X154213406Y-63308695D01*
X154110064Y-63288333D01*
X153742638Y-63583932D01*
X153530478Y-64257563D01*
X153524383Y-64989483D01*
X152905355Y-64989483D01*
X153132966Y-63993889D01*
X153505940Y-62450111D01*
X153942199Y-62450111D01*
X153986318Y-62474128D01*
X154409337Y-62273486D01*
X155279874Y-61867307D01*
X156344055Y-61373813D01*
X158102527Y-60555339D01*
X159311248Y-59974012D01*
X160063345Y-59576255D01*
X160451942Y-59308490D01*
X160570165Y-59117143D01*
X160524184Y-58968913D01*
X159948680Y-58507686D01*
X158988398Y-58092664D01*
X157961410Y-57831803D01*
X157185787Y-57833058D01*
X157181531Y-57834392D01*
X156710137Y-58099109D01*
X156865695Y-58515596D01*
X156907825Y-58567527D01*
X157148812Y-59122091D01*
X156918298Y-59850577D01*
X156866786Y-59948970D01*
X156272430Y-60665347D01*
X155661308Y-60755616D01*
X155215057Y-60315484D01*
X154957134Y-60167321D01*
X154617713Y-60606531D01*
X154339096Y-61203717D01*
X154030841Y-62015816D01*
X153942199Y-62450111D01*
X153505940Y-62450111D01*
X153600361Y-62059294D01*
X154117036Y-60633389D01*
X154776127Y-59520670D01*
X155670773Y-58525635D01*
X155793328Y-58409579D01*
X156674646Y-57680496D01*
X157396240Y-57389753D01*
X158233452Y-57423316D01*
X159939363Y-57995881D01*
X161203696Y-59069761D01*
X161596020Y-59683779D01*
X161800684Y-60444260D01*
X161966450Y-61768839D01*
X162090524Y-63516983D01*
X162170113Y-65548160D01*
X162202424Y-67721836D01*
X162184662Y-69897479D01*
X162114035Y-71934555D01*
X161987749Y-73692533D01*
X161890714Y-74509409D01*
X161726041Y-76151827D01*
X161726131Y-77504594D01*
X161826502Y-78155179D01*
X162130620Y-80091301D01*
X162101913Y-82474565D01*
X161754252Y-85137614D01*
X161101509Y-87913091D01*
X160985216Y-88305550D01*
X160217521Y-91081907D01*
X159769823Y-93338979D01*
X159623530Y-95176488D01*
X159631259Y-95567500D01*
X159833476Y-99996442D01*
X160044221Y-103736483D01*
X160263218Y-106784183D01*
X160490190Y-109136107D01*
X160724860Y-110788815D01*
X160926242Y-111629892D01*
X161958182Y-113690542D01*
X163460714Y-115225862D01*
X165425782Y-116228891D01*
X166598934Y-116532375D01*
X167915573Y-116691023D01*
X168893006Y-116551102D01*
X169362839Y-116357264D01*
X170205729Y-116002303D01*
X170806203Y-115852249D01*
X170810631Y-115852222D01*
X171335397Y-115629656D01*
X172059502Y-115085288D01*
X172153584Y-115000058D01*
X172980347Y-114270714D01*
X173704105Y-113688988D01*
X173720318Y-113677141D01*
X174322691Y-113112682D01*
X175083125Y-112241175D01*
X175391411Y-111847071D01*
X176045066Y-111089176D01*
X177001007Y-110113398D01*
X178131501Y-109034712D01*
X179308818Y-107968090D01*
X180405227Y-107028506D01*
X181292997Y-106330933D01*
X181844397Y-105990344D01*
X181915680Y-105974444D01*
X181914997Y-106186046D01*
X181501551Y-106709499D01*
X181359207Y-106856389D01*
X180700556Y-107445409D01*
X180242514Y-107732794D01*
X180206662Y-107738333D01*
X179853855Y-107975328D01*
X179147036Y-108607286D01*
X178216057Y-109515674D01*
X177841447Y-109897417D01*
X175778797Y-112006536D01*
X174145059Y-113636117D01*
X172894273Y-114828454D01*
X171980479Y-115625837D01*
X171357717Y-116070561D01*
X170986870Y-116205000D01*
X170262763Y-116408653D01*
X169728843Y-116722947D01*
X168671874Y-117129604D01*
X167204643Y-117153552D01*
X165508562Y-116796441D01*
X165163500Y-116681440D01*
X163603291Y-115818188D01*
X162163097Y-114465957D01*
X161055484Y-112835228D01*
X160860560Y-112420661D01*
X160458099Y-111331486D01*
X160145144Y-110101250D01*
X159908251Y-108618873D01*
X159733979Y-106773277D01*
X159608884Y-104453382D01*
X159519526Y-101548109D01*
X159513589Y-101290231D01*
X159457054Y-99246573D01*
X159387477Y-97444412D01*
X159311075Y-96003606D01*
X159234069Y-95044010D01*
X159171348Y-94693760D01*
X159180081Y-94245289D01*
X159351140Y-93261386D01*
X159655470Y-91885725D01*
X160064016Y-90261978D01*
X160078958Y-90205751D01*
X160729856Y-87692259D01*
X161191870Y-85710050D01*
X161486387Y-84116913D01*
X161634795Y-82770635D01*
X161658480Y-81529006D01*
X161578829Y-80249814D01*
X161577829Y-80239000D01*
X161433785Y-77987402D01*
X161410487Y-75804065D01*
X161502360Y-73870484D01*
X161703830Y-72368152D01*
X161835104Y-71861718D01*
X162038176Y-70690423D01*
X162009951Y-69422083D01*
X161993920Y-69317636D01*
X161785501Y-68439436D01*
X161483061Y-68107893D01*
X161053762Y-68138811D01*
X160521393Y-68512335D01*
X160517544Y-68987566D01*
X160419988Y-69735717D01*
X159926573Y-70411845D01*
X159284441Y-70696667D01*
X158914977Y-70402451D01*
X158739328Y-69991111D01*
X158315585Y-69415045D01*
X157640654Y-69339355D01*
X156960776Y-69764040D01*
X156791352Y-69991111D01*
X156279362Y-70475218D01*
X155662669Y-70695903D01*
X155202154Y-70595970D01*
X155109333Y-70359874D01*
X154806151Y-70097827D01*
X154091276Y-69851375D01*
X153256712Y-69687265D01*
X152594464Y-69672245D01*
X152416333Y-69744297D01*
X152278691Y-70167488D01*
X152104254Y-71088875D01*
X151938358Y-72251710D01*
X151645864Y-73763979D01*
X151150265Y-75537036D01*
X150556629Y-77196974D01*
X150532020Y-77256477D01*
X149782556Y-79399706D01*
X149349703Y-81393036D01*
X149286503Y-82018292D01*
X149185243Y-83192452D01*
X149054249Y-84083109D01*
X148954150Y-84425184D01*
X148812998Y-84916638D01*
X148629151Y-85909062D01*
X148438937Y-87202307D01*
X148411404Y-87415370D01*
X148058665Y-89532878D01*
X147613835Y-91126323D01*
X147099046Y-92139389D01*
X146536432Y-92515755D01*
X146410111Y-92507844D01*
X145821156Y-92048193D01*
X145459317Y-90982719D01*
X145339176Y-89378384D01*
X145411131Y-87920357D01*
X145560210Y-86265370D01*
X145731990Y-84373447D01*
X145859273Y-82981468D01*
X146069706Y-79076478D01*
X145952334Y-75603327D01*
X145615938Y-73166111D01*
X145349787Y-70918553D01*
X145326667Y-68172125D01*
X145367030Y-67295522D01*
X145572914Y-63717989D01*
X144255707Y-64023912D01*
X143343455Y-64154067D01*
X141946083Y-64258488D01*
X140283923Y-64323546D01*
X139174218Y-64338251D01*
X135409936Y-64346667D01*
X135205675Y-66551528D01*
X135101636Y-67878184D01*
X135042820Y-69040150D01*
X135038833Y-69638333D01*
X134951689Y-70368936D01*
X134686963Y-71553702D01*
X134294742Y-72978981D01*
X134129113Y-73518889D01*
X133752952Y-74747962D01*
X133501201Y-75747288D01*
X133358502Y-76697184D01*
X133309501Y-77777970D01*
X133338841Y-79169963D01*
X133431168Y-81053482D01*
X133453167Y-81456389D01*
X133604399Y-84404217D01*
X133697633Y-86727045D01*
X133733537Y-88502984D01*
X133712783Y-89810147D01*
X133636038Y-90726646D01*
X133536859Y-91223704D01*
X133365004Y-91748253D01*
X133292284Y-91613213D01*
X133274404Y-91334167D01*
X133062296Y-90331410D01*
X132582167Y-89107487D01*
X131954063Y-87899013D01*
X131298029Y-86942606D01*
X130829877Y-86515855D01*
X130121323Y-85881069D01*
X129547653Y-84964598D01*
X129537144Y-84939804D01*
X129197922Y-84282383D01*
X128735825Y-83903273D01*
X127935477Y-83682239D01*
X127061008Y-83557481D01*
X125140994Y-83439476D01*
X123268171Y-83537676D01*
X121646233Y-83827335D01*
X120478876Y-84283706D01*
X120343833Y-84373496D01*
X119573362Y-85142443D01*
X118971458Y-86042500D01*
X118611274Y-86619034D01*
X118436276Y-86601142D01*
X118428477Y-86510539D01*
X118719020Y-85632972D01*
X119488258Y-84696445D01*
X120550407Y-83879225D01*
X121709392Y-83362360D01*
X122796425Y-83196404D01*
X124285478Y-83130582D01*
X125930078Y-83157657D01*
X127483755Y-83270390D01*
X128700036Y-83461543D01*
X129091972Y-83579160D01*
X129613373Y-84034766D01*
X129709333Y-84356970D01*
X129951710Y-84903603D01*
X130563137Y-85662006D01*
X130897657Y-85994921D01*
X131785458Y-86937979D01*
X132529153Y-87920910D01*
X132673408Y-88159167D01*
X132878029Y-88496005D01*
X133023949Y-88604994D01*
X133116565Y-88408170D01*
X133161275Y-87827567D01*
X133163478Y-86785220D01*
X133128570Y-85203163D01*
X133061951Y-83003433D01*
X133051981Y-82691111D01*
X132981993Y-80373847D01*
X132948469Y-78620903D01*
X132962003Y-77291521D01*
X133033191Y-76244940D01*
X133172628Y-75340399D01*
X133390908Y-74437140D01*
X133698628Y-73394401D01*
X133768940Y-73166111D01*
X134196286Y-71576199D01*
X134508535Y-70018381D01*
X134652442Y-68771432D01*
X134655526Y-68524172D01*
X134697601Y-67311064D01*
X134848444Y-65806527D01*
X135073887Y-64234595D01*
X135289398Y-63087408D01*
X135706556Y-63087408D01*
X136006578Y-63537703D01*
X136500306Y-63739904D01*
X137365298Y-63807366D01*
X138711599Y-63810438D01*
X140318777Y-63758010D01*
X141966400Y-63658970D01*
X143434037Y-63522206D01*
X144085028Y-63434067D01*
X145052364Y-63176789D01*
X145525574Y-62856558D01*
X145457565Y-62578412D01*
X144801245Y-62447391D01*
X144526000Y-62450486D01*
X143738882Y-62472693D01*
X142445289Y-62497984D01*
X140844267Y-62522803D01*
X139587111Y-62538681D01*
X137830744Y-62576046D01*
X136673593Y-62650605D01*
X136009669Y-62777344D01*
X135732982Y-62971251D01*
X135706556Y-63087408D01*
X135289398Y-63087408D01*
X135339765Y-62819304D01*
X135584303Y-61889634D01*
X136059333Y-61889634D01*
X136384989Y-62039667D01*
X137255747Y-62147252D01*
X138512296Y-62210045D01*
X139995323Y-62225703D01*
X141545517Y-62191882D01*
X143003566Y-62106239D01*
X143947596Y-62005660D01*
X144932672Y-61787587D01*
X145510804Y-61494417D01*
X145584333Y-61354323D01*
X145365168Y-61149451D01*
X144655649Y-61033265D01*
X143377738Y-60998316D01*
X142072210Y-61019002D01*
X140547190Y-61078223D01*
X139281631Y-61163522D01*
X138445382Y-61261495D01*
X138216031Y-61323315D01*
X137748772Y-61288243D01*
X137649800Y-61176467D01*
X137227026Y-61037480D01*
X136617369Y-61240745D01*
X136144223Y-61641251D01*
X136059333Y-61889634D01*
X135584303Y-61889634D01*
X135611909Y-61784685D01*
X135725895Y-61505724D01*
X135875988Y-60917362D01*
X136029711Y-59824596D01*
X136160891Y-58427947D01*
X136197251Y-57894400D01*
X136316348Y-56573455D01*
X137029472Y-56785076D01*
X137614304Y-57143740D01*
X137818003Y-57611603D01*
X137584369Y-57950094D01*
X137314875Y-57996667D01*
X136735311Y-58179628D01*
X136619232Y-58299720D01*
X136794694Y-58464371D01*
X137466484Y-58485254D01*
X137656745Y-58467800D01*
X138531712Y-58459622D01*
X138867085Y-58722820D01*
X138881556Y-58846707D01*
X138568966Y-59244291D01*
X137818253Y-59330356D01*
X136902293Y-59404208D01*
X136444054Y-59642164D01*
X136555449Y-59974355D01*
X136663985Y-60050971D01*
X137134461Y-60155361D01*
X137972163Y-60217820D01*
X138919088Y-60234705D01*
X139717236Y-60202372D01*
X140108605Y-60117178D01*
X140116278Y-60099725D01*
X140437970Y-60049880D01*
X141279673Y-59987702D01*
X142409333Y-59929013D01*
X143700677Y-59871379D01*
X144769699Y-59821843D01*
X145319750Y-59794526D01*
X145843134Y-59518906D01*
X145937111Y-59236840D01*
X145786878Y-58929182D01*
X145237746Y-58814675D01*
X144151341Y-58861512D01*
X143037614Y-58900846D01*
X142537312Y-58770537D01*
X142505044Y-58591478D01*
X142890770Y-58197279D01*
X143026694Y-58173055D01*
X143590975Y-57984194D01*
X143641212Y-57940714D01*
X144108017Y-57866529D01*
X144916059Y-58007502D01*
X144949552Y-58016965D01*
X145666546Y-58186641D01*
X145919059Y-58014073D01*
X145865108Y-57338898D01*
X145830408Y-57123028D01*
X145557254Y-56027971D01*
X145113692Y-54762672D01*
X144961516Y-54400944D01*
X144496068Y-53502253D01*
X143943113Y-52927094D01*
X143074059Y-52488047D01*
X142281837Y-52203880D01*
X140275907Y-51526372D01*
X139240238Y-52292075D01*
X138459435Y-52800467D01*
X137890483Y-53051978D01*
X137837507Y-53057778D01*
X137483451Y-53317622D01*
X137470444Y-53410556D01*
X137758149Y-53718787D01*
X138029009Y-53763333D01*
X138414588Y-53959282D01*
X138363670Y-54355131D01*
X137949430Y-54662883D01*
X137792852Y-54692779D01*
X137105332Y-54764233D01*
X136962046Y-54780974D01*
X136944052Y-54980472D01*
X137314824Y-55326520D01*
X137764025Y-55711364D01*
X137643669Y-55955034D01*
X137117667Y-56190452D01*
X136321660Y-56514540D01*
X136371214Y-55964914D01*
X136663364Y-54569231D01*
X137142693Y-53537316D01*
X137878194Y-52699132D01*
X138512805Y-52187618D01*
X139947987Y-51435206D01*
X141299976Y-51372257D01*
X142102642Y-51671331D01*
G36*
X193243674Y-104790617D02*
X193674819Y-105037934D01*
X193839133Y-105623627D01*
X193852185Y-105731194D01*
X193729066Y-106856436D01*
X193112935Y-107555403D01*
X192327389Y-107738333D01*
X191505053Y-107525940D01*
X191110372Y-107230500D01*
X190951450Y-106820785D01*
X191206578Y-106820785D01*
X191703536Y-107293373D01*
X192465262Y-107332659D01*
X193138778Y-106962222D01*
X193457883Y-106387547D01*
X193559507Y-105696502D01*
X193446040Y-105152630D01*
X193121139Y-105019005D01*
X192778092Y-105435083D01*
X192782787Y-105620849D01*
X192633123Y-105910631D01*
X192398018Y-105873974D01*
X191688197Y-105861500D01*
X191221779Y-106269774D01*
X191206578Y-106820785D01*
X190951450Y-106820785D01*
X190834026Y-106518057D01*
X190802592Y-105731194D01*
X190948378Y-105091496D01*
X191026884Y-105033704D01*
X191563037Y-105033704D01*
X191611463Y-105243430D01*
X191798222Y-105268889D01*
X192088598Y-105139813D01*
X192033407Y-105033704D01*
X191614743Y-104991483D01*
X191563037Y-105033704D01*
X191026884Y-105033704D01*
X191332822Y-104808491D01*
X192174236Y-104740227D01*
X192327389Y-104739722D01*
X193243674Y-104790617D01*
X193243674Y-104790617D01*
G37*
X193243674Y-104790617D02*
X193674819Y-105037934D01*
X193839133Y-105623627D01*
X193852185Y-105731194D01*
X193729066Y-106856436D01*
X193112935Y-107555403D01*
X192327389Y-107738333D01*
X191505053Y-107525940D01*
X191110372Y-107230500D01*
X190951450Y-106820785D01*
X191206578Y-106820785D01*
X191703536Y-107293373D01*
X192465262Y-107332659D01*
X193138778Y-106962222D01*
X193457883Y-106387547D01*
X193559507Y-105696502D01*
X193446040Y-105152630D01*
X193121139Y-105019005D01*
X192778092Y-105435083D01*
X192782787Y-105620849D01*
X192633123Y-105910631D01*
X192398018Y-105873974D01*
X191688197Y-105861500D01*
X191221779Y-106269774D01*
X191206578Y-106820785D01*
X190951450Y-106820785D01*
X190834026Y-106518057D01*
X190802592Y-105731194D01*
X190948378Y-105091496D01*
X191026884Y-105033704D01*
X191563037Y-105033704D01*
X191611463Y-105243430D01*
X191798222Y-105268889D01*
X192088598Y-105139813D01*
X192033407Y-105033704D01*
X191614743Y-104991483D01*
X191563037Y-105033704D01*
X191026884Y-105033704D01*
X191332822Y-104808491D01*
X192174236Y-104740227D01*
X192327389Y-104739722D01*
X193243674Y-104790617D01*
G36*
X154995891Y-68080084D02*
X154934289Y-68503211D01*
X154469924Y-68851933D01*
X154110063Y-68698395D01*
X154051000Y-68433009D01*
X154335040Y-67947042D01*
X154609565Y-67874444D01*
X154995891Y-68080084D01*
X154995891Y-68080084D01*
G37*
X154995891Y-68080084D02*
X154934289Y-68503211D01*
X154469924Y-68851933D01*
X154110063Y-68698395D01*
X154051000Y-68433009D01*
X154335040Y-67947042D01*
X154609565Y-67874444D01*
X154995891Y-68080084D01*
G36*
X158637111Y-58849213D02*
X158353071Y-59335180D01*
X158078546Y-59407778D01*
X157667104Y-59202659D01*
X157659623Y-58988854D01*
X158010758Y-58522988D01*
X158433481Y-58463755D01*
X158637111Y-58849213D01*
X158637111Y-58849213D01*
G37*
X158637111Y-58849213D02*
X158353071Y-59335180D01*
X158078546Y-59407778D01*
X157667104Y-59202659D01*
X157659623Y-58988854D01*
X158010758Y-58522988D01*
X158433481Y-58463755D01*
X158637111Y-58849213D01*
G36*
X140292667Y-58849213D02*
X140008626Y-59335180D01*
X139734102Y-59407778D01*
X139322660Y-59202659D01*
X139315178Y-58988854D01*
X139666314Y-58522988D01*
X140089036Y-58463755D01*
X140292667Y-58849213D01*
X140292667Y-58849213D01*
G37*
X140292667Y-58849213D02*
X140008626Y-59335180D01*
X139734102Y-59407778D01*
X139322660Y-59202659D01*
X139315178Y-58988854D01*
X139666314Y-58522988D01*
X140089036Y-58463755D01*
X140292667Y-58849213D01*
G36*
X142305169Y-56841917D02*
X142385899Y-57377675D01*
X142071963Y-57810756D01*
X141879776Y-58269682D01*
X141933317Y-58537131D01*
X141864257Y-58980159D01*
X141565132Y-59055000D01*
X141071776Y-58886061D01*
X140998222Y-58723042D01*
X141252727Y-58240770D01*
X141317881Y-58193524D01*
X141500394Y-57737247D01*
X141453125Y-57290760D01*
X141476873Y-56712891D01*
X141839022Y-56585556D01*
X142305169Y-56841917D01*
X142305169Y-56841917D01*
G37*
X142305169Y-56841917D02*
X142385899Y-57377675D01*
X142071963Y-57810756D01*
X141879776Y-58269682D01*
X141933317Y-58537131D01*
X141864257Y-58980159D01*
X141565132Y-59055000D01*
X141071776Y-58886061D01*
X140998222Y-58723042D01*
X141252727Y-58240770D01*
X141317881Y-58193524D01*
X141500394Y-57737247D01*
X141453125Y-57290760D01*
X141476873Y-56712891D01*
X141839022Y-56585556D01*
X142305169Y-56841917D01*
G36*
X139057944Y-56938333D02*
X139083585Y-57523177D01*
X138961190Y-57705366D01*
X138528732Y-57831969D01*
X138352389Y-57643889D01*
X138326748Y-57059045D01*
X138449143Y-56876857D01*
X138881601Y-56750253D01*
X139057944Y-56938333D01*
X139057944Y-56938333D01*
G37*
X139057944Y-56938333D02*
X139083585Y-57523177D01*
X138961190Y-57705366D01*
X138528732Y-57831969D01*
X138352389Y-57643889D01*
X138326748Y-57059045D01*
X138449143Y-56876857D01*
X138881601Y-56750253D01*
X139057944Y-56938333D01*
G36*
X140790521Y-57107042D02*
X140821833Y-57291111D01*
X140543640Y-57820812D01*
X140380861Y-57908472D01*
X140026797Y-57744741D01*
X139939889Y-57291111D01*
X140102438Y-56731583D01*
X140380861Y-56673750D01*
X140790521Y-57107042D01*
X140790521Y-57107042D01*
G37*
X140790521Y-57107042D02*
X140821833Y-57291111D01*
X140543640Y-57820812D01*
X140380861Y-57908472D01*
X140026797Y-57744741D01*
X139939889Y-57291111D01*
X140102438Y-56731583D01*
X140380861Y-56673750D01*
X140790521Y-57107042D01*
G36*
X145174993Y-56406333D02*
X145511548Y-56659425D01*
X145246449Y-57038093D01*
X144830476Y-57282643D01*
X144621705Y-57004962D01*
X144378264Y-56754594D01*
X143904835Y-57039846D01*
X143818881Y-57116137D01*
X143216232Y-57460241D01*
X142952295Y-57313431D01*
X143056470Y-56955897D01*
X143609783Y-56611629D01*
X144361460Y-56382969D01*
X145060728Y-56372260D01*
X145174993Y-56406333D01*
X145174993Y-56406333D01*
G37*
X145174993Y-56406333D02*
X145511548Y-56659425D01*
X145246449Y-57038093D01*
X144830476Y-57282643D01*
X144621705Y-57004962D01*
X144378264Y-56754594D01*
X143904835Y-57039846D01*
X143818881Y-57116137D01*
X143216232Y-57460241D01*
X142952295Y-57313431D01*
X143056470Y-56955897D01*
X143609783Y-56611629D01*
X144361460Y-56382969D01*
X145060728Y-56372260D01*
X145174993Y-56406333D01*
G36*
X139172868Y-55456831D02*
X139234333Y-55703611D01*
X138951946Y-56171313D01*
X138705167Y-56232778D01*
X138237465Y-55950391D01*
X138176000Y-55703611D01*
X138458387Y-55235909D01*
X138705167Y-55174444D01*
X139172868Y-55456831D01*
X139172868Y-55456831D01*
G37*
X139172868Y-55456831D02*
X139234333Y-55703611D01*
X138951946Y-56171313D01*
X138705167Y-56232778D01*
X138237465Y-55950391D01*
X138176000Y-55703611D01*
X138458387Y-55235909D01*
X138705167Y-55174444D01*
X139172868Y-55456831D01*
G36*
X140583980Y-55456831D02*
X140645444Y-55703611D01*
X140363057Y-56171313D01*
X140116278Y-56232778D01*
X139648576Y-55950391D01*
X139587111Y-55703611D01*
X139869498Y-55235909D01*
X140116278Y-55174444D01*
X140583980Y-55456831D01*
X140583980Y-55456831D01*
G37*
X140583980Y-55456831D02*
X140645444Y-55703611D01*
X140363057Y-56171313D01*
X140116278Y-56232778D01*
X139648576Y-55950391D01*
X139587111Y-55703611D01*
X139869498Y-55235909D01*
X140116278Y-55174444D01*
X140583980Y-55456831D01*
G36*
X144631381Y-54922157D02*
X144702389Y-55174444D01*
X144405213Y-55611906D01*
X143957516Y-55741294D01*
X143009214Y-55859931D01*
X142334194Y-55999454D01*
X141590353Y-56086692D01*
X141226984Y-55991169D01*
X141014209Y-55556404D01*
X141431210Y-55261052D01*
X142321139Y-55094843D01*
X143338506Y-54954492D01*
X144103167Y-54811342D01*
X144173222Y-54793205D01*
X144631381Y-54922157D01*
X144631381Y-54922157D01*
G37*
X144631381Y-54922157D02*
X144702389Y-55174444D01*
X144405213Y-55611906D01*
X143957516Y-55741294D01*
X143009214Y-55859931D01*
X142334194Y-55999454D01*
X141590353Y-56086692D01*
X141226984Y-55991169D01*
X141014209Y-55556404D01*
X141431210Y-55261052D01*
X142321139Y-55094843D01*
X143338506Y-54954492D01*
X144103167Y-54811342D01*
X144173222Y-54793205D01*
X144631381Y-54922157D01*
G36*
X139419579Y-53517920D02*
X139663546Y-53698657D01*
X139896379Y-54183412D01*
X139669232Y-54527879D01*
X139276967Y-54715255D01*
X139025928Y-54336276D01*
X138936191Y-53717468D01*
X139020242Y-53507054D01*
X139419579Y-53517920D01*
X139419579Y-53517920D01*
G37*
X139419579Y-53517920D02*
X139663546Y-53698657D01*
X139896379Y-54183412D01*
X139669232Y-54527879D01*
X139276967Y-54715255D01*
X139025928Y-54336276D01*
X138936191Y-53717468D01*
X139020242Y-53507054D01*
X139419579Y-53517920D01*
G36*
X142093808Y-53647254D02*
X142409241Y-53934271D01*
X142409333Y-53939722D01*
X142103060Y-54228592D01*
X141365017Y-54351260D01*
X141351000Y-54351296D01*
X140608192Y-54232190D01*
X140292759Y-53945173D01*
X140292667Y-53939722D01*
X140598940Y-53650853D01*
X141336983Y-53528184D01*
X141351000Y-53528148D01*
X142093808Y-53647254D01*
X142093808Y-53647254D01*
G37*
X142093808Y-53647254D02*
X142409241Y-53934271D01*
X142409333Y-53939722D01*
X142103060Y-54228592D01*
X141365017Y-54351260D01*
X141351000Y-54351296D01*
X140608192Y-54232190D01*
X140292759Y-53945173D01*
X140292667Y-53939722D01*
X140598940Y-53650853D01*
X141336983Y-53528184D01*
X141351000Y-53528148D01*
X142093808Y-53647254D01*
G36*
X143636107Y-53644295D02*
X143595240Y-53939722D01*
X143248964Y-54406548D01*
X143077146Y-54468889D01*
X142797481Y-54182600D01*
X142762111Y-53939722D01*
X143038830Y-53471890D01*
X143280206Y-53410556D01*
X143636107Y-53644295D01*
X143636107Y-53644295D01*
G37*
X143636107Y-53644295D02*
X143595240Y-53939722D01*
X143248964Y-54406548D01*
X143077146Y-54468889D01*
X142797481Y-54182600D01*
X142762111Y-53939722D01*
X143038830Y-53471890D01*
X143280206Y-53410556D01*
X143636107Y-53644295D01*
D13*
X171666667Y-141928571D02*
X171333333Y-141928571D01*
X171333333Y-142452381D02*
X171333333Y-141452381D01*
X171809524Y-141452381D01*
X172095238Y-141452381D02*
X172714286Y-141452381D01*
X172380952Y-141833333D01*
X172523810Y-141833333D01*
X172619048Y-141880952D01*
X172666667Y-141928571D01*
X172714286Y-142023810D01*
X172714286Y-142261905D01*
X172666667Y-142357143D01*
X172619048Y-142404762D01*
X172523810Y-142452381D01*
X172238095Y-142452381D01*
X172142857Y-142404762D01*
X172095238Y-142357143D01*
X117666667Y-129428571D02*
X117333333Y-129428571D01*
X117333333Y-129952381D02*
X117333333Y-128952381D01*
X117809524Y-128952381D01*
X118142857Y-129047619D02*
X118190476Y-129000000D01*
X118285714Y-128952381D01*
X118523810Y-128952381D01*
X118619048Y-129000000D01*
X118666667Y-129047619D01*
X118714286Y-129142857D01*
X118714286Y-129238095D01*
X118666667Y-129380952D01*
X118095238Y-129952381D01*
X118714286Y-129952381D01*
X171666667Y-129428571D02*
X171333333Y-129428571D01*
X171333333Y-129952381D02*
X171333333Y-128952381D01*
X171809524Y-128952381D01*
X172619048Y-129285714D02*
X172619048Y-129952381D01*
X172380952Y-128904762D02*
X172142857Y-129619048D01*
X172761905Y-129619048D01*
X112037905Y-103004381D02*
X112037905Y-102004381D01*
X112276000Y-102004381D01*
X112418858Y-102052000D01*
X112514096Y-102147238D01*
X112561715Y-102242476D01*
X112609334Y-102432952D01*
X112609334Y-102575810D01*
X112561715Y-102766286D01*
X112514096Y-102861524D01*
X112418858Y-102956762D01*
X112276000Y-103004381D01*
X112037905Y-103004381D01*
X113561715Y-103004381D02*
X112990286Y-103004381D01*
X113276000Y-103004381D02*
X113276000Y-102004381D01*
X113180762Y-102147238D01*
X113085524Y-102242476D01*
X112990286Y-102290095D01*
X115355905Y-113926381D02*
X115355905Y-112926381D01*
X115594000Y-112926381D01*
X115736858Y-112974000D01*
X115832096Y-113069238D01*
X115879715Y-113164476D01*
X115927334Y-113354952D01*
X115927334Y-113497810D01*
X115879715Y-113688286D01*
X115832096Y-113783524D01*
X115736858Y-113878762D01*
X115594000Y-113926381D01*
X115355905Y-113926381D01*
X116308286Y-113021619D02*
X116355905Y-112974000D01*
X116451143Y-112926381D01*
X116689239Y-112926381D01*
X116784477Y-112974000D01*
X116832096Y-113021619D01*
X116879715Y-113116857D01*
X116879715Y-113212095D01*
X116832096Y-113354952D01*
X116260667Y-113926381D01*
X116879715Y-113926381D01*
X118133905Y-125102381D02*
X118133905Y-124102381D01*
X118372000Y-124102381D01*
X118514858Y-124150000D01*
X118610096Y-124245238D01*
X118657715Y-124340476D01*
X118705334Y-124530952D01*
X118705334Y-124673810D01*
X118657715Y-124864286D01*
X118610096Y-124959524D01*
X118514858Y-125054762D01*
X118372000Y-125102381D01*
X118133905Y-125102381D01*
X119038667Y-124102381D02*
X119657715Y-124102381D01*
X119324381Y-124483333D01*
X119467239Y-124483333D01*
X119562477Y-124530952D01*
X119610096Y-124578571D01*
X119657715Y-124673810D01*
X119657715Y-124911905D01*
X119610096Y-125007143D01*
X119562477Y-125054762D01*
X119467239Y-125102381D01*
X119181524Y-125102381D01*
X119086286Y-125054762D01*
X119038667Y-125007143D01*
X123721905Y-93352381D02*
X123721905Y-92352381D01*
X123960000Y-92352381D01*
X124102858Y-92400000D01*
X124198096Y-92495238D01*
X124245715Y-92590476D01*
X124293334Y-92780952D01*
X124293334Y-92923810D01*
X124245715Y-93114286D01*
X124198096Y-93209524D01*
X124102858Y-93304762D01*
X123960000Y-93352381D01*
X123721905Y-93352381D01*
X125150477Y-92352381D02*
X124960000Y-92352381D01*
X124864762Y-92400000D01*
X124817143Y-92447619D01*
X124721905Y-92590476D01*
X124674286Y-92780952D01*
X124674286Y-93161905D01*
X124721905Y-93257143D01*
X124769524Y-93304762D01*
X124864762Y-93352381D01*
X125055239Y-93352381D01*
X125150477Y-93304762D01*
X125198096Y-93257143D01*
X125245715Y-93161905D01*
X125245715Y-92923810D01*
X125198096Y-92828571D01*
X125150477Y-92780952D01*
X125055239Y-92733333D01*
X124864762Y-92733333D01*
X124769524Y-92780952D01*
X124721905Y-92828571D01*
X124674286Y-92923810D01*
X126531905Y-104020381D02*
X126531905Y-103020381D01*
X126770000Y-103020381D01*
X126912858Y-103068000D01*
X127008096Y-103163238D01*
X127055715Y-103258476D01*
X127103334Y-103448952D01*
X127103334Y-103591810D01*
X127055715Y-103782286D01*
X127008096Y-103877524D01*
X126912858Y-103972762D01*
X126770000Y-104020381D01*
X126531905Y-104020381D01*
X127436667Y-103020381D02*
X128103334Y-103020381D01*
X127674762Y-104020381D01*
X129563905Y-117990381D02*
X129563905Y-116990381D01*
X129802000Y-116990381D01*
X129944858Y-117038000D01*
X130040096Y-117133238D01*
X130087715Y-117228476D01*
X130135334Y-117418952D01*
X130135334Y-117561810D01*
X130087715Y-117752286D01*
X130040096Y-117847524D01*
X129944858Y-117942762D01*
X129802000Y-117990381D01*
X129563905Y-117990381D01*
X130706762Y-117418952D02*
X130611524Y-117371333D01*
X130563905Y-117323714D01*
X130516286Y-117228476D01*
X130516286Y-117180857D01*
X130563905Y-117085619D01*
X130611524Y-117038000D01*
X130706762Y-116990381D01*
X130897239Y-116990381D01*
X130992477Y-117038000D01*
X131040096Y-117085619D01*
X131087715Y-117180857D01*
X131087715Y-117228476D01*
X131040096Y-117323714D01*
X130992477Y-117371333D01*
X130897239Y-117418952D01*
X130706762Y-117418952D01*
X130611524Y-117466571D01*
X130563905Y-117514190D01*
X130516286Y-117609429D01*
X130516286Y-117799905D01*
X130563905Y-117895143D01*
X130611524Y-117942762D01*
X130706762Y-117990381D01*
X130897239Y-117990381D01*
X130992477Y-117942762D01*
X131040096Y-117895143D01*
X131087715Y-117799905D01*
X131087715Y-117609429D01*
X131040096Y-117514190D01*
X130992477Y-117466571D01*
X130897239Y-117418952D01*
X138993714Y-72016381D02*
X138993714Y-71016381D01*
X139231809Y-71016381D01*
X139374667Y-71064000D01*
X139469905Y-71159238D01*
X139517524Y-71254476D01*
X139565143Y-71444952D01*
X139565143Y-71587810D01*
X139517524Y-71778286D01*
X139469905Y-71873524D01*
X139374667Y-71968762D01*
X139231809Y-72016381D01*
X138993714Y-72016381D01*
X140517524Y-72016381D02*
X139946095Y-72016381D01*
X140231809Y-72016381D02*
X140231809Y-71016381D01*
X140136571Y-71159238D01*
X140041333Y-71254476D01*
X139946095Y-71302095D01*
X141469905Y-72016381D02*
X140898476Y-72016381D01*
X141184190Y-72016381D02*
X141184190Y-71016381D01*
X141088952Y-71159238D01*
X140993714Y-71254476D01*
X140898476Y-71302095D01*
X139009714Y-83700381D02*
X139009714Y-82700381D01*
X139247809Y-82700381D01*
X139390667Y-82748000D01*
X139485905Y-82843238D01*
X139533524Y-82938476D01*
X139581143Y-83128952D01*
X139581143Y-83271810D01*
X139533524Y-83462286D01*
X139485905Y-83557524D01*
X139390667Y-83652762D01*
X139247809Y-83700381D01*
X139009714Y-83700381D01*
X140533524Y-83700381D02*
X139962095Y-83700381D01*
X140247809Y-83700381D02*
X140247809Y-82700381D01*
X140152571Y-82843238D01*
X140057333Y-82938476D01*
X139962095Y-82986095D01*
X140914476Y-82795619D02*
X140962095Y-82748000D01*
X141057333Y-82700381D01*
X141295429Y-82700381D01*
X141390667Y-82748000D01*
X141438286Y-82795619D01*
X141485905Y-82890857D01*
X141485905Y-82986095D01*
X141438286Y-83128952D01*
X140866857Y-83700381D01*
X141485905Y-83700381D01*
X138231714Y-95638381D02*
X138231714Y-94638381D01*
X138469809Y-94638381D01*
X138612667Y-94686000D01*
X138707905Y-94781238D01*
X138755524Y-94876476D01*
X138803143Y-95066952D01*
X138803143Y-95209810D01*
X138755524Y-95400286D01*
X138707905Y-95495524D01*
X138612667Y-95590762D01*
X138469809Y-95638381D01*
X138231714Y-95638381D01*
X139755524Y-95638381D02*
X139184095Y-95638381D01*
X139469809Y-95638381D02*
X139469809Y-94638381D01*
X139374571Y-94781238D01*
X139279333Y-94876476D01*
X139184095Y-94924095D01*
X140088857Y-94638381D02*
X140707905Y-94638381D01*
X140374571Y-95019333D01*
X140517429Y-95019333D01*
X140612667Y-95066952D01*
X140660286Y-95114571D01*
X140707905Y-95209810D01*
X140707905Y-95447905D01*
X140660286Y-95543143D01*
X140612667Y-95590762D01*
X140517429Y-95638381D01*
X140231714Y-95638381D01*
X140136476Y-95590762D01*
X140088857Y-95543143D01*
X155757714Y-77858381D02*
X155757714Y-76858381D01*
X155995809Y-76858381D01*
X156138667Y-76906000D01*
X156233905Y-77001238D01*
X156281524Y-77096476D01*
X156329143Y-77286952D01*
X156329143Y-77429810D01*
X156281524Y-77620286D01*
X156233905Y-77715524D01*
X156138667Y-77810762D01*
X155995809Y-77858381D01*
X155757714Y-77858381D01*
X157281524Y-77858381D02*
X156710095Y-77858381D01*
X156995809Y-77858381D02*
X156995809Y-76858381D01*
X156900571Y-77001238D01*
X156805333Y-77096476D01*
X156710095Y-77144095D01*
X158138667Y-76858381D02*
X157948190Y-76858381D01*
X157852952Y-76906000D01*
X157805333Y-76953619D01*
X157710095Y-77096476D01*
X157662476Y-77286952D01*
X157662476Y-77667905D01*
X157710095Y-77763143D01*
X157757714Y-77810762D01*
X157852952Y-77858381D01*
X158043429Y-77858381D01*
X158138667Y-77810762D01*
X158186286Y-77763143D01*
X158233905Y-77667905D01*
X158233905Y-77429810D01*
X158186286Y-77334571D01*
X158138667Y-77286952D01*
X158043429Y-77239333D01*
X157852952Y-77239333D01*
X157757714Y-77286952D01*
X157710095Y-77334571D01*
X157662476Y-77429810D01*
X153487714Y-90812381D02*
X153487714Y-89812381D01*
X153725809Y-89812381D01*
X153868667Y-89860000D01*
X153963905Y-89955238D01*
X154011524Y-90050476D01*
X154059143Y-90240952D01*
X154059143Y-90383810D01*
X154011524Y-90574286D01*
X153963905Y-90669524D01*
X153868667Y-90764762D01*
X153725809Y-90812381D01*
X153487714Y-90812381D01*
X155011524Y-90812381D02*
X154440095Y-90812381D01*
X154725809Y-90812381D02*
X154725809Y-89812381D01*
X154630571Y-89955238D01*
X154535333Y-90050476D01*
X154440095Y-90098095D01*
X155344857Y-89812381D02*
X156011524Y-89812381D01*
X155582952Y-90812381D01*
X150947714Y-101226381D02*
X150947714Y-100226381D01*
X151185809Y-100226381D01*
X151328667Y-100274000D01*
X151423905Y-100369238D01*
X151471524Y-100464476D01*
X151519143Y-100654952D01*
X151519143Y-100797810D01*
X151471524Y-100988286D01*
X151423905Y-101083524D01*
X151328667Y-101178762D01*
X151185809Y-101226381D01*
X150947714Y-101226381D01*
X152471524Y-101226381D02*
X151900095Y-101226381D01*
X152185809Y-101226381D02*
X152185809Y-100226381D01*
X152090571Y-100369238D01*
X151995333Y-100464476D01*
X151900095Y-100512095D01*
X153042952Y-100654952D02*
X152947714Y-100607333D01*
X152900095Y-100559714D01*
X152852476Y-100464476D01*
X152852476Y-100416857D01*
X152900095Y-100321619D01*
X152947714Y-100274000D01*
X153042952Y-100226381D01*
X153233429Y-100226381D01*
X153328667Y-100274000D01*
X153376286Y-100321619D01*
X153423905Y-100416857D01*
X153423905Y-100464476D01*
X153376286Y-100559714D01*
X153328667Y-100607333D01*
X153233429Y-100654952D01*
X153042952Y-100654952D01*
X152947714Y-100702571D01*
X152900095Y-100750190D01*
X152852476Y-100845429D01*
X152852476Y-101035905D01*
X152900095Y-101131143D01*
X152947714Y-101178762D01*
X153042952Y-101226381D01*
X153233429Y-101226381D01*
X153328667Y-101178762D01*
X153376286Y-101131143D01*
X153423905Y-101035905D01*
X153423905Y-100845429D01*
X153376286Y-100750190D01*
X153328667Y-100702571D01*
X153233429Y-100654952D01*
X102833334Y-134452381D02*
X102500000Y-133976190D01*
X102261905Y-134452381D02*
X102261905Y-133452381D01*
X102642858Y-133452381D01*
X102738096Y-133500000D01*
X102785715Y-133547619D01*
X102833334Y-133642857D01*
X102833334Y-133785714D01*
X102785715Y-133880952D01*
X102738096Y-133928571D01*
X102642858Y-133976190D01*
X102261905Y-133976190D01*
X103785715Y-134452381D02*
X103214286Y-134452381D01*
X103500000Y-134452381D02*
X103500000Y-133452381D01*
X103404762Y-133595238D01*
X103309524Y-133690476D01*
X103214286Y-133738095D01*
X177166667Y-124904762D02*
X177309524Y-124952381D01*
X177547620Y-124952381D01*
X177642858Y-124904762D01*
X177690477Y-124857143D01*
X177738096Y-124761905D01*
X177738096Y-124666667D01*
X177690477Y-124571429D01*
X177642858Y-124523810D01*
X177547620Y-124476190D01*
X177357143Y-124428571D01*
X177261905Y-124380952D01*
X177214286Y-124333333D01*
X177166667Y-124238095D01*
X177166667Y-124142857D01*
X177214286Y-124047619D01*
X177261905Y-124000000D01*
X177357143Y-123952381D01*
X177595239Y-123952381D01*
X177738096Y-124000000D01*
X178071429Y-123952381D02*
X178309524Y-124952381D01*
X178500001Y-124238095D01*
X178690477Y-124952381D01*
X178928572Y-123952381D01*
X179833334Y-124952381D02*
X179261905Y-124952381D01*
X179547619Y-124952381D02*
X179547619Y-123952381D01*
X179452381Y-124095238D01*
X179357143Y-124190476D01*
X179261905Y-124238095D01*
X176988095Y-133452381D02*
X176988095Y-134261905D01*
X177035714Y-134357143D01*
X177083333Y-134404762D01*
X177178571Y-134452381D01*
X177369048Y-134452381D01*
X177464286Y-134404762D01*
X177511905Y-134357143D01*
X177559524Y-134261905D01*
X177559524Y-133452381D01*
X178559524Y-134452381D02*
X177988095Y-134452381D01*
X178273809Y-134452381D02*
X178273809Y-133452381D01*
X178178571Y-133595238D01*
X178083333Y-133690476D01*
X177988095Y-133738095D01*
X191964286Y-132678571D02*
X192107143Y-132726190D01*
X192154762Y-132773810D01*
X192202381Y-132869048D01*
X192202381Y-133011905D01*
X192154762Y-133107143D01*
X192107143Y-133154762D01*
X192011905Y-133202381D01*
X191630952Y-133202381D01*
X191630952Y-132202381D01*
X191964286Y-132202381D01*
X192059524Y-132250000D01*
X192107143Y-132297619D01*
X192154762Y-132392857D01*
X192154762Y-132488095D01*
X192107143Y-132583333D01*
X192059524Y-132630952D01*
X191964286Y-132678571D01*
X191630952Y-132678571D01*
X192488095Y-132202381D02*
X193059524Y-132202381D01*
X192773809Y-133202381D02*
X192773809Y-132202381D01*
X193916667Y-133202381D02*
X193345238Y-133202381D01*
X193630952Y-133202381D02*
X193630952Y-132202381D01*
X193535714Y-132345238D01*
X193440476Y-132440476D01*
X193345238Y-132488095D01*
X110833334Y-130111143D02*
X110785715Y-130158762D01*
X110642858Y-130206381D01*
X110547620Y-130206381D01*
X110404762Y-130158762D01*
X110309524Y-130063524D01*
X110261905Y-129968286D01*
X110214286Y-129777810D01*
X110214286Y-129634952D01*
X110261905Y-129444476D01*
X110309524Y-129349238D01*
X110404762Y-129254000D01*
X110547620Y-129206381D01*
X110642858Y-129206381D01*
X110785715Y-129254000D01*
X110833334Y-129301619D01*
X111785715Y-130206381D02*
X111214286Y-130206381D01*
X111500000Y-130206381D02*
X111500000Y-129206381D01*
X111404762Y-129349238D01*
X111309524Y-129444476D01*
X111214286Y-129492095D01*
X117666667Y-141928571D02*
X117333333Y-141928571D01*
X117333333Y-142452381D02*
X117333333Y-141452381D01*
X117809524Y-141452381D01*
X118714286Y-142452381D02*
X118142857Y-142452381D01*
X118428571Y-142452381D02*
X118428571Y-141452381D01*
X118333333Y-141595238D01*
X118238095Y-141690476D01*
X118142857Y-141738095D01*
X112666667Y-141952381D02*
X112666667Y-142666667D01*
X112619047Y-142809524D01*
X112523809Y-142904762D01*
X112380952Y-142952381D01*
X112285714Y-142952381D01*
X113666667Y-142952381D02*
X113095238Y-142952381D01*
X113380952Y-142952381D02*
X113380952Y-141952381D01*
X113285714Y-142095238D01*
X113190476Y-142190476D01*
X113095238Y-142238095D01*
X181166667Y-145452381D02*
X181166667Y-146166667D01*
X181119047Y-146309524D01*
X181023809Y-146404762D01*
X180880952Y-146452381D01*
X180785714Y-146452381D01*
X181642857Y-146452381D02*
X181642857Y-145452381D01*
X182023810Y-145452381D01*
X182119048Y-145500000D01*
X182166667Y-145547619D01*
X182214286Y-145642857D01*
X182214286Y-145785714D01*
X182166667Y-145880952D01*
X182119048Y-145928571D01*
X182023810Y-145976190D01*
X181642857Y-145976190D01*
X183166667Y-146452381D02*
X182595238Y-146452381D01*
X182880952Y-146452381D02*
X182880952Y-145452381D01*
X182785714Y-145595238D01*
X182690476Y-145690476D01*
X182595238Y-145738095D01*
X188166667Y-145452381D02*
X188166667Y-146166667D01*
X188119047Y-146309524D01*
X188023809Y-146404762D01*
X187880952Y-146452381D01*
X187785714Y-146452381D01*
X188642857Y-146452381D02*
X188642857Y-145452381D01*
X189023810Y-145452381D01*
X189119048Y-145500000D01*
X189166667Y-145547619D01*
X189214286Y-145642857D01*
X189214286Y-145785714D01*
X189166667Y-145880952D01*
X189119048Y-145928571D01*
X189023810Y-145976190D01*
X188642857Y-145976190D01*
X189595238Y-145547619D02*
X189642857Y-145500000D01*
X189738095Y-145452381D01*
X189976191Y-145452381D01*
X190071429Y-145500000D01*
X190119048Y-145547619D01*
X190166667Y-145642857D01*
X190166667Y-145738095D01*
X190119048Y-145880952D01*
X189547619Y-146452381D01*
X190166667Y-146452381D01*
M02*
