G04 #@! TF.FileFunction,Soldermask,Bot*
%FSLAX46Y46*%
G04 Gerber Fmt 4.6, Leading zero omitted, Abs format (unit mm)*
G04 Created by KiCad (PCBNEW 4.0.6) date 11/09/17 18:30:30*
%MOMM*%
%LPD*%
G01*
G04 APERTURE LIST*
%ADD10C,0.100000*%
%ADD11C,0.010000*%
%ADD12C,4.000000*%
%ADD13R,1.800000X1.800000*%
%ADD14C,1.800000*%
%ADD15C,1.600000*%
%ADD16O,1.600000X1.600000*%
%ADD17C,1.500000*%
%ADD18R,1.600000X1.600000*%
%ADD19R,1.700000X1.700000*%
%ADD20O,1.700000X1.700000*%
G04 APERTURE END LIST*
D10*
D11*
G36*
X145197476Y-124220921D02*
X145105698Y-124228468D01*
X145028871Y-124240599D01*
X145013807Y-124244116D01*
X144917216Y-124275087D01*
X144811300Y-124320133D01*
X144704430Y-124375111D01*
X144604982Y-124435877D01*
X144555956Y-124470661D01*
X144434909Y-124572671D01*
X144313468Y-124695196D01*
X144195534Y-124833719D01*
X144085010Y-124983720D01*
X144004299Y-125109366D01*
X143962679Y-125189089D01*
X143942093Y-125254872D01*
X143942503Y-125306953D01*
X143963867Y-125345568D01*
X143964124Y-125345825D01*
X143978961Y-125352923D01*
X144016226Y-125367682D01*
X144074316Y-125389533D01*
X144151628Y-125417905D01*
X144246562Y-125452225D01*
X144357516Y-125491923D01*
X144482887Y-125536429D01*
X144621074Y-125585171D01*
X144770474Y-125637578D01*
X144929487Y-125693080D01*
X145096509Y-125751105D01*
X145255666Y-125806157D01*
X145427629Y-125865607D01*
X145592385Y-125922747D01*
X145748401Y-125977034D01*
X145894142Y-126027928D01*
X146028075Y-126074885D01*
X146148665Y-126117364D01*
X146254379Y-126154824D01*
X146343684Y-126186722D01*
X146415044Y-126212518D01*
X146466927Y-126231669D01*
X146497798Y-126243633D01*
X146506235Y-126247856D01*
X146491239Y-126247246D01*
X146452659Y-126244499D01*
X146392209Y-126239761D01*
X146311604Y-126233179D01*
X146212556Y-126224899D01*
X146096779Y-126215066D01*
X145965988Y-126203827D01*
X145821895Y-126191328D01*
X145666215Y-126177716D01*
X145500662Y-126163136D01*
X145326948Y-126147735D01*
X145203990Y-126136774D01*
X145024796Y-126120811D01*
X144851986Y-126105508D01*
X144687334Y-126091017D01*
X144532618Y-126077489D01*
X144389613Y-126065077D01*
X144260094Y-126053934D01*
X144145839Y-126044212D01*
X144048623Y-126036062D01*
X143970222Y-126029638D01*
X143912412Y-126025091D01*
X143876968Y-126022575D01*
X143866764Y-126022100D01*
X143813517Y-126027109D01*
X143778655Y-126044134D01*
X143756815Y-126076174D01*
X143753204Y-126085597D01*
X143748647Y-126104557D01*
X143740014Y-126146311D01*
X143727720Y-126208657D01*
X143712184Y-126289388D01*
X143693821Y-126386302D01*
X143673050Y-126497193D01*
X143650285Y-126619857D01*
X143625945Y-126752089D01*
X143600446Y-126891686D01*
X143591676Y-126939940D01*
X143443616Y-127755650D01*
X143267258Y-128310242D01*
X143230946Y-128425428D01*
X143197154Y-128534539D01*
X143166663Y-128634914D01*
X143140255Y-128723892D01*
X143118710Y-128798813D01*
X143102808Y-128857017D01*
X143093331Y-128895843D01*
X143090900Y-128911152D01*
X143094718Y-128950033D01*
X143103996Y-128981850D01*
X143104859Y-128983551D01*
X143121849Y-128998863D01*
X143159269Y-129022301D01*
X143214045Y-129052361D01*
X143283105Y-129087537D01*
X143363374Y-129126323D01*
X143451781Y-129167214D01*
X143545251Y-129208704D01*
X143640712Y-129249289D01*
X143681450Y-129266023D01*
X143746356Y-129292402D01*
X143805116Y-129316315D01*
X143852653Y-129335693D01*
X143883892Y-129348469D01*
X143891000Y-129351397D01*
X143910172Y-129360241D01*
X143911009Y-129366793D01*
X143891183Y-129375354D01*
X143875005Y-129380972D01*
X143794213Y-129421515D01*
X143728713Y-129481224D01*
X143680025Y-129557922D01*
X143649669Y-129649430D01*
X143640417Y-129716877D01*
X143643830Y-129843554D01*
X143671709Y-129963608D01*
X143723884Y-130076610D01*
X143800188Y-130182129D01*
X143839128Y-130223851D01*
X143939650Y-130309563D01*
X144048840Y-130372972D01*
X144171024Y-130416373D01*
X144224962Y-130428737D01*
X144325096Y-130445962D01*
X144448456Y-130462743D01*
X144592868Y-130478875D01*
X144756160Y-130494150D01*
X144936159Y-130508361D01*
X145130691Y-130521301D01*
X145294350Y-130530548D01*
X145354969Y-130532925D01*
X145438069Y-130534994D01*
X145540734Y-130536756D01*
X145660046Y-130538212D01*
X145793088Y-130539364D01*
X145936945Y-130540214D01*
X146088698Y-130540762D01*
X146245432Y-130541010D01*
X146404229Y-130540959D01*
X146562173Y-130540611D01*
X146716346Y-130539968D01*
X146863832Y-130539030D01*
X147001714Y-130537799D01*
X147127075Y-130536276D01*
X147236998Y-130534463D01*
X147328566Y-130532362D01*
X147398863Y-130529972D01*
X147408454Y-130529539D01*
X147490669Y-130525144D01*
X147575154Y-130519758D01*
X147653782Y-130513953D01*
X147718425Y-130508306D01*
X147738654Y-130506208D01*
X147829468Y-130494484D01*
X147897812Y-130481100D01*
X147946612Y-130464433D01*
X147978798Y-130442863D01*
X147997299Y-130414768D01*
X148005044Y-130378526D01*
X148005800Y-130358315D01*
X148001652Y-130305446D01*
X147985948Y-130270305D01*
X147953801Y-130246114D01*
X147913507Y-130230266D01*
X147896974Y-130225563D01*
X147876873Y-130221533D01*
X147851111Y-130218108D01*
X147817594Y-130215215D01*
X147774228Y-130212784D01*
X147718920Y-130210745D01*
X147649576Y-130209026D01*
X147564102Y-130207556D01*
X147460404Y-130206266D01*
X147336390Y-130205084D01*
X147189965Y-130203939D01*
X147119975Y-130203443D01*
X146392900Y-130198408D01*
X146392900Y-130161929D01*
X146384059Y-130084748D01*
X146360261Y-130004819D01*
X146328616Y-129940858D01*
X146308059Y-129907801D01*
X146294506Y-129884774D01*
X146291300Y-129878158D01*
X146303484Y-129877387D01*
X146337979Y-129877051D01*
X146391701Y-129877133D01*
X146461563Y-129877615D01*
X146544483Y-129878481D01*
X146637374Y-129879714D01*
X146676939Y-129880310D01*
X146786009Y-129881964D01*
X146872531Y-129883048D01*
X146939356Y-129883420D01*
X146989332Y-129882934D01*
X147025309Y-129881448D01*
X147050136Y-129878819D01*
X147066662Y-129874902D01*
X147077737Y-129869555D01*
X147086210Y-129862633D01*
X147089366Y-129859534D01*
X147111407Y-129829859D01*
X147118642Y-129812587D01*
X145703733Y-129812587D01*
X145700373Y-129824043D01*
X145688414Y-129850362D01*
X145681508Y-129864226D01*
X145665266Y-129914345D01*
X145657078Y-129979181D01*
X145657168Y-130049289D01*
X145665760Y-130115224D01*
X145674787Y-130148003D01*
X145693274Y-130200400D01*
X145436662Y-130200364D01*
X145336320Y-130199866D01*
X145223915Y-130198515D01*
X145109689Y-130196482D01*
X145003882Y-130193939D01*
X144943797Y-130192071D01*
X144707543Y-130183814D01*
X144713626Y-130067524D01*
X144711708Y-129955578D01*
X144692244Y-129853811D01*
X144653344Y-129756322D01*
X144593115Y-129657213D01*
X144573347Y-129629939D01*
X144550504Y-129597064D01*
X144538485Y-129574938D01*
X144539640Y-129567968D01*
X144540439Y-129568223D01*
X144558204Y-129573490D01*
X144596347Y-129583822D01*
X144650609Y-129598096D01*
X144716731Y-129615191D01*
X144786937Y-129633097D01*
X144988153Y-129681135D01*
X145196294Y-129725392D01*
X145400554Y-129763678D01*
X145554700Y-129788654D01*
X145612285Y-129797366D01*
X145659703Y-129804808D01*
X145691887Y-129810167D01*
X145703733Y-129812587D01*
X147118642Y-129812587D01*
X147122303Y-129803848D01*
X147126374Y-129779668D01*
X147133037Y-129734076D01*
X147141881Y-129670291D01*
X147152498Y-129591530D01*
X147164476Y-129501010D01*
X147177406Y-129401950D01*
X147190877Y-129297566D01*
X147204480Y-129191077D01*
X147217805Y-129085701D01*
X147230441Y-128984654D01*
X147231348Y-128977302D01*
X146488593Y-128977302D01*
X146471822Y-129038373D01*
X146435345Y-129095610D01*
X146381705Y-129144340D01*
X146348450Y-129164468D01*
X146292758Y-129182222D01*
X146233747Y-129177692D01*
X146180665Y-129157699D01*
X146121043Y-129117256D01*
X146077455Y-129063937D01*
X146052602Y-129002838D01*
X146049188Y-128939058D01*
X146053383Y-128917700D01*
X146080531Y-128856647D01*
X146124310Y-128803834D01*
X146178881Y-128764146D01*
X146238405Y-128742474D01*
X146265802Y-128739900D01*
X146328901Y-128751822D01*
X146388482Y-128784630D01*
X146439099Y-128833880D01*
X146475302Y-128895130D01*
X146483113Y-128917071D01*
X146488593Y-128977302D01*
X147231348Y-128977302D01*
X147241979Y-128891156D01*
X147252007Y-128808422D01*
X147260118Y-128739672D01*
X147265020Y-128695960D01*
X145410756Y-128695960D01*
X145407308Y-128763007D01*
X145378612Y-128831159D01*
X145372098Y-128841439D01*
X145333907Y-128882595D01*
X145282486Y-128916769D01*
X145227614Y-128938394D01*
X145193585Y-128943089D01*
X145158853Y-128937478D01*
X145116736Y-128923415D01*
X145102928Y-128917253D01*
X145060936Y-128889405D01*
X145023185Y-128852458D01*
X145015854Y-128842803D01*
X144981823Y-128775825D01*
X144973097Y-128710145D01*
X144989588Y-128646429D01*
X145031209Y-128585342D01*
X145052559Y-128563909D01*
X145115153Y-128520166D01*
X145179569Y-128501528D01*
X145244021Y-128507957D01*
X145306722Y-128539417D01*
X145342429Y-128569961D01*
X145389086Y-128631214D01*
X145410756Y-128695960D01*
X147265020Y-128695960D01*
X147265899Y-128688123D01*
X147268942Y-128656992D01*
X147269310Y-128650252D01*
X147262825Y-128604561D01*
X147240974Y-128573115D01*
X147199768Y-128551485D01*
X147173225Y-128543616D01*
X147151570Y-128538519D01*
X147107015Y-128528400D01*
X147041471Y-128513682D01*
X146956846Y-128494789D01*
X146855050Y-128472145D01*
X146823204Y-128465079D01*
X144363893Y-128465079D01*
X144358619Y-128526471D01*
X144333808Y-128586242D01*
X144291633Y-128639263D01*
X144234270Y-128680403D01*
X144230910Y-128682123D01*
X144169115Y-128705335D01*
X144113619Y-128707010D01*
X144057140Y-128686713D01*
X144029090Y-128670050D01*
X143972910Y-128620387D01*
X143938080Y-128561546D01*
X143924420Y-128497828D01*
X143931750Y-128433532D01*
X143959889Y-128372956D01*
X144008657Y-128320402D01*
X144044764Y-128296159D01*
X144110417Y-128272467D01*
X144176927Y-128272323D01*
X144240447Y-128294315D01*
X144297125Y-128337031D01*
X144343114Y-128399060D01*
X144347454Y-128407194D01*
X144363893Y-128465079D01*
X146823204Y-128465079D01*
X146737994Y-128446173D01*
X146607586Y-128417298D01*
X146465737Y-128385943D01*
X146314356Y-128352531D01*
X146155352Y-128317488D01*
X146019867Y-128287666D01*
X145858371Y-128252041D01*
X145704621Y-128217934D01*
X145560340Y-128185739D01*
X145427248Y-128155847D01*
X145307066Y-128128653D01*
X145201514Y-128104549D01*
X145112313Y-128083927D01*
X145041185Y-128067180D01*
X144989849Y-128054701D01*
X144960026Y-128046883D01*
X144953067Y-128044146D01*
X144968973Y-128044724D01*
X145008344Y-128047437D01*
X145069347Y-128052130D01*
X145150150Y-128058646D01*
X145248922Y-128066833D01*
X145363829Y-128076536D01*
X145493041Y-128087598D01*
X145634725Y-128099867D01*
X145787048Y-128113187D01*
X145948179Y-128127403D01*
X146116286Y-128142361D01*
X146118637Y-128142571D01*
X146286668Y-128157569D01*
X146447630Y-128171902D01*
X146599706Y-128185412D01*
X146741074Y-128197937D01*
X146869917Y-128209317D01*
X146984413Y-128219393D01*
X147082745Y-128228004D01*
X147163092Y-128234990D01*
X147223635Y-128240192D01*
X147262555Y-128243448D01*
X147278032Y-128244599D01*
X147278089Y-128244600D01*
X147298490Y-128236219D01*
X147324499Y-128215805D01*
X147326928Y-128213427D01*
X147358100Y-128182254D01*
X147358150Y-128038363D01*
X144901492Y-128038363D01*
X144889009Y-128040397D01*
X144872537Y-128038062D01*
X144872340Y-128033727D01*
X144889338Y-128030695D01*
X144896682Y-128032724D01*
X144901492Y-128038363D01*
X147358150Y-128038363D01*
X147358327Y-127531493D01*
X146201161Y-127531493D01*
X146196099Y-127598545D01*
X146166473Y-127660038D01*
X146130509Y-127700974D01*
X146068441Y-127746549D01*
X146004936Y-127766769D01*
X145939908Y-127761641D01*
X145873270Y-127731174D01*
X145865850Y-127726284D01*
X145816007Y-127680787D01*
X145780761Y-127624875D01*
X145763674Y-127565499D01*
X145764096Y-127527636D01*
X145787259Y-127455513D01*
X145789409Y-127452652D01*
X145108614Y-127452652D01*
X145098272Y-127497919D01*
X145090544Y-127517759D01*
X145051828Y-127583666D01*
X144996699Y-127631629D01*
X144964150Y-127649096D01*
X144915838Y-127667445D01*
X144875810Y-127670400D01*
X144832140Y-127657956D01*
X144811750Y-127649022D01*
X144743717Y-127606177D01*
X144696754Y-127551958D01*
X144671910Y-127489198D01*
X144670233Y-127420729D01*
X144692772Y-127349385D01*
X144697450Y-127340205D01*
X144716007Y-127297919D01*
X144727442Y-127257551D01*
X144729200Y-127241434D01*
X144731079Y-127215315D01*
X144739863Y-127209509D01*
X144753766Y-127215453D01*
X144779140Y-127222416D01*
X144820154Y-127227182D01*
X144859229Y-127228600D01*
X144940616Y-127239131D01*
X145008223Y-127270130D01*
X145060508Y-127320703D01*
X145082970Y-127358169D01*
X145103685Y-127409700D01*
X145108614Y-127452652D01*
X145789409Y-127452652D01*
X145831976Y-127396022D01*
X145877541Y-127361870D01*
X145916025Y-127341926D01*
X145951317Y-127331721D01*
X145992294Y-127330025D01*
X146047833Y-127335608D01*
X146057503Y-127336932D01*
X146105391Y-127340021D01*
X146140667Y-127335305D01*
X146146913Y-127332708D01*
X146163167Y-127326323D01*
X146168601Y-127334915D01*
X146166599Y-127362908D01*
X146168221Y-127403360D01*
X146178654Y-127448393D01*
X146181963Y-127457436D01*
X146201161Y-127531493D01*
X147358327Y-127531493D01*
X147358403Y-127314902D01*
X147358644Y-127147725D01*
X147359229Y-126993056D01*
X147360082Y-126861108D01*
X146775855Y-126861108D01*
X146770562Y-126898400D01*
X146742840Y-126966388D01*
X146698781Y-127016932D01*
X146637256Y-127050712D01*
X146557136Y-127068410D01*
X146483328Y-127071526D01*
X146372952Y-127069850D01*
X146377958Y-127035329D01*
X146375901Y-127004704D01*
X146365315Y-126962237D01*
X146354035Y-126931012D01*
X146338017Y-126889020D01*
X146332012Y-126859103D01*
X146334915Y-126830497D01*
X146341270Y-126806782D01*
X146365487Y-126756350D01*
X146388512Y-126727460D01*
X145677456Y-126727460D01*
X145674008Y-126794507D01*
X145645312Y-126862659D01*
X145638798Y-126872939D01*
X145600607Y-126914095D01*
X145549186Y-126948269D01*
X145494314Y-126969894D01*
X145460285Y-126974589D01*
X145426031Y-126968994D01*
X145383693Y-126954896D01*
X145367372Y-126947661D01*
X145310083Y-126907587D01*
X145268270Y-126853273D01*
X145244558Y-126790415D01*
X145241576Y-126724709D01*
X145249110Y-126691244D01*
X145273095Y-126647086D01*
X145285623Y-126632871D01*
X144606647Y-126632871D01*
X144603280Y-126700556D01*
X144575325Y-126767185D01*
X144568643Y-126777400D01*
X144557696Y-126805805D01*
X144551755Y-126845543D01*
X144551400Y-126857068D01*
X144550711Y-126890677D01*
X144546120Y-126903446D01*
X144533846Y-126899934D01*
X144522044Y-126892450D01*
X144483662Y-126879144D01*
X144424998Y-126875053D01*
X144417269Y-126875197D01*
X144346844Y-126870327D01*
X144290210Y-126849153D01*
X144239201Y-126808142D01*
X144223779Y-126791445D01*
X144184058Y-126729418D01*
X144168283Y-126663801D01*
X144176039Y-126598192D01*
X144206908Y-126536188D01*
X144259578Y-126482078D01*
X144323213Y-126446700D01*
X144389511Y-126435868D01*
X144455636Y-126449334D01*
X144518751Y-126486847D01*
X144540901Y-126506900D01*
X144585746Y-126567271D01*
X144606647Y-126632871D01*
X145285623Y-126632871D01*
X145312431Y-126602455D01*
X145359368Y-126564351D01*
X145406156Y-126539776D01*
X145421435Y-126535596D01*
X145488847Y-126535435D01*
X145554099Y-126559285D01*
X145609129Y-126601461D01*
X145655786Y-126662714D01*
X145677456Y-126727460D01*
X146388512Y-126727460D01*
X146404480Y-126707425D01*
X146451361Y-126666764D01*
X146499241Y-126641124D01*
X146514306Y-126637070D01*
X146579426Y-126636389D01*
X146641168Y-126656254D01*
X146695608Y-126692662D01*
X146738819Y-126741608D01*
X146766876Y-126799091D01*
X146775855Y-126861108D01*
X147360082Y-126861108D01*
X147360138Y-126852513D01*
X147361347Y-126727712D01*
X147362834Y-126620272D01*
X147364577Y-126531809D01*
X147366554Y-126463941D01*
X147368743Y-126418285D01*
X147371047Y-126396750D01*
X147382212Y-126339766D01*
X147393165Y-126264355D01*
X147403216Y-126177484D01*
X147411676Y-126086121D01*
X147417853Y-125997234D01*
X147421059Y-125917790D01*
X147421353Y-125888827D01*
X147411302Y-125682997D01*
X147382061Y-125492376D01*
X147360571Y-125414361D01*
X146683966Y-125414361D01*
X146669258Y-125488277D01*
X146637074Y-125549734D01*
X146579252Y-125616893D01*
X146512289Y-125662851D01*
X146439145Y-125686457D01*
X146362778Y-125686565D01*
X146315555Y-125674486D01*
X146244719Y-125637608D01*
X146186134Y-125584445D01*
X146143184Y-125519880D01*
X146119251Y-125448799D01*
X146116384Y-125386955D01*
X146135861Y-125310450D01*
X146176761Y-125239927D01*
X146235106Y-125181574D01*
X146258890Y-125165185D01*
X146332131Y-125133741D01*
X146408627Y-125125352D01*
X146483900Y-125138881D01*
X146553470Y-125173190D01*
X146612857Y-125227142D01*
X146637472Y-125261353D01*
X146673371Y-125338819D01*
X146683966Y-125414361D01*
X147360571Y-125414361D01*
X147333861Y-125317404D01*
X147266931Y-125158522D01*
X147181503Y-125016171D01*
X147170432Y-125002784D01*
X145566243Y-125002784D01*
X145565796Y-125066759D01*
X145544424Y-125128085D01*
X145503093Y-125182951D01*
X145442774Y-125227544D01*
X145408650Y-125243664D01*
X145353221Y-125253354D01*
X145291703Y-125243337D01*
X145240603Y-125220038D01*
X145187270Y-125175225D01*
X145149859Y-125119002D01*
X145130960Y-125057268D01*
X145133159Y-124995918D01*
X145136674Y-124983234D01*
X145170416Y-124913860D01*
X145218163Y-124862244D01*
X145275875Y-124829507D01*
X145339514Y-124816772D01*
X145405042Y-124825162D01*
X145468421Y-124855798D01*
X145500486Y-124882138D01*
X145544796Y-124939973D01*
X145566243Y-125002784D01*
X147170432Y-125002784D01*
X147077807Y-124890793D01*
X146956075Y-124782827D01*
X146816536Y-124692716D01*
X146787319Y-124677286D01*
X146749758Y-124660169D01*
X146691392Y-124636202D01*
X146615516Y-124606560D01*
X146525426Y-124572414D01*
X146424416Y-124534940D01*
X146315782Y-124495310D01*
X146202819Y-124454699D01*
X146088821Y-124414279D01*
X145977083Y-124375224D01*
X145870901Y-124338708D01*
X145773569Y-124305904D01*
X145688383Y-124277986D01*
X145618638Y-124256127D01*
X145567628Y-124241501D01*
X145554700Y-124238283D01*
X145482819Y-124226637D01*
X145394007Y-124219919D01*
X145296236Y-124218042D01*
X145197476Y-124220921D01*
X145197476Y-124220921D01*
G37*
X145197476Y-124220921D02*
X145105698Y-124228468D01*
X145028871Y-124240599D01*
X145013807Y-124244116D01*
X144917216Y-124275087D01*
X144811300Y-124320133D01*
X144704430Y-124375111D01*
X144604982Y-124435877D01*
X144555956Y-124470661D01*
X144434909Y-124572671D01*
X144313468Y-124695196D01*
X144195534Y-124833719D01*
X144085010Y-124983720D01*
X144004299Y-125109366D01*
X143962679Y-125189089D01*
X143942093Y-125254872D01*
X143942503Y-125306953D01*
X143963867Y-125345568D01*
X143964124Y-125345825D01*
X143978961Y-125352923D01*
X144016226Y-125367682D01*
X144074316Y-125389533D01*
X144151628Y-125417905D01*
X144246562Y-125452225D01*
X144357516Y-125491923D01*
X144482887Y-125536429D01*
X144621074Y-125585171D01*
X144770474Y-125637578D01*
X144929487Y-125693080D01*
X145096509Y-125751105D01*
X145255666Y-125806157D01*
X145427629Y-125865607D01*
X145592385Y-125922747D01*
X145748401Y-125977034D01*
X145894142Y-126027928D01*
X146028075Y-126074885D01*
X146148665Y-126117364D01*
X146254379Y-126154824D01*
X146343684Y-126186722D01*
X146415044Y-126212518D01*
X146466927Y-126231669D01*
X146497798Y-126243633D01*
X146506235Y-126247856D01*
X146491239Y-126247246D01*
X146452659Y-126244499D01*
X146392209Y-126239761D01*
X146311604Y-126233179D01*
X146212556Y-126224899D01*
X146096779Y-126215066D01*
X145965988Y-126203827D01*
X145821895Y-126191328D01*
X145666215Y-126177716D01*
X145500662Y-126163136D01*
X145326948Y-126147735D01*
X145203990Y-126136774D01*
X145024796Y-126120811D01*
X144851986Y-126105508D01*
X144687334Y-126091017D01*
X144532618Y-126077489D01*
X144389613Y-126065077D01*
X144260094Y-126053934D01*
X144145839Y-126044212D01*
X144048623Y-126036062D01*
X143970222Y-126029638D01*
X143912412Y-126025091D01*
X143876968Y-126022575D01*
X143866764Y-126022100D01*
X143813517Y-126027109D01*
X143778655Y-126044134D01*
X143756815Y-126076174D01*
X143753204Y-126085597D01*
X143748647Y-126104557D01*
X143740014Y-126146311D01*
X143727720Y-126208657D01*
X143712184Y-126289388D01*
X143693821Y-126386302D01*
X143673050Y-126497193D01*
X143650285Y-126619857D01*
X143625945Y-126752089D01*
X143600446Y-126891686D01*
X143591676Y-126939940D01*
X143443616Y-127755650D01*
X143267258Y-128310242D01*
X143230946Y-128425428D01*
X143197154Y-128534539D01*
X143166663Y-128634914D01*
X143140255Y-128723892D01*
X143118710Y-128798813D01*
X143102808Y-128857017D01*
X143093331Y-128895843D01*
X143090900Y-128911152D01*
X143094718Y-128950033D01*
X143103996Y-128981850D01*
X143104859Y-128983551D01*
X143121849Y-128998863D01*
X143159269Y-129022301D01*
X143214045Y-129052361D01*
X143283105Y-129087537D01*
X143363374Y-129126323D01*
X143451781Y-129167214D01*
X143545251Y-129208704D01*
X143640712Y-129249289D01*
X143681450Y-129266023D01*
X143746356Y-129292402D01*
X143805116Y-129316315D01*
X143852653Y-129335693D01*
X143883892Y-129348469D01*
X143891000Y-129351397D01*
X143910172Y-129360241D01*
X143911009Y-129366793D01*
X143891183Y-129375354D01*
X143875005Y-129380972D01*
X143794213Y-129421515D01*
X143728713Y-129481224D01*
X143680025Y-129557922D01*
X143649669Y-129649430D01*
X143640417Y-129716877D01*
X143643830Y-129843554D01*
X143671709Y-129963608D01*
X143723884Y-130076610D01*
X143800188Y-130182129D01*
X143839128Y-130223851D01*
X143939650Y-130309563D01*
X144048840Y-130372972D01*
X144171024Y-130416373D01*
X144224962Y-130428737D01*
X144325096Y-130445962D01*
X144448456Y-130462743D01*
X144592868Y-130478875D01*
X144756160Y-130494150D01*
X144936159Y-130508361D01*
X145130691Y-130521301D01*
X145294350Y-130530548D01*
X145354969Y-130532925D01*
X145438069Y-130534994D01*
X145540734Y-130536756D01*
X145660046Y-130538212D01*
X145793088Y-130539364D01*
X145936945Y-130540214D01*
X146088698Y-130540762D01*
X146245432Y-130541010D01*
X146404229Y-130540959D01*
X146562173Y-130540611D01*
X146716346Y-130539968D01*
X146863832Y-130539030D01*
X147001714Y-130537799D01*
X147127075Y-130536276D01*
X147236998Y-130534463D01*
X147328566Y-130532362D01*
X147398863Y-130529972D01*
X147408454Y-130529539D01*
X147490669Y-130525144D01*
X147575154Y-130519758D01*
X147653782Y-130513953D01*
X147718425Y-130508306D01*
X147738654Y-130506208D01*
X147829468Y-130494484D01*
X147897812Y-130481100D01*
X147946612Y-130464433D01*
X147978798Y-130442863D01*
X147997299Y-130414768D01*
X148005044Y-130378526D01*
X148005800Y-130358315D01*
X148001652Y-130305446D01*
X147985948Y-130270305D01*
X147953801Y-130246114D01*
X147913507Y-130230266D01*
X147896974Y-130225563D01*
X147876873Y-130221533D01*
X147851111Y-130218108D01*
X147817594Y-130215215D01*
X147774228Y-130212784D01*
X147718920Y-130210745D01*
X147649576Y-130209026D01*
X147564102Y-130207556D01*
X147460404Y-130206266D01*
X147336390Y-130205084D01*
X147189965Y-130203939D01*
X147119975Y-130203443D01*
X146392900Y-130198408D01*
X146392900Y-130161929D01*
X146384059Y-130084748D01*
X146360261Y-130004819D01*
X146328616Y-129940858D01*
X146308059Y-129907801D01*
X146294506Y-129884774D01*
X146291300Y-129878158D01*
X146303484Y-129877387D01*
X146337979Y-129877051D01*
X146391701Y-129877133D01*
X146461563Y-129877615D01*
X146544483Y-129878481D01*
X146637374Y-129879714D01*
X146676939Y-129880310D01*
X146786009Y-129881964D01*
X146872531Y-129883048D01*
X146939356Y-129883420D01*
X146989332Y-129882934D01*
X147025309Y-129881448D01*
X147050136Y-129878819D01*
X147066662Y-129874902D01*
X147077737Y-129869555D01*
X147086210Y-129862633D01*
X147089366Y-129859534D01*
X147111407Y-129829859D01*
X147118642Y-129812587D01*
X145703733Y-129812587D01*
X145700373Y-129824043D01*
X145688414Y-129850362D01*
X145681508Y-129864226D01*
X145665266Y-129914345D01*
X145657078Y-129979181D01*
X145657168Y-130049289D01*
X145665760Y-130115224D01*
X145674787Y-130148003D01*
X145693274Y-130200400D01*
X145436662Y-130200364D01*
X145336320Y-130199866D01*
X145223915Y-130198515D01*
X145109689Y-130196482D01*
X145003882Y-130193939D01*
X144943797Y-130192071D01*
X144707543Y-130183814D01*
X144713626Y-130067524D01*
X144711708Y-129955578D01*
X144692244Y-129853811D01*
X144653344Y-129756322D01*
X144593115Y-129657213D01*
X144573347Y-129629939D01*
X144550504Y-129597064D01*
X144538485Y-129574938D01*
X144539640Y-129567968D01*
X144540439Y-129568223D01*
X144558204Y-129573490D01*
X144596347Y-129583822D01*
X144650609Y-129598096D01*
X144716731Y-129615191D01*
X144786937Y-129633097D01*
X144988153Y-129681135D01*
X145196294Y-129725392D01*
X145400554Y-129763678D01*
X145554700Y-129788654D01*
X145612285Y-129797366D01*
X145659703Y-129804808D01*
X145691887Y-129810167D01*
X145703733Y-129812587D01*
X147118642Y-129812587D01*
X147122303Y-129803848D01*
X147126374Y-129779668D01*
X147133037Y-129734076D01*
X147141881Y-129670291D01*
X147152498Y-129591530D01*
X147164476Y-129501010D01*
X147177406Y-129401950D01*
X147190877Y-129297566D01*
X147204480Y-129191077D01*
X147217805Y-129085701D01*
X147230441Y-128984654D01*
X147231348Y-128977302D01*
X146488593Y-128977302D01*
X146471822Y-129038373D01*
X146435345Y-129095610D01*
X146381705Y-129144340D01*
X146348450Y-129164468D01*
X146292758Y-129182222D01*
X146233747Y-129177692D01*
X146180665Y-129157699D01*
X146121043Y-129117256D01*
X146077455Y-129063937D01*
X146052602Y-129002838D01*
X146049188Y-128939058D01*
X146053383Y-128917700D01*
X146080531Y-128856647D01*
X146124310Y-128803834D01*
X146178881Y-128764146D01*
X146238405Y-128742474D01*
X146265802Y-128739900D01*
X146328901Y-128751822D01*
X146388482Y-128784630D01*
X146439099Y-128833880D01*
X146475302Y-128895130D01*
X146483113Y-128917071D01*
X146488593Y-128977302D01*
X147231348Y-128977302D01*
X147241979Y-128891156D01*
X147252007Y-128808422D01*
X147260118Y-128739672D01*
X147265020Y-128695960D01*
X145410756Y-128695960D01*
X145407308Y-128763007D01*
X145378612Y-128831159D01*
X145372098Y-128841439D01*
X145333907Y-128882595D01*
X145282486Y-128916769D01*
X145227614Y-128938394D01*
X145193585Y-128943089D01*
X145158853Y-128937478D01*
X145116736Y-128923415D01*
X145102928Y-128917253D01*
X145060936Y-128889405D01*
X145023185Y-128852458D01*
X145015854Y-128842803D01*
X144981823Y-128775825D01*
X144973097Y-128710145D01*
X144989588Y-128646429D01*
X145031209Y-128585342D01*
X145052559Y-128563909D01*
X145115153Y-128520166D01*
X145179569Y-128501528D01*
X145244021Y-128507957D01*
X145306722Y-128539417D01*
X145342429Y-128569961D01*
X145389086Y-128631214D01*
X145410756Y-128695960D01*
X147265020Y-128695960D01*
X147265899Y-128688123D01*
X147268942Y-128656992D01*
X147269310Y-128650252D01*
X147262825Y-128604561D01*
X147240974Y-128573115D01*
X147199768Y-128551485D01*
X147173225Y-128543616D01*
X147151570Y-128538519D01*
X147107015Y-128528400D01*
X147041471Y-128513682D01*
X146956846Y-128494789D01*
X146855050Y-128472145D01*
X146823204Y-128465079D01*
X144363893Y-128465079D01*
X144358619Y-128526471D01*
X144333808Y-128586242D01*
X144291633Y-128639263D01*
X144234270Y-128680403D01*
X144230910Y-128682123D01*
X144169115Y-128705335D01*
X144113619Y-128707010D01*
X144057140Y-128686713D01*
X144029090Y-128670050D01*
X143972910Y-128620387D01*
X143938080Y-128561546D01*
X143924420Y-128497828D01*
X143931750Y-128433532D01*
X143959889Y-128372956D01*
X144008657Y-128320402D01*
X144044764Y-128296159D01*
X144110417Y-128272467D01*
X144176927Y-128272323D01*
X144240447Y-128294315D01*
X144297125Y-128337031D01*
X144343114Y-128399060D01*
X144347454Y-128407194D01*
X144363893Y-128465079D01*
X146823204Y-128465079D01*
X146737994Y-128446173D01*
X146607586Y-128417298D01*
X146465737Y-128385943D01*
X146314356Y-128352531D01*
X146155352Y-128317488D01*
X146019867Y-128287666D01*
X145858371Y-128252041D01*
X145704621Y-128217934D01*
X145560340Y-128185739D01*
X145427248Y-128155847D01*
X145307066Y-128128653D01*
X145201514Y-128104549D01*
X145112313Y-128083927D01*
X145041185Y-128067180D01*
X144989849Y-128054701D01*
X144960026Y-128046883D01*
X144953067Y-128044146D01*
X144968973Y-128044724D01*
X145008344Y-128047437D01*
X145069347Y-128052130D01*
X145150150Y-128058646D01*
X145248922Y-128066833D01*
X145363829Y-128076536D01*
X145493041Y-128087598D01*
X145634725Y-128099867D01*
X145787048Y-128113187D01*
X145948179Y-128127403D01*
X146116286Y-128142361D01*
X146118637Y-128142571D01*
X146286668Y-128157569D01*
X146447630Y-128171902D01*
X146599706Y-128185412D01*
X146741074Y-128197937D01*
X146869917Y-128209317D01*
X146984413Y-128219393D01*
X147082745Y-128228004D01*
X147163092Y-128234990D01*
X147223635Y-128240192D01*
X147262555Y-128243448D01*
X147278032Y-128244599D01*
X147278089Y-128244600D01*
X147298490Y-128236219D01*
X147324499Y-128215805D01*
X147326928Y-128213427D01*
X147358100Y-128182254D01*
X147358150Y-128038363D01*
X144901492Y-128038363D01*
X144889009Y-128040397D01*
X144872537Y-128038062D01*
X144872340Y-128033727D01*
X144889338Y-128030695D01*
X144896682Y-128032724D01*
X144901492Y-128038363D01*
X147358150Y-128038363D01*
X147358327Y-127531493D01*
X146201161Y-127531493D01*
X146196099Y-127598545D01*
X146166473Y-127660038D01*
X146130509Y-127700974D01*
X146068441Y-127746549D01*
X146004936Y-127766769D01*
X145939908Y-127761641D01*
X145873270Y-127731174D01*
X145865850Y-127726284D01*
X145816007Y-127680787D01*
X145780761Y-127624875D01*
X145763674Y-127565499D01*
X145764096Y-127527636D01*
X145787259Y-127455513D01*
X145789409Y-127452652D01*
X145108614Y-127452652D01*
X145098272Y-127497919D01*
X145090544Y-127517759D01*
X145051828Y-127583666D01*
X144996699Y-127631629D01*
X144964150Y-127649096D01*
X144915838Y-127667445D01*
X144875810Y-127670400D01*
X144832140Y-127657956D01*
X144811750Y-127649022D01*
X144743717Y-127606177D01*
X144696754Y-127551958D01*
X144671910Y-127489198D01*
X144670233Y-127420729D01*
X144692772Y-127349385D01*
X144697450Y-127340205D01*
X144716007Y-127297919D01*
X144727442Y-127257551D01*
X144729200Y-127241434D01*
X144731079Y-127215315D01*
X144739863Y-127209509D01*
X144753766Y-127215453D01*
X144779140Y-127222416D01*
X144820154Y-127227182D01*
X144859229Y-127228600D01*
X144940616Y-127239131D01*
X145008223Y-127270130D01*
X145060508Y-127320703D01*
X145082970Y-127358169D01*
X145103685Y-127409700D01*
X145108614Y-127452652D01*
X145789409Y-127452652D01*
X145831976Y-127396022D01*
X145877541Y-127361870D01*
X145916025Y-127341926D01*
X145951317Y-127331721D01*
X145992294Y-127330025D01*
X146047833Y-127335608D01*
X146057503Y-127336932D01*
X146105391Y-127340021D01*
X146140667Y-127335305D01*
X146146913Y-127332708D01*
X146163167Y-127326323D01*
X146168601Y-127334915D01*
X146166599Y-127362908D01*
X146168221Y-127403360D01*
X146178654Y-127448393D01*
X146181963Y-127457436D01*
X146201161Y-127531493D01*
X147358327Y-127531493D01*
X147358403Y-127314902D01*
X147358644Y-127147725D01*
X147359229Y-126993056D01*
X147360082Y-126861108D01*
X146775855Y-126861108D01*
X146770562Y-126898400D01*
X146742840Y-126966388D01*
X146698781Y-127016932D01*
X146637256Y-127050712D01*
X146557136Y-127068410D01*
X146483328Y-127071526D01*
X146372952Y-127069850D01*
X146377958Y-127035329D01*
X146375901Y-127004704D01*
X146365315Y-126962237D01*
X146354035Y-126931012D01*
X146338017Y-126889020D01*
X146332012Y-126859103D01*
X146334915Y-126830497D01*
X146341270Y-126806782D01*
X146365487Y-126756350D01*
X146388512Y-126727460D01*
X145677456Y-126727460D01*
X145674008Y-126794507D01*
X145645312Y-126862659D01*
X145638798Y-126872939D01*
X145600607Y-126914095D01*
X145549186Y-126948269D01*
X145494314Y-126969894D01*
X145460285Y-126974589D01*
X145426031Y-126968994D01*
X145383693Y-126954896D01*
X145367372Y-126947661D01*
X145310083Y-126907587D01*
X145268270Y-126853273D01*
X145244558Y-126790415D01*
X145241576Y-126724709D01*
X145249110Y-126691244D01*
X145273095Y-126647086D01*
X145285623Y-126632871D01*
X144606647Y-126632871D01*
X144603280Y-126700556D01*
X144575325Y-126767185D01*
X144568643Y-126777400D01*
X144557696Y-126805805D01*
X144551755Y-126845543D01*
X144551400Y-126857068D01*
X144550711Y-126890677D01*
X144546120Y-126903446D01*
X144533846Y-126899934D01*
X144522044Y-126892450D01*
X144483662Y-126879144D01*
X144424998Y-126875053D01*
X144417269Y-126875197D01*
X144346844Y-126870327D01*
X144290210Y-126849153D01*
X144239201Y-126808142D01*
X144223779Y-126791445D01*
X144184058Y-126729418D01*
X144168283Y-126663801D01*
X144176039Y-126598192D01*
X144206908Y-126536188D01*
X144259578Y-126482078D01*
X144323213Y-126446700D01*
X144389511Y-126435868D01*
X144455636Y-126449334D01*
X144518751Y-126486847D01*
X144540901Y-126506900D01*
X144585746Y-126567271D01*
X144606647Y-126632871D01*
X145285623Y-126632871D01*
X145312431Y-126602455D01*
X145359368Y-126564351D01*
X145406156Y-126539776D01*
X145421435Y-126535596D01*
X145488847Y-126535435D01*
X145554099Y-126559285D01*
X145609129Y-126601461D01*
X145655786Y-126662714D01*
X145677456Y-126727460D01*
X146388512Y-126727460D01*
X146404480Y-126707425D01*
X146451361Y-126666764D01*
X146499241Y-126641124D01*
X146514306Y-126637070D01*
X146579426Y-126636389D01*
X146641168Y-126656254D01*
X146695608Y-126692662D01*
X146738819Y-126741608D01*
X146766876Y-126799091D01*
X146775855Y-126861108D01*
X147360082Y-126861108D01*
X147360138Y-126852513D01*
X147361347Y-126727712D01*
X147362834Y-126620272D01*
X147364577Y-126531809D01*
X147366554Y-126463941D01*
X147368743Y-126418285D01*
X147371047Y-126396750D01*
X147382212Y-126339766D01*
X147393165Y-126264355D01*
X147403216Y-126177484D01*
X147411676Y-126086121D01*
X147417853Y-125997234D01*
X147421059Y-125917790D01*
X147421353Y-125888827D01*
X147411302Y-125682997D01*
X147382061Y-125492376D01*
X147360571Y-125414361D01*
X146683966Y-125414361D01*
X146669258Y-125488277D01*
X146637074Y-125549734D01*
X146579252Y-125616893D01*
X146512289Y-125662851D01*
X146439145Y-125686457D01*
X146362778Y-125686565D01*
X146315555Y-125674486D01*
X146244719Y-125637608D01*
X146186134Y-125584445D01*
X146143184Y-125519880D01*
X146119251Y-125448799D01*
X146116384Y-125386955D01*
X146135861Y-125310450D01*
X146176761Y-125239927D01*
X146235106Y-125181574D01*
X146258890Y-125165185D01*
X146332131Y-125133741D01*
X146408627Y-125125352D01*
X146483900Y-125138881D01*
X146553470Y-125173190D01*
X146612857Y-125227142D01*
X146637472Y-125261353D01*
X146673371Y-125338819D01*
X146683966Y-125414361D01*
X147360571Y-125414361D01*
X147333861Y-125317404D01*
X147266931Y-125158522D01*
X147181503Y-125016171D01*
X147170432Y-125002784D01*
X145566243Y-125002784D01*
X145565796Y-125066759D01*
X145544424Y-125128085D01*
X145503093Y-125182951D01*
X145442774Y-125227544D01*
X145408650Y-125243664D01*
X145353221Y-125253354D01*
X145291703Y-125243337D01*
X145240603Y-125220038D01*
X145187270Y-125175225D01*
X145149859Y-125119002D01*
X145130960Y-125057268D01*
X145133159Y-124995918D01*
X145136674Y-124983234D01*
X145170416Y-124913860D01*
X145218163Y-124862244D01*
X145275875Y-124829507D01*
X145339514Y-124816772D01*
X145405042Y-124825162D01*
X145468421Y-124855798D01*
X145500486Y-124882138D01*
X145544796Y-124939973D01*
X145566243Y-125002784D01*
X147170432Y-125002784D01*
X147077807Y-124890793D01*
X146956075Y-124782827D01*
X146816536Y-124692716D01*
X146787319Y-124677286D01*
X146749758Y-124660169D01*
X146691392Y-124636202D01*
X146615516Y-124606560D01*
X146525426Y-124572414D01*
X146424416Y-124534940D01*
X146315782Y-124495310D01*
X146202819Y-124454699D01*
X146088821Y-124414279D01*
X145977083Y-124375224D01*
X145870901Y-124338708D01*
X145773569Y-124305904D01*
X145688383Y-124277986D01*
X145618638Y-124256127D01*
X145567628Y-124241501D01*
X145554700Y-124238283D01*
X145482819Y-124226637D01*
X145394007Y-124219919D01*
X145296236Y-124218042D01*
X145197476Y-124220921D01*
D12*
X172000000Y-145000000D03*
X118000000Y-132500000D03*
X172000000Y-132500000D03*
D13*
X111506000Y-98552000D03*
D14*
X114046000Y-98552000D03*
D13*
X114554000Y-109474000D03*
D14*
X117094000Y-109474000D03*
D13*
X117602000Y-120650000D03*
D14*
X120142000Y-120650000D03*
D13*
X112776000Y-103632000D03*
D14*
X115316000Y-103632000D03*
D13*
X116078000Y-115570000D03*
D14*
X118618000Y-115570000D03*
D13*
X123190000Y-88900000D03*
D14*
X125730000Y-88900000D03*
D13*
X125730000Y-99568000D03*
D14*
X128270000Y-99568000D03*
D13*
X129032000Y-113538000D03*
D14*
X131572000Y-113538000D03*
D13*
X123952000Y-92964000D03*
D14*
X126492000Y-92964000D03*
D13*
X127508000Y-105918000D03*
D14*
X130048000Y-105918000D03*
D13*
X138938000Y-67564000D03*
D14*
X141478000Y-67564000D03*
D13*
X138684000Y-79248000D03*
D14*
X141224000Y-79248000D03*
D13*
X138176000Y-91186000D03*
D14*
X140716000Y-91186000D03*
D13*
X139192000Y-72644000D03*
D14*
X141732000Y-72644000D03*
D13*
X138430000Y-84836000D03*
D14*
X140970000Y-84836000D03*
D13*
X155702000Y-73406000D03*
D14*
X158242000Y-73406000D03*
D13*
X153162000Y-86360000D03*
D14*
X155702000Y-86360000D03*
D13*
X150622000Y-96774000D03*
D14*
X153162000Y-96774000D03*
D13*
X154432000Y-79756000D03*
D14*
X156972000Y-79756000D03*
D13*
X152400000Y-91948000D03*
D14*
X154940000Y-91948000D03*
D15*
X105380000Y-133000000D03*
D16*
X113000000Y-133000000D03*
D17*
X181000000Y-126550000D03*
X183500000Y-126550000D03*
X178500000Y-126550000D03*
X178500000Y-129850000D03*
X181000000Y-129850000D03*
X183500000Y-129850000D03*
D18*
X178300000Y-143620000D03*
D16*
X196080000Y-136000000D03*
X180840000Y-143620000D03*
X193540000Y-136000000D03*
X183380000Y-143620000D03*
X191000000Y-136000000D03*
X185920000Y-143620000D03*
X188460000Y-136000000D03*
X188460000Y-143620000D03*
X185920000Y-136000000D03*
X191000000Y-143620000D03*
X183380000Y-136000000D03*
X193540000Y-143620000D03*
X180840000Y-136000000D03*
X196080000Y-143620000D03*
X178300000Y-136000000D03*
D19*
X189000000Y-129000000D03*
D20*
X189000000Y-131540000D03*
D15*
X113750000Y-129500000D03*
X113750000Y-127000000D03*
D12*
X118000000Y-145000000D03*
D19*
X102460000Y-140000000D03*
D20*
X102460000Y-137460000D03*
X105000000Y-140000000D03*
X105000000Y-137460000D03*
X107540000Y-140000000D03*
X107540000Y-137460000D03*
X110080000Y-140000000D03*
X110080000Y-137460000D03*
X112620000Y-140000000D03*
X112620000Y-137460000D03*
M02*
