G04 #@! TF.FileFunction,Legend,Bot*
%FSLAX46Y46*%
G04 Gerber Fmt 4.6, Leading zero omitted, Abs format (unit mm)*
G04 Created by KiCad (PCBNEW 4.0.6) date 11/09/17 18:30:30*
%MOMM*%
%LPD*%
G01*
G04 APERTURE LIST*
%ADD10C,0.100000*%
%ADD11C,0.200000*%
%ADD12C,0.300000*%
%ADD13C,0.120000*%
%ADD14C,0.150000*%
G04 APERTURE END LIST*
D10*
D11*
X191000000Y-131500000D02*
X192500000Y-131500000D01*
X191750000Y-128250000D02*
X191750000Y-129750000D01*
X191000000Y-129000000D02*
X192500000Y-129000000D01*
D12*
X176035714Y-148678571D02*
X176035714Y-147178571D01*
X176035714Y-147892857D02*
X175178571Y-147892857D01*
X175178571Y-148678571D02*
X175178571Y-147178571D01*
X173821428Y-148678571D02*
X173821428Y-147892857D01*
X173892857Y-147750000D01*
X174035714Y-147678571D01*
X174321428Y-147678571D01*
X174464285Y-147750000D01*
X173821428Y-148607143D02*
X173964285Y-148678571D01*
X174321428Y-148678571D01*
X174464285Y-148607143D01*
X174535714Y-148464286D01*
X174535714Y-148321429D01*
X174464285Y-148178571D01*
X174321428Y-148107143D01*
X173964285Y-148107143D01*
X173821428Y-148035714D01*
X173107142Y-147678571D02*
X173107142Y-149178571D01*
X173107142Y-147750000D02*
X172964285Y-147678571D01*
X172678571Y-147678571D01*
X172535714Y-147750000D01*
X172464285Y-147821429D01*
X172392856Y-147964286D01*
X172392856Y-148392857D01*
X172464285Y-148535714D01*
X172535714Y-148607143D01*
X172678571Y-148678571D01*
X172964285Y-148678571D01*
X173107142Y-148607143D01*
X171749999Y-147678571D02*
X171749999Y-149178571D01*
X171749999Y-147750000D02*
X171607142Y-147678571D01*
X171321428Y-147678571D01*
X171178571Y-147750000D01*
X171107142Y-147821429D01*
X171035713Y-147964286D01*
X171035713Y-148392857D01*
X171107142Y-148535714D01*
X171178571Y-148607143D01*
X171321428Y-148678571D01*
X171607142Y-148678571D01*
X171749999Y-148607143D01*
X170535713Y-147678571D02*
X170178570Y-148678571D01*
X169821428Y-147678571D02*
X170178570Y-148678571D01*
X170321428Y-149035714D01*
X170392856Y-149107143D01*
X170535713Y-149178571D01*
X168321428Y-147178571D02*
X167464285Y-147178571D01*
X167892856Y-148678571D02*
X167892856Y-147178571D01*
X166964285Y-148678571D02*
X166964285Y-147178571D01*
X166321428Y-148678571D02*
X166321428Y-147892857D01*
X166392857Y-147750000D01*
X166535714Y-147678571D01*
X166749999Y-147678571D01*
X166892857Y-147750000D01*
X166964285Y-147821429D01*
X164964285Y-148678571D02*
X164964285Y-147892857D01*
X165035714Y-147750000D01*
X165178571Y-147678571D01*
X165464285Y-147678571D01*
X165607142Y-147750000D01*
X164964285Y-148607143D02*
X165107142Y-148678571D01*
X165464285Y-148678571D01*
X165607142Y-148607143D01*
X165678571Y-148464286D01*
X165678571Y-148321429D01*
X165607142Y-148178571D01*
X165464285Y-148107143D01*
X165107142Y-148107143D01*
X164964285Y-148035714D01*
X164249999Y-147678571D02*
X164249999Y-148678571D01*
X164249999Y-147821429D02*
X164178571Y-147750000D01*
X164035713Y-147678571D01*
X163821428Y-147678571D01*
X163678571Y-147750000D01*
X163607142Y-147892857D01*
X163607142Y-148678571D01*
X162892856Y-148678571D02*
X162892856Y-147178571D01*
X162749999Y-148107143D02*
X162321428Y-148678571D01*
X162321428Y-147678571D02*
X162892856Y-148250000D01*
X161749999Y-148607143D02*
X161607142Y-148678571D01*
X161321427Y-148678571D01*
X161178570Y-148607143D01*
X161107142Y-148464286D01*
X161107142Y-148392857D01*
X161178570Y-148250000D01*
X161321427Y-148178571D01*
X161535713Y-148178571D01*
X161678570Y-148107143D01*
X161749999Y-147964286D01*
X161749999Y-147892857D01*
X161678570Y-147750000D01*
X161535713Y-147678571D01*
X161321427Y-147678571D01*
X161178570Y-147750000D01*
X159821427Y-147678571D02*
X159821427Y-148892857D01*
X159892856Y-149035714D01*
X159964284Y-149107143D01*
X160107141Y-149178571D01*
X160321427Y-149178571D01*
X160464284Y-149107143D01*
X159821427Y-148607143D02*
X159964284Y-148678571D01*
X160249998Y-148678571D01*
X160392856Y-148607143D01*
X160464284Y-148535714D01*
X160535713Y-148392857D01*
X160535713Y-147964286D01*
X160464284Y-147821429D01*
X160392856Y-147750000D01*
X160249998Y-147678571D01*
X159964284Y-147678571D01*
X159821427Y-147750000D01*
X159107141Y-148678571D02*
X159107141Y-147678571D01*
X159107141Y-147178571D02*
X159178570Y-147250000D01*
X159107141Y-147321429D01*
X159035713Y-147250000D01*
X159107141Y-147178571D01*
X159107141Y-147321429D01*
X158535712Y-147678571D02*
X158178569Y-148678571D01*
X157821427Y-147678571D01*
X157249998Y-148678571D02*
X157249998Y-147678571D01*
X157249998Y-147178571D02*
X157321427Y-147250000D01*
X157249998Y-147321429D01*
X157178570Y-147250000D01*
X157249998Y-147178571D01*
X157249998Y-147321429D01*
X156535712Y-147678571D02*
X156535712Y-148678571D01*
X156535712Y-147821429D02*
X156464284Y-147750000D01*
X156321426Y-147678571D01*
X156107141Y-147678571D01*
X155964284Y-147750000D01*
X155892855Y-147892857D01*
X155892855Y-148678571D01*
X154535712Y-147678571D02*
X154535712Y-148892857D01*
X154607141Y-149035714D01*
X154678569Y-149107143D01*
X154821426Y-149178571D01*
X155035712Y-149178571D01*
X155178569Y-149107143D01*
X154535712Y-148607143D02*
X154678569Y-148678571D01*
X154964283Y-148678571D01*
X155107141Y-148607143D01*
X155178569Y-148535714D01*
X155249998Y-148392857D01*
X155249998Y-147964286D01*
X155178569Y-147821429D01*
X155107141Y-147750000D01*
X154964283Y-147678571D01*
X154678569Y-147678571D01*
X154535712Y-147750000D01*
X152892855Y-147678571D02*
X152321426Y-147678571D01*
X152678569Y-148678571D02*
X152678569Y-147392857D01*
X152607141Y-147250000D01*
X152464283Y-147178571D01*
X152321426Y-147178571D01*
X151821426Y-148678571D02*
X151821426Y-147678571D01*
X151821426Y-147964286D02*
X151749998Y-147821429D01*
X151678569Y-147750000D01*
X151535712Y-147678571D01*
X151392855Y-147678571D01*
X150678569Y-148678571D02*
X150821427Y-148607143D01*
X150892855Y-148535714D01*
X150964284Y-148392857D01*
X150964284Y-147964286D01*
X150892855Y-147821429D01*
X150821427Y-147750000D01*
X150678569Y-147678571D01*
X150464284Y-147678571D01*
X150321427Y-147750000D01*
X150249998Y-147821429D01*
X150178569Y-147964286D01*
X150178569Y-148392857D01*
X150249998Y-148535714D01*
X150321427Y-148607143D01*
X150464284Y-148678571D01*
X150678569Y-148678571D01*
X149535712Y-148678571D02*
X149535712Y-147678571D01*
X149535712Y-147821429D02*
X149464284Y-147750000D01*
X149321426Y-147678571D01*
X149107141Y-147678571D01*
X148964284Y-147750000D01*
X148892855Y-147892857D01*
X148892855Y-148678571D01*
X148892855Y-147892857D02*
X148821426Y-147750000D01*
X148678569Y-147678571D01*
X148464284Y-147678571D01*
X148321426Y-147750000D01*
X148249998Y-147892857D01*
X148249998Y-148678571D01*
X145749998Y-148678571D02*
X145749998Y-147892857D01*
X145821427Y-147750000D01*
X145964284Y-147678571D01*
X146249998Y-147678571D01*
X146392855Y-147750000D01*
X145749998Y-148607143D02*
X145892855Y-148678571D01*
X146249998Y-148678571D01*
X146392855Y-148607143D01*
X146464284Y-148464286D01*
X146464284Y-148321429D01*
X146392855Y-148178571D01*
X146249998Y-148107143D01*
X145892855Y-148107143D01*
X145749998Y-148035714D01*
X144821426Y-148678571D02*
X144964284Y-148607143D01*
X145035712Y-148464286D01*
X145035712Y-147178571D01*
X144035712Y-148678571D02*
X144178570Y-148607143D01*
X144249998Y-148464286D01*
X144249998Y-147178571D01*
X142107141Y-148678571D02*
X142249999Y-148607143D01*
X142321427Y-148535714D01*
X142392856Y-148392857D01*
X142392856Y-147964286D01*
X142321427Y-147821429D01*
X142249999Y-147750000D01*
X142107141Y-147678571D01*
X141892856Y-147678571D01*
X141749999Y-147750000D01*
X141678570Y-147821429D01*
X141607141Y-147964286D01*
X141607141Y-148392857D01*
X141678570Y-148535714D01*
X141749999Y-148607143D01*
X141892856Y-148678571D01*
X142107141Y-148678571D01*
X141178570Y-147678571D02*
X140607141Y-147678571D01*
X140964284Y-148678571D02*
X140964284Y-147392857D01*
X140892856Y-147250000D01*
X140749998Y-147178571D01*
X140607141Y-147178571D01*
X138321427Y-147678571D02*
X138321427Y-148678571D01*
X138964284Y-147678571D02*
X138964284Y-148464286D01*
X138892856Y-148607143D01*
X138749998Y-148678571D01*
X138535713Y-148678571D01*
X138392856Y-148607143D01*
X138321427Y-148535714D01*
X137678570Y-148607143D02*
X137535713Y-148678571D01*
X137249998Y-148678571D01*
X137107141Y-148607143D01*
X137035713Y-148464286D01*
X137035713Y-148392857D01*
X137107141Y-148250000D01*
X137249998Y-148178571D01*
X137464284Y-148178571D01*
X137607141Y-148107143D01*
X137678570Y-147964286D01*
X137678570Y-147892857D01*
X137607141Y-147750000D01*
X137464284Y-147678571D01*
X137249998Y-147678571D01*
X137107141Y-147750000D01*
X135249998Y-148678571D02*
X135249998Y-147178571D01*
X134607141Y-148678571D02*
X134607141Y-147892857D01*
X134678570Y-147750000D01*
X134821427Y-147678571D01*
X135035712Y-147678571D01*
X135178570Y-147750000D01*
X135249998Y-147821429D01*
X133321427Y-148607143D02*
X133464284Y-148678571D01*
X133749998Y-148678571D01*
X133892855Y-148607143D01*
X133964284Y-148464286D01*
X133964284Y-147892857D01*
X133892855Y-147750000D01*
X133749998Y-147678571D01*
X133464284Y-147678571D01*
X133321427Y-147750000D01*
X133249998Y-147892857D01*
X133249998Y-148035714D01*
X133964284Y-148178571D01*
X132607141Y-148678571D02*
X132607141Y-147678571D01*
X132607141Y-147964286D02*
X132535713Y-147821429D01*
X132464284Y-147750000D01*
X132321427Y-147678571D01*
X132178570Y-147678571D01*
X131107142Y-148607143D02*
X131249999Y-148678571D01*
X131535713Y-148678571D01*
X131678570Y-148607143D01*
X131749999Y-148464286D01*
X131749999Y-147892857D01*
X131678570Y-147750000D01*
X131535713Y-147678571D01*
X131249999Y-147678571D01*
X131107142Y-147750000D01*
X131035713Y-147892857D01*
X131035713Y-148035714D01*
X131749999Y-148178571D01*
X128607142Y-148678571D02*
X128607142Y-147892857D01*
X128678571Y-147750000D01*
X128821428Y-147678571D01*
X129107142Y-147678571D01*
X129249999Y-147750000D01*
X128607142Y-148607143D02*
X128749999Y-148678571D01*
X129107142Y-148678571D01*
X129249999Y-148607143D01*
X129321428Y-148464286D01*
X129321428Y-148321429D01*
X129249999Y-148178571D01*
X129107142Y-148107143D01*
X128749999Y-148107143D01*
X128607142Y-148035714D01*
X128107142Y-147678571D02*
X127535713Y-147678571D01*
X127892856Y-147178571D02*
X127892856Y-148464286D01*
X127821428Y-148607143D01*
X127678570Y-148678571D01*
X127535713Y-148678571D01*
X126107142Y-147178571D02*
X125249999Y-147178571D01*
X125678570Y-148678571D02*
X125678570Y-147178571D01*
X124749999Y-148678571D02*
X124749999Y-147178571D01*
X124107142Y-148678571D02*
X124107142Y-147892857D01*
X124178571Y-147750000D01*
X124321428Y-147678571D01*
X124535713Y-147678571D01*
X124678571Y-147750000D01*
X124749999Y-147821429D01*
X123392856Y-148678571D02*
X123392856Y-147678571D01*
X123392856Y-147178571D02*
X123464285Y-147250000D01*
X123392856Y-147321429D01*
X123321428Y-147250000D01*
X123392856Y-147178571D01*
X123392856Y-147321429D01*
X122678570Y-148678571D02*
X122678570Y-147678571D01*
X122678570Y-147821429D02*
X122607142Y-147750000D01*
X122464284Y-147678571D01*
X122249999Y-147678571D01*
X122107142Y-147750000D01*
X122035713Y-147892857D01*
X122035713Y-148678571D01*
X122035713Y-147892857D02*
X121964284Y-147750000D01*
X121821427Y-147678571D01*
X121607142Y-147678571D01*
X121464284Y-147750000D01*
X121392856Y-147892857D01*
X121392856Y-148678571D01*
X120678570Y-148678571D02*
X120678570Y-147178571D01*
X120678570Y-147750000D02*
X120535713Y-147678571D01*
X120249999Y-147678571D01*
X120107142Y-147750000D01*
X120035713Y-147821429D01*
X119964284Y-147964286D01*
X119964284Y-148392857D01*
X120035713Y-148535714D01*
X120107142Y-148607143D01*
X120249999Y-148678571D01*
X120535713Y-148678571D01*
X120678570Y-148607143D01*
X119107141Y-148678571D02*
X119249999Y-148607143D01*
X119321427Y-148464286D01*
X119321427Y-147178571D01*
X117964285Y-148607143D02*
X118107142Y-148678571D01*
X118392856Y-148678571D01*
X118535713Y-148607143D01*
X118607142Y-148464286D01*
X118607142Y-147892857D01*
X118535713Y-147750000D01*
X118392856Y-147678571D01*
X118107142Y-147678571D01*
X117964285Y-147750000D01*
X117892856Y-147892857D01*
X117892856Y-148035714D01*
X118607142Y-148178571D01*
D11*
X174000000Y-123000000D02*
X170000000Y-123000000D01*
X174000000Y-145000000D02*
X174000000Y-123000000D01*
X116000000Y-123000000D02*
X120000000Y-123000000D01*
X170000000Y-145000000D02*
X170000000Y-123000000D01*
X116000000Y-145000000D02*
X116000000Y-123000000D01*
X120000000Y-145000000D02*
X120000000Y-123000000D01*
D13*
X117036000Y-103631538D02*
G75*
G02X111486000Y-105176830I-2990000J-462D01*
G01*
X117036000Y-103632462D02*
G75*
G03X111486000Y-102087170I-2990000J462D01*
G01*
X116546000Y-103632000D02*
G75*
G03X116546000Y-103632000I-2500000J0D01*
G01*
X111486000Y-105177000D02*
X111486000Y-102087000D01*
X120338000Y-115569538D02*
G75*
G02X114788000Y-117114830I-2990000J-462D01*
G01*
X120338000Y-115570462D02*
G75*
G03X114788000Y-114025170I-2990000J462D01*
G01*
X119848000Y-115570000D02*
G75*
G03X119848000Y-115570000I-2500000J0D01*
G01*
X114788000Y-117115000D02*
X114788000Y-114025000D01*
X128212000Y-92963538D02*
G75*
G02X122662000Y-94508830I-2990000J-462D01*
G01*
X128212000Y-92964462D02*
G75*
G03X122662000Y-91419170I-2990000J462D01*
G01*
X127722000Y-92964000D02*
G75*
G03X127722000Y-92964000I-2500000J0D01*
G01*
X122662000Y-94509000D02*
X122662000Y-91419000D01*
X131768000Y-105917538D02*
G75*
G02X126218000Y-107462830I-2990000J-462D01*
G01*
X131768000Y-105918462D02*
G75*
G03X126218000Y-104373170I-2990000J462D01*
G01*
X131278000Y-105918000D02*
G75*
G03X131278000Y-105918000I-2500000J0D01*
G01*
X126218000Y-107463000D02*
X126218000Y-104373000D01*
X143452000Y-72643538D02*
G75*
G02X137902000Y-74188830I-2990000J-462D01*
G01*
X143452000Y-72644462D02*
G75*
G03X137902000Y-71099170I-2990000J462D01*
G01*
X142962000Y-72644000D02*
G75*
G03X142962000Y-72644000I-2500000J0D01*
G01*
X137902000Y-74189000D02*
X137902000Y-71099000D01*
X142690000Y-84835538D02*
G75*
G02X137140000Y-86380830I-2990000J-462D01*
G01*
X142690000Y-84836462D02*
G75*
G03X137140000Y-83291170I-2990000J462D01*
G01*
X142200000Y-84836000D02*
G75*
G03X142200000Y-84836000I-2500000J0D01*
G01*
X137140000Y-86381000D02*
X137140000Y-83291000D01*
X158692000Y-79755538D02*
G75*
G02X153142000Y-81300830I-2990000J-462D01*
G01*
X158692000Y-79756462D02*
G75*
G03X153142000Y-78211170I-2990000J462D01*
G01*
X158202000Y-79756000D02*
G75*
G03X158202000Y-79756000I-2500000J0D01*
G01*
X153142000Y-81301000D02*
X153142000Y-78211000D01*
X156660000Y-91947538D02*
G75*
G02X151110000Y-93492830I-2990000J-462D01*
G01*
X156660000Y-91948462D02*
G75*
G03X151110000Y-90403170I-2990000J462D01*
G01*
X156170000Y-91948000D02*
G75*
G03X156170000Y-91948000I-2500000J0D01*
G01*
X151110000Y-93493000D02*
X151110000Y-90403000D01*
D14*
X114784095Y-108044381D02*
X114784095Y-107044381D01*
X114546000Y-107044381D01*
X114403142Y-107092000D01*
X114307904Y-107187238D01*
X114260285Y-107282476D01*
X114212666Y-107472952D01*
X114212666Y-107615810D01*
X114260285Y-107806286D01*
X114307904Y-107901524D01*
X114403142Y-107996762D01*
X114546000Y-108044381D01*
X114784095Y-108044381D01*
X113355523Y-107377714D02*
X113355523Y-108044381D01*
X113593619Y-106996762D02*
X113831714Y-107711048D01*
X113212666Y-107711048D01*
X118086095Y-119982381D02*
X118086095Y-118982381D01*
X117848000Y-118982381D01*
X117705142Y-119030000D01*
X117609904Y-119125238D01*
X117562285Y-119220476D01*
X117514666Y-119410952D01*
X117514666Y-119553810D01*
X117562285Y-119744286D01*
X117609904Y-119839524D01*
X117705142Y-119934762D01*
X117848000Y-119982381D01*
X118086095Y-119982381D01*
X116609904Y-118982381D02*
X117086095Y-118982381D01*
X117133714Y-119458571D01*
X117086095Y-119410952D01*
X116990857Y-119363333D01*
X116752761Y-119363333D01*
X116657523Y-119410952D01*
X116609904Y-119458571D01*
X116562285Y-119553810D01*
X116562285Y-119791905D01*
X116609904Y-119887143D01*
X116657523Y-119934762D01*
X116752761Y-119982381D01*
X116990857Y-119982381D01*
X117086095Y-119934762D01*
X117133714Y-119887143D01*
X125960095Y-97376381D02*
X125960095Y-96376381D01*
X125722000Y-96376381D01*
X125579142Y-96424000D01*
X125483904Y-96519238D01*
X125436285Y-96614476D01*
X125388666Y-96804952D01*
X125388666Y-96947810D01*
X125436285Y-97138286D01*
X125483904Y-97233524D01*
X125579142Y-97328762D01*
X125722000Y-97376381D01*
X125960095Y-97376381D01*
X124912476Y-97376381D02*
X124722000Y-97376381D01*
X124626761Y-97328762D01*
X124579142Y-97281143D01*
X124483904Y-97138286D01*
X124436285Y-96947810D01*
X124436285Y-96566857D01*
X124483904Y-96471619D01*
X124531523Y-96424000D01*
X124626761Y-96376381D01*
X124817238Y-96376381D01*
X124912476Y-96424000D01*
X124960095Y-96471619D01*
X125007714Y-96566857D01*
X125007714Y-96804952D01*
X124960095Y-96900190D01*
X124912476Y-96947810D01*
X124817238Y-96995429D01*
X124626761Y-96995429D01*
X124531523Y-96947810D01*
X124483904Y-96900190D01*
X124436285Y-96804952D01*
X129992286Y-110330381D02*
X129992286Y-109330381D01*
X129754191Y-109330381D01*
X129611333Y-109378000D01*
X129516095Y-109473238D01*
X129468476Y-109568476D01*
X129420857Y-109758952D01*
X129420857Y-109901810D01*
X129468476Y-110092286D01*
X129516095Y-110187524D01*
X129611333Y-110282762D01*
X129754191Y-110330381D01*
X129992286Y-110330381D01*
X128468476Y-110330381D02*
X129039905Y-110330381D01*
X128754191Y-110330381D02*
X128754191Y-109330381D01*
X128849429Y-109473238D01*
X128944667Y-109568476D01*
X129039905Y-109616095D01*
X127849429Y-109330381D02*
X127754190Y-109330381D01*
X127658952Y-109378000D01*
X127611333Y-109425619D01*
X127563714Y-109520857D01*
X127516095Y-109711333D01*
X127516095Y-109949429D01*
X127563714Y-110139905D01*
X127611333Y-110235143D01*
X127658952Y-110282762D01*
X127754190Y-110330381D01*
X127849429Y-110330381D01*
X127944667Y-110282762D01*
X127992286Y-110235143D01*
X128039905Y-110139905D01*
X128087524Y-109949429D01*
X128087524Y-109711333D01*
X128039905Y-109520857D01*
X127992286Y-109425619D01*
X127944667Y-109378000D01*
X127849429Y-109330381D01*
X141676286Y-77056381D02*
X141676286Y-76056381D01*
X141438191Y-76056381D01*
X141295333Y-76104000D01*
X141200095Y-76199238D01*
X141152476Y-76294476D01*
X141104857Y-76484952D01*
X141104857Y-76627810D01*
X141152476Y-76818286D01*
X141200095Y-76913524D01*
X141295333Y-77008762D01*
X141438191Y-77056381D01*
X141676286Y-77056381D01*
X140152476Y-77056381D02*
X140723905Y-77056381D01*
X140438191Y-77056381D02*
X140438191Y-76056381D01*
X140533429Y-76199238D01*
X140628667Y-76294476D01*
X140723905Y-76342095D01*
X139295333Y-76389714D02*
X139295333Y-77056381D01*
X139533429Y-76008762D02*
X139771524Y-76723048D01*
X139152476Y-76723048D01*
X140914286Y-89248381D02*
X140914286Y-88248381D01*
X140676191Y-88248381D01*
X140533333Y-88296000D01*
X140438095Y-88391238D01*
X140390476Y-88486476D01*
X140342857Y-88676952D01*
X140342857Y-88819810D01*
X140390476Y-89010286D01*
X140438095Y-89105524D01*
X140533333Y-89200762D01*
X140676191Y-89248381D01*
X140914286Y-89248381D01*
X139390476Y-89248381D02*
X139961905Y-89248381D01*
X139676191Y-89248381D02*
X139676191Y-88248381D01*
X139771429Y-88391238D01*
X139866667Y-88486476D01*
X139961905Y-88534095D01*
X138485714Y-88248381D02*
X138961905Y-88248381D01*
X139009524Y-88724571D01*
X138961905Y-88676952D01*
X138866667Y-88629333D01*
X138628571Y-88629333D01*
X138533333Y-88676952D01*
X138485714Y-88724571D01*
X138438095Y-88819810D01*
X138438095Y-89057905D01*
X138485714Y-89153143D01*
X138533333Y-89200762D01*
X138628571Y-89248381D01*
X138866667Y-89248381D01*
X138961905Y-89200762D01*
X139009524Y-89153143D01*
X156916286Y-84168381D02*
X156916286Y-83168381D01*
X156678191Y-83168381D01*
X156535333Y-83216000D01*
X156440095Y-83311238D01*
X156392476Y-83406476D01*
X156344857Y-83596952D01*
X156344857Y-83739810D01*
X156392476Y-83930286D01*
X156440095Y-84025524D01*
X156535333Y-84120762D01*
X156678191Y-84168381D01*
X156916286Y-84168381D01*
X155392476Y-84168381D02*
X155963905Y-84168381D01*
X155678191Y-84168381D02*
X155678191Y-83168381D01*
X155773429Y-83311238D01*
X155868667Y-83406476D01*
X155963905Y-83454095D01*
X154916286Y-84168381D02*
X154725810Y-84168381D01*
X154630571Y-84120762D01*
X154582952Y-84073143D01*
X154487714Y-83930286D01*
X154440095Y-83739810D01*
X154440095Y-83358857D01*
X154487714Y-83263619D01*
X154535333Y-83216000D01*
X154630571Y-83168381D01*
X154821048Y-83168381D01*
X154916286Y-83216000D01*
X154963905Y-83263619D01*
X155011524Y-83358857D01*
X155011524Y-83596952D01*
X154963905Y-83692190D01*
X154916286Y-83739810D01*
X154821048Y-83787429D01*
X154630571Y-83787429D01*
X154535333Y-83739810D01*
X154487714Y-83692190D01*
X154440095Y-83596952D01*
X154884286Y-96360381D02*
X154884286Y-95360381D01*
X154646191Y-95360381D01*
X154503333Y-95408000D01*
X154408095Y-95503238D01*
X154360476Y-95598476D01*
X154312857Y-95788952D01*
X154312857Y-95931810D01*
X154360476Y-96122286D01*
X154408095Y-96217524D01*
X154503333Y-96312762D01*
X154646191Y-96360381D01*
X154884286Y-96360381D01*
X153931905Y-95455619D02*
X153884286Y-95408000D01*
X153789048Y-95360381D01*
X153550952Y-95360381D01*
X153455714Y-95408000D01*
X153408095Y-95455619D01*
X153360476Y-95550857D01*
X153360476Y-95646095D01*
X153408095Y-95788952D01*
X153979524Y-96360381D01*
X153360476Y-96360381D01*
X152741429Y-95360381D02*
X152646190Y-95360381D01*
X152550952Y-95408000D01*
X152503333Y-95455619D01*
X152455714Y-95550857D01*
X152408095Y-95741333D01*
X152408095Y-95979429D01*
X152455714Y-96169905D01*
X152503333Y-96265143D01*
X152550952Y-96312762D01*
X152646190Y-96360381D01*
X152741429Y-96360381D01*
X152836667Y-96312762D01*
X152884286Y-96265143D01*
X152931905Y-96169905D01*
X152979524Y-95979429D01*
X152979524Y-95741333D01*
X152931905Y-95550857D01*
X152884286Y-95455619D01*
X152836667Y-95408000D01*
X152741429Y-95360381D01*
M02*
