G04 #@! TF.FileFunction,Soldermask,Top*
%FSLAX46Y46*%
G04 Gerber Fmt 4.6, Leading zero omitted, Abs format (unit mm)*
G04 Created by KiCad (PCBNEW 4.0.6) date 11/09/17 18:16:21*
%MOMM*%
%LPD*%
G01*
G04 APERTURE LIST*
%ADD10C,0.100000*%
%ADD11C,4.000000*%
%ADD12R,1.800000X1.800000*%
%ADD13C,1.800000*%
%ADD14C,1.600000*%
%ADD15O,1.600000X1.600000*%
%ADD16C,1.500000*%
%ADD17R,1.600000X1.600000*%
%ADD18R,1.700000X1.700000*%
%ADD19O,1.700000X1.700000*%
%ADD20R,1.000000X1.000000*%
%ADD21R,1.000000X0.254000*%
G04 APERTURE END LIST*
D10*
D11*
X172000000Y-145000000D03*
X118000000Y-132500000D03*
X172000000Y-132500000D03*
D12*
X103378000Y-86360000D03*
D13*
X105918000Y-86360000D03*
D12*
X108712000Y-96520000D03*
D13*
X111252000Y-96520000D03*
D12*
X115570000Y-106172000D03*
D13*
X118110000Y-106172000D03*
D12*
X105918000Y-91186000D03*
D13*
X108458000Y-91186000D03*
D12*
X112014000Y-101600000D03*
D13*
X114554000Y-101600000D03*
D12*
X117856000Y-66802000D03*
D13*
X120396000Y-66802000D03*
D12*
X121412000Y-82296000D03*
D13*
X123952000Y-82296000D03*
D12*
X126238000Y-97790000D03*
D13*
X128778000Y-97790000D03*
D12*
X119126000Y-74422000D03*
D13*
X121666000Y-74422000D03*
D12*
X123698000Y-90678000D03*
D13*
X126238000Y-90678000D03*
D12*
X133096000Y-56896000D03*
D13*
X135636000Y-56896000D03*
D12*
X135890000Y-74930000D03*
D13*
X138430000Y-74930000D03*
D12*
X138430000Y-92202000D03*
D13*
X140970000Y-92202000D03*
D12*
X134366000Y-66802000D03*
D13*
X136906000Y-66802000D03*
D12*
X137160000Y-84328000D03*
D13*
X139700000Y-84328000D03*
D12*
X152400000Y-59944000D03*
D13*
X154940000Y-59944000D03*
D12*
X152146000Y-76032000D03*
D13*
X154686000Y-76032000D03*
D12*
X151638000Y-90424000D03*
D13*
X154178000Y-90424000D03*
D12*
X152400000Y-68580000D03*
D13*
X154940000Y-68580000D03*
D12*
X151892000Y-82804000D03*
D13*
X154432000Y-82804000D03*
D14*
X105380000Y-133000000D03*
D15*
X113000000Y-133000000D03*
D16*
X181000000Y-126550000D03*
X183500000Y-126550000D03*
X178500000Y-126550000D03*
X178500000Y-129850000D03*
X181000000Y-129850000D03*
X183500000Y-129850000D03*
D17*
X178300000Y-143620000D03*
D15*
X196080000Y-136000000D03*
X180840000Y-143620000D03*
X193540000Y-136000000D03*
X183380000Y-143620000D03*
X191000000Y-136000000D03*
X185920000Y-143620000D03*
X188460000Y-136000000D03*
X188460000Y-143620000D03*
X185920000Y-136000000D03*
X191000000Y-143620000D03*
X183380000Y-136000000D03*
X193540000Y-143620000D03*
X180840000Y-136000000D03*
X196080000Y-143620000D03*
X178300000Y-136000000D03*
D18*
X189000000Y-129000000D03*
D19*
X189000000Y-131540000D03*
D14*
X113750000Y-129500000D03*
X113750000Y-127000000D03*
D11*
X118000000Y-145000000D03*
D18*
X102460000Y-140000000D03*
D19*
X102460000Y-137460000D03*
X105000000Y-140000000D03*
X105000000Y-137460000D03*
X107540000Y-140000000D03*
X107540000Y-137460000D03*
X110080000Y-140000000D03*
X110080000Y-137460000D03*
X112620000Y-140000000D03*
X112620000Y-137460000D03*
D20*
X183000000Y-148000000D03*
X181000000Y-148000000D03*
D21*
X182000000Y-148000000D03*
D20*
X188000000Y-148000000D03*
X190000000Y-148000000D03*
D21*
X189000000Y-148000000D03*
M02*
