M48
;DRILL file {KiCad 4.0.6} date 11/09/17 18:16:27
;FORMAT={2:4/ absolute / inch / suppress trailing zeros}
FMAT,2
INCH,LZ
T1C0.031
T2C0.035
T3C0.039
T4C0.126
%
G90
G05
M72
T1
X041488Y-052362
X044488Y-052362
X044783Y-05
X044783Y-050984
X070197Y-053543
X070197Y-056543
X071197Y-053543
X071197Y-056543
X072197Y-053543
X072197Y-056543
X073197Y-053543
X073197Y-056543
X074197Y-053543
X074197Y-056543
X075197Y-053543
X075197Y-056543
X076197Y-053543
X076197Y-056543
X077197Y-053543
X077197Y-056543
T2
X0407Y-034
X0417Y-034
X0417Y-0359
X0427Y-0359
X0428Y-038
X0438Y-038
X0441Y-04
X0451Y-04
X0455Y-0418
X0464Y-0263
X0465Y-0418
X0469Y-0293
X0474Y-0263
X0478Y-0324
X0479Y-0293
X0487Y-0357
X0488Y-0324
X0497Y-0357
X0497Y-0385
X0507Y-0385
X0524Y-0224
X0529Y-0263
X0534Y-0224
X0535Y-0295
X0539Y-0263
X054Y-0332
X0545Y-0295
X0545Y-0363
X055Y-0332
X0555Y-0363
X0597Y-0356
X0598Y-0326
X0599Y-029934
X06Y-0236
X06Y-027
X0607Y-0356
X0608Y-0326
X0609Y-029934
X061Y-0236
X061Y-027
X070276Y-049823
X070276Y-051122
X07126Y-049823
X07126Y-051122
X072244Y-049823
X072244Y-051122
T3
X040339Y-054118
X040339Y-055118
X041339Y-054118
X041339Y-055118
X042339Y-054118
X042339Y-055118
X043339Y-054118
X043339Y-055118
X044339Y-054118
X044339Y-055118
X074409Y-050787
X074409Y-051787
T4
X046457Y-052165
X046457Y-057087
X067717Y-052165
X067717Y-057087
T0
M30
