G04 #@! TF.FileFunction,Copper,L2,Bot,Signal*
%FSLAX46Y46*%
G04 Gerber Fmt 4.6, Leading zero omitted, Abs format (unit mm)*
G04 Created by KiCad (PCBNEW 4.0.6) date 11/09/17 18:16:21*
%MOMM*%
%LPD*%
G01*
G04 APERTURE LIST*
%ADD10C,0.100000*%
%ADD11C,0.010000*%
%ADD12C,4.000000*%
%ADD13R,1.800000X1.800000*%
%ADD14C,1.800000*%
%ADD15C,1.600000*%
%ADD16O,1.600000X1.600000*%
%ADD17C,1.500000*%
%ADD18R,1.600000X1.600000*%
%ADD19R,1.700000X1.700000*%
%ADD20O,1.700000X1.700000*%
%ADD21C,0.250000*%
%ADD22C,0.254000*%
G04 APERTURE END LIST*
D10*
D11*
G36*
X143663060Y-123240017D02*
X143610758Y-123261739D01*
X143565313Y-123294916D01*
X143510529Y-123358341D01*
X143476586Y-123431592D01*
X143462207Y-123512007D01*
X143466117Y-123596922D01*
X143487038Y-123683673D01*
X143523695Y-123769597D01*
X143574811Y-123852031D01*
X143639110Y-123928311D01*
X143715317Y-123995774D01*
X143802154Y-124051756D01*
X143898345Y-124093594D01*
X143955809Y-124109850D01*
X144033464Y-124124981D01*
X144133972Y-124140190D01*
X144254787Y-124155226D01*
X144393364Y-124169840D01*
X144547158Y-124183781D01*
X144713624Y-124196799D01*
X144890216Y-124208644D01*
X145059400Y-124218289D01*
X145122862Y-124220801D01*
X145208709Y-124222981D01*
X145313927Y-124224827D01*
X145435504Y-124226342D01*
X145570427Y-124227527D01*
X145715684Y-124228382D01*
X145868260Y-124228908D01*
X146025144Y-124229107D01*
X146183322Y-124228981D01*
X146339781Y-124228528D01*
X146491508Y-124227752D01*
X146635491Y-124226653D01*
X146768717Y-124225231D01*
X146888171Y-124223489D01*
X146990843Y-124221426D01*
X147073718Y-124219045D01*
X147110450Y-124217568D01*
X147257542Y-124209593D01*
X147380026Y-124200375D01*
X147478669Y-124189790D01*
X147554239Y-124177716D01*
X147607503Y-124164028D01*
X147639229Y-124148603D01*
X147650183Y-124131317D01*
X147650200Y-124130561D01*
X147640272Y-124106802D01*
X147629359Y-124099119D01*
X147602313Y-124092007D01*
X147560033Y-124085868D01*
X147501282Y-124080660D01*
X147424825Y-124076339D01*
X147329426Y-124072863D01*
X147213851Y-124070189D01*
X147076864Y-124068274D01*
X146917229Y-124067075D01*
X146733710Y-124066549D01*
X146689661Y-124066520D01*
X146002171Y-124066300D01*
X146020811Y-124012325D01*
X146033008Y-123948183D01*
X146025360Y-123879662D01*
X145997274Y-123802194D01*
X145991953Y-123790943D01*
X145948594Y-123722952D01*
X145892731Y-123667475D01*
X145828319Y-123625574D01*
X145759315Y-123598314D01*
X145689675Y-123586756D01*
X145623356Y-123591965D01*
X145564315Y-123615003D01*
X145516508Y-123656934D01*
X145512555Y-123662128D01*
X145487272Y-123716866D01*
X145479977Y-123782959D01*
X145489753Y-123854801D01*
X145515682Y-123926785D01*
X145556848Y-123993303D01*
X145569165Y-124008140D01*
X145620359Y-124066300D01*
X145284793Y-124066300D01*
X145170446Y-124065925D01*
X145039968Y-124064876D01*
X144902616Y-124063269D01*
X144767645Y-124061216D01*
X144644313Y-124058833D01*
X144603974Y-124057902D01*
X144258720Y-124049504D01*
X144282925Y-124022977D01*
X144318491Y-123976468D01*
X144340678Y-123926386D01*
X144351837Y-123865380D01*
X144354407Y-123799600D01*
X144353293Y-123743208D01*
X144348452Y-123700813D01*
X144337439Y-123661742D01*
X144317807Y-123615325D01*
X144306804Y-123591915D01*
X144246882Y-123491635D01*
X144169084Y-123400992D01*
X144078851Y-123325523D01*
X143998950Y-123278631D01*
X143941747Y-123254022D01*
X143890386Y-123239650D01*
X143831625Y-123232204D01*
X143806864Y-123230623D01*
X143726252Y-123230224D01*
X143663060Y-123240017D01*
X143663060Y-123240017D01*
G37*
X143663060Y-123240017D02*
X143610758Y-123261739D01*
X143565313Y-123294916D01*
X143510529Y-123358341D01*
X143476586Y-123431592D01*
X143462207Y-123512007D01*
X143466117Y-123596922D01*
X143487038Y-123683673D01*
X143523695Y-123769597D01*
X143574811Y-123852031D01*
X143639110Y-123928311D01*
X143715317Y-123995774D01*
X143802154Y-124051756D01*
X143898345Y-124093594D01*
X143955809Y-124109850D01*
X144033464Y-124124981D01*
X144133972Y-124140190D01*
X144254787Y-124155226D01*
X144393364Y-124169840D01*
X144547158Y-124183781D01*
X144713624Y-124196799D01*
X144890216Y-124208644D01*
X145059400Y-124218289D01*
X145122862Y-124220801D01*
X145208709Y-124222981D01*
X145313927Y-124224827D01*
X145435504Y-124226342D01*
X145570427Y-124227527D01*
X145715684Y-124228382D01*
X145868260Y-124228908D01*
X146025144Y-124229107D01*
X146183322Y-124228981D01*
X146339781Y-124228528D01*
X146491508Y-124227752D01*
X146635491Y-124226653D01*
X146768717Y-124225231D01*
X146888171Y-124223489D01*
X146990843Y-124221426D01*
X147073718Y-124219045D01*
X147110450Y-124217568D01*
X147257542Y-124209593D01*
X147380026Y-124200375D01*
X147478669Y-124189790D01*
X147554239Y-124177716D01*
X147607503Y-124164028D01*
X147639229Y-124148603D01*
X147650183Y-124131317D01*
X147650200Y-124130561D01*
X147640272Y-124106802D01*
X147629359Y-124099119D01*
X147602313Y-124092007D01*
X147560033Y-124085868D01*
X147501282Y-124080660D01*
X147424825Y-124076339D01*
X147329426Y-124072863D01*
X147213851Y-124070189D01*
X147076864Y-124068274D01*
X146917229Y-124067075D01*
X146733710Y-124066549D01*
X146689661Y-124066520D01*
X146002171Y-124066300D01*
X146020811Y-124012325D01*
X146033008Y-123948183D01*
X146025360Y-123879662D01*
X145997274Y-123802194D01*
X145991953Y-123790943D01*
X145948594Y-123722952D01*
X145892731Y-123667475D01*
X145828319Y-123625574D01*
X145759315Y-123598314D01*
X145689675Y-123586756D01*
X145623356Y-123591965D01*
X145564315Y-123615003D01*
X145516508Y-123656934D01*
X145512555Y-123662128D01*
X145487272Y-123716866D01*
X145479977Y-123782959D01*
X145489753Y-123854801D01*
X145515682Y-123926785D01*
X145556848Y-123993303D01*
X145569165Y-124008140D01*
X145620359Y-124066300D01*
X145284793Y-124066300D01*
X145170446Y-124065925D01*
X145039968Y-124064876D01*
X144902616Y-124063269D01*
X144767645Y-124061216D01*
X144644313Y-124058833D01*
X144603974Y-124057902D01*
X144258720Y-124049504D01*
X144282925Y-124022977D01*
X144318491Y-123976468D01*
X144340678Y-123926386D01*
X144351837Y-123865380D01*
X144354407Y-123799600D01*
X144353293Y-123743208D01*
X144348452Y-123700813D01*
X144337439Y-123661742D01*
X144317807Y-123615325D01*
X144306804Y-123591915D01*
X144246882Y-123491635D01*
X144169084Y-123400992D01*
X144078851Y-123325523D01*
X143998950Y-123278631D01*
X143941747Y-123254022D01*
X143890386Y-123239650D01*
X143831625Y-123232204D01*
X143806864Y-123230623D01*
X143726252Y-123230224D01*
X143663060Y-123240017D01*
G36*
X143257839Y-121627110D02*
X143245113Y-121660066D01*
X143226750Y-121711339D01*
X143203713Y-121777966D01*
X143176965Y-121856982D01*
X143147468Y-121945421D01*
X143116186Y-122040320D01*
X143084080Y-122138711D01*
X143052113Y-122237632D01*
X143021248Y-122334116D01*
X142992447Y-122425200D01*
X142966674Y-122507918D01*
X142944891Y-122579304D01*
X142928060Y-122636395D01*
X142917144Y-122676225D01*
X142913105Y-122695830D01*
X142913101Y-122696117D01*
X142924606Y-122709461D01*
X142957449Y-122730471D01*
X143009114Y-122758075D01*
X143077090Y-122791199D01*
X143158862Y-122828771D01*
X143251918Y-122869719D01*
X143353745Y-122912969D01*
X143461828Y-122957451D01*
X143573656Y-123002090D01*
X143686715Y-123045814D01*
X143798492Y-123087552D01*
X143906473Y-123126230D01*
X143979900Y-123151394D01*
X144380177Y-123274773D01*
X144779429Y-123375740D01*
X145181202Y-123454905D01*
X145589043Y-123512879D01*
X146006502Y-123550272D01*
X146395358Y-123566875D01*
X146759765Y-123574792D01*
X146766478Y-123544321D01*
X146770442Y-123521252D01*
X146776927Y-123477454D01*
X146785536Y-123416024D01*
X146795872Y-123340055D01*
X146807539Y-123252642D01*
X146820140Y-123156880D01*
X146833279Y-123055862D01*
X146846558Y-122952685D01*
X146859582Y-122850441D01*
X146871954Y-122752227D01*
X146875145Y-122726554D01*
X146313934Y-122726554D01*
X146306796Y-122808268D01*
X146278145Y-122886322D01*
X146230227Y-122953481D01*
X146165897Y-123004583D01*
X146089752Y-123036603D01*
X146007572Y-123048779D01*
X145925135Y-123040349D01*
X145848220Y-123010551D01*
X145838935Y-123005072D01*
X145782730Y-122958405D01*
X145734736Y-122896268D01*
X145700979Y-122827568D01*
X145689667Y-122784499D01*
X145688454Y-122701998D01*
X145709522Y-122624248D01*
X145749782Y-122554788D01*
X145805464Y-122497850D01*
X145236643Y-122497850D01*
X145224825Y-122586249D01*
X145190761Y-122664925D01*
X145136529Y-122730614D01*
X145064211Y-122780056D01*
X145053332Y-122785237D01*
X144993837Y-122802385D01*
X144923552Y-122808144D01*
X144854368Y-122802316D01*
X144808168Y-122789329D01*
X144752425Y-122756344D01*
X144698133Y-122707733D01*
X144654192Y-122652156D01*
X144639065Y-122624850D01*
X144622255Y-122570007D01*
X144615242Y-122504187D01*
X144615179Y-122498684D01*
X144626027Y-122414674D01*
X144656825Y-122341361D01*
X144703970Y-122280360D01*
X144714933Y-122271742D01*
X144190593Y-122271742D01*
X144178835Y-122349266D01*
X144146436Y-122422019D01*
X144094119Y-122486415D01*
X144022606Y-122538868D01*
X143992600Y-122554002D01*
X143912128Y-122576946D01*
X143828519Y-122574894D01*
X143775994Y-122561100D01*
X143695790Y-122520714D01*
X143632190Y-122461386D01*
X143602359Y-122418044D01*
X143582264Y-122379055D01*
X143571511Y-122341928D01*
X143567475Y-122295571D01*
X143567150Y-122269250D01*
X143573250Y-122191240D01*
X143593649Y-122127903D01*
X143631501Y-122071087D01*
X143652792Y-122047789D01*
X143723213Y-121992101D01*
X143800605Y-121959530D01*
X143881390Y-121950089D01*
X143961994Y-121963789D01*
X144038841Y-122000641D01*
X144094805Y-122046395D01*
X144149300Y-122116721D01*
X144180988Y-122193032D01*
X144190593Y-122271742D01*
X144714933Y-122271742D01*
X144763858Y-122233285D01*
X144832885Y-122201748D01*
X144907448Y-122187364D01*
X144983944Y-122191746D01*
X145058767Y-122216509D01*
X145128316Y-122263265D01*
X145132497Y-122267039D01*
X145188746Y-122329984D01*
X145222355Y-122397079D01*
X145236022Y-122474299D01*
X145236643Y-122497850D01*
X145805464Y-122497850D01*
X145806144Y-122497155D01*
X145875518Y-122454885D01*
X145954816Y-122431515D01*
X146001059Y-122428000D01*
X146076673Y-122434598D01*
X146139738Y-122456856D01*
X146200109Y-122498462D01*
X146208512Y-122505693D01*
X146264567Y-122570642D01*
X146299783Y-122645804D01*
X146313934Y-122726554D01*
X146875145Y-122726554D01*
X146883277Y-122661135D01*
X146893155Y-122580262D01*
X146901190Y-122512702D01*
X146906987Y-122461548D01*
X146910149Y-122429897D01*
X146910484Y-122420650D01*
X146897724Y-122417354D01*
X146861829Y-122408983D01*
X146804475Y-122395908D01*
X146727337Y-122378497D01*
X146632090Y-122357121D01*
X146520410Y-122332149D01*
X146393971Y-122303952D01*
X146254449Y-122272900D01*
X146103518Y-122239362D01*
X145942855Y-122203708D01*
X145774134Y-122166308D01*
X145599031Y-122127533D01*
X145419220Y-122087751D01*
X145236376Y-122047334D01*
X145052176Y-122006650D01*
X144868294Y-121966070D01*
X144686406Y-121925963D01*
X144508185Y-121886700D01*
X144335309Y-121848651D01*
X144169451Y-121812184D01*
X144012287Y-121777672D01*
X143865493Y-121745482D01*
X143730743Y-121715985D01*
X143609713Y-121689551D01*
X143504077Y-121666551D01*
X143415511Y-121647353D01*
X143345691Y-121632327D01*
X143296290Y-121621844D01*
X143268985Y-121616274D01*
X143263967Y-121615439D01*
X143257839Y-121627110D01*
X143257839Y-121627110D01*
G37*
X143257839Y-121627110D02*
X143245113Y-121660066D01*
X143226750Y-121711339D01*
X143203713Y-121777966D01*
X143176965Y-121856982D01*
X143147468Y-121945421D01*
X143116186Y-122040320D01*
X143084080Y-122138711D01*
X143052113Y-122237632D01*
X143021248Y-122334116D01*
X142992447Y-122425200D01*
X142966674Y-122507918D01*
X142944891Y-122579304D01*
X142928060Y-122636395D01*
X142917144Y-122676225D01*
X142913105Y-122695830D01*
X142913101Y-122696117D01*
X142924606Y-122709461D01*
X142957449Y-122730471D01*
X143009114Y-122758075D01*
X143077090Y-122791199D01*
X143158862Y-122828771D01*
X143251918Y-122869719D01*
X143353745Y-122912969D01*
X143461828Y-122957451D01*
X143573656Y-123002090D01*
X143686715Y-123045814D01*
X143798492Y-123087552D01*
X143906473Y-123126230D01*
X143979900Y-123151394D01*
X144380177Y-123274773D01*
X144779429Y-123375740D01*
X145181202Y-123454905D01*
X145589043Y-123512879D01*
X146006502Y-123550272D01*
X146395358Y-123566875D01*
X146759765Y-123574792D01*
X146766478Y-123544321D01*
X146770442Y-123521252D01*
X146776927Y-123477454D01*
X146785536Y-123416024D01*
X146795872Y-123340055D01*
X146807539Y-123252642D01*
X146820140Y-123156880D01*
X146833279Y-123055862D01*
X146846558Y-122952685D01*
X146859582Y-122850441D01*
X146871954Y-122752227D01*
X146875145Y-122726554D01*
X146313934Y-122726554D01*
X146306796Y-122808268D01*
X146278145Y-122886322D01*
X146230227Y-122953481D01*
X146165897Y-123004583D01*
X146089752Y-123036603D01*
X146007572Y-123048779D01*
X145925135Y-123040349D01*
X145848220Y-123010551D01*
X145838935Y-123005072D01*
X145782730Y-122958405D01*
X145734736Y-122896268D01*
X145700979Y-122827568D01*
X145689667Y-122784499D01*
X145688454Y-122701998D01*
X145709522Y-122624248D01*
X145749782Y-122554788D01*
X145805464Y-122497850D01*
X145236643Y-122497850D01*
X145224825Y-122586249D01*
X145190761Y-122664925D01*
X145136529Y-122730614D01*
X145064211Y-122780056D01*
X145053332Y-122785237D01*
X144993837Y-122802385D01*
X144923552Y-122808144D01*
X144854368Y-122802316D01*
X144808168Y-122789329D01*
X144752425Y-122756344D01*
X144698133Y-122707733D01*
X144654192Y-122652156D01*
X144639065Y-122624850D01*
X144622255Y-122570007D01*
X144615242Y-122504187D01*
X144615179Y-122498684D01*
X144626027Y-122414674D01*
X144656825Y-122341361D01*
X144703970Y-122280360D01*
X144714933Y-122271742D01*
X144190593Y-122271742D01*
X144178835Y-122349266D01*
X144146436Y-122422019D01*
X144094119Y-122486415D01*
X144022606Y-122538868D01*
X143992600Y-122554002D01*
X143912128Y-122576946D01*
X143828519Y-122574894D01*
X143775994Y-122561100D01*
X143695790Y-122520714D01*
X143632190Y-122461386D01*
X143602359Y-122418044D01*
X143582264Y-122379055D01*
X143571511Y-122341928D01*
X143567475Y-122295571D01*
X143567150Y-122269250D01*
X143573250Y-122191240D01*
X143593649Y-122127903D01*
X143631501Y-122071087D01*
X143652792Y-122047789D01*
X143723213Y-121992101D01*
X143800605Y-121959530D01*
X143881390Y-121950089D01*
X143961994Y-121963789D01*
X144038841Y-122000641D01*
X144094805Y-122046395D01*
X144149300Y-122116721D01*
X144180988Y-122193032D01*
X144190593Y-122271742D01*
X144714933Y-122271742D01*
X144763858Y-122233285D01*
X144832885Y-122201748D01*
X144907448Y-122187364D01*
X144983944Y-122191746D01*
X145058767Y-122216509D01*
X145128316Y-122263265D01*
X145132497Y-122267039D01*
X145188746Y-122329984D01*
X145222355Y-122397079D01*
X145236022Y-122474299D01*
X145236643Y-122497850D01*
X145805464Y-122497850D01*
X145806144Y-122497155D01*
X145875518Y-122454885D01*
X145954816Y-122431515D01*
X146001059Y-122428000D01*
X146076673Y-122434598D01*
X146139738Y-122456856D01*
X146200109Y-122498462D01*
X146208512Y-122505693D01*
X146264567Y-122570642D01*
X146299783Y-122645804D01*
X146313934Y-122726554D01*
X146875145Y-122726554D01*
X146883277Y-122661135D01*
X146893155Y-122580262D01*
X146901190Y-122512702D01*
X146906987Y-122461548D01*
X146910149Y-122429897D01*
X146910484Y-122420650D01*
X146897724Y-122417354D01*
X146861829Y-122408983D01*
X146804475Y-122395908D01*
X146727337Y-122378497D01*
X146632090Y-122357121D01*
X146520410Y-122332149D01*
X146393971Y-122303952D01*
X146254449Y-122272900D01*
X146103518Y-122239362D01*
X145942855Y-122203708D01*
X145774134Y-122166308D01*
X145599031Y-122127533D01*
X145419220Y-122087751D01*
X145236376Y-122047334D01*
X145052176Y-122006650D01*
X144868294Y-121966070D01*
X144686406Y-121925963D01*
X144508185Y-121886700D01*
X144335309Y-121848651D01*
X144169451Y-121812184D01*
X144012287Y-121777672D01*
X143865493Y-121745482D01*
X143730743Y-121715985D01*
X143609713Y-121689551D01*
X143504077Y-121666551D01*
X143415511Y-121647353D01*
X143345691Y-121632327D01*
X143296290Y-121621844D01*
X143268985Y-121616274D01*
X143263967Y-121615439D01*
X143257839Y-121627110D01*
G36*
X143576182Y-119893784D02*
X143572946Y-119906871D01*
X143565639Y-119942383D01*
X143554721Y-119997848D01*
X143540649Y-120070792D01*
X143523883Y-120158742D01*
X143504879Y-120259225D01*
X143484096Y-120369766D01*
X143461993Y-120487893D01*
X143439027Y-120611132D01*
X143415657Y-120737010D01*
X143392342Y-120863053D01*
X143369539Y-120986788D01*
X143347707Y-121105741D01*
X143327303Y-121217439D01*
X143308787Y-121319409D01*
X143292615Y-121409177D01*
X143279248Y-121484270D01*
X143269142Y-121542214D01*
X143262756Y-121580537D01*
X143260549Y-121596763D01*
X143260613Y-121597143D01*
X143273234Y-121598355D01*
X143309746Y-121601671D01*
X143368740Y-121606967D01*
X143448804Y-121614118D01*
X143548528Y-121622999D01*
X143666501Y-121633484D01*
X143801313Y-121645448D01*
X143951554Y-121658767D01*
X144115813Y-121673315D01*
X144292679Y-121688967D01*
X144480742Y-121705598D01*
X144678592Y-121723083D01*
X144884818Y-121741296D01*
X145091150Y-121759508D01*
X145304920Y-121778390D01*
X145512161Y-121796734D01*
X145711422Y-121814408D01*
X145901251Y-121831283D01*
X146080198Y-121847229D01*
X146246810Y-121862114D01*
X146399636Y-121875810D01*
X146537224Y-121888185D01*
X146658124Y-121899109D01*
X146760884Y-121908453D01*
X146844052Y-121916085D01*
X146906177Y-121921875D01*
X146945807Y-121925694D01*
X146961225Y-121927365D01*
X147002500Y-121933850D01*
X147002500Y-120615148D01*
X146603796Y-120615148D01*
X146597810Y-120691856D01*
X146572324Y-120765588D01*
X146527348Y-120832508D01*
X146462896Y-120888779D01*
X146430768Y-120907922D01*
X146392415Y-120926827D01*
X146360889Y-120937164D01*
X146326355Y-120940714D01*
X146278977Y-120939260D01*
X146263255Y-120938277D01*
X146165360Y-120931874D01*
X146075930Y-121041762D01*
X146031458Y-121099140D01*
X146004016Y-121140925D01*
X145994153Y-121166244D01*
X145994787Y-121170700D01*
X146002411Y-121193028D01*
X146013324Y-121230493D01*
X146021554Y-121261173D01*
X146031531Y-121305919D01*
X146033214Y-121340494D01*
X146026374Y-121378291D01*
X146019110Y-121404573D01*
X145983034Y-121484665D01*
X145926603Y-121552692D01*
X145853706Y-121604167D01*
X145840450Y-121610718D01*
X145760875Y-121635949D01*
X145680355Y-121636708D01*
X145616577Y-121621195D01*
X145539411Y-121583110D01*
X145479251Y-121529745D01*
X145436427Y-121464981D01*
X145411269Y-121392698D01*
X145404107Y-121316775D01*
X145415270Y-121241093D01*
X145423434Y-121221500D01*
X144931843Y-121221500D01*
X144920606Y-121306544D01*
X144889211Y-121381688D01*
X144841130Y-121444651D01*
X144779834Y-121493155D01*
X144708794Y-121524923D01*
X144631484Y-121537675D01*
X144551374Y-121529134D01*
X144494250Y-121508681D01*
X144419204Y-121460888D01*
X144361998Y-121399156D01*
X144324004Y-121327313D01*
X144306593Y-121249188D01*
X144311138Y-121168611D01*
X144339009Y-121089412D01*
X144342032Y-121083717D01*
X144376504Y-121020381D01*
X144289327Y-120880507D01*
X144202150Y-120740634D01*
X144156128Y-120747484D01*
X144095835Y-120746482D01*
X144028343Y-120729725D01*
X143963302Y-120700465D01*
X143914956Y-120666233D01*
X143858525Y-120604341D01*
X143824572Y-120538499D01*
X143810275Y-120462503D01*
X143809390Y-120434100D01*
X143820589Y-120345022D01*
X143854003Y-120268167D01*
X143909359Y-120203948D01*
X143986383Y-120152781D01*
X143998950Y-120146650D01*
X144080495Y-120121487D01*
X144162697Y-120120779D01*
X144242274Y-120143888D01*
X144315943Y-120190176D01*
X144341111Y-120213115D01*
X144395087Y-120283529D01*
X144426267Y-120361901D01*
X144434112Y-120444511D01*
X144418084Y-120527639D01*
X144394314Y-120580715D01*
X144363294Y-120636217D01*
X144450318Y-120773283D01*
X144537342Y-120910350D01*
X144611046Y-120911174D01*
X144699306Y-120923443D01*
X144777669Y-120956236D01*
X144843108Y-121006624D01*
X144892594Y-121071676D01*
X144923099Y-121148464D01*
X144931843Y-121221500D01*
X145423434Y-121221500D01*
X145445089Y-121169531D01*
X145493893Y-121105970D01*
X145562011Y-121054288D01*
X145568092Y-121050899D01*
X145639597Y-121023527D01*
X145717645Y-121012663D01*
X145791374Y-121019688D01*
X145798712Y-121021600D01*
X145814602Y-121024317D01*
X145829731Y-121020649D01*
X145847810Y-121007577D01*
X145872550Y-120982082D01*
X145907662Y-120941146D01*
X145928701Y-120915835D01*
X146024228Y-120800419D01*
X146002525Y-120760134D01*
X145986430Y-120711064D01*
X145980049Y-120648397D01*
X145983183Y-120581924D01*
X145994005Y-120529350D01*
X145503343Y-120529350D01*
X145491820Y-120617881D01*
X145459045Y-120695240D01*
X145407705Y-120758738D01*
X145340488Y-120805687D01*
X145260083Y-120833399D01*
X145192750Y-120839942D01*
X145126613Y-120834253D01*
X145070222Y-120818799D01*
X145065469Y-120816737D01*
X144991018Y-120769729D01*
X144934200Y-120705950D01*
X144897176Y-120628779D01*
X144882111Y-120541591D01*
X144881879Y-120530184D01*
X144892115Y-120445693D01*
X144924425Y-120371814D01*
X144980204Y-120305533D01*
X144989863Y-120296778D01*
X145063433Y-120247452D01*
X145142946Y-120221661D01*
X145224845Y-120219385D01*
X145305577Y-120240601D01*
X145381587Y-120285287D01*
X145398524Y-120299318D01*
X145455393Y-120361338D01*
X145489345Y-120429283D01*
X145502863Y-120508598D01*
X145503343Y-120529350D01*
X145994005Y-120529350D01*
X145995635Y-120521436D01*
X146007940Y-120491250D01*
X146059080Y-120419802D01*
X146124467Y-120366527D01*
X146199912Y-120332768D01*
X146281228Y-120319865D01*
X146364226Y-120329161D01*
X146432493Y-120355267D01*
X146504630Y-120405522D01*
X146557218Y-120468145D01*
X146590269Y-120539299D01*
X146603796Y-120615148D01*
X147002500Y-120615148D01*
X147002500Y-120193950D01*
X146961225Y-120187186D01*
X146942523Y-120185065D01*
X146900444Y-120180906D01*
X146836920Y-120174886D01*
X146753876Y-120167178D01*
X146653243Y-120157959D01*
X146536948Y-120147404D01*
X146406920Y-120135687D01*
X146265087Y-120122985D01*
X146113377Y-120109472D01*
X145953719Y-120095324D01*
X145840450Y-120085329D01*
X145659361Y-120069369D01*
X145472421Y-120052878D01*
X145283068Y-120036161D01*
X145094740Y-120019521D01*
X144910875Y-120003263D01*
X144734910Y-119987690D01*
X144570284Y-119973108D01*
X144420433Y-119959819D01*
X144288796Y-119948129D01*
X144178810Y-119938340D01*
X144172775Y-119937802D01*
X144053164Y-119927331D01*
X143941359Y-119917911D01*
X143839890Y-119909731D01*
X143751286Y-119902976D01*
X143678078Y-119897834D01*
X143622795Y-119894491D01*
X143587968Y-119893134D01*
X143576182Y-119893784D01*
X143576182Y-119893784D01*
G37*
X143576182Y-119893784D02*
X143572946Y-119906871D01*
X143565639Y-119942383D01*
X143554721Y-119997848D01*
X143540649Y-120070792D01*
X143523883Y-120158742D01*
X143504879Y-120259225D01*
X143484096Y-120369766D01*
X143461993Y-120487893D01*
X143439027Y-120611132D01*
X143415657Y-120737010D01*
X143392342Y-120863053D01*
X143369539Y-120986788D01*
X143347707Y-121105741D01*
X143327303Y-121217439D01*
X143308787Y-121319409D01*
X143292615Y-121409177D01*
X143279248Y-121484270D01*
X143269142Y-121542214D01*
X143262756Y-121580537D01*
X143260549Y-121596763D01*
X143260613Y-121597143D01*
X143273234Y-121598355D01*
X143309746Y-121601671D01*
X143368740Y-121606967D01*
X143448804Y-121614118D01*
X143548528Y-121622999D01*
X143666501Y-121633484D01*
X143801313Y-121645448D01*
X143951554Y-121658767D01*
X144115813Y-121673315D01*
X144292679Y-121688967D01*
X144480742Y-121705598D01*
X144678592Y-121723083D01*
X144884818Y-121741296D01*
X145091150Y-121759508D01*
X145304920Y-121778390D01*
X145512161Y-121796734D01*
X145711422Y-121814408D01*
X145901251Y-121831283D01*
X146080198Y-121847229D01*
X146246810Y-121862114D01*
X146399636Y-121875810D01*
X146537224Y-121888185D01*
X146658124Y-121899109D01*
X146760884Y-121908453D01*
X146844052Y-121916085D01*
X146906177Y-121921875D01*
X146945807Y-121925694D01*
X146961225Y-121927365D01*
X147002500Y-121933850D01*
X147002500Y-120615148D01*
X146603796Y-120615148D01*
X146597810Y-120691856D01*
X146572324Y-120765588D01*
X146527348Y-120832508D01*
X146462896Y-120888779D01*
X146430768Y-120907922D01*
X146392415Y-120926827D01*
X146360889Y-120937164D01*
X146326355Y-120940714D01*
X146278977Y-120939260D01*
X146263255Y-120938277D01*
X146165360Y-120931874D01*
X146075930Y-121041762D01*
X146031458Y-121099140D01*
X146004016Y-121140925D01*
X145994153Y-121166244D01*
X145994787Y-121170700D01*
X146002411Y-121193028D01*
X146013324Y-121230493D01*
X146021554Y-121261173D01*
X146031531Y-121305919D01*
X146033214Y-121340494D01*
X146026374Y-121378291D01*
X146019110Y-121404573D01*
X145983034Y-121484665D01*
X145926603Y-121552692D01*
X145853706Y-121604167D01*
X145840450Y-121610718D01*
X145760875Y-121635949D01*
X145680355Y-121636708D01*
X145616577Y-121621195D01*
X145539411Y-121583110D01*
X145479251Y-121529745D01*
X145436427Y-121464981D01*
X145411269Y-121392698D01*
X145404107Y-121316775D01*
X145415270Y-121241093D01*
X145423434Y-121221500D01*
X144931843Y-121221500D01*
X144920606Y-121306544D01*
X144889211Y-121381688D01*
X144841130Y-121444651D01*
X144779834Y-121493155D01*
X144708794Y-121524923D01*
X144631484Y-121537675D01*
X144551374Y-121529134D01*
X144494250Y-121508681D01*
X144419204Y-121460888D01*
X144361998Y-121399156D01*
X144324004Y-121327313D01*
X144306593Y-121249188D01*
X144311138Y-121168611D01*
X144339009Y-121089412D01*
X144342032Y-121083717D01*
X144376504Y-121020381D01*
X144289327Y-120880507D01*
X144202150Y-120740634D01*
X144156128Y-120747484D01*
X144095835Y-120746482D01*
X144028343Y-120729725D01*
X143963302Y-120700465D01*
X143914956Y-120666233D01*
X143858525Y-120604341D01*
X143824572Y-120538499D01*
X143810275Y-120462503D01*
X143809390Y-120434100D01*
X143820589Y-120345022D01*
X143854003Y-120268167D01*
X143909359Y-120203948D01*
X143986383Y-120152781D01*
X143998950Y-120146650D01*
X144080495Y-120121487D01*
X144162697Y-120120779D01*
X144242274Y-120143888D01*
X144315943Y-120190176D01*
X144341111Y-120213115D01*
X144395087Y-120283529D01*
X144426267Y-120361901D01*
X144434112Y-120444511D01*
X144418084Y-120527639D01*
X144394314Y-120580715D01*
X144363294Y-120636217D01*
X144450318Y-120773283D01*
X144537342Y-120910350D01*
X144611046Y-120911174D01*
X144699306Y-120923443D01*
X144777669Y-120956236D01*
X144843108Y-121006624D01*
X144892594Y-121071676D01*
X144923099Y-121148464D01*
X144931843Y-121221500D01*
X145423434Y-121221500D01*
X145445089Y-121169531D01*
X145493893Y-121105970D01*
X145562011Y-121054288D01*
X145568092Y-121050899D01*
X145639597Y-121023527D01*
X145717645Y-121012663D01*
X145791374Y-121019688D01*
X145798712Y-121021600D01*
X145814602Y-121024317D01*
X145829731Y-121020649D01*
X145847810Y-121007577D01*
X145872550Y-120982082D01*
X145907662Y-120941146D01*
X145928701Y-120915835D01*
X146024228Y-120800419D01*
X146002525Y-120760134D01*
X145986430Y-120711064D01*
X145980049Y-120648397D01*
X145983183Y-120581924D01*
X145994005Y-120529350D01*
X145503343Y-120529350D01*
X145491820Y-120617881D01*
X145459045Y-120695240D01*
X145407705Y-120758738D01*
X145340488Y-120805687D01*
X145260083Y-120833399D01*
X145192750Y-120839942D01*
X145126613Y-120834253D01*
X145070222Y-120818799D01*
X145065469Y-120816737D01*
X144991018Y-120769729D01*
X144934200Y-120705950D01*
X144897176Y-120628779D01*
X144882111Y-120541591D01*
X144881879Y-120530184D01*
X144892115Y-120445693D01*
X144924425Y-120371814D01*
X144980204Y-120305533D01*
X144989863Y-120296778D01*
X145063433Y-120247452D01*
X145142946Y-120221661D01*
X145224845Y-120219385D01*
X145305577Y-120240601D01*
X145381587Y-120285287D01*
X145398524Y-120299318D01*
X145455393Y-120361338D01*
X145489345Y-120429283D01*
X145502863Y-120508598D01*
X145503343Y-120529350D01*
X145994005Y-120529350D01*
X145995635Y-120521436D01*
X146007940Y-120491250D01*
X146059080Y-120419802D01*
X146124467Y-120366527D01*
X146199912Y-120332768D01*
X146281228Y-120319865D01*
X146364226Y-120329161D01*
X146432493Y-120355267D01*
X146504630Y-120405522D01*
X146557218Y-120468145D01*
X146590269Y-120539299D01*
X146603796Y-120615148D01*
X147002500Y-120615148D01*
X147002500Y-120193950D01*
X146961225Y-120187186D01*
X146942523Y-120185065D01*
X146900444Y-120180906D01*
X146836920Y-120174886D01*
X146753876Y-120167178D01*
X146653243Y-120157959D01*
X146536948Y-120147404D01*
X146406920Y-120135687D01*
X146265087Y-120122985D01*
X146113377Y-120109472D01*
X145953719Y-120095324D01*
X145840450Y-120085329D01*
X145659361Y-120069369D01*
X145472421Y-120052878D01*
X145283068Y-120036161D01*
X145094740Y-120019521D01*
X144910875Y-120003263D01*
X144734910Y-119987690D01*
X144570284Y-119973108D01*
X144420433Y-119959819D01*
X144288796Y-119948129D01*
X144178810Y-119938340D01*
X144172775Y-119937802D01*
X144053164Y-119927331D01*
X143941359Y-119917911D01*
X143839890Y-119909731D01*
X143751286Y-119902976D01*
X143678078Y-119897834D01*
X143622795Y-119894491D01*
X143587968Y-119893134D01*
X143576182Y-119893784D01*
G36*
X144900968Y-118090278D02*
X144822881Y-118100414D01*
X144805400Y-118104060D01*
X144661284Y-118147754D01*
X144523132Y-118211401D01*
X144388662Y-118296401D01*
X144255592Y-118404154D01*
X144150200Y-118506034D01*
X143994295Y-118683096D01*
X143861123Y-118868859D01*
X143787725Y-118992077D01*
X143752985Y-119055004D01*
X144371268Y-119268616D01*
X144486437Y-119308405D01*
X144622046Y-119355255D01*
X144774525Y-119407931D01*
X144940306Y-119465201D01*
X145115819Y-119525833D01*
X145297495Y-119588593D01*
X145481766Y-119652249D01*
X145665063Y-119715567D01*
X145843817Y-119777315D01*
X145986500Y-119826602D01*
X146139298Y-119879387D01*
X146285291Y-119929830D01*
X146422681Y-119977309D01*
X146549670Y-120021202D01*
X146664463Y-120060889D01*
X146765261Y-120095747D01*
X146850267Y-120125155D01*
X146917684Y-120148492D01*
X146965714Y-120165136D01*
X146992561Y-120174465D01*
X146997699Y-120176273D01*
X147006487Y-120166719D01*
X147016921Y-120132960D01*
X147028700Y-120076113D01*
X147035229Y-120037959D01*
X147046931Y-119944897D01*
X147054752Y-119838319D01*
X147058678Y-119724797D01*
X147058694Y-119610905D01*
X147054785Y-119503214D01*
X147046934Y-119408298D01*
X147036842Y-119340997D01*
X146990954Y-119164639D01*
X146986431Y-119153395D01*
X146506415Y-119153395D01*
X146504508Y-119200383D01*
X146493346Y-119286584D01*
X146471837Y-119349679D01*
X146437752Y-119399572D01*
X146388856Y-119451162D01*
X146333198Y-119497224D01*
X146278831Y-119530538D01*
X146262413Y-119537552D01*
X146201977Y-119551093D01*
X146129730Y-119554431D01*
X146055905Y-119548111D01*
X145990738Y-119532676D01*
X145964613Y-119521717D01*
X145886047Y-119468309D01*
X145825489Y-119400528D01*
X145783566Y-119322233D01*
X145760903Y-119237282D01*
X145758126Y-119149531D01*
X145775860Y-119062839D01*
X145814731Y-118981062D01*
X145866473Y-118916674D01*
X145941198Y-118858264D01*
X146018232Y-118824244D01*
X145397491Y-118824244D01*
X145381125Y-118907716D01*
X145363210Y-118949828D01*
X145333463Y-118993273D01*
X145290297Y-119038447D01*
X145241714Y-119078206D01*
X145195720Y-119105409D01*
X145183669Y-119110039D01*
X145117159Y-119122287D01*
X145044496Y-119121490D01*
X144980000Y-119107880D01*
X144903860Y-119068139D01*
X144842565Y-119010902D01*
X144798374Y-118940493D01*
X144773549Y-118861239D01*
X144770353Y-118777464D01*
X144780105Y-118725576D01*
X144802187Y-118674962D01*
X144838486Y-118621468D01*
X144851591Y-118606047D01*
X144920520Y-118546033D01*
X144996449Y-118509172D01*
X145076100Y-118495567D01*
X145156193Y-118505321D01*
X145233447Y-118538535D01*
X145301305Y-118591995D01*
X145357111Y-118663667D01*
X145389330Y-118741989D01*
X145397491Y-118824244D01*
X146018232Y-118824244D01*
X146023638Y-118821857D01*
X146110122Y-118806748D01*
X146196983Y-118812233D01*
X146280552Y-118837608D01*
X146357160Y-118882167D01*
X146423137Y-118945208D01*
X146474816Y-119026026D01*
X146478657Y-119034185D01*
X146495487Y-119075131D01*
X146504192Y-119111349D01*
X146506415Y-119153395D01*
X146986431Y-119153395D01*
X146926841Y-119005271D01*
X146844829Y-118863321D01*
X146745243Y-118739216D01*
X146628409Y-118633383D01*
X146494653Y-118546248D01*
X146394159Y-118497879D01*
X146354248Y-118482064D01*
X146295034Y-118459925D01*
X146219758Y-118432577D01*
X146131662Y-118401134D01*
X146033987Y-118366710D01*
X145929974Y-118330420D01*
X145822863Y-118293379D01*
X145715898Y-118256701D01*
X145612317Y-118221501D01*
X145515364Y-118188893D01*
X145428278Y-118159992D01*
X145354302Y-118135913D01*
X145296676Y-118117769D01*
X145258642Y-118106676D01*
X145250828Y-118104726D01*
X145176294Y-118092893D01*
X145086953Y-118086531D01*
X144992085Y-118085654D01*
X144900968Y-118090278D01*
X144900968Y-118090278D01*
G37*
X144900968Y-118090278D02*
X144822881Y-118100414D01*
X144805400Y-118104060D01*
X144661284Y-118147754D01*
X144523132Y-118211401D01*
X144388662Y-118296401D01*
X144255592Y-118404154D01*
X144150200Y-118506034D01*
X143994295Y-118683096D01*
X143861123Y-118868859D01*
X143787725Y-118992077D01*
X143752985Y-119055004D01*
X144371268Y-119268616D01*
X144486437Y-119308405D01*
X144622046Y-119355255D01*
X144774525Y-119407931D01*
X144940306Y-119465201D01*
X145115819Y-119525833D01*
X145297495Y-119588593D01*
X145481766Y-119652249D01*
X145665063Y-119715567D01*
X145843817Y-119777315D01*
X145986500Y-119826602D01*
X146139298Y-119879387D01*
X146285291Y-119929830D01*
X146422681Y-119977309D01*
X146549670Y-120021202D01*
X146664463Y-120060889D01*
X146765261Y-120095747D01*
X146850267Y-120125155D01*
X146917684Y-120148492D01*
X146965714Y-120165136D01*
X146992561Y-120174465D01*
X146997699Y-120176273D01*
X147006487Y-120166719D01*
X147016921Y-120132960D01*
X147028700Y-120076113D01*
X147035229Y-120037959D01*
X147046931Y-119944897D01*
X147054752Y-119838319D01*
X147058678Y-119724797D01*
X147058694Y-119610905D01*
X147054785Y-119503214D01*
X147046934Y-119408298D01*
X147036842Y-119340997D01*
X146990954Y-119164639D01*
X146986431Y-119153395D01*
X146506415Y-119153395D01*
X146504508Y-119200383D01*
X146493346Y-119286584D01*
X146471837Y-119349679D01*
X146437752Y-119399572D01*
X146388856Y-119451162D01*
X146333198Y-119497224D01*
X146278831Y-119530538D01*
X146262413Y-119537552D01*
X146201977Y-119551093D01*
X146129730Y-119554431D01*
X146055905Y-119548111D01*
X145990738Y-119532676D01*
X145964613Y-119521717D01*
X145886047Y-119468309D01*
X145825489Y-119400528D01*
X145783566Y-119322233D01*
X145760903Y-119237282D01*
X145758126Y-119149531D01*
X145775860Y-119062839D01*
X145814731Y-118981062D01*
X145866473Y-118916674D01*
X145941198Y-118858264D01*
X146018232Y-118824244D01*
X145397491Y-118824244D01*
X145381125Y-118907716D01*
X145363210Y-118949828D01*
X145333463Y-118993273D01*
X145290297Y-119038447D01*
X145241714Y-119078206D01*
X145195720Y-119105409D01*
X145183669Y-119110039D01*
X145117159Y-119122287D01*
X145044496Y-119121490D01*
X144980000Y-119107880D01*
X144903860Y-119068139D01*
X144842565Y-119010902D01*
X144798374Y-118940493D01*
X144773549Y-118861239D01*
X144770353Y-118777464D01*
X144780105Y-118725576D01*
X144802187Y-118674962D01*
X144838486Y-118621468D01*
X144851591Y-118606047D01*
X144920520Y-118546033D01*
X144996449Y-118509172D01*
X145076100Y-118495567D01*
X145156193Y-118505321D01*
X145233447Y-118538535D01*
X145301305Y-118591995D01*
X145357111Y-118663667D01*
X145389330Y-118741989D01*
X145397491Y-118824244D01*
X146018232Y-118824244D01*
X146023638Y-118821857D01*
X146110122Y-118806748D01*
X146196983Y-118812233D01*
X146280552Y-118837608D01*
X146357160Y-118882167D01*
X146423137Y-118945208D01*
X146474816Y-119026026D01*
X146478657Y-119034185D01*
X146495487Y-119075131D01*
X146504192Y-119111349D01*
X146506415Y-119153395D01*
X146986431Y-119153395D01*
X146926841Y-119005271D01*
X146844829Y-118863321D01*
X146745243Y-118739216D01*
X146628409Y-118633383D01*
X146494653Y-118546248D01*
X146394159Y-118497879D01*
X146354248Y-118482064D01*
X146295034Y-118459925D01*
X146219758Y-118432577D01*
X146131662Y-118401134D01*
X146033987Y-118366710D01*
X145929974Y-118330420D01*
X145822863Y-118293379D01*
X145715898Y-118256701D01*
X145612317Y-118221501D01*
X145515364Y-118188893D01*
X145428278Y-118159992D01*
X145354302Y-118135913D01*
X145296676Y-118117769D01*
X145258642Y-118106676D01*
X145250828Y-118104726D01*
X145176294Y-118092893D01*
X145086953Y-118086531D01*
X144992085Y-118085654D01*
X144900968Y-118090278D01*
D12*
X172000000Y-145000000D03*
X118000000Y-132500000D03*
X172000000Y-132500000D03*
D13*
X103378000Y-86360000D03*
D14*
X105918000Y-86360000D03*
D13*
X108712000Y-96520000D03*
D14*
X111252000Y-96520000D03*
D13*
X115570000Y-106172000D03*
D14*
X118110000Y-106172000D03*
D13*
X105918000Y-91186000D03*
D14*
X108458000Y-91186000D03*
D13*
X112014000Y-101600000D03*
D14*
X114554000Y-101600000D03*
D13*
X117856000Y-66802000D03*
D14*
X120396000Y-66802000D03*
D13*
X121412000Y-82296000D03*
D14*
X123952000Y-82296000D03*
D13*
X126238000Y-97790000D03*
D14*
X128778000Y-97790000D03*
D13*
X119126000Y-74422000D03*
D14*
X121666000Y-74422000D03*
D13*
X123698000Y-90678000D03*
D14*
X126238000Y-90678000D03*
D13*
X133096000Y-56896000D03*
D14*
X135636000Y-56896000D03*
D13*
X135890000Y-74930000D03*
D14*
X138430000Y-74930000D03*
D13*
X138430000Y-92202000D03*
D14*
X140970000Y-92202000D03*
D13*
X134366000Y-66802000D03*
D14*
X136906000Y-66802000D03*
D13*
X137160000Y-84328000D03*
D14*
X139700000Y-84328000D03*
D13*
X152400000Y-59944000D03*
D14*
X154940000Y-59944000D03*
D13*
X152146000Y-76032000D03*
D14*
X154686000Y-76032000D03*
D13*
X151638000Y-90424000D03*
D14*
X154178000Y-90424000D03*
D13*
X152400000Y-68580000D03*
D14*
X154940000Y-68580000D03*
D13*
X151892000Y-82804000D03*
D14*
X154432000Y-82804000D03*
D15*
X105380000Y-133000000D03*
D16*
X113000000Y-133000000D03*
D17*
X181000000Y-126550000D03*
X183500000Y-126550000D03*
X178500000Y-126550000D03*
X178500000Y-129850000D03*
X181000000Y-129850000D03*
X183500000Y-129850000D03*
D18*
X178300000Y-143620000D03*
D16*
X196080000Y-136000000D03*
X180840000Y-143620000D03*
X193540000Y-136000000D03*
X183380000Y-143620000D03*
X191000000Y-136000000D03*
X185920000Y-143620000D03*
X188460000Y-136000000D03*
X188460000Y-143620000D03*
X185920000Y-136000000D03*
X191000000Y-143620000D03*
X183380000Y-136000000D03*
X193540000Y-143620000D03*
X180840000Y-136000000D03*
X196080000Y-143620000D03*
X178300000Y-136000000D03*
D19*
X189000000Y-129000000D03*
D20*
X189000000Y-131540000D03*
D15*
X113750000Y-129500000D03*
X113750000Y-127000000D03*
D12*
X118000000Y-145000000D03*
D19*
X102460000Y-140000000D03*
D20*
X102460000Y-137460000D03*
X105000000Y-140000000D03*
X105000000Y-137460000D03*
X107540000Y-140000000D03*
X107540000Y-137460000D03*
X110080000Y-140000000D03*
X110080000Y-137460000D03*
X112620000Y-140000000D03*
X112620000Y-137460000D03*
D21*
X190100800Y-134874700D02*
X191000000Y-134874700D01*
X183981600Y-128755500D02*
X190100800Y-134874700D01*
X114494500Y-128755500D02*
X183981600Y-128755500D01*
X113750000Y-129500000D02*
X114494500Y-128755500D01*
X191000000Y-136000000D02*
X191000000Y-134874700D01*
X194954700Y-135718700D02*
X194954700Y-136000000D01*
X189507300Y-130271300D02*
X194954700Y-135718700D01*
X186295900Y-130271300D02*
X189507300Y-130271300D01*
X184224600Y-128200000D02*
X186295900Y-130271300D01*
X114950000Y-128200000D02*
X184224600Y-128200000D01*
X113750000Y-127000000D02*
X114950000Y-128200000D01*
X196080000Y-136000000D02*
X194954700Y-136000000D01*
X183996000Y-140000000D02*
X112620000Y-140000000D01*
X187334700Y-143338700D02*
X183996000Y-140000000D01*
X187334700Y-143620000D02*
X187334700Y-143338700D01*
X188460000Y-143620000D02*
X187334700Y-143620000D01*
X179714700Y-142916700D02*
X179714700Y-143620000D01*
X178473700Y-141675700D02*
X179714700Y-142916700D01*
X110078000Y-141675700D02*
X178473700Y-141675700D01*
X108810000Y-140407700D02*
X110078000Y-141675700D01*
X108810000Y-139569000D02*
X108810000Y-140407700D01*
X107876300Y-138635300D02*
X108810000Y-139569000D01*
X104443200Y-138635300D02*
X107876300Y-138635300D01*
X103635300Y-137827400D02*
X104443200Y-138635300D01*
X103635300Y-137460000D02*
X103635300Y-137827400D01*
X102460000Y-137460000D02*
X103635300Y-137460000D01*
X180840000Y-143620000D02*
X179714700Y-143620000D01*
X176049400Y-142494700D02*
X177174700Y-143620000D01*
X108302700Y-142494700D02*
X176049400Y-142494700D01*
X106175300Y-140367300D02*
X108302700Y-142494700D01*
X106175300Y-140000000D02*
X106175300Y-140367300D01*
X105000000Y-140000000D02*
X106175300Y-140000000D01*
X178300000Y-143620000D02*
X177174700Y-143620000D01*
X182254700Y-136281400D02*
X182254700Y-136000000D01*
X181410800Y-137125300D02*
X182254700Y-136281400D01*
X160252300Y-137125300D02*
X181410800Y-137125300D01*
X153261600Y-130134600D02*
X160252300Y-137125300D01*
X115051400Y-130134600D02*
X153261600Y-130134600D01*
X114234900Y-130951100D02*
X115051400Y-130134600D01*
X112873600Y-130951100D02*
X114234900Y-130951100D01*
X107540000Y-136284700D02*
X112873600Y-130951100D01*
X107540000Y-137460000D02*
X107540000Y-136284700D01*
X183380000Y-136000000D02*
X182254700Y-136000000D01*
X189874700Y-143338700D02*
X189874700Y-143620000D01*
X185627900Y-139091900D02*
X189874700Y-143338700D01*
X113934400Y-139091900D02*
X185627900Y-139091900D01*
X113628200Y-138785700D02*
X113934400Y-139091900D01*
X112102300Y-138785700D02*
X113628200Y-138785700D01*
X111255300Y-139632700D02*
X112102300Y-138785700D01*
X111255300Y-140000000D02*
X111255300Y-139632700D01*
X110080000Y-140000000D02*
X111255300Y-140000000D01*
X191000000Y-143620000D02*
X189874700Y-143620000D01*
X112620000Y-137460000D02*
X113795300Y-137460000D01*
X193540000Y-143620000D02*
X192414700Y-143620000D01*
X114837800Y-138502500D02*
X113795300Y-137460000D01*
X187578500Y-138502500D02*
X114837800Y-138502500D01*
X192414700Y-143338700D02*
X187578500Y-138502500D01*
X192414700Y-143620000D02*
X192414700Y-143338700D01*
X118737100Y-137611800D02*
X114125300Y-133000000D01*
X191084200Y-137611800D02*
X118737100Y-137611800D01*
X192414700Y-136281300D02*
X191084200Y-137611800D01*
X192414700Y-136000000D02*
X192414700Y-136281300D01*
X193540000Y-136000000D02*
X192414700Y-136000000D01*
X113000000Y-133000000D02*
X114125300Y-133000000D01*
X178300000Y-136000000D02*
X178300000Y-134874700D01*
X178300000Y-130050000D02*
X178300000Y-134874700D01*
X178500000Y-129850000D02*
X178300000Y-130050000D01*
X154432000Y-79543300D02*
X152146000Y-77257300D01*
X154432000Y-82804000D02*
X154432000Y-79543300D01*
X152146000Y-76032000D02*
X152146000Y-77257300D01*
X137160000Y-89706700D02*
X138430000Y-90976700D01*
X137160000Y-84328000D02*
X137160000Y-89706700D01*
X138430000Y-92202000D02*
X138430000Y-90976700D01*
X113239300Y-102616000D02*
X113239300Y-101600000D01*
X115570000Y-104946700D02*
X113239300Y-102616000D01*
X115570000Y-106172000D02*
X115570000Y-104946700D01*
X112014000Y-101600000D02*
X113239300Y-101600000D01*
X121412000Y-82296000D02*
X121412000Y-83521300D01*
X119126000Y-68072000D02*
X120396000Y-66802000D01*
X119126000Y-74422000D02*
X119126000Y-68072000D01*
X121412000Y-77933300D02*
X121412000Y-82296000D01*
X119126000Y-75647300D02*
X121412000Y-77933300D01*
X119126000Y-74422000D02*
X119126000Y-75647300D01*
X154432000Y-90170000D02*
X154178000Y-90424000D01*
X154432000Y-82804000D02*
X154432000Y-90170000D01*
X138430000Y-92202000D02*
X138430000Y-93377700D01*
X138430000Y-93377700D02*
X138430000Y-93427300D01*
X151174700Y-93427300D02*
X154178000Y-90424000D01*
X138430000Y-93427300D02*
X151174700Y-93427300D01*
X138293700Y-93563600D02*
X128998300Y-93563600D01*
X138430000Y-93427300D02*
X138293700Y-93563600D01*
X128998300Y-97569700D02*
X128778000Y-97790000D01*
X128998300Y-93563600D02*
X128998300Y-97569700D01*
X126238000Y-88347300D02*
X121412000Y-83521300D01*
X126238000Y-90678000D02*
X126238000Y-88347300D01*
X128998300Y-93438300D02*
X128998300Y-93563600D01*
X126238000Y-90678000D02*
X128998300Y-93438300D01*
X112014000Y-97282000D02*
X111252000Y-96520000D01*
X112014000Y-101600000D02*
X112014000Y-97282000D01*
X111252000Y-93980000D02*
X108458000Y-91186000D01*
X111252000Y-96520000D02*
X111252000Y-93980000D01*
X133096000Y-56896000D02*
X133096000Y-58121300D01*
X138430000Y-68326000D02*
X136906000Y-66802000D01*
X138430000Y-74930000D02*
X138430000Y-68326000D01*
X136906000Y-61931300D02*
X133096000Y-58121300D01*
X136906000Y-66802000D02*
X136906000Y-61931300D01*
X151638000Y-84283300D02*
X151638000Y-90424000D01*
X151892000Y-84029300D02*
X151638000Y-84283300D01*
X151892000Y-82804000D02*
X151892000Y-84029300D01*
X152400000Y-59944000D02*
X152400000Y-61169300D01*
X154686000Y-63455300D02*
X152400000Y-61169300D01*
X154686000Y-69061600D02*
X154686000Y-63455300D01*
X154686000Y-68834000D02*
X154686000Y-69061600D01*
X154940000Y-68580000D02*
X154686000Y-68834000D01*
X154686000Y-69061600D02*
X154686000Y-76032000D01*
X135890000Y-74930000D02*
X135890000Y-76155300D01*
X140970000Y-85598000D02*
X139700000Y-84328000D01*
X140970000Y-92202000D02*
X140970000Y-85598000D01*
X139700000Y-79965300D02*
X135890000Y-76155300D01*
X139700000Y-84328000D02*
X139700000Y-79965300D01*
X123952000Y-76708000D02*
X123952000Y-82296000D01*
X121666000Y-74422000D02*
X123952000Y-76708000D01*
X105918000Y-91186000D02*
X105918000Y-86360000D01*
X105918000Y-92500700D02*
X105918000Y-91186000D01*
X108712000Y-95294700D02*
X105918000Y-92500700D01*
X108712000Y-96520000D02*
X108712000Y-95294700D01*
X118586200Y-105156000D02*
X118110000Y-105156000D01*
X125012700Y-98729500D02*
X118586200Y-105156000D01*
X125012700Y-97790000D02*
X125012700Y-98729500D01*
X118110000Y-106172000D02*
X118110000Y-105156000D01*
X118110000Y-105156000D02*
X114554000Y-101600000D01*
X126238000Y-97790000D02*
X125012700Y-97790000D01*
D22*
G36*
X137649866Y-53392980D02*
X139782129Y-58131344D01*
X142303771Y-70487388D01*
X142807281Y-73508449D01*
X143565999Y-79578189D01*
X144580916Y-90742281D01*
X144609981Y-90840754D01*
X144628782Y-90941687D01*
X145136782Y-92211688D01*
X145139186Y-92215383D01*
X145140046Y-92219705D01*
X145214653Y-92331363D01*
X145287871Y-92443887D01*
X145291504Y-92446379D01*
X145293954Y-92450046D01*
X145405601Y-92524646D01*
X145516317Y-92600593D01*
X145520631Y-92601506D01*
X145524295Y-92603954D01*
X145655965Y-92630145D01*
X145787343Y-92657947D01*
X145791676Y-92657140D01*
X145796000Y-92658000D01*
X146304000Y-92658000D01*
X146402027Y-92638501D01*
X146501605Y-92629947D01*
X146536811Y-92611691D01*
X146575705Y-92603954D01*
X146658805Y-92548429D01*
X146747534Y-92502417D01*
X146773073Y-92472078D01*
X146806046Y-92450046D01*
X146861575Y-92366941D01*
X146925937Y-92290481D01*
X146937921Y-92252680D01*
X146959954Y-92219705D01*
X146979453Y-92121677D01*
X147009657Y-92026406D01*
X147263657Y-89740406D01*
X147262297Y-89724573D01*
X147266427Y-89709228D01*
X147774427Y-82089228D01*
X147772778Y-82076594D01*
X147775654Y-82064177D01*
X148029039Y-73955870D01*
X148534937Y-68138038D01*
X149283475Y-60652658D01*
X150724128Y-57771352D01*
X151803613Y-56260073D01*
X153689352Y-55841019D01*
X154852842Y-56034934D01*
X156632917Y-57815009D01*
X157811008Y-60406809D01*
X158549833Y-64839761D01*
X158802195Y-72915331D01*
X159056109Y-87388454D01*
X159057160Y-87393292D01*
X159056346Y-87398177D01*
X159310346Y-95526177D01*
X159313104Y-95538087D01*
X159311505Y-95550206D01*
X160073505Y-107234206D01*
X160081282Y-107263269D01*
X160079855Y-107293322D01*
X160841855Y-112373322D01*
X160847516Y-112389061D01*
X160847498Y-112405786D01*
X160894204Y-112518879D01*
X160935608Y-112634003D01*
X160946859Y-112646376D01*
X160953244Y-112661837D01*
X161039670Y-112748444D01*
X161121982Y-112838965D01*
X161137115Y-112846092D01*
X161148928Y-112857930D01*
X161261910Y-112904867D01*
X161372606Y-112957002D01*
X161389313Y-112957796D01*
X161404758Y-112964212D01*
X162674758Y-113218212D01*
X162720018Y-113218259D01*
X162763669Y-113230213D01*
X162857353Y-113218403D01*
X162951786Y-113218502D01*
X162993619Y-113201225D01*
X163038522Y-113195565D01*
X164562522Y-112687565D01*
X164618769Y-112655502D01*
X164680481Y-112635937D01*
X164737940Y-112587569D01*
X164803193Y-112550372D01*
X164842887Y-112499226D01*
X164892417Y-112457533D01*
X166924417Y-109917534D01*
X166972390Y-109825022D01*
X167029218Y-109737687D01*
X169052568Y-104679314D01*
X171800165Y-98934338D01*
X174945138Y-95063602D01*
X178052023Y-93629655D01*
X180544017Y-92882057D01*
X180643779Y-92829125D01*
X180747158Y-92783655D01*
X183287158Y-91005655D01*
X183289540Y-91003168D01*
X183292679Y-91001751D01*
X185070679Y-89731751D01*
X185076429Y-89725631D01*
X185084000Y-89722000D01*
X185218000Y-89621500D01*
X185218000Y-90532268D01*
X184513407Y-92176317D01*
X184508797Y-92198099D01*
X184497363Y-92217202D01*
X183227363Y-95773201D01*
X183226240Y-95780803D01*
X183222435Y-95787478D01*
X182460435Y-98073478D01*
X182446202Y-98186383D01*
X182424000Y-98298000D01*
X182424000Y-99822000D01*
X182448038Y-99942848D01*
X182466747Y-100064638D01*
X183440000Y-102741084D01*
X183440000Y-104560757D01*
X182630946Y-105208000D01*
X181650092Y-105208000D01*
X181096046Y-104653954D01*
X181052153Y-104624626D01*
X181016685Y-104585529D01*
X180938032Y-104548373D01*
X180865705Y-104500046D01*
X180813931Y-104489747D01*
X180766200Y-104467199D01*
X180679317Y-104462971D01*
X180594000Y-104446000D01*
X180542224Y-104456299D01*
X180489500Y-104453733D01*
X180407611Y-104483075D01*
X180322295Y-104500046D01*
X180278404Y-104529373D01*
X180228708Y-104547180D01*
X180164282Y-104605626D01*
X180091954Y-104653954D01*
X180062626Y-104697847D01*
X180023529Y-104733315D01*
X179986373Y-104811968D01*
X179938046Y-104884295D01*
X179927747Y-104936069D01*
X179905199Y-104983800D01*
X179667385Y-105935057D01*
X178175993Y-109166407D01*
X176937235Y-111643922D01*
X174939797Y-114390398D01*
X174886615Y-114505614D01*
X174829629Y-114618962D01*
X174828748Y-114630981D01*
X174823697Y-114641924D01*
X174818655Y-114768709D01*
X174809381Y-114895249D01*
X174813167Y-114906691D01*
X174812688Y-114918733D01*
X174856548Y-115037796D01*
X174896407Y-115158254D01*
X174904283Y-115167376D01*
X174908449Y-115178684D01*
X174994532Y-115271899D01*
X175077454Y-115367935D01*
X194563454Y-130559935D01*
X194586951Y-130571748D01*
X194605546Y-130590343D01*
X194709977Y-130633600D01*
X194810962Y-130684371D01*
X194837187Y-130686293D01*
X194861486Y-130696358D01*
X196636390Y-131049408D01*
X198023654Y-131976349D01*
X198950592Y-133363610D01*
X199290000Y-135069931D01*
X199290000Y-139930069D01*
X198569989Y-143549807D01*
X196559187Y-146559186D01*
X193549805Y-148569990D01*
X189930069Y-149290000D01*
X110069931Y-149290000D01*
X106450193Y-148569989D01*
X103440814Y-146559187D01*
X101430010Y-143549805D01*
X100710000Y-139930069D01*
X100710000Y-139150000D01*
X100962560Y-139150000D01*
X100962560Y-140850000D01*
X101006838Y-141085317D01*
X101145910Y-141301441D01*
X101358110Y-141446431D01*
X101610000Y-141497440D01*
X103310000Y-141497440D01*
X103545317Y-141453162D01*
X103761441Y-141314090D01*
X103906431Y-141101890D01*
X103920086Y-141034459D01*
X103949946Y-141079147D01*
X104431715Y-141401054D01*
X105000000Y-141514093D01*
X105568285Y-141401054D01*
X105907558Y-141174360D01*
X107765299Y-143032101D01*
X108011861Y-143196848D01*
X108302700Y-143254700D01*
X116018639Y-143254700D01*
X115767458Y-143505443D01*
X115365458Y-144473567D01*
X115364543Y-145521834D01*
X115764853Y-146490658D01*
X116505443Y-147232542D01*
X117473567Y-147634542D01*
X118521834Y-147635457D01*
X119490658Y-147235147D01*
X120232542Y-146494557D01*
X120634542Y-145526433D01*
X120635457Y-144478166D01*
X120235147Y-143509342D01*
X119980949Y-143254700D01*
X170018639Y-143254700D01*
X169767458Y-143505443D01*
X169365458Y-144473567D01*
X169364543Y-145521834D01*
X169764853Y-146490658D01*
X170505443Y-147232542D01*
X171473567Y-147634542D01*
X172521834Y-147635457D01*
X173490658Y-147235147D01*
X174232542Y-146494557D01*
X174634542Y-145526433D01*
X174635457Y-144478166D01*
X174235147Y-143509342D01*
X173980949Y-143254700D01*
X175734598Y-143254700D01*
X176637299Y-144157401D01*
X176852560Y-144301233D01*
X176852560Y-144420000D01*
X176896838Y-144655317D01*
X177035910Y-144871441D01*
X177248110Y-145016431D01*
X177500000Y-145067440D01*
X179100000Y-145067440D01*
X179335317Y-145023162D01*
X179551441Y-144884090D01*
X179696431Y-144671890D01*
X179727815Y-144516911D01*
X179825302Y-144662811D01*
X180290849Y-144973880D01*
X180840000Y-145083113D01*
X181389151Y-144973880D01*
X181854698Y-144662811D01*
X182110000Y-144280725D01*
X182365302Y-144662811D01*
X182830849Y-144973880D01*
X183380000Y-145083113D01*
X183929151Y-144973880D01*
X184394698Y-144662811D01*
X184650000Y-144280725D01*
X184905302Y-144662811D01*
X185370849Y-144973880D01*
X185920000Y-145083113D01*
X186469151Y-144973880D01*
X186934698Y-144662811D01*
X187148424Y-144342947D01*
X187244321Y-144362022D01*
X187445302Y-144662811D01*
X187910849Y-144973880D01*
X188460000Y-145083113D01*
X189009151Y-144973880D01*
X189474698Y-144662811D01*
X189688424Y-144342947D01*
X189784321Y-144362022D01*
X189985302Y-144662811D01*
X190450849Y-144973880D01*
X191000000Y-145083113D01*
X191549151Y-144973880D01*
X192014698Y-144662811D01*
X192228424Y-144342947D01*
X192324321Y-144362022D01*
X192525302Y-144662811D01*
X192990849Y-144973880D01*
X193540000Y-145083113D01*
X194089151Y-144973880D01*
X194554698Y-144662811D01*
X194824986Y-144258297D01*
X194927611Y-144475134D01*
X195342577Y-144851041D01*
X195730961Y-145011904D01*
X195953000Y-144889915D01*
X195953000Y-143747000D01*
X196207000Y-143747000D01*
X196207000Y-144889915D01*
X196429039Y-145011904D01*
X196817423Y-144851041D01*
X197232389Y-144475134D01*
X197471914Y-143969041D01*
X197350629Y-143747000D01*
X196207000Y-143747000D01*
X195953000Y-143747000D01*
X195933000Y-143747000D01*
X195933000Y-143493000D01*
X195953000Y-143493000D01*
X195953000Y-142350085D01*
X196207000Y-142350085D01*
X196207000Y-143493000D01*
X197350629Y-143493000D01*
X197471914Y-143270959D01*
X197232389Y-142764866D01*
X196817423Y-142388959D01*
X196429039Y-142228096D01*
X196207000Y-142350085D01*
X195953000Y-142350085D01*
X195730961Y-142228096D01*
X195342577Y-142388959D01*
X194927611Y-142764866D01*
X194824986Y-142981703D01*
X194554698Y-142577189D01*
X194089151Y-142266120D01*
X193540000Y-142156887D01*
X192990849Y-142266120D01*
X192646805Y-142496003D01*
X188522602Y-138371800D01*
X191084200Y-138371800D01*
X191375039Y-138313948D01*
X191621601Y-138149201D01*
X192646805Y-137123997D01*
X192990849Y-137353880D01*
X193540000Y-137463113D01*
X194089151Y-137353880D01*
X194554698Y-137042811D01*
X194768424Y-136722947D01*
X194864321Y-136742022D01*
X195065302Y-137042811D01*
X195530849Y-137353880D01*
X196080000Y-137463113D01*
X196629151Y-137353880D01*
X197094698Y-137042811D01*
X197405767Y-136577264D01*
X197515000Y-136028113D01*
X197515000Y-135971887D01*
X197405767Y-135422736D01*
X197094698Y-134957189D01*
X196629151Y-134646120D01*
X196080000Y-134536887D01*
X195530849Y-134646120D01*
X195186805Y-134876003D01*
X190432736Y-130121934D01*
X190446431Y-130101890D01*
X190497440Y-129850000D01*
X190497440Y-128150000D01*
X190453162Y-127914683D01*
X190314090Y-127698559D01*
X190101890Y-127553569D01*
X189850000Y-127502560D01*
X188150000Y-127502560D01*
X187914683Y-127546838D01*
X187698559Y-127685910D01*
X187553569Y-127898110D01*
X187502560Y-128150000D01*
X187502560Y-129511300D01*
X186610702Y-129511300D01*
X184762001Y-127662599D01*
X184515439Y-127497852D01*
X184511646Y-127497097D01*
X184673461Y-127335564D01*
X184884759Y-126826702D01*
X184885240Y-126275715D01*
X184674831Y-125766485D01*
X184285564Y-125376539D01*
X183776702Y-125165241D01*
X183225715Y-125164760D01*
X182716485Y-125375169D01*
X182326539Y-125764436D01*
X182250073Y-125948586D01*
X182174831Y-125766485D01*
X181785564Y-125376539D01*
X181276702Y-125165241D01*
X180725715Y-125164760D01*
X180216485Y-125375169D01*
X179826539Y-125764436D01*
X179750073Y-125948586D01*
X179674831Y-125766485D01*
X179285564Y-125376539D01*
X178776702Y-125165241D01*
X178225715Y-125164760D01*
X177716485Y-125375169D01*
X177326539Y-125764436D01*
X177115241Y-126273298D01*
X177114760Y-126824285D01*
X177325169Y-127333515D01*
X177431469Y-127440000D01*
X115264802Y-127440000D01*
X115163256Y-127338454D01*
X115184750Y-127286691D01*
X115185248Y-126715813D01*
X114967243Y-126188200D01*
X114563923Y-125784176D01*
X114036691Y-125565250D01*
X113465813Y-125564752D01*
X112938200Y-125782757D01*
X112534176Y-126186077D01*
X112315250Y-126713309D01*
X112314752Y-127284187D01*
X112532757Y-127811800D01*
X112936077Y-128215824D01*
X113017931Y-128249813D01*
X112938200Y-128282757D01*
X112534176Y-128686077D01*
X112315250Y-129213309D01*
X112314752Y-129784187D01*
X112523225Y-130288732D01*
X112336199Y-130413699D01*
X107002599Y-135747299D01*
X106837852Y-135993861D01*
X106802402Y-136172077D01*
X106489946Y-136380853D01*
X106270000Y-136710026D01*
X106050054Y-136380853D01*
X105568285Y-136058946D01*
X105000000Y-135945907D01*
X104431715Y-136058946D01*
X103949946Y-136380853D01*
X103730000Y-136710026D01*
X103510054Y-136380853D01*
X103028285Y-136058946D01*
X102460000Y-135945907D01*
X101891715Y-136058946D01*
X101409946Y-136380853D01*
X101088039Y-136862622D01*
X100975000Y-137430907D01*
X100975000Y-137489093D01*
X101088039Y-138057378D01*
X101409946Y-138539147D01*
X101411179Y-138539971D01*
X101374683Y-138546838D01*
X101158559Y-138685910D01*
X101013569Y-138898110D01*
X100962560Y-139150000D01*
X100710000Y-139150000D01*
X100710000Y-135069931D01*
X101049408Y-133363610D01*
X101102476Y-133284187D01*
X103944752Y-133284187D01*
X104162757Y-133811800D01*
X104566077Y-134215824D01*
X105093309Y-134434750D01*
X105664187Y-134435248D01*
X106191800Y-134217243D01*
X106595824Y-133813923D01*
X106814750Y-133286691D01*
X106815248Y-132715813D01*
X106597243Y-132188200D01*
X106193923Y-131784176D01*
X105666691Y-131565250D01*
X105095813Y-131564752D01*
X104568200Y-131782757D01*
X104164176Y-132186077D01*
X103945250Y-132713309D01*
X103944752Y-133284187D01*
X101102476Y-133284187D01*
X101976349Y-131976346D01*
X103363610Y-131049408D01*
X105138514Y-130696358D01*
X105159179Y-130687798D01*
X105181499Y-130686409D01*
X105286483Y-130635067D01*
X105394454Y-130590343D01*
X105410267Y-130574530D01*
X105430361Y-130564703D01*
X115766920Y-122687198D01*
X142273163Y-122687198D01*
X142283193Y-122741570D01*
X142282154Y-122756145D01*
X142284920Y-122764447D01*
X142284565Y-122816399D01*
X142300207Y-122854903D01*
X142305355Y-122896727D01*
X142314934Y-122913647D01*
X142318462Y-122932770D01*
X142354298Y-122988055D01*
X142378550Y-123047754D01*
X142394615Y-123064040D01*
X142399661Y-123075566D01*
X142414899Y-123090208D01*
X142428387Y-123114031D01*
X142439892Y-123127375D01*
X142449438Y-123134828D01*
X142454290Y-123142314D01*
X142494360Y-123169903D01*
X142512916Y-123184392D01*
X142520946Y-123192107D01*
X142553916Y-123225531D01*
X142557151Y-123226897D01*
X142579723Y-123248586D01*
X142612565Y-123269596D01*
X142631548Y-123277019D01*
X142636717Y-123281055D01*
X142640031Y-123281973D01*
X142655853Y-123294953D01*
X142707518Y-123322557D01*
X142719113Y-123326072D01*
X142728762Y-123333404D01*
X142796738Y-123366528D01*
X142803895Y-123368410D01*
X142809884Y-123372749D01*
X142834901Y-123384244D01*
X142832199Y-123399355D01*
X142833586Y-123470796D01*
X142822884Y-123541445D01*
X142826794Y-123626360D01*
X142841487Y-123685792D01*
X142843953Y-123746964D01*
X142864874Y-123833715D01*
X142887361Y-123882363D01*
X142898370Y-123934811D01*
X142935027Y-124020735D01*
X142962616Y-124061097D01*
X142979778Y-124106871D01*
X143030894Y-124189305D01*
X143062856Y-124223517D01*
X143085468Y-124264515D01*
X143149767Y-124340795D01*
X143186467Y-124370115D01*
X143214889Y-124407515D01*
X143291096Y-124474978D01*
X143333367Y-124499647D01*
X143368539Y-124533682D01*
X143455376Y-124589664D01*
X143503964Y-124608861D01*
X143546888Y-124638646D01*
X143643079Y-124680484D01*
X143685484Y-124689696D01*
X143724132Y-124709427D01*
X143781596Y-124725683D01*
X143808467Y-124727819D01*
X143833408Y-124738036D01*
X143911062Y-124753167D01*
X143924793Y-124753113D01*
X143937708Y-124757777D01*
X144038216Y-124772986D01*
X144046788Y-124772590D01*
X144054931Y-124775290D01*
X144175746Y-124790326D01*
X144181833Y-124789884D01*
X144187666Y-124791697D01*
X144326243Y-124806311D01*
X144331003Y-124805875D01*
X144335587Y-124807227D01*
X144489381Y-124821168D01*
X144493386Y-124820742D01*
X144497261Y-124821833D01*
X144663727Y-124834851D01*
X144667310Y-124834425D01*
X144670792Y-124835364D01*
X144847384Y-124847209D01*
X144850623Y-124846788D01*
X144853789Y-124847607D01*
X145022974Y-124857252D01*
X145028583Y-124856465D01*
X145034087Y-124857788D01*
X145097549Y-124860300D01*
X145102109Y-124859579D01*
X145106615Y-124860595D01*
X145192462Y-124862775D01*
X145194982Y-124862340D01*
X145197482Y-124862883D01*
X145302700Y-124864729D01*
X145304333Y-124864434D01*
X145305952Y-124864777D01*
X145427529Y-124866292D01*
X145428708Y-124866073D01*
X145429883Y-124866317D01*
X145564806Y-124867502D01*
X145565733Y-124867326D01*
X145566660Y-124867516D01*
X145711917Y-124868371D01*
X145712699Y-124868220D01*
X145713478Y-124868378D01*
X145866054Y-124868904D01*
X145866752Y-124868768D01*
X145867448Y-124868907D01*
X146024332Y-124869106D01*
X146024991Y-124868976D01*
X146025654Y-124869107D01*
X146183832Y-124868981D01*
X146184505Y-124868847D01*
X146185175Y-124868978D01*
X146341634Y-124868525D01*
X146342342Y-124868382D01*
X146343054Y-124868520D01*
X146494781Y-124867744D01*
X146495588Y-124867579D01*
X146496393Y-124867733D01*
X146640376Y-124866634D01*
X146641345Y-124866434D01*
X146642322Y-124866617D01*
X146775548Y-124865195D01*
X146776796Y-124864933D01*
X146778049Y-124865163D01*
X146897503Y-124863421D01*
X146899259Y-124863045D01*
X146901028Y-124863360D01*
X147003700Y-124861297D01*
X147006449Y-124860693D01*
X147009223Y-124861162D01*
X147092097Y-124858781D01*
X147095741Y-124857947D01*
X147099432Y-124858528D01*
X147136164Y-124857051D01*
X147140591Y-124855984D01*
X147145098Y-124856629D01*
X147292190Y-124848654D01*
X147298799Y-124846963D01*
X147305572Y-124847788D01*
X147428055Y-124838570D01*
X147438013Y-124835798D01*
X147448310Y-124836722D01*
X147546953Y-124826137D01*
X147562924Y-124821140D01*
X147579643Y-124821774D01*
X147655212Y-124809701D01*
X147683460Y-124799236D01*
X147713533Y-124797575D01*
X147766797Y-124783887D01*
X147824940Y-124755952D01*
X147887345Y-124739605D01*
X147919071Y-124724180D01*
X147960285Y-124692921D01*
X148007579Y-124671975D01*
X148058831Y-124618178D01*
X148082313Y-124600368D01*
X148092443Y-124593924D01*
X148094299Y-124591277D01*
X148118033Y-124573276D01*
X148144146Y-124528627D01*
X148179826Y-124491175D01*
X148190780Y-124473888D01*
X148208140Y-124428927D01*
X148235811Y-124389465D01*
X148237864Y-124380235D01*
X148242242Y-124373638D01*
X148255348Y-124306663D01*
X148280726Y-124240935D01*
X148279558Y-124192751D01*
X148290021Y-124145705D01*
X148290038Y-124144949D01*
X148288597Y-124136746D01*
X148290197Y-124128570D01*
X148276343Y-124060035D01*
X148274677Y-123991292D01*
X148255409Y-123947786D01*
X148246840Y-123898999D01*
X148242368Y-123891969D01*
X148240718Y-123883806D01*
X148230790Y-123860046D01*
X148200474Y-123814979D01*
X148180919Y-123764310D01*
X148131450Y-123712369D01*
X148091411Y-123652848D01*
X148046157Y-123622814D01*
X148044374Y-123620942D01*
X148016595Y-123589562D01*
X148012662Y-123587645D01*
X148008699Y-123583484D01*
X147997786Y-123575801D01*
X147937429Y-123549059D01*
X147929651Y-123542053D01*
X147918538Y-123538115D01*
X147883349Y-123514761D01*
X147849538Y-123508145D01*
X147792119Y-123480161D01*
X147765074Y-123473049D01*
X147728659Y-123470833D01*
X147694275Y-123458649D01*
X147651996Y-123452510D01*
X147633918Y-123453454D01*
X147616544Y-123448368D01*
X147557793Y-123443160D01*
X147547458Y-123444280D01*
X147537394Y-123441680D01*
X147460937Y-123437359D01*
X147454479Y-123438268D01*
X147448129Y-123436763D01*
X147428707Y-123436055D01*
X147430029Y-123426336D01*
X147429979Y-123425511D01*
X147430247Y-123424725D01*
X147441913Y-123337312D01*
X147441875Y-123336711D01*
X147442069Y-123336138D01*
X147454670Y-123240375D01*
X147454638Y-123239889D01*
X147454794Y-123239427D01*
X147467933Y-123138409D01*
X147467904Y-123137971D01*
X147468043Y-123137557D01*
X147481322Y-123034380D01*
X147481293Y-123033959D01*
X147481428Y-123033556D01*
X147494452Y-122931312D01*
X147494421Y-122930861D01*
X147494564Y-122930430D01*
X147506936Y-122832216D01*
X147506898Y-122831679D01*
X147507067Y-122831168D01*
X147510258Y-122805494D01*
X147518389Y-122740084D01*
X147518338Y-122739390D01*
X147518556Y-122738729D01*
X147528434Y-122657856D01*
X147528357Y-122656826D01*
X147528676Y-122655845D01*
X147536711Y-122588285D01*
X147536571Y-122586488D01*
X147537120Y-122584768D01*
X147542917Y-122533615D01*
X147542556Y-122529305D01*
X147543817Y-122525169D01*
X147546979Y-122493517D01*
X147544993Y-122473063D01*
X147549729Y-122453068D01*
X147550064Y-122443821D01*
X147541036Y-122387928D01*
X147544230Y-122331395D01*
X147529256Y-122288556D01*
X147548603Y-122267574D01*
X147565910Y-122220482D01*
X147593783Y-122178767D01*
X147608580Y-122104378D01*
X147634744Y-122033186D01*
X147632712Y-121983057D01*
X147642500Y-121933850D01*
X147642500Y-120265431D01*
X147643609Y-120262813D01*
X147655388Y-120205966D01*
X147655478Y-120194639D01*
X147659530Y-120184062D01*
X147666059Y-120145908D01*
X147665672Y-120131492D01*
X147670229Y-120117806D01*
X147681931Y-120024744D01*
X147680733Y-120007957D01*
X147685215Y-119991736D01*
X147693036Y-119885158D01*
X147691492Y-119872679D01*
X147694370Y-119860439D01*
X147698296Y-119746917D01*
X147696492Y-119735866D01*
X147698678Y-119724887D01*
X147698694Y-119610995D01*
X147696385Y-119599381D01*
X147698273Y-119587689D01*
X147694364Y-119479998D01*
X147690901Y-119465381D01*
X147692607Y-119450456D01*
X147684756Y-119355540D01*
X147678837Y-119334868D01*
X147679858Y-119313389D01*
X147669766Y-119246088D01*
X147658205Y-119213939D01*
X147656218Y-119179836D01*
X147610331Y-119003478D01*
X147592350Y-118966341D01*
X147584716Y-118925793D01*
X147580192Y-118914549D01*
X147580186Y-118914540D01*
X147580184Y-118914529D01*
X147520594Y-118766405D01*
X147495664Y-118728257D01*
X147481001Y-118685103D01*
X147398989Y-118543154D01*
X147366637Y-118506286D01*
X147343992Y-118462776D01*
X147244406Y-118338671D01*
X147205318Y-118305866D01*
X147174909Y-118264888D01*
X147058075Y-118159055D01*
X147014272Y-118132817D01*
X146977747Y-118097134D01*
X146843991Y-118009999D01*
X146805418Y-117994546D01*
X146772215Y-117969569D01*
X146671722Y-117921200D01*
X146649341Y-117915432D01*
X146629928Y-117902889D01*
X146590017Y-117887074D01*
X146583775Y-117885932D01*
X146578379Y-117882593D01*
X146519165Y-117860454D01*
X146516169Y-117859966D01*
X146513573Y-117858393D01*
X146438296Y-117831045D01*
X146436476Y-117830766D01*
X146434893Y-117829819D01*
X146346797Y-117798376D01*
X146345512Y-117798186D01*
X146344395Y-117797524D01*
X146246720Y-117763100D01*
X146245703Y-117762954D01*
X146244818Y-117762433D01*
X146140805Y-117726143D01*
X146139918Y-117726019D01*
X146139144Y-117725566D01*
X146032033Y-117688525D01*
X146031189Y-117688409D01*
X146030453Y-117687981D01*
X145923487Y-117651303D01*
X145922600Y-117651183D01*
X145921824Y-117650735D01*
X145818243Y-117615535D01*
X145817226Y-117615401D01*
X145816337Y-117614891D01*
X145719384Y-117582283D01*
X145718086Y-117582116D01*
X145716948Y-117581469D01*
X145629862Y-117552568D01*
X145628003Y-117552336D01*
X145626367Y-117551419D01*
X145552391Y-117527340D01*
X145549267Y-117526969D01*
X145546509Y-117525457D01*
X145488883Y-117507313D01*
X145482008Y-117506563D01*
X145475873Y-117503368D01*
X145437838Y-117492275D01*
X145425137Y-117491162D01*
X145413603Y-117485719D01*
X145405789Y-117483769D01*
X145377625Y-117482410D01*
X145351177Y-117472642D01*
X145276643Y-117460809D01*
X145248710Y-117461896D01*
X145221753Y-117454510D01*
X145132412Y-117448148D01*
X145112510Y-117450654D01*
X145092869Y-117446558D01*
X144998001Y-117445681D01*
X144978889Y-117449299D01*
X144959648Y-117446477D01*
X144868531Y-117451101D01*
X144843914Y-117457309D01*
X144818585Y-117455603D01*
X144740498Y-117465739D01*
X144717005Y-117473666D01*
X144692208Y-117473896D01*
X144674728Y-117477542D01*
X144648294Y-117488780D01*
X144619708Y-117491591D01*
X144475592Y-117535285D01*
X144436543Y-117556150D01*
X144393487Y-117566475D01*
X144255335Y-117630122D01*
X144220895Y-117655131D01*
X144181170Y-117670418D01*
X144046701Y-117755418D01*
X144019331Y-117781434D01*
X143985908Y-117799018D01*
X143852838Y-117906772D01*
X143834668Y-117928619D01*
X143810775Y-117944004D01*
X143705383Y-118045884D01*
X143690553Y-118067285D01*
X143669865Y-118083094D01*
X143513960Y-118260156D01*
X143497743Y-118288116D01*
X143474148Y-118310206D01*
X143340976Y-118495969D01*
X143329649Y-118520954D01*
X143311281Y-118541332D01*
X143237883Y-118664550D01*
X143234316Y-118674604D01*
X143227437Y-118682759D01*
X143192697Y-118745687D01*
X143175948Y-118798322D01*
X143148070Y-118846011D01*
X143138447Y-118916170D01*
X143116976Y-118983645D01*
X143121644Y-119038681D01*
X143114138Y-119093410D01*
X143132097Y-119161912D01*
X143138082Y-119232467D01*
X143163458Y-119281531D01*
X143177466Y-119334962D01*
X143210164Y-119378055D01*
X143175330Y-119409819D01*
X143175107Y-119409987D01*
X143153383Y-119423309D01*
X143148605Y-119429890D01*
X143099400Y-119466843D01*
X143083728Y-119493350D01*
X143060976Y-119514097D01*
X143046878Y-119544140D01*
X143043156Y-119547813D01*
X143025340Y-119590037D01*
X143020638Y-119600057D01*
X142972309Y-119681798D01*
X142967974Y-119712284D01*
X142954893Y-119740159D01*
X142951658Y-119753246D01*
X142951067Y-119766064D01*
X142946079Y-119777886D01*
X142938772Y-119813398D01*
X142938754Y-119816190D01*
X142937689Y-119818775D01*
X142926771Y-119874239D01*
X142926773Y-119875476D01*
X142926308Y-119876618D01*
X142912236Y-119949562D01*
X142912240Y-119950279D01*
X142911970Y-119950946D01*
X142895204Y-120038896D01*
X142895208Y-120039372D01*
X142895031Y-120039810D01*
X142876027Y-120140292D01*
X142876030Y-120140642D01*
X142875899Y-120140969D01*
X142855116Y-120251510D01*
X142855119Y-120251795D01*
X142855014Y-120252057D01*
X142832911Y-120370184D01*
X142832914Y-120370423D01*
X142832825Y-120370645D01*
X142809859Y-120493884D01*
X142809862Y-120494104D01*
X142809780Y-120494308D01*
X142786410Y-120620186D01*
X142786413Y-120620400D01*
X142786333Y-120620600D01*
X142763018Y-120746643D01*
X142763021Y-120746860D01*
X142762941Y-120747061D01*
X142740138Y-120870796D01*
X142740141Y-120871032D01*
X142740053Y-120871255D01*
X142718221Y-120990209D01*
X142718225Y-120990482D01*
X142718125Y-120990735D01*
X142697721Y-121102433D01*
X142697726Y-121102776D01*
X142697600Y-121103096D01*
X142679084Y-121205066D01*
X142679092Y-121205517D01*
X142678926Y-121205938D01*
X142662755Y-121295706D01*
X142662767Y-121296384D01*
X142662520Y-121297017D01*
X142649153Y-121372109D01*
X142649176Y-121373244D01*
X142648765Y-121374307D01*
X142638659Y-121432252D01*
X142638717Y-121434716D01*
X142637847Y-121437018D01*
X142631461Y-121475340D01*
X142631461Y-121475348D01*
X142624226Y-121495550D01*
X142623698Y-121499101D01*
X142621885Y-121502201D01*
X142598848Y-121568828D01*
X142598560Y-121570925D01*
X142597505Y-121572756D01*
X142570756Y-121651772D01*
X142570567Y-121653220D01*
X142569843Y-121654489D01*
X142540346Y-121742928D01*
X142540202Y-121744066D01*
X142539640Y-121745060D01*
X142508358Y-121839959D01*
X142508239Y-121840930D01*
X142507759Y-121841784D01*
X142475653Y-121940175D01*
X142475543Y-121941098D01*
X142475089Y-121941911D01*
X142443122Y-122040832D01*
X142443010Y-122041791D01*
X142442544Y-122042632D01*
X142411678Y-122139116D01*
X142411554Y-122140206D01*
X142411028Y-122141163D01*
X142382227Y-122232247D01*
X142382077Y-122233610D01*
X142381419Y-122234818D01*
X142355646Y-122317536D01*
X142355444Y-122319442D01*
X142354539Y-122321128D01*
X142332756Y-122392515D01*
X142332448Y-122395589D01*
X142331012Y-122398327D01*
X142314181Y-122455417D01*
X142313617Y-122461641D01*
X142310821Y-122467231D01*
X142299905Y-122507062D01*
X142298422Y-122527868D01*
X142290308Y-122547085D01*
X142286269Y-122566690D01*
X142285982Y-122608681D01*
X142274847Y-122648882D01*
X142277201Y-122668009D01*
X142273167Y-122686911D01*
X142273163Y-122687198D01*
X115766920Y-122687198D01*
X118032361Y-120960703D01*
X118109465Y-120873365D01*
X118191930Y-120791072D01*
X118200654Y-120770072D01*
X118215704Y-120753025D01*
X118253516Y-120642831D01*
X118298213Y-120535242D01*
X118298237Y-120512502D01*
X118305617Y-120490994D01*
X118298380Y-120374719D01*
X118298502Y-120258214D01*
X118289821Y-120237195D01*
X118288409Y-120214501D01*
X118237230Y-120109850D01*
X118192756Y-120002163D01*
X117714621Y-119284961D01*
X114181390Y-111713751D01*
X114116748Y-111625646D01*
X114059711Y-111532421D01*
X111062879Y-108285854D01*
X107805463Y-102773302D01*
X103275359Y-94468112D01*
X101294000Y-87781026D01*
X101294000Y-83948749D01*
X101872225Y-82406815D01*
X103881033Y-82005054D01*
X107022961Y-82678324D01*
X112448633Y-90323590D01*
X117018243Y-96924139D01*
X117022063Y-96927835D01*
X117024249Y-96932679D01*
X120653612Y-102013787D01*
X118348100Y-104319298D01*
X116043766Y-102014964D01*
X116088733Y-101906670D01*
X116089265Y-101296009D01*
X115856068Y-100731629D01*
X115424643Y-100299449D01*
X114860670Y-100065267D01*
X114250009Y-100064735D01*
X113685629Y-100297932D01*
X113517387Y-100465880D01*
X113517162Y-100464683D01*
X113378090Y-100248559D01*
X113165890Y-100103569D01*
X112914000Y-100052560D01*
X112774000Y-100052560D01*
X112774000Y-97282000D01*
X112716887Y-96994877D01*
X112786733Y-96826670D01*
X112787265Y-96216009D01*
X112554068Y-95651629D01*
X112122643Y-95219449D01*
X112012000Y-95173506D01*
X112012000Y-93980000D01*
X111954148Y-93689161D01*
X111789401Y-93442599D01*
X109947766Y-91600964D01*
X109992733Y-91492670D01*
X109993265Y-90882009D01*
X109760068Y-90317629D01*
X109328643Y-89885449D01*
X108764670Y-89651267D01*
X108154009Y-89650735D01*
X107589629Y-89883932D01*
X107421387Y-90051880D01*
X107421162Y-90050683D01*
X107282090Y-89834559D01*
X107069890Y-89689569D01*
X106818000Y-89638560D01*
X106678000Y-89638560D01*
X106678000Y-87706846D01*
X106786371Y-87662068D01*
X107218551Y-87230643D01*
X107452733Y-86666670D01*
X107453265Y-86056009D01*
X107220068Y-85491629D01*
X106788643Y-85059449D01*
X106224670Y-84825267D01*
X105614009Y-84824735D01*
X105049629Y-85057932D01*
X104881387Y-85225880D01*
X104881162Y-85224683D01*
X104742090Y-85008559D01*
X104529890Y-84863569D01*
X104278000Y-84812560D01*
X102478000Y-84812560D01*
X102242683Y-84856838D01*
X102026559Y-84995910D01*
X101881569Y-85208110D01*
X101830560Y-85460000D01*
X101830560Y-87260000D01*
X101874838Y-87495317D01*
X102013910Y-87711441D01*
X102226110Y-87856431D01*
X102478000Y-87907440D01*
X104278000Y-87907440D01*
X104513317Y-87863162D01*
X104729441Y-87724090D01*
X104874431Y-87511890D01*
X104878567Y-87491466D01*
X105047357Y-87660551D01*
X105158000Y-87706494D01*
X105158000Y-89638560D01*
X105018000Y-89638560D01*
X104782683Y-89682838D01*
X104566559Y-89821910D01*
X104421569Y-90034110D01*
X104370560Y-90286000D01*
X104370560Y-92086000D01*
X104414838Y-92321317D01*
X104553910Y-92537441D01*
X104766110Y-92682431D01*
X105018000Y-92733440D01*
X105204295Y-92733440D01*
X105215852Y-92791539D01*
X105380599Y-93038101D01*
X107444435Y-95101937D01*
X107360559Y-95155910D01*
X107215569Y-95368110D01*
X107164560Y-95620000D01*
X107164560Y-97420000D01*
X107208838Y-97655317D01*
X107347910Y-97871441D01*
X107560110Y-98016431D01*
X107812000Y-98067440D01*
X109612000Y-98067440D01*
X109847317Y-98023162D01*
X110063441Y-97884090D01*
X110208431Y-97671890D01*
X110212567Y-97651466D01*
X110381357Y-97820551D01*
X110945330Y-98054733D01*
X111254000Y-98055002D01*
X111254000Y-100052560D01*
X111114000Y-100052560D01*
X110878683Y-100096838D01*
X110662559Y-100235910D01*
X110517569Y-100448110D01*
X110466560Y-100700000D01*
X110466560Y-102500000D01*
X110510838Y-102735317D01*
X110649910Y-102951441D01*
X110862110Y-103096431D01*
X111114000Y-103147440D01*
X112697916Y-103147440D01*
X112701899Y-103153401D01*
X114302435Y-104753937D01*
X114218559Y-104807910D01*
X114073569Y-105020110D01*
X114022560Y-105272000D01*
X114022560Y-107072000D01*
X114066838Y-107307317D01*
X114205910Y-107523441D01*
X114418110Y-107668431D01*
X114670000Y-107719440D01*
X116470000Y-107719440D01*
X116705317Y-107675162D01*
X116921441Y-107536090D01*
X117066431Y-107323890D01*
X117070567Y-107303466D01*
X117239357Y-107472551D01*
X117803330Y-107706733D01*
X118413991Y-107707265D01*
X118978371Y-107474068D01*
X119410551Y-107042643D01*
X119644733Y-106478670D01*
X119645265Y-105868009D01*
X119441688Y-105375314D01*
X125479562Y-99337440D01*
X127138000Y-99337440D01*
X127373317Y-99293162D01*
X127589441Y-99154090D01*
X127734431Y-98941890D01*
X127738567Y-98921466D01*
X127907357Y-99090551D01*
X128471330Y-99324733D01*
X129081991Y-99325265D01*
X129646371Y-99092068D01*
X130078551Y-98660643D01*
X130312733Y-98096670D01*
X130313265Y-97486009D01*
X130080068Y-96921629D01*
X129758300Y-96599298D01*
X129758300Y-94323600D01*
X138293700Y-94323600D01*
X138584539Y-94265748D01*
X138701945Y-94187300D01*
X151174700Y-94187300D01*
X151465539Y-94129448D01*
X151712101Y-93964701D01*
X153763036Y-91913766D01*
X153871330Y-91958733D01*
X154481991Y-91959265D01*
X155046371Y-91726068D01*
X155478551Y-91294643D01*
X155712733Y-90730670D01*
X155713265Y-90120009D01*
X155480068Y-89555629D01*
X155192000Y-89267057D01*
X155192000Y-84150846D01*
X155300371Y-84106068D01*
X155732551Y-83674643D01*
X155966733Y-83110670D01*
X155967265Y-82500009D01*
X155734068Y-81935629D01*
X155302643Y-81503449D01*
X155192000Y-81457506D01*
X155192000Y-79543300D01*
X155169045Y-79427899D01*
X155134148Y-79252460D01*
X154969401Y-79005899D01*
X153413565Y-77450063D01*
X153497441Y-77396090D01*
X153642431Y-77183890D01*
X153646567Y-77163466D01*
X153815357Y-77332551D01*
X154379330Y-77566733D01*
X154989991Y-77567265D01*
X155554371Y-77334068D01*
X155986551Y-76902643D01*
X156220733Y-76338670D01*
X156221265Y-75728009D01*
X155988068Y-75163629D01*
X155556643Y-74731449D01*
X155446000Y-74685506D01*
X155446000Y-70031797D01*
X155808371Y-69882068D01*
X156240551Y-69450643D01*
X156474733Y-68886670D01*
X156475265Y-68276009D01*
X156242068Y-67711629D01*
X155810643Y-67279449D01*
X155446000Y-67128036D01*
X155446000Y-63455300D01*
X155388148Y-63164461D01*
X155388148Y-63164460D01*
X155223401Y-62917899D01*
X153667565Y-61362063D01*
X153751441Y-61308090D01*
X153896431Y-61095890D01*
X153900567Y-61075466D01*
X154069357Y-61244551D01*
X154633330Y-61478733D01*
X155243991Y-61479265D01*
X155808371Y-61246068D01*
X156240551Y-60814643D01*
X156474733Y-60250670D01*
X156475265Y-59640009D01*
X156242068Y-59075629D01*
X155810643Y-58643449D01*
X155246670Y-58409267D01*
X154636009Y-58408735D01*
X154071629Y-58641932D01*
X153903387Y-58809880D01*
X153903162Y-58808683D01*
X153764090Y-58592559D01*
X153551890Y-58447569D01*
X153300000Y-58396560D01*
X151500000Y-58396560D01*
X151264683Y-58440838D01*
X151048559Y-58579910D01*
X150903569Y-58792110D01*
X150852560Y-59044000D01*
X150852560Y-60844000D01*
X150896838Y-61079317D01*
X151035910Y-61295441D01*
X151248110Y-61440431D01*
X151500000Y-61491440D01*
X151718767Y-61491440D01*
X151862599Y-61706701D01*
X153926000Y-63770102D01*
X153926000Y-67423307D01*
X153903387Y-67445880D01*
X153903162Y-67444683D01*
X153764090Y-67228559D01*
X153551890Y-67083569D01*
X153300000Y-67032560D01*
X151500000Y-67032560D01*
X151264683Y-67076838D01*
X151048559Y-67215910D01*
X150903569Y-67428110D01*
X150852560Y-67680000D01*
X150852560Y-69480000D01*
X150896838Y-69715317D01*
X151035910Y-69931441D01*
X151248110Y-70076431D01*
X151500000Y-70127440D01*
X153300000Y-70127440D01*
X153535317Y-70083162D01*
X153751441Y-69944090D01*
X153896431Y-69731890D01*
X153900567Y-69711466D01*
X153926000Y-69736943D01*
X153926000Y-74685154D01*
X153817629Y-74729932D01*
X153649387Y-74897880D01*
X153649162Y-74896683D01*
X153510090Y-74680559D01*
X153297890Y-74535569D01*
X153046000Y-74484560D01*
X151246000Y-74484560D01*
X151010683Y-74528838D01*
X150794559Y-74667910D01*
X150649569Y-74880110D01*
X150598560Y-75132000D01*
X150598560Y-76932000D01*
X150642838Y-77167317D01*
X150781910Y-77383441D01*
X150994110Y-77528431D01*
X151246000Y-77579440D01*
X151464767Y-77579440D01*
X151608599Y-77794701D01*
X153672000Y-79858102D01*
X153672000Y-81457154D01*
X153563629Y-81501932D01*
X153395387Y-81669880D01*
X153395162Y-81668683D01*
X153256090Y-81452559D01*
X153043890Y-81307569D01*
X152792000Y-81256560D01*
X150992000Y-81256560D01*
X150756683Y-81300838D01*
X150540559Y-81439910D01*
X150395569Y-81652110D01*
X150344560Y-81904000D01*
X150344560Y-83704000D01*
X150388838Y-83939317D01*
X150527910Y-84155441D01*
X150740110Y-84300431D01*
X150878000Y-84328354D01*
X150878000Y-88876560D01*
X150738000Y-88876560D01*
X150502683Y-88920838D01*
X150286559Y-89059910D01*
X150141569Y-89272110D01*
X150090560Y-89524000D01*
X150090560Y-91324000D01*
X150134838Y-91559317D01*
X150273910Y-91775441D01*
X150486110Y-91920431D01*
X150738000Y-91971440D01*
X151555758Y-91971440D01*
X150859898Y-92667300D01*
X142438864Y-92667300D01*
X142504733Y-92508670D01*
X142505265Y-91898009D01*
X142272068Y-91333629D01*
X141840643Y-90901449D01*
X141730000Y-90855506D01*
X141730000Y-85598000D01*
X141672148Y-85307161D01*
X141672148Y-85307160D01*
X141507401Y-85060599D01*
X141189766Y-84742964D01*
X141234733Y-84634670D01*
X141235265Y-84024009D01*
X141002068Y-83459629D01*
X140570643Y-83027449D01*
X140460000Y-82981506D01*
X140460000Y-79965300D01*
X140402148Y-79674461D01*
X140237401Y-79427899D01*
X137157565Y-76348063D01*
X137241441Y-76294090D01*
X137386431Y-76081890D01*
X137390567Y-76061466D01*
X137559357Y-76230551D01*
X138123330Y-76464733D01*
X138733991Y-76465265D01*
X139298371Y-76232068D01*
X139730551Y-75800643D01*
X139964733Y-75236670D01*
X139965265Y-74626009D01*
X139732068Y-74061629D01*
X139300643Y-73629449D01*
X139190000Y-73583506D01*
X139190000Y-68326000D01*
X139132148Y-68035161D01*
X139132148Y-68035160D01*
X138967401Y-67788599D01*
X138395766Y-67216964D01*
X138440733Y-67108670D01*
X138441265Y-66498009D01*
X138208068Y-65933629D01*
X137776643Y-65501449D01*
X137666000Y-65455506D01*
X137666000Y-61931300D01*
X137608148Y-61640461D01*
X137443401Y-61393899D01*
X134363565Y-58314063D01*
X134447441Y-58260090D01*
X134592431Y-58047890D01*
X134596567Y-58027466D01*
X134765357Y-58196551D01*
X135329330Y-58430733D01*
X135939991Y-58431265D01*
X136504371Y-58198068D01*
X136936551Y-57766643D01*
X137170733Y-57202670D01*
X137171265Y-56592009D01*
X136938068Y-56027629D01*
X136506643Y-55595449D01*
X135942670Y-55361267D01*
X135332009Y-55360735D01*
X134767629Y-55593932D01*
X134599387Y-55761880D01*
X134599162Y-55760683D01*
X134460090Y-55544559D01*
X134247890Y-55399569D01*
X133996000Y-55348560D01*
X132196000Y-55348560D01*
X131960683Y-55392838D01*
X131744559Y-55531910D01*
X131599569Y-55744110D01*
X131548560Y-55996000D01*
X131548560Y-57796000D01*
X131592838Y-58031317D01*
X131731910Y-58247441D01*
X131944110Y-58392431D01*
X132196000Y-58443440D01*
X132414767Y-58443440D01*
X132558599Y-58658701D01*
X136146000Y-62246102D01*
X136146000Y-65455154D01*
X136037629Y-65499932D01*
X135869387Y-65667880D01*
X135869162Y-65666683D01*
X135730090Y-65450559D01*
X135517890Y-65305569D01*
X135266000Y-65254560D01*
X133466000Y-65254560D01*
X133230683Y-65298838D01*
X133014559Y-65437910D01*
X132869569Y-65650110D01*
X132818560Y-65902000D01*
X132818560Y-67702000D01*
X132862838Y-67937317D01*
X133001910Y-68153441D01*
X133214110Y-68298431D01*
X133466000Y-68349440D01*
X135266000Y-68349440D01*
X135501317Y-68305162D01*
X135717441Y-68166090D01*
X135862431Y-67953890D01*
X135866567Y-67933466D01*
X136035357Y-68102551D01*
X136599330Y-68336733D01*
X137209991Y-68337265D01*
X137320713Y-68291515D01*
X137670000Y-68640802D01*
X137670000Y-73583154D01*
X137561629Y-73627932D01*
X137393387Y-73795880D01*
X137393162Y-73794683D01*
X137254090Y-73578559D01*
X137041890Y-73433569D01*
X136790000Y-73382560D01*
X134990000Y-73382560D01*
X134754683Y-73426838D01*
X134538559Y-73565910D01*
X134393569Y-73778110D01*
X134342560Y-74030000D01*
X134342560Y-75830000D01*
X134386838Y-76065317D01*
X134525910Y-76281441D01*
X134738110Y-76426431D01*
X134990000Y-76477440D01*
X135208767Y-76477440D01*
X135352599Y-76692701D01*
X138940000Y-80280102D01*
X138940000Y-82981154D01*
X138831629Y-83025932D01*
X138663387Y-83193880D01*
X138663162Y-83192683D01*
X138524090Y-82976559D01*
X138311890Y-82831569D01*
X138060000Y-82780560D01*
X136260000Y-82780560D01*
X136024683Y-82824838D01*
X135808559Y-82963910D01*
X135663569Y-83176110D01*
X135612560Y-83428000D01*
X135612560Y-85228000D01*
X135656838Y-85463317D01*
X135795910Y-85679441D01*
X136008110Y-85824431D01*
X136260000Y-85875440D01*
X136400000Y-85875440D01*
X136400000Y-89706700D01*
X136457852Y-89997539D01*
X136622599Y-90244101D01*
X137162435Y-90783937D01*
X137078559Y-90837910D01*
X136933569Y-91050110D01*
X136882560Y-91302000D01*
X136882560Y-92803600D01*
X133850981Y-92803600D01*
X134056476Y-90748648D01*
X134048194Y-90663257D01*
X134052864Y-90577590D01*
X133544864Y-87021591D01*
X133520432Y-86952136D01*
X133509253Y-86879363D01*
X132522278Y-84165180D01*
X132279098Y-81976561D01*
X131772060Y-75131551D01*
X131765802Y-75108963D01*
X131767143Y-75085560D01*
X129991316Y-62401078D01*
X129506477Y-57310273D01*
X131082494Y-54608528D01*
X133585845Y-53015487D01*
X136046657Y-52791777D01*
X137649866Y-53392980D01*
X137649866Y-53392980D01*
G37*
X137649866Y-53392980D02*
X139782129Y-58131344D01*
X142303771Y-70487388D01*
X142807281Y-73508449D01*
X143565999Y-79578189D01*
X144580916Y-90742281D01*
X144609981Y-90840754D01*
X144628782Y-90941687D01*
X145136782Y-92211688D01*
X145139186Y-92215383D01*
X145140046Y-92219705D01*
X145214653Y-92331363D01*
X145287871Y-92443887D01*
X145291504Y-92446379D01*
X145293954Y-92450046D01*
X145405601Y-92524646D01*
X145516317Y-92600593D01*
X145520631Y-92601506D01*
X145524295Y-92603954D01*
X145655965Y-92630145D01*
X145787343Y-92657947D01*
X145791676Y-92657140D01*
X145796000Y-92658000D01*
X146304000Y-92658000D01*
X146402027Y-92638501D01*
X146501605Y-92629947D01*
X146536811Y-92611691D01*
X146575705Y-92603954D01*
X146658805Y-92548429D01*
X146747534Y-92502417D01*
X146773073Y-92472078D01*
X146806046Y-92450046D01*
X146861575Y-92366941D01*
X146925937Y-92290481D01*
X146937921Y-92252680D01*
X146959954Y-92219705D01*
X146979453Y-92121677D01*
X147009657Y-92026406D01*
X147263657Y-89740406D01*
X147262297Y-89724573D01*
X147266427Y-89709228D01*
X147774427Y-82089228D01*
X147772778Y-82076594D01*
X147775654Y-82064177D01*
X148029039Y-73955870D01*
X148534937Y-68138038D01*
X149283475Y-60652658D01*
X150724128Y-57771352D01*
X151803613Y-56260073D01*
X153689352Y-55841019D01*
X154852842Y-56034934D01*
X156632917Y-57815009D01*
X157811008Y-60406809D01*
X158549833Y-64839761D01*
X158802195Y-72915331D01*
X159056109Y-87388454D01*
X159057160Y-87393292D01*
X159056346Y-87398177D01*
X159310346Y-95526177D01*
X159313104Y-95538087D01*
X159311505Y-95550206D01*
X160073505Y-107234206D01*
X160081282Y-107263269D01*
X160079855Y-107293322D01*
X160841855Y-112373322D01*
X160847516Y-112389061D01*
X160847498Y-112405786D01*
X160894204Y-112518879D01*
X160935608Y-112634003D01*
X160946859Y-112646376D01*
X160953244Y-112661837D01*
X161039670Y-112748444D01*
X161121982Y-112838965D01*
X161137115Y-112846092D01*
X161148928Y-112857930D01*
X161261910Y-112904867D01*
X161372606Y-112957002D01*
X161389313Y-112957796D01*
X161404758Y-112964212D01*
X162674758Y-113218212D01*
X162720018Y-113218259D01*
X162763669Y-113230213D01*
X162857353Y-113218403D01*
X162951786Y-113218502D01*
X162993619Y-113201225D01*
X163038522Y-113195565D01*
X164562522Y-112687565D01*
X164618769Y-112655502D01*
X164680481Y-112635937D01*
X164737940Y-112587569D01*
X164803193Y-112550372D01*
X164842887Y-112499226D01*
X164892417Y-112457533D01*
X166924417Y-109917534D01*
X166972390Y-109825022D01*
X167029218Y-109737687D01*
X169052568Y-104679314D01*
X171800165Y-98934338D01*
X174945138Y-95063602D01*
X178052023Y-93629655D01*
X180544017Y-92882057D01*
X180643779Y-92829125D01*
X180747158Y-92783655D01*
X183287158Y-91005655D01*
X183289540Y-91003168D01*
X183292679Y-91001751D01*
X185070679Y-89731751D01*
X185076429Y-89725631D01*
X185084000Y-89722000D01*
X185218000Y-89621500D01*
X185218000Y-90532268D01*
X184513407Y-92176317D01*
X184508797Y-92198099D01*
X184497363Y-92217202D01*
X183227363Y-95773201D01*
X183226240Y-95780803D01*
X183222435Y-95787478D01*
X182460435Y-98073478D01*
X182446202Y-98186383D01*
X182424000Y-98298000D01*
X182424000Y-99822000D01*
X182448038Y-99942848D01*
X182466747Y-100064638D01*
X183440000Y-102741084D01*
X183440000Y-104560757D01*
X182630946Y-105208000D01*
X181650092Y-105208000D01*
X181096046Y-104653954D01*
X181052153Y-104624626D01*
X181016685Y-104585529D01*
X180938032Y-104548373D01*
X180865705Y-104500046D01*
X180813931Y-104489747D01*
X180766200Y-104467199D01*
X180679317Y-104462971D01*
X180594000Y-104446000D01*
X180542224Y-104456299D01*
X180489500Y-104453733D01*
X180407611Y-104483075D01*
X180322295Y-104500046D01*
X180278404Y-104529373D01*
X180228708Y-104547180D01*
X180164282Y-104605626D01*
X180091954Y-104653954D01*
X180062626Y-104697847D01*
X180023529Y-104733315D01*
X179986373Y-104811968D01*
X179938046Y-104884295D01*
X179927747Y-104936069D01*
X179905199Y-104983800D01*
X179667385Y-105935057D01*
X178175993Y-109166407D01*
X176937235Y-111643922D01*
X174939797Y-114390398D01*
X174886615Y-114505614D01*
X174829629Y-114618962D01*
X174828748Y-114630981D01*
X174823697Y-114641924D01*
X174818655Y-114768709D01*
X174809381Y-114895249D01*
X174813167Y-114906691D01*
X174812688Y-114918733D01*
X174856548Y-115037796D01*
X174896407Y-115158254D01*
X174904283Y-115167376D01*
X174908449Y-115178684D01*
X174994532Y-115271899D01*
X175077454Y-115367935D01*
X194563454Y-130559935D01*
X194586951Y-130571748D01*
X194605546Y-130590343D01*
X194709977Y-130633600D01*
X194810962Y-130684371D01*
X194837187Y-130686293D01*
X194861486Y-130696358D01*
X196636390Y-131049408D01*
X198023654Y-131976349D01*
X198950592Y-133363610D01*
X199290000Y-135069931D01*
X199290000Y-139930069D01*
X198569989Y-143549807D01*
X196559187Y-146559186D01*
X193549805Y-148569990D01*
X189930069Y-149290000D01*
X110069931Y-149290000D01*
X106450193Y-148569989D01*
X103440814Y-146559187D01*
X101430010Y-143549805D01*
X100710000Y-139930069D01*
X100710000Y-139150000D01*
X100962560Y-139150000D01*
X100962560Y-140850000D01*
X101006838Y-141085317D01*
X101145910Y-141301441D01*
X101358110Y-141446431D01*
X101610000Y-141497440D01*
X103310000Y-141497440D01*
X103545317Y-141453162D01*
X103761441Y-141314090D01*
X103906431Y-141101890D01*
X103920086Y-141034459D01*
X103949946Y-141079147D01*
X104431715Y-141401054D01*
X105000000Y-141514093D01*
X105568285Y-141401054D01*
X105907558Y-141174360D01*
X107765299Y-143032101D01*
X108011861Y-143196848D01*
X108302700Y-143254700D01*
X116018639Y-143254700D01*
X115767458Y-143505443D01*
X115365458Y-144473567D01*
X115364543Y-145521834D01*
X115764853Y-146490658D01*
X116505443Y-147232542D01*
X117473567Y-147634542D01*
X118521834Y-147635457D01*
X119490658Y-147235147D01*
X120232542Y-146494557D01*
X120634542Y-145526433D01*
X120635457Y-144478166D01*
X120235147Y-143509342D01*
X119980949Y-143254700D01*
X170018639Y-143254700D01*
X169767458Y-143505443D01*
X169365458Y-144473567D01*
X169364543Y-145521834D01*
X169764853Y-146490658D01*
X170505443Y-147232542D01*
X171473567Y-147634542D01*
X172521834Y-147635457D01*
X173490658Y-147235147D01*
X174232542Y-146494557D01*
X174634542Y-145526433D01*
X174635457Y-144478166D01*
X174235147Y-143509342D01*
X173980949Y-143254700D01*
X175734598Y-143254700D01*
X176637299Y-144157401D01*
X176852560Y-144301233D01*
X176852560Y-144420000D01*
X176896838Y-144655317D01*
X177035910Y-144871441D01*
X177248110Y-145016431D01*
X177500000Y-145067440D01*
X179100000Y-145067440D01*
X179335317Y-145023162D01*
X179551441Y-144884090D01*
X179696431Y-144671890D01*
X179727815Y-144516911D01*
X179825302Y-144662811D01*
X180290849Y-144973880D01*
X180840000Y-145083113D01*
X181389151Y-144973880D01*
X181854698Y-144662811D01*
X182110000Y-144280725D01*
X182365302Y-144662811D01*
X182830849Y-144973880D01*
X183380000Y-145083113D01*
X183929151Y-144973880D01*
X184394698Y-144662811D01*
X184650000Y-144280725D01*
X184905302Y-144662811D01*
X185370849Y-144973880D01*
X185920000Y-145083113D01*
X186469151Y-144973880D01*
X186934698Y-144662811D01*
X187148424Y-144342947D01*
X187244321Y-144362022D01*
X187445302Y-144662811D01*
X187910849Y-144973880D01*
X188460000Y-145083113D01*
X189009151Y-144973880D01*
X189474698Y-144662811D01*
X189688424Y-144342947D01*
X189784321Y-144362022D01*
X189985302Y-144662811D01*
X190450849Y-144973880D01*
X191000000Y-145083113D01*
X191549151Y-144973880D01*
X192014698Y-144662811D01*
X192228424Y-144342947D01*
X192324321Y-144362022D01*
X192525302Y-144662811D01*
X192990849Y-144973880D01*
X193540000Y-145083113D01*
X194089151Y-144973880D01*
X194554698Y-144662811D01*
X194824986Y-144258297D01*
X194927611Y-144475134D01*
X195342577Y-144851041D01*
X195730961Y-145011904D01*
X195953000Y-144889915D01*
X195953000Y-143747000D01*
X196207000Y-143747000D01*
X196207000Y-144889915D01*
X196429039Y-145011904D01*
X196817423Y-144851041D01*
X197232389Y-144475134D01*
X197471914Y-143969041D01*
X197350629Y-143747000D01*
X196207000Y-143747000D01*
X195953000Y-143747000D01*
X195933000Y-143747000D01*
X195933000Y-143493000D01*
X195953000Y-143493000D01*
X195953000Y-142350085D01*
X196207000Y-142350085D01*
X196207000Y-143493000D01*
X197350629Y-143493000D01*
X197471914Y-143270959D01*
X197232389Y-142764866D01*
X196817423Y-142388959D01*
X196429039Y-142228096D01*
X196207000Y-142350085D01*
X195953000Y-142350085D01*
X195730961Y-142228096D01*
X195342577Y-142388959D01*
X194927611Y-142764866D01*
X194824986Y-142981703D01*
X194554698Y-142577189D01*
X194089151Y-142266120D01*
X193540000Y-142156887D01*
X192990849Y-142266120D01*
X192646805Y-142496003D01*
X188522602Y-138371800D01*
X191084200Y-138371800D01*
X191375039Y-138313948D01*
X191621601Y-138149201D01*
X192646805Y-137123997D01*
X192990849Y-137353880D01*
X193540000Y-137463113D01*
X194089151Y-137353880D01*
X194554698Y-137042811D01*
X194768424Y-136722947D01*
X194864321Y-136742022D01*
X195065302Y-137042811D01*
X195530849Y-137353880D01*
X196080000Y-137463113D01*
X196629151Y-137353880D01*
X197094698Y-137042811D01*
X197405767Y-136577264D01*
X197515000Y-136028113D01*
X197515000Y-135971887D01*
X197405767Y-135422736D01*
X197094698Y-134957189D01*
X196629151Y-134646120D01*
X196080000Y-134536887D01*
X195530849Y-134646120D01*
X195186805Y-134876003D01*
X190432736Y-130121934D01*
X190446431Y-130101890D01*
X190497440Y-129850000D01*
X190497440Y-128150000D01*
X190453162Y-127914683D01*
X190314090Y-127698559D01*
X190101890Y-127553569D01*
X189850000Y-127502560D01*
X188150000Y-127502560D01*
X187914683Y-127546838D01*
X187698559Y-127685910D01*
X187553569Y-127898110D01*
X187502560Y-128150000D01*
X187502560Y-129511300D01*
X186610702Y-129511300D01*
X184762001Y-127662599D01*
X184515439Y-127497852D01*
X184511646Y-127497097D01*
X184673461Y-127335564D01*
X184884759Y-126826702D01*
X184885240Y-126275715D01*
X184674831Y-125766485D01*
X184285564Y-125376539D01*
X183776702Y-125165241D01*
X183225715Y-125164760D01*
X182716485Y-125375169D01*
X182326539Y-125764436D01*
X182250073Y-125948586D01*
X182174831Y-125766485D01*
X181785564Y-125376539D01*
X181276702Y-125165241D01*
X180725715Y-125164760D01*
X180216485Y-125375169D01*
X179826539Y-125764436D01*
X179750073Y-125948586D01*
X179674831Y-125766485D01*
X179285564Y-125376539D01*
X178776702Y-125165241D01*
X178225715Y-125164760D01*
X177716485Y-125375169D01*
X177326539Y-125764436D01*
X177115241Y-126273298D01*
X177114760Y-126824285D01*
X177325169Y-127333515D01*
X177431469Y-127440000D01*
X115264802Y-127440000D01*
X115163256Y-127338454D01*
X115184750Y-127286691D01*
X115185248Y-126715813D01*
X114967243Y-126188200D01*
X114563923Y-125784176D01*
X114036691Y-125565250D01*
X113465813Y-125564752D01*
X112938200Y-125782757D01*
X112534176Y-126186077D01*
X112315250Y-126713309D01*
X112314752Y-127284187D01*
X112532757Y-127811800D01*
X112936077Y-128215824D01*
X113017931Y-128249813D01*
X112938200Y-128282757D01*
X112534176Y-128686077D01*
X112315250Y-129213309D01*
X112314752Y-129784187D01*
X112523225Y-130288732D01*
X112336199Y-130413699D01*
X107002599Y-135747299D01*
X106837852Y-135993861D01*
X106802402Y-136172077D01*
X106489946Y-136380853D01*
X106270000Y-136710026D01*
X106050054Y-136380853D01*
X105568285Y-136058946D01*
X105000000Y-135945907D01*
X104431715Y-136058946D01*
X103949946Y-136380853D01*
X103730000Y-136710026D01*
X103510054Y-136380853D01*
X103028285Y-136058946D01*
X102460000Y-135945907D01*
X101891715Y-136058946D01*
X101409946Y-136380853D01*
X101088039Y-136862622D01*
X100975000Y-137430907D01*
X100975000Y-137489093D01*
X101088039Y-138057378D01*
X101409946Y-138539147D01*
X101411179Y-138539971D01*
X101374683Y-138546838D01*
X101158559Y-138685910D01*
X101013569Y-138898110D01*
X100962560Y-139150000D01*
X100710000Y-139150000D01*
X100710000Y-135069931D01*
X101049408Y-133363610D01*
X101102476Y-133284187D01*
X103944752Y-133284187D01*
X104162757Y-133811800D01*
X104566077Y-134215824D01*
X105093309Y-134434750D01*
X105664187Y-134435248D01*
X106191800Y-134217243D01*
X106595824Y-133813923D01*
X106814750Y-133286691D01*
X106815248Y-132715813D01*
X106597243Y-132188200D01*
X106193923Y-131784176D01*
X105666691Y-131565250D01*
X105095813Y-131564752D01*
X104568200Y-131782757D01*
X104164176Y-132186077D01*
X103945250Y-132713309D01*
X103944752Y-133284187D01*
X101102476Y-133284187D01*
X101976349Y-131976346D01*
X103363610Y-131049408D01*
X105138514Y-130696358D01*
X105159179Y-130687798D01*
X105181499Y-130686409D01*
X105286483Y-130635067D01*
X105394454Y-130590343D01*
X105410267Y-130574530D01*
X105430361Y-130564703D01*
X115766920Y-122687198D01*
X142273163Y-122687198D01*
X142283193Y-122741570D01*
X142282154Y-122756145D01*
X142284920Y-122764447D01*
X142284565Y-122816399D01*
X142300207Y-122854903D01*
X142305355Y-122896727D01*
X142314934Y-122913647D01*
X142318462Y-122932770D01*
X142354298Y-122988055D01*
X142378550Y-123047754D01*
X142394615Y-123064040D01*
X142399661Y-123075566D01*
X142414899Y-123090208D01*
X142428387Y-123114031D01*
X142439892Y-123127375D01*
X142449438Y-123134828D01*
X142454290Y-123142314D01*
X142494360Y-123169903D01*
X142512916Y-123184392D01*
X142520946Y-123192107D01*
X142553916Y-123225531D01*
X142557151Y-123226897D01*
X142579723Y-123248586D01*
X142612565Y-123269596D01*
X142631548Y-123277019D01*
X142636717Y-123281055D01*
X142640031Y-123281973D01*
X142655853Y-123294953D01*
X142707518Y-123322557D01*
X142719113Y-123326072D01*
X142728762Y-123333404D01*
X142796738Y-123366528D01*
X142803895Y-123368410D01*
X142809884Y-123372749D01*
X142834901Y-123384244D01*
X142832199Y-123399355D01*
X142833586Y-123470796D01*
X142822884Y-123541445D01*
X142826794Y-123626360D01*
X142841487Y-123685792D01*
X142843953Y-123746964D01*
X142864874Y-123833715D01*
X142887361Y-123882363D01*
X142898370Y-123934811D01*
X142935027Y-124020735D01*
X142962616Y-124061097D01*
X142979778Y-124106871D01*
X143030894Y-124189305D01*
X143062856Y-124223517D01*
X143085468Y-124264515D01*
X143149767Y-124340795D01*
X143186467Y-124370115D01*
X143214889Y-124407515D01*
X143291096Y-124474978D01*
X143333367Y-124499647D01*
X143368539Y-124533682D01*
X143455376Y-124589664D01*
X143503964Y-124608861D01*
X143546888Y-124638646D01*
X143643079Y-124680484D01*
X143685484Y-124689696D01*
X143724132Y-124709427D01*
X143781596Y-124725683D01*
X143808467Y-124727819D01*
X143833408Y-124738036D01*
X143911062Y-124753167D01*
X143924793Y-124753113D01*
X143937708Y-124757777D01*
X144038216Y-124772986D01*
X144046788Y-124772590D01*
X144054931Y-124775290D01*
X144175746Y-124790326D01*
X144181833Y-124789884D01*
X144187666Y-124791697D01*
X144326243Y-124806311D01*
X144331003Y-124805875D01*
X144335587Y-124807227D01*
X144489381Y-124821168D01*
X144493386Y-124820742D01*
X144497261Y-124821833D01*
X144663727Y-124834851D01*
X144667310Y-124834425D01*
X144670792Y-124835364D01*
X144847384Y-124847209D01*
X144850623Y-124846788D01*
X144853789Y-124847607D01*
X145022974Y-124857252D01*
X145028583Y-124856465D01*
X145034087Y-124857788D01*
X145097549Y-124860300D01*
X145102109Y-124859579D01*
X145106615Y-124860595D01*
X145192462Y-124862775D01*
X145194982Y-124862340D01*
X145197482Y-124862883D01*
X145302700Y-124864729D01*
X145304333Y-124864434D01*
X145305952Y-124864777D01*
X145427529Y-124866292D01*
X145428708Y-124866073D01*
X145429883Y-124866317D01*
X145564806Y-124867502D01*
X145565733Y-124867326D01*
X145566660Y-124867516D01*
X145711917Y-124868371D01*
X145712699Y-124868220D01*
X145713478Y-124868378D01*
X145866054Y-124868904D01*
X145866752Y-124868768D01*
X145867448Y-124868907D01*
X146024332Y-124869106D01*
X146024991Y-124868976D01*
X146025654Y-124869107D01*
X146183832Y-124868981D01*
X146184505Y-124868847D01*
X146185175Y-124868978D01*
X146341634Y-124868525D01*
X146342342Y-124868382D01*
X146343054Y-124868520D01*
X146494781Y-124867744D01*
X146495588Y-124867579D01*
X146496393Y-124867733D01*
X146640376Y-124866634D01*
X146641345Y-124866434D01*
X146642322Y-124866617D01*
X146775548Y-124865195D01*
X146776796Y-124864933D01*
X146778049Y-124865163D01*
X146897503Y-124863421D01*
X146899259Y-124863045D01*
X146901028Y-124863360D01*
X147003700Y-124861297D01*
X147006449Y-124860693D01*
X147009223Y-124861162D01*
X147092097Y-124858781D01*
X147095741Y-124857947D01*
X147099432Y-124858528D01*
X147136164Y-124857051D01*
X147140591Y-124855984D01*
X147145098Y-124856629D01*
X147292190Y-124848654D01*
X147298799Y-124846963D01*
X147305572Y-124847788D01*
X147428055Y-124838570D01*
X147438013Y-124835798D01*
X147448310Y-124836722D01*
X147546953Y-124826137D01*
X147562924Y-124821140D01*
X147579643Y-124821774D01*
X147655212Y-124809701D01*
X147683460Y-124799236D01*
X147713533Y-124797575D01*
X147766797Y-124783887D01*
X147824940Y-124755952D01*
X147887345Y-124739605D01*
X147919071Y-124724180D01*
X147960285Y-124692921D01*
X148007579Y-124671975D01*
X148058831Y-124618178D01*
X148082313Y-124600368D01*
X148092443Y-124593924D01*
X148094299Y-124591277D01*
X148118033Y-124573276D01*
X148144146Y-124528627D01*
X148179826Y-124491175D01*
X148190780Y-124473888D01*
X148208140Y-124428927D01*
X148235811Y-124389465D01*
X148237864Y-124380235D01*
X148242242Y-124373638D01*
X148255348Y-124306663D01*
X148280726Y-124240935D01*
X148279558Y-124192751D01*
X148290021Y-124145705D01*
X148290038Y-124144949D01*
X148288597Y-124136746D01*
X148290197Y-124128570D01*
X148276343Y-124060035D01*
X148274677Y-123991292D01*
X148255409Y-123947786D01*
X148246840Y-123898999D01*
X148242368Y-123891969D01*
X148240718Y-123883806D01*
X148230790Y-123860046D01*
X148200474Y-123814979D01*
X148180919Y-123764310D01*
X148131450Y-123712369D01*
X148091411Y-123652848D01*
X148046157Y-123622814D01*
X148044374Y-123620942D01*
X148016595Y-123589562D01*
X148012662Y-123587645D01*
X148008699Y-123583484D01*
X147997786Y-123575801D01*
X147937429Y-123549059D01*
X147929651Y-123542053D01*
X147918538Y-123538115D01*
X147883349Y-123514761D01*
X147849538Y-123508145D01*
X147792119Y-123480161D01*
X147765074Y-123473049D01*
X147728659Y-123470833D01*
X147694275Y-123458649D01*
X147651996Y-123452510D01*
X147633918Y-123453454D01*
X147616544Y-123448368D01*
X147557793Y-123443160D01*
X147547458Y-123444280D01*
X147537394Y-123441680D01*
X147460937Y-123437359D01*
X147454479Y-123438268D01*
X147448129Y-123436763D01*
X147428707Y-123436055D01*
X147430029Y-123426336D01*
X147429979Y-123425511D01*
X147430247Y-123424725D01*
X147441913Y-123337312D01*
X147441875Y-123336711D01*
X147442069Y-123336138D01*
X147454670Y-123240375D01*
X147454638Y-123239889D01*
X147454794Y-123239427D01*
X147467933Y-123138409D01*
X147467904Y-123137971D01*
X147468043Y-123137557D01*
X147481322Y-123034380D01*
X147481293Y-123033959D01*
X147481428Y-123033556D01*
X147494452Y-122931312D01*
X147494421Y-122930861D01*
X147494564Y-122930430D01*
X147506936Y-122832216D01*
X147506898Y-122831679D01*
X147507067Y-122831168D01*
X147510258Y-122805494D01*
X147518389Y-122740084D01*
X147518338Y-122739390D01*
X147518556Y-122738729D01*
X147528434Y-122657856D01*
X147528357Y-122656826D01*
X147528676Y-122655845D01*
X147536711Y-122588285D01*
X147536571Y-122586488D01*
X147537120Y-122584768D01*
X147542917Y-122533615D01*
X147542556Y-122529305D01*
X147543817Y-122525169D01*
X147546979Y-122493517D01*
X147544993Y-122473063D01*
X147549729Y-122453068D01*
X147550064Y-122443821D01*
X147541036Y-122387928D01*
X147544230Y-122331395D01*
X147529256Y-122288556D01*
X147548603Y-122267574D01*
X147565910Y-122220482D01*
X147593783Y-122178767D01*
X147608580Y-122104378D01*
X147634744Y-122033186D01*
X147632712Y-121983057D01*
X147642500Y-121933850D01*
X147642500Y-120265431D01*
X147643609Y-120262813D01*
X147655388Y-120205966D01*
X147655478Y-120194639D01*
X147659530Y-120184062D01*
X147666059Y-120145908D01*
X147665672Y-120131492D01*
X147670229Y-120117806D01*
X147681931Y-120024744D01*
X147680733Y-120007957D01*
X147685215Y-119991736D01*
X147693036Y-119885158D01*
X147691492Y-119872679D01*
X147694370Y-119860439D01*
X147698296Y-119746917D01*
X147696492Y-119735866D01*
X147698678Y-119724887D01*
X147698694Y-119610995D01*
X147696385Y-119599381D01*
X147698273Y-119587689D01*
X147694364Y-119479998D01*
X147690901Y-119465381D01*
X147692607Y-119450456D01*
X147684756Y-119355540D01*
X147678837Y-119334868D01*
X147679858Y-119313389D01*
X147669766Y-119246088D01*
X147658205Y-119213939D01*
X147656218Y-119179836D01*
X147610331Y-119003478D01*
X147592350Y-118966341D01*
X147584716Y-118925793D01*
X147580192Y-118914549D01*
X147580186Y-118914540D01*
X147580184Y-118914529D01*
X147520594Y-118766405D01*
X147495664Y-118728257D01*
X147481001Y-118685103D01*
X147398989Y-118543154D01*
X147366637Y-118506286D01*
X147343992Y-118462776D01*
X147244406Y-118338671D01*
X147205318Y-118305866D01*
X147174909Y-118264888D01*
X147058075Y-118159055D01*
X147014272Y-118132817D01*
X146977747Y-118097134D01*
X146843991Y-118009999D01*
X146805418Y-117994546D01*
X146772215Y-117969569D01*
X146671722Y-117921200D01*
X146649341Y-117915432D01*
X146629928Y-117902889D01*
X146590017Y-117887074D01*
X146583775Y-117885932D01*
X146578379Y-117882593D01*
X146519165Y-117860454D01*
X146516169Y-117859966D01*
X146513573Y-117858393D01*
X146438296Y-117831045D01*
X146436476Y-117830766D01*
X146434893Y-117829819D01*
X146346797Y-117798376D01*
X146345512Y-117798186D01*
X146344395Y-117797524D01*
X146246720Y-117763100D01*
X146245703Y-117762954D01*
X146244818Y-117762433D01*
X146140805Y-117726143D01*
X146139918Y-117726019D01*
X146139144Y-117725566D01*
X146032033Y-117688525D01*
X146031189Y-117688409D01*
X146030453Y-117687981D01*
X145923487Y-117651303D01*
X145922600Y-117651183D01*
X145921824Y-117650735D01*
X145818243Y-117615535D01*
X145817226Y-117615401D01*
X145816337Y-117614891D01*
X145719384Y-117582283D01*
X145718086Y-117582116D01*
X145716948Y-117581469D01*
X145629862Y-117552568D01*
X145628003Y-117552336D01*
X145626367Y-117551419D01*
X145552391Y-117527340D01*
X145549267Y-117526969D01*
X145546509Y-117525457D01*
X145488883Y-117507313D01*
X145482008Y-117506563D01*
X145475873Y-117503368D01*
X145437838Y-117492275D01*
X145425137Y-117491162D01*
X145413603Y-117485719D01*
X145405789Y-117483769D01*
X145377625Y-117482410D01*
X145351177Y-117472642D01*
X145276643Y-117460809D01*
X145248710Y-117461896D01*
X145221753Y-117454510D01*
X145132412Y-117448148D01*
X145112510Y-117450654D01*
X145092869Y-117446558D01*
X144998001Y-117445681D01*
X144978889Y-117449299D01*
X144959648Y-117446477D01*
X144868531Y-117451101D01*
X144843914Y-117457309D01*
X144818585Y-117455603D01*
X144740498Y-117465739D01*
X144717005Y-117473666D01*
X144692208Y-117473896D01*
X144674728Y-117477542D01*
X144648294Y-117488780D01*
X144619708Y-117491591D01*
X144475592Y-117535285D01*
X144436543Y-117556150D01*
X144393487Y-117566475D01*
X144255335Y-117630122D01*
X144220895Y-117655131D01*
X144181170Y-117670418D01*
X144046701Y-117755418D01*
X144019331Y-117781434D01*
X143985908Y-117799018D01*
X143852838Y-117906772D01*
X143834668Y-117928619D01*
X143810775Y-117944004D01*
X143705383Y-118045884D01*
X143690553Y-118067285D01*
X143669865Y-118083094D01*
X143513960Y-118260156D01*
X143497743Y-118288116D01*
X143474148Y-118310206D01*
X143340976Y-118495969D01*
X143329649Y-118520954D01*
X143311281Y-118541332D01*
X143237883Y-118664550D01*
X143234316Y-118674604D01*
X143227437Y-118682759D01*
X143192697Y-118745687D01*
X143175948Y-118798322D01*
X143148070Y-118846011D01*
X143138447Y-118916170D01*
X143116976Y-118983645D01*
X143121644Y-119038681D01*
X143114138Y-119093410D01*
X143132097Y-119161912D01*
X143138082Y-119232467D01*
X143163458Y-119281531D01*
X143177466Y-119334962D01*
X143210164Y-119378055D01*
X143175330Y-119409819D01*
X143175107Y-119409987D01*
X143153383Y-119423309D01*
X143148605Y-119429890D01*
X143099400Y-119466843D01*
X143083728Y-119493350D01*
X143060976Y-119514097D01*
X143046878Y-119544140D01*
X143043156Y-119547813D01*
X143025340Y-119590037D01*
X143020638Y-119600057D01*
X142972309Y-119681798D01*
X142967974Y-119712284D01*
X142954893Y-119740159D01*
X142951658Y-119753246D01*
X142951067Y-119766064D01*
X142946079Y-119777886D01*
X142938772Y-119813398D01*
X142938754Y-119816190D01*
X142937689Y-119818775D01*
X142926771Y-119874239D01*
X142926773Y-119875476D01*
X142926308Y-119876618D01*
X142912236Y-119949562D01*
X142912240Y-119950279D01*
X142911970Y-119950946D01*
X142895204Y-120038896D01*
X142895208Y-120039372D01*
X142895031Y-120039810D01*
X142876027Y-120140292D01*
X142876030Y-120140642D01*
X142875899Y-120140969D01*
X142855116Y-120251510D01*
X142855119Y-120251795D01*
X142855014Y-120252057D01*
X142832911Y-120370184D01*
X142832914Y-120370423D01*
X142832825Y-120370645D01*
X142809859Y-120493884D01*
X142809862Y-120494104D01*
X142809780Y-120494308D01*
X142786410Y-120620186D01*
X142786413Y-120620400D01*
X142786333Y-120620600D01*
X142763018Y-120746643D01*
X142763021Y-120746860D01*
X142762941Y-120747061D01*
X142740138Y-120870796D01*
X142740141Y-120871032D01*
X142740053Y-120871255D01*
X142718221Y-120990209D01*
X142718225Y-120990482D01*
X142718125Y-120990735D01*
X142697721Y-121102433D01*
X142697726Y-121102776D01*
X142697600Y-121103096D01*
X142679084Y-121205066D01*
X142679092Y-121205517D01*
X142678926Y-121205938D01*
X142662755Y-121295706D01*
X142662767Y-121296384D01*
X142662520Y-121297017D01*
X142649153Y-121372109D01*
X142649176Y-121373244D01*
X142648765Y-121374307D01*
X142638659Y-121432252D01*
X142638717Y-121434716D01*
X142637847Y-121437018D01*
X142631461Y-121475340D01*
X142631461Y-121475348D01*
X142624226Y-121495550D01*
X142623698Y-121499101D01*
X142621885Y-121502201D01*
X142598848Y-121568828D01*
X142598560Y-121570925D01*
X142597505Y-121572756D01*
X142570756Y-121651772D01*
X142570567Y-121653220D01*
X142569843Y-121654489D01*
X142540346Y-121742928D01*
X142540202Y-121744066D01*
X142539640Y-121745060D01*
X142508358Y-121839959D01*
X142508239Y-121840930D01*
X142507759Y-121841784D01*
X142475653Y-121940175D01*
X142475543Y-121941098D01*
X142475089Y-121941911D01*
X142443122Y-122040832D01*
X142443010Y-122041791D01*
X142442544Y-122042632D01*
X142411678Y-122139116D01*
X142411554Y-122140206D01*
X142411028Y-122141163D01*
X142382227Y-122232247D01*
X142382077Y-122233610D01*
X142381419Y-122234818D01*
X142355646Y-122317536D01*
X142355444Y-122319442D01*
X142354539Y-122321128D01*
X142332756Y-122392515D01*
X142332448Y-122395589D01*
X142331012Y-122398327D01*
X142314181Y-122455417D01*
X142313617Y-122461641D01*
X142310821Y-122467231D01*
X142299905Y-122507062D01*
X142298422Y-122527868D01*
X142290308Y-122547085D01*
X142286269Y-122566690D01*
X142285982Y-122608681D01*
X142274847Y-122648882D01*
X142277201Y-122668009D01*
X142273167Y-122686911D01*
X142273163Y-122687198D01*
X115766920Y-122687198D01*
X118032361Y-120960703D01*
X118109465Y-120873365D01*
X118191930Y-120791072D01*
X118200654Y-120770072D01*
X118215704Y-120753025D01*
X118253516Y-120642831D01*
X118298213Y-120535242D01*
X118298237Y-120512502D01*
X118305617Y-120490994D01*
X118298380Y-120374719D01*
X118298502Y-120258214D01*
X118289821Y-120237195D01*
X118288409Y-120214501D01*
X118237230Y-120109850D01*
X118192756Y-120002163D01*
X117714621Y-119284961D01*
X114181390Y-111713751D01*
X114116748Y-111625646D01*
X114059711Y-111532421D01*
X111062879Y-108285854D01*
X107805463Y-102773302D01*
X103275359Y-94468112D01*
X101294000Y-87781026D01*
X101294000Y-83948749D01*
X101872225Y-82406815D01*
X103881033Y-82005054D01*
X107022961Y-82678324D01*
X112448633Y-90323590D01*
X117018243Y-96924139D01*
X117022063Y-96927835D01*
X117024249Y-96932679D01*
X120653612Y-102013787D01*
X118348100Y-104319298D01*
X116043766Y-102014964D01*
X116088733Y-101906670D01*
X116089265Y-101296009D01*
X115856068Y-100731629D01*
X115424643Y-100299449D01*
X114860670Y-100065267D01*
X114250009Y-100064735D01*
X113685629Y-100297932D01*
X113517387Y-100465880D01*
X113517162Y-100464683D01*
X113378090Y-100248559D01*
X113165890Y-100103569D01*
X112914000Y-100052560D01*
X112774000Y-100052560D01*
X112774000Y-97282000D01*
X112716887Y-96994877D01*
X112786733Y-96826670D01*
X112787265Y-96216009D01*
X112554068Y-95651629D01*
X112122643Y-95219449D01*
X112012000Y-95173506D01*
X112012000Y-93980000D01*
X111954148Y-93689161D01*
X111789401Y-93442599D01*
X109947766Y-91600964D01*
X109992733Y-91492670D01*
X109993265Y-90882009D01*
X109760068Y-90317629D01*
X109328643Y-89885449D01*
X108764670Y-89651267D01*
X108154009Y-89650735D01*
X107589629Y-89883932D01*
X107421387Y-90051880D01*
X107421162Y-90050683D01*
X107282090Y-89834559D01*
X107069890Y-89689569D01*
X106818000Y-89638560D01*
X106678000Y-89638560D01*
X106678000Y-87706846D01*
X106786371Y-87662068D01*
X107218551Y-87230643D01*
X107452733Y-86666670D01*
X107453265Y-86056009D01*
X107220068Y-85491629D01*
X106788643Y-85059449D01*
X106224670Y-84825267D01*
X105614009Y-84824735D01*
X105049629Y-85057932D01*
X104881387Y-85225880D01*
X104881162Y-85224683D01*
X104742090Y-85008559D01*
X104529890Y-84863569D01*
X104278000Y-84812560D01*
X102478000Y-84812560D01*
X102242683Y-84856838D01*
X102026559Y-84995910D01*
X101881569Y-85208110D01*
X101830560Y-85460000D01*
X101830560Y-87260000D01*
X101874838Y-87495317D01*
X102013910Y-87711441D01*
X102226110Y-87856431D01*
X102478000Y-87907440D01*
X104278000Y-87907440D01*
X104513317Y-87863162D01*
X104729441Y-87724090D01*
X104874431Y-87511890D01*
X104878567Y-87491466D01*
X105047357Y-87660551D01*
X105158000Y-87706494D01*
X105158000Y-89638560D01*
X105018000Y-89638560D01*
X104782683Y-89682838D01*
X104566559Y-89821910D01*
X104421569Y-90034110D01*
X104370560Y-90286000D01*
X104370560Y-92086000D01*
X104414838Y-92321317D01*
X104553910Y-92537441D01*
X104766110Y-92682431D01*
X105018000Y-92733440D01*
X105204295Y-92733440D01*
X105215852Y-92791539D01*
X105380599Y-93038101D01*
X107444435Y-95101937D01*
X107360559Y-95155910D01*
X107215569Y-95368110D01*
X107164560Y-95620000D01*
X107164560Y-97420000D01*
X107208838Y-97655317D01*
X107347910Y-97871441D01*
X107560110Y-98016431D01*
X107812000Y-98067440D01*
X109612000Y-98067440D01*
X109847317Y-98023162D01*
X110063441Y-97884090D01*
X110208431Y-97671890D01*
X110212567Y-97651466D01*
X110381357Y-97820551D01*
X110945330Y-98054733D01*
X111254000Y-98055002D01*
X111254000Y-100052560D01*
X111114000Y-100052560D01*
X110878683Y-100096838D01*
X110662559Y-100235910D01*
X110517569Y-100448110D01*
X110466560Y-100700000D01*
X110466560Y-102500000D01*
X110510838Y-102735317D01*
X110649910Y-102951441D01*
X110862110Y-103096431D01*
X111114000Y-103147440D01*
X112697916Y-103147440D01*
X112701899Y-103153401D01*
X114302435Y-104753937D01*
X114218559Y-104807910D01*
X114073569Y-105020110D01*
X114022560Y-105272000D01*
X114022560Y-107072000D01*
X114066838Y-107307317D01*
X114205910Y-107523441D01*
X114418110Y-107668431D01*
X114670000Y-107719440D01*
X116470000Y-107719440D01*
X116705317Y-107675162D01*
X116921441Y-107536090D01*
X117066431Y-107323890D01*
X117070567Y-107303466D01*
X117239357Y-107472551D01*
X117803330Y-107706733D01*
X118413991Y-107707265D01*
X118978371Y-107474068D01*
X119410551Y-107042643D01*
X119644733Y-106478670D01*
X119645265Y-105868009D01*
X119441688Y-105375314D01*
X125479562Y-99337440D01*
X127138000Y-99337440D01*
X127373317Y-99293162D01*
X127589441Y-99154090D01*
X127734431Y-98941890D01*
X127738567Y-98921466D01*
X127907357Y-99090551D01*
X128471330Y-99324733D01*
X129081991Y-99325265D01*
X129646371Y-99092068D01*
X130078551Y-98660643D01*
X130312733Y-98096670D01*
X130313265Y-97486009D01*
X130080068Y-96921629D01*
X129758300Y-96599298D01*
X129758300Y-94323600D01*
X138293700Y-94323600D01*
X138584539Y-94265748D01*
X138701945Y-94187300D01*
X151174700Y-94187300D01*
X151465539Y-94129448D01*
X151712101Y-93964701D01*
X153763036Y-91913766D01*
X153871330Y-91958733D01*
X154481991Y-91959265D01*
X155046371Y-91726068D01*
X155478551Y-91294643D01*
X155712733Y-90730670D01*
X155713265Y-90120009D01*
X155480068Y-89555629D01*
X155192000Y-89267057D01*
X155192000Y-84150846D01*
X155300371Y-84106068D01*
X155732551Y-83674643D01*
X155966733Y-83110670D01*
X155967265Y-82500009D01*
X155734068Y-81935629D01*
X155302643Y-81503449D01*
X155192000Y-81457506D01*
X155192000Y-79543300D01*
X155169045Y-79427899D01*
X155134148Y-79252460D01*
X154969401Y-79005899D01*
X153413565Y-77450063D01*
X153497441Y-77396090D01*
X153642431Y-77183890D01*
X153646567Y-77163466D01*
X153815357Y-77332551D01*
X154379330Y-77566733D01*
X154989991Y-77567265D01*
X155554371Y-77334068D01*
X155986551Y-76902643D01*
X156220733Y-76338670D01*
X156221265Y-75728009D01*
X155988068Y-75163629D01*
X155556643Y-74731449D01*
X155446000Y-74685506D01*
X155446000Y-70031797D01*
X155808371Y-69882068D01*
X156240551Y-69450643D01*
X156474733Y-68886670D01*
X156475265Y-68276009D01*
X156242068Y-67711629D01*
X155810643Y-67279449D01*
X155446000Y-67128036D01*
X155446000Y-63455300D01*
X155388148Y-63164461D01*
X155388148Y-63164460D01*
X155223401Y-62917899D01*
X153667565Y-61362063D01*
X153751441Y-61308090D01*
X153896431Y-61095890D01*
X153900567Y-61075466D01*
X154069357Y-61244551D01*
X154633330Y-61478733D01*
X155243991Y-61479265D01*
X155808371Y-61246068D01*
X156240551Y-60814643D01*
X156474733Y-60250670D01*
X156475265Y-59640009D01*
X156242068Y-59075629D01*
X155810643Y-58643449D01*
X155246670Y-58409267D01*
X154636009Y-58408735D01*
X154071629Y-58641932D01*
X153903387Y-58809880D01*
X153903162Y-58808683D01*
X153764090Y-58592559D01*
X153551890Y-58447569D01*
X153300000Y-58396560D01*
X151500000Y-58396560D01*
X151264683Y-58440838D01*
X151048559Y-58579910D01*
X150903569Y-58792110D01*
X150852560Y-59044000D01*
X150852560Y-60844000D01*
X150896838Y-61079317D01*
X151035910Y-61295441D01*
X151248110Y-61440431D01*
X151500000Y-61491440D01*
X151718767Y-61491440D01*
X151862599Y-61706701D01*
X153926000Y-63770102D01*
X153926000Y-67423307D01*
X153903387Y-67445880D01*
X153903162Y-67444683D01*
X153764090Y-67228559D01*
X153551890Y-67083569D01*
X153300000Y-67032560D01*
X151500000Y-67032560D01*
X151264683Y-67076838D01*
X151048559Y-67215910D01*
X150903569Y-67428110D01*
X150852560Y-67680000D01*
X150852560Y-69480000D01*
X150896838Y-69715317D01*
X151035910Y-69931441D01*
X151248110Y-70076431D01*
X151500000Y-70127440D01*
X153300000Y-70127440D01*
X153535317Y-70083162D01*
X153751441Y-69944090D01*
X153896431Y-69731890D01*
X153900567Y-69711466D01*
X153926000Y-69736943D01*
X153926000Y-74685154D01*
X153817629Y-74729932D01*
X153649387Y-74897880D01*
X153649162Y-74896683D01*
X153510090Y-74680559D01*
X153297890Y-74535569D01*
X153046000Y-74484560D01*
X151246000Y-74484560D01*
X151010683Y-74528838D01*
X150794559Y-74667910D01*
X150649569Y-74880110D01*
X150598560Y-75132000D01*
X150598560Y-76932000D01*
X150642838Y-77167317D01*
X150781910Y-77383441D01*
X150994110Y-77528431D01*
X151246000Y-77579440D01*
X151464767Y-77579440D01*
X151608599Y-77794701D01*
X153672000Y-79858102D01*
X153672000Y-81457154D01*
X153563629Y-81501932D01*
X153395387Y-81669880D01*
X153395162Y-81668683D01*
X153256090Y-81452559D01*
X153043890Y-81307569D01*
X152792000Y-81256560D01*
X150992000Y-81256560D01*
X150756683Y-81300838D01*
X150540559Y-81439910D01*
X150395569Y-81652110D01*
X150344560Y-81904000D01*
X150344560Y-83704000D01*
X150388838Y-83939317D01*
X150527910Y-84155441D01*
X150740110Y-84300431D01*
X150878000Y-84328354D01*
X150878000Y-88876560D01*
X150738000Y-88876560D01*
X150502683Y-88920838D01*
X150286559Y-89059910D01*
X150141569Y-89272110D01*
X150090560Y-89524000D01*
X150090560Y-91324000D01*
X150134838Y-91559317D01*
X150273910Y-91775441D01*
X150486110Y-91920431D01*
X150738000Y-91971440D01*
X151555758Y-91971440D01*
X150859898Y-92667300D01*
X142438864Y-92667300D01*
X142504733Y-92508670D01*
X142505265Y-91898009D01*
X142272068Y-91333629D01*
X141840643Y-90901449D01*
X141730000Y-90855506D01*
X141730000Y-85598000D01*
X141672148Y-85307161D01*
X141672148Y-85307160D01*
X141507401Y-85060599D01*
X141189766Y-84742964D01*
X141234733Y-84634670D01*
X141235265Y-84024009D01*
X141002068Y-83459629D01*
X140570643Y-83027449D01*
X140460000Y-82981506D01*
X140460000Y-79965300D01*
X140402148Y-79674461D01*
X140237401Y-79427899D01*
X137157565Y-76348063D01*
X137241441Y-76294090D01*
X137386431Y-76081890D01*
X137390567Y-76061466D01*
X137559357Y-76230551D01*
X138123330Y-76464733D01*
X138733991Y-76465265D01*
X139298371Y-76232068D01*
X139730551Y-75800643D01*
X139964733Y-75236670D01*
X139965265Y-74626009D01*
X139732068Y-74061629D01*
X139300643Y-73629449D01*
X139190000Y-73583506D01*
X139190000Y-68326000D01*
X139132148Y-68035161D01*
X139132148Y-68035160D01*
X138967401Y-67788599D01*
X138395766Y-67216964D01*
X138440733Y-67108670D01*
X138441265Y-66498009D01*
X138208068Y-65933629D01*
X137776643Y-65501449D01*
X137666000Y-65455506D01*
X137666000Y-61931300D01*
X137608148Y-61640461D01*
X137443401Y-61393899D01*
X134363565Y-58314063D01*
X134447441Y-58260090D01*
X134592431Y-58047890D01*
X134596567Y-58027466D01*
X134765357Y-58196551D01*
X135329330Y-58430733D01*
X135939991Y-58431265D01*
X136504371Y-58198068D01*
X136936551Y-57766643D01*
X137170733Y-57202670D01*
X137171265Y-56592009D01*
X136938068Y-56027629D01*
X136506643Y-55595449D01*
X135942670Y-55361267D01*
X135332009Y-55360735D01*
X134767629Y-55593932D01*
X134599387Y-55761880D01*
X134599162Y-55760683D01*
X134460090Y-55544559D01*
X134247890Y-55399569D01*
X133996000Y-55348560D01*
X132196000Y-55348560D01*
X131960683Y-55392838D01*
X131744559Y-55531910D01*
X131599569Y-55744110D01*
X131548560Y-55996000D01*
X131548560Y-57796000D01*
X131592838Y-58031317D01*
X131731910Y-58247441D01*
X131944110Y-58392431D01*
X132196000Y-58443440D01*
X132414767Y-58443440D01*
X132558599Y-58658701D01*
X136146000Y-62246102D01*
X136146000Y-65455154D01*
X136037629Y-65499932D01*
X135869387Y-65667880D01*
X135869162Y-65666683D01*
X135730090Y-65450559D01*
X135517890Y-65305569D01*
X135266000Y-65254560D01*
X133466000Y-65254560D01*
X133230683Y-65298838D01*
X133014559Y-65437910D01*
X132869569Y-65650110D01*
X132818560Y-65902000D01*
X132818560Y-67702000D01*
X132862838Y-67937317D01*
X133001910Y-68153441D01*
X133214110Y-68298431D01*
X133466000Y-68349440D01*
X135266000Y-68349440D01*
X135501317Y-68305162D01*
X135717441Y-68166090D01*
X135862431Y-67953890D01*
X135866567Y-67933466D01*
X136035357Y-68102551D01*
X136599330Y-68336733D01*
X137209991Y-68337265D01*
X137320713Y-68291515D01*
X137670000Y-68640802D01*
X137670000Y-73583154D01*
X137561629Y-73627932D01*
X137393387Y-73795880D01*
X137393162Y-73794683D01*
X137254090Y-73578559D01*
X137041890Y-73433569D01*
X136790000Y-73382560D01*
X134990000Y-73382560D01*
X134754683Y-73426838D01*
X134538559Y-73565910D01*
X134393569Y-73778110D01*
X134342560Y-74030000D01*
X134342560Y-75830000D01*
X134386838Y-76065317D01*
X134525910Y-76281441D01*
X134738110Y-76426431D01*
X134990000Y-76477440D01*
X135208767Y-76477440D01*
X135352599Y-76692701D01*
X138940000Y-80280102D01*
X138940000Y-82981154D01*
X138831629Y-83025932D01*
X138663387Y-83193880D01*
X138663162Y-83192683D01*
X138524090Y-82976559D01*
X138311890Y-82831569D01*
X138060000Y-82780560D01*
X136260000Y-82780560D01*
X136024683Y-82824838D01*
X135808559Y-82963910D01*
X135663569Y-83176110D01*
X135612560Y-83428000D01*
X135612560Y-85228000D01*
X135656838Y-85463317D01*
X135795910Y-85679441D01*
X136008110Y-85824431D01*
X136260000Y-85875440D01*
X136400000Y-85875440D01*
X136400000Y-89706700D01*
X136457852Y-89997539D01*
X136622599Y-90244101D01*
X137162435Y-90783937D01*
X137078559Y-90837910D01*
X136933569Y-91050110D01*
X136882560Y-91302000D01*
X136882560Y-92803600D01*
X133850981Y-92803600D01*
X134056476Y-90748648D01*
X134048194Y-90663257D01*
X134052864Y-90577590D01*
X133544864Y-87021591D01*
X133520432Y-86952136D01*
X133509253Y-86879363D01*
X132522278Y-84165180D01*
X132279098Y-81976561D01*
X131772060Y-75131551D01*
X131765802Y-75108963D01*
X131767143Y-75085560D01*
X129991316Y-62401078D01*
X129506477Y-57310273D01*
X131082494Y-54608528D01*
X133585845Y-53015487D01*
X136046657Y-52791777D01*
X137649866Y-53392980D01*
G36*
X182325169Y-130633515D02*
X182714436Y-131023461D01*
X183223298Y-131234759D01*
X183774285Y-131235240D01*
X184283515Y-131024831D01*
X184673461Y-130635564D01*
X184706733Y-130555435D01*
X188776998Y-134625700D01*
X188587000Y-134730085D01*
X188587000Y-135873000D01*
X188607000Y-135873000D01*
X188607000Y-136127000D01*
X188587000Y-136127000D01*
X188587000Y-136147000D01*
X188333000Y-136147000D01*
X188333000Y-136127000D01*
X188313000Y-136127000D01*
X188313000Y-135873000D01*
X188333000Y-135873000D01*
X188333000Y-134730085D01*
X188110961Y-134608096D01*
X187722577Y-134768959D01*
X187307611Y-135144866D01*
X187204986Y-135361703D01*
X186934698Y-134957189D01*
X186469151Y-134646120D01*
X185920000Y-134536887D01*
X185370849Y-134646120D01*
X184905302Y-134957189D01*
X184650000Y-135339275D01*
X184394698Y-134957189D01*
X183929151Y-134646120D01*
X183380000Y-134536887D01*
X182830849Y-134646120D01*
X182365302Y-134957189D01*
X182164321Y-135257978D01*
X182068424Y-135277053D01*
X181854698Y-134957189D01*
X181389151Y-134646120D01*
X180840000Y-134536887D01*
X180290849Y-134646120D01*
X179825302Y-134957189D01*
X179570000Y-135339275D01*
X179314698Y-134957189D01*
X179060000Y-134787005D01*
X179060000Y-131117185D01*
X179283515Y-131024831D01*
X179673461Y-130635564D01*
X179749927Y-130451414D01*
X179825169Y-130633515D01*
X180214436Y-131023461D01*
X180723298Y-131234759D01*
X181274285Y-131235240D01*
X181783515Y-131024831D01*
X182173461Y-130635564D01*
X182249927Y-130451414D01*
X182325169Y-130633515D01*
X182325169Y-130633515D01*
G37*
X182325169Y-130633515D02*
X182714436Y-131023461D01*
X183223298Y-131234759D01*
X183774285Y-131235240D01*
X184283515Y-131024831D01*
X184673461Y-130635564D01*
X184706733Y-130555435D01*
X188776998Y-134625700D01*
X188587000Y-134730085D01*
X188587000Y-135873000D01*
X188607000Y-135873000D01*
X188607000Y-136127000D01*
X188587000Y-136127000D01*
X188587000Y-136147000D01*
X188333000Y-136147000D01*
X188333000Y-136127000D01*
X188313000Y-136127000D01*
X188313000Y-135873000D01*
X188333000Y-135873000D01*
X188333000Y-134730085D01*
X188110961Y-134608096D01*
X187722577Y-134768959D01*
X187307611Y-135144866D01*
X187204986Y-135361703D01*
X186934698Y-134957189D01*
X186469151Y-134646120D01*
X185920000Y-134536887D01*
X185370849Y-134646120D01*
X184905302Y-134957189D01*
X184650000Y-135339275D01*
X184394698Y-134957189D01*
X183929151Y-134646120D01*
X183380000Y-134536887D01*
X182830849Y-134646120D01*
X182365302Y-134957189D01*
X182164321Y-135257978D01*
X182068424Y-135277053D01*
X181854698Y-134957189D01*
X181389151Y-134646120D01*
X180840000Y-134536887D01*
X180290849Y-134646120D01*
X179825302Y-134957189D01*
X179570000Y-135339275D01*
X179314698Y-134957189D01*
X179060000Y-134787005D01*
X179060000Y-131117185D01*
X179283515Y-131024831D01*
X179673461Y-130635564D01*
X179749927Y-130451414D01*
X179825169Y-130633515D01*
X180214436Y-131023461D01*
X180723298Y-131234759D01*
X181274285Y-131235240D01*
X181783515Y-131024831D01*
X182173461Y-130635564D01*
X182249927Y-130451414D01*
X182325169Y-130633515D01*
G36*
X189127000Y-131413000D02*
X189147000Y-131413000D01*
X189147000Y-131667000D01*
X189127000Y-131667000D01*
X189127000Y-131687000D01*
X188873000Y-131687000D01*
X188873000Y-131667000D01*
X188853000Y-131667000D01*
X188853000Y-131413000D01*
X188873000Y-131413000D01*
X188873000Y-131393000D01*
X189127000Y-131393000D01*
X189127000Y-131413000D01*
X189127000Y-131413000D01*
G37*
X189127000Y-131413000D02*
X189147000Y-131413000D01*
X189147000Y-131667000D01*
X189127000Y-131667000D01*
X189127000Y-131687000D01*
X188873000Y-131687000D01*
X188873000Y-131667000D01*
X188853000Y-131667000D01*
X188853000Y-131413000D01*
X188873000Y-131413000D01*
X188873000Y-131393000D01*
X189127000Y-131393000D01*
X189127000Y-131413000D01*
M02*
