M48
;DRILL file {KiCad 4.0.6} date 11/09/17 18:44:31
;FORMAT={2:4/ absolute / inch / suppress trailing zeros}
FMAT,2
INCH,LZ
T1C0.016
T2C0.031
T3C0.035
T4C0.039
T5C0.126
%
G90
G05
M72
T1
X069956Y-052706
X071363Y-057484
T2
X041488Y-052362
X044488Y-052362
X044783Y-05
X044783Y-050984
X070197Y-053543
X070197Y-056543
X071197Y-053543
X071197Y-056543
X072197Y-053543
X072197Y-056543
X073197Y-053543
X073197Y-056543
X074197Y-053543
X074197Y-056543
X075197Y-053543
X075197Y-056543
X076197Y-053543
X076197Y-056543
X077197Y-053543
X077197Y-056543
T3
X0439Y-027165
X044488Y-029528
X0449Y-027165
X045276Y-03189
X045488Y-029528
X046276Y-03189
X046638Y-034646
X047425Y-037008
X047638Y-034646
X048425Y-037008
X052543Y-035433
X05315Y-032283
X053331Y-029134
X053543Y-035433
X053724Y-025984
X054118Y-022441
X05415Y-032283
X054331Y-029134
X054724Y-025984
X055118Y-022441
X057661Y-035039
X058661Y-03189
X058661Y-035039
X059661Y-03189
X059843Y-029134
X060811Y-025984
X060843Y-029134
X061417Y-022441
X061811Y-025984
X061992Y-037795
X062417Y-022441
X062992Y-037795
X063173Y-035039
X0637Y-0561
X0637Y-057399
X064173Y-035039
X064684Y-0561
X064684Y-057399
X064748Y-032283
X065669Y-0561
X065669Y-057399
X065748Y-032283
X065929Y-029528
X066717Y-026378
X066929Y-029528
X067717Y-026378
T4
X040339Y-054118
X040339Y-055118
X041339Y-054118
X041339Y-055118
X042339Y-054118
X042339Y-055118
X043339Y-054118
X043339Y-055118
X044339Y-054118
X044339Y-055118
X0599Y-0571
X0609Y-0571
T5
X046457Y-052165
X046457Y-057087
X067717Y-052165
X067717Y-057087
T0
M30
