G04 #@! TF.FileFunction,Legend,Bot*
%FSLAX46Y46*%
G04 Gerber Fmt 4.6, Leading zero omitted, Abs format (unit mm)*
G04 Created by KiCad (PCBNEW 4.0.6) date 11/09/17 18:44:30*
%MOMM*%
%LPD*%
G01*
G04 APERTURE LIST*
%ADD10C,0.100000*%
%ADD11C,0.200000*%
%ADD12C,0.300000*%
%ADD13C,0.120000*%
%ADD14C,0.150000*%
G04 APERTURE END LIST*
D10*
D11*
X191000000Y-131500000D02*
X192500000Y-131500000D01*
X191750000Y-128250000D02*
X191750000Y-129750000D01*
X191000000Y-129000000D02*
X192500000Y-129000000D01*
D12*
X176035714Y-148678571D02*
X176035714Y-147178571D01*
X176035714Y-147892857D02*
X175178571Y-147892857D01*
X175178571Y-148678571D02*
X175178571Y-147178571D01*
X173821428Y-148678571D02*
X173821428Y-147892857D01*
X173892857Y-147750000D01*
X174035714Y-147678571D01*
X174321428Y-147678571D01*
X174464285Y-147750000D01*
X173821428Y-148607143D02*
X173964285Y-148678571D01*
X174321428Y-148678571D01*
X174464285Y-148607143D01*
X174535714Y-148464286D01*
X174535714Y-148321429D01*
X174464285Y-148178571D01*
X174321428Y-148107143D01*
X173964285Y-148107143D01*
X173821428Y-148035714D01*
X173107142Y-147678571D02*
X173107142Y-149178571D01*
X173107142Y-147750000D02*
X172964285Y-147678571D01*
X172678571Y-147678571D01*
X172535714Y-147750000D01*
X172464285Y-147821429D01*
X172392856Y-147964286D01*
X172392856Y-148392857D01*
X172464285Y-148535714D01*
X172535714Y-148607143D01*
X172678571Y-148678571D01*
X172964285Y-148678571D01*
X173107142Y-148607143D01*
X171749999Y-147678571D02*
X171749999Y-149178571D01*
X171749999Y-147750000D02*
X171607142Y-147678571D01*
X171321428Y-147678571D01*
X171178571Y-147750000D01*
X171107142Y-147821429D01*
X171035713Y-147964286D01*
X171035713Y-148392857D01*
X171107142Y-148535714D01*
X171178571Y-148607143D01*
X171321428Y-148678571D01*
X171607142Y-148678571D01*
X171749999Y-148607143D01*
X170535713Y-147678571D02*
X170178570Y-148678571D01*
X169821428Y-147678571D02*
X170178570Y-148678571D01*
X170321428Y-149035714D01*
X170392856Y-149107143D01*
X170535713Y-149178571D01*
X168321428Y-147178571D02*
X167464285Y-147178571D01*
X167892856Y-148678571D02*
X167892856Y-147178571D01*
X166964285Y-148678571D02*
X166964285Y-147178571D01*
X166321428Y-148678571D02*
X166321428Y-147892857D01*
X166392857Y-147750000D01*
X166535714Y-147678571D01*
X166749999Y-147678571D01*
X166892857Y-147750000D01*
X166964285Y-147821429D01*
X164964285Y-148678571D02*
X164964285Y-147892857D01*
X165035714Y-147750000D01*
X165178571Y-147678571D01*
X165464285Y-147678571D01*
X165607142Y-147750000D01*
X164964285Y-148607143D02*
X165107142Y-148678571D01*
X165464285Y-148678571D01*
X165607142Y-148607143D01*
X165678571Y-148464286D01*
X165678571Y-148321429D01*
X165607142Y-148178571D01*
X165464285Y-148107143D01*
X165107142Y-148107143D01*
X164964285Y-148035714D01*
X164249999Y-147678571D02*
X164249999Y-148678571D01*
X164249999Y-147821429D02*
X164178571Y-147750000D01*
X164035713Y-147678571D01*
X163821428Y-147678571D01*
X163678571Y-147750000D01*
X163607142Y-147892857D01*
X163607142Y-148678571D01*
X162892856Y-148678571D02*
X162892856Y-147178571D01*
X162749999Y-148107143D02*
X162321428Y-148678571D01*
X162321428Y-147678571D02*
X162892856Y-148250000D01*
X161749999Y-148607143D02*
X161607142Y-148678571D01*
X161321427Y-148678571D01*
X161178570Y-148607143D01*
X161107142Y-148464286D01*
X161107142Y-148392857D01*
X161178570Y-148250000D01*
X161321427Y-148178571D01*
X161535713Y-148178571D01*
X161678570Y-148107143D01*
X161749999Y-147964286D01*
X161749999Y-147892857D01*
X161678570Y-147750000D01*
X161535713Y-147678571D01*
X161321427Y-147678571D01*
X161178570Y-147750000D01*
X159821427Y-147678571D02*
X159821427Y-148892857D01*
X159892856Y-149035714D01*
X159964284Y-149107143D01*
X160107141Y-149178571D01*
X160321427Y-149178571D01*
X160464284Y-149107143D01*
X159821427Y-148607143D02*
X159964284Y-148678571D01*
X160249998Y-148678571D01*
X160392856Y-148607143D01*
X160464284Y-148535714D01*
X160535713Y-148392857D01*
X160535713Y-147964286D01*
X160464284Y-147821429D01*
X160392856Y-147750000D01*
X160249998Y-147678571D01*
X159964284Y-147678571D01*
X159821427Y-147750000D01*
X159107141Y-148678571D02*
X159107141Y-147678571D01*
X159107141Y-147178571D02*
X159178570Y-147250000D01*
X159107141Y-147321429D01*
X159035713Y-147250000D01*
X159107141Y-147178571D01*
X159107141Y-147321429D01*
X158535712Y-147678571D02*
X158178569Y-148678571D01*
X157821427Y-147678571D01*
X157249998Y-148678571D02*
X157249998Y-147678571D01*
X157249998Y-147178571D02*
X157321427Y-147250000D01*
X157249998Y-147321429D01*
X157178570Y-147250000D01*
X157249998Y-147178571D01*
X157249998Y-147321429D01*
X156535712Y-147678571D02*
X156535712Y-148678571D01*
X156535712Y-147821429D02*
X156464284Y-147750000D01*
X156321426Y-147678571D01*
X156107141Y-147678571D01*
X155964284Y-147750000D01*
X155892855Y-147892857D01*
X155892855Y-148678571D01*
X154535712Y-147678571D02*
X154535712Y-148892857D01*
X154607141Y-149035714D01*
X154678569Y-149107143D01*
X154821426Y-149178571D01*
X155035712Y-149178571D01*
X155178569Y-149107143D01*
X154535712Y-148607143D02*
X154678569Y-148678571D01*
X154964283Y-148678571D01*
X155107141Y-148607143D01*
X155178569Y-148535714D01*
X155249998Y-148392857D01*
X155249998Y-147964286D01*
X155178569Y-147821429D01*
X155107141Y-147750000D01*
X154964283Y-147678571D01*
X154678569Y-147678571D01*
X154535712Y-147750000D01*
X152892855Y-147678571D02*
X152321426Y-147678571D01*
X152678569Y-148678571D02*
X152678569Y-147392857D01*
X152607141Y-147250000D01*
X152464283Y-147178571D01*
X152321426Y-147178571D01*
X151821426Y-148678571D02*
X151821426Y-147678571D01*
X151821426Y-147964286D02*
X151749998Y-147821429D01*
X151678569Y-147750000D01*
X151535712Y-147678571D01*
X151392855Y-147678571D01*
X150678569Y-148678571D02*
X150821427Y-148607143D01*
X150892855Y-148535714D01*
X150964284Y-148392857D01*
X150964284Y-147964286D01*
X150892855Y-147821429D01*
X150821427Y-147750000D01*
X150678569Y-147678571D01*
X150464284Y-147678571D01*
X150321427Y-147750000D01*
X150249998Y-147821429D01*
X150178569Y-147964286D01*
X150178569Y-148392857D01*
X150249998Y-148535714D01*
X150321427Y-148607143D01*
X150464284Y-148678571D01*
X150678569Y-148678571D01*
X149535712Y-148678571D02*
X149535712Y-147678571D01*
X149535712Y-147821429D02*
X149464284Y-147750000D01*
X149321426Y-147678571D01*
X149107141Y-147678571D01*
X148964284Y-147750000D01*
X148892855Y-147892857D01*
X148892855Y-148678571D01*
X148892855Y-147892857D02*
X148821426Y-147750000D01*
X148678569Y-147678571D01*
X148464284Y-147678571D01*
X148321426Y-147750000D01*
X148249998Y-147892857D01*
X148249998Y-148678571D01*
X145749998Y-148678571D02*
X145749998Y-147892857D01*
X145821427Y-147750000D01*
X145964284Y-147678571D01*
X146249998Y-147678571D01*
X146392855Y-147750000D01*
X145749998Y-148607143D02*
X145892855Y-148678571D01*
X146249998Y-148678571D01*
X146392855Y-148607143D01*
X146464284Y-148464286D01*
X146464284Y-148321429D01*
X146392855Y-148178571D01*
X146249998Y-148107143D01*
X145892855Y-148107143D01*
X145749998Y-148035714D01*
X144821426Y-148678571D02*
X144964284Y-148607143D01*
X145035712Y-148464286D01*
X145035712Y-147178571D01*
X144035712Y-148678571D02*
X144178570Y-148607143D01*
X144249998Y-148464286D01*
X144249998Y-147178571D01*
X142107141Y-148678571D02*
X142249999Y-148607143D01*
X142321427Y-148535714D01*
X142392856Y-148392857D01*
X142392856Y-147964286D01*
X142321427Y-147821429D01*
X142249999Y-147750000D01*
X142107141Y-147678571D01*
X141892856Y-147678571D01*
X141749999Y-147750000D01*
X141678570Y-147821429D01*
X141607141Y-147964286D01*
X141607141Y-148392857D01*
X141678570Y-148535714D01*
X141749999Y-148607143D01*
X141892856Y-148678571D01*
X142107141Y-148678571D01*
X141178570Y-147678571D02*
X140607141Y-147678571D01*
X140964284Y-148678571D02*
X140964284Y-147392857D01*
X140892856Y-147250000D01*
X140749998Y-147178571D01*
X140607141Y-147178571D01*
X138321427Y-147678571D02*
X138321427Y-148678571D01*
X138964284Y-147678571D02*
X138964284Y-148464286D01*
X138892856Y-148607143D01*
X138749998Y-148678571D01*
X138535713Y-148678571D01*
X138392856Y-148607143D01*
X138321427Y-148535714D01*
X137678570Y-148607143D02*
X137535713Y-148678571D01*
X137249998Y-148678571D01*
X137107141Y-148607143D01*
X137035713Y-148464286D01*
X137035713Y-148392857D01*
X137107141Y-148250000D01*
X137249998Y-148178571D01*
X137464284Y-148178571D01*
X137607141Y-148107143D01*
X137678570Y-147964286D01*
X137678570Y-147892857D01*
X137607141Y-147750000D01*
X137464284Y-147678571D01*
X137249998Y-147678571D01*
X137107141Y-147750000D01*
X135249998Y-148678571D02*
X135249998Y-147178571D01*
X134607141Y-148678571D02*
X134607141Y-147892857D01*
X134678570Y-147750000D01*
X134821427Y-147678571D01*
X135035712Y-147678571D01*
X135178570Y-147750000D01*
X135249998Y-147821429D01*
X133321427Y-148607143D02*
X133464284Y-148678571D01*
X133749998Y-148678571D01*
X133892855Y-148607143D01*
X133964284Y-148464286D01*
X133964284Y-147892857D01*
X133892855Y-147750000D01*
X133749998Y-147678571D01*
X133464284Y-147678571D01*
X133321427Y-147750000D01*
X133249998Y-147892857D01*
X133249998Y-148035714D01*
X133964284Y-148178571D01*
X132607141Y-148678571D02*
X132607141Y-147678571D01*
X132607141Y-147964286D02*
X132535713Y-147821429D01*
X132464284Y-147750000D01*
X132321427Y-147678571D01*
X132178570Y-147678571D01*
X131107142Y-148607143D02*
X131249999Y-148678571D01*
X131535713Y-148678571D01*
X131678570Y-148607143D01*
X131749999Y-148464286D01*
X131749999Y-147892857D01*
X131678570Y-147750000D01*
X131535713Y-147678571D01*
X131249999Y-147678571D01*
X131107142Y-147750000D01*
X131035713Y-147892857D01*
X131035713Y-148035714D01*
X131749999Y-148178571D01*
X128607142Y-148678571D02*
X128607142Y-147892857D01*
X128678571Y-147750000D01*
X128821428Y-147678571D01*
X129107142Y-147678571D01*
X129249999Y-147750000D01*
X128607142Y-148607143D02*
X128749999Y-148678571D01*
X129107142Y-148678571D01*
X129249999Y-148607143D01*
X129321428Y-148464286D01*
X129321428Y-148321429D01*
X129249999Y-148178571D01*
X129107142Y-148107143D01*
X128749999Y-148107143D01*
X128607142Y-148035714D01*
X128107142Y-147678571D02*
X127535713Y-147678571D01*
X127892856Y-147178571D02*
X127892856Y-148464286D01*
X127821428Y-148607143D01*
X127678570Y-148678571D01*
X127535713Y-148678571D01*
X126107142Y-147178571D02*
X125249999Y-147178571D01*
X125678570Y-148678571D02*
X125678570Y-147178571D01*
X124749999Y-148678571D02*
X124749999Y-147178571D01*
X124107142Y-148678571D02*
X124107142Y-147892857D01*
X124178571Y-147750000D01*
X124321428Y-147678571D01*
X124535713Y-147678571D01*
X124678571Y-147750000D01*
X124749999Y-147821429D01*
X123392856Y-148678571D02*
X123392856Y-147678571D01*
X123392856Y-147178571D02*
X123464285Y-147250000D01*
X123392856Y-147321429D01*
X123321428Y-147250000D01*
X123392856Y-147178571D01*
X123392856Y-147321429D01*
X122678570Y-148678571D02*
X122678570Y-147678571D01*
X122678570Y-147821429D02*
X122607142Y-147750000D01*
X122464284Y-147678571D01*
X122249999Y-147678571D01*
X122107142Y-147750000D01*
X122035713Y-147892857D01*
X122035713Y-148678571D01*
X122035713Y-147892857D02*
X121964284Y-147750000D01*
X121821427Y-147678571D01*
X121607142Y-147678571D01*
X121464284Y-147750000D01*
X121392856Y-147892857D01*
X121392856Y-148678571D01*
X120678570Y-148678571D02*
X120678570Y-147178571D01*
X120678570Y-147750000D02*
X120535713Y-147678571D01*
X120249999Y-147678571D01*
X120107142Y-147750000D01*
X120035713Y-147821429D01*
X119964284Y-147964286D01*
X119964284Y-148392857D01*
X120035713Y-148535714D01*
X120107142Y-148607143D01*
X120249999Y-148678571D01*
X120535713Y-148678571D01*
X120678570Y-148607143D01*
X119107141Y-148678571D02*
X119249999Y-148607143D01*
X119321427Y-148464286D01*
X119321427Y-147178571D01*
X117964285Y-148607143D02*
X118107142Y-148678571D01*
X118392856Y-148678571D01*
X118535713Y-148607143D01*
X118607142Y-148464286D01*
X118607142Y-147892857D01*
X118535713Y-147750000D01*
X118392856Y-147678571D01*
X118107142Y-147678571D01*
X117964285Y-147750000D01*
X117892856Y-147892857D01*
X117892856Y-148035714D01*
X118607142Y-148178571D01*
D11*
X174000000Y-123000000D02*
X170000000Y-123000000D01*
X174000000Y-145000000D02*
X174000000Y-123000000D01*
X116000000Y-123000000D02*
X120000000Y-123000000D01*
X170000000Y-145000000D02*
X170000000Y-123000000D01*
X116000000Y-145000000D02*
X116000000Y-123000000D01*
X120000000Y-145000000D02*
X120000000Y-123000000D01*
D13*
X117260000Y-74999538D02*
G75*
G02X111710000Y-76544830I-2990000J-462D01*
G01*
X117260000Y-75000462D02*
G75*
G03X111710000Y-73455170I-2990000J462D01*
G01*
X116770000Y-75000000D02*
G75*
G03X116770000Y-75000000I-2500000J0D01*
G01*
X111710000Y-76545000D02*
X111710000Y-73455000D01*
X122720000Y-87999538D02*
G75*
G02X117170000Y-89544830I-2990000J-462D01*
G01*
X122720000Y-88000462D02*
G75*
G03X117170000Y-86455170I-2990000J462D01*
G01*
X122230000Y-88000000D02*
G75*
G03X122230000Y-88000000I-2500000J0D01*
G01*
X117170000Y-89545000D02*
X117170000Y-86455000D01*
X140720000Y-65999538D02*
G75*
G02X135170000Y-67544830I-2990000J-462D01*
G01*
X140720000Y-66000462D02*
G75*
G03X135170000Y-64455170I-2990000J462D01*
G01*
X140230000Y-66000000D02*
G75*
G03X140230000Y-66000000I-2500000J0D01*
G01*
X135170000Y-67545000D02*
X135170000Y-64455000D01*
X139260000Y-81999538D02*
G75*
G02X133710000Y-83544830I-2990000J-462D01*
G01*
X139260000Y-82000462D02*
G75*
G03X133710000Y-80455170I-2990000J462D01*
G01*
X138770000Y-82000000D02*
G75*
G03X138770000Y-82000000I-2500000J0D01*
G01*
X133710000Y-83545000D02*
X133710000Y-80455000D01*
X158720000Y-65999538D02*
G75*
G02X153170000Y-67544830I-2990000J-462D01*
G01*
X158720000Y-66000462D02*
G75*
G03X153170000Y-64455170I-2990000J462D01*
G01*
X158230000Y-66000000D02*
G75*
G03X158230000Y-66000000I-2500000J0D01*
G01*
X153170000Y-67545000D02*
X153170000Y-64455000D01*
X153260000Y-80999538D02*
G75*
G02X147710000Y-82544830I-2990000J-462D01*
G01*
X153260000Y-81000462D02*
G75*
G03X147710000Y-79455170I-2990000J462D01*
G01*
X152770000Y-81000000D02*
G75*
G03X152770000Y-81000000I-2500000J0D01*
G01*
X147710000Y-82545000D02*
X147710000Y-79455000D01*
X171720000Y-74999538D02*
G75*
G02X166170000Y-76544830I-2990000J-462D01*
G01*
X171720000Y-75000462D02*
G75*
G03X166170000Y-73455170I-2990000J462D01*
G01*
X171230000Y-75000000D02*
G75*
G03X171230000Y-75000000I-2500000J0D01*
G01*
X166170000Y-76545000D02*
X166170000Y-73455000D01*
X164720000Y-88999538D02*
G75*
G02X159170000Y-90544830I-2990000J-462D01*
G01*
X164720000Y-89000462D02*
G75*
G03X159170000Y-87455170I-2990000J462D01*
G01*
X164230000Y-89000000D02*
G75*
G03X164230000Y-89000000I-2500000J0D01*
G01*
X159170000Y-90545000D02*
X159170000Y-87455000D01*
D14*
X115008095Y-79412381D02*
X115008095Y-78412381D01*
X114770000Y-78412381D01*
X114627142Y-78460000D01*
X114531904Y-78555238D01*
X114484285Y-78650476D01*
X114436666Y-78840952D01*
X114436666Y-78983810D01*
X114484285Y-79174286D01*
X114531904Y-79269524D01*
X114627142Y-79364762D01*
X114770000Y-79412381D01*
X115008095Y-79412381D01*
X113579523Y-78745714D02*
X113579523Y-79412381D01*
X113817619Y-78364762D02*
X114055714Y-79079048D01*
X113436666Y-79079048D01*
X120468095Y-92412381D02*
X120468095Y-91412381D01*
X120230000Y-91412381D01*
X120087142Y-91460000D01*
X119991904Y-91555238D01*
X119944285Y-91650476D01*
X119896666Y-91840952D01*
X119896666Y-91983810D01*
X119944285Y-92174286D01*
X119991904Y-92269524D01*
X120087142Y-92364762D01*
X120230000Y-92412381D01*
X120468095Y-92412381D01*
X118991904Y-91412381D02*
X119468095Y-91412381D01*
X119515714Y-91888571D01*
X119468095Y-91840952D01*
X119372857Y-91793333D01*
X119134761Y-91793333D01*
X119039523Y-91840952D01*
X118991904Y-91888571D01*
X118944285Y-91983810D01*
X118944285Y-92221905D01*
X118991904Y-92317143D01*
X119039523Y-92364762D01*
X119134761Y-92412381D01*
X119372857Y-92412381D01*
X119468095Y-92364762D01*
X119515714Y-92317143D01*
X138468095Y-70412381D02*
X138468095Y-69412381D01*
X138230000Y-69412381D01*
X138087142Y-69460000D01*
X137991904Y-69555238D01*
X137944285Y-69650476D01*
X137896666Y-69840952D01*
X137896666Y-69983810D01*
X137944285Y-70174286D01*
X137991904Y-70269524D01*
X138087142Y-70364762D01*
X138230000Y-70412381D01*
X138468095Y-70412381D01*
X137420476Y-70412381D02*
X137230000Y-70412381D01*
X137134761Y-70364762D01*
X137087142Y-70317143D01*
X136991904Y-70174286D01*
X136944285Y-69983810D01*
X136944285Y-69602857D01*
X136991904Y-69507619D01*
X137039523Y-69460000D01*
X137134761Y-69412381D01*
X137325238Y-69412381D01*
X137420476Y-69460000D01*
X137468095Y-69507619D01*
X137515714Y-69602857D01*
X137515714Y-69840952D01*
X137468095Y-69936190D01*
X137420476Y-69983810D01*
X137325238Y-70031429D01*
X137134761Y-70031429D01*
X137039523Y-69983810D01*
X136991904Y-69936190D01*
X136944285Y-69840952D01*
X137484286Y-86412381D02*
X137484286Y-85412381D01*
X137246191Y-85412381D01*
X137103333Y-85460000D01*
X137008095Y-85555238D01*
X136960476Y-85650476D01*
X136912857Y-85840952D01*
X136912857Y-85983810D01*
X136960476Y-86174286D01*
X137008095Y-86269524D01*
X137103333Y-86364762D01*
X137246191Y-86412381D01*
X137484286Y-86412381D01*
X135960476Y-86412381D02*
X136531905Y-86412381D01*
X136246191Y-86412381D02*
X136246191Y-85412381D01*
X136341429Y-85555238D01*
X136436667Y-85650476D01*
X136531905Y-85698095D01*
X135341429Y-85412381D02*
X135246190Y-85412381D01*
X135150952Y-85460000D01*
X135103333Y-85507619D01*
X135055714Y-85602857D01*
X135008095Y-85793333D01*
X135008095Y-86031429D01*
X135055714Y-86221905D01*
X135103333Y-86317143D01*
X135150952Y-86364762D01*
X135246190Y-86412381D01*
X135341429Y-86412381D01*
X135436667Y-86364762D01*
X135484286Y-86317143D01*
X135531905Y-86221905D01*
X135579524Y-86031429D01*
X135579524Y-85793333D01*
X135531905Y-85602857D01*
X135484286Y-85507619D01*
X135436667Y-85460000D01*
X135341429Y-85412381D01*
X156944286Y-70412381D02*
X156944286Y-69412381D01*
X156706191Y-69412381D01*
X156563333Y-69460000D01*
X156468095Y-69555238D01*
X156420476Y-69650476D01*
X156372857Y-69840952D01*
X156372857Y-69983810D01*
X156420476Y-70174286D01*
X156468095Y-70269524D01*
X156563333Y-70364762D01*
X156706191Y-70412381D01*
X156944286Y-70412381D01*
X155420476Y-70412381D02*
X155991905Y-70412381D01*
X155706191Y-70412381D02*
X155706191Y-69412381D01*
X155801429Y-69555238D01*
X155896667Y-69650476D01*
X155991905Y-69698095D01*
X154563333Y-69745714D02*
X154563333Y-70412381D01*
X154801429Y-69364762D02*
X155039524Y-70079048D01*
X154420476Y-70079048D01*
X151484286Y-85412381D02*
X151484286Y-84412381D01*
X151246191Y-84412381D01*
X151103333Y-84460000D01*
X151008095Y-84555238D01*
X150960476Y-84650476D01*
X150912857Y-84840952D01*
X150912857Y-84983810D01*
X150960476Y-85174286D01*
X151008095Y-85269524D01*
X151103333Y-85364762D01*
X151246191Y-85412381D01*
X151484286Y-85412381D01*
X149960476Y-85412381D02*
X150531905Y-85412381D01*
X150246191Y-85412381D02*
X150246191Y-84412381D01*
X150341429Y-84555238D01*
X150436667Y-84650476D01*
X150531905Y-84698095D01*
X149055714Y-84412381D02*
X149531905Y-84412381D01*
X149579524Y-84888571D01*
X149531905Y-84840952D01*
X149436667Y-84793333D01*
X149198571Y-84793333D01*
X149103333Y-84840952D01*
X149055714Y-84888571D01*
X149008095Y-84983810D01*
X149008095Y-85221905D01*
X149055714Y-85317143D01*
X149103333Y-85364762D01*
X149198571Y-85412381D01*
X149436667Y-85412381D01*
X149531905Y-85364762D01*
X149579524Y-85317143D01*
X169944286Y-79412381D02*
X169944286Y-78412381D01*
X169706191Y-78412381D01*
X169563333Y-78460000D01*
X169468095Y-78555238D01*
X169420476Y-78650476D01*
X169372857Y-78840952D01*
X169372857Y-78983810D01*
X169420476Y-79174286D01*
X169468095Y-79269524D01*
X169563333Y-79364762D01*
X169706191Y-79412381D01*
X169944286Y-79412381D01*
X168420476Y-79412381D02*
X168991905Y-79412381D01*
X168706191Y-79412381D02*
X168706191Y-78412381D01*
X168801429Y-78555238D01*
X168896667Y-78650476D01*
X168991905Y-78698095D01*
X167944286Y-79412381D02*
X167753810Y-79412381D01*
X167658571Y-79364762D01*
X167610952Y-79317143D01*
X167515714Y-79174286D01*
X167468095Y-78983810D01*
X167468095Y-78602857D01*
X167515714Y-78507619D01*
X167563333Y-78460000D01*
X167658571Y-78412381D01*
X167849048Y-78412381D01*
X167944286Y-78460000D01*
X167991905Y-78507619D01*
X168039524Y-78602857D01*
X168039524Y-78840952D01*
X167991905Y-78936190D01*
X167944286Y-78983810D01*
X167849048Y-79031429D01*
X167658571Y-79031429D01*
X167563333Y-78983810D01*
X167515714Y-78936190D01*
X167468095Y-78840952D01*
X162944286Y-93412381D02*
X162944286Y-92412381D01*
X162706191Y-92412381D01*
X162563333Y-92460000D01*
X162468095Y-92555238D01*
X162420476Y-92650476D01*
X162372857Y-92840952D01*
X162372857Y-92983810D01*
X162420476Y-93174286D01*
X162468095Y-93269524D01*
X162563333Y-93364762D01*
X162706191Y-93412381D01*
X162944286Y-93412381D01*
X161991905Y-92507619D02*
X161944286Y-92460000D01*
X161849048Y-92412381D01*
X161610952Y-92412381D01*
X161515714Y-92460000D01*
X161468095Y-92507619D01*
X161420476Y-92602857D01*
X161420476Y-92698095D01*
X161468095Y-92840952D01*
X162039524Y-93412381D01*
X161420476Y-93412381D01*
X160801429Y-92412381D02*
X160706190Y-92412381D01*
X160610952Y-92460000D01*
X160563333Y-92507619D01*
X160515714Y-92602857D01*
X160468095Y-92793333D01*
X160468095Y-93031429D01*
X160515714Y-93221905D01*
X160563333Y-93317143D01*
X160610952Y-93364762D01*
X160706190Y-93412381D01*
X160801429Y-93412381D01*
X160896667Y-93364762D01*
X160944286Y-93317143D01*
X160991905Y-93221905D01*
X161039524Y-93031429D01*
X161039524Y-92793333D01*
X160991905Y-92602857D01*
X160944286Y-92507619D01*
X160896667Y-92460000D01*
X160801429Y-92412381D01*
M02*
