G04 #@! TF.FileFunction,Soldermask,Top*
%FSLAX46Y46*%
G04 Gerber Fmt 4.6, Leading zero omitted, Abs format (unit mm)*
G04 Created by KiCad (PCBNEW 4.0.6) date 11/09/17 18:44:30*
%MOMM*%
%LPD*%
G01*
G04 APERTURE LIST*
%ADD10C,0.100000*%
%ADD11C,4.000000*%
%ADD12R,1.800000X1.800000*%
%ADD13C,1.800000*%
%ADD14C,1.600000*%
%ADD15O,1.600000X1.600000*%
%ADD16C,1.500000*%
%ADD17R,1.600000X1.600000*%
%ADD18R,1.700000X1.700000*%
%ADD19O,1.700000X1.700000*%
%ADD20R,1.000000X1.000000*%
%ADD21R,1.000000X0.254000*%
G04 APERTURE END LIST*
D10*
D11*
X172000000Y-145000000D03*
X118000000Y-132500000D03*
X172000000Y-132500000D03*
D12*
X111506000Y-69000000D03*
D13*
X114046000Y-69000000D03*
D12*
X115000000Y-81000000D03*
D13*
X117540000Y-81000000D03*
D12*
X120460000Y-94000000D03*
D13*
X123000000Y-94000000D03*
D12*
X113000000Y-75000000D03*
D13*
X115540000Y-75000000D03*
D12*
X118460000Y-88000000D03*
D13*
X121000000Y-88000000D03*
D12*
X137460000Y-57000000D03*
D13*
X140000000Y-57000000D03*
D12*
X135460000Y-74000000D03*
D13*
X138000000Y-74000000D03*
D12*
X133460000Y-90000000D03*
D13*
X136000000Y-90000000D03*
D12*
X136460000Y-66000000D03*
D13*
X139000000Y-66000000D03*
D12*
X135000000Y-82000000D03*
D13*
X137540000Y-82000000D03*
D12*
X156000000Y-57000000D03*
D13*
X158540000Y-57000000D03*
D12*
X152000000Y-74000000D03*
D13*
X154540000Y-74000000D03*
D12*
X146460000Y-89000000D03*
D13*
X149000000Y-89000000D03*
D12*
X154460000Y-66000000D03*
D13*
X157000000Y-66000000D03*
D12*
X149000000Y-81000000D03*
D13*
X151540000Y-81000000D03*
D12*
X169460000Y-67000000D03*
D13*
X172000000Y-67000000D03*
D12*
X164460000Y-82000000D03*
D13*
X167000000Y-82000000D03*
D12*
X157460000Y-96000000D03*
D13*
X160000000Y-96000000D03*
D12*
X167460000Y-75000000D03*
D13*
X170000000Y-75000000D03*
D12*
X160460000Y-89000000D03*
D13*
X163000000Y-89000000D03*
D14*
X105380000Y-133000000D03*
D15*
X113000000Y-133000000D03*
D16*
X164298000Y-142494000D03*
X166798000Y-142494000D03*
X161798000Y-142494000D03*
X161798000Y-145794000D03*
X164298000Y-145794000D03*
X166798000Y-145794000D03*
D17*
X178300000Y-143620000D03*
D15*
X196080000Y-136000000D03*
X180840000Y-143620000D03*
X193540000Y-136000000D03*
X183380000Y-143620000D03*
X191000000Y-136000000D03*
X185920000Y-143620000D03*
X188460000Y-136000000D03*
X188460000Y-143620000D03*
X185920000Y-136000000D03*
X191000000Y-143620000D03*
X183380000Y-136000000D03*
X193540000Y-143620000D03*
X180840000Y-136000000D03*
X196080000Y-143620000D03*
X178300000Y-136000000D03*
D18*
X152146000Y-145034000D03*
D19*
X154686000Y-145034000D03*
D14*
X113750000Y-129500000D03*
X113750000Y-127000000D03*
D11*
X118000000Y-145000000D03*
D18*
X102460000Y-140000000D03*
D19*
X102460000Y-137460000D03*
X105000000Y-140000000D03*
X105000000Y-137460000D03*
X107540000Y-140000000D03*
X107540000Y-137460000D03*
X110080000Y-140000000D03*
X110080000Y-137460000D03*
X112620000Y-140000000D03*
X112620000Y-137460000D03*
D20*
X183000000Y-148000000D03*
X181000000Y-148000000D03*
D21*
X182000000Y-148000000D03*
D20*
X188000000Y-148000000D03*
X190000000Y-148000000D03*
D21*
X189000000Y-148000000D03*
M02*
