G04 #@! TF.FileFunction,Soldermask,Bot*
%FSLAX46Y46*%
G04 Gerber Fmt 4.6, Leading zero omitted, Abs format (unit mm)*
G04 Created by KiCad (PCBNEW 4.0.6) date 11/09/17 18:44:30*
%MOMM*%
%LPD*%
G01*
G04 APERTURE LIST*
%ADD10C,0.100000*%
%ADD11C,0.010000*%
%ADD12C,4.000000*%
%ADD13R,1.800000X1.800000*%
%ADD14C,1.800000*%
%ADD15C,1.600000*%
%ADD16O,1.600000X1.600000*%
%ADD17C,1.500000*%
%ADD18R,1.600000X1.600000*%
%ADD19R,1.700000X1.700000*%
%ADD20O,1.700000X1.700000*%
G04 APERTURE END LIST*
D10*
D11*
G36*
X139863476Y-113425921D02*
X139771698Y-113433468D01*
X139694871Y-113445599D01*
X139679807Y-113449116D01*
X139583216Y-113480087D01*
X139477300Y-113525133D01*
X139370430Y-113580111D01*
X139270982Y-113640877D01*
X139221956Y-113675661D01*
X139100909Y-113777671D01*
X138979468Y-113900196D01*
X138861534Y-114038719D01*
X138751010Y-114188720D01*
X138670299Y-114314366D01*
X138628679Y-114394089D01*
X138608093Y-114459872D01*
X138608503Y-114511953D01*
X138629867Y-114550568D01*
X138630124Y-114550825D01*
X138644961Y-114557923D01*
X138682226Y-114572682D01*
X138740316Y-114594533D01*
X138817628Y-114622905D01*
X138912562Y-114657225D01*
X139023516Y-114696923D01*
X139148887Y-114741429D01*
X139287074Y-114790171D01*
X139436474Y-114842578D01*
X139595487Y-114898080D01*
X139762509Y-114956105D01*
X139921666Y-115011157D01*
X140093629Y-115070607D01*
X140258385Y-115127747D01*
X140414401Y-115182034D01*
X140560142Y-115232928D01*
X140694075Y-115279885D01*
X140814665Y-115322364D01*
X140920379Y-115359824D01*
X141009684Y-115391722D01*
X141081044Y-115417518D01*
X141132927Y-115436669D01*
X141163798Y-115448633D01*
X141172235Y-115452856D01*
X141157239Y-115452246D01*
X141118659Y-115449499D01*
X141058209Y-115444761D01*
X140977604Y-115438179D01*
X140878556Y-115429899D01*
X140762779Y-115420066D01*
X140631988Y-115408827D01*
X140487895Y-115396328D01*
X140332215Y-115382716D01*
X140166662Y-115368136D01*
X139992948Y-115352735D01*
X139869990Y-115341774D01*
X139690796Y-115325811D01*
X139517986Y-115310508D01*
X139353334Y-115296017D01*
X139198618Y-115282489D01*
X139055613Y-115270077D01*
X138926094Y-115258934D01*
X138811839Y-115249212D01*
X138714623Y-115241062D01*
X138636222Y-115234638D01*
X138578412Y-115230091D01*
X138542968Y-115227575D01*
X138532764Y-115227100D01*
X138479517Y-115232109D01*
X138444655Y-115249134D01*
X138422815Y-115281174D01*
X138419204Y-115290597D01*
X138414647Y-115309557D01*
X138406014Y-115351311D01*
X138393720Y-115413657D01*
X138378184Y-115494388D01*
X138359821Y-115591302D01*
X138339050Y-115702193D01*
X138316285Y-115824857D01*
X138291945Y-115957089D01*
X138266446Y-116096686D01*
X138257676Y-116144940D01*
X138109616Y-116960650D01*
X137933258Y-117515242D01*
X137896946Y-117630428D01*
X137863154Y-117739539D01*
X137832663Y-117839914D01*
X137806255Y-117928892D01*
X137784710Y-118003813D01*
X137768808Y-118062017D01*
X137759331Y-118100843D01*
X137756900Y-118116152D01*
X137760718Y-118155033D01*
X137769996Y-118186850D01*
X137770859Y-118188551D01*
X137787849Y-118203863D01*
X137825269Y-118227301D01*
X137880045Y-118257361D01*
X137949105Y-118292537D01*
X138029374Y-118331323D01*
X138117781Y-118372214D01*
X138211251Y-118413704D01*
X138306712Y-118454289D01*
X138347450Y-118471023D01*
X138412356Y-118497402D01*
X138471116Y-118521315D01*
X138518653Y-118540693D01*
X138549892Y-118553469D01*
X138557000Y-118556397D01*
X138576172Y-118565241D01*
X138577009Y-118571793D01*
X138557183Y-118580354D01*
X138541005Y-118585972D01*
X138460213Y-118626515D01*
X138394713Y-118686224D01*
X138346025Y-118762922D01*
X138315669Y-118854430D01*
X138306417Y-118921877D01*
X138309830Y-119048554D01*
X138337709Y-119168608D01*
X138389884Y-119281610D01*
X138466188Y-119387129D01*
X138505128Y-119428851D01*
X138605650Y-119514563D01*
X138714840Y-119577972D01*
X138837024Y-119621373D01*
X138890962Y-119633737D01*
X138991096Y-119650962D01*
X139114456Y-119667743D01*
X139258868Y-119683875D01*
X139422160Y-119699150D01*
X139602159Y-119713361D01*
X139796691Y-119726301D01*
X139960350Y-119735548D01*
X140020969Y-119737925D01*
X140104069Y-119739994D01*
X140206734Y-119741756D01*
X140326046Y-119743212D01*
X140459088Y-119744364D01*
X140602945Y-119745214D01*
X140754698Y-119745762D01*
X140911432Y-119746010D01*
X141070229Y-119745959D01*
X141228173Y-119745611D01*
X141382346Y-119744968D01*
X141529832Y-119744030D01*
X141667714Y-119742799D01*
X141793075Y-119741276D01*
X141902998Y-119739463D01*
X141994566Y-119737362D01*
X142064863Y-119734972D01*
X142074454Y-119734539D01*
X142156669Y-119730144D01*
X142241154Y-119724758D01*
X142319782Y-119718953D01*
X142384425Y-119713306D01*
X142404654Y-119711208D01*
X142495468Y-119699484D01*
X142563812Y-119686100D01*
X142612612Y-119669433D01*
X142644798Y-119647863D01*
X142663299Y-119619768D01*
X142671044Y-119583526D01*
X142671800Y-119563315D01*
X142667652Y-119510446D01*
X142651948Y-119475305D01*
X142619801Y-119451114D01*
X142579507Y-119435266D01*
X142562974Y-119430563D01*
X142542873Y-119426533D01*
X142517111Y-119423108D01*
X142483594Y-119420215D01*
X142440228Y-119417784D01*
X142384920Y-119415745D01*
X142315576Y-119414026D01*
X142230102Y-119412556D01*
X142126404Y-119411266D01*
X142002390Y-119410084D01*
X141855965Y-119408939D01*
X141785975Y-119408443D01*
X141058900Y-119403408D01*
X141058900Y-119366929D01*
X141050059Y-119289748D01*
X141026261Y-119209819D01*
X140994616Y-119145858D01*
X140974059Y-119112801D01*
X140960506Y-119089774D01*
X140957300Y-119083158D01*
X140969484Y-119082387D01*
X141003979Y-119082051D01*
X141057701Y-119082133D01*
X141127563Y-119082615D01*
X141210483Y-119083481D01*
X141303374Y-119084714D01*
X141342939Y-119085310D01*
X141452009Y-119086964D01*
X141538531Y-119088048D01*
X141605356Y-119088420D01*
X141655332Y-119087934D01*
X141691309Y-119086448D01*
X141716136Y-119083819D01*
X141732662Y-119079902D01*
X141743737Y-119074555D01*
X141752210Y-119067633D01*
X141755366Y-119064534D01*
X141777407Y-119034859D01*
X141784642Y-119017587D01*
X140369733Y-119017587D01*
X140366373Y-119029043D01*
X140354414Y-119055362D01*
X140347508Y-119069226D01*
X140331266Y-119119345D01*
X140323078Y-119184181D01*
X140323168Y-119254289D01*
X140331760Y-119320224D01*
X140340787Y-119353003D01*
X140359274Y-119405400D01*
X140102662Y-119405364D01*
X140002320Y-119404866D01*
X139889915Y-119403515D01*
X139775689Y-119401482D01*
X139669882Y-119398939D01*
X139609797Y-119397071D01*
X139373543Y-119388814D01*
X139379626Y-119272524D01*
X139377708Y-119160578D01*
X139358244Y-119058811D01*
X139319344Y-118961322D01*
X139259115Y-118862213D01*
X139239347Y-118834939D01*
X139216504Y-118802064D01*
X139204485Y-118779938D01*
X139205640Y-118772968D01*
X139206439Y-118773223D01*
X139224204Y-118778490D01*
X139262347Y-118788822D01*
X139316609Y-118803096D01*
X139382731Y-118820191D01*
X139452937Y-118838097D01*
X139654153Y-118886135D01*
X139862294Y-118930392D01*
X140066554Y-118968678D01*
X140220700Y-118993654D01*
X140278285Y-119002366D01*
X140325703Y-119009808D01*
X140357887Y-119015167D01*
X140369733Y-119017587D01*
X141784642Y-119017587D01*
X141788303Y-119008848D01*
X141792374Y-118984668D01*
X141799037Y-118939076D01*
X141807881Y-118875291D01*
X141818498Y-118796530D01*
X141830476Y-118706010D01*
X141843406Y-118606950D01*
X141856877Y-118502566D01*
X141870480Y-118396077D01*
X141883805Y-118290701D01*
X141896441Y-118189654D01*
X141897348Y-118182302D01*
X141154593Y-118182302D01*
X141137822Y-118243373D01*
X141101345Y-118300610D01*
X141047705Y-118349340D01*
X141014450Y-118369468D01*
X140958758Y-118387222D01*
X140899747Y-118382692D01*
X140846665Y-118362699D01*
X140787043Y-118322256D01*
X140743455Y-118268937D01*
X140718602Y-118207838D01*
X140715188Y-118144058D01*
X140719383Y-118122700D01*
X140746531Y-118061647D01*
X140790310Y-118008834D01*
X140844881Y-117969146D01*
X140904405Y-117947474D01*
X140931802Y-117944900D01*
X140994901Y-117956822D01*
X141054482Y-117989630D01*
X141105099Y-118038880D01*
X141141302Y-118100130D01*
X141149113Y-118122071D01*
X141154593Y-118182302D01*
X141897348Y-118182302D01*
X141907979Y-118096156D01*
X141918007Y-118013422D01*
X141926118Y-117944672D01*
X141931020Y-117900960D01*
X140076756Y-117900960D01*
X140073308Y-117968007D01*
X140044612Y-118036159D01*
X140038098Y-118046439D01*
X139999907Y-118087595D01*
X139948486Y-118121769D01*
X139893614Y-118143394D01*
X139859585Y-118148089D01*
X139824853Y-118142478D01*
X139782736Y-118128415D01*
X139768928Y-118122253D01*
X139726936Y-118094405D01*
X139689185Y-118057458D01*
X139681854Y-118047803D01*
X139647823Y-117980825D01*
X139639097Y-117915145D01*
X139655588Y-117851429D01*
X139697209Y-117790342D01*
X139718559Y-117768909D01*
X139781153Y-117725166D01*
X139845569Y-117706528D01*
X139910021Y-117712957D01*
X139972722Y-117744417D01*
X140008429Y-117774961D01*
X140055086Y-117836214D01*
X140076756Y-117900960D01*
X141931020Y-117900960D01*
X141931899Y-117893123D01*
X141934942Y-117861992D01*
X141935310Y-117855252D01*
X141928825Y-117809561D01*
X141906974Y-117778115D01*
X141865768Y-117756485D01*
X141839225Y-117748616D01*
X141817570Y-117743519D01*
X141773015Y-117733400D01*
X141707471Y-117718682D01*
X141622846Y-117699789D01*
X141521050Y-117677145D01*
X141489204Y-117670079D01*
X139029893Y-117670079D01*
X139024619Y-117731471D01*
X138999808Y-117791242D01*
X138957633Y-117844263D01*
X138900270Y-117885403D01*
X138896910Y-117887123D01*
X138835115Y-117910335D01*
X138779619Y-117912010D01*
X138723140Y-117891713D01*
X138695090Y-117875050D01*
X138638910Y-117825387D01*
X138604080Y-117766546D01*
X138590420Y-117702828D01*
X138597750Y-117638532D01*
X138625889Y-117577956D01*
X138674657Y-117525402D01*
X138710764Y-117501159D01*
X138776417Y-117477467D01*
X138842927Y-117477323D01*
X138906447Y-117499315D01*
X138963125Y-117542031D01*
X139009114Y-117604060D01*
X139013454Y-117612194D01*
X139029893Y-117670079D01*
X141489204Y-117670079D01*
X141403994Y-117651173D01*
X141273586Y-117622298D01*
X141131737Y-117590943D01*
X140980356Y-117557531D01*
X140821352Y-117522488D01*
X140685867Y-117492666D01*
X140524371Y-117457041D01*
X140370621Y-117422934D01*
X140226340Y-117390739D01*
X140093248Y-117360847D01*
X139973066Y-117333653D01*
X139867514Y-117309549D01*
X139778313Y-117288927D01*
X139707185Y-117272180D01*
X139655849Y-117259701D01*
X139626026Y-117251883D01*
X139619067Y-117249146D01*
X139634973Y-117249724D01*
X139674344Y-117252437D01*
X139735347Y-117257130D01*
X139816150Y-117263646D01*
X139914922Y-117271833D01*
X140029829Y-117281536D01*
X140159041Y-117292598D01*
X140300725Y-117304867D01*
X140453048Y-117318187D01*
X140614179Y-117332403D01*
X140782286Y-117347361D01*
X140784637Y-117347571D01*
X140952668Y-117362569D01*
X141113630Y-117376902D01*
X141265706Y-117390412D01*
X141407074Y-117402937D01*
X141535917Y-117414317D01*
X141650413Y-117424393D01*
X141748745Y-117433004D01*
X141829092Y-117439990D01*
X141889635Y-117445192D01*
X141928555Y-117448448D01*
X141944032Y-117449599D01*
X141944089Y-117449600D01*
X141964490Y-117441219D01*
X141990499Y-117420805D01*
X141992928Y-117418427D01*
X142024100Y-117387254D01*
X142024150Y-117243363D01*
X139567492Y-117243363D01*
X139555009Y-117245397D01*
X139538537Y-117243062D01*
X139538340Y-117238727D01*
X139555338Y-117235695D01*
X139562682Y-117237724D01*
X139567492Y-117243363D01*
X142024150Y-117243363D01*
X142024327Y-116736493D01*
X140867161Y-116736493D01*
X140862099Y-116803545D01*
X140832473Y-116865038D01*
X140796509Y-116905974D01*
X140734441Y-116951549D01*
X140670936Y-116971769D01*
X140605908Y-116966641D01*
X140539270Y-116936174D01*
X140531850Y-116931284D01*
X140482007Y-116885787D01*
X140446761Y-116829875D01*
X140429674Y-116770499D01*
X140430096Y-116732636D01*
X140453259Y-116660513D01*
X140455409Y-116657652D01*
X139774614Y-116657652D01*
X139764272Y-116702919D01*
X139756544Y-116722759D01*
X139717828Y-116788666D01*
X139662699Y-116836629D01*
X139630150Y-116854096D01*
X139581838Y-116872445D01*
X139541810Y-116875400D01*
X139498140Y-116862956D01*
X139477750Y-116854022D01*
X139409717Y-116811177D01*
X139362754Y-116756958D01*
X139337910Y-116694198D01*
X139336233Y-116625729D01*
X139358772Y-116554385D01*
X139363450Y-116545205D01*
X139382007Y-116502919D01*
X139393442Y-116462551D01*
X139395200Y-116446434D01*
X139397079Y-116420315D01*
X139405863Y-116414509D01*
X139419766Y-116420453D01*
X139445140Y-116427416D01*
X139486154Y-116432182D01*
X139525229Y-116433600D01*
X139606616Y-116444131D01*
X139674223Y-116475130D01*
X139726508Y-116525703D01*
X139748970Y-116563169D01*
X139769685Y-116614700D01*
X139774614Y-116657652D01*
X140455409Y-116657652D01*
X140497976Y-116601022D01*
X140543541Y-116566870D01*
X140582025Y-116546926D01*
X140617317Y-116536721D01*
X140658294Y-116535025D01*
X140713833Y-116540608D01*
X140723503Y-116541932D01*
X140771391Y-116545021D01*
X140806667Y-116540305D01*
X140812913Y-116537708D01*
X140829167Y-116531323D01*
X140834601Y-116539915D01*
X140832599Y-116567908D01*
X140834221Y-116608360D01*
X140844654Y-116653393D01*
X140847963Y-116662436D01*
X140867161Y-116736493D01*
X142024327Y-116736493D01*
X142024403Y-116519902D01*
X142024644Y-116352725D01*
X142025229Y-116198056D01*
X142026082Y-116066108D01*
X141441855Y-116066108D01*
X141436562Y-116103400D01*
X141408840Y-116171388D01*
X141364781Y-116221932D01*
X141303256Y-116255712D01*
X141223136Y-116273410D01*
X141149328Y-116276526D01*
X141038952Y-116274850D01*
X141043958Y-116240329D01*
X141041901Y-116209704D01*
X141031315Y-116167237D01*
X141020035Y-116136012D01*
X141004017Y-116094020D01*
X140998012Y-116064103D01*
X141000915Y-116035497D01*
X141007270Y-116011782D01*
X141031487Y-115961350D01*
X141054512Y-115932460D01*
X140343456Y-115932460D01*
X140340008Y-115999507D01*
X140311312Y-116067659D01*
X140304798Y-116077939D01*
X140266607Y-116119095D01*
X140215186Y-116153269D01*
X140160314Y-116174894D01*
X140126285Y-116179589D01*
X140092031Y-116173994D01*
X140049693Y-116159896D01*
X140033372Y-116152661D01*
X139976083Y-116112587D01*
X139934270Y-116058273D01*
X139910558Y-115995415D01*
X139907576Y-115929709D01*
X139915110Y-115896244D01*
X139939095Y-115852086D01*
X139951623Y-115837871D01*
X139272647Y-115837871D01*
X139269280Y-115905556D01*
X139241325Y-115972185D01*
X139234643Y-115982400D01*
X139223696Y-116010805D01*
X139217755Y-116050543D01*
X139217400Y-116062068D01*
X139216711Y-116095677D01*
X139212120Y-116108446D01*
X139199846Y-116104934D01*
X139188044Y-116097450D01*
X139149662Y-116084144D01*
X139090998Y-116080053D01*
X139083269Y-116080197D01*
X139012844Y-116075327D01*
X138956210Y-116054153D01*
X138905201Y-116013142D01*
X138889779Y-115996445D01*
X138850058Y-115934418D01*
X138834283Y-115868801D01*
X138842039Y-115803192D01*
X138872908Y-115741188D01*
X138925578Y-115687078D01*
X138989213Y-115651700D01*
X139055511Y-115640868D01*
X139121636Y-115654334D01*
X139184751Y-115691847D01*
X139206901Y-115711900D01*
X139251746Y-115772271D01*
X139272647Y-115837871D01*
X139951623Y-115837871D01*
X139978431Y-115807455D01*
X140025368Y-115769351D01*
X140072156Y-115744776D01*
X140087435Y-115740596D01*
X140154847Y-115740435D01*
X140220099Y-115764285D01*
X140275129Y-115806461D01*
X140321786Y-115867714D01*
X140343456Y-115932460D01*
X141054512Y-115932460D01*
X141070480Y-115912425D01*
X141117361Y-115871764D01*
X141165241Y-115846124D01*
X141180306Y-115842070D01*
X141245426Y-115841389D01*
X141307168Y-115861254D01*
X141361608Y-115897662D01*
X141404819Y-115946608D01*
X141432876Y-116004091D01*
X141441855Y-116066108D01*
X142026082Y-116066108D01*
X142026138Y-116057513D01*
X142027347Y-115932712D01*
X142028834Y-115825272D01*
X142030577Y-115736809D01*
X142032554Y-115668941D01*
X142034743Y-115623285D01*
X142037047Y-115601750D01*
X142048212Y-115544766D01*
X142059165Y-115469355D01*
X142069216Y-115382484D01*
X142077676Y-115291121D01*
X142083853Y-115202234D01*
X142087059Y-115122790D01*
X142087353Y-115093827D01*
X142077302Y-114887997D01*
X142048061Y-114697376D01*
X142026571Y-114619361D01*
X141349966Y-114619361D01*
X141335258Y-114693277D01*
X141303074Y-114754734D01*
X141245252Y-114821893D01*
X141178289Y-114867851D01*
X141105145Y-114891457D01*
X141028778Y-114891565D01*
X140981555Y-114879486D01*
X140910719Y-114842608D01*
X140852134Y-114789445D01*
X140809184Y-114724880D01*
X140785251Y-114653799D01*
X140782384Y-114591955D01*
X140801861Y-114515450D01*
X140842761Y-114444927D01*
X140901106Y-114386574D01*
X140924890Y-114370185D01*
X140998131Y-114338741D01*
X141074627Y-114330352D01*
X141149900Y-114343881D01*
X141219470Y-114378190D01*
X141278857Y-114432142D01*
X141303472Y-114466353D01*
X141339371Y-114543819D01*
X141349966Y-114619361D01*
X142026571Y-114619361D01*
X141999861Y-114522404D01*
X141932931Y-114363522D01*
X141847503Y-114221171D01*
X141836432Y-114207784D01*
X140232243Y-114207784D01*
X140231796Y-114271759D01*
X140210424Y-114333085D01*
X140169093Y-114387951D01*
X140108774Y-114432544D01*
X140074650Y-114448664D01*
X140019221Y-114458354D01*
X139957703Y-114448337D01*
X139906603Y-114425038D01*
X139853270Y-114380225D01*
X139815859Y-114324002D01*
X139796960Y-114262268D01*
X139799159Y-114200918D01*
X139802674Y-114188234D01*
X139836416Y-114118860D01*
X139884163Y-114067244D01*
X139941875Y-114034507D01*
X140005514Y-114021772D01*
X140071042Y-114030162D01*
X140134421Y-114060798D01*
X140166486Y-114087138D01*
X140210796Y-114144973D01*
X140232243Y-114207784D01*
X141836432Y-114207784D01*
X141743807Y-114095793D01*
X141622075Y-113987827D01*
X141482536Y-113897716D01*
X141453319Y-113882286D01*
X141415758Y-113865169D01*
X141357392Y-113841202D01*
X141281516Y-113811560D01*
X141191426Y-113777414D01*
X141090416Y-113739940D01*
X140981782Y-113700310D01*
X140868819Y-113659699D01*
X140754821Y-113619279D01*
X140643083Y-113580224D01*
X140536901Y-113543708D01*
X140439569Y-113510904D01*
X140354383Y-113482986D01*
X140284638Y-113461127D01*
X140233628Y-113446501D01*
X140220700Y-113443283D01*
X140148819Y-113431637D01*
X140060007Y-113424919D01*
X139962236Y-113423042D01*
X139863476Y-113425921D01*
X139863476Y-113425921D01*
G37*
X139863476Y-113425921D02*
X139771698Y-113433468D01*
X139694871Y-113445599D01*
X139679807Y-113449116D01*
X139583216Y-113480087D01*
X139477300Y-113525133D01*
X139370430Y-113580111D01*
X139270982Y-113640877D01*
X139221956Y-113675661D01*
X139100909Y-113777671D01*
X138979468Y-113900196D01*
X138861534Y-114038719D01*
X138751010Y-114188720D01*
X138670299Y-114314366D01*
X138628679Y-114394089D01*
X138608093Y-114459872D01*
X138608503Y-114511953D01*
X138629867Y-114550568D01*
X138630124Y-114550825D01*
X138644961Y-114557923D01*
X138682226Y-114572682D01*
X138740316Y-114594533D01*
X138817628Y-114622905D01*
X138912562Y-114657225D01*
X139023516Y-114696923D01*
X139148887Y-114741429D01*
X139287074Y-114790171D01*
X139436474Y-114842578D01*
X139595487Y-114898080D01*
X139762509Y-114956105D01*
X139921666Y-115011157D01*
X140093629Y-115070607D01*
X140258385Y-115127747D01*
X140414401Y-115182034D01*
X140560142Y-115232928D01*
X140694075Y-115279885D01*
X140814665Y-115322364D01*
X140920379Y-115359824D01*
X141009684Y-115391722D01*
X141081044Y-115417518D01*
X141132927Y-115436669D01*
X141163798Y-115448633D01*
X141172235Y-115452856D01*
X141157239Y-115452246D01*
X141118659Y-115449499D01*
X141058209Y-115444761D01*
X140977604Y-115438179D01*
X140878556Y-115429899D01*
X140762779Y-115420066D01*
X140631988Y-115408827D01*
X140487895Y-115396328D01*
X140332215Y-115382716D01*
X140166662Y-115368136D01*
X139992948Y-115352735D01*
X139869990Y-115341774D01*
X139690796Y-115325811D01*
X139517986Y-115310508D01*
X139353334Y-115296017D01*
X139198618Y-115282489D01*
X139055613Y-115270077D01*
X138926094Y-115258934D01*
X138811839Y-115249212D01*
X138714623Y-115241062D01*
X138636222Y-115234638D01*
X138578412Y-115230091D01*
X138542968Y-115227575D01*
X138532764Y-115227100D01*
X138479517Y-115232109D01*
X138444655Y-115249134D01*
X138422815Y-115281174D01*
X138419204Y-115290597D01*
X138414647Y-115309557D01*
X138406014Y-115351311D01*
X138393720Y-115413657D01*
X138378184Y-115494388D01*
X138359821Y-115591302D01*
X138339050Y-115702193D01*
X138316285Y-115824857D01*
X138291945Y-115957089D01*
X138266446Y-116096686D01*
X138257676Y-116144940D01*
X138109616Y-116960650D01*
X137933258Y-117515242D01*
X137896946Y-117630428D01*
X137863154Y-117739539D01*
X137832663Y-117839914D01*
X137806255Y-117928892D01*
X137784710Y-118003813D01*
X137768808Y-118062017D01*
X137759331Y-118100843D01*
X137756900Y-118116152D01*
X137760718Y-118155033D01*
X137769996Y-118186850D01*
X137770859Y-118188551D01*
X137787849Y-118203863D01*
X137825269Y-118227301D01*
X137880045Y-118257361D01*
X137949105Y-118292537D01*
X138029374Y-118331323D01*
X138117781Y-118372214D01*
X138211251Y-118413704D01*
X138306712Y-118454289D01*
X138347450Y-118471023D01*
X138412356Y-118497402D01*
X138471116Y-118521315D01*
X138518653Y-118540693D01*
X138549892Y-118553469D01*
X138557000Y-118556397D01*
X138576172Y-118565241D01*
X138577009Y-118571793D01*
X138557183Y-118580354D01*
X138541005Y-118585972D01*
X138460213Y-118626515D01*
X138394713Y-118686224D01*
X138346025Y-118762922D01*
X138315669Y-118854430D01*
X138306417Y-118921877D01*
X138309830Y-119048554D01*
X138337709Y-119168608D01*
X138389884Y-119281610D01*
X138466188Y-119387129D01*
X138505128Y-119428851D01*
X138605650Y-119514563D01*
X138714840Y-119577972D01*
X138837024Y-119621373D01*
X138890962Y-119633737D01*
X138991096Y-119650962D01*
X139114456Y-119667743D01*
X139258868Y-119683875D01*
X139422160Y-119699150D01*
X139602159Y-119713361D01*
X139796691Y-119726301D01*
X139960350Y-119735548D01*
X140020969Y-119737925D01*
X140104069Y-119739994D01*
X140206734Y-119741756D01*
X140326046Y-119743212D01*
X140459088Y-119744364D01*
X140602945Y-119745214D01*
X140754698Y-119745762D01*
X140911432Y-119746010D01*
X141070229Y-119745959D01*
X141228173Y-119745611D01*
X141382346Y-119744968D01*
X141529832Y-119744030D01*
X141667714Y-119742799D01*
X141793075Y-119741276D01*
X141902998Y-119739463D01*
X141994566Y-119737362D01*
X142064863Y-119734972D01*
X142074454Y-119734539D01*
X142156669Y-119730144D01*
X142241154Y-119724758D01*
X142319782Y-119718953D01*
X142384425Y-119713306D01*
X142404654Y-119711208D01*
X142495468Y-119699484D01*
X142563812Y-119686100D01*
X142612612Y-119669433D01*
X142644798Y-119647863D01*
X142663299Y-119619768D01*
X142671044Y-119583526D01*
X142671800Y-119563315D01*
X142667652Y-119510446D01*
X142651948Y-119475305D01*
X142619801Y-119451114D01*
X142579507Y-119435266D01*
X142562974Y-119430563D01*
X142542873Y-119426533D01*
X142517111Y-119423108D01*
X142483594Y-119420215D01*
X142440228Y-119417784D01*
X142384920Y-119415745D01*
X142315576Y-119414026D01*
X142230102Y-119412556D01*
X142126404Y-119411266D01*
X142002390Y-119410084D01*
X141855965Y-119408939D01*
X141785975Y-119408443D01*
X141058900Y-119403408D01*
X141058900Y-119366929D01*
X141050059Y-119289748D01*
X141026261Y-119209819D01*
X140994616Y-119145858D01*
X140974059Y-119112801D01*
X140960506Y-119089774D01*
X140957300Y-119083158D01*
X140969484Y-119082387D01*
X141003979Y-119082051D01*
X141057701Y-119082133D01*
X141127563Y-119082615D01*
X141210483Y-119083481D01*
X141303374Y-119084714D01*
X141342939Y-119085310D01*
X141452009Y-119086964D01*
X141538531Y-119088048D01*
X141605356Y-119088420D01*
X141655332Y-119087934D01*
X141691309Y-119086448D01*
X141716136Y-119083819D01*
X141732662Y-119079902D01*
X141743737Y-119074555D01*
X141752210Y-119067633D01*
X141755366Y-119064534D01*
X141777407Y-119034859D01*
X141784642Y-119017587D01*
X140369733Y-119017587D01*
X140366373Y-119029043D01*
X140354414Y-119055362D01*
X140347508Y-119069226D01*
X140331266Y-119119345D01*
X140323078Y-119184181D01*
X140323168Y-119254289D01*
X140331760Y-119320224D01*
X140340787Y-119353003D01*
X140359274Y-119405400D01*
X140102662Y-119405364D01*
X140002320Y-119404866D01*
X139889915Y-119403515D01*
X139775689Y-119401482D01*
X139669882Y-119398939D01*
X139609797Y-119397071D01*
X139373543Y-119388814D01*
X139379626Y-119272524D01*
X139377708Y-119160578D01*
X139358244Y-119058811D01*
X139319344Y-118961322D01*
X139259115Y-118862213D01*
X139239347Y-118834939D01*
X139216504Y-118802064D01*
X139204485Y-118779938D01*
X139205640Y-118772968D01*
X139206439Y-118773223D01*
X139224204Y-118778490D01*
X139262347Y-118788822D01*
X139316609Y-118803096D01*
X139382731Y-118820191D01*
X139452937Y-118838097D01*
X139654153Y-118886135D01*
X139862294Y-118930392D01*
X140066554Y-118968678D01*
X140220700Y-118993654D01*
X140278285Y-119002366D01*
X140325703Y-119009808D01*
X140357887Y-119015167D01*
X140369733Y-119017587D01*
X141784642Y-119017587D01*
X141788303Y-119008848D01*
X141792374Y-118984668D01*
X141799037Y-118939076D01*
X141807881Y-118875291D01*
X141818498Y-118796530D01*
X141830476Y-118706010D01*
X141843406Y-118606950D01*
X141856877Y-118502566D01*
X141870480Y-118396077D01*
X141883805Y-118290701D01*
X141896441Y-118189654D01*
X141897348Y-118182302D01*
X141154593Y-118182302D01*
X141137822Y-118243373D01*
X141101345Y-118300610D01*
X141047705Y-118349340D01*
X141014450Y-118369468D01*
X140958758Y-118387222D01*
X140899747Y-118382692D01*
X140846665Y-118362699D01*
X140787043Y-118322256D01*
X140743455Y-118268937D01*
X140718602Y-118207838D01*
X140715188Y-118144058D01*
X140719383Y-118122700D01*
X140746531Y-118061647D01*
X140790310Y-118008834D01*
X140844881Y-117969146D01*
X140904405Y-117947474D01*
X140931802Y-117944900D01*
X140994901Y-117956822D01*
X141054482Y-117989630D01*
X141105099Y-118038880D01*
X141141302Y-118100130D01*
X141149113Y-118122071D01*
X141154593Y-118182302D01*
X141897348Y-118182302D01*
X141907979Y-118096156D01*
X141918007Y-118013422D01*
X141926118Y-117944672D01*
X141931020Y-117900960D01*
X140076756Y-117900960D01*
X140073308Y-117968007D01*
X140044612Y-118036159D01*
X140038098Y-118046439D01*
X139999907Y-118087595D01*
X139948486Y-118121769D01*
X139893614Y-118143394D01*
X139859585Y-118148089D01*
X139824853Y-118142478D01*
X139782736Y-118128415D01*
X139768928Y-118122253D01*
X139726936Y-118094405D01*
X139689185Y-118057458D01*
X139681854Y-118047803D01*
X139647823Y-117980825D01*
X139639097Y-117915145D01*
X139655588Y-117851429D01*
X139697209Y-117790342D01*
X139718559Y-117768909D01*
X139781153Y-117725166D01*
X139845569Y-117706528D01*
X139910021Y-117712957D01*
X139972722Y-117744417D01*
X140008429Y-117774961D01*
X140055086Y-117836214D01*
X140076756Y-117900960D01*
X141931020Y-117900960D01*
X141931899Y-117893123D01*
X141934942Y-117861992D01*
X141935310Y-117855252D01*
X141928825Y-117809561D01*
X141906974Y-117778115D01*
X141865768Y-117756485D01*
X141839225Y-117748616D01*
X141817570Y-117743519D01*
X141773015Y-117733400D01*
X141707471Y-117718682D01*
X141622846Y-117699789D01*
X141521050Y-117677145D01*
X141489204Y-117670079D01*
X139029893Y-117670079D01*
X139024619Y-117731471D01*
X138999808Y-117791242D01*
X138957633Y-117844263D01*
X138900270Y-117885403D01*
X138896910Y-117887123D01*
X138835115Y-117910335D01*
X138779619Y-117912010D01*
X138723140Y-117891713D01*
X138695090Y-117875050D01*
X138638910Y-117825387D01*
X138604080Y-117766546D01*
X138590420Y-117702828D01*
X138597750Y-117638532D01*
X138625889Y-117577956D01*
X138674657Y-117525402D01*
X138710764Y-117501159D01*
X138776417Y-117477467D01*
X138842927Y-117477323D01*
X138906447Y-117499315D01*
X138963125Y-117542031D01*
X139009114Y-117604060D01*
X139013454Y-117612194D01*
X139029893Y-117670079D01*
X141489204Y-117670079D01*
X141403994Y-117651173D01*
X141273586Y-117622298D01*
X141131737Y-117590943D01*
X140980356Y-117557531D01*
X140821352Y-117522488D01*
X140685867Y-117492666D01*
X140524371Y-117457041D01*
X140370621Y-117422934D01*
X140226340Y-117390739D01*
X140093248Y-117360847D01*
X139973066Y-117333653D01*
X139867514Y-117309549D01*
X139778313Y-117288927D01*
X139707185Y-117272180D01*
X139655849Y-117259701D01*
X139626026Y-117251883D01*
X139619067Y-117249146D01*
X139634973Y-117249724D01*
X139674344Y-117252437D01*
X139735347Y-117257130D01*
X139816150Y-117263646D01*
X139914922Y-117271833D01*
X140029829Y-117281536D01*
X140159041Y-117292598D01*
X140300725Y-117304867D01*
X140453048Y-117318187D01*
X140614179Y-117332403D01*
X140782286Y-117347361D01*
X140784637Y-117347571D01*
X140952668Y-117362569D01*
X141113630Y-117376902D01*
X141265706Y-117390412D01*
X141407074Y-117402937D01*
X141535917Y-117414317D01*
X141650413Y-117424393D01*
X141748745Y-117433004D01*
X141829092Y-117439990D01*
X141889635Y-117445192D01*
X141928555Y-117448448D01*
X141944032Y-117449599D01*
X141944089Y-117449600D01*
X141964490Y-117441219D01*
X141990499Y-117420805D01*
X141992928Y-117418427D01*
X142024100Y-117387254D01*
X142024150Y-117243363D01*
X139567492Y-117243363D01*
X139555009Y-117245397D01*
X139538537Y-117243062D01*
X139538340Y-117238727D01*
X139555338Y-117235695D01*
X139562682Y-117237724D01*
X139567492Y-117243363D01*
X142024150Y-117243363D01*
X142024327Y-116736493D01*
X140867161Y-116736493D01*
X140862099Y-116803545D01*
X140832473Y-116865038D01*
X140796509Y-116905974D01*
X140734441Y-116951549D01*
X140670936Y-116971769D01*
X140605908Y-116966641D01*
X140539270Y-116936174D01*
X140531850Y-116931284D01*
X140482007Y-116885787D01*
X140446761Y-116829875D01*
X140429674Y-116770499D01*
X140430096Y-116732636D01*
X140453259Y-116660513D01*
X140455409Y-116657652D01*
X139774614Y-116657652D01*
X139764272Y-116702919D01*
X139756544Y-116722759D01*
X139717828Y-116788666D01*
X139662699Y-116836629D01*
X139630150Y-116854096D01*
X139581838Y-116872445D01*
X139541810Y-116875400D01*
X139498140Y-116862956D01*
X139477750Y-116854022D01*
X139409717Y-116811177D01*
X139362754Y-116756958D01*
X139337910Y-116694198D01*
X139336233Y-116625729D01*
X139358772Y-116554385D01*
X139363450Y-116545205D01*
X139382007Y-116502919D01*
X139393442Y-116462551D01*
X139395200Y-116446434D01*
X139397079Y-116420315D01*
X139405863Y-116414509D01*
X139419766Y-116420453D01*
X139445140Y-116427416D01*
X139486154Y-116432182D01*
X139525229Y-116433600D01*
X139606616Y-116444131D01*
X139674223Y-116475130D01*
X139726508Y-116525703D01*
X139748970Y-116563169D01*
X139769685Y-116614700D01*
X139774614Y-116657652D01*
X140455409Y-116657652D01*
X140497976Y-116601022D01*
X140543541Y-116566870D01*
X140582025Y-116546926D01*
X140617317Y-116536721D01*
X140658294Y-116535025D01*
X140713833Y-116540608D01*
X140723503Y-116541932D01*
X140771391Y-116545021D01*
X140806667Y-116540305D01*
X140812913Y-116537708D01*
X140829167Y-116531323D01*
X140834601Y-116539915D01*
X140832599Y-116567908D01*
X140834221Y-116608360D01*
X140844654Y-116653393D01*
X140847963Y-116662436D01*
X140867161Y-116736493D01*
X142024327Y-116736493D01*
X142024403Y-116519902D01*
X142024644Y-116352725D01*
X142025229Y-116198056D01*
X142026082Y-116066108D01*
X141441855Y-116066108D01*
X141436562Y-116103400D01*
X141408840Y-116171388D01*
X141364781Y-116221932D01*
X141303256Y-116255712D01*
X141223136Y-116273410D01*
X141149328Y-116276526D01*
X141038952Y-116274850D01*
X141043958Y-116240329D01*
X141041901Y-116209704D01*
X141031315Y-116167237D01*
X141020035Y-116136012D01*
X141004017Y-116094020D01*
X140998012Y-116064103D01*
X141000915Y-116035497D01*
X141007270Y-116011782D01*
X141031487Y-115961350D01*
X141054512Y-115932460D01*
X140343456Y-115932460D01*
X140340008Y-115999507D01*
X140311312Y-116067659D01*
X140304798Y-116077939D01*
X140266607Y-116119095D01*
X140215186Y-116153269D01*
X140160314Y-116174894D01*
X140126285Y-116179589D01*
X140092031Y-116173994D01*
X140049693Y-116159896D01*
X140033372Y-116152661D01*
X139976083Y-116112587D01*
X139934270Y-116058273D01*
X139910558Y-115995415D01*
X139907576Y-115929709D01*
X139915110Y-115896244D01*
X139939095Y-115852086D01*
X139951623Y-115837871D01*
X139272647Y-115837871D01*
X139269280Y-115905556D01*
X139241325Y-115972185D01*
X139234643Y-115982400D01*
X139223696Y-116010805D01*
X139217755Y-116050543D01*
X139217400Y-116062068D01*
X139216711Y-116095677D01*
X139212120Y-116108446D01*
X139199846Y-116104934D01*
X139188044Y-116097450D01*
X139149662Y-116084144D01*
X139090998Y-116080053D01*
X139083269Y-116080197D01*
X139012844Y-116075327D01*
X138956210Y-116054153D01*
X138905201Y-116013142D01*
X138889779Y-115996445D01*
X138850058Y-115934418D01*
X138834283Y-115868801D01*
X138842039Y-115803192D01*
X138872908Y-115741188D01*
X138925578Y-115687078D01*
X138989213Y-115651700D01*
X139055511Y-115640868D01*
X139121636Y-115654334D01*
X139184751Y-115691847D01*
X139206901Y-115711900D01*
X139251746Y-115772271D01*
X139272647Y-115837871D01*
X139951623Y-115837871D01*
X139978431Y-115807455D01*
X140025368Y-115769351D01*
X140072156Y-115744776D01*
X140087435Y-115740596D01*
X140154847Y-115740435D01*
X140220099Y-115764285D01*
X140275129Y-115806461D01*
X140321786Y-115867714D01*
X140343456Y-115932460D01*
X141054512Y-115932460D01*
X141070480Y-115912425D01*
X141117361Y-115871764D01*
X141165241Y-115846124D01*
X141180306Y-115842070D01*
X141245426Y-115841389D01*
X141307168Y-115861254D01*
X141361608Y-115897662D01*
X141404819Y-115946608D01*
X141432876Y-116004091D01*
X141441855Y-116066108D01*
X142026082Y-116066108D01*
X142026138Y-116057513D01*
X142027347Y-115932712D01*
X142028834Y-115825272D01*
X142030577Y-115736809D01*
X142032554Y-115668941D01*
X142034743Y-115623285D01*
X142037047Y-115601750D01*
X142048212Y-115544766D01*
X142059165Y-115469355D01*
X142069216Y-115382484D01*
X142077676Y-115291121D01*
X142083853Y-115202234D01*
X142087059Y-115122790D01*
X142087353Y-115093827D01*
X142077302Y-114887997D01*
X142048061Y-114697376D01*
X142026571Y-114619361D01*
X141349966Y-114619361D01*
X141335258Y-114693277D01*
X141303074Y-114754734D01*
X141245252Y-114821893D01*
X141178289Y-114867851D01*
X141105145Y-114891457D01*
X141028778Y-114891565D01*
X140981555Y-114879486D01*
X140910719Y-114842608D01*
X140852134Y-114789445D01*
X140809184Y-114724880D01*
X140785251Y-114653799D01*
X140782384Y-114591955D01*
X140801861Y-114515450D01*
X140842761Y-114444927D01*
X140901106Y-114386574D01*
X140924890Y-114370185D01*
X140998131Y-114338741D01*
X141074627Y-114330352D01*
X141149900Y-114343881D01*
X141219470Y-114378190D01*
X141278857Y-114432142D01*
X141303472Y-114466353D01*
X141339371Y-114543819D01*
X141349966Y-114619361D01*
X142026571Y-114619361D01*
X141999861Y-114522404D01*
X141932931Y-114363522D01*
X141847503Y-114221171D01*
X141836432Y-114207784D01*
X140232243Y-114207784D01*
X140231796Y-114271759D01*
X140210424Y-114333085D01*
X140169093Y-114387951D01*
X140108774Y-114432544D01*
X140074650Y-114448664D01*
X140019221Y-114458354D01*
X139957703Y-114448337D01*
X139906603Y-114425038D01*
X139853270Y-114380225D01*
X139815859Y-114324002D01*
X139796960Y-114262268D01*
X139799159Y-114200918D01*
X139802674Y-114188234D01*
X139836416Y-114118860D01*
X139884163Y-114067244D01*
X139941875Y-114034507D01*
X140005514Y-114021772D01*
X140071042Y-114030162D01*
X140134421Y-114060798D01*
X140166486Y-114087138D01*
X140210796Y-114144973D01*
X140232243Y-114207784D01*
X141836432Y-114207784D01*
X141743807Y-114095793D01*
X141622075Y-113987827D01*
X141482536Y-113897716D01*
X141453319Y-113882286D01*
X141415758Y-113865169D01*
X141357392Y-113841202D01*
X141281516Y-113811560D01*
X141191426Y-113777414D01*
X141090416Y-113739940D01*
X140981782Y-113700310D01*
X140868819Y-113659699D01*
X140754821Y-113619279D01*
X140643083Y-113580224D01*
X140536901Y-113543708D01*
X140439569Y-113510904D01*
X140354383Y-113482986D01*
X140284638Y-113461127D01*
X140233628Y-113446501D01*
X140220700Y-113443283D01*
X140148819Y-113431637D01*
X140060007Y-113424919D01*
X139962236Y-113423042D01*
X139863476Y-113425921D01*
D12*
X172000000Y-145000000D03*
X118000000Y-132500000D03*
X172000000Y-132500000D03*
D13*
X111506000Y-69000000D03*
D14*
X114046000Y-69000000D03*
D13*
X115000000Y-81000000D03*
D14*
X117540000Y-81000000D03*
D13*
X120460000Y-94000000D03*
D14*
X123000000Y-94000000D03*
D13*
X113000000Y-75000000D03*
D14*
X115540000Y-75000000D03*
D13*
X118460000Y-88000000D03*
D14*
X121000000Y-88000000D03*
D13*
X137460000Y-57000000D03*
D14*
X140000000Y-57000000D03*
D13*
X135460000Y-74000000D03*
D14*
X138000000Y-74000000D03*
D13*
X133460000Y-90000000D03*
D14*
X136000000Y-90000000D03*
D13*
X136460000Y-66000000D03*
D14*
X139000000Y-66000000D03*
D13*
X135000000Y-82000000D03*
D14*
X137540000Y-82000000D03*
D13*
X156000000Y-57000000D03*
D14*
X158540000Y-57000000D03*
D13*
X152000000Y-74000000D03*
D14*
X154540000Y-74000000D03*
D13*
X146460000Y-89000000D03*
D14*
X149000000Y-89000000D03*
D13*
X154460000Y-66000000D03*
D14*
X157000000Y-66000000D03*
D13*
X149000000Y-81000000D03*
D14*
X151540000Y-81000000D03*
D13*
X169460000Y-67000000D03*
D14*
X172000000Y-67000000D03*
D13*
X164460000Y-82000000D03*
D14*
X167000000Y-82000000D03*
D13*
X157460000Y-96000000D03*
D14*
X160000000Y-96000000D03*
D13*
X167460000Y-75000000D03*
D14*
X170000000Y-75000000D03*
D13*
X160460000Y-89000000D03*
D14*
X163000000Y-89000000D03*
D15*
X105380000Y-133000000D03*
D16*
X113000000Y-133000000D03*
D17*
X164298000Y-142494000D03*
X166798000Y-142494000D03*
X161798000Y-142494000D03*
X161798000Y-145794000D03*
X164298000Y-145794000D03*
X166798000Y-145794000D03*
D18*
X178300000Y-143620000D03*
D16*
X196080000Y-136000000D03*
X180840000Y-143620000D03*
X193540000Y-136000000D03*
X183380000Y-143620000D03*
X191000000Y-136000000D03*
X185920000Y-143620000D03*
X188460000Y-136000000D03*
X188460000Y-143620000D03*
X185920000Y-136000000D03*
X191000000Y-143620000D03*
X183380000Y-136000000D03*
X193540000Y-143620000D03*
X180840000Y-136000000D03*
X196080000Y-143620000D03*
X178300000Y-136000000D03*
D19*
X152146000Y-145034000D03*
D20*
X154686000Y-145034000D03*
D15*
X113750000Y-129500000D03*
X113750000Y-127000000D03*
D12*
X118000000Y-145000000D03*
D19*
X102460000Y-140000000D03*
D20*
X102460000Y-137460000D03*
X105000000Y-140000000D03*
X105000000Y-137460000D03*
X107540000Y-140000000D03*
X107540000Y-137460000D03*
X110080000Y-140000000D03*
X110080000Y-137460000D03*
X112620000Y-140000000D03*
X112620000Y-137460000D03*
M02*
