M48
;DRILL file {KiCad 4.0.6} date 11/09/17 22:15:07
;FORMAT={2:4/ absolute / inch / suppress trailing zeros}
FMAT,2
INCH,LZ
T1C0.016
T2C0.031
T3C0.035
T4C0.039
T5C0.126
%
G90
G05
M72
T1
X066668Y-055393
X066789Y-056424
T2
X041488Y-052362
X044488Y-052362
X044783Y-05
X044783Y-050984
X070197Y-053543
X070197Y-056543
X071197Y-053543
X071197Y-056543
X072197Y-053543
X072197Y-056543
X073197Y-053543
X073197Y-056543
X074197Y-053543
X074197Y-056543
X075197Y-053543
X075197Y-056543
X076197Y-053543
X076197Y-056543
X077197Y-053543
X077197Y-056543
T3
X0444Y-03135
X045Y-0337
X0454Y-03135
X04545Y-0362
X046Y-0337
X04645Y-0362
X04645Y-0385
X04745Y-0385
X04745Y-04045
X04845Y-04045
X0497Y-0259
X05005Y-0287
X0501Y-0313
X05065Y-0336
X0507Y-0259
X0509Y-0367
X05105Y-0287
X0511Y-0313
X05165Y-0336
X0519Y-0367
X0554Y-0366
X05565Y-033
X0561Y-0298
X05635Y-02315
X05635Y-0266
X0564Y-0366
X05665Y-033
X0571Y-0298
X05735Y-02315
X05735Y-0266
X05995Y-0373
X06095Y-0373
X06115Y-03485
X06215Y-03485
X0623Y-0321
X0633Y-0321
X06335Y-02925
X063831Y-0558
X063831Y-057099
X0641Y-02605
X06435Y-02925
X064816Y-0558
X064816Y-057099
X0651Y-02605
X0658Y-0558
X0658Y-057099
T4
X040339Y-054118
X040339Y-055118
X041339Y-054118
X041339Y-055118
X042339Y-054118
X042339Y-055118
X043339Y-054118
X043339Y-055118
X044339Y-054118
X044339Y-055118
X0739Y-052
X0749Y-052
T5
X046457Y-052165
X046457Y-057087
X067717Y-052165
X067717Y-057087
T0
M30
