G04 #@! TF.FileFunction,Soldermask,Top*
%FSLAX46Y46*%
G04 Gerber Fmt 4.6, Leading zero omitted, Abs format (unit mm)*
G04 Created by KiCad (PCBNEW 4.0.6) date 11/09/17 22:15:05*
%MOMM*%
%LPD*%
G01*
G04 APERTURE LIST*
%ADD10C,0.100000*%
%ADD11C,4.000000*%
%ADD12R,1.800000X1.800000*%
%ADD13C,1.800000*%
%ADD14C,1.600000*%
%ADD15O,1.600000X1.600000*%
%ADD16C,1.500000*%
%ADD17R,1.600000X1.600000*%
%ADD18R,1.700000X1.700000*%
%ADD19O,1.700000X1.700000*%
%ADD20R,1.000000X1.000000*%
%ADD21R,1.000000X0.254000*%
G04 APERTURE END LIST*
D10*
D11*
X172000000Y-145000000D03*
X118000000Y-132500000D03*
X172000000Y-132500000D03*
D12*
X112776000Y-79629000D03*
D13*
X115316000Y-79629000D03*
D12*
X115443000Y-91948000D03*
D13*
X117983000Y-91948000D03*
D12*
X120523000Y-102743000D03*
D13*
X123063000Y-102743000D03*
D12*
X114300000Y-85598000D03*
D13*
X116840000Y-85598000D03*
D12*
X117983000Y-97790000D03*
D13*
X120523000Y-97790000D03*
D12*
X126238000Y-65786000D03*
D13*
X128778000Y-65786000D03*
D12*
X127254000Y-79502000D03*
D13*
X129794000Y-79502000D03*
D12*
X129286000Y-93218000D03*
D13*
X131826000Y-93218000D03*
D12*
X127127000Y-72898000D03*
D13*
X129667000Y-72898000D03*
D12*
X128651000Y-85344000D03*
D13*
X131191000Y-85344000D03*
D12*
X143129000Y-58801000D03*
D13*
X145669000Y-58801000D03*
D12*
X142494000Y-75692000D03*
D13*
X145034000Y-75692000D03*
D12*
X140716000Y-92964000D03*
D13*
X143256000Y-92964000D03*
D12*
X143129000Y-67564000D03*
D13*
X145669000Y-67564000D03*
D12*
X141351000Y-83820000D03*
D13*
X143891000Y-83820000D03*
D12*
X162814000Y-66167000D03*
D13*
X165354000Y-66167000D03*
D12*
X158242000Y-81534000D03*
D13*
X160782000Y-81534000D03*
D12*
X152273000Y-94742000D03*
D13*
X154813000Y-94742000D03*
D12*
X160909000Y-74295000D03*
D13*
X163449000Y-74295000D03*
D12*
X155321000Y-88519000D03*
D13*
X157861000Y-88519000D03*
D14*
X105380000Y-133000000D03*
D15*
X113000000Y-133000000D03*
D16*
X164632000Y-145032000D03*
X162132000Y-145032000D03*
X167132000Y-145032000D03*
X167132000Y-141732000D03*
X164632000Y-141732000D03*
X162132000Y-141732000D03*
D17*
X178300000Y-143620000D03*
D15*
X196080000Y-136000000D03*
X180840000Y-143620000D03*
X193540000Y-136000000D03*
X183380000Y-143620000D03*
X191000000Y-136000000D03*
X185920000Y-143620000D03*
X188460000Y-136000000D03*
X188460000Y-143620000D03*
X185920000Y-136000000D03*
X191000000Y-143620000D03*
X183380000Y-136000000D03*
X193540000Y-143620000D03*
X180840000Y-136000000D03*
X196080000Y-143620000D03*
X178300000Y-136000000D03*
D18*
X187706000Y-132080000D03*
D19*
X190246000Y-132080000D03*
D14*
X113750000Y-129500000D03*
X113750000Y-127000000D03*
D11*
X118000000Y-145000000D03*
D18*
X102460000Y-140000000D03*
D19*
X102460000Y-137460000D03*
X105000000Y-140000000D03*
X105000000Y-137460000D03*
X107540000Y-140000000D03*
X107540000Y-137460000D03*
X110080000Y-140000000D03*
X110080000Y-137460000D03*
X112620000Y-140000000D03*
X112620000Y-137460000D03*
D20*
X183000000Y-148000000D03*
X181000000Y-148000000D03*
D21*
X182000000Y-148000000D03*
D20*
X188000000Y-148000000D03*
X190000000Y-148000000D03*
D21*
X189000000Y-148000000D03*
M02*
