G04 #@! TF.FileFunction,Profile,NP*
%FSLAX46Y46*%
G04 Gerber Fmt 4.6, Leading zero omitted, Abs format (unit mm)*
G04 Created by KiCad (PCBNEW 4.0.6) date 11/09/17 22:15:05*
%MOMM*%
%LPD*%
G01*
G04 APERTURE LIST*
%ADD10C,0.100000*%
%ADD11C,0.150000*%
G04 APERTURE END LIST*
D10*
D11*
X114300000Y-120142000D02*
X115062000Y-122174000D01*
X114300000Y-119126000D02*
X114300000Y-120142000D01*
X113792000Y-118618000D02*
X114300000Y-119126000D01*
X112522000Y-118364000D02*
X113792000Y-118618000D01*
X112014000Y-117602000D02*
X112522000Y-118364000D01*
X111506000Y-115062000D02*
X112014000Y-117602000D01*
X110490000Y-115062000D02*
X111506000Y-115062000D01*
X109982000Y-114808000D02*
X110490000Y-115062000D01*
X110236000Y-112014000D02*
X109982000Y-114808000D01*
X109728000Y-112522000D02*
X110236000Y-112014000D01*
X108712000Y-113284000D02*
X109728000Y-112522000D01*
X108204000Y-112522000D02*
X108712000Y-113284000D01*
X108204000Y-109728000D02*
X108204000Y-112522000D01*
X108458000Y-106172000D02*
X108204000Y-109728000D01*
X108458000Y-105410000D02*
X108458000Y-106172000D01*
X107950000Y-104902000D02*
X108458000Y-105410000D01*
X107696000Y-103632000D02*
X107950000Y-104902000D01*
X107696000Y-102108000D02*
X107696000Y-103632000D01*
X107188000Y-102616000D02*
X107696000Y-102108000D01*
X106426000Y-102870000D02*
X107188000Y-102616000D01*
X105410000Y-102362000D02*
X106426000Y-102870000D01*
X105410000Y-101346000D02*
X105410000Y-102362000D01*
X105664000Y-96012000D02*
X105410000Y-101346000D01*
X104902000Y-95758000D02*
X105664000Y-96012000D01*
X103378000Y-95504000D02*
X104902000Y-95758000D01*
X103378000Y-94234000D02*
X103378000Y-95504000D01*
X103378000Y-89916000D02*
X103378000Y-94234000D01*
X103632000Y-88392000D02*
X103378000Y-89916000D01*
X102870000Y-88138000D02*
X103632000Y-88392000D01*
X101854000Y-86106000D02*
X102870000Y-88138000D01*
X102108000Y-81280000D02*
X101854000Y-86106000D01*
X101854000Y-81280000D02*
X102108000Y-81280000D01*
X101092000Y-81534000D02*
X101854000Y-81280000D01*
X100584000Y-81280000D02*
X101092000Y-81534000D01*
X100330000Y-79502000D02*
X100584000Y-81280000D01*
X100584000Y-77978000D02*
X100330000Y-79502000D01*
X102870000Y-73660000D02*
X100584000Y-77978000D01*
X103886000Y-71628000D02*
X102870000Y-73660000D01*
X106426000Y-67564000D02*
X103886000Y-71628000D01*
X107188000Y-66294000D02*
X106426000Y-67564000D01*
X109220000Y-65278000D02*
X107188000Y-66294000D01*
X112776000Y-61976000D02*
X109220000Y-65278000D01*
X114046000Y-60960000D02*
X112776000Y-61976000D01*
X115062000Y-60960000D02*
X114046000Y-60960000D01*
X115824000Y-61976000D02*
X115062000Y-60960000D01*
X116078000Y-61722000D02*
X115824000Y-61976000D01*
X118618000Y-59182000D02*
X116078000Y-61722000D01*
X120396000Y-57658000D02*
X118618000Y-59182000D01*
X121666000Y-56642000D02*
X120396000Y-57658000D01*
X122936000Y-56134000D02*
X121666000Y-56642000D01*
X123444000Y-56388000D02*
X122936000Y-56134000D01*
X123698000Y-56896000D02*
X123444000Y-56388000D01*
X125476000Y-55118000D02*
X123698000Y-56896000D01*
X128778000Y-52324000D02*
X125476000Y-55118000D01*
X129286000Y-52324000D02*
X128778000Y-52324000D01*
X130048000Y-52578000D02*
X129286000Y-52324000D01*
X130810000Y-53594000D02*
X130048000Y-52578000D01*
X131318000Y-53594000D02*
X130810000Y-53594000D01*
X132588000Y-52832000D02*
X131318000Y-53594000D01*
X134366000Y-52070000D02*
X132588000Y-52832000D01*
X135636000Y-51816000D02*
X134366000Y-52070000D01*
X136652000Y-52324000D02*
X135636000Y-51816000D01*
X137922000Y-52070000D02*
X136652000Y-52324000D01*
X139446000Y-51308000D02*
X137922000Y-52070000D01*
X141478000Y-51054000D02*
X139446000Y-51308000D01*
X143256000Y-50546000D02*
X141478000Y-51054000D01*
X144018000Y-50038000D02*
X143256000Y-50546000D01*
X151384000Y-50038000D02*
X144018000Y-50038000D01*
X153162000Y-50292000D02*
X151384000Y-50038000D01*
X154686000Y-51054000D02*
X153162000Y-50292000D01*
X155956000Y-50800000D02*
X154686000Y-51054000D01*
X157226000Y-50800000D02*
X155956000Y-50800000D01*
X158242000Y-51816000D02*
X157226000Y-50800000D01*
X159004000Y-52070000D02*
X158242000Y-51816000D01*
X161290000Y-52070000D02*
X159004000Y-52070000D01*
X162814000Y-52324000D02*
X161290000Y-52070000D01*
X163068000Y-53340000D02*
X162814000Y-52324000D01*
X163576000Y-53086000D02*
X163068000Y-53340000D01*
X164338000Y-53340000D02*
X163576000Y-53086000D01*
X164846000Y-54102000D02*
X164338000Y-53340000D01*
X165862000Y-53340000D02*
X164846000Y-54102000D01*
X166878000Y-53340000D02*
X165862000Y-53340000D01*
X167894000Y-53340000D02*
X166878000Y-53340000D01*
X168402000Y-53848000D02*
X167894000Y-53340000D01*
X168656000Y-54610000D02*
X168402000Y-53848000D01*
X169418000Y-54102000D02*
X168656000Y-54610000D01*
X170434000Y-53340000D02*
X169418000Y-54102000D01*
X171958000Y-52832000D02*
X170434000Y-53340000D01*
X172720000Y-53086000D02*
X171958000Y-52832000D01*
X173482000Y-53848000D02*
X172720000Y-53086000D01*
X173482000Y-54864000D02*
X173482000Y-53848000D01*
X173228000Y-56388000D02*
X173482000Y-54864000D01*
X174244000Y-56388000D02*
X173228000Y-56388000D01*
X175260000Y-56388000D02*
X174244000Y-56388000D01*
X176276000Y-56642000D02*
X175260000Y-56388000D01*
X177038000Y-57150000D02*
X176276000Y-56642000D01*
X177292000Y-58674000D02*
X177038000Y-57150000D01*
X177292000Y-60452000D02*
X177292000Y-58674000D01*
X177038000Y-61722000D02*
X177292000Y-60452000D01*
X176276000Y-62738000D02*
X177038000Y-61722000D01*
X177038000Y-62992000D02*
X176276000Y-62738000D01*
X178054000Y-63500000D02*
X177038000Y-62992000D01*
X178308000Y-65024000D02*
X178054000Y-63500000D01*
X177292000Y-67564000D02*
X178308000Y-65024000D01*
X175768000Y-70358000D02*
X177292000Y-67564000D01*
X175260000Y-71628000D02*
X175768000Y-70358000D01*
X175260000Y-72136000D02*
X175260000Y-71628000D01*
X176276000Y-72644000D02*
X175260000Y-72136000D01*
X176530000Y-73152000D02*
X176276000Y-72644000D01*
X176022000Y-75946000D02*
X176530000Y-73152000D01*
X173990000Y-81026000D02*
X176022000Y-75946000D01*
X173990000Y-81534000D02*
X173990000Y-81026000D01*
X174498000Y-81788000D02*
X173990000Y-81534000D01*
X174752000Y-82296000D02*
X174498000Y-81788000D01*
X174244000Y-84328000D02*
X174752000Y-82296000D01*
X172466000Y-87376000D02*
X174244000Y-84328000D01*
X171704000Y-89154000D02*
X172466000Y-87376000D01*
X171958000Y-89154000D02*
X171704000Y-89154000D01*
X172212000Y-89916000D02*
X171958000Y-89154000D01*
X172212000Y-90932000D02*
X172212000Y-89916000D01*
X171450000Y-92710000D02*
X172212000Y-90932000D01*
X171196000Y-94742000D02*
X171450000Y-92710000D01*
X171196000Y-95758000D02*
X171196000Y-94742000D01*
X171958000Y-95758000D02*
X171196000Y-95758000D01*
X173228000Y-94742000D02*
X171958000Y-95758000D01*
X175006000Y-93218000D02*
X173228000Y-94742000D01*
X176530000Y-91948000D02*
X175006000Y-93218000D01*
X176784000Y-91948000D02*
X176530000Y-91948000D01*
X177038000Y-92456000D02*
X176784000Y-91948000D01*
X177292000Y-93980000D02*
X177038000Y-92456000D01*
X178054000Y-93726000D02*
X177292000Y-93980000D01*
X180086000Y-92202000D02*
X178054000Y-93726000D01*
X181864000Y-89916000D02*
X180086000Y-92202000D01*
X182626000Y-89154000D02*
X181864000Y-89916000D01*
X184150000Y-88900000D02*
X182626000Y-89154000D01*
X184658000Y-89916000D02*
X184150000Y-88900000D01*
X185166000Y-91948000D02*
X184658000Y-89916000D01*
X185928000Y-92456000D02*
X185166000Y-91948000D01*
X187452000Y-91186000D02*
X185928000Y-92456000D01*
X187960000Y-90170000D02*
X187452000Y-91186000D01*
X188214000Y-89408000D02*
X187960000Y-90170000D01*
X188722000Y-89154000D02*
X188214000Y-89408000D01*
X189230000Y-89154000D02*
X188722000Y-89154000D01*
X189738000Y-89408000D02*
X189230000Y-89154000D01*
X190754000Y-93218000D02*
X189738000Y-89408000D01*
X191262000Y-95758000D02*
X190754000Y-93218000D01*
X192278000Y-93980000D02*
X191262000Y-95758000D01*
X193294000Y-92710000D02*
X192278000Y-93980000D01*
X193802000Y-92456000D02*
X193294000Y-92710000D01*
X194564000Y-92456000D02*
X193802000Y-92456000D01*
X194818000Y-93726000D02*
X194564000Y-92456000D01*
X194564000Y-96266000D02*
X194818000Y-93726000D01*
X195580000Y-95758000D02*
X194564000Y-96266000D01*
X196596000Y-95504000D02*
X195580000Y-95758000D01*
X197358000Y-95250000D02*
X196596000Y-95504000D01*
X197612000Y-95250000D02*
X197358000Y-95250000D01*
X197358000Y-96266000D02*
X197612000Y-95250000D01*
X196342000Y-98044000D02*
X197358000Y-96266000D01*
X195834000Y-99822000D02*
X196342000Y-98044000D01*
X196088000Y-100076000D02*
X195834000Y-99822000D01*
X196596000Y-100076000D02*
X196088000Y-100076000D01*
X197358000Y-100330000D02*
X196596000Y-100076000D01*
X197866000Y-100838000D02*
X197358000Y-100330000D01*
X197866000Y-101854000D02*
X197866000Y-100838000D01*
X197612000Y-102616000D02*
X197866000Y-101854000D01*
X196850000Y-103886000D02*
X197612000Y-102616000D01*
X197104000Y-104140000D02*
X196850000Y-103886000D01*
X198374000Y-104140000D02*
X197104000Y-104140000D01*
X198882000Y-104394000D02*
X198374000Y-104140000D01*
X199390000Y-105156000D02*
X198882000Y-104394000D01*
X199390000Y-105918000D02*
X199390000Y-105156000D01*
X198882000Y-106680000D02*
X199390000Y-105918000D01*
X197866000Y-107442000D02*
X198882000Y-106680000D01*
X196850000Y-108204000D02*
X197866000Y-107442000D01*
X197358000Y-108458000D02*
X196850000Y-108204000D01*
X198374000Y-108966000D02*
X197358000Y-108458000D01*
X198628000Y-109728000D02*
X198374000Y-108966000D01*
X198374000Y-111252000D02*
X198628000Y-109728000D01*
X197358000Y-113030000D02*
X198374000Y-111252000D01*
X196342000Y-113792000D02*
X197358000Y-113030000D01*
X196596000Y-114554000D02*
X196342000Y-113792000D01*
X197612000Y-114808000D02*
X196596000Y-114554000D01*
X199136000Y-114808000D02*
X197612000Y-114808000D01*
X199644000Y-115062000D02*
X199136000Y-114808000D01*
X199898000Y-115316000D02*
X199644000Y-115062000D01*
X199898000Y-115824000D02*
X199898000Y-115316000D01*
X199390000Y-116332000D02*
X199898000Y-115824000D01*
X197358000Y-116332000D02*
X199390000Y-116332000D01*
X196596000Y-116586000D02*
X197358000Y-116332000D01*
X196088000Y-118110000D02*
X196596000Y-116586000D01*
X193294000Y-121666000D02*
X196088000Y-118110000D01*
X192024000Y-123190000D02*
X193294000Y-121666000D01*
X189738000Y-124460000D02*
X192024000Y-123190000D01*
X105000000Y-130000000D02*
X115062000Y-122174000D01*
X195000000Y-130000000D02*
X189738000Y-124460000D01*
X105000000Y-130000000D02*
G75*
G03X100000000Y-135000000I0J-5000000D01*
G01*
X200000000Y-135000000D02*
G75*
G03X195000000Y-130000000I-5000000J0D01*
G01*
X100000000Y-140000000D02*
X100000000Y-135000000D01*
X200000000Y-140000000D02*
X200000000Y-135000000D01*
X190000000Y-150000000D02*
X110000000Y-150000000D01*
X100000000Y-140000000D02*
G75*
G03X110000000Y-150000000I10000000J0D01*
G01*
X190000000Y-150000000D02*
G75*
G03X200000000Y-140000000I0J10000000D01*
G01*
M02*
