G04 #@! TF.FileFunction,Copper,L1,Top,Signal*
%FSLAX46Y46*%
G04 Gerber Fmt 4.6, Leading zero omitted, Abs format (unit mm)*
G04 Created by KiCad (PCBNEW 4.0.6) date 11/09/17 22:15:05*
%MOMM*%
%LPD*%
G01*
G04 APERTURE LIST*
%ADD10C,0.100000*%
%ADD11C,4.000000*%
%ADD12R,1.800000X1.800000*%
%ADD13C,1.800000*%
%ADD14C,1.600000*%
%ADD15O,1.600000X1.600000*%
%ADD16C,1.500000*%
%ADD17R,1.600000X1.600000*%
%ADD18R,1.700000X1.700000*%
%ADD19O,1.700000X1.700000*%
%ADD20R,1.000000X1.000000*%
%ADD21R,1.000000X0.254000*%
%ADD22C,0.600000*%
%ADD23C,0.250000*%
%ADD24C,0.254000*%
G04 APERTURE END LIST*
D10*
D11*
X172000000Y-145000000D03*
X118000000Y-132500000D03*
X172000000Y-132500000D03*
D12*
X112776000Y-79629000D03*
D13*
X115316000Y-79629000D03*
D12*
X115443000Y-91948000D03*
D13*
X117983000Y-91948000D03*
D12*
X120523000Y-102743000D03*
D13*
X123063000Y-102743000D03*
D12*
X114300000Y-85598000D03*
D13*
X116840000Y-85598000D03*
D12*
X117983000Y-97790000D03*
D13*
X120523000Y-97790000D03*
D12*
X126238000Y-65786000D03*
D13*
X128778000Y-65786000D03*
D12*
X127254000Y-79502000D03*
D13*
X129794000Y-79502000D03*
D12*
X129286000Y-93218000D03*
D13*
X131826000Y-93218000D03*
D12*
X127127000Y-72898000D03*
D13*
X129667000Y-72898000D03*
D12*
X128651000Y-85344000D03*
D13*
X131191000Y-85344000D03*
D12*
X143129000Y-58801000D03*
D13*
X145669000Y-58801000D03*
D12*
X142494000Y-75692000D03*
D13*
X145034000Y-75692000D03*
D12*
X140716000Y-92964000D03*
D13*
X143256000Y-92964000D03*
D12*
X143129000Y-67564000D03*
D13*
X145669000Y-67564000D03*
D12*
X141351000Y-83820000D03*
D13*
X143891000Y-83820000D03*
D12*
X162814000Y-66167000D03*
D13*
X165354000Y-66167000D03*
D12*
X158242000Y-81534000D03*
D13*
X160782000Y-81534000D03*
D12*
X152273000Y-94742000D03*
D13*
X154813000Y-94742000D03*
D12*
X160909000Y-74295000D03*
D13*
X163449000Y-74295000D03*
D12*
X155321000Y-88519000D03*
D13*
X157861000Y-88519000D03*
D14*
X105380000Y-133000000D03*
D15*
X113000000Y-133000000D03*
D16*
X164632000Y-145032000D03*
X162132000Y-145032000D03*
X167132000Y-145032000D03*
X167132000Y-141732000D03*
X164632000Y-141732000D03*
X162132000Y-141732000D03*
D17*
X178300000Y-143620000D03*
D15*
X196080000Y-136000000D03*
X180840000Y-143620000D03*
X193540000Y-136000000D03*
X183380000Y-143620000D03*
X191000000Y-136000000D03*
X185920000Y-143620000D03*
X188460000Y-136000000D03*
X188460000Y-143620000D03*
X185920000Y-136000000D03*
X191000000Y-143620000D03*
X183380000Y-136000000D03*
X193540000Y-143620000D03*
X180840000Y-136000000D03*
X196080000Y-143620000D03*
X178300000Y-136000000D03*
D18*
X187706000Y-132080000D03*
D19*
X190246000Y-132080000D03*
D14*
X113750000Y-129500000D03*
X113750000Y-127000000D03*
D11*
X118000000Y-145000000D03*
D18*
X102460000Y-140000000D03*
D19*
X102460000Y-137460000D03*
X105000000Y-140000000D03*
X105000000Y-137460000D03*
X107540000Y-140000000D03*
X107540000Y-137460000D03*
X110080000Y-140000000D03*
X110080000Y-137460000D03*
X112620000Y-140000000D03*
X112620000Y-137460000D03*
D20*
X183000000Y-148000000D03*
X181000000Y-148000000D03*
D21*
X182000000Y-148000000D03*
D20*
X188000000Y-148000000D03*
X190000000Y-148000000D03*
D21*
X189000000Y-148000000D03*
D22*
X169644700Y-143316800D03*
X169336800Y-140697300D03*
D23*
X107750000Y-133000000D02*
X105380000Y-133000000D01*
X113750000Y-127000000D02*
X107750000Y-133000000D01*
X183490600Y-147174700D02*
X185920000Y-144745300D01*
X183000000Y-147174700D02*
X183490600Y-147174700D01*
X185920000Y-143620000D02*
X185920000Y-144745300D01*
X183000000Y-147699900D02*
X183000000Y-147174700D01*
X183000000Y-147699900D02*
X183000000Y-148000000D01*
X111255300Y-137827400D02*
X111255300Y-137460000D01*
X112063200Y-138635300D02*
X111255300Y-137827400D01*
X152654300Y-138635300D02*
X112063200Y-138635300D01*
X162844300Y-148825300D02*
X152654300Y-138635300D01*
X183000000Y-148825300D02*
X162844300Y-148825300D01*
X183000000Y-148000000D02*
X183000000Y-148825300D01*
X110080000Y-137460000D02*
X111255300Y-137460000D01*
X188460000Y-143620000D02*
X188460000Y-144745300D01*
X190000000Y-146285300D02*
X190000000Y-148000000D01*
X188460000Y-144745300D02*
X190000000Y-146285300D01*
X119510000Y-140000000D02*
X112620000Y-140000000D01*
X128787900Y-149277900D02*
X119510000Y-140000000D01*
X189547400Y-149277900D02*
X128787900Y-149277900D01*
X190000000Y-148825300D02*
X189547400Y-149277900D01*
X190000000Y-148000000D02*
X190000000Y-148825300D01*
X176188300Y-142633600D02*
X177174700Y-143620000D01*
X170327900Y-142633600D02*
X176188300Y-142633600D01*
X169644700Y-143316800D02*
X170327900Y-142633600D01*
X178300000Y-143620000D02*
X177174700Y-143620000D01*
X182254700Y-135718600D02*
X182254700Y-136000000D01*
X181410800Y-134874700D02*
X182254700Y-135718600D01*
X110933300Y-134874700D02*
X181410800Y-134874700D01*
X108715300Y-137092700D02*
X110933300Y-134874700D01*
X108715300Y-137460000D02*
X108715300Y-137092700D01*
X107540000Y-137460000D02*
X108715300Y-137460000D01*
X183380000Y-136000000D02*
X182254700Y-136000000D01*
X166099500Y-137460000D02*
X169336800Y-140697300D01*
X112620000Y-137460000D02*
X166099500Y-137460000D01*
X171442700Y-141732000D02*
X167132000Y-141732000D01*
X177174700Y-136000000D02*
X171442700Y-141732000D01*
X178300000Y-136000000D02*
X177174700Y-136000000D01*
X165354000Y-68624700D02*
X160909000Y-73069700D01*
X165354000Y-66167000D02*
X165354000Y-68624700D01*
X160909000Y-74295000D02*
X160909000Y-73069700D01*
X112776000Y-79629000D02*
X112776000Y-80854300D01*
X118020600Y-99015300D02*
X120523000Y-101517700D01*
X117983000Y-99015300D02*
X118020600Y-99015300D01*
X120523000Y-102743000D02*
X120523000Y-101517700D01*
X117983000Y-97790000D02*
X117983000Y-99015300D01*
X127254000Y-79502000D02*
X127254000Y-80678200D01*
X116840000Y-85598000D02*
X116840000Y-84918300D01*
X116840000Y-84918300D02*
X112776000Y-80854300D01*
X131191000Y-85344000D02*
X126914200Y-81067100D01*
X127254000Y-80727300D02*
X126914200Y-81067100D01*
X127254000Y-80678200D02*
X127254000Y-80727300D01*
X123063000Y-84918300D02*
X116840000Y-84918300D01*
X126914200Y-81067100D02*
X123063000Y-84918300D01*
X127127000Y-67437000D02*
X128778000Y-65786000D01*
X127127000Y-72898000D02*
X127127000Y-67437000D01*
X141351000Y-79375000D02*
X145034000Y-75692000D01*
X141351000Y-83820000D02*
X141351000Y-79375000D01*
X184511800Y-135235100D02*
X146986500Y-97709700D01*
X184511800Y-138197700D02*
X184511800Y-135235100D01*
X182110000Y-140599500D02*
X184511800Y-138197700D01*
X182110000Y-145118300D02*
X182110000Y-140599500D01*
X181000000Y-146228300D02*
X182110000Y-145118300D01*
X181000000Y-148000000D02*
X181000000Y-146228300D01*
X141941300Y-93423600D02*
X141941300Y-92964000D01*
X144951400Y-96433700D02*
X141941300Y-93423600D01*
X145710400Y-96433700D02*
X144951400Y-96433700D01*
X146986500Y-97709700D02*
X145710400Y-96433700D01*
X140716000Y-92964000D02*
X141278900Y-92964000D01*
X141278900Y-92964000D02*
X141941300Y-92964000D01*
X141278900Y-85117400D02*
X141351000Y-85045300D01*
X141278900Y-92964000D02*
X141278900Y-85117400D01*
X141351000Y-83820000D02*
X141351000Y-85045300D01*
X157861000Y-89232600D02*
X153582300Y-93511300D01*
X157861000Y-88519000D02*
X157861000Y-89232600D01*
X151184900Y-93511300D02*
X153582300Y-93511300D01*
X146986500Y-97709700D02*
X151184900Y-93511300D01*
X153582300Y-93511300D02*
X154813000Y-94742000D01*
X129286000Y-93218000D02*
X128060700Y-93218000D01*
X145669000Y-63798700D02*
X145669000Y-58801000D01*
X143129000Y-66338700D02*
X145669000Y-63798700D01*
X143129000Y-67564000D02*
X143129000Y-66338700D01*
X123063000Y-97790000D02*
X123063000Y-102743000D01*
X120523000Y-97790000D02*
X123063000Y-97790000D01*
X123488700Y-97790000D02*
X128060700Y-93218000D01*
X123063000Y-97790000D02*
X123488700Y-97790000D01*
X115906300Y-93173300D02*
X120523000Y-97790000D01*
X115443000Y-93173300D02*
X115906300Y-93173300D01*
X115443000Y-91948000D02*
X115443000Y-93173300D01*
X142494000Y-69424300D02*
X143129000Y-68789300D01*
X142494000Y-75692000D02*
X142494000Y-69424300D01*
X143129000Y-67564000D02*
X143129000Y-68789300D01*
X152273000Y-100743900D02*
X152273000Y-94742000D01*
X187190000Y-135660900D02*
X152273000Y-100743900D01*
X187190000Y-146364700D02*
X187190000Y-135660900D01*
X188000000Y-147174700D02*
X187190000Y-146364700D01*
X188000000Y-148000000D02*
X188000000Y-147174700D01*
X160782000Y-81832700D02*
X160782000Y-81534000D01*
X155321000Y-87293700D02*
X160782000Y-81832700D01*
X155321000Y-88519000D02*
X155321000Y-87293700D01*
D24*
G36*
X152947532Y-50978570D02*
X154368479Y-51689043D01*
X154460254Y-51714176D01*
X154548214Y-51750502D01*
X154592735Y-51750455D01*
X154635669Y-51762213D01*
X154730079Y-51750312D01*
X154825242Y-51750212D01*
X156026302Y-51510000D01*
X156931908Y-51510000D01*
X157739954Y-52318046D01*
X157761167Y-52332220D01*
X157776807Y-52352372D01*
X157875673Y-52408730D01*
X157970295Y-52471954D01*
X157995314Y-52476931D01*
X158017478Y-52489565D01*
X158779479Y-52743565D01*
X158892382Y-52757798D01*
X159004000Y-52780000D01*
X161231237Y-52780000D01*
X162238102Y-52947811D01*
X162379199Y-53512200D01*
X162412417Y-53582517D01*
X162432957Y-53657522D01*
X162471015Y-53706559D01*
X162497529Y-53762685D01*
X162555127Y-53814937D01*
X162602807Y-53876372D01*
X162656733Y-53907112D01*
X162702708Y-53948820D01*
X162775917Y-53975052D01*
X162843478Y-54013565D01*
X162905065Y-54021329D01*
X162963500Y-54042267D01*
X163041176Y-54038487D01*
X163118331Y-54048213D01*
X163178198Y-54031818D01*
X163240200Y-54028801D01*
X163310517Y-53995583D01*
X163385522Y-53975043D01*
X163630478Y-53852565D01*
X163882372Y-53936530D01*
X164255244Y-54495837D01*
X164269360Y-54509982D01*
X164278000Y-54528000D01*
X164366737Y-54607563D01*
X164450928Y-54691930D01*
X164469383Y-54699597D01*
X164484260Y-54712936D01*
X164596677Y-54752481D01*
X164706757Y-54798213D01*
X164726743Y-54798234D01*
X164745591Y-54804864D01*
X164864588Y-54798378D01*
X164983786Y-54798502D01*
X165002258Y-54790873D01*
X165022208Y-54789786D01*
X165129665Y-54738256D01*
X165239837Y-54692756D01*
X165253982Y-54678640D01*
X165272000Y-54670000D01*
X166098667Y-54050000D01*
X167599908Y-54050000D01*
X167781437Y-54231528D01*
X167982435Y-54834522D01*
X168029198Y-54916556D01*
X168065244Y-55003837D01*
X168097215Y-55035875D01*
X168119628Y-55075193D01*
X168194228Y-55133091D01*
X168260928Y-55199930D01*
X168302721Y-55217293D01*
X168338478Y-55245044D01*
X168429555Y-55269985D01*
X168516757Y-55306213D01*
X168562018Y-55306260D01*
X168605669Y-55318214D01*
X168699358Y-55306403D01*
X168793786Y-55306502D01*
X168835615Y-55289227D01*
X168880522Y-55283566D01*
X168962560Y-55236800D01*
X169049837Y-55200756D01*
X169811837Y-54692756D01*
X169825982Y-54678640D01*
X169844000Y-54670000D01*
X170767826Y-53977130D01*
X171958000Y-53580406D01*
X172336470Y-53706562D01*
X172772000Y-54142092D01*
X172772000Y-54805236D01*
X172527660Y-56271277D01*
X172529499Y-56330191D01*
X172518000Y-56388000D01*
X172533780Y-56467329D01*
X172536303Y-56548170D01*
X172560547Y-56601895D01*
X172572046Y-56659705D01*
X172616980Y-56726955D01*
X172650249Y-56800679D01*
X172693207Y-56841036D01*
X172725954Y-56890046D01*
X172793208Y-56934983D01*
X172852154Y-56990361D01*
X172907286Y-57011207D01*
X172956295Y-57043954D01*
X173035621Y-57059733D01*
X173111277Y-57088340D01*
X173170191Y-57086501D01*
X173228000Y-57098000D01*
X175172596Y-57098000D01*
X175984489Y-57300973D01*
X176388228Y-57570133D01*
X176582000Y-58732764D01*
X176582000Y-60381698D01*
X176373372Y-61424837D01*
X175708000Y-62312000D01*
X175658794Y-62414610D01*
X175602435Y-62513478D01*
X175599244Y-62538791D01*
X175588214Y-62561792D01*
X175582020Y-62675424D01*
X175567787Y-62788331D01*
X175574525Y-62812935D01*
X175573136Y-62838409D01*
X175610896Y-62945754D01*
X175640956Y-63055522D01*
X175656600Y-63075679D01*
X175665064Y-63099740D01*
X175741028Y-63184463D01*
X175810807Y-63274372D01*
X175832969Y-63287005D01*
X175850000Y-63306000D01*
X175952610Y-63355206D01*
X176051478Y-63411565D01*
X176765608Y-63649608D01*
X177413098Y-63973354D01*
X177575000Y-64944766D01*
X176648471Y-67261091D01*
X175144694Y-70018015D01*
X175131994Y-70058639D01*
X175108782Y-70094312D01*
X174600782Y-71364313D01*
X174576197Y-71496298D01*
X174550000Y-71628000D01*
X174550000Y-72136000D01*
X174572202Y-72247617D01*
X174586435Y-72360522D01*
X174599069Y-72382686D01*
X174604046Y-72407705D01*
X174667270Y-72502327D01*
X174723628Y-72601193D01*
X174743780Y-72616833D01*
X174757954Y-72638046D01*
X174852578Y-72701271D01*
X174942478Y-72771043D01*
X175746798Y-73173203D01*
X175789116Y-73257840D01*
X175336237Y-75748673D01*
X173330782Y-80762313D01*
X173306197Y-80894298D01*
X173280000Y-81026000D01*
X173280000Y-81534000D01*
X173302202Y-81645617D01*
X173316435Y-81758522D01*
X173329069Y-81780686D01*
X173334046Y-81805705D01*
X173397270Y-81900327D01*
X173453628Y-81999193D01*
X173473780Y-82014833D01*
X173487954Y-82036046D01*
X173582578Y-82099271D01*
X173672478Y-82169043D01*
X173968798Y-82317203D01*
X173999498Y-82378603D01*
X173579738Y-84057643D01*
X171852717Y-87018252D01*
X171838354Y-87059950D01*
X171813407Y-87096318D01*
X171051407Y-88874317D01*
X171050494Y-88878631D01*
X171048046Y-88882295D01*
X171021855Y-89013965D01*
X170994053Y-89145343D01*
X170994860Y-89149676D01*
X170994000Y-89154000D01*
X171020189Y-89285661D01*
X171044781Y-89417687D01*
X171047186Y-89421384D01*
X171048046Y-89425705D01*
X171122646Y-89537353D01*
X171195871Y-89649887D01*
X171199504Y-89652379D01*
X171201954Y-89656046D01*
X171313601Y-89730646D01*
X171424317Y-89806593D01*
X171427338Y-89807232D01*
X171502000Y-90031217D01*
X171502000Y-90786268D01*
X170797407Y-92430317D01*
X170776823Y-92527588D01*
X170745483Y-92621936D01*
X170491483Y-94653935D01*
X170494685Y-94698336D01*
X170486000Y-94742000D01*
X170486000Y-95758000D01*
X170540046Y-96029705D01*
X170693954Y-96260046D01*
X170924295Y-96413954D01*
X171196000Y-96468000D01*
X171958000Y-96468000D01*
X172056024Y-96448502D01*
X172155605Y-96439947D01*
X172190810Y-96421691D01*
X172229705Y-96413954D01*
X172312807Y-96358427D01*
X172401533Y-96312417D01*
X173671534Y-95296417D01*
X173679408Y-95287063D01*
X173690062Y-95281072D01*
X175464317Y-93760282D01*
X176404944Y-92976426D01*
X176591660Y-94096724D01*
X176611441Y-94149037D01*
X176618435Y-94204522D01*
X176659973Y-94277390D01*
X176689639Y-94355847D01*
X176727932Y-94396608D01*
X176755628Y-94445193D01*
X176821890Y-94496619D01*
X176879321Y-94557751D01*
X176930295Y-94580753D01*
X176974478Y-94615044D01*
X177055381Y-94637199D01*
X177131830Y-94671697D01*
X177187729Y-94673442D01*
X177241669Y-94688213D01*
X177324883Y-94677723D01*
X177408723Y-94680340D01*
X177461036Y-94660560D01*
X177516522Y-94653565D01*
X178278522Y-94399565D01*
X178377390Y-94343206D01*
X178480000Y-94294000D01*
X180512000Y-92770000D01*
X180575037Y-92699695D01*
X180646440Y-92637898D01*
X182397301Y-90386791D01*
X182967158Y-89816934D01*
X183749470Y-89686549D01*
X183988102Y-90163812D01*
X184477199Y-92120201D01*
X184529285Y-92230458D01*
X184576070Y-92343072D01*
X184588205Y-92355182D01*
X184595529Y-92370685D01*
X184685851Y-92452624D01*
X184772163Y-92538756D01*
X185534163Y-93046756D01*
X185568843Y-93061078D01*
X185598023Y-93084661D01*
X185695891Y-93113548D01*
X185790214Y-93152502D01*
X185827736Y-93152463D01*
X185863720Y-93163084D01*
X185965189Y-93152319D01*
X186067242Y-93152213D01*
X186101894Y-93137817D01*
X186139202Y-93133859D01*
X186228832Y-93085081D01*
X186323072Y-93045930D01*
X186349574Y-93019372D01*
X186382531Y-93001437D01*
X187906531Y-91731437D01*
X187911007Y-91725898D01*
X187917193Y-91722372D01*
X187997908Y-91618372D01*
X188080661Y-91515977D01*
X188082677Y-91509148D01*
X188087043Y-91503522D01*
X188595044Y-90487521D01*
X188608443Y-90438592D01*
X188633565Y-90394522D01*
X188794565Y-89911521D01*
X188889607Y-89864000D01*
X189062392Y-89864000D01*
X189134389Y-89899998D01*
X190062191Y-93379259D01*
X190565788Y-95897243D01*
X190575287Y-95920109D01*
X190577017Y-95944813D01*
X190628132Y-96047309D01*
X190672070Y-96153072D01*
X190689599Y-96170565D01*
X190700650Y-96192724D01*
X190787092Y-96267854D01*
X190868163Y-96348756D01*
X190891050Y-96358208D01*
X190909741Y-96374453D01*
X191018358Y-96410784D01*
X191124215Y-96454502D01*
X191148979Y-96454476D01*
X191172462Y-96462331D01*
X191286715Y-96454332D01*
X191401242Y-96454212D01*
X191424108Y-96444713D01*
X191448813Y-96442983D01*
X191551311Y-96391867D01*
X191657072Y-96347930D01*
X191674565Y-96330401D01*
X191696724Y-96319350D01*
X191771854Y-96232908D01*
X191852756Y-96151837D01*
X191862208Y-96128950D01*
X191878453Y-96110259D01*
X192866992Y-94380315D01*
X193751001Y-93275304D01*
X193969607Y-93166000D01*
X193981940Y-93166000D01*
X194100953Y-93761066D01*
X193857524Y-96195352D01*
X193863400Y-96255939D01*
X193855787Y-96316331D01*
X193876643Y-96392491D01*
X193884266Y-96471087D01*
X193912879Y-96524812D01*
X193928957Y-96583522D01*
X193977370Y-96645902D01*
X194014490Y-96715599D01*
X194061487Y-96754286D01*
X194098807Y-96802372D01*
X194167409Y-96841478D01*
X194228374Y-96891663D01*
X194286594Y-96909419D01*
X194339478Y-96939565D01*
X194417823Y-96949441D01*
X194493352Y-96972476D01*
X194553939Y-96966600D01*
X194614331Y-96974213D01*
X194690491Y-96953357D01*
X194769087Y-96945734D01*
X194822812Y-96917121D01*
X194881522Y-96901043D01*
X195827812Y-96427898D01*
X196551065Y-96247085D01*
X195725547Y-97691741D01*
X195698411Y-97772866D01*
X195659318Y-97848948D01*
X195151318Y-99626948D01*
X195143243Y-99725258D01*
X195124000Y-99822000D01*
X195131996Y-99862198D01*
X195128641Y-99903046D01*
X195158803Y-99996964D01*
X195178046Y-100093705D01*
X195200815Y-100127781D01*
X195213348Y-100166807D01*
X195277153Y-100242031D01*
X195331954Y-100324046D01*
X195585954Y-100578046D01*
X195816295Y-100731954D01*
X196088000Y-100786000D01*
X196480783Y-100786000D01*
X196974470Y-100950562D01*
X197156000Y-101132091D01*
X197156000Y-101738783D01*
X196963081Y-102317539D01*
X196241180Y-103520708D01*
X196223373Y-103570404D01*
X196194046Y-103614295D01*
X196177075Y-103699611D01*
X196147733Y-103781500D01*
X196150299Y-103834224D01*
X196140000Y-103886000D01*
X196156971Y-103971317D01*
X196161199Y-104058200D01*
X196183747Y-104105931D01*
X196194046Y-104157705D01*
X196242373Y-104230032D01*
X196279529Y-104308685D01*
X196318626Y-104344153D01*
X196347954Y-104388046D01*
X196601954Y-104642046D01*
X196832295Y-104795954D01*
X197104000Y-104850000D01*
X198206392Y-104850000D01*
X198395833Y-104944720D01*
X198680000Y-105370971D01*
X198680000Y-105703029D01*
X198358705Y-106184971D01*
X197440000Y-106874000D01*
X196424000Y-107636000D01*
X196406969Y-107654995D01*
X196384807Y-107667628D01*
X196315031Y-107757533D01*
X196239064Y-107842260D01*
X196230599Y-107866323D01*
X196214957Y-107886478D01*
X196184899Y-107996239D01*
X196147136Y-108103591D01*
X196148525Y-108129066D01*
X196141787Y-108153669D01*
X196156020Y-108266576D01*
X196162214Y-108380208D01*
X196173244Y-108403209D01*
X196176435Y-108428522D01*
X196232794Y-108527390D01*
X196282000Y-108630000D01*
X196300995Y-108647031D01*
X196313628Y-108669193D01*
X196403533Y-108738969D01*
X196488260Y-108814936D01*
X196512323Y-108823401D01*
X196532478Y-108839043D01*
X197040478Y-109093043D01*
X197793435Y-109469522D01*
X197898669Y-109785223D01*
X197694538Y-111010007D01*
X196814448Y-112550164D01*
X195916000Y-113224000D01*
X195898969Y-113242995D01*
X195876807Y-113255628D01*
X195807028Y-113345537D01*
X195731064Y-113430260D01*
X195722600Y-113454321D01*
X195706956Y-113474478D01*
X195676896Y-113584246D01*
X195639136Y-113691591D01*
X195640525Y-113717065D01*
X195633787Y-113741669D01*
X195648020Y-113854576D01*
X195654214Y-113968208D01*
X195665244Y-113991209D01*
X195668435Y-114016522D01*
X195922435Y-114778522D01*
X195960948Y-114846083D01*
X195987180Y-114919292D01*
X196028888Y-114965267D01*
X196059628Y-115019193D01*
X196121064Y-115066874D01*
X196173315Y-115124471D01*
X196229438Y-115150984D01*
X196278478Y-115189044D01*
X196353488Y-115209585D01*
X196423800Y-115242801D01*
X197439800Y-115496801D01*
X197526683Y-115501029D01*
X197612000Y-115518000D01*
X198968392Y-115518000D01*
X199122736Y-115595172D01*
X199095908Y-115622000D01*
X197358000Y-115622000D01*
X197246382Y-115644202D01*
X197133479Y-115658435D01*
X196371478Y-115912435D01*
X196327406Y-115937558D01*
X196278478Y-115950957D01*
X196208148Y-116005540D01*
X196130807Y-116049628D01*
X196099703Y-116089704D01*
X196059628Y-116120807D01*
X196015542Y-116198145D01*
X195960956Y-116268478D01*
X195947557Y-116317408D01*
X195922435Y-116361478D01*
X195453463Y-117768394D01*
X192742028Y-121219311D01*
X191563380Y-122633689D01*
X189393194Y-123839348D01*
X189324830Y-123897335D01*
X189249037Y-123945204D01*
X189220136Y-123986136D01*
X189181928Y-124018545D01*
X189140960Y-124098276D01*
X189089253Y-124171509D01*
X189078217Y-124220383D01*
X189055318Y-124264948D01*
X189047980Y-124354290D01*
X189028235Y-124441733D01*
X189036742Y-124491110D01*
X189032641Y-124541047D01*
X189060053Y-124626401D01*
X189075273Y-124714739D01*
X189102027Y-124757099D01*
X189117348Y-124804806D01*
X189175335Y-124873170D01*
X189223204Y-124948963D01*
X194485204Y-130488964D01*
X194549713Y-130534511D01*
X194605546Y-130590343D01*
X194661781Y-130613637D01*
X194711509Y-130648747D01*
X194788534Y-130666140D01*
X194861486Y-130696358D01*
X196636390Y-131049408D01*
X198023654Y-131976349D01*
X198950592Y-133363610D01*
X199290000Y-135069931D01*
X199290000Y-139930069D01*
X198569989Y-143549807D01*
X196559187Y-146559186D01*
X193549805Y-148569990D01*
X190686516Y-149139533D01*
X190702148Y-149116139D01*
X190703540Y-149109141D01*
X190735317Y-149103162D01*
X190951441Y-148964090D01*
X191096431Y-148751890D01*
X191147440Y-148500000D01*
X191147440Y-147500000D01*
X191103162Y-147264683D01*
X190964090Y-147048559D01*
X190760000Y-146909110D01*
X190760000Y-146285300D01*
X190702148Y-145994461D01*
X190537401Y-145747899D01*
X189461279Y-144671777D01*
X189474698Y-144662811D01*
X189730000Y-144280725D01*
X189985302Y-144662811D01*
X190450849Y-144973880D01*
X191000000Y-145083113D01*
X191549151Y-144973880D01*
X192014698Y-144662811D01*
X192270000Y-144280725D01*
X192525302Y-144662811D01*
X192990849Y-144973880D01*
X193540000Y-145083113D01*
X194089151Y-144973880D01*
X194554698Y-144662811D01*
X194824986Y-144258297D01*
X194927611Y-144475134D01*
X195342577Y-144851041D01*
X195730961Y-145011904D01*
X195953000Y-144889915D01*
X195953000Y-143747000D01*
X196207000Y-143747000D01*
X196207000Y-144889915D01*
X196429039Y-145011904D01*
X196817423Y-144851041D01*
X197232389Y-144475134D01*
X197471914Y-143969041D01*
X197350629Y-143747000D01*
X196207000Y-143747000D01*
X195953000Y-143747000D01*
X195933000Y-143747000D01*
X195933000Y-143493000D01*
X195953000Y-143493000D01*
X195953000Y-142350085D01*
X196207000Y-142350085D01*
X196207000Y-143493000D01*
X197350629Y-143493000D01*
X197471914Y-143270959D01*
X197232389Y-142764866D01*
X196817423Y-142388959D01*
X196429039Y-142228096D01*
X196207000Y-142350085D01*
X195953000Y-142350085D01*
X195730961Y-142228096D01*
X195342577Y-142388959D01*
X194927611Y-142764866D01*
X194824986Y-142981703D01*
X194554698Y-142577189D01*
X194089151Y-142266120D01*
X193540000Y-142156887D01*
X192990849Y-142266120D01*
X192525302Y-142577189D01*
X192270000Y-142959275D01*
X192014698Y-142577189D01*
X191549151Y-142266120D01*
X191000000Y-142156887D01*
X190450849Y-142266120D01*
X189985302Y-142577189D01*
X189730000Y-142959275D01*
X189474698Y-142577189D01*
X189009151Y-142266120D01*
X188460000Y-142156887D01*
X187950000Y-142258332D01*
X187950000Y-137325236D01*
X188110961Y-137391904D01*
X188333000Y-137269915D01*
X188333000Y-136127000D01*
X188313000Y-136127000D01*
X188313000Y-135873000D01*
X188333000Y-135873000D01*
X188333000Y-134730085D01*
X188587000Y-134730085D01*
X188587000Y-135873000D01*
X188607000Y-135873000D01*
X188607000Y-136127000D01*
X188587000Y-136127000D01*
X188587000Y-137269915D01*
X188809039Y-137391904D01*
X189197423Y-137231041D01*
X189612389Y-136855134D01*
X189715014Y-136638297D01*
X189985302Y-137042811D01*
X190450849Y-137353880D01*
X191000000Y-137463113D01*
X191549151Y-137353880D01*
X192014698Y-137042811D01*
X192270000Y-136660725D01*
X192525302Y-137042811D01*
X192990849Y-137353880D01*
X193540000Y-137463113D01*
X194089151Y-137353880D01*
X194554698Y-137042811D01*
X194810000Y-136660725D01*
X195065302Y-137042811D01*
X195530849Y-137353880D01*
X196080000Y-137463113D01*
X196629151Y-137353880D01*
X197094698Y-137042811D01*
X197405767Y-136577264D01*
X197515000Y-136028113D01*
X197515000Y-135971887D01*
X197405767Y-135422736D01*
X197094698Y-134957189D01*
X196629151Y-134646120D01*
X196080000Y-134536887D01*
X195530849Y-134646120D01*
X195065302Y-134957189D01*
X194810000Y-135339275D01*
X194554698Y-134957189D01*
X194089151Y-134646120D01*
X193540000Y-134536887D01*
X192990849Y-134646120D01*
X192525302Y-134957189D01*
X192270000Y-135339275D01*
X192014698Y-134957189D01*
X191549151Y-134646120D01*
X191000000Y-134536887D01*
X190450849Y-134646120D01*
X189985302Y-134957189D01*
X189715014Y-135361703D01*
X189612389Y-135144866D01*
X189197423Y-134768959D01*
X188809039Y-134608096D01*
X188587000Y-134730085D01*
X188333000Y-134730085D01*
X188110961Y-134608096D01*
X187722577Y-134768959D01*
X187539083Y-134935181D01*
X183833902Y-131230000D01*
X186208560Y-131230000D01*
X186208560Y-132930000D01*
X186252838Y-133165317D01*
X186391910Y-133381441D01*
X186604110Y-133526431D01*
X186856000Y-133577440D01*
X188556000Y-133577440D01*
X188791317Y-133533162D01*
X189007441Y-133394090D01*
X189152431Y-133181890D01*
X189174301Y-133073893D01*
X189479076Y-133351645D01*
X189889110Y-133521476D01*
X190119000Y-133400155D01*
X190119000Y-132207000D01*
X190373000Y-132207000D01*
X190373000Y-133400155D01*
X190602890Y-133521476D01*
X191012924Y-133351645D01*
X191441183Y-132961358D01*
X191687486Y-132436892D01*
X191566819Y-132207000D01*
X190373000Y-132207000D01*
X190119000Y-132207000D01*
X190099000Y-132207000D01*
X190099000Y-131953000D01*
X190119000Y-131953000D01*
X190119000Y-130759845D01*
X190373000Y-130759845D01*
X190373000Y-131953000D01*
X191566819Y-131953000D01*
X191687486Y-131723108D01*
X191441183Y-131198642D01*
X191012924Y-130808355D01*
X190602890Y-130638524D01*
X190373000Y-130759845D01*
X190119000Y-130759845D01*
X189889110Y-130638524D01*
X189479076Y-130808355D01*
X189176063Y-131084501D01*
X189159162Y-130994683D01*
X189020090Y-130778559D01*
X188807890Y-130633569D01*
X188556000Y-130582560D01*
X186856000Y-130582560D01*
X186620683Y-130626838D01*
X186404559Y-130765910D01*
X186259569Y-130978110D01*
X186208560Y-131230000D01*
X183833902Y-131230000D01*
X153033000Y-100429098D01*
X153033000Y-96289440D01*
X153173000Y-96289440D01*
X153408317Y-96245162D01*
X153624441Y-96106090D01*
X153769431Y-95893890D01*
X153773567Y-95873466D01*
X153942357Y-96042551D01*
X154506330Y-96276733D01*
X155116991Y-96277265D01*
X155681371Y-96044068D01*
X156113551Y-95612643D01*
X156347733Y-95048670D01*
X156348265Y-94438009D01*
X156115068Y-93873629D01*
X155683643Y-93441449D01*
X155119670Y-93207267D01*
X154961273Y-93207129D01*
X158114181Y-90054221D01*
X158164991Y-90054265D01*
X158729371Y-89821068D01*
X159161551Y-89389643D01*
X159395733Y-88825670D01*
X159396265Y-88215009D01*
X159163068Y-87650629D01*
X158731643Y-87218449D01*
X158167670Y-86984267D01*
X157557009Y-86983735D01*
X156992629Y-87216932D01*
X156824387Y-87384880D01*
X156824162Y-87383683D01*
X156685090Y-87167559D01*
X156588167Y-87101335D01*
X160620642Y-83068860D01*
X161085991Y-83069265D01*
X161650371Y-82836068D01*
X162082551Y-82404643D01*
X162316733Y-81840670D01*
X162317265Y-81230009D01*
X162084068Y-80665629D01*
X161652643Y-80233449D01*
X161088670Y-79999267D01*
X160478009Y-79998735D01*
X159913629Y-80231932D01*
X159745387Y-80399880D01*
X159745162Y-80398683D01*
X159606090Y-80182559D01*
X159393890Y-80037569D01*
X159142000Y-79986560D01*
X157342000Y-79986560D01*
X157106683Y-80030838D01*
X156890559Y-80169910D01*
X156745569Y-80382110D01*
X156694560Y-80634000D01*
X156694560Y-82434000D01*
X156738838Y-82669317D01*
X156877910Y-82885441D01*
X157090110Y-83030431D01*
X157342000Y-83081440D01*
X158458458Y-83081440D01*
X154783599Y-86756299D01*
X154639767Y-86971560D01*
X154421000Y-86971560D01*
X154185683Y-87015838D01*
X153969559Y-87154910D01*
X153824569Y-87367110D01*
X153773560Y-87619000D01*
X153773560Y-89419000D01*
X153817838Y-89654317D01*
X153956910Y-89870441D01*
X154169110Y-90015431D01*
X154421000Y-90066440D01*
X155952358Y-90066440D01*
X153267498Y-92751300D01*
X151184900Y-92751300D01*
X150894060Y-92809152D01*
X150647499Y-92973899D01*
X146986479Y-96634919D01*
X146247780Y-95896278D01*
X146125134Y-95814336D01*
X146001239Y-95731552D01*
X146001224Y-95731549D01*
X146001212Y-95731541D01*
X145860031Y-95703464D01*
X145710400Y-95673700D01*
X145266202Y-95673700D01*
X143936285Y-94343783D01*
X144124371Y-94266068D01*
X144556551Y-93834643D01*
X144790733Y-93270670D01*
X144791265Y-92660009D01*
X144558068Y-92095629D01*
X144126643Y-91663449D01*
X143562670Y-91429267D01*
X142952009Y-91428735D01*
X142387629Y-91661932D01*
X142219387Y-91829880D01*
X142219162Y-91828683D01*
X142080090Y-91612559D01*
X142038900Y-91584415D01*
X142038900Y-85367440D01*
X142251000Y-85367440D01*
X142486317Y-85323162D01*
X142702441Y-85184090D01*
X142847431Y-84971890D01*
X142851567Y-84951466D01*
X143020357Y-85120551D01*
X143584330Y-85354733D01*
X144194991Y-85355265D01*
X144759371Y-85122068D01*
X145191551Y-84690643D01*
X145425733Y-84126670D01*
X145426265Y-83516009D01*
X145193068Y-82951629D01*
X144761643Y-82519449D01*
X144197670Y-82285267D01*
X143587009Y-82284735D01*
X143022629Y-82517932D01*
X142854387Y-82685880D01*
X142854162Y-82684683D01*
X142715090Y-82468559D01*
X142502890Y-82323569D01*
X142251000Y-82272560D01*
X142111000Y-82272560D01*
X142111000Y-79689802D01*
X144619036Y-77181766D01*
X144727330Y-77226733D01*
X145337991Y-77227265D01*
X145902371Y-76994068D01*
X146334551Y-76562643D01*
X146568733Y-75998670D01*
X146569265Y-75388009D01*
X146336068Y-74823629D01*
X145904643Y-74391449D01*
X145340670Y-74157267D01*
X144730009Y-74156735D01*
X144165629Y-74389932D01*
X143997387Y-74557880D01*
X143997162Y-74556683D01*
X143858090Y-74340559D01*
X143645890Y-74195569D01*
X143394000Y-74144560D01*
X143254000Y-74144560D01*
X143254000Y-73395000D01*
X159361560Y-73395000D01*
X159361560Y-75195000D01*
X159405838Y-75430317D01*
X159544910Y-75646441D01*
X159757110Y-75791431D01*
X160009000Y-75842440D01*
X161809000Y-75842440D01*
X162044317Y-75798162D01*
X162260441Y-75659090D01*
X162405431Y-75446890D01*
X162409567Y-75426466D01*
X162578357Y-75595551D01*
X163142330Y-75829733D01*
X163752991Y-75830265D01*
X164317371Y-75597068D01*
X164749551Y-75165643D01*
X164983733Y-74601670D01*
X164984265Y-73991009D01*
X164751068Y-73426629D01*
X164319643Y-72994449D01*
X163755670Y-72760267D01*
X163145009Y-72759735D01*
X162580629Y-72992932D01*
X162412387Y-73160880D01*
X162412162Y-73159683D01*
X162273090Y-72943559D01*
X162176167Y-72877335D01*
X165891401Y-69162101D01*
X166056148Y-68915540D01*
X166114000Y-68624700D01*
X166114000Y-67513846D01*
X166222371Y-67469068D01*
X166654551Y-67037643D01*
X166888733Y-66473670D01*
X166889265Y-65863009D01*
X166656068Y-65298629D01*
X166224643Y-64866449D01*
X165660670Y-64632267D01*
X165050009Y-64631735D01*
X164485629Y-64864932D01*
X164317387Y-65032880D01*
X164317162Y-65031683D01*
X164178090Y-64815559D01*
X163965890Y-64670569D01*
X163714000Y-64619560D01*
X161914000Y-64619560D01*
X161678683Y-64663838D01*
X161462559Y-64802910D01*
X161317569Y-65015110D01*
X161266560Y-65267000D01*
X161266560Y-67067000D01*
X161310838Y-67302317D01*
X161449910Y-67518441D01*
X161662110Y-67663431D01*
X161914000Y-67714440D01*
X163714000Y-67714440D01*
X163949317Y-67670162D01*
X164165441Y-67531090D01*
X164310431Y-67318890D01*
X164314567Y-67298466D01*
X164483357Y-67467551D01*
X164594000Y-67513494D01*
X164594000Y-68309898D01*
X160371599Y-72532299D01*
X160227767Y-72747560D01*
X160009000Y-72747560D01*
X159773683Y-72791838D01*
X159557559Y-72930910D01*
X159412569Y-73143110D01*
X159361560Y-73395000D01*
X143254000Y-73395000D01*
X143254000Y-69739102D01*
X143666401Y-69326701D01*
X143810233Y-69111440D01*
X144029000Y-69111440D01*
X144264317Y-69067162D01*
X144480441Y-68928090D01*
X144625431Y-68715890D01*
X144629567Y-68695466D01*
X144798357Y-68864551D01*
X145362330Y-69098733D01*
X145972991Y-69099265D01*
X146537371Y-68866068D01*
X146969551Y-68434643D01*
X147203733Y-67870670D01*
X147204265Y-67260009D01*
X146971068Y-66695629D01*
X146539643Y-66263449D01*
X145975670Y-66029267D01*
X145365009Y-66028735D01*
X144800629Y-66261932D01*
X144632387Y-66429880D01*
X144632162Y-66428683D01*
X144493090Y-66212559D01*
X144396167Y-66146335D01*
X146206401Y-64336101D01*
X146371148Y-64089540D01*
X146381724Y-64036372D01*
X146429000Y-63798700D01*
X146429000Y-60147846D01*
X146537371Y-60103068D01*
X146969551Y-59671643D01*
X147203733Y-59107670D01*
X147204265Y-58497009D01*
X146971068Y-57932629D01*
X146539643Y-57500449D01*
X145975670Y-57266267D01*
X145365009Y-57265735D01*
X144800629Y-57498932D01*
X144632387Y-57666880D01*
X144632162Y-57665683D01*
X144493090Y-57449559D01*
X144280890Y-57304569D01*
X144029000Y-57253560D01*
X142229000Y-57253560D01*
X141993683Y-57297838D01*
X141777559Y-57436910D01*
X141632569Y-57649110D01*
X141581560Y-57901000D01*
X141581560Y-59701000D01*
X141625838Y-59936317D01*
X141764910Y-60152441D01*
X141977110Y-60297431D01*
X142229000Y-60348440D01*
X144029000Y-60348440D01*
X144264317Y-60304162D01*
X144480441Y-60165090D01*
X144625431Y-59952890D01*
X144629567Y-59932466D01*
X144798357Y-60101551D01*
X144909000Y-60147494D01*
X144909000Y-63483898D01*
X142591599Y-65801299D01*
X142447767Y-66016560D01*
X142229000Y-66016560D01*
X141993683Y-66060838D01*
X141777559Y-66199910D01*
X141632569Y-66412110D01*
X141581560Y-66664000D01*
X141581560Y-68464000D01*
X141625838Y-68699317D01*
X141764910Y-68915441D01*
X141883422Y-68996417D01*
X141791852Y-69133461D01*
X141734000Y-69424300D01*
X141734000Y-74144560D01*
X141594000Y-74144560D01*
X141358683Y-74188838D01*
X141142559Y-74327910D01*
X140997569Y-74540110D01*
X140946560Y-74792000D01*
X140946560Y-76592000D01*
X140990838Y-76827317D01*
X141129910Y-77043441D01*
X141342110Y-77188431D01*
X141594000Y-77239440D01*
X142411758Y-77239440D01*
X140813599Y-78837599D01*
X140648852Y-79084161D01*
X140591000Y-79375000D01*
X140591000Y-82272560D01*
X140451000Y-82272560D01*
X140215683Y-82316838D01*
X139999559Y-82455910D01*
X139854569Y-82668110D01*
X139803560Y-82920000D01*
X139803560Y-84720000D01*
X139847838Y-84955317D01*
X139986910Y-85171441D01*
X140199110Y-85316431D01*
X140451000Y-85367440D01*
X140518900Y-85367440D01*
X140518900Y-91416560D01*
X139816000Y-91416560D01*
X139580683Y-91460838D01*
X139364559Y-91599910D01*
X139219569Y-91812110D01*
X139168560Y-92064000D01*
X139168560Y-93864000D01*
X139212838Y-94099317D01*
X139351910Y-94315441D01*
X139564110Y-94460431D01*
X139816000Y-94511440D01*
X141616000Y-94511440D01*
X141851317Y-94467162D01*
X141887060Y-94444162D01*
X144413999Y-96971101D01*
X144660560Y-97135848D01*
X144951400Y-97193700D01*
X145395615Y-97193700D01*
X146449098Y-98247100D01*
X182845171Y-134643271D01*
X182830849Y-134646120D01*
X182486865Y-134875963D01*
X181948201Y-134337299D01*
X181701639Y-134172552D01*
X181410800Y-134114700D01*
X174112189Y-134114700D01*
X174232542Y-133994557D01*
X174634542Y-133026433D01*
X174635457Y-131978166D01*
X174235147Y-131009342D01*
X173494557Y-130267458D01*
X172526433Y-129865458D01*
X171478166Y-129864543D01*
X170509342Y-130264853D01*
X169767458Y-131005443D01*
X169365458Y-131973567D01*
X169364543Y-133021834D01*
X169764853Y-133990658D01*
X169888679Y-134114700D01*
X120112189Y-134114700D01*
X120232542Y-133994557D01*
X120634542Y-133026433D01*
X120635457Y-131978166D01*
X120235147Y-131009342D01*
X119494557Y-130267458D01*
X118526433Y-129865458D01*
X117478166Y-129864543D01*
X116509342Y-130264853D01*
X115767458Y-131005443D01*
X115365458Y-131973567D01*
X115364543Y-133021834D01*
X115764853Y-133990658D01*
X115888679Y-134114700D01*
X113893148Y-134114700D01*
X114042811Y-134014698D01*
X114353880Y-133549151D01*
X114463113Y-133000000D01*
X114353880Y-132450849D01*
X114042811Y-131985302D01*
X113577264Y-131674233D01*
X113028113Y-131565000D01*
X112971887Y-131565000D01*
X112422736Y-131674233D01*
X111957189Y-131985302D01*
X111646120Y-132450849D01*
X111536887Y-133000000D01*
X111646120Y-133549151D01*
X111957189Y-134014698D01*
X112106852Y-134114700D01*
X110933300Y-134114700D01*
X110642461Y-134172552D01*
X110395899Y-134337299D01*
X108447558Y-136285640D01*
X108108285Y-136058946D01*
X107540000Y-135945907D01*
X106971715Y-136058946D01*
X106489946Y-136380853D01*
X106270000Y-136710026D01*
X106050054Y-136380853D01*
X105568285Y-136058946D01*
X105000000Y-135945907D01*
X104431715Y-136058946D01*
X103949946Y-136380853D01*
X103730000Y-136710026D01*
X103510054Y-136380853D01*
X103028285Y-136058946D01*
X102460000Y-135945907D01*
X101891715Y-136058946D01*
X101409946Y-136380853D01*
X101088039Y-136862622D01*
X100975000Y-137430907D01*
X100975000Y-137489093D01*
X101088039Y-138057378D01*
X101409946Y-138539147D01*
X101411179Y-138539971D01*
X101374683Y-138546838D01*
X101158559Y-138685910D01*
X101013569Y-138898110D01*
X100962560Y-139150000D01*
X100962560Y-140850000D01*
X101006838Y-141085317D01*
X101145910Y-141301441D01*
X101358110Y-141446431D01*
X101610000Y-141497440D01*
X103310000Y-141497440D01*
X103545317Y-141453162D01*
X103761441Y-141314090D01*
X103906431Y-141101890D01*
X103920086Y-141034459D01*
X103949946Y-141079147D01*
X104431715Y-141401054D01*
X105000000Y-141514093D01*
X105568285Y-141401054D01*
X106050054Y-141079147D01*
X106270000Y-140749974D01*
X106489946Y-141079147D01*
X106971715Y-141401054D01*
X107540000Y-141514093D01*
X108108285Y-141401054D01*
X108590054Y-141079147D01*
X108810000Y-140749974D01*
X109029946Y-141079147D01*
X109511715Y-141401054D01*
X110080000Y-141514093D01*
X110648285Y-141401054D01*
X111130054Y-141079147D01*
X111350000Y-140749974D01*
X111569946Y-141079147D01*
X112051715Y-141401054D01*
X112620000Y-141514093D01*
X113188285Y-141401054D01*
X113670054Y-141079147D01*
X113883301Y-140760000D01*
X119195198Y-140760000D01*
X127725198Y-149290000D01*
X110069931Y-149290000D01*
X106450193Y-148569989D01*
X103440814Y-146559187D01*
X102747678Y-145521834D01*
X115364543Y-145521834D01*
X115764853Y-146490658D01*
X116505443Y-147232542D01*
X117473567Y-147634542D01*
X118521834Y-147635457D01*
X119490658Y-147235147D01*
X120232542Y-146494557D01*
X120634542Y-145526433D01*
X120635457Y-144478166D01*
X120235147Y-143509342D01*
X119494557Y-142767458D01*
X118526433Y-142365458D01*
X117478166Y-142364543D01*
X116509342Y-142764853D01*
X115767458Y-143505443D01*
X115365458Y-144473567D01*
X115364543Y-145521834D01*
X102747678Y-145521834D01*
X101430010Y-143549805D01*
X100710000Y-139930069D01*
X100710000Y-135069931D01*
X101049408Y-133363610D01*
X101102476Y-133284187D01*
X103944752Y-133284187D01*
X104162757Y-133811800D01*
X104566077Y-134215824D01*
X105093309Y-134434750D01*
X105664187Y-134435248D01*
X106191800Y-134217243D01*
X106595824Y-133813923D01*
X106618215Y-133760000D01*
X107750000Y-133760000D01*
X108040839Y-133702148D01*
X108287401Y-133537401D01*
X112314991Y-129509811D01*
X112314752Y-129784187D01*
X112532757Y-130311800D01*
X112936077Y-130715824D01*
X113463309Y-130934750D01*
X114034187Y-130935248D01*
X114561800Y-130717243D01*
X114965824Y-130313923D01*
X115184750Y-129786691D01*
X115185248Y-129215813D01*
X114967243Y-128688200D01*
X114563923Y-128284176D01*
X114482069Y-128250187D01*
X114561800Y-128217243D01*
X114965824Y-127813923D01*
X115184750Y-127286691D01*
X115185248Y-126715813D01*
X114967243Y-126188200D01*
X114563923Y-125784176D01*
X114036691Y-125565250D01*
X113465813Y-125564752D01*
X112938200Y-125782757D01*
X112534176Y-126186077D01*
X112315250Y-126713309D01*
X112314752Y-127284187D01*
X112337049Y-127338149D01*
X107435198Y-132240000D01*
X106618646Y-132240000D01*
X106597243Y-132188200D01*
X106193923Y-131784176D01*
X105666691Y-131565250D01*
X105095813Y-131564752D01*
X104568200Y-131782757D01*
X104164176Y-132186077D01*
X103945250Y-132713309D01*
X103944752Y-133284187D01*
X101102476Y-133284187D01*
X101976349Y-131976346D01*
X103363610Y-131049408D01*
X105138514Y-130696358D01*
X105162432Y-130686451D01*
X105188246Y-130684589D01*
X105289650Y-130633755D01*
X105394454Y-130590343D01*
X105412756Y-130572041D01*
X105435898Y-130560440D01*
X115497898Y-122734440D01*
X115519141Y-122709894D01*
X115546726Y-122692787D01*
X115609159Y-122605883D01*
X115679188Y-122524968D01*
X115689421Y-122494163D01*
X115708360Y-122467800D01*
X115732784Y-122363617D01*
X115766517Y-122262065D01*
X115764182Y-122229689D01*
X115771591Y-122198085D01*
X115754286Y-122092479D01*
X115746589Y-121985754D01*
X115732044Y-121956739D01*
X115726794Y-121924702D01*
X115010000Y-120013251D01*
X115010000Y-119126000D01*
X114955954Y-118854295D01*
X114802046Y-118623954D01*
X114802043Y-118623952D01*
X114294046Y-118115954D01*
X114236206Y-118077307D01*
X114187072Y-118028070D01*
X114122155Y-118001101D01*
X114063705Y-117962046D01*
X113995480Y-117948475D01*
X113931242Y-117921788D01*
X112949624Y-117725464D01*
X112682666Y-117325028D01*
X112202212Y-114922758D01*
X112175525Y-114858520D01*
X112161954Y-114790295D01*
X112122899Y-114731845D01*
X112095930Y-114666928D01*
X112046693Y-114617794D01*
X112008046Y-114559954D01*
X111949596Y-114520899D01*
X111899837Y-114471244D01*
X111835541Y-114444690D01*
X111777705Y-114406046D01*
X111708762Y-114392332D01*
X111643786Y-114365498D01*
X111574224Y-114365571D01*
X111506000Y-114352000D01*
X110736382Y-114352000D01*
X110943084Y-112078280D01*
X110939651Y-112045919D01*
X110946000Y-112014000D01*
X110925139Y-111909125D01*
X110913859Y-111802798D01*
X110898303Y-111774214D01*
X110891954Y-111742295D01*
X110832552Y-111653393D01*
X110781437Y-111559469D01*
X110756124Y-111539011D01*
X110738045Y-111511955D01*
X110649142Y-111452552D01*
X110565976Y-111385339D01*
X110534764Y-111376127D01*
X110507705Y-111358046D01*
X110402831Y-111337185D01*
X110300280Y-111306916D01*
X110267919Y-111310349D01*
X110236000Y-111304000D01*
X110131125Y-111324861D01*
X110024798Y-111336141D01*
X109996213Y-111351697D01*
X109964295Y-111358046D01*
X109875396Y-111417446D01*
X109781469Y-111468562D01*
X109761011Y-111493876D01*
X109733954Y-111511955D01*
X109261632Y-111984276D01*
X108914000Y-112245000D01*
X108914000Y-109753329D01*
X109166196Y-106222585D01*
X109162998Y-106197145D01*
X109168000Y-106172000D01*
X109168000Y-105410000D01*
X109113954Y-105138295D01*
X108960046Y-104907954D01*
X108960043Y-104907952D01*
X108604053Y-104551961D01*
X108406000Y-103561698D01*
X108406000Y-102108000D01*
X108351954Y-101836295D01*
X108198046Y-101605954D01*
X107967705Y-101452046D01*
X107696000Y-101398000D01*
X107424295Y-101452046D01*
X107193954Y-101605954D01*
X107193952Y-101605957D01*
X106804470Y-101995438D01*
X106480478Y-102103435D01*
X106120000Y-101923196D01*
X106120000Y-101362887D01*
X106373196Y-96045771D01*
X106366904Y-96003790D01*
X106372214Y-95961669D01*
X106346540Y-95867917D01*
X106332135Y-95771803D01*
X106310258Y-95735427D01*
X106299044Y-95694478D01*
X106239451Y-95617693D01*
X106189358Y-95534402D01*
X106155220Y-95509163D01*
X106129193Y-95475628D01*
X106044755Y-95427494D01*
X105966598Y-95369712D01*
X105925404Y-95359459D01*
X105888522Y-95338435D01*
X105126522Y-95084435D01*
X105071037Y-95077441D01*
X105018724Y-95057660D01*
X104088000Y-94902539D01*
X104088000Y-91048000D01*
X113895560Y-91048000D01*
X113895560Y-92848000D01*
X113939838Y-93083317D01*
X114078910Y-93299441D01*
X114291110Y-93444431D01*
X114543000Y-93495440D01*
X114761767Y-93495440D01*
X114905599Y-93710701D01*
X115152161Y-93875448D01*
X115443000Y-93933300D01*
X115591498Y-93933300D01*
X117900758Y-96242560D01*
X117083000Y-96242560D01*
X116847683Y-96286838D01*
X116631559Y-96425910D01*
X116486569Y-96638110D01*
X116435560Y-96890000D01*
X116435560Y-98690000D01*
X116479838Y-98925317D01*
X116618910Y-99141441D01*
X116831110Y-99286431D01*
X117083000Y-99337440D01*
X117301767Y-99337440D01*
X117445599Y-99552701D01*
X117558912Y-99628414D01*
X119255435Y-101324937D01*
X119171559Y-101378910D01*
X119026569Y-101591110D01*
X118975560Y-101843000D01*
X118975560Y-103643000D01*
X119019838Y-103878317D01*
X119158910Y-104094441D01*
X119371110Y-104239431D01*
X119623000Y-104290440D01*
X121423000Y-104290440D01*
X121658317Y-104246162D01*
X121874441Y-104107090D01*
X122019431Y-103894890D01*
X122023567Y-103874466D01*
X122192357Y-104043551D01*
X122756330Y-104277733D01*
X123366991Y-104278265D01*
X123931371Y-104045068D01*
X124363551Y-103613643D01*
X124597733Y-103049670D01*
X124598265Y-102439009D01*
X124365068Y-101874629D01*
X123933643Y-101442449D01*
X123823000Y-101396506D01*
X123823000Y-98463108D01*
X124026101Y-98327401D01*
X127867937Y-94485565D01*
X127921910Y-94569441D01*
X128134110Y-94714431D01*
X128386000Y-94765440D01*
X130186000Y-94765440D01*
X130421317Y-94721162D01*
X130637441Y-94582090D01*
X130782431Y-94369890D01*
X130786567Y-94349466D01*
X130955357Y-94518551D01*
X131519330Y-94752733D01*
X132129991Y-94753265D01*
X132694371Y-94520068D01*
X133126551Y-94088643D01*
X133360733Y-93524670D01*
X133361265Y-92914009D01*
X133128068Y-92349629D01*
X132696643Y-91917449D01*
X132132670Y-91683267D01*
X131522009Y-91682735D01*
X130957629Y-91915932D01*
X130789387Y-92083880D01*
X130789162Y-92082683D01*
X130650090Y-91866559D01*
X130437890Y-91721569D01*
X130186000Y-91670560D01*
X128386000Y-91670560D01*
X128150683Y-91714838D01*
X127934559Y-91853910D01*
X127789569Y-92066110D01*
X127738560Y-92318000D01*
X127738560Y-92536766D01*
X127523299Y-92680599D01*
X123173898Y-97030000D01*
X121869846Y-97030000D01*
X121825068Y-96921629D01*
X121393643Y-96489449D01*
X120829670Y-96255267D01*
X120219009Y-96254735D01*
X120108287Y-96300485D01*
X116926548Y-93118746D01*
X116939431Y-93099890D01*
X116943567Y-93079466D01*
X117112357Y-93248551D01*
X117676330Y-93482733D01*
X118286991Y-93483265D01*
X118851371Y-93250068D01*
X119283551Y-92818643D01*
X119517733Y-92254670D01*
X119518265Y-91644009D01*
X119285068Y-91079629D01*
X118853643Y-90647449D01*
X118289670Y-90413267D01*
X117679009Y-90412735D01*
X117114629Y-90645932D01*
X116946387Y-90813880D01*
X116946162Y-90812683D01*
X116807090Y-90596559D01*
X116594890Y-90451569D01*
X116343000Y-90400560D01*
X114543000Y-90400560D01*
X114307683Y-90444838D01*
X114091559Y-90583910D01*
X113946569Y-90796110D01*
X113895560Y-91048000D01*
X104088000Y-91048000D01*
X104088000Y-89974763D01*
X104332340Y-88508723D01*
X104329723Y-88424890D01*
X104340214Y-88341669D01*
X104325442Y-88287726D01*
X104323697Y-88231830D01*
X104289199Y-88155381D01*
X104267044Y-88074478D01*
X104232754Y-88030296D01*
X104209751Y-87979320D01*
X104148618Y-87921888D01*
X104097193Y-87855628D01*
X104048606Y-87827931D01*
X104007846Y-87789639D01*
X103929392Y-87759974D01*
X103856522Y-87718435D01*
X103373521Y-87557435D01*
X102572871Y-85956134D01*
X102817019Y-81317316D01*
X102814306Y-81298573D01*
X102818000Y-81280000D01*
X102794551Y-81162113D01*
X102777328Y-81043146D01*
X102767648Y-81026868D01*
X102763954Y-81008295D01*
X102697180Y-80908360D01*
X102635739Y-80805034D01*
X102620566Y-80793699D01*
X102610046Y-80777954D01*
X102510108Y-80711178D01*
X102413806Y-80639233D01*
X102395451Y-80634567D01*
X102379705Y-80624046D01*
X102261820Y-80600597D01*
X102145317Y-80570981D01*
X102126573Y-80573694D01*
X102108000Y-80570000D01*
X101854000Y-80570000D01*
X101742382Y-80592202D01*
X101629479Y-80606435D01*
X101224280Y-80741501D01*
X101048402Y-79510354D01*
X101178627Y-78729000D01*
X111228560Y-78729000D01*
X111228560Y-80529000D01*
X111272838Y-80764317D01*
X111411910Y-80980441D01*
X111624110Y-81125431D01*
X111876000Y-81176440D01*
X112094767Y-81176440D01*
X112238599Y-81391701D01*
X114897458Y-84050560D01*
X113400000Y-84050560D01*
X113164683Y-84094838D01*
X112948559Y-84233910D01*
X112803569Y-84446110D01*
X112752560Y-84698000D01*
X112752560Y-86498000D01*
X112796838Y-86733317D01*
X112935910Y-86949441D01*
X113148110Y-87094431D01*
X113400000Y-87145440D01*
X115200000Y-87145440D01*
X115435317Y-87101162D01*
X115651441Y-86962090D01*
X115796431Y-86749890D01*
X115800567Y-86729466D01*
X115969357Y-86898551D01*
X116533330Y-87132733D01*
X117143991Y-87133265D01*
X117708371Y-86900068D01*
X118140551Y-86468643D01*
X118374733Y-85904670D01*
X118374930Y-85678300D01*
X123063000Y-85678300D01*
X123353839Y-85620448D01*
X123600401Y-85455701D01*
X126914194Y-82141908D01*
X128568806Y-83796560D01*
X127751000Y-83796560D01*
X127515683Y-83840838D01*
X127299559Y-83979910D01*
X127154569Y-84192110D01*
X127103560Y-84444000D01*
X127103560Y-86244000D01*
X127147838Y-86479317D01*
X127286910Y-86695441D01*
X127499110Y-86840431D01*
X127751000Y-86891440D01*
X129551000Y-86891440D01*
X129786317Y-86847162D01*
X130002441Y-86708090D01*
X130147431Y-86495890D01*
X130151567Y-86475466D01*
X130320357Y-86644551D01*
X130884330Y-86878733D01*
X131494991Y-86879265D01*
X132059371Y-86646068D01*
X132491551Y-86214643D01*
X132725733Y-85650670D01*
X132726265Y-85040009D01*
X132493068Y-84475629D01*
X132061643Y-84043449D01*
X131497670Y-83809267D01*
X130887009Y-83808735D01*
X130776302Y-83854478D01*
X127971330Y-81049440D01*
X128154000Y-81049440D01*
X128389317Y-81005162D01*
X128605441Y-80866090D01*
X128750431Y-80653890D01*
X128754567Y-80633466D01*
X128923357Y-80802551D01*
X129487330Y-81036733D01*
X130097991Y-81037265D01*
X130662371Y-80804068D01*
X131094551Y-80372643D01*
X131328733Y-79808670D01*
X131329265Y-79198009D01*
X131096068Y-78633629D01*
X130664643Y-78201449D01*
X130100670Y-77967267D01*
X129490009Y-77966735D01*
X128925629Y-78199932D01*
X128757387Y-78367880D01*
X128757162Y-78366683D01*
X128618090Y-78150559D01*
X128405890Y-78005569D01*
X128154000Y-77954560D01*
X126354000Y-77954560D01*
X126118683Y-77998838D01*
X125902559Y-78137910D01*
X125757569Y-78350110D01*
X125706560Y-78602000D01*
X125706560Y-80402000D01*
X125750838Y-80637317D01*
X125889910Y-80853441D01*
X125986833Y-80919665D01*
X122748198Y-84158300D01*
X117375535Y-84158300D01*
X117146670Y-84063267D01*
X117059693Y-84063191D01*
X114043565Y-81047063D01*
X114127441Y-80993090D01*
X114272431Y-80780890D01*
X114276567Y-80760466D01*
X114445357Y-80929551D01*
X115009330Y-81163733D01*
X115619991Y-81164265D01*
X116184371Y-80931068D01*
X116616551Y-80499643D01*
X116850733Y-79935670D01*
X116851265Y-79325009D01*
X116618068Y-78760629D01*
X116186643Y-78328449D01*
X115622670Y-78094267D01*
X115012009Y-78093735D01*
X114447629Y-78326932D01*
X114279387Y-78494880D01*
X114279162Y-78493683D01*
X114140090Y-78277559D01*
X113927890Y-78132569D01*
X113676000Y-78081560D01*
X111876000Y-78081560D01*
X111640683Y-78125838D01*
X111424559Y-78264910D01*
X111279569Y-78477110D01*
X111228560Y-78729000D01*
X101178627Y-78729000D01*
X101265399Y-78208371D01*
X103497490Y-73992200D01*
X103499896Y-73984154D01*
X103505043Y-73977522D01*
X104505956Y-71975695D01*
X107028079Y-67940300D01*
X107030407Y-67934156D01*
X107034820Y-67929292D01*
X107690447Y-66836581D01*
X109537522Y-65913043D01*
X109617222Y-65851188D01*
X109703120Y-65798283D01*
X110685578Y-64886000D01*
X124690560Y-64886000D01*
X124690560Y-66686000D01*
X124734838Y-66921317D01*
X124873910Y-67137441D01*
X125086110Y-67282431D01*
X125338000Y-67333440D01*
X126387600Y-67333440D01*
X126367000Y-67437000D01*
X126367000Y-71350560D01*
X126227000Y-71350560D01*
X125991683Y-71394838D01*
X125775559Y-71533910D01*
X125630569Y-71746110D01*
X125579560Y-71998000D01*
X125579560Y-73798000D01*
X125623838Y-74033317D01*
X125762910Y-74249441D01*
X125975110Y-74394431D01*
X126227000Y-74445440D01*
X128027000Y-74445440D01*
X128262317Y-74401162D01*
X128478441Y-74262090D01*
X128623431Y-74049890D01*
X128627567Y-74029466D01*
X128796357Y-74198551D01*
X129360330Y-74432733D01*
X129970991Y-74433265D01*
X130535371Y-74200068D01*
X130967551Y-73768643D01*
X131201733Y-73204670D01*
X131202265Y-72594009D01*
X130969068Y-72029629D01*
X130537643Y-71597449D01*
X129973670Y-71363267D01*
X129363009Y-71362735D01*
X128798629Y-71595932D01*
X128630387Y-71763880D01*
X128630162Y-71762683D01*
X128491090Y-71546559D01*
X128278890Y-71401569D01*
X128027000Y-71350560D01*
X127887000Y-71350560D01*
X127887000Y-67751802D01*
X128363036Y-67275766D01*
X128471330Y-67320733D01*
X129081991Y-67321265D01*
X129646371Y-67088068D01*
X130078551Y-66656643D01*
X130312733Y-66092670D01*
X130313265Y-65482009D01*
X130080068Y-64917629D01*
X129648643Y-64485449D01*
X129084670Y-64251267D01*
X128474009Y-64250735D01*
X127909629Y-64483932D01*
X127741387Y-64651880D01*
X127741162Y-64650683D01*
X127602090Y-64434559D01*
X127389890Y-64289569D01*
X127138000Y-64238560D01*
X125338000Y-64238560D01*
X125102683Y-64282838D01*
X124886559Y-64421910D01*
X124741569Y-64634110D01*
X124690560Y-64886000D01*
X110685578Y-64886000D01*
X113239960Y-62514075D01*
X114295055Y-61670000D01*
X114707000Y-61670000D01*
X115256000Y-62402000D01*
X115293770Y-62435865D01*
X115321954Y-62478046D01*
X115395980Y-62527508D01*
X115462260Y-62586936D01*
X115510113Y-62603769D01*
X115552295Y-62631954D01*
X115639610Y-62649322D01*
X115723591Y-62678864D01*
X115774245Y-62676103D01*
X115824000Y-62686000D01*
X115911318Y-62668631D01*
X116000208Y-62663786D01*
X116045949Y-62641851D01*
X116095705Y-62631954D01*
X116169727Y-62582494D01*
X116250000Y-62544000D01*
X116283865Y-62506230D01*
X116326046Y-62478046D01*
X116580046Y-62224046D01*
X119100761Y-59703330D01*
X120848930Y-58204899D01*
X122027378Y-57262142D01*
X122903655Y-56911631D01*
X122914798Y-56917203D01*
X123062957Y-57213521D01*
X123132726Y-57303418D01*
X123195954Y-57398046D01*
X123217167Y-57412220D01*
X123232807Y-57432372D01*
X123331673Y-57488730D01*
X123426295Y-57551954D01*
X123451314Y-57556931D01*
X123473478Y-57569565D01*
X123586383Y-57583798D01*
X123698000Y-57606000D01*
X123723023Y-57601023D01*
X123748331Y-57604213D01*
X123858087Y-57574156D01*
X123969705Y-57551954D01*
X123990916Y-57537781D01*
X124015522Y-57531043D01*
X124105422Y-57461271D01*
X124200046Y-57398046D01*
X125957167Y-55640925D01*
X129038078Y-53034000D01*
X129170783Y-53034000D01*
X129613072Y-53181429D01*
X130242000Y-54020000D01*
X130279770Y-54053865D01*
X130307954Y-54096046D01*
X130381980Y-54145508D01*
X130448260Y-54204936D01*
X130496113Y-54221769D01*
X130538295Y-54249954D01*
X130625610Y-54267322D01*
X130709591Y-54296864D01*
X130760245Y-54294103D01*
X130810000Y-54304000D01*
X131318000Y-54304000D01*
X131369776Y-54293701D01*
X131422500Y-54296267D01*
X131504389Y-54266925D01*
X131589705Y-54249954D01*
X131633596Y-54220627D01*
X131683292Y-54202820D01*
X132911972Y-53465612D01*
X134577734Y-52751714D01*
X135536366Y-52559987D01*
X136334479Y-52959044D01*
X136426259Y-52984178D01*
X136514214Y-53020502D01*
X136558734Y-53020455D01*
X136601669Y-53032213D01*
X136696082Y-53020312D01*
X136791242Y-53020212D01*
X138061242Y-52766212D01*
X138148445Y-52729984D01*
X138239522Y-52705043D01*
X139654744Y-51997432D01*
X141566064Y-51758517D01*
X141618247Y-51741183D01*
X141673052Y-51736682D01*
X143451052Y-51228682D01*
X143548530Y-51178595D01*
X143649837Y-51136756D01*
X144232971Y-50748000D01*
X151333543Y-50748000D01*
X152947532Y-50978570D01*
X152947532Y-50978570D01*
G37*
X152947532Y-50978570D02*
X154368479Y-51689043D01*
X154460254Y-51714176D01*
X154548214Y-51750502D01*
X154592735Y-51750455D01*
X154635669Y-51762213D01*
X154730079Y-51750312D01*
X154825242Y-51750212D01*
X156026302Y-51510000D01*
X156931908Y-51510000D01*
X157739954Y-52318046D01*
X157761167Y-52332220D01*
X157776807Y-52352372D01*
X157875673Y-52408730D01*
X157970295Y-52471954D01*
X157995314Y-52476931D01*
X158017478Y-52489565D01*
X158779479Y-52743565D01*
X158892382Y-52757798D01*
X159004000Y-52780000D01*
X161231237Y-52780000D01*
X162238102Y-52947811D01*
X162379199Y-53512200D01*
X162412417Y-53582517D01*
X162432957Y-53657522D01*
X162471015Y-53706559D01*
X162497529Y-53762685D01*
X162555127Y-53814937D01*
X162602807Y-53876372D01*
X162656733Y-53907112D01*
X162702708Y-53948820D01*
X162775917Y-53975052D01*
X162843478Y-54013565D01*
X162905065Y-54021329D01*
X162963500Y-54042267D01*
X163041176Y-54038487D01*
X163118331Y-54048213D01*
X163178198Y-54031818D01*
X163240200Y-54028801D01*
X163310517Y-53995583D01*
X163385522Y-53975043D01*
X163630478Y-53852565D01*
X163882372Y-53936530D01*
X164255244Y-54495837D01*
X164269360Y-54509982D01*
X164278000Y-54528000D01*
X164366737Y-54607563D01*
X164450928Y-54691930D01*
X164469383Y-54699597D01*
X164484260Y-54712936D01*
X164596677Y-54752481D01*
X164706757Y-54798213D01*
X164726743Y-54798234D01*
X164745591Y-54804864D01*
X164864588Y-54798378D01*
X164983786Y-54798502D01*
X165002258Y-54790873D01*
X165022208Y-54789786D01*
X165129665Y-54738256D01*
X165239837Y-54692756D01*
X165253982Y-54678640D01*
X165272000Y-54670000D01*
X166098667Y-54050000D01*
X167599908Y-54050000D01*
X167781437Y-54231528D01*
X167982435Y-54834522D01*
X168029198Y-54916556D01*
X168065244Y-55003837D01*
X168097215Y-55035875D01*
X168119628Y-55075193D01*
X168194228Y-55133091D01*
X168260928Y-55199930D01*
X168302721Y-55217293D01*
X168338478Y-55245044D01*
X168429555Y-55269985D01*
X168516757Y-55306213D01*
X168562018Y-55306260D01*
X168605669Y-55318214D01*
X168699358Y-55306403D01*
X168793786Y-55306502D01*
X168835615Y-55289227D01*
X168880522Y-55283566D01*
X168962560Y-55236800D01*
X169049837Y-55200756D01*
X169811837Y-54692756D01*
X169825982Y-54678640D01*
X169844000Y-54670000D01*
X170767826Y-53977130D01*
X171958000Y-53580406D01*
X172336470Y-53706562D01*
X172772000Y-54142092D01*
X172772000Y-54805236D01*
X172527660Y-56271277D01*
X172529499Y-56330191D01*
X172518000Y-56388000D01*
X172533780Y-56467329D01*
X172536303Y-56548170D01*
X172560547Y-56601895D01*
X172572046Y-56659705D01*
X172616980Y-56726955D01*
X172650249Y-56800679D01*
X172693207Y-56841036D01*
X172725954Y-56890046D01*
X172793208Y-56934983D01*
X172852154Y-56990361D01*
X172907286Y-57011207D01*
X172956295Y-57043954D01*
X173035621Y-57059733D01*
X173111277Y-57088340D01*
X173170191Y-57086501D01*
X173228000Y-57098000D01*
X175172596Y-57098000D01*
X175984489Y-57300973D01*
X176388228Y-57570133D01*
X176582000Y-58732764D01*
X176582000Y-60381698D01*
X176373372Y-61424837D01*
X175708000Y-62312000D01*
X175658794Y-62414610D01*
X175602435Y-62513478D01*
X175599244Y-62538791D01*
X175588214Y-62561792D01*
X175582020Y-62675424D01*
X175567787Y-62788331D01*
X175574525Y-62812935D01*
X175573136Y-62838409D01*
X175610896Y-62945754D01*
X175640956Y-63055522D01*
X175656600Y-63075679D01*
X175665064Y-63099740D01*
X175741028Y-63184463D01*
X175810807Y-63274372D01*
X175832969Y-63287005D01*
X175850000Y-63306000D01*
X175952610Y-63355206D01*
X176051478Y-63411565D01*
X176765608Y-63649608D01*
X177413098Y-63973354D01*
X177575000Y-64944766D01*
X176648471Y-67261091D01*
X175144694Y-70018015D01*
X175131994Y-70058639D01*
X175108782Y-70094312D01*
X174600782Y-71364313D01*
X174576197Y-71496298D01*
X174550000Y-71628000D01*
X174550000Y-72136000D01*
X174572202Y-72247617D01*
X174586435Y-72360522D01*
X174599069Y-72382686D01*
X174604046Y-72407705D01*
X174667270Y-72502327D01*
X174723628Y-72601193D01*
X174743780Y-72616833D01*
X174757954Y-72638046D01*
X174852578Y-72701271D01*
X174942478Y-72771043D01*
X175746798Y-73173203D01*
X175789116Y-73257840D01*
X175336237Y-75748673D01*
X173330782Y-80762313D01*
X173306197Y-80894298D01*
X173280000Y-81026000D01*
X173280000Y-81534000D01*
X173302202Y-81645617D01*
X173316435Y-81758522D01*
X173329069Y-81780686D01*
X173334046Y-81805705D01*
X173397270Y-81900327D01*
X173453628Y-81999193D01*
X173473780Y-82014833D01*
X173487954Y-82036046D01*
X173582578Y-82099271D01*
X173672478Y-82169043D01*
X173968798Y-82317203D01*
X173999498Y-82378603D01*
X173579738Y-84057643D01*
X171852717Y-87018252D01*
X171838354Y-87059950D01*
X171813407Y-87096318D01*
X171051407Y-88874317D01*
X171050494Y-88878631D01*
X171048046Y-88882295D01*
X171021855Y-89013965D01*
X170994053Y-89145343D01*
X170994860Y-89149676D01*
X170994000Y-89154000D01*
X171020189Y-89285661D01*
X171044781Y-89417687D01*
X171047186Y-89421384D01*
X171048046Y-89425705D01*
X171122646Y-89537353D01*
X171195871Y-89649887D01*
X171199504Y-89652379D01*
X171201954Y-89656046D01*
X171313601Y-89730646D01*
X171424317Y-89806593D01*
X171427338Y-89807232D01*
X171502000Y-90031217D01*
X171502000Y-90786268D01*
X170797407Y-92430317D01*
X170776823Y-92527588D01*
X170745483Y-92621936D01*
X170491483Y-94653935D01*
X170494685Y-94698336D01*
X170486000Y-94742000D01*
X170486000Y-95758000D01*
X170540046Y-96029705D01*
X170693954Y-96260046D01*
X170924295Y-96413954D01*
X171196000Y-96468000D01*
X171958000Y-96468000D01*
X172056024Y-96448502D01*
X172155605Y-96439947D01*
X172190810Y-96421691D01*
X172229705Y-96413954D01*
X172312807Y-96358427D01*
X172401533Y-96312417D01*
X173671534Y-95296417D01*
X173679408Y-95287063D01*
X173690062Y-95281072D01*
X175464317Y-93760282D01*
X176404944Y-92976426D01*
X176591660Y-94096724D01*
X176611441Y-94149037D01*
X176618435Y-94204522D01*
X176659973Y-94277390D01*
X176689639Y-94355847D01*
X176727932Y-94396608D01*
X176755628Y-94445193D01*
X176821890Y-94496619D01*
X176879321Y-94557751D01*
X176930295Y-94580753D01*
X176974478Y-94615044D01*
X177055381Y-94637199D01*
X177131830Y-94671697D01*
X177187729Y-94673442D01*
X177241669Y-94688213D01*
X177324883Y-94677723D01*
X177408723Y-94680340D01*
X177461036Y-94660560D01*
X177516522Y-94653565D01*
X178278522Y-94399565D01*
X178377390Y-94343206D01*
X178480000Y-94294000D01*
X180512000Y-92770000D01*
X180575037Y-92699695D01*
X180646440Y-92637898D01*
X182397301Y-90386791D01*
X182967158Y-89816934D01*
X183749470Y-89686549D01*
X183988102Y-90163812D01*
X184477199Y-92120201D01*
X184529285Y-92230458D01*
X184576070Y-92343072D01*
X184588205Y-92355182D01*
X184595529Y-92370685D01*
X184685851Y-92452624D01*
X184772163Y-92538756D01*
X185534163Y-93046756D01*
X185568843Y-93061078D01*
X185598023Y-93084661D01*
X185695891Y-93113548D01*
X185790214Y-93152502D01*
X185827736Y-93152463D01*
X185863720Y-93163084D01*
X185965189Y-93152319D01*
X186067242Y-93152213D01*
X186101894Y-93137817D01*
X186139202Y-93133859D01*
X186228832Y-93085081D01*
X186323072Y-93045930D01*
X186349574Y-93019372D01*
X186382531Y-93001437D01*
X187906531Y-91731437D01*
X187911007Y-91725898D01*
X187917193Y-91722372D01*
X187997908Y-91618372D01*
X188080661Y-91515977D01*
X188082677Y-91509148D01*
X188087043Y-91503522D01*
X188595044Y-90487521D01*
X188608443Y-90438592D01*
X188633565Y-90394522D01*
X188794565Y-89911521D01*
X188889607Y-89864000D01*
X189062392Y-89864000D01*
X189134389Y-89899998D01*
X190062191Y-93379259D01*
X190565788Y-95897243D01*
X190575287Y-95920109D01*
X190577017Y-95944813D01*
X190628132Y-96047309D01*
X190672070Y-96153072D01*
X190689599Y-96170565D01*
X190700650Y-96192724D01*
X190787092Y-96267854D01*
X190868163Y-96348756D01*
X190891050Y-96358208D01*
X190909741Y-96374453D01*
X191018358Y-96410784D01*
X191124215Y-96454502D01*
X191148979Y-96454476D01*
X191172462Y-96462331D01*
X191286715Y-96454332D01*
X191401242Y-96454212D01*
X191424108Y-96444713D01*
X191448813Y-96442983D01*
X191551311Y-96391867D01*
X191657072Y-96347930D01*
X191674565Y-96330401D01*
X191696724Y-96319350D01*
X191771854Y-96232908D01*
X191852756Y-96151837D01*
X191862208Y-96128950D01*
X191878453Y-96110259D01*
X192866992Y-94380315D01*
X193751001Y-93275304D01*
X193969607Y-93166000D01*
X193981940Y-93166000D01*
X194100953Y-93761066D01*
X193857524Y-96195352D01*
X193863400Y-96255939D01*
X193855787Y-96316331D01*
X193876643Y-96392491D01*
X193884266Y-96471087D01*
X193912879Y-96524812D01*
X193928957Y-96583522D01*
X193977370Y-96645902D01*
X194014490Y-96715599D01*
X194061487Y-96754286D01*
X194098807Y-96802372D01*
X194167409Y-96841478D01*
X194228374Y-96891663D01*
X194286594Y-96909419D01*
X194339478Y-96939565D01*
X194417823Y-96949441D01*
X194493352Y-96972476D01*
X194553939Y-96966600D01*
X194614331Y-96974213D01*
X194690491Y-96953357D01*
X194769087Y-96945734D01*
X194822812Y-96917121D01*
X194881522Y-96901043D01*
X195827812Y-96427898D01*
X196551065Y-96247085D01*
X195725547Y-97691741D01*
X195698411Y-97772866D01*
X195659318Y-97848948D01*
X195151318Y-99626948D01*
X195143243Y-99725258D01*
X195124000Y-99822000D01*
X195131996Y-99862198D01*
X195128641Y-99903046D01*
X195158803Y-99996964D01*
X195178046Y-100093705D01*
X195200815Y-100127781D01*
X195213348Y-100166807D01*
X195277153Y-100242031D01*
X195331954Y-100324046D01*
X195585954Y-100578046D01*
X195816295Y-100731954D01*
X196088000Y-100786000D01*
X196480783Y-100786000D01*
X196974470Y-100950562D01*
X197156000Y-101132091D01*
X197156000Y-101738783D01*
X196963081Y-102317539D01*
X196241180Y-103520708D01*
X196223373Y-103570404D01*
X196194046Y-103614295D01*
X196177075Y-103699611D01*
X196147733Y-103781500D01*
X196150299Y-103834224D01*
X196140000Y-103886000D01*
X196156971Y-103971317D01*
X196161199Y-104058200D01*
X196183747Y-104105931D01*
X196194046Y-104157705D01*
X196242373Y-104230032D01*
X196279529Y-104308685D01*
X196318626Y-104344153D01*
X196347954Y-104388046D01*
X196601954Y-104642046D01*
X196832295Y-104795954D01*
X197104000Y-104850000D01*
X198206392Y-104850000D01*
X198395833Y-104944720D01*
X198680000Y-105370971D01*
X198680000Y-105703029D01*
X198358705Y-106184971D01*
X197440000Y-106874000D01*
X196424000Y-107636000D01*
X196406969Y-107654995D01*
X196384807Y-107667628D01*
X196315031Y-107757533D01*
X196239064Y-107842260D01*
X196230599Y-107866323D01*
X196214957Y-107886478D01*
X196184899Y-107996239D01*
X196147136Y-108103591D01*
X196148525Y-108129066D01*
X196141787Y-108153669D01*
X196156020Y-108266576D01*
X196162214Y-108380208D01*
X196173244Y-108403209D01*
X196176435Y-108428522D01*
X196232794Y-108527390D01*
X196282000Y-108630000D01*
X196300995Y-108647031D01*
X196313628Y-108669193D01*
X196403533Y-108738969D01*
X196488260Y-108814936D01*
X196512323Y-108823401D01*
X196532478Y-108839043D01*
X197040478Y-109093043D01*
X197793435Y-109469522D01*
X197898669Y-109785223D01*
X197694538Y-111010007D01*
X196814448Y-112550164D01*
X195916000Y-113224000D01*
X195898969Y-113242995D01*
X195876807Y-113255628D01*
X195807028Y-113345537D01*
X195731064Y-113430260D01*
X195722600Y-113454321D01*
X195706956Y-113474478D01*
X195676896Y-113584246D01*
X195639136Y-113691591D01*
X195640525Y-113717065D01*
X195633787Y-113741669D01*
X195648020Y-113854576D01*
X195654214Y-113968208D01*
X195665244Y-113991209D01*
X195668435Y-114016522D01*
X195922435Y-114778522D01*
X195960948Y-114846083D01*
X195987180Y-114919292D01*
X196028888Y-114965267D01*
X196059628Y-115019193D01*
X196121064Y-115066874D01*
X196173315Y-115124471D01*
X196229438Y-115150984D01*
X196278478Y-115189044D01*
X196353488Y-115209585D01*
X196423800Y-115242801D01*
X197439800Y-115496801D01*
X197526683Y-115501029D01*
X197612000Y-115518000D01*
X198968392Y-115518000D01*
X199122736Y-115595172D01*
X199095908Y-115622000D01*
X197358000Y-115622000D01*
X197246382Y-115644202D01*
X197133479Y-115658435D01*
X196371478Y-115912435D01*
X196327406Y-115937558D01*
X196278478Y-115950957D01*
X196208148Y-116005540D01*
X196130807Y-116049628D01*
X196099703Y-116089704D01*
X196059628Y-116120807D01*
X196015542Y-116198145D01*
X195960956Y-116268478D01*
X195947557Y-116317408D01*
X195922435Y-116361478D01*
X195453463Y-117768394D01*
X192742028Y-121219311D01*
X191563380Y-122633689D01*
X189393194Y-123839348D01*
X189324830Y-123897335D01*
X189249037Y-123945204D01*
X189220136Y-123986136D01*
X189181928Y-124018545D01*
X189140960Y-124098276D01*
X189089253Y-124171509D01*
X189078217Y-124220383D01*
X189055318Y-124264948D01*
X189047980Y-124354290D01*
X189028235Y-124441733D01*
X189036742Y-124491110D01*
X189032641Y-124541047D01*
X189060053Y-124626401D01*
X189075273Y-124714739D01*
X189102027Y-124757099D01*
X189117348Y-124804806D01*
X189175335Y-124873170D01*
X189223204Y-124948963D01*
X194485204Y-130488964D01*
X194549713Y-130534511D01*
X194605546Y-130590343D01*
X194661781Y-130613637D01*
X194711509Y-130648747D01*
X194788534Y-130666140D01*
X194861486Y-130696358D01*
X196636390Y-131049408D01*
X198023654Y-131976349D01*
X198950592Y-133363610D01*
X199290000Y-135069931D01*
X199290000Y-139930069D01*
X198569989Y-143549807D01*
X196559187Y-146559186D01*
X193549805Y-148569990D01*
X190686516Y-149139533D01*
X190702148Y-149116139D01*
X190703540Y-149109141D01*
X190735317Y-149103162D01*
X190951441Y-148964090D01*
X191096431Y-148751890D01*
X191147440Y-148500000D01*
X191147440Y-147500000D01*
X191103162Y-147264683D01*
X190964090Y-147048559D01*
X190760000Y-146909110D01*
X190760000Y-146285300D01*
X190702148Y-145994461D01*
X190537401Y-145747899D01*
X189461279Y-144671777D01*
X189474698Y-144662811D01*
X189730000Y-144280725D01*
X189985302Y-144662811D01*
X190450849Y-144973880D01*
X191000000Y-145083113D01*
X191549151Y-144973880D01*
X192014698Y-144662811D01*
X192270000Y-144280725D01*
X192525302Y-144662811D01*
X192990849Y-144973880D01*
X193540000Y-145083113D01*
X194089151Y-144973880D01*
X194554698Y-144662811D01*
X194824986Y-144258297D01*
X194927611Y-144475134D01*
X195342577Y-144851041D01*
X195730961Y-145011904D01*
X195953000Y-144889915D01*
X195953000Y-143747000D01*
X196207000Y-143747000D01*
X196207000Y-144889915D01*
X196429039Y-145011904D01*
X196817423Y-144851041D01*
X197232389Y-144475134D01*
X197471914Y-143969041D01*
X197350629Y-143747000D01*
X196207000Y-143747000D01*
X195953000Y-143747000D01*
X195933000Y-143747000D01*
X195933000Y-143493000D01*
X195953000Y-143493000D01*
X195953000Y-142350085D01*
X196207000Y-142350085D01*
X196207000Y-143493000D01*
X197350629Y-143493000D01*
X197471914Y-143270959D01*
X197232389Y-142764866D01*
X196817423Y-142388959D01*
X196429039Y-142228096D01*
X196207000Y-142350085D01*
X195953000Y-142350085D01*
X195730961Y-142228096D01*
X195342577Y-142388959D01*
X194927611Y-142764866D01*
X194824986Y-142981703D01*
X194554698Y-142577189D01*
X194089151Y-142266120D01*
X193540000Y-142156887D01*
X192990849Y-142266120D01*
X192525302Y-142577189D01*
X192270000Y-142959275D01*
X192014698Y-142577189D01*
X191549151Y-142266120D01*
X191000000Y-142156887D01*
X190450849Y-142266120D01*
X189985302Y-142577189D01*
X189730000Y-142959275D01*
X189474698Y-142577189D01*
X189009151Y-142266120D01*
X188460000Y-142156887D01*
X187950000Y-142258332D01*
X187950000Y-137325236D01*
X188110961Y-137391904D01*
X188333000Y-137269915D01*
X188333000Y-136127000D01*
X188313000Y-136127000D01*
X188313000Y-135873000D01*
X188333000Y-135873000D01*
X188333000Y-134730085D01*
X188587000Y-134730085D01*
X188587000Y-135873000D01*
X188607000Y-135873000D01*
X188607000Y-136127000D01*
X188587000Y-136127000D01*
X188587000Y-137269915D01*
X188809039Y-137391904D01*
X189197423Y-137231041D01*
X189612389Y-136855134D01*
X189715014Y-136638297D01*
X189985302Y-137042811D01*
X190450849Y-137353880D01*
X191000000Y-137463113D01*
X191549151Y-137353880D01*
X192014698Y-137042811D01*
X192270000Y-136660725D01*
X192525302Y-137042811D01*
X192990849Y-137353880D01*
X193540000Y-137463113D01*
X194089151Y-137353880D01*
X194554698Y-137042811D01*
X194810000Y-136660725D01*
X195065302Y-137042811D01*
X195530849Y-137353880D01*
X196080000Y-137463113D01*
X196629151Y-137353880D01*
X197094698Y-137042811D01*
X197405767Y-136577264D01*
X197515000Y-136028113D01*
X197515000Y-135971887D01*
X197405767Y-135422736D01*
X197094698Y-134957189D01*
X196629151Y-134646120D01*
X196080000Y-134536887D01*
X195530849Y-134646120D01*
X195065302Y-134957189D01*
X194810000Y-135339275D01*
X194554698Y-134957189D01*
X194089151Y-134646120D01*
X193540000Y-134536887D01*
X192990849Y-134646120D01*
X192525302Y-134957189D01*
X192270000Y-135339275D01*
X192014698Y-134957189D01*
X191549151Y-134646120D01*
X191000000Y-134536887D01*
X190450849Y-134646120D01*
X189985302Y-134957189D01*
X189715014Y-135361703D01*
X189612389Y-135144866D01*
X189197423Y-134768959D01*
X188809039Y-134608096D01*
X188587000Y-134730085D01*
X188333000Y-134730085D01*
X188110961Y-134608096D01*
X187722577Y-134768959D01*
X187539083Y-134935181D01*
X183833902Y-131230000D01*
X186208560Y-131230000D01*
X186208560Y-132930000D01*
X186252838Y-133165317D01*
X186391910Y-133381441D01*
X186604110Y-133526431D01*
X186856000Y-133577440D01*
X188556000Y-133577440D01*
X188791317Y-133533162D01*
X189007441Y-133394090D01*
X189152431Y-133181890D01*
X189174301Y-133073893D01*
X189479076Y-133351645D01*
X189889110Y-133521476D01*
X190119000Y-133400155D01*
X190119000Y-132207000D01*
X190373000Y-132207000D01*
X190373000Y-133400155D01*
X190602890Y-133521476D01*
X191012924Y-133351645D01*
X191441183Y-132961358D01*
X191687486Y-132436892D01*
X191566819Y-132207000D01*
X190373000Y-132207000D01*
X190119000Y-132207000D01*
X190099000Y-132207000D01*
X190099000Y-131953000D01*
X190119000Y-131953000D01*
X190119000Y-130759845D01*
X190373000Y-130759845D01*
X190373000Y-131953000D01*
X191566819Y-131953000D01*
X191687486Y-131723108D01*
X191441183Y-131198642D01*
X191012924Y-130808355D01*
X190602890Y-130638524D01*
X190373000Y-130759845D01*
X190119000Y-130759845D01*
X189889110Y-130638524D01*
X189479076Y-130808355D01*
X189176063Y-131084501D01*
X189159162Y-130994683D01*
X189020090Y-130778559D01*
X188807890Y-130633569D01*
X188556000Y-130582560D01*
X186856000Y-130582560D01*
X186620683Y-130626838D01*
X186404559Y-130765910D01*
X186259569Y-130978110D01*
X186208560Y-131230000D01*
X183833902Y-131230000D01*
X153033000Y-100429098D01*
X153033000Y-96289440D01*
X153173000Y-96289440D01*
X153408317Y-96245162D01*
X153624441Y-96106090D01*
X153769431Y-95893890D01*
X153773567Y-95873466D01*
X153942357Y-96042551D01*
X154506330Y-96276733D01*
X155116991Y-96277265D01*
X155681371Y-96044068D01*
X156113551Y-95612643D01*
X156347733Y-95048670D01*
X156348265Y-94438009D01*
X156115068Y-93873629D01*
X155683643Y-93441449D01*
X155119670Y-93207267D01*
X154961273Y-93207129D01*
X158114181Y-90054221D01*
X158164991Y-90054265D01*
X158729371Y-89821068D01*
X159161551Y-89389643D01*
X159395733Y-88825670D01*
X159396265Y-88215009D01*
X159163068Y-87650629D01*
X158731643Y-87218449D01*
X158167670Y-86984267D01*
X157557009Y-86983735D01*
X156992629Y-87216932D01*
X156824387Y-87384880D01*
X156824162Y-87383683D01*
X156685090Y-87167559D01*
X156588167Y-87101335D01*
X160620642Y-83068860D01*
X161085991Y-83069265D01*
X161650371Y-82836068D01*
X162082551Y-82404643D01*
X162316733Y-81840670D01*
X162317265Y-81230009D01*
X162084068Y-80665629D01*
X161652643Y-80233449D01*
X161088670Y-79999267D01*
X160478009Y-79998735D01*
X159913629Y-80231932D01*
X159745387Y-80399880D01*
X159745162Y-80398683D01*
X159606090Y-80182559D01*
X159393890Y-80037569D01*
X159142000Y-79986560D01*
X157342000Y-79986560D01*
X157106683Y-80030838D01*
X156890559Y-80169910D01*
X156745569Y-80382110D01*
X156694560Y-80634000D01*
X156694560Y-82434000D01*
X156738838Y-82669317D01*
X156877910Y-82885441D01*
X157090110Y-83030431D01*
X157342000Y-83081440D01*
X158458458Y-83081440D01*
X154783599Y-86756299D01*
X154639767Y-86971560D01*
X154421000Y-86971560D01*
X154185683Y-87015838D01*
X153969559Y-87154910D01*
X153824569Y-87367110D01*
X153773560Y-87619000D01*
X153773560Y-89419000D01*
X153817838Y-89654317D01*
X153956910Y-89870441D01*
X154169110Y-90015431D01*
X154421000Y-90066440D01*
X155952358Y-90066440D01*
X153267498Y-92751300D01*
X151184900Y-92751300D01*
X150894060Y-92809152D01*
X150647499Y-92973899D01*
X146986479Y-96634919D01*
X146247780Y-95896278D01*
X146125134Y-95814336D01*
X146001239Y-95731552D01*
X146001224Y-95731549D01*
X146001212Y-95731541D01*
X145860031Y-95703464D01*
X145710400Y-95673700D01*
X145266202Y-95673700D01*
X143936285Y-94343783D01*
X144124371Y-94266068D01*
X144556551Y-93834643D01*
X144790733Y-93270670D01*
X144791265Y-92660009D01*
X144558068Y-92095629D01*
X144126643Y-91663449D01*
X143562670Y-91429267D01*
X142952009Y-91428735D01*
X142387629Y-91661932D01*
X142219387Y-91829880D01*
X142219162Y-91828683D01*
X142080090Y-91612559D01*
X142038900Y-91584415D01*
X142038900Y-85367440D01*
X142251000Y-85367440D01*
X142486317Y-85323162D01*
X142702441Y-85184090D01*
X142847431Y-84971890D01*
X142851567Y-84951466D01*
X143020357Y-85120551D01*
X143584330Y-85354733D01*
X144194991Y-85355265D01*
X144759371Y-85122068D01*
X145191551Y-84690643D01*
X145425733Y-84126670D01*
X145426265Y-83516009D01*
X145193068Y-82951629D01*
X144761643Y-82519449D01*
X144197670Y-82285267D01*
X143587009Y-82284735D01*
X143022629Y-82517932D01*
X142854387Y-82685880D01*
X142854162Y-82684683D01*
X142715090Y-82468559D01*
X142502890Y-82323569D01*
X142251000Y-82272560D01*
X142111000Y-82272560D01*
X142111000Y-79689802D01*
X144619036Y-77181766D01*
X144727330Y-77226733D01*
X145337991Y-77227265D01*
X145902371Y-76994068D01*
X146334551Y-76562643D01*
X146568733Y-75998670D01*
X146569265Y-75388009D01*
X146336068Y-74823629D01*
X145904643Y-74391449D01*
X145340670Y-74157267D01*
X144730009Y-74156735D01*
X144165629Y-74389932D01*
X143997387Y-74557880D01*
X143997162Y-74556683D01*
X143858090Y-74340559D01*
X143645890Y-74195569D01*
X143394000Y-74144560D01*
X143254000Y-74144560D01*
X143254000Y-73395000D01*
X159361560Y-73395000D01*
X159361560Y-75195000D01*
X159405838Y-75430317D01*
X159544910Y-75646441D01*
X159757110Y-75791431D01*
X160009000Y-75842440D01*
X161809000Y-75842440D01*
X162044317Y-75798162D01*
X162260441Y-75659090D01*
X162405431Y-75446890D01*
X162409567Y-75426466D01*
X162578357Y-75595551D01*
X163142330Y-75829733D01*
X163752991Y-75830265D01*
X164317371Y-75597068D01*
X164749551Y-75165643D01*
X164983733Y-74601670D01*
X164984265Y-73991009D01*
X164751068Y-73426629D01*
X164319643Y-72994449D01*
X163755670Y-72760267D01*
X163145009Y-72759735D01*
X162580629Y-72992932D01*
X162412387Y-73160880D01*
X162412162Y-73159683D01*
X162273090Y-72943559D01*
X162176167Y-72877335D01*
X165891401Y-69162101D01*
X166056148Y-68915540D01*
X166114000Y-68624700D01*
X166114000Y-67513846D01*
X166222371Y-67469068D01*
X166654551Y-67037643D01*
X166888733Y-66473670D01*
X166889265Y-65863009D01*
X166656068Y-65298629D01*
X166224643Y-64866449D01*
X165660670Y-64632267D01*
X165050009Y-64631735D01*
X164485629Y-64864932D01*
X164317387Y-65032880D01*
X164317162Y-65031683D01*
X164178090Y-64815559D01*
X163965890Y-64670569D01*
X163714000Y-64619560D01*
X161914000Y-64619560D01*
X161678683Y-64663838D01*
X161462559Y-64802910D01*
X161317569Y-65015110D01*
X161266560Y-65267000D01*
X161266560Y-67067000D01*
X161310838Y-67302317D01*
X161449910Y-67518441D01*
X161662110Y-67663431D01*
X161914000Y-67714440D01*
X163714000Y-67714440D01*
X163949317Y-67670162D01*
X164165441Y-67531090D01*
X164310431Y-67318890D01*
X164314567Y-67298466D01*
X164483357Y-67467551D01*
X164594000Y-67513494D01*
X164594000Y-68309898D01*
X160371599Y-72532299D01*
X160227767Y-72747560D01*
X160009000Y-72747560D01*
X159773683Y-72791838D01*
X159557559Y-72930910D01*
X159412569Y-73143110D01*
X159361560Y-73395000D01*
X143254000Y-73395000D01*
X143254000Y-69739102D01*
X143666401Y-69326701D01*
X143810233Y-69111440D01*
X144029000Y-69111440D01*
X144264317Y-69067162D01*
X144480441Y-68928090D01*
X144625431Y-68715890D01*
X144629567Y-68695466D01*
X144798357Y-68864551D01*
X145362330Y-69098733D01*
X145972991Y-69099265D01*
X146537371Y-68866068D01*
X146969551Y-68434643D01*
X147203733Y-67870670D01*
X147204265Y-67260009D01*
X146971068Y-66695629D01*
X146539643Y-66263449D01*
X145975670Y-66029267D01*
X145365009Y-66028735D01*
X144800629Y-66261932D01*
X144632387Y-66429880D01*
X144632162Y-66428683D01*
X144493090Y-66212559D01*
X144396167Y-66146335D01*
X146206401Y-64336101D01*
X146371148Y-64089540D01*
X146381724Y-64036372D01*
X146429000Y-63798700D01*
X146429000Y-60147846D01*
X146537371Y-60103068D01*
X146969551Y-59671643D01*
X147203733Y-59107670D01*
X147204265Y-58497009D01*
X146971068Y-57932629D01*
X146539643Y-57500449D01*
X145975670Y-57266267D01*
X145365009Y-57265735D01*
X144800629Y-57498932D01*
X144632387Y-57666880D01*
X144632162Y-57665683D01*
X144493090Y-57449559D01*
X144280890Y-57304569D01*
X144029000Y-57253560D01*
X142229000Y-57253560D01*
X141993683Y-57297838D01*
X141777559Y-57436910D01*
X141632569Y-57649110D01*
X141581560Y-57901000D01*
X141581560Y-59701000D01*
X141625838Y-59936317D01*
X141764910Y-60152441D01*
X141977110Y-60297431D01*
X142229000Y-60348440D01*
X144029000Y-60348440D01*
X144264317Y-60304162D01*
X144480441Y-60165090D01*
X144625431Y-59952890D01*
X144629567Y-59932466D01*
X144798357Y-60101551D01*
X144909000Y-60147494D01*
X144909000Y-63483898D01*
X142591599Y-65801299D01*
X142447767Y-66016560D01*
X142229000Y-66016560D01*
X141993683Y-66060838D01*
X141777559Y-66199910D01*
X141632569Y-66412110D01*
X141581560Y-66664000D01*
X141581560Y-68464000D01*
X141625838Y-68699317D01*
X141764910Y-68915441D01*
X141883422Y-68996417D01*
X141791852Y-69133461D01*
X141734000Y-69424300D01*
X141734000Y-74144560D01*
X141594000Y-74144560D01*
X141358683Y-74188838D01*
X141142559Y-74327910D01*
X140997569Y-74540110D01*
X140946560Y-74792000D01*
X140946560Y-76592000D01*
X140990838Y-76827317D01*
X141129910Y-77043441D01*
X141342110Y-77188431D01*
X141594000Y-77239440D01*
X142411758Y-77239440D01*
X140813599Y-78837599D01*
X140648852Y-79084161D01*
X140591000Y-79375000D01*
X140591000Y-82272560D01*
X140451000Y-82272560D01*
X140215683Y-82316838D01*
X139999559Y-82455910D01*
X139854569Y-82668110D01*
X139803560Y-82920000D01*
X139803560Y-84720000D01*
X139847838Y-84955317D01*
X139986910Y-85171441D01*
X140199110Y-85316431D01*
X140451000Y-85367440D01*
X140518900Y-85367440D01*
X140518900Y-91416560D01*
X139816000Y-91416560D01*
X139580683Y-91460838D01*
X139364559Y-91599910D01*
X139219569Y-91812110D01*
X139168560Y-92064000D01*
X139168560Y-93864000D01*
X139212838Y-94099317D01*
X139351910Y-94315441D01*
X139564110Y-94460431D01*
X139816000Y-94511440D01*
X141616000Y-94511440D01*
X141851317Y-94467162D01*
X141887060Y-94444162D01*
X144413999Y-96971101D01*
X144660560Y-97135848D01*
X144951400Y-97193700D01*
X145395615Y-97193700D01*
X146449098Y-98247100D01*
X182845171Y-134643271D01*
X182830849Y-134646120D01*
X182486865Y-134875963D01*
X181948201Y-134337299D01*
X181701639Y-134172552D01*
X181410800Y-134114700D01*
X174112189Y-134114700D01*
X174232542Y-133994557D01*
X174634542Y-133026433D01*
X174635457Y-131978166D01*
X174235147Y-131009342D01*
X173494557Y-130267458D01*
X172526433Y-129865458D01*
X171478166Y-129864543D01*
X170509342Y-130264853D01*
X169767458Y-131005443D01*
X169365458Y-131973567D01*
X169364543Y-133021834D01*
X169764853Y-133990658D01*
X169888679Y-134114700D01*
X120112189Y-134114700D01*
X120232542Y-133994557D01*
X120634542Y-133026433D01*
X120635457Y-131978166D01*
X120235147Y-131009342D01*
X119494557Y-130267458D01*
X118526433Y-129865458D01*
X117478166Y-129864543D01*
X116509342Y-130264853D01*
X115767458Y-131005443D01*
X115365458Y-131973567D01*
X115364543Y-133021834D01*
X115764853Y-133990658D01*
X115888679Y-134114700D01*
X113893148Y-134114700D01*
X114042811Y-134014698D01*
X114353880Y-133549151D01*
X114463113Y-133000000D01*
X114353880Y-132450849D01*
X114042811Y-131985302D01*
X113577264Y-131674233D01*
X113028113Y-131565000D01*
X112971887Y-131565000D01*
X112422736Y-131674233D01*
X111957189Y-131985302D01*
X111646120Y-132450849D01*
X111536887Y-133000000D01*
X111646120Y-133549151D01*
X111957189Y-134014698D01*
X112106852Y-134114700D01*
X110933300Y-134114700D01*
X110642461Y-134172552D01*
X110395899Y-134337299D01*
X108447558Y-136285640D01*
X108108285Y-136058946D01*
X107540000Y-135945907D01*
X106971715Y-136058946D01*
X106489946Y-136380853D01*
X106270000Y-136710026D01*
X106050054Y-136380853D01*
X105568285Y-136058946D01*
X105000000Y-135945907D01*
X104431715Y-136058946D01*
X103949946Y-136380853D01*
X103730000Y-136710026D01*
X103510054Y-136380853D01*
X103028285Y-136058946D01*
X102460000Y-135945907D01*
X101891715Y-136058946D01*
X101409946Y-136380853D01*
X101088039Y-136862622D01*
X100975000Y-137430907D01*
X100975000Y-137489093D01*
X101088039Y-138057378D01*
X101409946Y-138539147D01*
X101411179Y-138539971D01*
X101374683Y-138546838D01*
X101158559Y-138685910D01*
X101013569Y-138898110D01*
X100962560Y-139150000D01*
X100962560Y-140850000D01*
X101006838Y-141085317D01*
X101145910Y-141301441D01*
X101358110Y-141446431D01*
X101610000Y-141497440D01*
X103310000Y-141497440D01*
X103545317Y-141453162D01*
X103761441Y-141314090D01*
X103906431Y-141101890D01*
X103920086Y-141034459D01*
X103949946Y-141079147D01*
X104431715Y-141401054D01*
X105000000Y-141514093D01*
X105568285Y-141401054D01*
X106050054Y-141079147D01*
X106270000Y-140749974D01*
X106489946Y-141079147D01*
X106971715Y-141401054D01*
X107540000Y-141514093D01*
X108108285Y-141401054D01*
X108590054Y-141079147D01*
X108810000Y-140749974D01*
X109029946Y-141079147D01*
X109511715Y-141401054D01*
X110080000Y-141514093D01*
X110648285Y-141401054D01*
X111130054Y-141079147D01*
X111350000Y-140749974D01*
X111569946Y-141079147D01*
X112051715Y-141401054D01*
X112620000Y-141514093D01*
X113188285Y-141401054D01*
X113670054Y-141079147D01*
X113883301Y-140760000D01*
X119195198Y-140760000D01*
X127725198Y-149290000D01*
X110069931Y-149290000D01*
X106450193Y-148569989D01*
X103440814Y-146559187D01*
X102747678Y-145521834D01*
X115364543Y-145521834D01*
X115764853Y-146490658D01*
X116505443Y-147232542D01*
X117473567Y-147634542D01*
X118521834Y-147635457D01*
X119490658Y-147235147D01*
X120232542Y-146494557D01*
X120634542Y-145526433D01*
X120635457Y-144478166D01*
X120235147Y-143509342D01*
X119494557Y-142767458D01*
X118526433Y-142365458D01*
X117478166Y-142364543D01*
X116509342Y-142764853D01*
X115767458Y-143505443D01*
X115365458Y-144473567D01*
X115364543Y-145521834D01*
X102747678Y-145521834D01*
X101430010Y-143549805D01*
X100710000Y-139930069D01*
X100710000Y-135069931D01*
X101049408Y-133363610D01*
X101102476Y-133284187D01*
X103944752Y-133284187D01*
X104162757Y-133811800D01*
X104566077Y-134215824D01*
X105093309Y-134434750D01*
X105664187Y-134435248D01*
X106191800Y-134217243D01*
X106595824Y-133813923D01*
X106618215Y-133760000D01*
X107750000Y-133760000D01*
X108040839Y-133702148D01*
X108287401Y-133537401D01*
X112314991Y-129509811D01*
X112314752Y-129784187D01*
X112532757Y-130311800D01*
X112936077Y-130715824D01*
X113463309Y-130934750D01*
X114034187Y-130935248D01*
X114561800Y-130717243D01*
X114965824Y-130313923D01*
X115184750Y-129786691D01*
X115185248Y-129215813D01*
X114967243Y-128688200D01*
X114563923Y-128284176D01*
X114482069Y-128250187D01*
X114561800Y-128217243D01*
X114965824Y-127813923D01*
X115184750Y-127286691D01*
X115185248Y-126715813D01*
X114967243Y-126188200D01*
X114563923Y-125784176D01*
X114036691Y-125565250D01*
X113465813Y-125564752D01*
X112938200Y-125782757D01*
X112534176Y-126186077D01*
X112315250Y-126713309D01*
X112314752Y-127284187D01*
X112337049Y-127338149D01*
X107435198Y-132240000D01*
X106618646Y-132240000D01*
X106597243Y-132188200D01*
X106193923Y-131784176D01*
X105666691Y-131565250D01*
X105095813Y-131564752D01*
X104568200Y-131782757D01*
X104164176Y-132186077D01*
X103945250Y-132713309D01*
X103944752Y-133284187D01*
X101102476Y-133284187D01*
X101976349Y-131976346D01*
X103363610Y-131049408D01*
X105138514Y-130696358D01*
X105162432Y-130686451D01*
X105188246Y-130684589D01*
X105289650Y-130633755D01*
X105394454Y-130590343D01*
X105412756Y-130572041D01*
X105435898Y-130560440D01*
X115497898Y-122734440D01*
X115519141Y-122709894D01*
X115546726Y-122692787D01*
X115609159Y-122605883D01*
X115679188Y-122524968D01*
X115689421Y-122494163D01*
X115708360Y-122467800D01*
X115732784Y-122363617D01*
X115766517Y-122262065D01*
X115764182Y-122229689D01*
X115771591Y-122198085D01*
X115754286Y-122092479D01*
X115746589Y-121985754D01*
X115732044Y-121956739D01*
X115726794Y-121924702D01*
X115010000Y-120013251D01*
X115010000Y-119126000D01*
X114955954Y-118854295D01*
X114802046Y-118623954D01*
X114802043Y-118623952D01*
X114294046Y-118115954D01*
X114236206Y-118077307D01*
X114187072Y-118028070D01*
X114122155Y-118001101D01*
X114063705Y-117962046D01*
X113995480Y-117948475D01*
X113931242Y-117921788D01*
X112949624Y-117725464D01*
X112682666Y-117325028D01*
X112202212Y-114922758D01*
X112175525Y-114858520D01*
X112161954Y-114790295D01*
X112122899Y-114731845D01*
X112095930Y-114666928D01*
X112046693Y-114617794D01*
X112008046Y-114559954D01*
X111949596Y-114520899D01*
X111899837Y-114471244D01*
X111835541Y-114444690D01*
X111777705Y-114406046D01*
X111708762Y-114392332D01*
X111643786Y-114365498D01*
X111574224Y-114365571D01*
X111506000Y-114352000D01*
X110736382Y-114352000D01*
X110943084Y-112078280D01*
X110939651Y-112045919D01*
X110946000Y-112014000D01*
X110925139Y-111909125D01*
X110913859Y-111802798D01*
X110898303Y-111774214D01*
X110891954Y-111742295D01*
X110832552Y-111653393D01*
X110781437Y-111559469D01*
X110756124Y-111539011D01*
X110738045Y-111511955D01*
X110649142Y-111452552D01*
X110565976Y-111385339D01*
X110534764Y-111376127D01*
X110507705Y-111358046D01*
X110402831Y-111337185D01*
X110300280Y-111306916D01*
X110267919Y-111310349D01*
X110236000Y-111304000D01*
X110131125Y-111324861D01*
X110024798Y-111336141D01*
X109996213Y-111351697D01*
X109964295Y-111358046D01*
X109875396Y-111417446D01*
X109781469Y-111468562D01*
X109761011Y-111493876D01*
X109733954Y-111511955D01*
X109261632Y-111984276D01*
X108914000Y-112245000D01*
X108914000Y-109753329D01*
X109166196Y-106222585D01*
X109162998Y-106197145D01*
X109168000Y-106172000D01*
X109168000Y-105410000D01*
X109113954Y-105138295D01*
X108960046Y-104907954D01*
X108960043Y-104907952D01*
X108604053Y-104551961D01*
X108406000Y-103561698D01*
X108406000Y-102108000D01*
X108351954Y-101836295D01*
X108198046Y-101605954D01*
X107967705Y-101452046D01*
X107696000Y-101398000D01*
X107424295Y-101452046D01*
X107193954Y-101605954D01*
X107193952Y-101605957D01*
X106804470Y-101995438D01*
X106480478Y-102103435D01*
X106120000Y-101923196D01*
X106120000Y-101362887D01*
X106373196Y-96045771D01*
X106366904Y-96003790D01*
X106372214Y-95961669D01*
X106346540Y-95867917D01*
X106332135Y-95771803D01*
X106310258Y-95735427D01*
X106299044Y-95694478D01*
X106239451Y-95617693D01*
X106189358Y-95534402D01*
X106155220Y-95509163D01*
X106129193Y-95475628D01*
X106044755Y-95427494D01*
X105966598Y-95369712D01*
X105925404Y-95359459D01*
X105888522Y-95338435D01*
X105126522Y-95084435D01*
X105071037Y-95077441D01*
X105018724Y-95057660D01*
X104088000Y-94902539D01*
X104088000Y-91048000D01*
X113895560Y-91048000D01*
X113895560Y-92848000D01*
X113939838Y-93083317D01*
X114078910Y-93299441D01*
X114291110Y-93444431D01*
X114543000Y-93495440D01*
X114761767Y-93495440D01*
X114905599Y-93710701D01*
X115152161Y-93875448D01*
X115443000Y-93933300D01*
X115591498Y-93933300D01*
X117900758Y-96242560D01*
X117083000Y-96242560D01*
X116847683Y-96286838D01*
X116631559Y-96425910D01*
X116486569Y-96638110D01*
X116435560Y-96890000D01*
X116435560Y-98690000D01*
X116479838Y-98925317D01*
X116618910Y-99141441D01*
X116831110Y-99286431D01*
X117083000Y-99337440D01*
X117301767Y-99337440D01*
X117445599Y-99552701D01*
X117558912Y-99628414D01*
X119255435Y-101324937D01*
X119171559Y-101378910D01*
X119026569Y-101591110D01*
X118975560Y-101843000D01*
X118975560Y-103643000D01*
X119019838Y-103878317D01*
X119158910Y-104094441D01*
X119371110Y-104239431D01*
X119623000Y-104290440D01*
X121423000Y-104290440D01*
X121658317Y-104246162D01*
X121874441Y-104107090D01*
X122019431Y-103894890D01*
X122023567Y-103874466D01*
X122192357Y-104043551D01*
X122756330Y-104277733D01*
X123366991Y-104278265D01*
X123931371Y-104045068D01*
X124363551Y-103613643D01*
X124597733Y-103049670D01*
X124598265Y-102439009D01*
X124365068Y-101874629D01*
X123933643Y-101442449D01*
X123823000Y-101396506D01*
X123823000Y-98463108D01*
X124026101Y-98327401D01*
X127867937Y-94485565D01*
X127921910Y-94569441D01*
X128134110Y-94714431D01*
X128386000Y-94765440D01*
X130186000Y-94765440D01*
X130421317Y-94721162D01*
X130637441Y-94582090D01*
X130782431Y-94369890D01*
X130786567Y-94349466D01*
X130955357Y-94518551D01*
X131519330Y-94752733D01*
X132129991Y-94753265D01*
X132694371Y-94520068D01*
X133126551Y-94088643D01*
X133360733Y-93524670D01*
X133361265Y-92914009D01*
X133128068Y-92349629D01*
X132696643Y-91917449D01*
X132132670Y-91683267D01*
X131522009Y-91682735D01*
X130957629Y-91915932D01*
X130789387Y-92083880D01*
X130789162Y-92082683D01*
X130650090Y-91866559D01*
X130437890Y-91721569D01*
X130186000Y-91670560D01*
X128386000Y-91670560D01*
X128150683Y-91714838D01*
X127934559Y-91853910D01*
X127789569Y-92066110D01*
X127738560Y-92318000D01*
X127738560Y-92536766D01*
X127523299Y-92680599D01*
X123173898Y-97030000D01*
X121869846Y-97030000D01*
X121825068Y-96921629D01*
X121393643Y-96489449D01*
X120829670Y-96255267D01*
X120219009Y-96254735D01*
X120108287Y-96300485D01*
X116926548Y-93118746D01*
X116939431Y-93099890D01*
X116943567Y-93079466D01*
X117112357Y-93248551D01*
X117676330Y-93482733D01*
X118286991Y-93483265D01*
X118851371Y-93250068D01*
X119283551Y-92818643D01*
X119517733Y-92254670D01*
X119518265Y-91644009D01*
X119285068Y-91079629D01*
X118853643Y-90647449D01*
X118289670Y-90413267D01*
X117679009Y-90412735D01*
X117114629Y-90645932D01*
X116946387Y-90813880D01*
X116946162Y-90812683D01*
X116807090Y-90596559D01*
X116594890Y-90451569D01*
X116343000Y-90400560D01*
X114543000Y-90400560D01*
X114307683Y-90444838D01*
X114091559Y-90583910D01*
X113946569Y-90796110D01*
X113895560Y-91048000D01*
X104088000Y-91048000D01*
X104088000Y-89974763D01*
X104332340Y-88508723D01*
X104329723Y-88424890D01*
X104340214Y-88341669D01*
X104325442Y-88287726D01*
X104323697Y-88231830D01*
X104289199Y-88155381D01*
X104267044Y-88074478D01*
X104232754Y-88030296D01*
X104209751Y-87979320D01*
X104148618Y-87921888D01*
X104097193Y-87855628D01*
X104048606Y-87827931D01*
X104007846Y-87789639D01*
X103929392Y-87759974D01*
X103856522Y-87718435D01*
X103373521Y-87557435D01*
X102572871Y-85956134D01*
X102817019Y-81317316D01*
X102814306Y-81298573D01*
X102818000Y-81280000D01*
X102794551Y-81162113D01*
X102777328Y-81043146D01*
X102767648Y-81026868D01*
X102763954Y-81008295D01*
X102697180Y-80908360D01*
X102635739Y-80805034D01*
X102620566Y-80793699D01*
X102610046Y-80777954D01*
X102510108Y-80711178D01*
X102413806Y-80639233D01*
X102395451Y-80634567D01*
X102379705Y-80624046D01*
X102261820Y-80600597D01*
X102145317Y-80570981D01*
X102126573Y-80573694D01*
X102108000Y-80570000D01*
X101854000Y-80570000D01*
X101742382Y-80592202D01*
X101629479Y-80606435D01*
X101224280Y-80741501D01*
X101048402Y-79510354D01*
X101178627Y-78729000D01*
X111228560Y-78729000D01*
X111228560Y-80529000D01*
X111272838Y-80764317D01*
X111411910Y-80980441D01*
X111624110Y-81125431D01*
X111876000Y-81176440D01*
X112094767Y-81176440D01*
X112238599Y-81391701D01*
X114897458Y-84050560D01*
X113400000Y-84050560D01*
X113164683Y-84094838D01*
X112948559Y-84233910D01*
X112803569Y-84446110D01*
X112752560Y-84698000D01*
X112752560Y-86498000D01*
X112796838Y-86733317D01*
X112935910Y-86949441D01*
X113148110Y-87094431D01*
X113400000Y-87145440D01*
X115200000Y-87145440D01*
X115435317Y-87101162D01*
X115651441Y-86962090D01*
X115796431Y-86749890D01*
X115800567Y-86729466D01*
X115969357Y-86898551D01*
X116533330Y-87132733D01*
X117143991Y-87133265D01*
X117708371Y-86900068D01*
X118140551Y-86468643D01*
X118374733Y-85904670D01*
X118374930Y-85678300D01*
X123063000Y-85678300D01*
X123353839Y-85620448D01*
X123600401Y-85455701D01*
X126914194Y-82141908D01*
X128568806Y-83796560D01*
X127751000Y-83796560D01*
X127515683Y-83840838D01*
X127299559Y-83979910D01*
X127154569Y-84192110D01*
X127103560Y-84444000D01*
X127103560Y-86244000D01*
X127147838Y-86479317D01*
X127286910Y-86695441D01*
X127499110Y-86840431D01*
X127751000Y-86891440D01*
X129551000Y-86891440D01*
X129786317Y-86847162D01*
X130002441Y-86708090D01*
X130147431Y-86495890D01*
X130151567Y-86475466D01*
X130320357Y-86644551D01*
X130884330Y-86878733D01*
X131494991Y-86879265D01*
X132059371Y-86646068D01*
X132491551Y-86214643D01*
X132725733Y-85650670D01*
X132726265Y-85040009D01*
X132493068Y-84475629D01*
X132061643Y-84043449D01*
X131497670Y-83809267D01*
X130887009Y-83808735D01*
X130776302Y-83854478D01*
X127971330Y-81049440D01*
X128154000Y-81049440D01*
X128389317Y-81005162D01*
X128605441Y-80866090D01*
X128750431Y-80653890D01*
X128754567Y-80633466D01*
X128923357Y-80802551D01*
X129487330Y-81036733D01*
X130097991Y-81037265D01*
X130662371Y-80804068D01*
X131094551Y-80372643D01*
X131328733Y-79808670D01*
X131329265Y-79198009D01*
X131096068Y-78633629D01*
X130664643Y-78201449D01*
X130100670Y-77967267D01*
X129490009Y-77966735D01*
X128925629Y-78199932D01*
X128757387Y-78367880D01*
X128757162Y-78366683D01*
X128618090Y-78150559D01*
X128405890Y-78005569D01*
X128154000Y-77954560D01*
X126354000Y-77954560D01*
X126118683Y-77998838D01*
X125902559Y-78137910D01*
X125757569Y-78350110D01*
X125706560Y-78602000D01*
X125706560Y-80402000D01*
X125750838Y-80637317D01*
X125889910Y-80853441D01*
X125986833Y-80919665D01*
X122748198Y-84158300D01*
X117375535Y-84158300D01*
X117146670Y-84063267D01*
X117059693Y-84063191D01*
X114043565Y-81047063D01*
X114127441Y-80993090D01*
X114272431Y-80780890D01*
X114276567Y-80760466D01*
X114445357Y-80929551D01*
X115009330Y-81163733D01*
X115619991Y-81164265D01*
X116184371Y-80931068D01*
X116616551Y-80499643D01*
X116850733Y-79935670D01*
X116851265Y-79325009D01*
X116618068Y-78760629D01*
X116186643Y-78328449D01*
X115622670Y-78094267D01*
X115012009Y-78093735D01*
X114447629Y-78326932D01*
X114279387Y-78494880D01*
X114279162Y-78493683D01*
X114140090Y-78277559D01*
X113927890Y-78132569D01*
X113676000Y-78081560D01*
X111876000Y-78081560D01*
X111640683Y-78125838D01*
X111424559Y-78264910D01*
X111279569Y-78477110D01*
X111228560Y-78729000D01*
X101178627Y-78729000D01*
X101265399Y-78208371D01*
X103497490Y-73992200D01*
X103499896Y-73984154D01*
X103505043Y-73977522D01*
X104505956Y-71975695D01*
X107028079Y-67940300D01*
X107030407Y-67934156D01*
X107034820Y-67929292D01*
X107690447Y-66836581D01*
X109537522Y-65913043D01*
X109617222Y-65851188D01*
X109703120Y-65798283D01*
X110685578Y-64886000D01*
X124690560Y-64886000D01*
X124690560Y-66686000D01*
X124734838Y-66921317D01*
X124873910Y-67137441D01*
X125086110Y-67282431D01*
X125338000Y-67333440D01*
X126387600Y-67333440D01*
X126367000Y-67437000D01*
X126367000Y-71350560D01*
X126227000Y-71350560D01*
X125991683Y-71394838D01*
X125775559Y-71533910D01*
X125630569Y-71746110D01*
X125579560Y-71998000D01*
X125579560Y-73798000D01*
X125623838Y-74033317D01*
X125762910Y-74249441D01*
X125975110Y-74394431D01*
X126227000Y-74445440D01*
X128027000Y-74445440D01*
X128262317Y-74401162D01*
X128478441Y-74262090D01*
X128623431Y-74049890D01*
X128627567Y-74029466D01*
X128796357Y-74198551D01*
X129360330Y-74432733D01*
X129970991Y-74433265D01*
X130535371Y-74200068D01*
X130967551Y-73768643D01*
X131201733Y-73204670D01*
X131202265Y-72594009D01*
X130969068Y-72029629D01*
X130537643Y-71597449D01*
X129973670Y-71363267D01*
X129363009Y-71362735D01*
X128798629Y-71595932D01*
X128630387Y-71763880D01*
X128630162Y-71762683D01*
X128491090Y-71546559D01*
X128278890Y-71401569D01*
X128027000Y-71350560D01*
X127887000Y-71350560D01*
X127887000Y-67751802D01*
X128363036Y-67275766D01*
X128471330Y-67320733D01*
X129081991Y-67321265D01*
X129646371Y-67088068D01*
X130078551Y-66656643D01*
X130312733Y-66092670D01*
X130313265Y-65482009D01*
X130080068Y-64917629D01*
X129648643Y-64485449D01*
X129084670Y-64251267D01*
X128474009Y-64250735D01*
X127909629Y-64483932D01*
X127741387Y-64651880D01*
X127741162Y-64650683D01*
X127602090Y-64434559D01*
X127389890Y-64289569D01*
X127138000Y-64238560D01*
X125338000Y-64238560D01*
X125102683Y-64282838D01*
X124886559Y-64421910D01*
X124741569Y-64634110D01*
X124690560Y-64886000D01*
X110685578Y-64886000D01*
X113239960Y-62514075D01*
X114295055Y-61670000D01*
X114707000Y-61670000D01*
X115256000Y-62402000D01*
X115293770Y-62435865D01*
X115321954Y-62478046D01*
X115395980Y-62527508D01*
X115462260Y-62586936D01*
X115510113Y-62603769D01*
X115552295Y-62631954D01*
X115639610Y-62649322D01*
X115723591Y-62678864D01*
X115774245Y-62676103D01*
X115824000Y-62686000D01*
X115911318Y-62668631D01*
X116000208Y-62663786D01*
X116045949Y-62641851D01*
X116095705Y-62631954D01*
X116169727Y-62582494D01*
X116250000Y-62544000D01*
X116283865Y-62506230D01*
X116326046Y-62478046D01*
X116580046Y-62224046D01*
X119100761Y-59703330D01*
X120848930Y-58204899D01*
X122027378Y-57262142D01*
X122903655Y-56911631D01*
X122914798Y-56917203D01*
X123062957Y-57213521D01*
X123132726Y-57303418D01*
X123195954Y-57398046D01*
X123217167Y-57412220D01*
X123232807Y-57432372D01*
X123331673Y-57488730D01*
X123426295Y-57551954D01*
X123451314Y-57556931D01*
X123473478Y-57569565D01*
X123586383Y-57583798D01*
X123698000Y-57606000D01*
X123723023Y-57601023D01*
X123748331Y-57604213D01*
X123858087Y-57574156D01*
X123969705Y-57551954D01*
X123990916Y-57537781D01*
X124015522Y-57531043D01*
X124105422Y-57461271D01*
X124200046Y-57398046D01*
X125957167Y-55640925D01*
X129038078Y-53034000D01*
X129170783Y-53034000D01*
X129613072Y-53181429D01*
X130242000Y-54020000D01*
X130279770Y-54053865D01*
X130307954Y-54096046D01*
X130381980Y-54145508D01*
X130448260Y-54204936D01*
X130496113Y-54221769D01*
X130538295Y-54249954D01*
X130625610Y-54267322D01*
X130709591Y-54296864D01*
X130760245Y-54294103D01*
X130810000Y-54304000D01*
X131318000Y-54304000D01*
X131369776Y-54293701D01*
X131422500Y-54296267D01*
X131504389Y-54266925D01*
X131589705Y-54249954D01*
X131633596Y-54220627D01*
X131683292Y-54202820D01*
X132911972Y-53465612D01*
X134577734Y-52751714D01*
X135536366Y-52559987D01*
X136334479Y-52959044D01*
X136426259Y-52984178D01*
X136514214Y-53020502D01*
X136558734Y-53020455D01*
X136601669Y-53032213D01*
X136696082Y-53020312D01*
X136791242Y-53020212D01*
X138061242Y-52766212D01*
X138148445Y-52729984D01*
X138239522Y-52705043D01*
X139654744Y-51997432D01*
X141566064Y-51758517D01*
X141618247Y-51741183D01*
X141673052Y-51736682D01*
X143451052Y-51228682D01*
X143548530Y-51178595D01*
X143649837Y-51136756D01*
X144232971Y-50748000D01*
X151333543Y-50748000D01*
X152947532Y-50978570D01*
M02*
