G04 #@! TF.FileFunction,Soldermask,Bot*
%FSLAX46Y46*%
G04 Gerber Fmt 4.6, Leading zero omitted, Abs format (unit mm)*
G04 Created by KiCad (PCBNEW 4.0.6) date 11/09/17 22:15:05*
%MOMM*%
%LPD*%
G01*
G04 APERTURE LIST*
%ADD10C,0.100000*%
%ADD11C,0.750000*%
%ADD12C,0.010000*%
%ADD13C,4.000000*%
%ADD14R,1.800000X1.800000*%
%ADD15C,1.800000*%
%ADD16C,1.600000*%
%ADD17O,1.600000X1.600000*%
%ADD18C,1.500000*%
%ADD19R,1.600000X1.600000*%
%ADD20R,1.700000X1.700000*%
%ADD21O,1.700000X1.700000*%
G04 APERTURE END LIST*
D10*
D11*
X166359572Y-123579143D02*
X166359572Y-124293429D01*
X167073858Y-124007714D02*
X166359572Y-124293429D01*
X165645286Y-124007714D01*
X166788143Y-124864857D02*
X166359572Y-124293429D01*
X165931000Y-124864857D01*
X163216715Y-126579143D02*
X163216715Y-123579143D01*
X163216715Y-126436286D02*
X163502429Y-126579143D01*
X164073858Y-126579143D01*
X164359572Y-126436286D01*
X164502429Y-126293429D01*
X164645286Y-126007714D01*
X164645286Y-125150571D01*
X164502429Y-124864857D01*
X164359572Y-124722000D01*
X164073858Y-124579143D01*
X163502429Y-124579143D01*
X163216715Y-124722000D01*
X160502429Y-126579143D02*
X160502429Y-125007714D01*
X160645286Y-124722000D01*
X160931000Y-124579143D01*
X161502429Y-124579143D01*
X161788143Y-124722000D01*
X160502429Y-126436286D02*
X160788143Y-126579143D01*
X161502429Y-126579143D01*
X161788143Y-126436286D01*
X161931000Y-126150571D01*
X161931000Y-125864857D01*
X161788143Y-125579143D01*
X161502429Y-125436286D01*
X160788143Y-125436286D01*
X160502429Y-125293429D01*
X159073857Y-126579143D02*
X159073857Y-123579143D01*
X159073857Y-124722000D02*
X158788143Y-124579143D01*
X158216714Y-124579143D01*
X157931000Y-124722000D01*
X157788143Y-124864857D01*
X157645286Y-125150571D01*
X157645286Y-126007714D01*
X157788143Y-126293429D01*
X157931000Y-126436286D01*
X158216714Y-126579143D01*
X158788143Y-126579143D01*
X159073857Y-126436286D01*
X156502428Y-126436286D02*
X156216714Y-126579143D01*
X155645286Y-126579143D01*
X155359571Y-126436286D01*
X155216714Y-126150571D01*
X155216714Y-126007714D01*
X155359571Y-125722000D01*
X155645286Y-125579143D01*
X156073857Y-125579143D01*
X156359571Y-125436286D01*
X156502428Y-125150571D01*
X156502428Y-125007714D01*
X156359571Y-124722000D01*
X156073857Y-124579143D01*
X155645286Y-124579143D01*
X155359571Y-124722000D01*
X151645286Y-126579143D02*
X151645286Y-124579143D01*
X151645286Y-123579143D02*
X151788143Y-123722000D01*
X151645286Y-123864857D01*
X151502429Y-123722000D01*
X151645286Y-123579143D01*
X151645286Y-123864857D01*
X150216715Y-124579143D02*
X150216715Y-126579143D01*
X150216715Y-124864857D02*
X150073858Y-124722000D01*
X149788144Y-124579143D01*
X149359572Y-124579143D01*
X149073858Y-124722000D01*
X148931001Y-125007714D01*
X148931001Y-126579143D01*
X145216715Y-126579143D02*
X145216715Y-124579143D01*
X145216715Y-125150571D02*
X145073858Y-124864857D01*
X144931001Y-124722000D01*
X144645287Y-124579143D01*
X144359572Y-124579143D01*
X142216715Y-126436286D02*
X142502429Y-126579143D01*
X143073858Y-126579143D01*
X143359572Y-126436286D01*
X143502429Y-126150571D01*
X143502429Y-125007714D01*
X143359572Y-124722000D01*
X143073858Y-124579143D01*
X142502429Y-124579143D01*
X142216715Y-124722000D01*
X142073858Y-125007714D01*
X142073858Y-125293429D01*
X143502429Y-125579143D01*
X139502429Y-126579143D02*
X139502429Y-125007714D01*
X139645286Y-124722000D01*
X139931000Y-124579143D01*
X140502429Y-124579143D01*
X140788143Y-124722000D01*
X139502429Y-126436286D02*
X139788143Y-126579143D01*
X140502429Y-126579143D01*
X140788143Y-126436286D01*
X140931000Y-126150571D01*
X140931000Y-125864857D01*
X140788143Y-125579143D01*
X140502429Y-125436286D01*
X139788143Y-125436286D01*
X139502429Y-125293429D01*
X137645286Y-126579143D02*
X137931000Y-126436286D01*
X138073857Y-126150571D01*
X138073857Y-123579143D01*
X133788143Y-126579143D02*
X134073857Y-126436286D01*
X134216714Y-126150571D01*
X134216714Y-123579143D01*
X132645285Y-126579143D02*
X132645285Y-124579143D01*
X132645285Y-123579143D02*
X132788142Y-123722000D01*
X132645285Y-123864857D01*
X132502428Y-123722000D01*
X132645285Y-123579143D01*
X132645285Y-123864857D01*
X131645286Y-124579143D02*
X130502429Y-124579143D01*
X131216714Y-126579143D02*
X131216714Y-124007714D01*
X131073857Y-123722000D01*
X130788143Y-123579143D01*
X130502429Y-123579143D01*
X128359571Y-126436286D02*
X128645285Y-126579143D01*
X129216714Y-126579143D01*
X129502428Y-126436286D01*
X129645285Y-126150571D01*
X129645285Y-125007714D01*
X129502428Y-124722000D01*
X129216714Y-124579143D01*
X128645285Y-124579143D01*
X128359571Y-124722000D01*
X128216714Y-125007714D01*
X128216714Y-125293429D01*
X129645285Y-125579143D01*
X126502428Y-123579143D02*
X126502428Y-124293429D01*
X127216714Y-124007714D02*
X126502428Y-124293429D01*
X125788142Y-124007714D01*
X126930999Y-124864857D02*
X126502428Y-124293429D01*
X126073856Y-124864857D01*
D12*
G36*
X142657476Y-108599921D02*
X142565698Y-108607468D01*
X142488871Y-108619599D01*
X142473807Y-108623116D01*
X142377216Y-108654087D01*
X142271300Y-108699133D01*
X142164430Y-108754111D01*
X142064982Y-108814877D01*
X142015956Y-108849661D01*
X141894909Y-108951671D01*
X141773468Y-109074196D01*
X141655534Y-109212719D01*
X141545010Y-109362720D01*
X141464299Y-109488366D01*
X141422679Y-109568089D01*
X141402093Y-109633872D01*
X141402503Y-109685953D01*
X141423867Y-109724568D01*
X141424124Y-109724825D01*
X141438961Y-109731923D01*
X141476226Y-109746682D01*
X141534316Y-109768533D01*
X141611628Y-109796905D01*
X141706562Y-109831225D01*
X141817516Y-109870923D01*
X141942887Y-109915429D01*
X142081074Y-109964171D01*
X142230474Y-110016578D01*
X142389487Y-110072080D01*
X142556509Y-110130105D01*
X142715666Y-110185157D01*
X142887629Y-110244607D01*
X143052385Y-110301747D01*
X143208401Y-110356034D01*
X143354142Y-110406928D01*
X143488075Y-110453885D01*
X143608665Y-110496364D01*
X143714379Y-110533824D01*
X143803684Y-110565722D01*
X143875044Y-110591518D01*
X143926927Y-110610669D01*
X143957798Y-110622633D01*
X143966235Y-110626856D01*
X143951239Y-110626246D01*
X143912659Y-110623499D01*
X143852209Y-110618761D01*
X143771604Y-110612179D01*
X143672556Y-110603899D01*
X143556779Y-110594066D01*
X143425988Y-110582827D01*
X143281895Y-110570328D01*
X143126215Y-110556716D01*
X142960662Y-110542136D01*
X142786948Y-110526735D01*
X142663990Y-110515774D01*
X142484796Y-110499811D01*
X142311986Y-110484508D01*
X142147334Y-110470017D01*
X141992618Y-110456489D01*
X141849613Y-110444077D01*
X141720094Y-110432934D01*
X141605839Y-110423212D01*
X141508623Y-110415062D01*
X141430222Y-110408638D01*
X141372412Y-110404091D01*
X141336968Y-110401575D01*
X141326764Y-110401100D01*
X141273517Y-110406109D01*
X141238655Y-110423134D01*
X141216815Y-110455174D01*
X141213204Y-110464597D01*
X141208647Y-110483557D01*
X141200014Y-110525311D01*
X141187720Y-110587657D01*
X141172184Y-110668388D01*
X141153821Y-110765302D01*
X141133050Y-110876193D01*
X141110285Y-110998857D01*
X141085945Y-111131089D01*
X141060446Y-111270686D01*
X141051676Y-111318940D01*
X140903616Y-112134650D01*
X140727258Y-112689242D01*
X140690946Y-112804428D01*
X140657154Y-112913539D01*
X140626663Y-113013914D01*
X140600255Y-113102892D01*
X140578710Y-113177813D01*
X140562808Y-113236017D01*
X140553331Y-113274843D01*
X140550900Y-113290152D01*
X140554718Y-113329033D01*
X140563996Y-113360850D01*
X140564859Y-113362551D01*
X140581849Y-113377863D01*
X140619269Y-113401301D01*
X140674045Y-113431361D01*
X140743105Y-113466537D01*
X140823374Y-113505323D01*
X140911781Y-113546214D01*
X141005251Y-113587704D01*
X141100712Y-113628289D01*
X141141450Y-113645023D01*
X141206356Y-113671402D01*
X141265116Y-113695315D01*
X141312653Y-113714693D01*
X141343892Y-113727469D01*
X141351000Y-113730397D01*
X141370172Y-113739241D01*
X141371009Y-113745793D01*
X141351183Y-113754354D01*
X141335005Y-113759972D01*
X141254213Y-113800515D01*
X141188713Y-113860224D01*
X141140025Y-113936922D01*
X141109669Y-114028430D01*
X141100417Y-114095877D01*
X141103830Y-114222554D01*
X141131709Y-114342608D01*
X141183884Y-114455610D01*
X141260188Y-114561129D01*
X141299128Y-114602851D01*
X141399650Y-114688563D01*
X141508840Y-114751972D01*
X141631024Y-114795373D01*
X141684962Y-114807737D01*
X141785096Y-114824962D01*
X141908456Y-114841743D01*
X142052868Y-114857875D01*
X142216160Y-114873150D01*
X142396159Y-114887361D01*
X142590691Y-114900301D01*
X142754350Y-114909548D01*
X142814969Y-114911925D01*
X142898069Y-114913994D01*
X143000734Y-114915756D01*
X143120046Y-114917212D01*
X143253088Y-114918364D01*
X143396945Y-114919214D01*
X143548698Y-114919762D01*
X143705432Y-114920010D01*
X143864229Y-114919959D01*
X144022173Y-114919611D01*
X144176346Y-114918968D01*
X144323832Y-114918030D01*
X144461714Y-114916799D01*
X144587075Y-114915276D01*
X144696998Y-114913463D01*
X144788566Y-114911362D01*
X144858863Y-114908972D01*
X144868454Y-114908539D01*
X144950669Y-114904144D01*
X145035154Y-114898758D01*
X145113782Y-114892953D01*
X145178425Y-114887306D01*
X145198654Y-114885208D01*
X145289468Y-114873484D01*
X145357812Y-114860100D01*
X145406612Y-114843433D01*
X145438798Y-114821863D01*
X145457299Y-114793768D01*
X145465044Y-114757526D01*
X145465800Y-114737315D01*
X145461652Y-114684446D01*
X145445948Y-114649305D01*
X145413801Y-114625114D01*
X145373507Y-114609266D01*
X145356974Y-114604563D01*
X145336873Y-114600533D01*
X145311111Y-114597108D01*
X145277594Y-114594215D01*
X145234228Y-114591784D01*
X145178920Y-114589745D01*
X145109576Y-114588026D01*
X145024102Y-114586556D01*
X144920404Y-114585266D01*
X144796390Y-114584084D01*
X144649965Y-114582939D01*
X144579975Y-114582443D01*
X143852900Y-114577408D01*
X143852900Y-114540929D01*
X143844059Y-114463748D01*
X143820261Y-114383819D01*
X143788616Y-114319858D01*
X143768059Y-114286801D01*
X143754506Y-114263774D01*
X143751300Y-114257158D01*
X143763484Y-114256387D01*
X143797979Y-114256051D01*
X143851701Y-114256133D01*
X143921563Y-114256615D01*
X144004483Y-114257481D01*
X144097374Y-114258714D01*
X144136939Y-114259310D01*
X144246009Y-114260964D01*
X144332531Y-114262048D01*
X144399356Y-114262420D01*
X144449332Y-114261934D01*
X144485309Y-114260448D01*
X144510136Y-114257819D01*
X144526662Y-114253902D01*
X144537737Y-114248555D01*
X144546210Y-114241633D01*
X144549366Y-114238534D01*
X144571407Y-114208859D01*
X144578642Y-114191587D01*
X143163733Y-114191587D01*
X143160373Y-114203043D01*
X143148414Y-114229362D01*
X143141508Y-114243226D01*
X143125266Y-114293345D01*
X143117078Y-114358181D01*
X143117168Y-114428289D01*
X143125760Y-114494224D01*
X143134787Y-114527003D01*
X143153274Y-114579400D01*
X142896662Y-114579364D01*
X142796320Y-114578866D01*
X142683915Y-114577515D01*
X142569689Y-114575482D01*
X142463882Y-114572939D01*
X142403797Y-114571071D01*
X142167543Y-114562814D01*
X142173626Y-114446524D01*
X142171708Y-114334578D01*
X142152244Y-114232811D01*
X142113344Y-114135322D01*
X142053115Y-114036213D01*
X142033347Y-114008939D01*
X142010504Y-113976064D01*
X141998485Y-113953938D01*
X141999640Y-113946968D01*
X142000439Y-113947223D01*
X142018204Y-113952490D01*
X142056347Y-113962822D01*
X142110609Y-113977096D01*
X142176731Y-113994191D01*
X142246937Y-114012097D01*
X142448153Y-114060135D01*
X142656294Y-114104392D01*
X142860554Y-114142678D01*
X143014700Y-114167654D01*
X143072285Y-114176366D01*
X143119703Y-114183808D01*
X143151887Y-114189167D01*
X143163733Y-114191587D01*
X144578642Y-114191587D01*
X144582303Y-114182848D01*
X144586374Y-114158668D01*
X144593037Y-114113076D01*
X144601881Y-114049291D01*
X144612498Y-113970530D01*
X144624476Y-113880010D01*
X144637406Y-113780950D01*
X144650877Y-113676566D01*
X144664480Y-113570077D01*
X144677805Y-113464701D01*
X144690441Y-113363654D01*
X144691348Y-113356302D01*
X143948593Y-113356302D01*
X143931822Y-113417373D01*
X143895345Y-113474610D01*
X143841705Y-113523340D01*
X143808450Y-113543468D01*
X143752758Y-113561222D01*
X143693747Y-113556692D01*
X143640665Y-113536699D01*
X143581043Y-113496256D01*
X143537455Y-113442937D01*
X143512602Y-113381838D01*
X143509188Y-113318058D01*
X143513383Y-113296700D01*
X143540531Y-113235647D01*
X143584310Y-113182834D01*
X143638881Y-113143146D01*
X143698405Y-113121474D01*
X143725802Y-113118900D01*
X143788901Y-113130822D01*
X143848482Y-113163630D01*
X143899099Y-113212880D01*
X143935302Y-113274130D01*
X143943113Y-113296071D01*
X143948593Y-113356302D01*
X144691348Y-113356302D01*
X144701979Y-113270156D01*
X144712007Y-113187422D01*
X144720118Y-113118672D01*
X144725020Y-113074960D01*
X142870756Y-113074960D01*
X142867308Y-113142007D01*
X142838612Y-113210159D01*
X142832098Y-113220439D01*
X142793907Y-113261595D01*
X142742486Y-113295769D01*
X142687614Y-113317394D01*
X142653585Y-113322089D01*
X142618853Y-113316478D01*
X142576736Y-113302415D01*
X142562928Y-113296253D01*
X142520936Y-113268405D01*
X142483185Y-113231458D01*
X142475854Y-113221803D01*
X142441823Y-113154825D01*
X142433097Y-113089145D01*
X142449588Y-113025429D01*
X142491209Y-112964342D01*
X142512559Y-112942909D01*
X142575153Y-112899166D01*
X142639569Y-112880528D01*
X142704021Y-112886957D01*
X142766722Y-112918417D01*
X142802429Y-112948961D01*
X142849086Y-113010214D01*
X142870756Y-113074960D01*
X144725020Y-113074960D01*
X144725899Y-113067123D01*
X144728942Y-113035992D01*
X144729310Y-113029252D01*
X144722825Y-112983561D01*
X144700974Y-112952115D01*
X144659768Y-112930485D01*
X144633225Y-112922616D01*
X144611570Y-112917519D01*
X144567015Y-112907400D01*
X144501471Y-112892682D01*
X144416846Y-112873789D01*
X144315050Y-112851145D01*
X144283204Y-112844079D01*
X141823893Y-112844079D01*
X141818619Y-112905471D01*
X141793808Y-112965242D01*
X141751633Y-113018263D01*
X141694270Y-113059403D01*
X141690910Y-113061123D01*
X141629115Y-113084335D01*
X141573619Y-113086010D01*
X141517140Y-113065713D01*
X141489090Y-113049050D01*
X141432910Y-112999387D01*
X141398080Y-112940546D01*
X141384420Y-112876828D01*
X141391750Y-112812532D01*
X141419889Y-112751956D01*
X141468657Y-112699402D01*
X141504764Y-112675159D01*
X141570417Y-112651467D01*
X141636927Y-112651323D01*
X141700447Y-112673315D01*
X141757125Y-112716031D01*
X141803114Y-112778060D01*
X141807454Y-112786194D01*
X141823893Y-112844079D01*
X144283204Y-112844079D01*
X144197994Y-112825173D01*
X144067586Y-112796298D01*
X143925737Y-112764943D01*
X143774356Y-112731531D01*
X143615352Y-112696488D01*
X143479867Y-112666666D01*
X143318371Y-112631041D01*
X143164621Y-112596934D01*
X143020340Y-112564739D01*
X142887248Y-112534847D01*
X142767066Y-112507653D01*
X142661514Y-112483549D01*
X142572313Y-112462927D01*
X142501185Y-112446180D01*
X142449849Y-112433701D01*
X142420026Y-112425883D01*
X142413067Y-112423146D01*
X142428973Y-112423724D01*
X142468344Y-112426437D01*
X142529347Y-112431130D01*
X142610150Y-112437646D01*
X142708922Y-112445833D01*
X142823829Y-112455536D01*
X142953041Y-112466598D01*
X143094725Y-112478867D01*
X143247048Y-112492187D01*
X143408179Y-112506403D01*
X143576286Y-112521361D01*
X143578637Y-112521571D01*
X143746668Y-112536569D01*
X143907630Y-112550902D01*
X144059706Y-112564412D01*
X144201074Y-112576937D01*
X144329917Y-112588317D01*
X144444413Y-112598393D01*
X144542745Y-112607004D01*
X144623092Y-112613990D01*
X144683635Y-112619192D01*
X144722555Y-112622448D01*
X144738032Y-112623599D01*
X144738089Y-112623600D01*
X144758490Y-112615219D01*
X144784499Y-112594805D01*
X144786928Y-112592427D01*
X144818100Y-112561254D01*
X144818150Y-112417363D01*
X142361492Y-112417363D01*
X142349009Y-112419397D01*
X142332537Y-112417062D01*
X142332340Y-112412727D01*
X142349338Y-112409695D01*
X142356682Y-112411724D01*
X142361492Y-112417363D01*
X144818150Y-112417363D01*
X144818327Y-111910493D01*
X143661161Y-111910493D01*
X143656099Y-111977545D01*
X143626473Y-112039038D01*
X143590509Y-112079974D01*
X143528441Y-112125549D01*
X143464936Y-112145769D01*
X143399908Y-112140641D01*
X143333270Y-112110174D01*
X143325850Y-112105284D01*
X143276007Y-112059787D01*
X143240761Y-112003875D01*
X143223674Y-111944499D01*
X143224096Y-111906636D01*
X143247259Y-111834513D01*
X143249409Y-111831652D01*
X142568614Y-111831652D01*
X142558272Y-111876919D01*
X142550544Y-111896759D01*
X142511828Y-111962666D01*
X142456699Y-112010629D01*
X142424150Y-112028096D01*
X142375838Y-112046445D01*
X142335810Y-112049400D01*
X142292140Y-112036956D01*
X142271750Y-112028022D01*
X142203717Y-111985177D01*
X142156754Y-111930958D01*
X142131910Y-111868198D01*
X142130233Y-111799729D01*
X142152772Y-111728385D01*
X142157450Y-111719205D01*
X142176007Y-111676919D01*
X142187442Y-111636551D01*
X142189200Y-111620434D01*
X142191079Y-111594315D01*
X142199863Y-111588509D01*
X142213766Y-111594453D01*
X142239140Y-111601416D01*
X142280154Y-111606182D01*
X142319229Y-111607600D01*
X142400616Y-111618131D01*
X142468223Y-111649130D01*
X142520508Y-111699703D01*
X142542970Y-111737169D01*
X142563685Y-111788700D01*
X142568614Y-111831652D01*
X143249409Y-111831652D01*
X143291976Y-111775022D01*
X143337541Y-111740870D01*
X143376025Y-111720926D01*
X143411317Y-111710721D01*
X143452294Y-111709025D01*
X143507833Y-111714608D01*
X143517503Y-111715932D01*
X143565391Y-111719021D01*
X143600667Y-111714305D01*
X143606913Y-111711708D01*
X143623167Y-111705323D01*
X143628601Y-111713915D01*
X143626599Y-111741908D01*
X143628221Y-111782360D01*
X143638654Y-111827393D01*
X143641963Y-111836436D01*
X143661161Y-111910493D01*
X144818327Y-111910493D01*
X144818403Y-111693902D01*
X144818644Y-111526725D01*
X144819229Y-111372056D01*
X144820082Y-111240108D01*
X144235855Y-111240108D01*
X144230562Y-111277400D01*
X144202840Y-111345388D01*
X144158781Y-111395932D01*
X144097256Y-111429712D01*
X144017136Y-111447410D01*
X143943328Y-111450526D01*
X143832952Y-111448850D01*
X143837958Y-111414329D01*
X143835901Y-111383704D01*
X143825315Y-111341237D01*
X143814035Y-111310012D01*
X143798017Y-111268020D01*
X143792012Y-111238103D01*
X143794915Y-111209497D01*
X143801270Y-111185782D01*
X143825487Y-111135350D01*
X143848512Y-111106460D01*
X143137456Y-111106460D01*
X143134008Y-111173507D01*
X143105312Y-111241659D01*
X143098798Y-111251939D01*
X143060607Y-111293095D01*
X143009186Y-111327269D01*
X142954314Y-111348894D01*
X142920285Y-111353589D01*
X142886031Y-111347994D01*
X142843693Y-111333896D01*
X142827372Y-111326661D01*
X142770083Y-111286587D01*
X142728270Y-111232273D01*
X142704558Y-111169415D01*
X142701576Y-111103709D01*
X142709110Y-111070244D01*
X142733095Y-111026086D01*
X142745623Y-111011871D01*
X142066647Y-111011871D01*
X142063280Y-111079556D01*
X142035325Y-111146185D01*
X142028643Y-111156400D01*
X142017696Y-111184805D01*
X142011755Y-111224543D01*
X142011400Y-111236068D01*
X142010711Y-111269677D01*
X142006120Y-111282446D01*
X141993846Y-111278934D01*
X141982044Y-111271450D01*
X141943662Y-111258144D01*
X141884998Y-111254053D01*
X141877269Y-111254197D01*
X141806844Y-111249327D01*
X141750210Y-111228153D01*
X141699201Y-111187142D01*
X141683779Y-111170445D01*
X141644058Y-111108418D01*
X141628283Y-111042801D01*
X141636039Y-110977192D01*
X141666908Y-110915188D01*
X141719578Y-110861078D01*
X141783213Y-110825700D01*
X141849511Y-110814868D01*
X141915636Y-110828334D01*
X141978751Y-110865847D01*
X142000901Y-110885900D01*
X142045746Y-110946271D01*
X142066647Y-111011871D01*
X142745623Y-111011871D01*
X142772431Y-110981455D01*
X142819368Y-110943351D01*
X142866156Y-110918776D01*
X142881435Y-110914596D01*
X142948847Y-110914435D01*
X143014099Y-110938285D01*
X143069129Y-110980461D01*
X143115786Y-111041714D01*
X143137456Y-111106460D01*
X143848512Y-111106460D01*
X143864480Y-111086425D01*
X143911361Y-111045764D01*
X143959241Y-111020124D01*
X143974306Y-111016070D01*
X144039426Y-111015389D01*
X144101168Y-111035254D01*
X144155608Y-111071662D01*
X144198819Y-111120608D01*
X144226876Y-111178091D01*
X144235855Y-111240108D01*
X144820082Y-111240108D01*
X144820138Y-111231513D01*
X144821347Y-111106712D01*
X144822834Y-110999272D01*
X144824577Y-110910809D01*
X144826554Y-110842941D01*
X144828743Y-110797285D01*
X144831047Y-110775750D01*
X144842212Y-110718766D01*
X144853165Y-110643355D01*
X144863216Y-110556484D01*
X144871676Y-110465121D01*
X144877853Y-110376234D01*
X144881059Y-110296790D01*
X144881353Y-110267827D01*
X144871302Y-110061997D01*
X144842061Y-109871376D01*
X144820571Y-109793361D01*
X144143966Y-109793361D01*
X144129258Y-109867277D01*
X144097074Y-109928734D01*
X144039252Y-109995893D01*
X143972289Y-110041851D01*
X143899145Y-110065457D01*
X143822778Y-110065565D01*
X143775555Y-110053486D01*
X143704719Y-110016608D01*
X143646134Y-109963445D01*
X143603184Y-109898880D01*
X143579251Y-109827799D01*
X143576384Y-109765955D01*
X143595861Y-109689450D01*
X143636761Y-109618927D01*
X143695106Y-109560574D01*
X143718890Y-109544185D01*
X143792131Y-109512741D01*
X143868627Y-109504352D01*
X143943900Y-109517881D01*
X144013470Y-109552190D01*
X144072857Y-109606142D01*
X144097472Y-109640353D01*
X144133371Y-109717819D01*
X144143966Y-109793361D01*
X144820571Y-109793361D01*
X144793861Y-109696404D01*
X144726931Y-109537522D01*
X144641503Y-109395171D01*
X144630432Y-109381784D01*
X143026243Y-109381784D01*
X143025796Y-109445759D01*
X143004424Y-109507085D01*
X142963093Y-109561951D01*
X142902774Y-109606544D01*
X142868650Y-109622664D01*
X142813221Y-109632354D01*
X142751703Y-109622337D01*
X142700603Y-109599038D01*
X142647270Y-109554225D01*
X142609859Y-109498002D01*
X142590960Y-109436268D01*
X142593159Y-109374918D01*
X142596674Y-109362234D01*
X142630416Y-109292860D01*
X142678163Y-109241244D01*
X142735875Y-109208507D01*
X142799514Y-109195772D01*
X142865042Y-109204162D01*
X142928421Y-109234798D01*
X142960486Y-109261138D01*
X143004796Y-109318973D01*
X143026243Y-109381784D01*
X144630432Y-109381784D01*
X144537807Y-109269793D01*
X144416075Y-109161827D01*
X144276536Y-109071716D01*
X144247319Y-109056286D01*
X144209758Y-109039169D01*
X144151392Y-109015202D01*
X144075516Y-108985560D01*
X143985426Y-108951414D01*
X143884416Y-108913940D01*
X143775782Y-108874310D01*
X143662819Y-108833699D01*
X143548821Y-108793279D01*
X143437083Y-108754224D01*
X143330901Y-108717708D01*
X143233569Y-108684904D01*
X143148383Y-108656986D01*
X143078638Y-108635127D01*
X143027628Y-108620501D01*
X143014700Y-108617283D01*
X142942819Y-108605637D01*
X142854007Y-108598919D01*
X142756236Y-108597042D01*
X142657476Y-108599921D01*
X142657476Y-108599921D01*
G37*
X142657476Y-108599921D02*
X142565698Y-108607468D01*
X142488871Y-108619599D01*
X142473807Y-108623116D01*
X142377216Y-108654087D01*
X142271300Y-108699133D01*
X142164430Y-108754111D01*
X142064982Y-108814877D01*
X142015956Y-108849661D01*
X141894909Y-108951671D01*
X141773468Y-109074196D01*
X141655534Y-109212719D01*
X141545010Y-109362720D01*
X141464299Y-109488366D01*
X141422679Y-109568089D01*
X141402093Y-109633872D01*
X141402503Y-109685953D01*
X141423867Y-109724568D01*
X141424124Y-109724825D01*
X141438961Y-109731923D01*
X141476226Y-109746682D01*
X141534316Y-109768533D01*
X141611628Y-109796905D01*
X141706562Y-109831225D01*
X141817516Y-109870923D01*
X141942887Y-109915429D01*
X142081074Y-109964171D01*
X142230474Y-110016578D01*
X142389487Y-110072080D01*
X142556509Y-110130105D01*
X142715666Y-110185157D01*
X142887629Y-110244607D01*
X143052385Y-110301747D01*
X143208401Y-110356034D01*
X143354142Y-110406928D01*
X143488075Y-110453885D01*
X143608665Y-110496364D01*
X143714379Y-110533824D01*
X143803684Y-110565722D01*
X143875044Y-110591518D01*
X143926927Y-110610669D01*
X143957798Y-110622633D01*
X143966235Y-110626856D01*
X143951239Y-110626246D01*
X143912659Y-110623499D01*
X143852209Y-110618761D01*
X143771604Y-110612179D01*
X143672556Y-110603899D01*
X143556779Y-110594066D01*
X143425988Y-110582827D01*
X143281895Y-110570328D01*
X143126215Y-110556716D01*
X142960662Y-110542136D01*
X142786948Y-110526735D01*
X142663990Y-110515774D01*
X142484796Y-110499811D01*
X142311986Y-110484508D01*
X142147334Y-110470017D01*
X141992618Y-110456489D01*
X141849613Y-110444077D01*
X141720094Y-110432934D01*
X141605839Y-110423212D01*
X141508623Y-110415062D01*
X141430222Y-110408638D01*
X141372412Y-110404091D01*
X141336968Y-110401575D01*
X141326764Y-110401100D01*
X141273517Y-110406109D01*
X141238655Y-110423134D01*
X141216815Y-110455174D01*
X141213204Y-110464597D01*
X141208647Y-110483557D01*
X141200014Y-110525311D01*
X141187720Y-110587657D01*
X141172184Y-110668388D01*
X141153821Y-110765302D01*
X141133050Y-110876193D01*
X141110285Y-110998857D01*
X141085945Y-111131089D01*
X141060446Y-111270686D01*
X141051676Y-111318940D01*
X140903616Y-112134650D01*
X140727258Y-112689242D01*
X140690946Y-112804428D01*
X140657154Y-112913539D01*
X140626663Y-113013914D01*
X140600255Y-113102892D01*
X140578710Y-113177813D01*
X140562808Y-113236017D01*
X140553331Y-113274843D01*
X140550900Y-113290152D01*
X140554718Y-113329033D01*
X140563996Y-113360850D01*
X140564859Y-113362551D01*
X140581849Y-113377863D01*
X140619269Y-113401301D01*
X140674045Y-113431361D01*
X140743105Y-113466537D01*
X140823374Y-113505323D01*
X140911781Y-113546214D01*
X141005251Y-113587704D01*
X141100712Y-113628289D01*
X141141450Y-113645023D01*
X141206356Y-113671402D01*
X141265116Y-113695315D01*
X141312653Y-113714693D01*
X141343892Y-113727469D01*
X141351000Y-113730397D01*
X141370172Y-113739241D01*
X141371009Y-113745793D01*
X141351183Y-113754354D01*
X141335005Y-113759972D01*
X141254213Y-113800515D01*
X141188713Y-113860224D01*
X141140025Y-113936922D01*
X141109669Y-114028430D01*
X141100417Y-114095877D01*
X141103830Y-114222554D01*
X141131709Y-114342608D01*
X141183884Y-114455610D01*
X141260188Y-114561129D01*
X141299128Y-114602851D01*
X141399650Y-114688563D01*
X141508840Y-114751972D01*
X141631024Y-114795373D01*
X141684962Y-114807737D01*
X141785096Y-114824962D01*
X141908456Y-114841743D01*
X142052868Y-114857875D01*
X142216160Y-114873150D01*
X142396159Y-114887361D01*
X142590691Y-114900301D01*
X142754350Y-114909548D01*
X142814969Y-114911925D01*
X142898069Y-114913994D01*
X143000734Y-114915756D01*
X143120046Y-114917212D01*
X143253088Y-114918364D01*
X143396945Y-114919214D01*
X143548698Y-114919762D01*
X143705432Y-114920010D01*
X143864229Y-114919959D01*
X144022173Y-114919611D01*
X144176346Y-114918968D01*
X144323832Y-114918030D01*
X144461714Y-114916799D01*
X144587075Y-114915276D01*
X144696998Y-114913463D01*
X144788566Y-114911362D01*
X144858863Y-114908972D01*
X144868454Y-114908539D01*
X144950669Y-114904144D01*
X145035154Y-114898758D01*
X145113782Y-114892953D01*
X145178425Y-114887306D01*
X145198654Y-114885208D01*
X145289468Y-114873484D01*
X145357812Y-114860100D01*
X145406612Y-114843433D01*
X145438798Y-114821863D01*
X145457299Y-114793768D01*
X145465044Y-114757526D01*
X145465800Y-114737315D01*
X145461652Y-114684446D01*
X145445948Y-114649305D01*
X145413801Y-114625114D01*
X145373507Y-114609266D01*
X145356974Y-114604563D01*
X145336873Y-114600533D01*
X145311111Y-114597108D01*
X145277594Y-114594215D01*
X145234228Y-114591784D01*
X145178920Y-114589745D01*
X145109576Y-114588026D01*
X145024102Y-114586556D01*
X144920404Y-114585266D01*
X144796390Y-114584084D01*
X144649965Y-114582939D01*
X144579975Y-114582443D01*
X143852900Y-114577408D01*
X143852900Y-114540929D01*
X143844059Y-114463748D01*
X143820261Y-114383819D01*
X143788616Y-114319858D01*
X143768059Y-114286801D01*
X143754506Y-114263774D01*
X143751300Y-114257158D01*
X143763484Y-114256387D01*
X143797979Y-114256051D01*
X143851701Y-114256133D01*
X143921563Y-114256615D01*
X144004483Y-114257481D01*
X144097374Y-114258714D01*
X144136939Y-114259310D01*
X144246009Y-114260964D01*
X144332531Y-114262048D01*
X144399356Y-114262420D01*
X144449332Y-114261934D01*
X144485309Y-114260448D01*
X144510136Y-114257819D01*
X144526662Y-114253902D01*
X144537737Y-114248555D01*
X144546210Y-114241633D01*
X144549366Y-114238534D01*
X144571407Y-114208859D01*
X144578642Y-114191587D01*
X143163733Y-114191587D01*
X143160373Y-114203043D01*
X143148414Y-114229362D01*
X143141508Y-114243226D01*
X143125266Y-114293345D01*
X143117078Y-114358181D01*
X143117168Y-114428289D01*
X143125760Y-114494224D01*
X143134787Y-114527003D01*
X143153274Y-114579400D01*
X142896662Y-114579364D01*
X142796320Y-114578866D01*
X142683915Y-114577515D01*
X142569689Y-114575482D01*
X142463882Y-114572939D01*
X142403797Y-114571071D01*
X142167543Y-114562814D01*
X142173626Y-114446524D01*
X142171708Y-114334578D01*
X142152244Y-114232811D01*
X142113344Y-114135322D01*
X142053115Y-114036213D01*
X142033347Y-114008939D01*
X142010504Y-113976064D01*
X141998485Y-113953938D01*
X141999640Y-113946968D01*
X142000439Y-113947223D01*
X142018204Y-113952490D01*
X142056347Y-113962822D01*
X142110609Y-113977096D01*
X142176731Y-113994191D01*
X142246937Y-114012097D01*
X142448153Y-114060135D01*
X142656294Y-114104392D01*
X142860554Y-114142678D01*
X143014700Y-114167654D01*
X143072285Y-114176366D01*
X143119703Y-114183808D01*
X143151887Y-114189167D01*
X143163733Y-114191587D01*
X144578642Y-114191587D01*
X144582303Y-114182848D01*
X144586374Y-114158668D01*
X144593037Y-114113076D01*
X144601881Y-114049291D01*
X144612498Y-113970530D01*
X144624476Y-113880010D01*
X144637406Y-113780950D01*
X144650877Y-113676566D01*
X144664480Y-113570077D01*
X144677805Y-113464701D01*
X144690441Y-113363654D01*
X144691348Y-113356302D01*
X143948593Y-113356302D01*
X143931822Y-113417373D01*
X143895345Y-113474610D01*
X143841705Y-113523340D01*
X143808450Y-113543468D01*
X143752758Y-113561222D01*
X143693747Y-113556692D01*
X143640665Y-113536699D01*
X143581043Y-113496256D01*
X143537455Y-113442937D01*
X143512602Y-113381838D01*
X143509188Y-113318058D01*
X143513383Y-113296700D01*
X143540531Y-113235647D01*
X143584310Y-113182834D01*
X143638881Y-113143146D01*
X143698405Y-113121474D01*
X143725802Y-113118900D01*
X143788901Y-113130822D01*
X143848482Y-113163630D01*
X143899099Y-113212880D01*
X143935302Y-113274130D01*
X143943113Y-113296071D01*
X143948593Y-113356302D01*
X144691348Y-113356302D01*
X144701979Y-113270156D01*
X144712007Y-113187422D01*
X144720118Y-113118672D01*
X144725020Y-113074960D01*
X142870756Y-113074960D01*
X142867308Y-113142007D01*
X142838612Y-113210159D01*
X142832098Y-113220439D01*
X142793907Y-113261595D01*
X142742486Y-113295769D01*
X142687614Y-113317394D01*
X142653585Y-113322089D01*
X142618853Y-113316478D01*
X142576736Y-113302415D01*
X142562928Y-113296253D01*
X142520936Y-113268405D01*
X142483185Y-113231458D01*
X142475854Y-113221803D01*
X142441823Y-113154825D01*
X142433097Y-113089145D01*
X142449588Y-113025429D01*
X142491209Y-112964342D01*
X142512559Y-112942909D01*
X142575153Y-112899166D01*
X142639569Y-112880528D01*
X142704021Y-112886957D01*
X142766722Y-112918417D01*
X142802429Y-112948961D01*
X142849086Y-113010214D01*
X142870756Y-113074960D01*
X144725020Y-113074960D01*
X144725899Y-113067123D01*
X144728942Y-113035992D01*
X144729310Y-113029252D01*
X144722825Y-112983561D01*
X144700974Y-112952115D01*
X144659768Y-112930485D01*
X144633225Y-112922616D01*
X144611570Y-112917519D01*
X144567015Y-112907400D01*
X144501471Y-112892682D01*
X144416846Y-112873789D01*
X144315050Y-112851145D01*
X144283204Y-112844079D01*
X141823893Y-112844079D01*
X141818619Y-112905471D01*
X141793808Y-112965242D01*
X141751633Y-113018263D01*
X141694270Y-113059403D01*
X141690910Y-113061123D01*
X141629115Y-113084335D01*
X141573619Y-113086010D01*
X141517140Y-113065713D01*
X141489090Y-113049050D01*
X141432910Y-112999387D01*
X141398080Y-112940546D01*
X141384420Y-112876828D01*
X141391750Y-112812532D01*
X141419889Y-112751956D01*
X141468657Y-112699402D01*
X141504764Y-112675159D01*
X141570417Y-112651467D01*
X141636927Y-112651323D01*
X141700447Y-112673315D01*
X141757125Y-112716031D01*
X141803114Y-112778060D01*
X141807454Y-112786194D01*
X141823893Y-112844079D01*
X144283204Y-112844079D01*
X144197994Y-112825173D01*
X144067586Y-112796298D01*
X143925737Y-112764943D01*
X143774356Y-112731531D01*
X143615352Y-112696488D01*
X143479867Y-112666666D01*
X143318371Y-112631041D01*
X143164621Y-112596934D01*
X143020340Y-112564739D01*
X142887248Y-112534847D01*
X142767066Y-112507653D01*
X142661514Y-112483549D01*
X142572313Y-112462927D01*
X142501185Y-112446180D01*
X142449849Y-112433701D01*
X142420026Y-112425883D01*
X142413067Y-112423146D01*
X142428973Y-112423724D01*
X142468344Y-112426437D01*
X142529347Y-112431130D01*
X142610150Y-112437646D01*
X142708922Y-112445833D01*
X142823829Y-112455536D01*
X142953041Y-112466598D01*
X143094725Y-112478867D01*
X143247048Y-112492187D01*
X143408179Y-112506403D01*
X143576286Y-112521361D01*
X143578637Y-112521571D01*
X143746668Y-112536569D01*
X143907630Y-112550902D01*
X144059706Y-112564412D01*
X144201074Y-112576937D01*
X144329917Y-112588317D01*
X144444413Y-112598393D01*
X144542745Y-112607004D01*
X144623092Y-112613990D01*
X144683635Y-112619192D01*
X144722555Y-112622448D01*
X144738032Y-112623599D01*
X144738089Y-112623600D01*
X144758490Y-112615219D01*
X144784499Y-112594805D01*
X144786928Y-112592427D01*
X144818100Y-112561254D01*
X144818150Y-112417363D01*
X142361492Y-112417363D01*
X142349009Y-112419397D01*
X142332537Y-112417062D01*
X142332340Y-112412727D01*
X142349338Y-112409695D01*
X142356682Y-112411724D01*
X142361492Y-112417363D01*
X144818150Y-112417363D01*
X144818327Y-111910493D01*
X143661161Y-111910493D01*
X143656099Y-111977545D01*
X143626473Y-112039038D01*
X143590509Y-112079974D01*
X143528441Y-112125549D01*
X143464936Y-112145769D01*
X143399908Y-112140641D01*
X143333270Y-112110174D01*
X143325850Y-112105284D01*
X143276007Y-112059787D01*
X143240761Y-112003875D01*
X143223674Y-111944499D01*
X143224096Y-111906636D01*
X143247259Y-111834513D01*
X143249409Y-111831652D01*
X142568614Y-111831652D01*
X142558272Y-111876919D01*
X142550544Y-111896759D01*
X142511828Y-111962666D01*
X142456699Y-112010629D01*
X142424150Y-112028096D01*
X142375838Y-112046445D01*
X142335810Y-112049400D01*
X142292140Y-112036956D01*
X142271750Y-112028022D01*
X142203717Y-111985177D01*
X142156754Y-111930958D01*
X142131910Y-111868198D01*
X142130233Y-111799729D01*
X142152772Y-111728385D01*
X142157450Y-111719205D01*
X142176007Y-111676919D01*
X142187442Y-111636551D01*
X142189200Y-111620434D01*
X142191079Y-111594315D01*
X142199863Y-111588509D01*
X142213766Y-111594453D01*
X142239140Y-111601416D01*
X142280154Y-111606182D01*
X142319229Y-111607600D01*
X142400616Y-111618131D01*
X142468223Y-111649130D01*
X142520508Y-111699703D01*
X142542970Y-111737169D01*
X142563685Y-111788700D01*
X142568614Y-111831652D01*
X143249409Y-111831652D01*
X143291976Y-111775022D01*
X143337541Y-111740870D01*
X143376025Y-111720926D01*
X143411317Y-111710721D01*
X143452294Y-111709025D01*
X143507833Y-111714608D01*
X143517503Y-111715932D01*
X143565391Y-111719021D01*
X143600667Y-111714305D01*
X143606913Y-111711708D01*
X143623167Y-111705323D01*
X143628601Y-111713915D01*
X143626599Y-111741908D01*
X143628221Y-111782360D01*
X143638654Y-111827393D01*
X143641963Y-111836436D01*
X143661161Y-111910493D01*
X144818327Y-111910493D01*
X144818403Y-111693902D01*
X144818644Y-111526725D01*
X144819229Y-111372056D01*
X144820082Y-111240108D01*
X144235855Y-111240108D01*
X144230562Y-111277400D01*
X144202840Y-111345388D01*
X144158781Y-111395932D01*
X144097256Y-111429712D01*
X144017136Y-111447410D01*
X143943328Y-111450526D01*
X143832952Y-111448850D01*
X143837958Y-111414329D01*
X143835901Y-111383704D01*
X143825315Y-111341237D01*
X143814035Y-111310012D01*
X143798017Y-111268020D01*
X143792012Y-111238103D01*
X143794915Y-111209497D01*
X143801270Y-111185782D01*
X143825487Y-111135350D01*
X143848512Y-111106460D01*
X143137456Y-111106460D01*
X143134008Y-111173507D01*
X143105312Y-111241659D01*
X143098798Y-111251939D01*
X143060607Y-111293095D01*
X143009186Y-111327269D01*
X142954314Y-111348894D01*
X142920285Y-111353589D01*
X142886031Y-111347994D01*
X142843693Y-111333896D01*
X142827372Y-111326661D01*
X142770083Y-111286587D01*
X142728270Y-111232273D01*
X142704558Y-111169415D01*
X142701576Y-111103709D01*
X142709110Y-111070244D01*
X142733095Y-111026086D01*
X142745623Y-111011871D01*
X142066647Y-111011871D01*
X142063280Y-111079556D01*
X142035325Y-111146185D01*
X142028643Y-111156400D01*
X142017696Y-111184805D01*
X142011755Y-111224543D01*
X142011400Y-111236068D01*
X142010711Y-111269677D01*
X142006120Y-111282446D01*
X141993846Y-111278934D01*
X141982044Y-111271450D01*
X141943662Y-111258144D01*
X141884998Y-111254053D01*
X141877269Y-111254197D01*
X141806844Y-111249327D01*
X141750210Y-111228153D01*
X141699201Y-111187142D01*
X141683779Y-111170445D01*
X141644058Y-111108418D01*
X141628283Y-111042801D01*
X141636039Y-110977192D01*
X141666908Y-110915188D01*
X141719578Y-110861078D01*
X141783213Y-110825700D01*
X141849511Y-110814868D01*
X141915636Y-110828334D01*
X141978751Y-110865847D01*
X142000901Y-110885900D01*
X142045746Y-110946271D01*
X142066647Y-111011871D01*
X142745623Y-111011871D01*
X142772431Y-110981455D01*
X142819368Y-110943351D01*
X142866156Y-110918776D01*
X142881435Y-110914596D01*
X142948847Y-110914435D01*
X143014099Y-110938285D01*
X143069129Y-110980461D01*
X143115786Y-111041714D01*
X143137456Y-111106460D01*
X143848512Y-111106460D01*
X143864480Y-111086425D01*
X143911361Y-111045764D01*
X143959241Y-111020124D01*
X143974306Y-111016070D01*
X144039426Y-111015389D01*
X144101168Y-111035254D01*
X144155608Y-111071662D01*
X144198819Y-111120608D01*
X144226876Y-111178091D01*
X144235855Y-111240108D01*
X144820082Y-111240108D01*
X144820138Y-111231513D01*
X144821347Y-111106712D01*
X144822834Y-110999272D01*
X144824577Y-110910809D01*
X144826554Y-110842941D01*
X144828743Y-110797285D01*
X144831047Y-110775750D01*
X144842212Y-110718766D01*
X144853165Y-110643355D01*
X144863216Y-110556484D01*
X144871676Y-110465121D01*
X144877853Y-110376234D01*
X144881059Y-110296790D01*
X144881353Y-110267827D01*
X144871302Y-110061997D01*
X144842061Y-109871376D01*
X144820571Y-109793361D01*
X144143966Y-109793361D01*
X144129258Y-109867277D01*
X144097074Y-109928734D01*
X144039252Y-109995893D01*
X143972289Y-110041851D01*
X143899145Y-110065457D01*
X143822778Y-110065565D01*
X143775555Y-110053486D01*
X143704719Y-110016608D01*
X143646134Y-109963445D01*
X143603184Y-109898880D01*
X143579251Y-109827799D01*
X143576384Y-109765955D01*
X143595861Y-109689450D01*
X143636761Y-109618927D01*
X143695106Y-109560574D01*
X143718890Y-109544185D01*
X143792131Y-109512741D01*
X143868627Y-109504352D01*
X143943900Y-109517881D01*
X144013470Y-109552190D01*
X144072857Y-109606142D01*
X144097472Y-109640353D01*
X144133371Y-109717819D01*
X144143966Y-109793361D01*
X144820571Y-109793361D01*
X144793861Y-109696404D01*
X144726931Y-109537522D01*
X144641503Y-109395171D01*
X144630432Y-109381784D01*
X143026243Y-109381784D01*
X143025796Y-109445759D01*
X143004424Y-109507085D01*
X142963093Y-109561951D01*
X142902774Y-109606544D01*
X142868650Y-109622664D01*
X142813221Y-109632354D01*
X142751703Y-109622337D01*
X142700603Y-109599038D01*
X142647270Y-109554225D01*
X142609859Y-109498002D01*
X142590960Y-109436268D01*
X142593159Y-109374918D01*
X142596674Y-109362234D01*
X142630416Y-109292860D01*
X142678163Y-109241244D01*
X142735875Y-109208507D01*
X142799514Y-109195772D01*
X142865042Y-109204162D01*
X142928421Y-109234798D01*
X142960486Y-109261138D01*
X143004796Y-109318973D01*
X143026243Y-109381784D01*
X144630432Y-109381784D01*
X144537807Y-109269793D01*
X144416075Y-109161827D01*
X144276536Y-109071716D01*
X144247319Y-109056286D01*
X144209758Y-109039169D01*
X144151392Y-109015202D01*
X144075516Y-108985560D01*
X143985426Y-108951414D01*
X143884416Y-108913940D01*
X143775782Y-108874310D01*
X143662819Y-108833699D01*
X143548821Y-108793279D01*
X143437083Y-108754224D01*
X143330901Y-108717708D01*
X143233569Y-108684904D01*
X143148383Y-108656986D01*
X143078638Y-108635127D01*
X143027628Y-108620501D01*
X143014700Y-108617283D01*
X142942819Y-108605637D01*
X142854007Y-108598919D01*
X142756236Y-108597042D01*
X142657476Y-108599921D01*
D13*
X172000000Y-145000000D03*
X118000000Y-132500000D03*
X172000000Y-132500000D03*
D14*
X112776000Y-79629000D03*
D15*
X115316000Y-79629000D03*
D14*
X115443000Y-91948000D03*
D15*
X117983000Y-91948000D03*
D14*
X120523000Y-102743000D03*
D15*
X123063000Y-102743000D03*
D14*
X114300000Y-85598000D03*
D15*
X116840000Y-85598000D03*
D14*
X117983000Y-97790000D03*
D15*
X120523000Y-97790000D03*
D14*
X126238000Y-65786000D03*
D15*
X128778000Y-65786000D03*
D14*
X127254000Y-79502000D03*
D15*
X129794000Y-79502000D03*
D14*
X129286000Y-93218000D03*
D15*
X131826000Y-93218000D03*
D14*
X127127000Y-72898000D03*
D15*
X129667000Y-72898000D03*
D14*
X128651000Y-85344000D03*
D15*
X131191000Y-85344000D03*
D14*
X143129000Y-58801000D03*
D15*
X145669000Y-58801000D03*
D14*
X142494000Y-75692000D03*
D15*
X145034000Y-75692000D03*
D14*
X140716000Y-92964000D03*
D15*
X143256000Y-92964000D03*
D14*
X143129000Y-67564000D03*
D15*
X145669000Y-67564000D03*
D14*
X141351000Y-83820000D03*
D15*
X143891000Y-83820000D03*
D14*
X162814000Y-66167000D03*
D15*
X165354000Y-66167000D03*
D14*
X158242000Y-81534000D03*
D15*
X160782000Y-81534000D03*
D14*
X152273000Y-94742000D03*
D15*
X154813000Y-94742000D03*
D14*
X160909000Y-74295000D03*
D15*
X163449000Y-74295000D03*
D14*
X155321000Y-88519000D03*
D15*
X157861000Y-88519000D03*
D16*
X105380000Y-133000000D03*
D17*
X113000000Y-133000000D03*
D18*
X164632000Y-145032000D03*
X162132000Y-145032000D03*
X167132000Y-145032000D03*
X167132000Y-141732000D03*
X164632000Y-141732000D03*
X162132000Y-141732000D03*
D19*
X178300000Y-143620000D03*
D17*
X196080000Y-136000000D03*
X180840000Y-143620000D03*
X193540000Y-136000000D03*
X183380000Y-143620000D03*
X191000000Y-136000000D03*
X185920000Y-143620000D03*
X188460000Y-136000000D03*
X188460000Y-143620000D03*
X185920000Y-136000000D03*
X191000000Y-143620000D03*
X183380000Y-136000000D03*
X193540000Y-143620000D03*
X180840000Y-136000000D03*
X196080000Y-143620000D03*
X178300000Y-136000000D03*
D20*
X187706000Y-132080000D03*
D21*
X190246000Y-132080000D03*
D16*
X113750000Y-129500000D03*
X113750000Y-127000000D03*
D13*
X118000000Y-145000000D03*
D20*
X102460000Y-140000000D03*
D21*
X102460000Y-137460000D03*
X105000000Y-140000000D03*
X105000000Y-137460000D03*
X107540000Y-140000000D03*
X107540000Y-137460000D03*
X110080000Y-140000000D03*
X110080000Y-137460000D03*
X112620000Y-140000000D03*
X112620000Y-137460000D03*
M02*
