G04 #@! TF.FileFunction,Legend,Top*
%FSLAX46Y46*%
G04 Gerber Fmt 4.6, Leading zero omitted, Abs format (unit mm)*
G04 Created by KiCad (PCBNEW 4.0.6) date 11/09/17 22:15:05*
%MOMM*%
%LPD*%
G01*
G04 APERTURE LIST*
%ADD10C,0.100000*%
%ADD11C,0.120000*%
%ADD12C,0.010000*%
%ADD13C,0.150000*%
G04 APERTURE END LIST*
D10*
D11*
X117036000Y-79629462D02*
G75*
G03X111486000Y-78084170I-2990000J462D01*
G01*
X117036000Y-79628538D02*
G75*
G02X111486000Y-81173830I-2990000J-462D01*
G01*
X116546000Y-79629000D02*
G75*
G03X116546000Y-79629000I-2500000J0D01*
G01*
X111486000Y-78084000D02*
X111486000Y-81174000D01*
X119703000Y-91948462D02*
G75*
G03X114153000Y-90403170I-2990000J462D01*
G01*
X119703000Y-91947538D02*
G75*
G02X114153000Y-93492830I-2990000J-462D01*
G01*
X119213000Y-91948000D02*
G75*
G03X119213000Y-91948000I-2500000J0D01*
G01*
X114153000Y-90403000D02*
X114153000Y-93493000D01*
X124783000Y-102743462D02*
G75*
G03X119233000Y-101198170I-2990000J462D01*
G01*
X124783000Y-102742538D02*
G75*
G02X119233000Y-104287830I-2990000J-462D01*
G01*
X124293000Y-102743000D02*
G75*
G03X124293000Y-102743000I-2500000J0D01*
G01*
X119233000Y-101198000D02*
X119233000Y-104288000D01*
X130498000Y-65786462D02*
G75*
G03X124948000Y-64241170I-2990000J462D01*
G01*
X130498000Y-65785538D02*
G75*
G02X124948000Y-67330830I-2990000J-462D01*
G01*
X130008000Y-65786000D02*
G75*
G03X130008000Y-65786000I-2500000J0D01*
G01*
X124948000Y-64241000D02*
X124948000Y-67331000D01*
X131514000Y-79502462D02*
G75*
G03X125964000Y-77957170I-2990000J462D01*
G01*
X131514000Y-79501538D02*
G75*
G02X125964000Y-81046830I-2990000J-462D01*
G01*
X131024000Y-79502000D02*
G75*
G03X131024000Y-79502000I-2500000J0D01*
G01*
X125964000Y-77957000D02*
X125964000Y-81047000D01*
X133546000Y-93218462D02*
G75*
G03X127996000Y-91673170I-2990000J462D01*
G01*
X133546000Y-93217538D02*
G75*
G02X127996000Y-94762830I-2990000J-462D01*
G01*
X133056000Y-93218000D02*
G75*
G03X133056000Y-93218000I-2500000J0D01*
G01*
X127996000Y-91673000D02*
X127996000Y-94763000D01*
X147389000Y-58801462D02*
G75*
G03X141839000Y-57256170I-2990000J462D01*
G01*
X147389000Y-58800538D02*
G75*
G02X141839000Y-60345830I-2990000J-462D01*
G01*
X146899000Y-58801000D02*
G75*
G03X146899000Y-58801000I-2500000J0D01*
G01*
X141839000Y-57256000D02*
X141839000Y-60346000D01*
X146754000Y-75692462D02*
G75*
G03X141204000Y-74147170I-2990000J462D01*
G01*
X146754000Y-75691538D02*
G75*
G02X141204000Y-77236830I-2990000J-462D01*
G01*
X146264000Y-75692000D02*
G75*
G03X146264000Y-75692000I-2500000J0D01*
G01*
X141204000Y-74147000D02*
X141204000Y-77237000D01*
X144976000Y-92964462D02*
G75*
G03X139426000Y-91419170I-2990000J462D01*
G01*
X144976000Y-92963538D02*
G75*
G02X139426000Y-94508830I-2990000J-462D01*
G01*
X144486000Y-92964000D02*
G75*
G03X144486000Y-92964000I-2500000J0D01*
G01*
X139426000Y-91419000D02*
X139426000Y-94509000D01*
X167074000Y-66167462D02*
G75*
G03X161524000Y-64622170I-2990000J462D01*
G01*
X167074000Y-66166538D02*
G75*
G02X161524000Y-67711830I-2990000J-462D01*
G01*
X166584000Y-66167000D02*
G75*
G03X166584000Y-66167000I-2500000J0D01*
G01*
X161524000Y-64622000D02*
X161524000Y-67712000D01*
X162502000Y-81534462D02*
G75*
G03X156952000Y-79989170I-2990000J462D01*
G01*
X162502000Y-81533538D02*
G75*
G02X156952000Y-83078830I-2990000J-462D01*
G01*
X162012000Y-81534000D02*
G75*
G03X162012000Y-81534000I-2500000J0D01*
G01*
X156952000Y-79989000D02*
X156952000Y-83079000D01*
X156533000Y-94742462D02*
G75*
G03X150983000Y-93197170I-2990000J462D01*
G01*
X156533000Y-94741538D02*
G75*
G02X150983000Y-96286830I-2990000J-462D01*
G01*
X156043000Y-94742000D02*
G75*
G03X156043000Y-94742000I-2500000J0D01*
G01*
X150983000Y-93197000D02*
X150983000Y-96287000D01*
X105980000Y-132020000D02*
X105980000Y-131690000D01*
X105980000Y-131690000D02*
X112400000Y-131690000D01*
X112400000Y-131690000D02*
X112400000Y-132020000D01*
X105980000Y-133980000D02*
X105980000Y-134310000D01*
X105980000Y-134310000D02*
X112400000Y-134310000D01*
X112400000Y-134310000D02*
X112400000Y-133980000D01*
D10*
X160132000Y-140582000D02*
X160132000Y-146082000D01*
X169132000Y-140582000D02*
X160132000Y-140582000D01*
X169132000Y-146082000D02*
X169132000Y-140582000D01*
X160132000Y-146082000D02*
X169132000Y-146082000D01*
D11*
X176970000Y-138810000D02*
G75*
G02X176970000Y-140810000I0J-1000000D01*
G01*
X176970000Y-140810000D02*
X176970000Y-142460000D01*
X176970000Y-142460000D02*
X197410000Y-142460000D01*
X197410000Y-142460000D02*
X197410000Y-137160000D01*
X197410000Y-137160000D02*
X176970000Y-137160000D01*
X176970000Y-137160000D02*
X176970000Y-138810000D01*
X191576000Y-133410000D02*
X191576000Y-130750000D01*
X188976000Y-133410000D02*
X191576000Y-133410000D01*
X188976000Y-130750000D02*
X191576000Y-130750000D01*
X188976000Y-133410000D02*
X188976000Y-130750000D01*
X187706000Y-133410000D02*
X186376000Y-133410000D01*
X186376000Y-133410000D02*
X186376000Y-132080000D01*
X112390000Y-130210000D02*
X112390000Y-126290000D01*
X115110000Y-130210000D02*
X115110000Y-126290000D01*
X112390000Y-130210000D02*
X113000000Y-130210000D01*
X114500000Y-130210000D02*
X115110000Y-130210000D01*
X112390000Y-126290000D02*
X113000000Y-126290000D01*
X114500000Y-126290000D02*
X115110000Y-126290000D01*
X113950000Y-141330000D02*
X113950000Y-136130000D01*
X103730000Y-141330000D02*
X113950000Y-141330000D01*
X101130000Y-136130000D02*
X113950000Y-136130000D01*
X103730000Y-141330000D02*
X103730000Y-138730000D01*
X103730000Y-138730000D02*
X101130000Y-138730000D01*
X101130000Y-138730000D02*
X101130000Y-136130000D01*
X102460000Y-141330000D02*
X101130000Y-141330000D01*
X101130000Y-141330000D02*
X101130000Y-140000000D01*
D12*
G36*
X145009306Y-50108184D02*
X145630321Y-50176507D01*
X145691991Y-50309262D01*
X145626667Y-50339458D01*
X145006472Y-50679299D01*
X144161776Y-51253711D01*
X144005868Y-51369940D01*
X142821756Y-51995265D01*
X141350851Y-52196334D01*
X141239289Y-52197000D01*
X139634425Y-52404712D01*
X138667374Y-52902556D01*
X137394636Y-53522039D01*
X136080494Y-53480807D01*
X135387636Y-53168171D01*
X134880976Y-52962288D01*
X134288672Y-53042472D01*
X133399742Y-53454696D01*
X132959181Y-53697337D01*
X131742202Y-54336531D01*
X130924040Y-54605552D01*
X130316624Y-54525851D01*
X129731881Y-54118879D01*
X129678947Y-54071468D01*
X129337102Y-53817590D01*
X128991274Y-53793036D01*
X128516671Y-54067801D01*
X127788504Y-54711877D01*
X126781441Y-55696645D01*
X124541376Y-57916799D01*
X125928710Y-59170172D01*
X126715912Y-59783218D01*
X127752620Y-60464504D01*
X128869164Y-61119416D01*
X129895877Y-61653340D01*
X130663091Y-61971662D01*
X130992795Y-61994108D01*
X131348734Y-61376767D01*
X131824832Y-60304070D01*
X132330773Y-58994092D01*
X132749153Y-57753250D01*
X133225931Y-56494179D01*
X133684293Y-55819438D01*
X133902922Y-55724778D01*
X134115659Y-55814181D01*
X134250627Y-56152637D01*
X134315353Y-56845518D01*
X134317368Y-57998192D01*
X134264198Y-59716031D01*
X134236892Y-60399083D01*
X134107132Y-62552548D01*
X133913329Y-64497023D01*
X133676614Y-66050877D01*
X133487877Y-66837278D01*
X132931785Y-68601167D01*
X133626937Y-67719222D01*
X134124694Y-66911615D01*
X134329933Y-66240736D01*
X134506174Y-65637032D01*
X134871282Y-65359230D01*
X135170366Y-65522696D01*
X135256268Y-66106007D01*
X135201982Y-67222072D01*
X135032467Y-68717685D01*
X134772681Y-70439645D01*
X134447584Y-72234747D01*
X134082134Y-73949788D01*
X133701290Y-75431565D01*
X133410713Y-76323920D01*
X133149758Y-77382661D01*
X133101225Y-78442046D01*
X133249253Y-79286710D01*
X133577982Y-79701290D01*
X133660355Y-79713667D01*
X133993919Y-79429095D01*
X134517378Y-78693912D01*
X134955242Y-77954860D01*
X135529196Y-76998345D01*
X136002570Y-76357453D01*
X136215246Y-76190972D01*
X136342677Y-76520811D01*
X136329201Y-77470777D01*
X136181357Y-78971017D01*
X135905685Y-80951681D01*
X135588254Y-82888667D01*
X135404776Y-84360560D01*
X135306650Y-86036410D01*
X135290142Y-87746408D01*
X135351519Y-89320744D01*
X135487047Y-90589610D01*
X135692992Y-91383196D01*
X135777916Y-91514083D01*
X136025548Y-91508414D01*
X136103752Y-90984917D01*
X136160233Y-90341069D01*
X136314301Y-89148440D01*
X136545207Y-87553812D01*
X136832206Y-85703965D01*
X136973870Y-84828944D01*
X137297608Y-82650701D01*
X137573901Y-80405828D01*
X137777259Y-78330006D01*
X137882189Y-76658915D01*
X137889636Y-76362278D01*
X137843973Y-74590694D01*
X137678768Y-72582567D01*
X137469508Y-70923620D01*
X138229061Y-70923620D01*
X138357058Y-71541800D01*
X138652695Y-71859309D01*
X138838633Y-71802626D01*
X138806992Y-71420658D01*
X138614176Y-71008876D01*
X138325595Y-70602199D01*
X138232939Y-70812914D01*
X138229061Y-70923620D01*
X137469508Y-70923620D01*
X137423004Y-70554955D01*
X137105662Y-68724919D01*
X136755723Y-67309516D01*
X136634411Y-66961156D01*
X136617914Y-66356256D01*
X136778919Y-66149215D01*
X137136195Y-66300229D01*
X137631101Y-66964734D01*
X137923145Y-67507241D01*
X138409571Y-68382292D01*
X138809637Y-68883029D01*
X138958050Y-68932832D01*
X139129206Y-68523096D01*
X139315258Y-67615263D01*
X139460975Y-66532114D01*
X139553829Y-65018142D01*
X139429704Y-63946162D01*
X139164337Y-63256988D01*
X138679152Y-62063205D01*
X138469782Y-61369222D01*
X139276667Y-61369222D01*
X139405742Y-61659598D01*
X139511852Y-61604407D01*
X139554072Y-61185743D01*
X139511852Y-61134037D01*
X139302126Y-61182463D01*
X139276667Y-61369222D01*
X138469782Y-61369222D01*
X138191698Y-60447480D01*
X138159249Y-60310889D01*
X138923889Y-60310889D01*
X139052965Y-60601265D01*
X139159074Y-60546074D01*
X139201295Y-60127409D01*
X139159074Y-60075704D01*
X138949348Y-60124129D01*
X138923889Y-60310889D01*
X138159249Y-60310889D01*
X137907824Y-59252556D01*
X138571111Y-59252556D01*
X138700187Y-59542932D01*
X138806296Y-59487741D01*
X138848517Y-59069076D01*
X138806296Y-59017370D01*
X138596570Y-59065796D01*
X138571111Y-59252556D01*
X137907824Y-59252556D01*
X137774059Y-58689497D01*
X137498319Y-57068941D01*
X137450325Y-56606722D01*
X137428506Y-55689438D01*
X137610338Y-55280867D01*
X138002814Y-55195611D01*
X138509256Y-55428202D01*
X139007727Y-56190938D01*
X139393494Y-57101696D01*
X139828808Y-58120401D01*
X140158767Y-58517171D01*
X140426664Y-58269809D01*
X140675794Y-57356114D01*
X140855044Y-56352278D01*
X141311512Y-55144131D01*
X142136116Y-54288452D01*
X143159063Y-53960906D01*
X143166514Y-53960889D01*
X143479019Y-53827696D01*
X144921111Y-53827696D01*
X145209216Y-53946172D01*
X145450278Y-53960889D01*
X145907787Y-53675241D01*
X145979444Y-53388526D01*
X145886658Y-53014179D01*
X145501560Y-53213306D01*
X145450278Y-53255333D01*
X145011842Y-53678045D01*
X144921111Y-53827696D01*
X143479019Y-53827696D01*
X143726586Y-53722181D01*
X144514114Y-53116442D01*
X144921111Y-52726167D01*
X145873646Y-51837806D01*
X146442103Y-51537002D01*
X146631237Y-51822568D01*
X146553922Y-52318454D01*
X146585724Y-53105829D01*
X147094847Y-54091416D01*
X147460086Y-54594556D01*
X148573817Y-56043648D01*
X149613738Y-55443241D01*
X150593918Y-54781429D01*
X151605601Y-53963149D01*
X151705249Y-53872694D01*
X152587008Y-53161910D01*
X153177913Y-52896659D01*
X153387778Y-53107046D01*
X153235296Y-53477949D01*
X152816316Y-54357691D01*
X152188541Y-55628450D01*
X151409669Y-57172403D01*
X151094722Y-57789361D01*
X150011860Y-59987663D01*
X149287648Y-61663353D01*
X148895082Y-62884648D01*
X148801667Y-63582093D01*
X148880169Y-64429584D01*
X149074677Y-64876467D01*
X149132989Y-64897000D01*
X149557047Y-64681739D01*
X150323181Y-64122605D01*
X151094722Y-63485889D01*
X152011094Y-62738683D01*
X152739919Y-62227125D01*
X153072441Y-62074778D01*
X153252115Y-62385271D01*
X153194391Y-63250225D01*
X152926005Y-64569851D01*
X152473690Y-66244358D01*
X151864181Y-68173959D01*
X151124212Y-70258862D01*
X150354117Y-72221270D01*
X149611054Y-74259129D01*
X149235717Y-75919419D01*
X149166181Y-76983770D01*
X149177918Y-78831722D01*
X149843912Y-78033252D01*
X150383190Y-77306223D01*
X150665823Y-76798530D01*
X150955508Y-76541993D01*
X151080878Y-76602518D01*
X151179730Y-77105271D01*
X151063306Y-78082888D01*
X150774777Y-79353713D01*
X150357314Y-80736093D01*
X149854087Y-82048375D01*
X149712716Y-82359500D01*
X148520204Y-85376557D01*
X147711762Y-88496251D01*
X147335702Y-91496129D01*
X147345031Y-93262093D01*
X147516219Y-93702261D01*
X147901167Y-93557513D01*
X148460834Y-92901645D01*
X149156181Y-91808451D01*
X149948168Y-90351727D01*
X150797753Y-88605269D01*
X151665899Y-86642872D01*
X152513564Y-84538331D01*
X153301709Y-82365443D01*
X153623779Y-81393654D01*
X153621339Y-80697940D01*
X153376811Y-79701023D01*
X153251411Y-79358043D01*
X152996117Y-78437726D01*
X152810720Y-77238284D01*
X152801982Y-77133062D01*
X153403369Y-77133062D01*
X153500743Y-78085291D01*
X153771670Y-78919841D01*
X154126874Y-79445360D01*
X154477082Y-79470493D01*
X154488714Y-79459397D01*
X154611900Y-78933427D01*
X154274824Y-77994376D01*
X154138418Y-77726256D01*
X153695046Y-76953745D01*
X153470727Y-76777902D01*
X153403369Y-77133062D01*
X152801982Y-77133062D01*
X152703429Y-75946324D01*
X152682453Y-74748454D01*
X152756000Y-73831282D01*
X152932279Y-73381416D01*
X152987731Y-73363667D01*
X153256468Y-73668715D01*
X153657135Y-74465041D01*
X154065015Y-75480333D01*
X154635674Y-76830538D01*
X155111661Y-77485568D01*
X155497367Y-77448816D01*
X155777215Y-76803250D01*
X156044224Y-76095070D01*
X156543776Y-75007371D01*
X157155299Y-73799572D01*
X157735873Y-72662412D01*
X158154907Y-71761862D01*
X158326151Y-71283919D01*
X158326667Y-71273541D01*
X158181202Y-70846786D01*
X157786173Y-69926670D01*
X157203626Y-68652848D01*
X156565673Y-67309858D01*
X155614273Y-65246724D01*
X155040982Y-63759708D01*
X155028121Y-63696559D01*
X155857222Y-63696559D01*
X155984449Y-64098430D01*
X156316787Y-64936268D01*
X156780220Y-66040355D01*
X157300733Y-67240970D01*
X157804311Y-68368394D01*
X158216938Y-69252908D01*
X158464599Y-69724790D01*
X158501305Y-69759539D01*
X158576892Y-69383302D01*
X158687892Y-68515968D01*
X158776837Y-67677584D01*
X158971634Y-65695669D01*
X157414428Y-64598049D01*
X156559507Y-64027865D01*
X155993898Y-63712774D01*
X155857222Y-63696559D01*
X155028121Y-63696559D01*
X154850829Y-62826074D01*
X155048846Y-62423089D01*
X155640062Y-62528020D01*
X156629510Y-63118132D01*
X157372828Y-63662278D01*
X158266489Y-64328313D01*
X158908933Y-64776611D01*
X159124335Y-64897000D01*
X159427984Y-64672442D01*
X160088367Y-64086193D01*
X160886326Y-63337532D01*
X161877920Y-62287867D01*
X162459781Y-61342798D01*
X162594911Y-60894345D01*
X163501165Y-60894345D01*
X163611284Y-61308731D01*
X164053193Y-61187921D01*
X164444042Y-60924800D01*
X164826439Y-60513056D01*
X164835191Y-59940380D01*
X164647069Y-59319292D01*
X164353959Y-58556482D01*
X164144945Y-58358089D01*
X163947250Y-58766098D01*
X163688097Y-59822495D01*
X163675164Y-59879983D01*
X163501165Y-60894345D01*
X162594911Y-60894345D01*
X162802457Y-60205571D01*
X162863088Y-59897949D01*
X163225535Y-58251233D01*
X163615327Y-56996150D01*
X163991624Y-56246894D01*
X164226963Y-56084567D01*
X164466517Y-56396892D01*
X164827360Y-57207173D01*
X165214227Y-58289428D01*
X165686398Y-59568554D01*
X166117435Y-60287244D01*
X166592191Y-60579280D01*
X166676692Y-60595180D01*
X167717471Y-61081402D01*
X168446053Y-62160214D01*
X168823923Y-63773894D01*
X168828496Y-63820099D01*
X168996886Y-65572569D01*
X170276360Y-64878312D01*
X171251704Y-64325228D01*
X172041011Y-63837968D01*
X172156274Y-63759255D01*
X172728525Y-63505242D01*
X172972315Y-63550056D01*
X172933817Y-63959708D01*
X172602728Y-64825549D01*
X172054648Y-66001901D01*
X171365178Y-67343087D01*
X170609919Y-68703430D01*
X169864472Y-69937253D01*
X169204439Y-70898879D01*
X169070038Y-71069443D01*
X168255950Y-72223411D01*
X167569005Y-73463361D01*
X167384970Y-73892833D01*
X167016350Y-75012550D01*
X166731042Y-76125349D01*
X166569193Y-77035565D01*
X166570950Y-77547530D01*
X166624947Y-77597000D01*
X167119918Y-77375647D01*
X167928183Y-76815768D01*
X168860056Y-76073630D01*
X169725854Y-75305501D01*
X170335891Y-74667648D01*
X170504084Y-74401257D01*
X170866664Y-73891806D01*
X171355162Y-73718393D01*
X171697258Y-73939368D01*
X171732222Y-74138113D01*
X171508156Y-74661434D01*
X170961084Y-75378480D01*
X170885084Y-75461030D01*
X170425044Y-76096285D01*
X169739718Y-77226014D01*
X168909889Y-78708978D01*
X168016340Y-80403937D01*
X167693145Y-81041763D01*
X166769844Y-82807863D01*
X165847844Y-84437829D01*
X165017347Y-85780902D01*
X164368552Y-86686324D01*
X164210476Y-86862596D01*
X163343497Y-87885145D01*
X162616608Y-88993595D01*
X162491047Y-89238667D01*
X162071298Y-90178041D01*
X161581773Y-91342152D01*
X161100358Y-92535943D01*
X160704938Y-93564358D01*
X160473397Y-94232341D01*
X160443333Y-94367004D01*
X160672916Y-94544643D01*
X161297285Y-94262395D01*
X162219869Y-93566712D01*
X162360825Y-93444684D01*
X163155450Y-92842115D01*
X163760401Y-92552141D01*
X163923712Y-92560761D01*
X163892349Y-92930600D01*
X163587078Y-93813225D01*
X163054413Y-95092820D01*
X162340864Y-96653570D01*
X161975269Y-97412438D01*
X160539619Y-100605949D01*
X159546358Y-103465391D01*
X158948617Y-106165062D01*
X158699531Y-108879259D01*
X158685945Y-109645319D01*
X158960219Y-111571700D01*
X159776385Y-113056971D01*
X161102360Y-114070343D01*
X162906062Y-114581030D01*
X163889089Y-114638667D01*
X165605994Y-114638667D01*
X165766602Y-113957403D01*
X166537243Y-113957403D01*
X166805912Y-114278670D01*
X167389843Y-113972888D01*
X167650079Y-113731524D01*
X168104708Y-112855184D01*
X168077218Y-111569898D01*
X167897160Y-110793561D01*
X167660205Y-109947067D01*
X167248650Y-110850332D01*
X166893199Y-111843573D01*
X166605187Y-112990115D01*
X166599564Y-113019744D01*
X166537243Y-113957403D01*
X165766602Y-113957403D01*
X166220606Y-112031619D01*
X166583227Y-110672000D01*
X166965580Y-109520602D01*
X167290455Y-108807208D01*
X167317089Y-108768424D01*
X167670117Y-108370740D01*
X167913680Y-108496292D01*
X168194059Y-109147383D01*
X168475057Y-110166531D01*
X168689617Y-111433732D01*
X168727200Y-111793216D01*
X168875063Y-112808711D01*
X169173815Y-113226121D01*
X169747702Y-113086624D01*
X170699902Y-112446986D01*
X171209288Y-112032588D01*
X171515776Y-111596539D01*
X171670786Y-110956713D01*
X171725738Y-109930982D01*
X171732222Y-108790573D01*
X171742568Y-108337664D01*
X172437778Y-108337664D01*
X172437778Y-110914901D01*
X173161590Y-110191089D01*
X173592068Y-109644541D01*
X173735011Y-109005801D01*
X173638998Y-108004905D01*
X173599124Y-107759696D01*
X173309090Y-106490571D01*
X173008098Y-105905220D01*
X172736204Y-105983708D01*
X172533465Y-106706101D01*
X172439936Y-108052463D01*
X172437778Y-108337664D01*
X171742568Y-108337664D01*
X171768341Y-107209420D01*
X171898035Y-106151311D01*
X172153310Y-105436426D01*
X172392269Y-105082263D01*
X173052316Y-104267140D01*
X173626991Y-105378440D01*
X174027560Y-106403161D01*
X174201448Y-107343620D01*
X174201667Y-107368383D01*
X174359056Y-108228308D01*
X174815534Y-108459170D01*
X175547568Y-108059379D01*
X176125613Y-107498334D01*
X176883519Y-106514214D01*
X177208258Y-105549469D01*
X177236899Y-105067315D01*
X178173621Y-105067315D01*
X178267560Y-105480925D01*
X178621347Y-105695143D01*
X178949947Y-105324047D01*
X179166671Y-104485195D01*
X179192451Y-104226706D01*
X179244703Y-102860081D01*
X179194230Y-101812420D01*
X179056617Y-101205007D01*
X178847444Y-101159124D01*
X178805670Y-101216240D01*
X178536015Y-101930219D01*
X178317782Y-102992385D01*
X178185482Y-104129248D01*
X178173621Y-105067315D01*
X177236899Y-105067315D01*
X177259074Y-104694028D01*
X177364959Y-103541588D01*
X177640761Y-102259903D01*
X178023703Y-101037163D01*
X178451007Y-100061563D01*
X178859894Y-99521296D01*
X179001982Y-99469222D01*
X179286055Y-99799930D01*
X179588934Y-100709068D01*
X179852421Y-101976078D01*
X180146837Y-103345160D01*
X180454365Y-104014457D01*
X180781058Y-103982807D01*
X181067710Y-103385121D01*
X181864726Y-103385121D01*
X183130520Y-102781505D01*
X184102879Y-102130432D01*
X184493653Y-101329994D01*
X184502463Y-101264528D01*
X184550203Y-100130949D01*
X184455940Y-99101105D01*
X184253556Y-98374618D01*
X183976931Y-98151107D01*
X183974169Y-98151999D01*
X183512788Y-98587117D01*
X182981517Y-99484600D01*
X182486714Y-100623628D01*
X182134737Y-101783378D01*
X182073606Y-102097943D01*
X181864726Y-103385121D01*
X181067710Y-103385121D01*
X181132972Y-103249046D01*
X181516159Y-101812013D01*
X181552045Y-101649707D01*
X181939307Y-100329442D01*
X182490669Y-99000569D01*
X183115376Y-97831668D01*
X183722672Y-96991319D01*
X184221800Y-96648105D01*
X184245258Y-96647000D01*
X184638111Y-96979462D01*
X184933576Y-97902728D01*
X185105179Y-99305621D01*
X185137778Y-100395264D01*
X185266211Y-101454839D01*
X185578755Y-101941242D01*
X185966274Y-101819691D01*
X186082469Y-101568370D01*
X186901667Y-101568370D01*
X187003432Y-102201334D01*
X187262055Y-102223907D01*
X187607528Y-101693785D01*
X187962832Y-100693828D01*
X188188207Y-99712291D01*
X188250850Y-99040643D01*
X188211081Y-98897155D01*
X187938985Y-99011759D01*
X187565550Y-99577758D01*
X187199654Y-100373037D01*
X186950177Y-101175483D01*
X186901667Y-101568370D01*
X186082469Y-101568370D01*
X186319633Y-101055406D01*
X186383101Y-100792139D01*
X186767638Y-99730123D01*
X187390860Y-98632641D01*
X187487418Y-98499083D01*
X188224068Y-97710181D01*
X188847708Y-97364244D01*
X189237891Y-97485200D01*
X189274172Y-98096976D01*
X189263282Y-98146306D01*
X188824504Y-100048653D01*
X188539629Y-101391267D01*
X188405885Y-102302355D01*
X188420496Y-102910121D01*
X188580687Y-103342774D01*
X188883685Y-103728517D01*
X189136717Y-103994789D01*
X189752488Y-104786512D01*
X190066413Y-105481561D01*
X190076667Y-105581506D01*
X190373413Y-106132968D01*
X191046806Y-106567745D01*
X192754407Y-107273245D01*
X194041923Y-107878395D01*
X194819931Y-108338159D01*
X195015556Y-108566587D01*
X194696772Y-108768810D01*
X193832001Y-109098604D01*
X192558613Y-109507949D01*
X191226697Y-109891033D01*
X189502487Y-110386623D01*
X188171868Y-110863190D01*
X187082157Y-111425088D01*
X186080670Y-112176676D01*
X185014726Y-113222309D01*
X183731641Y-114666343D01*
X183021111Y-115499429D01*
X181686374Y-116954901D01*
X180144795Y-118457865D01*
X178670020Y-119745799D01*
X178258611Y-120068351D01*
X176992569Y-121113666D01*
X175477797Y-122498789D01*
X173923397Y-124026686D01*
X172790556Y-125220823D01*
X169791944Y-128507963D01*
X171114861Y-128260107D01*
X171957353Y-128174929D01*
X172411770Y-128270737D01*
X172437778Y-128328329D01*
X172745059Y-128460132D01*
X173532739Y-128437912D01*
X174599569Y-128289766D01*
X175744305Y-128043794D01*
X176765698Y-127728095D01*
X176782271Y-127721731D01*
X177597884Y-127446191D01*
X178105188Y-127338667D01*
X178434324Y-127548367D01*
X178339498Y-128024571D01*
X177898686Y-128537935D01*
X177641250Y-128703201D01*
X177098022Y-129001000D01*
X177204205Y-129044192D01*
X177729444Y-128950680D01*
X179347723Y-128696266D01*
X180899824Y-128540824D01*
X182223407Y-128491211D01*
X183156130Y-128554284D01*
X183523202Y-128705968D01*
X184004530Y-128959882D01*
X184893703Y-129095523D01*
X185158598Y-129102556D01*
X186040745Y-129189551D01*
X186518816Y-129407765D01*
X186548889Y-129488437D01*
X186268351Y-129695258D01*
X185392986Y-129681104D01*
X184696806Y-129589009D01*
X183586900Y-129434387D01*
X182585046Y-129346926D01*
X181491683Y-129322586D01*
X180107250Y-129357325D01*
X178232187Y-129447105D01*
X178082222Y-129455089D01*
X176671338Y-129500645D01*
X175858103Y-129442809D01*
X175540532Y-129269395D01*
X175532168Y-129150382D01*
X175407724Y-128894405D01*
X174801996Y-128843535D01*
X173944668Y-128933068D01*
X172807360Y-129105181D01*
X171891784Y-129273882D01*
X171644028Y-129332371D01*
X171132648Y-129296874D01*
X171026667Y-129102556D01*
X170747240Y-128861406D01*
X170232917Y-128935555D01*
X169453607Y-129394082D01*
X168334279Y-130386904D01*
X166927158Y-131861839D01*
X165284468Y-133766704D01*
X164769744Y-134394222D01*
X163236496Y-136207592D01*
X161709505Y-137878449D01*
X160294115Y-139300787D01*
X159095669Y-140368600D01*
X158239236Y-140965823D01*
X157356706Y-141265881D01*
X156049875Y-141531592D01*
X154599640Y-141706008D01*
X154581401Y-141707399D01*
X153248886Y-141821306D01*
X152471033Y-141954615D01*
X152098358Y-142171265D01*
X151981375Y-142535200D01*
X151971850Y-142823614D01*
X151877325Y-143900389D01*
X151743591Y-144577596D01*
X151652570Y-145012789D01*
X151766859Y-145245399D01*
X152226375Y-145313907D01*
X153171038Y-145256792D01*
X153953269Y-145185291D01*
X155882887Y-145128944D01*
X157204920Y-145386048D01*
X157949291Y-145967738D01*
X158150278Y-146747109D01*
X157996589Y-147391990D01*
X157476732Y-147884238D01*
X156502519Y-148259959D01*
X154985760Y-148555262D01*
X153211389Y-148769265D01*
X151408173Y-148940251D01*
X150184296Y-148983751D01*
X149417510Y-148847015D01*
X148985568Y-148477292D01*
X148766224Y-147821832D01*
X148637229Y-146827887D01*
X148633654Y-146793967D01*
X148425441Y-144865213D01*
X148259668Y-143528669D01*
X148110129Y-142674336D01*
X147950620Y-142192214D01*
X147754936Y-141972305D01*
X147496872Y-141904610D01*
X147468274Y-141902110D01*
X146687365Y-141804269D01*
X146676695Y-141802556D01*
X148718773Y-141802556D01*
X148973401Y-144536583D01*
X149177150Y-146317193D01*
X149428024Y-147491597D01*
X149776903Y-148159134D01*
X150274664Y-148419144D01*
X150940558Y-148377416D01*
X151833467Y-148233339D01*
X153119930Y-148065616D01*
X154258484Y-147938426D01*
X155934183Y-147675006D01*
X157044323Y-147298243D01*
X157538436Y-146831591D01*
X157477798Y-146442184D01*
X157024156Y-146063416D01*
X156641595Y-146195416D01*
X156562778Y-146502010D01*
X156242736Y-146829113D01*
X155265075Y-147016310D01*
X154732049Y-147051666D01*
X153636879Y-147131045D01*
X152842596Y-147242486D01*
X152615382Y-147311920D01*
X152377357Y-147179681D01*
X152324042Y-146850459D01*
X152263958Y-146432888D01*
X152024204Y-146678468D01*
X151990446Y-146731228D01*
X151597827Y-147052056D01*
X151410946Y-146998872D01*
X150968448Y-146968344D01*
X150709116Y-147121467D01*
X150397334Y-147235143D01*
X150288417Y-146793008D01*
X150289371Y-146412851D01*
X150395823Y-145658765D01*
X150610560Y-145330785D01*
X150619241Y-145330333D01*
X150911377Y-145061831D01*
X150918333Y-144988627D01*
X150650749Y-144801623D01*
X150300972Y-144864160D01*
X149897614Y-144947213D01*
X150074787Y-144657945D01*
X150097015Y-144633711D01*
X150350020Y-143960496D01*
X150300354Y-143638600D01*
X150281833Y-143256289D01*
X150680699Y-143317738D01*
X151127670Y-143329846D01*
X151269339Y-142797110D01*
X151271111Y-142673428D01*
X151180969Y-142091110D01*
X150773939Y-141847609D01*
X149994942Y-141802556D01*
X148718773Y-141802556D01*
X146676695Y-141802556D01*
X145353336Y-141590116D01*
X143433264Y-141253853D01*
X140894230Y-140789683D01*
X137703312Y-140191808D01*
X136983611Y-140055603D01*
X135085359Y-139696657D01*
X133448188Y-139388625D01*
X132189482Y-139153467D01*
X131426621Y-139013144D01*
X131250972Y-138983099D01*
X131208816Y-139305731D01*
X131177630Y-140161686D01*
X131163163Y-141378752D01*
X131162778Y-141626167D01*
X131162778Y-144272000D01*
X132662083Y-144325843D01*
X134021455Y-144369859D01*
X135498693Y-144411021D01*
X135805020Y-144418538D01*
X137384486Y-144680982D01*
X138419101Y-145372569D01*
X138893145Y-146480647D01*
X138923889Y-146929314D01*
X138833117Y-147754323D01*
X138492216Y-148345310D01*
X137798303Y-148751347D01*
X136648498Y-149021510D01*
X134939920Y-149204872D01*
X134019942Y-149268494D01*
X132321679Y-149389951D01*
X130757206Y-149528744D01*
X129542429Y-149664385D01*
X129046111Y-149740482D01*
X128155798Y-149830934D01*
X127586054Y-149741690D01*
X127546805Y-149712275D01*
X127458464Y-149286732D01*
X127382477Y-148278779D01*
X127324197Y-146811529D01*
X127288974Y-145008090D01*
X127281089Y-143628814D01*
X127987778Y-143628814D01*
X127992862Y-145741971D01*
X128015397Y-147245388D01*
X128066308Y-148234846D01*
X128156520Y-148806129D01*
X128296956Y-149055021D01*
X128498541Y-149077306D01*
X128605139Y-149041708D01*
X129189246Y-148928920D01*
X130312837Y-148806201D01*
X131810295Y-148688892D01*
X133394323Y-148598050D01*
X135189158Y-148501812D01*
X136412028Y-148397276D01*
X137196252Y-148256592D01*
X137675149Y-148051912D01*
X137982039Y-147755387D01*
X138076632Y-147619960D01*
X138408180Y-146745574D01*
X138278184Y-146065906D01*
X137811423Y-145731127D01*
X137132678Y-145891409D01*
X136833681Y-146124083D01*
X136414984Y-146387710D01*
X136203827Y-146121885D01*
X135878686Y-145830097D01*
X135734165Y-145868600D01*
X135568558Y-146310947D01*
X135625650Y-146576353D01*
X135604026Y-147022476D01*
X135433854Y-147094222D01*
X135061571Y-146836268D01*
X135043333Y-146724964D01*
X134716216Y-146519227D01*
X133804940Y-146476836D01*
X133267169Y-146511319D01*
X132238950Y-146570995D01*
X131796797Y-146495888D01*
X131829933Y-146261768D01*
X131873188Y-146206428D01*
X132005133Y-145859500D01*
X133985000Y-145859500D01*
X134161389Y-146035889D01*
X134337778Y-145859500D01*
X134161389Y-145683111D01*
X133985000Y-145859500D01*
X132005133Y-145859500D01*
X132061594Y-145711047D01*
X131882972Y-145515769D01*
X131454664Y-145568335D01*
X131327474Y-145762761D01*
X130860558Y-146191438D01*
X130486887Y-146289435D01*
X129985516Y-146135653D01*
X129878728Y-145482119D01*
X129944602Y-145153944D01*
X132926667Y-145153944D01*
X133103055Y-145330333D01*
X133279444Y-145153944D01*
X133103055Y-144977556D01*
X132926667Y-145153944D01*
X129944602Y-145153944D01*
X130009592Y-144830173D01*
X130192639Y-144625027D01*
X130465847Y-144427543D01*
X130319740Y-144013129D01*
X129849756Y-143647385D01*
X129839861Y-143643271D01*
X129341535Y-143227529D01*
X129169880Y-142690150D01*
X129350577Y-142292283D01*
X129701550Y-142236807D01*
X130056690Y-142155796D01*
X130263556Y-141671099D01*
X130377724Y-140640337D01*
X130387464Y-140479639D01*
X130428307Y-139445610D01*
X130418999Y-138773343D01*
X130385135Y-138627556D01*
X130007989Y-138540532D01*
X129232576Y-138328136D01*
X129131977Y-138299404D01*
X127987778Y-137971252D01*
X127987778Y-143628814D01*
X127281089Y-143628814D01*
X127280900Y-143595843D01*
X127279577Y-137745611D01*
X125695427Y-137094144D01*
X124046652Y-136089570D01*
X122494680Y-134559122D01*
X121156985Y-132682181D01*
X120151040Y-130638126D01*
X119594321Y-128606336D01*
X119521111Y-127666141D01*
X119334498Y-126791189D01*
X118991944Y-126280333D01*
X118581751Y-125631570D01*
X118482162Y-124828786D01*
X118705711Y-124189679D01*
X118903750Y-124044527D01*
X118931546Y-123912463D01*
X118388992Y-123839528D01*
X118363511Y-123838740D01*
X117473558Y-123589866D01*
X117156455Y-122994694D01*
X117463110Y-122181671D01*
X117626242Y-121978477D01*
X117982732Y-121566756D01*
X118060114Y-121372109D01*
X117751929Y-121390187D01*
X116951716Y-121616639D01*
X115993333Y-121911756D01*
X115419874Y-121919508D01*
X115306236Y-121522269D01*
X115637476Y-120836975D01*
X116217828Y-120154828D01*
X116708899Y-119567377D01*
X116790517Y-119245563D01*
X116721796Y-119224778D01*
X116142439Y-119453757D01*
X115766548Y-119753944D01*
X115126448Y-120226955D01*
X114731969Y-120064110D01*
X114526821Y-119237615D01*
X114516379Y-119136583D01*
X114342863Y-118335664D01*
X113966895Y-118084543D01*
X113762300Y-118099725D01*
X112872892Y-117958071D01*
X112299846Y-117235590D01*
X112107376Y-116094776D01*
X112012826Y-115087568D01*
X111789334Y-114335943D01*
X111760000Y-114285889D01*
X111474746Y-113998858D01*
X111412624Y-114197694D01*
X111122591Y-114587134D01*
X110871334Y-114638667D01*
X110507303Y-114449219D01*
X110548428Y-113790670D01*
X110557383Y-113754403D01*
X110643632Y-112795346D01*
X110552390Y-111664125D01*
X110538505Y-111586496D01*
X110297692Y-110302852D01*
X109598725Y-111452212D01*
X109123524Y-112154423D01*
X108808918Y-112474859D01*
X108769907Y-112471722D01*
X108738027Y-112087867D01*
X108754810Y-111154522D01*
X108815607Y-109825735D01*
X108882872Y-108727769D01*
X108977661Y-107026759D01*
X108984838Y-105925344D01*
X108898695Y-105322335D01*
X108713522Y-105116541D01*
X108678955Y-105113667D01*
X108405339Y-104838219D01*
X108258636Y-103971255D01*
X108224378Y-102908805D01*
X108216534Y-100703944D01*
X107563963Y-101552760D01*
X106837511Y-102169702D01*
X106308797Y-102170338D01*
X106034723Y-101990982D01*
X105878619Y-101621149D01*
X105827216Y-100924681D01*
X105867246Y-99765419D01*
X105950480Y-98493522D01*
X106194760Y-95047944D01*
X103822500Y-95059500D01*
X103822500Y-92766444D01*
X103860814Y-91265054D01*
X103959707Y-89788917D01*
X104057030Y-88947873D01*
X104161863Y-88001065D01*
X104069987Y-87605762D01*
X103802655Y-87609967D01*
X103188205Y-87538161D01*
X102764359Y-87248184D01*
X102502555Y-86859407D01*
X102369194Y-86251286D01*
X102351551Y-85270331D01*
X102436902Y-83763056D01*
X102455096Y-83517842D01*
X102561765Y-82019833D01*
X102592171Y-81106844D01*
X102526336Y-80660590D01*
X102344285Y-80562785D01*
X102026042Y-80695142D01*
X101982330Y-80718424D01*
X101339766Y-80932534D01*
X101046662Y-80877180D01*
X100853605Y-80310612D01*
X100850944Y-79808582D01*
X101539071Y-79808582D01*
X101823065Y-79931490D01*
X102467853Y-79844361D01*
X103406262Y-79608835D01*
X103171638Y-83189029D01*
X103078523Y-84837244D01*
X103064664Y-85900585D01*
X103139079Y-86496228D01*
X103310784Y-86741351D01*
X103447132Y-86769222D01*
X104061596Y-86534952D01*
X104194275Y-86385706D01*
X104588909Y-86213168D01*
X104758216Y-86329105D01*
X104877645Y-86847324D01*
X104857421Y-87951520D01*
X104700438Y-89536668D01*
X104661515Y-89837740D01*
X104449238Y-91678400D01*
X104405656Y-92927602D01*
X104554142Y-93684318D01*
X104918070Y-94047517D01*
X105520813Y-94116171D01*
X105668973Y-94103593D01*
X106644722Y-94001167D01*
X106548332Y-97793528D01*
X106522696Y-99333267D01*
X106527759Y-100572389D01*
X106561266Y-101366969D01*
X106607754Y-101585889D01*
X106871692Y-101315658D01*
X107344183Y-100639368D01*
X107528025Y-100348969D01*
X108070384Y-99626966D01*
X108513258Y-99300280D01*
X108615131Y-99311455D01*
X108786868Y-99744558D01*
X108903898Y-100665205D01*
X108937778Y-101627529D01*
X108981868Y-102854505D01*
X109123737Y-103446694D01*
X109345661Y-103492110D01*
X109533851Y-103561401D01*
X109623690Y-104116050D01*
X109620364Y-105232917D01*
X109554120Y-106582660D01*
X109469331Y-108132044D01*
X109453486Y-109108097D01*
X109527954Y-109641435D01*
X109714103Y-109862678D01*
X110033304Y-109902443D01*
X110096952Y-109900732D01*
X110632379Y-110045520D01*
X110990414Y-110632329D01*
X111178387Y-111287278D01*
X111502799Y-112268248D01*
X111888241Y-112955345D01*
X111986036Y-113051167D01*
X112293892Y-113578117D01*
X112585043Y-114556039D01*
X112730926Y-115344222D01*
X112937297Y-116485447D01*
X113191178Y-117080383D01*
X113571794Y-117287584D01*
X113707012Y-117297628D01*
X114747672Y-117543913D01*
X115247702Y-118213023D01*
X115287778Y-118560046D01*
X115346787Y-119033751D01*
X115651587Y-118994109D01*
X116033833Y-118742228D01*
X116820052Y-118415910D01*
X117473973Y-118498060D01*
X117756958Y-118956418D01*
X117757222Y-118975201D01*
X117534847Y-119479161D01*
X116999124Y-120162625D01*
X116990172Y-120172180D01*
X116571175Y-120778405D01*
X116661590Y-121005664D01*
X117153900Y-120732653D01*
X117336409Y-120562813D01*
X117789588Y-120344786D01*
X118329142Y-120703902D01*
X118343345Y-120718044D01*
X118710821Y-121179789D01*
X118668377Y-121632736D01*
X118312122Y-122233625D01*
X117921438Y-122870837D01*
X117935516Y-123086063D01*
X118345880Y-123042807D01*
X118648964Y-122909739D01*
X118840056Y-122563661D01*
X118944117Y-121870471D01*
X118986108Y-120696068D01*
X118991944Y-119571829D01*
X118932467Y-117283139D01*
X118768072Y-114853749D01*
X118519815Y-112464213D01*
X118208750Y-110295081D01*
X117855932Y-108526906D01*
X117600320Y-107638343D01*
X117065181Y-106501805D01*
X116167357Y-105001475D01*
X115014875Y-103299144D01*
X113715761Y-101556606D01*
X113372312Y-101134119D01*
X114525554Y-101134119D01*
X114872261Y-101790504D01*
X115325660Y-102467833D01*
X116051524Y-103456063D01*
X116465028Y-103929815D01*
X116652097Y-103957005D01*
X116698653Y-103605546D01*
X116698889Y-103553234D01*
X116482121Y-102975117D01*
X115957264Y-102194785D01*
X115312489Y-101444025D01*
X114735968Y-100954621D01*
X114528942Y-100880333D01*
X114525554Y-101134119D01*
X113372312Y-101134119D01*
X112730139Y-100344165D01*
X111940881Y-99285178D01*
X111692779Y-98650884D01*
X111949141Y-98461127D01*
X112673276Y-98735752D01*
X113828495Y-99494603D01*
X114026034Y-99643281D01*
X114887222Y-100263802D01*
X115472950Y-100615360D01*
X115640555Y-100638289D01*
X115536878Y-100207066D01*
X115264712Y-99301479D01*
X114882357Y-98115278D01*
X114871651Y-98082980D01*
X114002376Y-95931870D01*
X112759817Y-93656937D01*
X111070523Y-91130807D01*
X110125274Y-89852088D01*
X110115627Y-89838780D01*
X111343929Y-89838780D01*
X111565620Y-90295961D01*
X111819819Y-90655238D01*
X112409789Y-91344464D01*
X112737812Y-91528223D01*
X112724644Y-91198842D01*
X112503938Y-90721496D01*
X111968383Y-90064552D01*
X111590095Y-89819136D01*
X111343929Y-89838780D01*
X110115627Y-89838780D01*
X109368617Y-88808377D01*
X108819045Y-87963946D01*
X108586607Y-87488932D01*
X108585000Y-87470838D01*
X108810774Y-87146233D01*
X109434313Y-87312018D01*
X110374937Y-87940024D01*
X110701667Y-88209861D01*
X111936389Y-89269047D01*
X112050208Y-88349191D01*
X111966709Y-87451371D01*
X111618450Y-86350804D01*
X111481763Y-86050358D01*
X111136441Y-85268560D01*
X111043304Y-84867953D01*
X111103361Y-84859176D01*
X111380693Y-84900335D01*
X111264948Y-84423502D01*
X110748677Y-83402224D01*
X110636706Y-83201282D01*
X110112556Y-82373317D01*
X109690070Y-81885508D01*
X109578372Y-81830333D01*
X109354297Y-81600362D01*
X109361049Y-81565750D01*
X109267908Y-81160546D01*
X110448826Y-81160546D01*
X110522845Y-81514036D01*
X110547959Y-81580965D01*
X110827427Y-82012956D01*
X110986313Y-82016057D01*
X110946742Y-81642868D01*
X110745442Y-81383481D01*
X110448826Y-81160546D01*
X109267908Y-81160546D01*
X109258239Y-81118484D01*
X108917220Y-80285313D01*
X108687893Y-79802657D01*
X108256385Y-78727697D01*
X108258606Y-78189774D01*
X108654753Y-78219571D01*
X109405024Y-78847767D01*
X109624211Y-79080912D01*
X110680984Y-80242833D01*
X110691325Y-78990472D01*
X110738872Y-78556132D01*
X111782833Y-78556132D01*
X111824263Y-79671713D01*
X111872971Y-80379427D01*
X112067984Y-82558144D01*
X112333583Y-84806222D01*
X112640270Y-86914723D01*
X112958547Y-88674707D01*
X113173538Y-89591444D01*
X113985558Y-92482775D01*
X114762837Y-95124616D01*
X115479327Y-97436525D01*
X116108983Y-99338059D01*
X116625756Y-100748778D01*
X117003599Y-101588238D01*
X117108749Y-101744639D01*
X117366405Y-102363577D01*
X117404444Y-102719704D01*
X117483281Y-103318249D01*
X117696016Y-104425147D01*
X118006987Y-105863874D01*
X118263254Y-106970676D01*
X118656036Y-108730482D01*
X119001335Y-110472995D01*
X119249063Y-111936341D01*
X119325024Y-112522000D01*
X119469956Y-113833631D01*
X119665977Y-115512388D01*
X119874124Y-117225610D01*
X119903468Y-117460889D01*
X120077079Y-119220103D01*
X120184908Y-121063680D01*
X120205996Y-122620501D01*
X120202315Y-122752556D01*
X120168663Y-124265916D01*
X120162210Y-125765724D01*
X120176172Y-126620512D01*
X120226835Y-127565356D01*
X120348747Y-127918309D01*
X120619786Y-127793004D01*
X120837131Y-127584948D01*
X121242840Y-127013952D01*
X121100193Y-126427517D01*
X120989077Y-126240277D01*
X120712360Y-125551940D01*
X120846504Y-125250766D01*
X121266168Y-125465683D01*
X121487661Y-125727437D01*
X121855027Y-126155217D01*
X122194338Y-126150131D01*
X122754793Y-125685091D01*
X122869929Y-125577193D01*
X123448516Y-125121801D01*
X123744438Y-125061277D01*
X123754444Y-125105830D01*
X123516482Y-125589642D01*
X123047203Y-126105470D01*
X122607799Y-126550284D01*
X122532655Y-126942060D01*
X122819972Y-127555874D01*
X123035305Y-127924035D01*
X123431214Y-128758249D01*
X123394368Y-129076291D01*
X123003511Y-128847972D01*
X122420854Y-128159618D01*
X121733972Y-127216680D01*
X121105658Y-128175607D01*
X120717746Y-128928889D01*
X120683132Y-129672209D01*
X120888693Y-130507492D01*
X121341929Y-131548111D01*
X122078893Y-132790111D01*
X122683565Y-133630738D01*
X123374324Y-134437166D01*
X124124078Y-135141219D01*
X125001189Y-135766214D01*
X126074020Y-136335467D01*
X127410935Y-136872296D01*
X129080296Y-137400017D01*
X131150466Y-137941948D01*
X133689809Y-138521404D01*
X136766686Y-139161703D01*
X140449463Y-139886162D01*
X141766688Y-140139496D01*
X143925191Y-140498660D01*
X146034884Y-140752312D01*
X147959071Y-140893018D01*
X149561058Y-140913343D01*
X150704149Y-140805853D01*
X151158540Y-140650273D01*
X151673195Y-140633929D01*
X151823797Y-140782277D01*
X152288757Y-140960864D01*
X153241481Y-141009991D01*
X154479118Y-140944628D01*
X155798816Y-140779742D01*
X156997724Y-140530301D01*
X157536852Y-140360724D01*
X158622568Y-139721143D01*
X160009196Y-138527405D01*
X161640559Y-136833872D01*
X163460482Y-134694908D01*
X163702192Y-134394222D01*
X165058029Y-132748301D01*
X166658388Y-130887739D01*
X168413136Y-128909471D01*
X170232137Y-126910434D01*
X172025258Y-124987564D01*
X173702365Y-123237795D01*
X175173322Y-121758065D01*
X176347995Y-120645308D01*
X176993876Y-120099555D01*
X177950892Y-119341385D01*
X178388134Y-118891226D01*
X178370017Y-118661445D01*
X178108701Y-118582881D01*
X177468047Y-118380891D01*
X177468585Y-118119028D01*
X178056882Y-117861139D01*
X178838841Y-117710448D01*
X179619249Y-117543086D01*
X180311554Y-117200079D01*
X181074174Y-116567048D01*
X182065525Y-115529612D01*
X182445526Y-115106359D01*
X183753720Y-113670273D01*
X185275802Y-112048106D01*
X186722003Y-110547883D01*
X186980574Y-110285604D01*
X187646757Y-109598075D01*
X188890725Y-109598075D01*
X189187202Y-109674371D01*
X189251557Y-109672436D01*
X189946105Y-109540500D01*
X191002793Y-109233868D01*
X191664167Y-109008390D01*
X192665450Y-108633797D01*
X193079826Y-108401068D01*
X192985457Y-108216493D01*
X192502637Y-108003133D01*
X191397159Y-107626376D01*
X190659229Y-107623876D01*
X190030578Y-108044077D01*
X189569651Y-108553250D01*
X189005989Y-109267361D01*
X188890725Y-109598075D01*
X187646757Y-109598075D01*
X188100666Y-109129623D01*
X188804298Y-108303282D01*
X189186885Y-107650633D01*
X189343838Y-107015726D01*
X189371111Y-106378348D01*
X189223718Y-105147479D01*
X188707941Y-104272242D01*
X188535106Y-104098492D01*
X187699102Y-103313106D01*
X187481590Y-104125192D01*
X187300689Y-105166549D01*
X187259261Y-105801583D01*
X187179240Y-106372101D01*
X186909146Y-106317749D01*
X186853159Y-106264603D01*
X186630830Y-105711901D01*
X186743668Y-104729731D01*
X186811339Y-104447135D01*
X186992899Y-103522457D01*
X187012511Y-102921380D01*
X186977439Y-102837587D01*
X186319972Y-102629916D01*
X185251646Y-102753127D01*
X183948487Y-103146476D01*
X182586525Y-103749217D01*
X181341784Y-104500605D01*
X180728056Y-104994187D01*
X179899153Y-105606007D01*
X178892904Y-106169638D01*
X178887845Y-106172000D01*
X178161549Y-106638411D01*
X177103650Y-107476309D01*
X175875663Y-108552561D01*
X175007290Y-109370699D01*
X173277144Y-111015811D01*
X171882482Y-112235476D01*
X170684410Y-113126527D01*
X169544038Y-113785797D01*
X168322472Y-114310120D01*
X167518584Y-114591692D01*
X165015608Y-115186506D01*
X162791738Y-115241245D01*
X160910981Y-114764367D01*
X159437342Y-113764326D01*
X159187614Y-113491043D01*
X158701975Y-112854432D01*
X158358815Y-112199329D01*
X158145096Y-111406901D01*
X158047777Y-110358311D01*
X158053818Y-108934723D01*
X158150180Y-107017302D01*
X158274733Y-105171661D01*
X158563965Y-101694032D01*
X158741873Y-100214011D01*
X159451683Y-100214011D01*
X159560452Y-100480345D01*
X159883037Y-100123668D01*
X160445495Y-99137692D01*
X161273879Y-97516133D01*
X161297254Y-97469332D01*
X161890236Y-96238140D01*
X162333791Y-95234239D01*
X162550393Y-94635580D01*
X162560000Y-94570813D01*
X162297912Y-94495741D01*
X161641903Y-94753469D01*
X161358876Y-94910031D01*
X160675246Y-95385431D01*
X160251270Y-95952223D01*
X159966740Y-96832081D01*
X159771376Y-97837447D01*
X159530676Y-99330949D01*
X159451683Y-100214011D01*
X158741873Y-100214011D01*
X158917127Y-98756084D01*
X159372664Y-96192405D01*
X159969023Y-93837581D01*
X160744649Y-91526200D01*
X161737987Y-89092848D01*
X162305884Y-87827556D01*
X163206023Y-85655242D01*
X163332696Y-85299569D01*
X164386247Y-85299569D01*
X164615181Y-85161474D01*
X165114822Y-84384778D01*
X165882474Y-82971574D01*
X166915438Y-80923953D01*
X167134273Y-80478080D01*
X168915595Y-76835465D01*
X167646519Y-77881545D01*
X166893998Y-78634763D01*
X166267990Y-79615270D01*
X165660071Y-81011022D01*
X165350666Y-81861333D01*
X164751292Y-83651591D01*
X164430719Y-84796972D01*
X164386247Y-85299569D01*
X163332696Y-85299569D01*
X164126014Y-83072104D01*
X164973196Y-80363846D01*
X165654910Y-77816170D01*
X165883076Y-76797898D01*
X166223240Y-75281948D01*
X166589417Y-73853725D01*
X166906561Y-72804379D01*
X166927685Y-72745192D01*
X167506739Y-70718256D01*
X167525728Y-70614927D01*
X168273015Y-70614927D01*
X168458877Y-70538212D01*
X168940797Y-69916880D01*
X169123438Y-69659500D01*
X169940733Y-68411773D01*
X170750330Y-67047311D01*
X170938018Y-66704217D01*
X171387756Y-65795238D01*
X171628123Y-65179856D01*
X171637904Y-65037867D01*
X171302065Y-65141302D01*
X170600222Y-65545444D01*
X170255125Y-65772288D01*
X169281768Y-66647444D01*
X168803107Y-67719986D01*
X168751788Y-67967805D01*
X168536797Y-69110773D01*
X168336552Y-70110680D01*
X168319986Y-70188667D01*
X168273015Y-70614927D01*
X167525728Y-70614927D01*
X167943355Y-68342466D01*
X168179242Y-65969487D01*
X168204444Y-65042454D01*
X168050039Y-63240257D01*
X167568112Y-62053527D01*
X166730600Y-61465936D01*
X165509440Y-61461154D01*
X163876568Y-62022854D01*
X163402926Y-62248784D01*
X161966881Y-63128579D01*
X160929797Y-64095778D01*
X160378053Y-65044103D01*
X160398028Y-65867277D01*
X160422294Y-65916020D01*
X160592096Y-66421145D01*
X160252356Y-66537018D01*
X160169345Y-66531929D01*
X159834101Y-66621696D01*
X159608936Y-67045306D01*
X159447338Y-67939249D01*
X159343952Y-68953944D01*
X159145100Y-70400066D01*
X158771595Y-71810010D01*
X158150952Y-73414193D01*
X157476622Y-74889836D01*
X156678405Y-76677875D01*
X156184700Y-78034483D01*
X156021370Y-78884928D01*
X156042137Y-79034975D01*
X156049742Y-79589994D01*
X155692069Y-79713667D01*
X155193895Y-80053552D01*
X154579712Y-81047924D01*
X153869065Y-82658857D01*
X153146976Y-84652556D01*
X152592521Y-86124287D01*
X151852553Y-87848530D01*
X151018647Y-89634865D01*
X150182378Y-91292874D01*
X149435321Y-92632137D01*
X148970688Y-93336627D01*
X148417074Y-94148001D01*
X148114985Y-94757127D01*
X148096111Y-94859573D01*
X147930037Y-95235057D01*
X147551920Y-95113282D01*
X147141918Y-94583495D01*
X147029046Y-94330979D01*
X146776866Y-93110428D01*
X146713486Y-91418865D01*
X146833971Y-89463716D01*
X147133383Y-87452402D01*
X147200531Y-87125370D01*
X147428884Y-85943925D01*
X147551850Y-85066427D01*
X147543977Y-84688384D01*
X147608870Y-84337141D01*
X147806788Y-84046931D01*
X147955071Y-83516214D01*
X148077169Y-82376476D01*
X148165823Y-80838231D01*
X148973983Y-80838231D01*
X149039723Y-81334658D01*
X149248342Y-81572198D01*
X149529489Y-81220075D01*
X149735382Y-80768053D01*
X150058241Y-79917446D01*
X150210925Y-79352329D01*
X150212778Y-79320386D01*
X149942004Y-79018136D01*
X149851268Y-79008111D01*
X149449077Y-79310880D01*
X149121968Y-80020343D01*
X148973983Y-80838231D01*
X148165823Y-80838231D01*
X148172419Y-80723790D01*
X148240162Y-78654228D01*
X148279737Y-76263863D01*
X148290484Y-73648767D01*
X148271743Y-70905014D01*
X148222853Y-68128675D01*
X148168916Y-66292716D01*
X148926758Y-66292716D01*
X148945302Y-66526355D01*
X149041140Y-67114977D01*
X149113870Y-68206890D01*
X149151658Y-69599923D01*
X149154444Y-70099927D01*
X149172127Y-71437358D01*
X149219383Y-72432054D01*
X149287525Y-72934429D01*
X149320696Y-72962230D01*
X149518283Y-72572436D01*
X149883126Y-71701377D01*
X150339650Y-70530241D01*
X150382799Y-70415921D01*
X150977029Y-68734062D01*
X151582424Y-66859101D01*
X151951853Y-65606528D01*
X152282432Y-64341844D01*
X152403645Y-63630777D01*
X152323783Y-63355800D01*
X152109258Y-63375122D01*
X151753797Y-63638702D01*
X151775887Y-63755480D01*
X151608694Y-64025530D01*
X150985425Y-64529076D01*
X150347237Y-64959622D01*
X149324624Y-65712607D01*
X148926758Y-66292716D01*
X148168916Y-66292716D01*
X148143154Y-65415824D01*
X148031985Y-62862533D01*
X147960937Y-61620457D01*
X147798818Y-59241432D01*
X147761420Y-58811583D01*
X148451428Y-58811583D01*
X148474849Y-59846639D01*
X148537727Y-60518857D01*
X148593391Y-60663667D01*
X148815921Y-60376474D01*
X149286715Y-59609411D01*
X149920315Y-58504247D01*
X150207614Y-57985760D01*
X150854008Y-56770341D01*
X151324767Y-55812005D01*
X151548843Y-55258783D01*
X151552731Y-55183250D01*
X151212751Y-55283784D01*
X150480831Y-55677647D01*
X149941047Y-56009073D01*
X149069953Y-56609064D01*
X148629067Y-57142075D01*
X148471719Y-57884048D01*
X148451428Y-58811583D01*
X147761420Y-58811583D01*
X147645838Y-57483117D01*
X147490190Y-56260979D01*
X147320067Y-55490485D01*
X147123661Y-55087100D01*
X147037778Y-55011276D01*
X146357040Y-54810778D01*
X145281538Y-54702538D01*
X144096837Y-54691364D01*
X143088501Y-54782065D01*
X142592673Y-54936430D01*
X142110384Y-55425612D01*
X141725819Y-56234012D01*
X141418763Y-57450381D01*
X141169001Y-59163475D01*
X140956320Y-61462045D01*
X140886471Y-62427556D01*
X140727428Y-63956179D01*
X140480978Y-65552849D01*
X140365767Y-66131722D01*
X140129856Y-67490981D01*
X139933360Y-69121603D01*
X139849057Y-70188667D01*
X139712884Y-71577834D01*
X139491546Y-72836716D01*
X139287382Y-73540056D01*
X139081321Y-74326336D01*
X138864895Y-75618458D01*
X138667683Y-77217838D01*
X138551779Y-78478944D01*
X138391279Y-80280145D01*
X138201715Y-82021051D01*
X138011114Y-83459411D01*
X137898748Y-84123389D01*
X137692796Y-85241864D01*
X137425647Y-86804597D01*
X137129045Y-88612515D01*
X136834735Y-90466543D01*
X136574460Y-92167608D01*
X136379965Y-93516637D01*
X136298210Y-94160659D01*
X136110444Y-94970571D01*
X135829665Y-95182108D01*
X135503383Y-94888313D01*
X135179111Y-94182229D01*
X134904358Y-93156902D01*
X134726637Y-91905373D01*
X134685582Y-91002556D01*
X134586527Y-89397224D01*
X134332534Y-87548613D01*
X133964404Y-85638553D01*
X133522941Y-83848878D01*
X133048945Y-82361419D01*
X132589988Y-81372592D01*
X133847796Y-81372592D01*
X134052336Y-82277990D01*
X134075540Y-82354061D01*
X134487230Y-83695469D01*
X134934866Y-81969151D01*
X135199318Y-80830394D01*
X135363583Y-79895042D01*
X135389306Y-79598405D01*
X135311533Y-79278218D01*
X135002040Y-79458447D01*
X134529981Y-79983315D01*
X133983550Y-80730092D01*
X133847796Y-81372592D01*
X132589988Y-81372592D01*
X132583218Y-81358007D01*
X132492333Y-81228426D01*
X132311663Y-80657939D01*
X132369862Y-80463942D01*
X132401998Y-79967716D01*
X132279714Y-79005795D01*
X132052669Y-77890849D01*
X131784591Y-76369972D01*
X131590988Y-74543558D01*
X131514442Y-72834500D01*
X131509543Y-72703831D01*
X132268016Y-72703831D01*
X132315466Y-73701438D01*
X132431148Y-74713797D01*
X132579953Y-75503420D01*
X132726775Y-75832822D01*
X132730610Y-75833111D01*
X132852890Y-75517826D01*
X133079187Y-74688938D01*
X133361808Y-73521895D01*
X133377928Y-73451861D01*
X133851143Y-71304449D01*
X134131845Y-69820860D01*
X134222415Y-68986810D01*
X134156995Y-68777556D01*
X133780029Y-69077898D01*
X133297732Y-69833373D01*
X132815143Y-70825649D01*
X132437305Y-71836397D01*
X132269259Y-72647285D01*
X132268016Y-72703831D01*
X131509543Y-72703831D01*
X131458438Y-71340757D01*
X131316631Y-69558033D01*
X131112548Y-67674016D01*
X130869713Y-65876394D01*
X130611651Y-64352856D01*
X130366217Y-63309500D01*
X131454096Y-63309500D01*
X131503053Y-64224743D01*
X131633244Y-65338892D01*
X131810448Y-66449820D01*
X132000449Y-67355399D01*
X132169029Y-67853500D01*
X132229590Y-67890371D01*
X132421158Y-67482973D01*
X132660009Y-66581878D01*
X132869636Y-65518739D01*
X133194522Y-63585470D01*
X133406580Y-62212171D01*
X133518769Y-61264560D01*
X133544050Y-60608356D01*
X133495382Y-60109278D01*
X133423606Y-59778917D01*
X133276497Y-59330652D01*
X133101674Y-59300282D01*
X132823470Y-59765196D01*
X132366220Y-60802783D01*
X132323243Y-60904322D01*
X131868968Y-62030833D01*
X131554325Y-62910433D01*
X131454096Y-63309500D01*
X130366217Y-63309500D01*
X130361886Y-63291089D01*
X130293634Y-63094515D01*
X129816495Y-62489928D01*
X129291984Y-62118055D01*
X128345650Y-61874262D01*
X127116114Y-61865581D01*
X125906976Y-62063088D01*
X125021842Y-62437861D01*
X124906030Y-62535891D01*
X124280803Y-63636736D01*
X124099560Y-65167344D01*
X124373647Y-67000132D01*
X124476464Y-67366444D01*
X124671377Y-68137409D01*
X124817355Y-69048285D01*
X124919814Y-70202138D01*
X124984172Y-71702034D01*
X125015845Y-73651036D01*
X125020251Y-76152211D01*
X125014172Y-77597000D01*
X125005772Y-80337779D01*
X125018823Y-82481278D01*
X125059621Y-84135610D01*
X125134460Y-85408888D01*
X125249636Y-86409224D01*
X125411443Y-87244730D01*
X125620135Y-88003944D01*
X125912754Y-89271418D01*
X126159696Y-90937426D01*
X126353071Y-92844715D01*
X126484990Y-94836033D01*
X126547565Y-96754128D01*
X126532907Y-98441748D01*
X126433126Y-99741641D01*
X126246303Y-100485674D01*
X125854948Y-101017272D01*
X125448112Y-100957736D01*
X125297009Y-100843041D01*
X124514039Y-99921833D01*
X123727091Y-98548497D01*
X123058045Y-96965143D01*
X122671510Y-95627629D01*
X122282717Y-94145778D01*
X121789652Y-92728238D01*
X121265110Y-91547116D01*
X120781884Y-90774519D01*
X120534937Y-90576146D01*
X120249667Y-90174159D01*
X120222025Y-90069156D01*
X121437250Y-90069156D01*
X121498570Y-90443070D01*
X121771750Y-90952988D01*
X121932403Y-90766864D01*
X121980072Y-89885253D01*
X121979828Y-89856028D01*
X121934214Y-89146608D01*
X121786236Y-89067431D01*
X121626488Y-89296543D01*
X121437250Y-90069156D01*
X120222025Y-90069156D01*
X120030077Y-89340016D01*
X119996868Y-89094324D01*
X119752358Y-87892211D01*
X119359795Y-86800399D01*
X119327306Y-86735544D01*
X119000342Y-85938963D01*
X118577128Y-84682278D01*
X118131463Y-83190139D01*
X117972229Y-82610569D01*
X117274946Y-80249914D01*
X116838516Y-79120318D01*
X117929655Y-79120318D01*
X118181303Y-80564413D01*
X118468472Y-81482636D01*
X118673550Y-81749362D01*
X118781391Y-81415469D01*
X118776848Y-80531831D01*
X118644775Y-79149324D01*
X118632226Y-79049754D01*
X118477626Y-77978193D01*
X118344961Y-77526328D01*
X118191339Y-77611284D01*
X118053622Y-77931797D01*
X117929655Y-79120318D01*
X116838516Y-79120318D01*
X116629047Y-78578160D01*
X116027846Y-77581049D01*
X115464653Y-77244321D01*
X115455107Y-77244222D01*
X114991485Y-77050851D01*
X114935000Y-76891444D01*
X114653823Y-76593842D01*
X113969334Y-76567109D01*
X113120097Y-76789193D01*
X112503510Y-77116233D01*
X112087487Y-77459368D01*
X111858918Y-77879009D01*
X111782833Y-78556132D01*
X110738872Y-78556132D01*
X110794387Y-78049017D01*
X111032374Y-77412629D01*
X111065844Y-77373934D01*
X111228859Y-76889684D01*
X111322957Y-76278973D01*
X112046651Y-76278973D01*
X113049130Y-76027367D01*
X113814724Y-75802143D01*
X114195242Y-75632128D01*
X114149429Y-75257106D01*
X113888771Y-74418543D01*
X113503137Y-73384418D01*
X113067761Y-72318900D01*
X112745237Y-71586903D01*
X112609918Y-71351865D01*
X112547673Y-71710691D01*
X112438605Y-72585803D01*
X112305786Y-73791405D01*
X112299544Y-73851181D01*
X112046651Y-76278973D01*
X111322957Y-76278973D01*
X111387207Y-75861982D01*
X111520491Y-74452757D01*
X111594647Y-73176242D01*
X111684807Y-71593079D01*
X111801390Y-70276118D01*
X111927926Y-69382104D01*
X112025395Y-69076605D01*
X112258784Y-69272287D01*
X112693275Y-70003887D01*
X113265297Y-71153292D01*
X113866917Y-72498186D01*
X114517794Y-73962320D01*
X115094650Y-75151216D01*
X115531072Y-75934774D01*
X115749472Y-76185889D01*
X116173845Y-76433210D01*
X116686598Y-76963870D01*
X117316569Y-77741852D01*
X117570261Y-76586804D01*
X117665895Y-75633133D01*
X117664405Y-74288097D01*
X117578394Y-72986600D01*
X117497093Y-71780323D01*
X117514199Y-70906787D01*
X117625469Y-70543217D01*
X117636903Y-70541444D01*
X117861539Y-70870541D01*
X118130349Y-71769405D01*
X118420916Y-73105398D01*
X118710822Y-74745882D01*
X118977651Y-76558216D01*
X119198988Y-78409764D01*
X119352414Y-80167886D01*
X119395728Y-80948389D01*
X119527765Y-82702678D01*
X119758130Y-84447024D01*
X120056446Y-86041816D01*
X120392339Y-87347443D01*
X120735434Y-88224295D01*
X121045923Y-88533111D01*
X121187667Y-88214273D01*
X121254821Y-87389195D01*
X121243230Y-86527088D01*
X121251522Y-85327728D01*
X121388985Y-84571316D01*
X121526966Y-84395511D01*
X121823745Y-84423383D01*
X122063314Y-84784950D01*
X122265025Y-85565302D01*
X122448232Y-86849528D01*
X122632288Y-88722720D01*
X122703284Y-89567454D01*
X122945639Y-92125584D01*
X123222500Y-94126422D01*
X123564705Y-95718223D01*
X124003093Y-97049241D01*
X124475989Y-98089452D01*
X125023130Y-99051725D01*
X125419489Y-99460941D01*
X125678195Y-99287215D01*
X125812375Y-98500662D01*
X125835158Y-97071399D01*
X125768283Y-95147694D01*
X125219777Y-90447687D01*
X124017244Y-85549127D01*
X122170784Y-80491666D01*
X122056249Y-80226001D01*
X123201313Y-80226001D01*
X123279481Y-80784358D01*
X123495996Y-81449032D01*
X123807375Y-82091818D01*
X124013865Y-82148134D01*
X124041334Y-82061618D01*
X123970756Y-81332645D01*
X123748169Y-80760274D01*
X123367065Y-80191962D01*
X123201313Y-80226001D01*
X122056249Y-80226001D01*
X121837308Y-79718170D01*
X121761205Y-79537278D01*
X122696111Y-79537278D01*
X122872500Y-79713667D01*
X123048889Y-79537278D01*
X122872500Y-79360889D01*
X122696111Y-79537278D01*
X121761205Y-79537278D01*
X121118391Y-78009351D01*
X120714917Y-76846860D01*
X120609261Y-76155032D01*
X120783796Y-75858205D01*
X120932222Y-75833111D01*
X121286278Y-76037715D01*
X121298554Y-76097694D01*
X121526045Y-76474643D01*
X122109050Y-77207210D01*
X122911872Y-78126167D01*
X124511636Y-79890055D01*
X124359947Y-77244222D01*
X124273461Y-76146723D01*
X124118819Y-75189280D01*
X123843499Y-74216006D01*
X123394979Y-73071012D01*
X122720738Y-71598408D01*
X121864685Y-69838040D01*
X121046283Y-68158796D01*
X120352441Y-66702951D01*
X120251635Y-66484500D01*
X121270068Y-66484500D01*
X122589615Y-69218528D01*
X123194167Y-70449029D01*
X123677854Y-71392202D01*
X123965088Y-71902363D01*
X124008192Y-71952556D01*
X124074682Y-71642698D01*
X124106707Y-70884566D01*
X124107222Y-70763204D01*
X123948376Y-69831950D01*
X123398180Y-68870080D01*
X122688645Y-68029176D01*
X121270068Y-66484500D01*
X120251635Y-66484500D01*
X119837768Y-65587641D01*
X119556871Y-64930005D01*
X119521111Y-64810957D01*
X119739843Y-64522116D01*
X120338938Y-64719536D01*
X121232744Y-65359721D01*
X122020626Y-66080196D01*
X123578056Y-67616169D01*
X123608159Y-65286446D01*
X123689828Y-63742123D01*
X123869191Y-62190787D01*
X124038340Y-61281758D01*
X124068957Y-61097076D01*
X124818180Y-61097076D01*
X124906854Y-61495259D01*
X125312677Y-61465841D01*
X125697151Y-61303926D01*
X126297009Y-60972850D01*
X126311641Y-60641809D01*
X125987707Y-60244818D01*
X125408903Y-59884748D01*
X124993210Y-60167922D01*
X124819151Y-61037121D01*
X124818180Y-61097076D01*
X124068957Y-61097076D01*
X124270834Y-59879374D01*
X124181915Y-59015316D01*
X123779771Y-58731389D01*
X123548860Y-58783407D01*
X123138642Y-58694754D01*
X123048889Y-58231965D01*
X122835655Y-57626648D01*
X122516511Y-57488667D01*
X122194684Y-57561774D01*
X121749787Y-57824723D01*
X121105643Y-58342957D01*
X120186074Y-59181916D01*
X118914904Y-60407044D01*
X117528243Y-61773962D01*
X116271035Y-62932213D01*
X115388003Y-63527786D01*
X114843530Y-63572356D01*
X114601998Y-63077597D01*
X114582222Y-62739509D01*
X114507103Y-62259656D01*
X114157402Y-62342623D01*
X113929931Y-62495746D01*
X113417787Y-62955692D01*
X112586715Y-63805851D01*
X111576686Y-64900504D01*
X111030387Y-65514361D01*
X110008300Y-66617235D01*
X109106463Y-67481410D01*
X108453750Y-67988602D01*
X108243095Y-68072631D01*
X107769386Y-68351114D01*
X107119195Y-69067940D01*
X106644722Y-69743573D01*
X106141010Y-70599990D01*
X105463619Y-71835506D01*
X104680780Y-73315614D01*
X103860722Y-74905808D01*
X103071678Y-76471581D01*
X102381877Y-77878428D01*
X101859551Y-78991841D01*
X101572929Y-79677314D01*
X101539071Y-79808582D01*
X100850944Y-79808582D01*
X100849052Y-79451820D01*
X101016422Y-78683678D01*
X101151273Y-78461305D01*
X101433595Y-78023830D01*
X101947047Y-77095892D01*
X102614089Y-75821483D01*
X103231491Y-74598389D01*
X104744670Y-71652430D01*
X106030614Y-69364423D01*
X107094616Y-67726179D01*
X107941969Y-66729513D01*
X108551118Y-66369481D01*
X109193629Y-66056522D01*
X110070294Y-65362108D01*
X110807321Y-64630993D01*
X112332830Y-63014750D01*
X113482691Y-61935664D01*
X114303650Y-61365750D01*
X114842455Y-61277017D01*
X115145852Y-61641479D01*
X115224119Y-61986583D01*
X115439735Y-62550635D01*
X115759005Y-62808383D01*
X115977803Y-62630684D01*
X115993333Y-62473233D01*
X116231995Y-62082280D01*
X116848072Y-61394214D01*
X117455829Y-60797539D01*
X118421164Y-59892382D01*
X119291118Y-59073673D01*
X119661525Y-58723389D01*
X120979147Y-57579110D01*
X122080370Y-56830241D01*
X122891266Y-56512117D01*
X123337905Y-56660073D01*
X123401667Y-56935727D01*
X123466501Y-57335977D01*
X123709468Y-57407632D01*
X124203264Y-57104228D01*
X125020586Y-56379304D01*
X126234129Y-55186397D01*
X126400278Y-55019222D01*
X127465899Y-53970361D01*
X128353924Y-53142752D01*
X128945084Y-52645044D01*
X129111102Y-52549778D01*
X129512729Y-52782613D01*
X130101503Y-53333447D01*
X130681943Y-53850758D01*
X131171412Y-53865086D01*
X131614551Y-53623657D01*
X133312640Y-52683150D01*
X134643953Y-52221696D01*
X135562983Y-52250631D01*
X135925278Y-52549778D01*
X136497159Y-52877486D01*
X137381980Y-52779651D01*
X138354844Y-52287392D01*
X138474848Y-52197000D01*
X139632071Y-51644023D01*
X140718754Y-51491444D01*
X141853689Y-51379393D01*
X142898780Y-51094434D01*
X143637476Y-50713363D01*
X143862778Y-50376485D01*
X144170937Y-50182477D01*
X144921627Y-50106918D01*
X145009306Y-50108184D01*
X145009306Y-50108184D01*
G37*
X145009306Y-50108184D02*
X145630321Y-50176507D01*
X145691991Y-50309262D01*
X145626667Y-50339458D01*
X145006472Y-50679299D01*
X144161776Y-51253711D01*
X144005868Y-51369940D01*
X142821756Y-51995265D01*
X141350851Y-52196334D01*
X141239289Y-52197000D01*
X139634425Y-52404712D01*
X138667374Y-52902556D01*
X137394636Y-53522039D01*
X136080494Y-53480807D01*
X135387636Y-53168171D01*
X134880976Y-52962288D01*
X134288672Y-53042472D01*
X133399742Y-53454696D01*
X132959181Y-53697337D01*
X131742202Y-54336531D01*
X130924040Y-54605552D01*
X130316624Y-54525851D01*
X129731881Y-54118879D01*
X129678947Y-54071468D01*
X129337102Y-53817590D01*
X128991274Y-53793036D01*
X128516671Y-54067801D01*
X127788504Y-54711877D01*
X126781441Y-55696645D01*
X124541376Y-57916799D01*
X125928710Y-59170172D01*
X126715912Y-59783218D01*
X127752620Y-60464504D01*
X128869164Y-61119416D01*
X129895877Y-61653340D01*
X130663091Y-61971662D01*
X130992795Y-61994108D01*
X131348734Y-61376767D01*
X131824832Y-60304070D01*
X132330773Y-58994092D01*
X132749153Y-57753250D01*
X133225931Y-56494179D01*
X133684293Y-55819438D01*
X133902922Y-55724778D01*
X134115659Y-55814181D01*
X134250627Y-56152637D01*
X134315353Y-56845518D01*
X134317368Y-57998192D01*
X134264198Y-59716031D01*
X134236892Y-60399083D01*
X134107132Y-62552548D01*
X133913329Y-64497023D01*
X133676614Y-66050877D01*
X133487877Y-66837278D01*
X132931785Y-68601167D01*
X133626937Y-67719222D01*
X134124694Y-66911615D01*
X134329933Y-66240736D01*
X134506174Y-65637032D01*
X134871282Y-65359230D01*
X135170366Y-65522696D01*
X135256268Y-66106007D01*
X135201982Y-67222072D01*
X135032467Y-68717685D01*
X134772681Y-70439645D01*
X134447584Y-72234747D01*
X134082134Y-73949788D01*
X133701290Y-75431565D01*
X133410713Y-76323920D01*
X133149758Y-77382661D01*
X133101225Y-78442046D01*
X133249253Y-79286710D01*
X133577982Y-79701290D01*
X133660355Y-79713667D01*
X133993919Y-79429095D01*
X134517378Y-78693912D01*
X134955242Y-77954860D01*
X135529196Y-76998345D01*
X136002570Y-76357453D01*
X136215246Y-76190972D01*
X136342677Y-76520811D01*
X136329201Y-77470777D01*
X136181357Y-78971017D01*
X135905685Y-80951681D01*
X135588254Y-82888667D01*
X135404776Y-84360560D01*
X135306650Y-86036410D01*
X135290142Y-87746408D01*
X135351519Y-89320744D01*
X135487047Y-90589610D01*
X135692992Y-91383196D01*
X135777916Y-91514083D01*
X136025548Y-91508414D01*
X136103752Y-90984917D01*
X136160233Y-90341069D01*
X136314301Y-89148440D01*
X136545207Y-87553812D01*
X136832206Y-85703965D01*
X136973870Y-84828944D01*
X137297608Y-82650701D01*
X137573901Y-80405828D01*
X137777259Y-78330006D01*
X137882189Y-76658915D01*
X137889636Y-76362278D01*
X137843973Y-74590694D01*
X137678768Y-72582567D01*
X137469508Y-70923620D01*
X138229061Y-70923620D01*
X138357058Y-71541800D01*
X138652695Y-71859309D01*
X138838633Y-71802626D01*
X138806992Y-71420658D01*
X138614176Y-71008876D01*
X138325595Y-70602199D01*
X138232939Y-70812914D01*
X138229061Y-70923620D01*
X137469508Y-70923620D01*
X137423004Y-70554955D01*
X137105662Y-68724919D01*
X136755723Y-67309516D01*
X136634411Y-66961156D01*
X136617914Y-66356256D01*
X136778919Y-66149215D01*
X137136195Y-66300229D01*
X137631101Y-66964734D01*
X137923145Y-67507241D01*
X138409571Y-68382292D01*
X138809637Y-68883029D01*
X138958050Y-68932832D01*
X139129206Y-68523096D01*
X139315258Y-67615263D01*
X139460975Y-66532114D01*
X139553829Y-65018142D01*
X139429704Y-63946162D01*
X139164337Y-63256988D01*
X138679152Y-62063205D01*
X138469782Y-61369222D01*
X139276667Y-61369222D01*
X139405742Y-61659598D01*
X139511852Y-61604407D01*
X139554072Y-61185743D01*
X139511852Y-61134037D01*
X139302126Y-61182463D01*
X139276667Y-61369222D01*
X138469782Y-61369222D01*
X138191698Y-60447480D01*
X138159249Y-60310889D01*
X138923889Y-60310889D01*
X139052965Y-60601265D01*
X139159074Y-60546074D01*
X139201295Y-60127409D01*
X139159074Y-60075704D01*
X138949348Y-60124129D01*
X138923889Y-60310889D01*
X138159249Y-60310889D01*
X137907824Y-59252556D01*
X138571111Y-59252556D01*
X138700187Y-59542932D01*
X138806296Y-59487741D01*
X138848517Y-59069076D01*
X138806296Y-59017370D01*
X138596570Y-59065796D01*
X138571111Y-59252556D01*
X137907824Y-59252556D01*
X137774059Y-58689497D01*
X137498319Y-57068941D01*
X137450325Y-56606722D01*
X137428506Y-55689438D01*
X137610338Y-55280867D01*
X138002814Y-55195611D01*
X138509256Y-55428202D01*
X139007727Y-56190938D01*
X139393494Y-57101696D01*
X139828808Y-58120401D01*
X140158767Y-58517171D01*
X140426664Y-58269809D01*
X140675794Y-57356114D01*
X140855044Y-56352278D01*
X141311512Y-55144131D01*
X142136116Y-54288452D01*
X143159063Y-53960906D01*
X143166514Y-53960889D01*
X143479019Y-53827696D01*
X144921111Y-53827696D01*
X145209216Y-53946172D01*
X145450278Y-53960889D01*
X145907787Y-53675241D01*
X145979444Y-53388526D01*
X145886658Y-53014179D01*
X145501560Y-53213306D01*
X145450278Y-53255333D01*
X145011842Y-53678045D01*
X144921111Y-53827696D01*
X143479019Y-53827696D01*
X143726586Y-53722181D01*
X144514114Y-53116442D01*
X144921111Y-52726167D01*
X145873646Y-51837806D01*
X146442103Y-51537002D01*
X146631237Y-51822568D01*
X146553922Y-52318454D01*
X146585724Y-53105829D01*
X147094847Y-54091416D01*
X147460086Y-54594556D01*
X148573817Y-56043648D01*
X149613738Y-55443241D01*
X150593918Y-54781429D01*
X151605601Y-53963149D01*
X151705249Y-53872694D01*
X152587008Y-53161910D01*
X153177913Y-52896659D01*
X153387778Y-53107046D01*
X153235296Y-53477949D01*
X152816316Y-54357691D01*
X152188541Y-55628450D01*
X151409669Y-57172403D01*
X151094722Y-57789361D01*
X150011860Y-59987663D01*
X149287648Y-61663353D01*
X148895082Y-62884648D01*
X148801667Y-63582093D01*
X148880169Y-64429584D01*
X149074677Y-64876467D01*
X149132989Y-64897000D01*
X149557047Y-64681739D01*
X150323181Y-64122605D01*
X151094722Y-63485889D01*
X152011094Y-62738683D01*
X152739919Y-62227125D01*
X153072441Y-62074778D01*
X153252115Y-62385271D01*
X153194391Y-63250225D01*
X152926005Y-64569851D01*
X152473690Y-66244358D01*
X151864181Y-68173959D01*
X151124212Y-70258862D01*
X150354117Y-72221270D01*
X149611054Y-74259129D01*
X149235717Y-75919419D01*
X149166181Y-76983770D01*
X149177918Y-78831722D01*
X149843912Y-78033252D01*
X150383190Y-77306223D01*
X150665823Y-76798530D01*
X150955508Y-76541993D01*
X151080878Y-76602518D01*
X151179730Y-77105271D01*
X151063306Y-78082888D01*
X150774777Y-79353713D01*
X150357314Y-80736093D01*
X149854087Y-82048375D01*
X149712716Y-82359500D01*
X148520204Y-85376557D01*
X147711762Y-88496251D01*
X147335702Y-91496129D01*
X147345031Y-93262093D01*
X147516219Y-93702261D01*
X147901167Y-93557513D01*
X148460834Y-92901645D01*
X149156181Y-91808451D01*
X149948168Y-90351727D01*
X150797753Y-88605269D01*
X151665899Y-86642872D01*
X152513564Y-84538331D01*
X153301709Y-82365443D01*
X153623779Y-81393654D01*
X153621339Y-80697940D01*
X153376811Y-79701023D01*
X153251411Y-79358043D01*
X152996117Y-78437726D01*
X152810720Y-77238284D01*
X152801982Y-77133062D01*
X153403369Y-77133062D01*
X153500743Y-78085291D01*
X153771670Y-78919841D01*
X154126874Y-79445360D01*
X154477082Y-79470493D01*
X154488714Y-79459397D01*
X154611900Y-78933427D01*
X154274824Y-77994376D01*
X154138418Y-77726256D01*
X153695046Y-76953745D01*
X153470727Y-76777902D01*
X153403369Y-77133062D01*
X152801982Y-77133062D01*
X152703429Y-75946324D01*
X152682453Y-74748454D01*
X152756000Y-73831282D01*
X152932279Y-73381416D01*
X152987731Y-73363667D01*
X153256468Y-73668715D01*
X153657135Y-74465041D01*
X154065015Y-75480333D01*
X154635674Y-76830538D01*
X155111661Y-77485568D01*
X155497367Y-77448816D01*
X155777215Y-76803250D01*
X156044224Y-76095070D01*
X156543776Y-75007371D01*
X157155299Y-73799572D01*
X157735873Y-72662412D01*
X158154907Y-71761862D01*
X158326151Y-71283919D01*
X158326667Y-71273541D01*
X158181202Y-70846786D01*
X157786173Y-69926670D01*
X157203626Y-68652848D01*
X156565673Y-67309858D01*
X155614273Y-65246724D01*
X155040982Y-63759708D01*
X155028121Y-63696559D01*
X155857222Y-63696559D01*
X155984449Y-64098430D01*
X156316787Y-64936268D01*
X156780220Y-66040355D01*
X157300733Y-67240970D01*
X157804311Y-68368394D01*
X158216938Y-69252908D01*
X158464599Y-69724790D01*
X158501305Y-69759539D01*
X158576892Y-69383302D01*
X158687892Y-68515968D01*
X158776837Y-67677584D01*
X158971634Y-65695669D01*
X157414428Y-64598049D01*
X156559507Y-64027865D01*
X155993898Y-63712774D01*
X155857222Y-63696559D01*
X155028121Y-63696559D01*
X154850829Y-62826074D01*
X155048846Y-62423089D01*
X155640062Y-62528020D01*
X156629510Y-63118132D01*
X157372828Y-63662278D01*
X158266489Y-64328313D01*
X158908933Y-64776611D01*
X159124335Y-64897000D01*
X159427984Y-64672442D01*
X160088367Y-64086193D01*
X160886326Y-63337532D01*
X161877920Y-62287867D01*
X162459781Y-61342798D01*
X162594911Y-60894345D01*
X163501165Y-60894345D01*
X163611284Y-61308731D01*
X164053193Y-61187921D01*
X164444042Y-60924800D01*
X164826439Y-60513056D01*
X164835191Y-59940380D01*
X164647069Y-59319292D01*
X164353959Y-58556482D01*
X164144945Y-58358089D01*
X163947250Y-58766098D01*
X163688097Y-59822495D01*
X163675164Y-59879983D01*
X163501165Y-60894345D01*
X162594911Y-60894345D01*
X162802457Y-60205571D01*
X162863088Y-59897949D01*
X163225535Y-58251233D01*
X163615327Y-56996150D01*
X163991624Y-56246894D01*
X164226963Y-56084567D01*
X164466517Y-56396892D01*
X164827360Y-57207173D01*
X165214227Y-58289428D01*
X165686398Y-59568554D01*
X166117435Y-60287244D01*
X166592191Y-60579280D01*
X166676692Y-60595180D01*
X167717471Y-61081402D01*
X168446053Y-62160214D01*
X168823923Y-63773894D01*
X168828496Y-63820099D01*
X168996886Y-65572569D01*
X170276360Y-64878312D01*
X171251704Y-64325228D01*
X172041011Y-63837968D01*
X172156274Y-63759255D01*
X172728525Y-63505242D01*
X172972315Y-63550056D01*
X172933817Y-63959708D01*
X172602728Y-64825549D01*
X172054648Y-66001901D01*
X171365178Y-67343087D01*
X170609919Y-68703430D01*
X169864472Y-69937253D01*
X169204439Y-70898879D01*
X169070038Y-71069443D01*
X168255950Y-72223411D01*
X167569005Y-73463361D01*
X167384970Y-73892833D01*
X167016350Y-75012550D01*
X166731042Y-76125349D01*
X166569193Y-77035565D01*
X166570950Y-77547530D01*
X166624947Y-77597000D01*
X167119918Y-77375647D01*
X167928183Y-76815768D01*
X168860056Y-76073630D01*
X169725854Y-75305501D01*
X170335891Y-74667648D01*
X170504084Y-74401257D01*
X170866664Y-73891806D01*
X171355162Y-73718393D01*
X171697258Y-73939368D01*
X171732222Y-74138113D01*
X171508156Y-74661434D01*
X170961084Y-75378480D01*
X170885084Y-75461030D01*
X170425044Y-76096285D01*
X169739718Y-77226014D01*
X168909889Y-78708978D01*
X168016340Y-80403937D01*
X167693145Y-81041763D01*
X166769844Y-82807863D01*
X165847844Y-84437829D01*
X165017347Y-85780902D01*
X164368552Y-86686324D01*
X164210476Y-86862596D01*
X163343497Y-87885145D01*
X162616608Y-88993595D01*
X162491047Y-89238667D01*
X162071298Y-90178041D01*
X161581773Y-91342152D01*
X161100358Y-92535943D01*
X160704938Y-93564358D01*
X160473397Y-94232341D01*
X160443333Y-94367004D01*
X160672916Y-94544643D01*
X161297285Y-94262395D01*
X162219869Y-93566712D01*
X162360825Y-93444684D01*
X163155450Y-92842115D01*
X163760401Y-92552141D01*
X163923712Y-92560761D01*
X163892349Y-92930600D01*
X163587078Y-93813225D01*
X163054413Y-95092820D01*
X162340864Y-96653570D01*
X161975269Y-97412438D01*
X160539619Y-100605949D01*
X159546358Y-103465391D01*
X158948617Y-106165062D01*
X158699531Y-108879259D01*
X158685945Y-109645319D01*
X158960219Y-111571700D01*
X159776385Y-113056971D01*
X161102360Y-114070343D01*
X162906062Y-114581030D01*
X163889089Y-114638667D01*
X165605994Y-114638667D01*
X165766602Y-113957403D01*
X166537243Y-113957403D01*
X166805912Y-114278670D01*
X167389843Y-113972888D01*
X167650079Y-113731524D01*
X168104708Y-112855184D01*
X168077218Y-111569898D01*
X167897160Y-110793561D01*
X167660205Y-109947067D01*
X167248650Y-110850332D01*
X166893199Y-111843573D01*
X166605187Y-112990115D01*
X166599564Y-113019744D01*
X166537243Y-113957403D01*
X165766602Y-113957403D01*
X166220606Y-112031619D01*
X166583227Y-110672000D01*
X166965580Y-109520602D01*
X167290455Y-108807208D01*
X167317089Y-108768424D01*
X167670117Y-108370740D01*
X167913680Y-108496292D01*
X168194059Y-109147383D01*
X168475057Y-110166531D01*
X168689617Y-111433732D01*
X168727200Y-111793216D01*
X168875063Y-112808711D01*
X169173815Y-113226121D01*
X169747702Y-113086624D01*
X170699902Y-112446986D01*
X171209288Y-112032588D01*
X171515776Y-111596539D01*
X171670786Y-110956713D01*
X171725738Y-109930982D01*
X171732222Y-108790573D01*
X171742568Y-108337664D01*
X172437778Y-108337664D01*
X172437778Y-110914901D01*
X173161590Y-110191089D01*
X173592068Y-109644541D01*
X173735011Y-109005801D01*
X173638998Y-108004905D01*
X173599124Y-107759696D01*
X173309090Y-106490571D01*
X173008098Y-105905220D01*
X172736204Y-105983708D01*
X172533465Y-106706101D01*
X172439936Y-108052463D01*
X172437778Y-108337664D01*
X171742568Y-108337664D01*
X171768341Y-107209420D01*
X171898035Y-106151311D01*
X172153310Y-105436426D01*
X172392269Y-105082263D01*
X173052316Y-104267140D01*
X173626991Y-105378440D01*
X174027560Y-106403161D01*
X174201448Y-107343620D01*
X174201667Y-107368383D01*
X174359056Y-108228308D01*
X174815534Y-108459170D01*
X175547568Y-108059379D01*
X176125613Y-107498334D01*
X176883519Y-106514214D01*
X177208258Y-105549469D01*
X177236899Y-105067315D01*
X178173621Y-105067315D01*
X178267560Y-105480925D01*
X178621347Y-105695143D01*
X178949947Y-105324047D01*
X179166671Y-104485195D01*
X179192451Y-104226706D01*
X179244703Y-102860081D01*
X179194230Y-101812420D01*
X179056617Y-101205007D01*
X178847444Y-101159124D01*
X178805670Y-101216240D01*
X178536015Y-101930219D01*
X178317782Y-102992385D01*
X178185482Y-104129248D01*
X178173621Y-105067315D01*
X177236899Y-105067315D01*
X177259074Y-104694028D01*
X177364959Y-103541588D01*
X177640761Y-102259903D01*
X178023703Y-101037163D01*
X178451007Y-100061563D01*
X178859894Y-99521296D01*
X179001982Y-99469222D01*
X179286055Y-99799930D01*
X179588934Y-100709068D01*
X179852421Y-101976078D01*
X180146837Y-103345160D01*
X180454365Y-104014457D01*
X180781058Y-103982807D01*
X181067710Y-103385121D01*
X181864726Y-103385121D01*
X183130520Y-102781505D01*
X184102879Y-102130432D01*
X184493653Y-101329994D01*
X184502463Y-101264528D01*
X184550203Y-100130949D01*
X184455940Y-99101105D01*
X184253556Y-98374618D01*
X183976931Y-98151107D01*
X183974169Y-98151999D01*
X183512788Y-98587117D01*
X182981517Y-99484600D01*
X182486714Y-100623628D01*
X182134737Y-101783378D01*
X182073606Y-102097943D01*
X181864726Y-103385121D01*
X181067710Y-103385121D01*
X181132972Y-103249046D01*
X181516159Y-101812013D01*
X181552045Y-101649707D01*
X181939307Y-100329442D01*
X182490669Y-99000569D01*
X183115376Y-97831668D01*
X183722672Y-96991319D01*
X184221800Y-96648105D01*
X184245258Y-96647000D01*
X184638111Y-96979462D01*
X184933576Y-97902728D01*
X185105179Y-99305621D01*
X185137778Y-100395264D01*
X185266211Y-101454839D01*
X185578755Y-101941242D01*
X185966274Y-101819691D01*
X186082469Y-101568370D01*
X186901667Y-101568370D01*
X187003432Y-102201334D01*
X187262055Y-102223907D01*
X187607528Y-101693785D01*
X187962832Y-100693828D01*
X188188207Y-99712291D01*
X188250850Y-99040643D01*
X188211081Y-98897155D01*
X187938985Y-99011759D01*
X187565550Y-99577758D01*
X187199654Y-100373037D01*
X186950177Y-101175483D01*
X186901667Y-101568370D01*
X186082469Y-101568370D01*
X186319633Y-101055406D01*
X186383101Y-100792139D01*
X186767638Y-99730123D01*
X187390860Y-98632641D01*
X187487418Y-98499083D01*
X188224068Y-97710181D01*
X188847708Y-97364244D01*
X189237891Y-97485200D01*
X189274172Y-98096976D01*
X189263282Y-98146306D01*
X188824504Y-100048653D01*
X188539629Y-101391267D01*
X188405885Y-102302355D01*
X188420496Y-102910121D01*
X188580687Y-103342774D01*
X188883685Y-103728517D01*
X189136717Y-103994789D01*
X189752488Y-104786512D01*
X190066413Y-105481561D01*
X190076667Y-105581506D01*
X190373413Y-106132968D01*
X191046806Y-106567745D01*
X192754407Y-107273245D01*
X194041923Y-107878395D01*
X194819931Y-108338159D01*
X195015556Y-108566587D01*
X194696772Y-108768810D01*
X193832001Y-109098604D01*
X192558613Y-109507949D01*
X191226697Y-109891033D01*
X189502487Y-110386623D01*
X188171868Y-110863190D01*
X187082157Y-111425088D01*
X186080670Y-112176676D01*
X185014726Y-113222309D01*
X183731641Y-114666343D01*
X183021111Y-115499429D01*
X181686374Y-116954901D01*
X180144795Y-118457865D01*
X178670020Y-119745799D01*
X178258611Y-120068351D01*
X176992569Y-121113666D01*
X175477797Y-122498789D01*
X173923397Y-124026686D01*
X172790556Y-125220823D01*
X169791944Y-128507963D01*
X171114861Y-128260107D01*
X171957353Y-128174929D01*
X172411770Y-128270737D01*
X172437778Y-128328329D01*
X172745059Y-128460132D01*
X173532739Y-128437912D01*
X174599569Y-128289766D01*
X175744305Y-128043794D01*
X176765698Y-127728095D01*
X176782271Y-127721731D01*
X177597884Y-127446191D01*
X178105188Y-127338667D01*
X178434324Y-127548367D01*
X178339498Y-128024571D01*
X177898686Y-128537935D01*
X177641250Y-128703201D01*
X177098022Y-129001000D01*
X177204205Y-129044192D01*
X177729444Y-128950680D01*
X179347723Y-128696266D01*
X180899824Y-128540824D01*
X182223407Y-128491211D01*
X183156130Y-128554284D01*
X183523202Y-128705968D01*
X184004530Y-128959882D01*
X184893703Y-129095523D01*
X185158598Y-129102556D01*
X186040745Y-129189551D01*
X186518816Y-129407765D01*
X186548889Y-129488437D01*
X186268351Y-129695258D01*
X185392986Y-129681104D01*
X184696806Y-129589009D01*
X183586900Y-129434387D01*
X182585046Y-129346926D01*
X181491683Y-129322586D01*
X180107250Y-129357325D01*
X178232187Y-129447105D01*
X178082222Y-129455089D01*
X176671338Y-129500645D01*
X175858103Y-129442809D01*
X175540532Y-129269395D01*
X175532168Y-129150382D01*
X175407724Y-128894405D01*
X174801996Y-128843535D01*
X173944668Y-128933068D01*
X172807360Y-129105181D01*
X171891784Y-129273882D01*
X171644028Y-129332371D01*
X171132648Y-129296874D01*
X171026667Y-129102556D01*
X170747240Y-128861406D01*
X170232917Y-128935555D01*
X169453607Y-129394082D01*
X168334279Y-130386904D01*
X166927158Y-131861839D01*
X165284468Y-133766704D01*
X164769744Y-134394222D01*
X163236496Y-136207592D01*
X161709505Y-137878449D01*
X160294115Y-139300787D01*
X159095669Y-140368600D01*
X158239236Y-140965823D01*
X157356706Y-141265881D01*
X156049875Y-141531592D01*
X154599640Y-141706008D01*
X154581401Y-141707399D01*
X153248886Y-141821306D01*
X152471033Y-141954615D01*
X152098358Y-142171265D01*
X151981375Y-142535200D01*
X151971850Y-142823614D01*
X151877325Y-143900389D01*
X151743591Y-144577596D01*
X151652570Y-145012789D01*
X151766859Y-145245399D01*
X152226375Y-145313907D01*
X153171038Y-145256792D01*
X153953269Y-145185291D01*
X155882887Y-145128944D01*
X157204920Y-145386048D01*
X157949291Y-145967738D01*
X158150278Y-146747109D01*
X157996589Y-147391990D01*
X157476732Y-147884238D01*
X156502519Y-148259959D01*
X154985760Y-148555262D01*
X153211389Y-148769265D01*
X151408173Y-148940251D01*
X150184296Y-148983751D01*
X149417510Y-148847015D01*
X148985568Y-148477292D01*
X148766224Y-147821832D01*
X148637229Y-146827887D01*
X148633654Y-146793967D01*
X148425441Y-144865213D01*
X148259668Y-143528669D01*
X148110129Y-142674336D01*
X147950620Y-142192214D01*
X147754936Y-141972305D01*
X147496872Y-141904610D01*
X147468274Y-141902110D01*
X146687365Y-141804269D01*
X146676695Y-141802556D01*
X148718773Y-141802556D01*
X148973401Y-144536583D01*
X149177150Y-146317193D01*
X149428024Y-147491597D01*
X149776903Y-148159134D01*
X150274664Y-148419144D01*
X150940558Y-148377416D01*
X151833467Y-148233339D01*
X153119930Y-148065616D01*
X154258484Y-147938426D01*
X155934183Y-147675006D01*
X157044323Y-147298243D01*
X157538436Y-146831591D01*
X157477798Y-146442184D01*
X157024156Y-146063416D01*
X156641595Y-146195416D01*
X156562778Y-146502010D01*
X156242736Y-146829113D01*
X155265075Y-147016310D01*
X154732049Y-147051666D01*
X153636879Y-147131045D01*
X152842596Y-147242486D01*
X152615382Y-147311920D01*
X152377357Y-147179681D01*
X152324042Y-146850459D01*
X152263958Y-146432888D01*
X152024204Y-146678468D01*
X151990446Y-146731228D01*
X151597827Y-147052056D01*
X151410946Y-146998872D01*
X150968448Y-146968344D01*
X150709116Y-147121467D01*
X150397334Y-147235143D01*
X150288417Y-146793008D01*
X150289371Y-146412851D01*
X150395823Y-145658765D01*
X150610560Y-145330785D01*
X150619241Y-145330333D01*
X150911377Y-145061831D01*
X150918333Y-144988627D01*
X150650749Y-144801623D01*
X150300972Y-144864160D01*
X149897614Y-144947213D01*
X150074787Y-144657945D01*
X150097015Y-144633711D01*
X150350020Y-143960496D01*
X150300354Y-143638600D01*
X150281833Y-143256289D01*
X150680699Y-143317738D01*
X151127670Y-143329846D01*
X151269339Y-142797110D01*
X151271111Y-142673428D01*
X151180969Y-142091110D01*
X150773939Y-141847609D01*
X149994942Y-141802556D01*
X148718773Y-141802556D01*
X146676695Y-141802556D01*
X145353336Y-141590116D01*
X143433264Y-141253853D01*
X140894230Y-140789683D01*
X137703312Y-140191808D01*
X136983611Y-140055603D01*
X135085359Y-139696657D01*
X133448188Y-139388625D01*
X132189482Y-139153467D01*
X131426621Y-139013144D01*
X131250972Y-138983099D01*
X131208816Y-139305731D01*
X131177630Y-140161686D01*
X131163163Y-141378752D01*
X131162778Y-141626167D01*
X131162778Y-144272000D01*
X132662083Y-144325843D01*
X134021455Y-144369859D01*
X135498693Y-144411021D01*
X135805020Y-144418538D01*
X137384486Y-144680982D01*
X138419101Y-145372569D01*
X138893145Y-146480647D01*
X138923889Y-146929314D01*
X138833117Y-147754323D01*
X138492216Y-148345310D01*
X137798303Y-148751347D01*
X136648498Y-149021510D01*
X134939920Y-149204872D01*
X134019942Y-149268494D01*
X132321679Y-149389951D01*
X130757206Y-149528744D01*
X129542429Y-149664385D01*
X129046111Y-149740482D01*
X128155798Y-149830934D01*
X127586054Y-149741690D01*
X127546805Y-149712275D01*
X127458464Y-149286732D01*
X127382477Y-148278779D01*
X127324197Y-146811529D01*
X127288974Y-145008090D01*
X127281089Y-143628814D01*
X127987778Y-143628814D01*
X127992862Y-145741971D01*
X128015397Y-147245388D01*
X128066308Y-148234846D01*
X128156520Y-148806129D01*
X128296956Y-149055021D01*
X128498541Y-149077306D01*
X128605139Y-149041708D01*
X129189246Y-148928920D01*
X130312837Y-148806201D01*
X131810295Y-148688892D01*
X133394323Y-148598050D01*
X135189158Y-148501812D01*
X136412028Y-148397276D01*
X137196252Y-148256592D01*
X137675149Y-148051912D01*
X137982039Y-147755387D01*
X138076632Y-147619960D01*
X138408180Y-146745574D01*
X138278184Y-146065906D01*
X137811423Y-145731127D01*
X137132678Y-145891409D01*
X136833681Y-146124083D01*
X136414984Y-146387710D01*
X136203827Y-146121885D01*
X135878686Y-145830097D01*
X135734165Y-145868600D01*
X135568558Y-146310947D01*
X135625650Y-146576353D01*
X135604026Y-147022476D01*
X135433854Y-147094222D01*
X135061571Y-146836268D01*
X135043333Y-146724964D01*
X134716216Y-146519227D01*
X133804940Y-146476836D01*
X133267169Y-146511319D01*
X132238950Y-146570995D01*
X131796797Y-146495888D01*
X131829933Y-146261768D01*
X131873188Y-146206428D01*
X132005133Y-145859500D01*
X133985000Y-145859500D01*
X134161389Y-146035889D01*
X134337778Y-145859500D01*
X134161389Y-145683111D01*
X133985000Y-145859500D01*
X132005133Y-145859500D01*
X132061594Y-145711047D01*
X131882972Y-145515769D01*
X131454664Y-145568335D01*
X131327474Y-145762761D01*
X130860558Y-146191438D01*
X130486887Y-146289435D01*
X129985516Y-146135653D01*
X129878728Y-145482119D01*
X129944602Y-145153944D01*
X132926667Y-145153944D01*
X133103055Y-145330333D01*
X133279444Y-145153944D01*
X133103055Y-144977556D01*
X132926667Y-145153944D01*
X129944602Y-145153944D01*
X130009592Y-144830173D01*
X130192639Y-144625027D01*
X130465847Y-144427543D01*
X130319740Y-144013129D01*
X129849756Y-143647385D01*
X129839861Y-143643271D01*
X129341535Y-143227529D01*
X129169880Y-142690150D01*
X129350577Y-142292283D01*
X129701550Y-142236807D01*
X130056690Y-142155796D01*
X130263556Y-141671099D01*
X130377724Y-140640337D01*
X130387464Y-140479639D01*
X130428307Y-139445610D01*
X130418999Y-138773343D01*
X130385135Y-138627556D01*
X130007989Y-138540532D01*
X129232576Y-138328136D01*
X129131977Y-138299404D01*
X127987778Y-137971252D01*
X127987778Y-143628814D01*
X127281089Y-143628814D01*
X127280900Y-143595843D01*
X127279577Y-137745611D01*
X125695427Y-137094144D01*
X124046652Y-136089570D01*
X122494680Y-134559122D01*
X121156985Y-132682181D01*
X120151040Y-130638126D01*
X119594321Y-128606336D01*
X119521111Y-127666141D01*
X119334498Y-126791189D01*
X118991944Y-126280333D01*
X118581751Y-125631570D01*
X118482162Y-124828786D01*
X118705711Y-124189679D01*
X118903750Y-124044527D01*
X118931546Y-123912463D01*
X118388992Y-123839528D01*
X118363511Y-123838740D01*
X117473558Y-123589866D01*
X117156455Y-122994694D01*
X117463110Y-122181671D01*
X117626242Y-121978477D01*
X117982732Y-121566756D01*
X118060114Y-121372109D01*
X117751929Y-121390187D01*
X116951716Y-121616639D01*
X115993333Y-121911756D01*
X115419874Y-121919508D01*
X115306236Y-121522269D01*
X115637476Y-120836975D01*
X116217828Y-120154828D01*
X116708899Y-119567377D01*
X116790517Y-119245563D01*
X116721796Y-119224778D01*
X116142439Y-119453757D01*
X115766548Y-119753944D01*
X115126448Y-120226955D01*
X114731969Y-120064110D01*
X114526821Y-119237615D01*
X114516379Y-119136583D01*
X114342863Y-118335664D01*
X113966895Y-118084543D01*
X113762300Y-118099725D01*
X112872892Y-117958071D01*
X112299846Y-117235590D01*
X112107376Y-116094776D01*
X112012826Y-115087568D01*
X111789334Y-114335943D01*
X111760000Y-114285889D01*
X111474746Y-113998858D01*
X111412624Y-114197694D01*
X111122591Y-114587134D01*
X110871334Y-114638667D01*
X110507303Y-114449219D01*
X110548428Y-113790670D01*
X110557383Y-113754403D01*
X110643632Y-112795346D01*
X110552390Y-111664125D01*
X110538505Y-111586496D01*
X110297692Y-110302852D01*
X109598725Y-111452212D01*
X109123524Y-112154423D01*
X108808918Y-112474859D01*
X108769907Y-112471722D01*
X108738027Y-112087867D01*
X108754810Y-111154522D01*
X108815607Y-109825735D01*
X108882872Y-108727769D01*
X108977661Y-107026759D01*
X108984838Y-105925344D01*
X108898695Y-105322335D01*
X108713522Y-105116541D01*
X108678955Y-105113667D01*
X108405339Y-104838219D01*
X108258636Y-103971255D01*
X108224378Y-102908805D01*
X108216534Y-100703944D01*
X107563963Y-101552760D01*
X106837511Y-102169702D01*
X106308797Y-102170338D01*
X106034723Y-101990982D01*
X105878619Y-101621149D01*
X105827216Y-100924681D01*
X105867246Y-99765419D01*
X105950480Y-98493522D01*
X106194760Y-95047944D01*
X103822500Y-95059500D01*
X103822500Y-92766444D01*
X103860814Y-91265054D01*
X103959707Y-89788917D01*
X104057030Y-88947873D01*
X104161863Y-88001065D01*
X104069987Y-87605762D01*
X103802655Y-87609967D01*
X103188205Y-87538161D01*
X102764359Y-87248184D01*
X102502555Y-86859407D01*
X102369194Y-86251286D01*
X102351551Y-85270331D01*
X102436902Y-83763056D01*
X102455096Y-83517842D01*
X102561765Y-82019833D01*
X102592171Y-81106844D01*
X102526336Y-80660590D01*
X102344285Y-80562785D01*
X102026042Y-80695142D01*
X101982330Y-80718424D01*
X101339766Y-80932534D01*
X101046662Y-80877180D01*
X100853605Y-80310612D01*
X100850944Y-79808582D01*
X101539071Y-79808582D01*
X101823065Y-79931490D01*
X102467853Y-79844361D01*
X103406262Y-79608835D01*
X103171638Y-83189029D01*
X103078523Y-84837244D01*
X103064664Y-85900585D01*
X103139079Y-86496228D01*
X103310784Y-86741351D01*
X103447132Y-86769222D01*
X104061596Y-86534952D01*
X104194275Y-86385706D01*
X104588909Y-86213168D01*
X104758216Y-86329105D01*
X104877645Y-86847324D01*
X104857421Y-87951520D01*
X104700438Y-89536668D01*
X104661515Y-89837740D01*
X104449238Y-91678400D01*
X104405656Y-92927602D01*
X104554142Y-93684318D01*
X104918070Y-94047517D01*
X105520813Y-94116171D01*
X105668973Y-94103593D01*
X106644722Y-94001167D01*
X106548332Y-97793528D01*
X106522696Y-99333267D01*
X106527759Y-100572389D01*
X106561266Y-101366969D01*
X106607754Y-101585889D01*
X106871692Y-101315658D01*
X107344183Y-100639368D01*
X107528025Y-100348969D01*
X108070384Y-99626966D01*
X108513258Y-99300280D01*
X108615131Y-99311455D01*
X108786868Y-99744558D01*
X108903898Y-100665205D01*
X108937778Y-101627529D01*
X108981868Y-102854505D01*
X109123737Y-103446694D01*
X109345661Y-103492110D01*
X109533851Y-103561401D01*
X109623690Y-104116050D01*
X109620364Y-105232917D01*
X109554120Y-106582660D01*
X109469331Y-108132044D01*
X109453486Y-109108097D01*
X109527954Y-109641435D01*
X109714103Y-109862678D01*
X110033304Y-109902443D01*
X110096952Y-109900732D01*
X110632379Y-110045520D01*
X110990414Y-110632329D01*
X111178387Y-111287278D01*
X111502799Y-112268248D01*
X111888241Y-112955345D01*
X111986036Y-113051167D01*
X112293892Y-113578117D01*
X112585043Y-114556039D01*
X112730926Y-115344222D01*
X112937297Y-116485447D01*
X113191178Y-117080383D01*
X113571794Y-117287584D01*
X113707012Y-117297628D01*
X114747672Y-117543913D01*
X115247702Y-118213023D01*
X115287778Y-118560046D01*
X115346787Y-119033751D01*
X115651587Y-118994109D01*
X116033833Y-118742228D01*
X116820052Y-118415910D01*
X117473973Y-118498060D01*
X117756958Y-118956418D01*
X117757222Y-118975201D01*
X117534847Y-119479161D01*
X116999124Y-120162625D01*
X116990172Y-120172180D01*
X116571175Y-120778405D01*
X116661590Y-121005664D01*
X117153900Y-120732653D01*
X117336409Y-120562813D01*
X117789588Y-120344786D01*
X118329142Y-120703902D01*
X118343345Y-120718044D01*
X118710821Y-121179789D01*
X118668377Y-121632736D01*
X118312122Y-122233625D01*
X117921438Y-122870837D01*
X117935516Y-123086063D01*
X118345880Y-123042807D01*
X118648964Y-122909739D01*
X118840056Y-122563661D01*
X118944117Y-121870471D01*
X118986108Y-120696068D01*
X118991944Y-119571829D01*
X118932467Y-117283139D01*
X118768072Y-114853749D01*
X118519815Y-112464213D01*
X118208750Y-110295081D01*
X117855932Y-108526906D01*
X117600320Y-107638343D01*
X117065181Y-106501805D01*
X116167357Y-105001475D01*
X115014875Y-103299144D01*
X113715761Y-101556606D01*
X113372312Y-101134119D01*
X114525554Y-101134119D01*
X114872261Y-101790504D01*
X115325660Y-102467833D01*
X116051524Y-103456063D01*
X116465028Y-103929815D01*
X116652097Y-103957005D01*
X116698653Y-103605546D01*
X116698889Y-103553234D01*
X116482121Y-102975117D01*
X115957264Y-102194785D01*
X115312489Y-101444025D01*
X114735968Y-100954621D01*
X114528942Y-100880333D01*
X114525554Y-101134119D01*
X113372312Y-101134119D01*
X112730139Y-100344165D01*
X111940881Y-99285178D01*
X111692779Y-98650884D01*
X111949141Y-98461127D01*
X112673276Y-98735752D01*
X113828495Y-99494603D01*
X114026034Y-99643281D01*
X114887222Y-100263802D01*
X115472950Y-100615360D01*
X115640555Y-100638289D01*
X115536878Y-100207066D01*
X115264712Y-99301479D01*
X114882357Y-98115278D01*
X114871651Y-98082980D01*
X114002376Y-95931870D01*
X112759817Y-93656937D01*
X111070523Y-91130807D01*
X110125274Y-89852088D01*
X110115627Y-89838780D01*
X111343929Y-89838780D01*
X111565620Y-90295961D01*
X111819819Y-90655238D01*
X112409789Y-91344464D01*
X112737812Y-91528223D01*
X112724644Y-91198842D01*
X112503938Y-90721496D01*
X111968383Y-90064552D01*
X111590095Y-89819136D01*
X111343929Y-89838780D01*
X110115627Y-89838780D01*
X109368617Y-88808377D01*
X108819045Y-87963946D01*
X108586607Y-87488932D01*
X108585000Y-87470838D01*
X108810774Y-87146233D01*
X109434313Y-87312018D01*
X110374937Y-87940024D01*
X110701667Y-88209861D01*
X111936389Y-89269047D01*
X112050208Y-88349191D01*
X111966709Y-87451371D01*
X111618450Y-86350804D01*
X111481763Y-86050358D01*
X111136441Y-85268560D01*
X111043304Y-84867953D01*
X111103361Y-84859176D01*
X111380693Y-84900335D01*
X111264948Y-84423502D01*
X110748677Y-83402224D01*
X110636706Y-83201282D01*
X110112556Y-82373317D01*
X109690070Y-81885508D01*
X109578372Y-81830333D01*
X109354297Y-81600362D01*
X109361049Y-81565750D01*
X109267908Y-81160546D01*
X110448826Y-81160546D01*
X110522845Y-81514036D01*
X110547959Y-81580965D01*
X110827427Y-82012956D01*
X110986313Y-82016057D01*
X110946742Y-81642868D01*
X110745442Y-81383481D01*
X110448826Y-81160546D01*
X109267908Y-81160546D01*
X109258239Y-81118484D01*
X108917220Y-80285313D01*
X108687893Y-79802657D01*
X108256385Y-78727697D01*
X108258606Y-78189774D01*
X108654753Y-78219571D01*
X109405024Y-78847767D01*
X109624211Y-79080912D01*
X110680984Y-80242833D01*
X110691325Y-78990472D01*
X110738872Y-78556132D01*
X111782833Y-78556132D01*
X111824263Y-79671713D01*
X111872971Y-80379427D01*
X112067984Y-82558144D01*
X112333583Y-84806222D01*
X112640270Y-86914723D01*
X112958547Y-88674707D01*
X113173538Y-89591444D01*
X113985558Y-92482775D01*
X114762837Y-95124616D01*
X115479327Y-97436525D01*
X116108983Y-99338059D01*
X116625756Y-100748778D01*
X117003599Y-101588238D01*
X117108749Y-101744639D01*
X117366405Y-102363577D01*
X117404444Y-102719704D01*
X117483281Y-103318249D01*
X117696016Y-104425147D01*
X118006987Y-105863874D01*
X118263254Y-106970676D01*
X118656036Y-108730482D01*
X119001335Y-110472995D01*
X119249063Y-111936341D01*
X119325024Y-112522000D01*
X119469956Y-113833631D01*
X119665977Y-115512388D01*
X119874124Y-117225610D01*
X119903468Y-117460889D01*
X120077079Y-119220103D01*
X120184908Y-121063680D01*
X120205996Y-122620501D01*
X120202315Y-122752556D01*
X120168663Y-124265916D01*
X120162210Y-125765724D01*
X120176172Y-126620512D01*
X120226835Y-127565356D01*
X120348747Y-127918309D01*
X120619786Y-127793004D01*
X120837131Y-127584948D01*
X121242840Y-127013952D01*
X121100193Y-126427517D01*
X120989077Y-126240277D01*
X120712360Y-125551940D01*
X120846504Y-125250766D01*
X121266168Y-125465683D01*
X121487661Y-125727437D01*
X121855027Y-126155217D01*
X122194338Y-126150131D01*
X122754793Y-125685091D01*
X122869929Y-125577193D01*
X123448516Y-125121801D01*
X123744438Y-125061277D01*
X123754444Y-125105830D01*
X123516482Y-125589642D01*
X123047203Y-126105470D01*
X122607799Y-126550284D01*
X122532655Y-126942060D01*
X122819972Y-127555874D01*
X123035305Y-127924035D01*
X123431214Y-128758249D01*
X123394368Y-129076291D01*
X123003511Y-128847972D01*
X122420854Y-128159618D01*
X121733972Y-127216680D01*
X121105658Y-128175607D01*
X120717746Y-128928889D01*
X120683132Y-129672209D01*
X120888693Y-130507492D01*
X121341929Y-131548111D01*
X122078893Y-132790111D01*
X122683565Y-133630738D01*
X123374324Y-134437166D01*
X124124078Y-135141219D01*
X125001189Y-135766214D01*
X126074020Y-136335467D01*
X127410935Y-136872296D01*
X129080296Y-137400017D01*
X131150466Y-137941948D01*
X133689809Y-138521404D01*
X136766686Y-139161703D01*
X140449463Y-139886162D01*
X141766688Y-140139496D01*
X143925191Y-140498660D01*
X146034884Y-140752312D01*
X147959071Y-140893018D01*
X149561058Y-140913343D01*
X150704149Y-140805853D01*
X151158540Y-140650273D01*
X151673195Y-140633929D01*
X151823797Y-140782277D01*
X152288757Y-140960864D01*
X153241481Y-141009991D01*
X154479118Y-140944628D01*
X155798816Y-140779742D01*
X156997724Y-140530301D01*
X157536852Y-140360724D01*
X158622568Y-139721143D01*
X160009196Y-138527405D01*
X161640559Y-136833872D01*
X163460482Y-134694908D01*
X163702192Y-134394222D01*
X165058029Y-132748301D01*
X166658388Y-130887739D01*
X168413136Y-128909471D01*
X170232137Y-126910434D01*
X172025258Y-124987564D01*
X173702365Y-123237795D01*
X175173322Y-121758065D01*
X176347995Y-120645308D01*
X176993876Y-120099555D01*
X177950892Y-119341385D01*
X178388134Y-118891226D01*
X178370017Y-118661445D01*
X178108701Y-118582881D01*
X177468047Y-118380891D01*
X177468585Y-118119028D01*
X178056882Y-117861139D01*
X178838841Y-117710448D01*
X179619249Y-117543086D01*
X180311554Y-117200079D01*
X181074174Y-116567048D01*
X182065525Y-115529612D01*
X182445526Y-115106359D01*
X183753720Y-113670273D01*
X185275802Y-112048106D01*
X186722003Y-110547883D01*
X186980574Y-110285604D01*
X187646757Y-109598075D01*
X188890725Y-109598075D01*
X189187202Y-109674371D01*
X189251557Y-109672436D01*
X189946105Y-109540500D01*
X191002793Y-109233868D01*
X191664167Y-109008390D01*
X192665450Y-108633797D01*
X193079826Y-108401068D01*
X192985457Y-108216493D01*
X192502637Y-108003133D01*
X191397159Y-107626376D01*
X190659229Y-107623876D01*
X190030578Y-108044077D01*
X189569651Y-108553250D01*
X189005989Y-109267361D01*
X188890725Y-109598075D01*
X187646757Y-109598075D01*
X188100666Y-109129623D01*
X188804298Y-108303282D01*
X189186885Y-107650633D01*
X189343838Y-107015726D01*
X189371111Y-106378348D01*
X189223718Y-105147479D01*
X188707941Y-104272242D01*
X188535106Y-104098492D01*
X187699102Y-103313106D01*
X187481590Y-104125192D01*
X187300689Y-105166549D01*
X187259261Y-105801583D01*
X187179240Y-106372101D01*
X186909146Y-106317749D01*
X186853159Y-106264603D01*
X186630830Y-105711901D01*
X186743668Y-104729731D01*
X186811339Y-104447135D01*
X186992899Y-103522457D01*
X187012511Y-102921380D01*
X186977439Y-102837587D01*
X186319972Y-102629916D01*
X185251646Y-102753127D01*
X183948487Y-103146476D01*
X182586525Y-103749217D01*
X181341784Y-104500605D01*
X180728056Y-104994187D01*
X179899153Y-105606007D01*
X178892904Y-106169638D01*
X178887845Y-106172000D01*
X178161549Y-106638411D01*
X177103650Y-107476309D01*
X175875663Y-108552561D01*
X175007290Y-109370699D01*
X173277144Y-111015811D01*
X171882482Y-112235476D01*
X170684410Y-113126527D01*
X169544038Y-113785797D01*
X168322472Y-114310120D01*
X167518584Y-114591692D01*
X165015608Y-115186506D01*
X162791738Y-115241245D01*
X160910981Y-114764367D01*
X159437342Y-113764326D01*
X159187614Y-113491043D01*
X158701975Y-112854432D01*
X158358815Y-112199329D01*
X158145096Y-111406901D01*
X158047777Y-110358311D01*
X158053818Y-108934723D01*
X158150180Y-107017302D01*
X158274733Y-105171661D01*
X158563965Y-101694032D01*
X158741873Y-100214011D01*
X159451683Y-100214011D01*
X159560452Y-100480345D01*
X159883037Y-100123668D01*
X160445495Y-99137692D01*
X161273879Y-97516133D01*
X161297254Y-97469332D01*
X161890236Y-96238140D01*
X162333791Y-95234239D01*
X162550393Y-94635580D01*
X162560000Y-94570813D01*
X162297912Y-94495741D01*
X161641903Y-94753469D01*
X161358876Y-94910031D01*
X160675246Y-95385431D01*
X160251270Y-95952223D01*
X159966740Y-96832081D01*
X159771376Y-97837447D01*
X159530676Y-99330949D01*
X159451683Y-100214011D01*
X158741873Y-100214011D01*
X158917127Y-98756084D01*
X159372664Y-96192405D01*
X159969023Y-93837581D01*
X160744649Y-91526200D01*
X161737987Y-89092848D01*
X162305884Y-87827556D01*
X163206023Y-85655242D01*
X163332696Y-85299569D01*
X164386247Y-85299569D01*
X164615181Y-85161474D01*
X165114822Y-84384778D01*
X165882474Y-82971574D01*
X166915438Y-80923953D01*
X167134273Y-80478080D01*
X168915595Y-76835465D01*
X167646519Y-77881545D01*
X166893998Y-78634763D01*
X166267990Y-79615270D01*
X165660071Y-81011022D01*
X165350666Y-81861333D01*
X164751292Y-83651591D01*
X164430719Y-84796972D01*
X164386247Y-85299569D01*
X163332696Y-85299569D01*
X164126014Y-83072104D01*
X164973196Y-80363846D01*
X165654910Y-77816170D01*
X165883076Y-76797898D01*
X166223240Y-75281948D01*
X166589417Y-73853725D01*
X166906561Y-72804379D01*
X166927685Y-72745192D01*
X167506739Y-70718256D01*
X167525728Y-70614927D01*
X168273015Y-70614927D01*
X168458877Y-70538212D01*
X168940797Y-69916880D01*
X169123438Y-69659500D01*
X169940733Y-68411773D01*
X170750330Y-67047311D01*
X170938018Y-66704217D01*
X171387756Y-65795238D01*
X171628123Y-65179856D01*
X171637904Y-65037867D01*
X171302065Y-65141302D01*
X170600222Y-65545444D01*
X170255125Y-65772288D01*
X169281768Y-66647444D01*
X168803107Y-67719986D01*
X168751788Y-67967805D01*
X168536797Y-69110773D01*
X168336552Y-70110680D01*
X168319986Y-70188667D01*
X168273015Y-70614927D01*
X167525728Y-70614927D01*
X167943355Y-68342466D01*
X168179242Y-65969487D01*
X168204444Y-65042454D01*
X168050039Y-63240257D01*
X167568112Y-62053527D01*
X166730600Y-61465936D01*
X165509440Y-61461154D01*
X163876568Y-62022854D01*
X163402926Y-62248784D01*
X161966881Y-63128579D01*
X160929797Y-64095778D01*
X160378053Y-65044103D01*
X160398028Y-65867277D01*
X160422294Y-65916020D01*
X160592096Y-66421145D01*
X160252356Y-66537018D01*
X160169345Y-66531929D01*
X159834101Y-66621696D01*
X159608936Y-67045306D01*
X159447338Y-67939249D01*
X159343952Y-68953944D01*
X159145100Y-70400066D01*
X158771595Y-71810010D01*
X158150952Y-73414193D01*
X157476622Y-74889836D01*
X156678405Y-76677875D01*
X156184700Y-78034483D01*
X156021370Y-78884928D01*
X156042137Y-79034975D01*
X156049742Y-79589994D01*
X155692069Y-79713667D01*
X155193895Y-80053552D01*
X154579712Y-81047924D01*
X153869065Y-82658857D01*
X153146976Y-84652556D01*
X152592521Y-86124287D01*
X151852553Y-87848530D01*
X151018647Y-89634865D01*
X150182378Y-91292874D01*
X149435321Y-92632137D01*
X148970688Y-93336627D01*
X148417074Y-94148001D01*
X148114985Y-94757127D01*
X148096111Y-94859573D01*
X147930037Y-95235057D01*
X147551920Y-95113282D01*
X147141918Y-94583495D01*
X147029046Y-94330979D01*
X146776866Y-93110428D01*
X146713486Y-91418865D01*
X146833971Y-89463716D01*
X147133383Y-87452402D01*
X147200531Y-87125370D01*
X147428884Y-85943925D01*
X147551850Y-85066427D01*
X147543977Y-84688384D01*
X147608870Y-84337141D01*
X147806788Y-84046931D01*
X147955071Y-83516214D01*
X148077169Y-82376476D01*
X148165823Y-80838231D01*
X148973983Y-80838231D01*
X149039723Y-81334658D01*
X149248342Y-81572198D01*
X149529489Y-81220075D01*
X149735382Y-80768053D01*
X150058241Y-79917446D01*
X150210925Y-79352329D01*
X150212778Y-79320386D01*
X149942004Y-79018136D01*
X149851268Y-79008111D01*
X149449077Y-79310880D01*
X149121968Y-80020343D01*
X148973983Y-80838231D01*
X148165823Y-80838231D01*
X148172419Y-80723790D01*
X148240162Y-78654228D01*
X148279737Y-76263863D01*
X148290484Y-73648767D01*
X148271743Y-70905014D01*
X148222853Y-68128675D01*
X148168916Y-66292716D01*
X148926758Y-66292716D01*
X148945302Y-66526355D01*
X149041140Y-67114977D01*
X149113870Y-68206890D01*
X149151658Y-69599923D01*
X149154444Y-70099927D01*
X149172127Y-71437358D01*
X149219383Y-72432054D01*
X149287525Y-72934429D01*
X149320696Y-72962230D01*
X149518283Y-72572436D01*
X149883126Y-71701377D01*
X150339650Y-70530241D01*
X150382799Y-70415921D01*
X150977029Y-68734062D01*
X151582424Y-66859101D01*
X151951853Y-65606528D01*
X152282432Y-64341844D01*
X152403645Y-63630777D01*
X152323783Y-63355800D01*
X152109258Y-63375122D01*
X151753797Y-63638702D01*
X151775887Y-63755480D01*
X151608694Y-64025530D01*
X150985425Y-64529076D01*
X150347237Y-64959622D01*
X149324624Y-65712607D01*
X148926758Y-66292716D01*
X148168916Y-66292716D01*
X148143154Y-65415824D01*
X148031985Y-62862533D01*
X147960937Y-61620457D01*
X147798818Y-59241432D01*
X147761420Y-58811583D01*
X148451428Y-58811583D01*
X148474849Y-59846639D01*
X148537727Y-60518857D01*
X148593391Y-60663667D01*
X148815921Y-60376474D01*
X149286715Y-59609411D01*
X149920315Y-58504247D01*
X150207614Y-57985760D01*
X150854008Y-56770341D01*
X151324767Y-55812005D01*
X151548843Y-55258783D01*
X151552731Y-55183250D01*
X151212751Y-55283784D01*
X150480831Y-55677647D01*
X149941047Y-56009073D01*
X149069953Y-56609064D01*
X148629067Y-57142075D01*
X148471719Y-57884048D01*
X148451428Y-58811583D01*
X147761420Y-58811583D01*
X147645838Y-57483117D01*
X147490190Y-56260979D01*
X147320067Y-55490485D01*
X147123661Y-55087100D01*
X147037778Y-55011276D01*
X146357040Y-54810778D01*
X145281538Y-54702538D01*
X144096837Y-54691364D01*
X143088501Y-54782065D01*
X142592673Y-54936430D01*
X142110384Y-55425612D01*
X141725819Y-56234012D01*
X141418763Y-57450381D01*
X141169001Y-59163475D01*
X140956320Y-61462045D01*
X140886471Y-62427556D01*
X140727428Y-63956179D01*
X140480978Y-65552849D01*
X140365767Y-66131722D01*
X140129856Y-67490981D01*
X139933360Y-69121603D01*
X139849057Y-70188667D01*
X139712884Y-71577834D01*
X139491546Y-72836716D01*
X139287382Y-73540056D01*
X139081321Y-74326336D01*
X138864895Y-75618458D01*
X138667683Y-77217838D01*
X138551779Y-78478944D01*
X138391279Y-80280145D01*
X138201715Y-82021051D01*
X138011114Y-83459411D01*
X137898748Y-84123389D01*
X137692796Y-85241864D01*
X137425647Y-86804597D01*
X137129045Y-88612515D01*
X136834735Y-90466543D01*
X136574460Y-92167608D01*
X136379965Y-93516637D01*
X136298210Y-94160659D01*
X136110444Y-94970571D01*
X135829665Y-95182108D01*
X135503383Y-94888313D01*
X135179111Y-94182229D01*
X134904358Y-93156902D01*
X134726637Y-91905373D01*
X134685582Y-91002556D01*
X134586527Y-89397224D01*
X134332534Y-87548613D01*
X133964404Y-85638553D01*
X133522941Y-83848878D01*
X133048945Y-82361419D01*
X132589988Y-81372592D01*
X133847796Y-81372592D01*
X134052336Y-82277990D01*
X134075540Y-82354061D01*
X134487230Y-83695469D01*
X134934866Y-81969151D01*
X135199318Y-80830394D01*
X135363583Y-79895042D01*
X135389306Y-79598405D01*
X135311533Y-79278218D01*
X135002040Y-79458447D01*
X134529981Y-79983315D01*
X133983550Y-80730092D01*
X133847796Y-81372592D01*
X132589988Y-81372592D01*
X132583218Y-81358007D01*
X132492333Y-81228426D01*
X132311663Y-80657939D01*
X132369862Y-80463942D01*
X132401998Y-79967716D01*
X132279714Y-79005795D01*
X132052669Y-77890849D01*
X131784591Y-76369972D01*
X131590988Y-74543558D01*
X131514442Y-72834500D01*
X131509543Y-72703831D01*
X132268016Y-72703831D01*
X132315466Y-73701438D01*
X132431148Y-74713797D01*
X132579953Y-75503420D01*
X132726775Y-75832822D01*
X132730610Y-75833111D01*
X132852890Y-75517826D01*
X133079187Y-74688938D01*
X133361808Y-73521895D01*
X133377928Y-73451861D01*
X133851143Y-71304449D01*
X134131845Y-69820860D01*
X134222415Y-68986810D01*
X134156995Y-68777556D01*
X133780029Y-69077898D01*
X133297732Y-69833373D01*
X132815143Y-70825649D01*
X132437305Y-71836397D01*
X132269259Y-72647285D01*
X132268016Y-72703831D01*
X131509543Y-72703831D01*
X131458438Y-71340757D01*
X131316631Y-69558033D01*
X131112548Y-67674016D01*
X130869713Y-65876394D01*
X130611651Y-64352856D01*
X130366217Y-63309500D01*
X131454096Y-63309500D01*
X131503053Y-64224743D01*
X131633244Y-65338892D01*
X131810448Y-66449820D01*
X132000449Y-67355399D01*
X132169029Y-67853500D01*
X132229590Y-67890371D01*
X132421158Y-67482973D01*
X132660009Y-66581878D01*
X132869636Y-65518739D01*
X133194522Y-63585470D01*
X133406580Y-62212171D01*
X133518769Y-61264560D01*
X133544050Y-60608356D01*
X133495382Y-60109278D01*
X133423606Y-59778917D01*
X133276497Y-59330652D01*
X133101674Y-59300282D01*
X132823470Y-59765196D01*
X132366220Y-60802783D01*
X132323243Y-60904322D01*
X131868968Y-62030833D01*
X131554325Y-62910433D01*
X131454096Y-63309500D01*
X130366217Y-63309500D01*
X130361886Y-63291089D01*
X130293634Y-63094515D01*
X129816495Y-62489928D01*
X129291984Y-62118055D01*
X128345650Y-61874262D01*
X127116114Y-61865581D01*
X125906976Y-62063088D01*
X125021842Y-62437861D01*
X124906030Y-62535891D01*
X124280803Y-63636736D01*
X124099560Y-65167344D01*
X124373647Y-67000132D01*
X124476464Y-67366444D01*
X124671377Y-68137409D01*
X124817355Y-69048285D01*
X124919814Y-70202138D01*
X124984172Y-71702034D01*
X125015845Y-73651036D01*
X125020251Y-76152211D01*
X125014172Y-77597000D01*
X125005772Y-80337779D01*
X125018823Y-82481278D01*
X125059621Y-84135610D01*
X125134460Y-85408888D01*
X125249636Y-86409224D01*
X125411443Y-87244730D01*
X125620135Y-88003944D01*
X125912754Y-89271418D01*
X126159696Y-90937426D01*
X126353071Y-92844715D01*
X126484990Y-94836033D01*
X126547565Y-96754128D01*
X126532907Y-98441748D01*
X126433126Y-99741641D01*
X126246303Y-100485674D01*
X125854948Y-101017272D01*
X125448112Y-100957736D01*
X125297009Y-100843041D01*
X124514039Y-99921833D01*
X123727091Y-98548497D01*
X123058045Y-96965143D01*
X122671510Y-95627629D01*
X122282717Y-94145778D01*
X121789652Y-92728238D01*
X121265110Y-91547116D01*
X120781884Y-90774519D01*
X120534937Y-90576146D01*
X120249667Y-90174159D01*
X120222025Y-90069156D01*
X121437250Y-90069156D01*
X121498570Y-90443070D01*
X121771750Y-90952988D01*
X121932403Y-90766864D01*
X121980072Y-89885253D01*
X121979828Y-89856028D01*
X121934214Y-89146608D01*
X121786236Y-89067431D01*
X121626488Y-89296543D01*
X121437250Y-90069156D01*
X120222025Y-90069156D01*
X120030077Y-89340016D01*
X119996868Y-89094324D01*
X119752358Y-87892211D01*
X119359795Y-86800399D01*
X119327306Y-86735544D01*
X119000342Y-85938963D01*
X118577128Y-84682278D01*
X118131463Y-83190139D01*
X117972229Y-82610569D01*
X117274946Y-80249914D01*
X116838516Y-79120318D01*
X117929655Y-79120318D01*
X118181303Y-80564413D01*
X118468472Y-81482636D01*
X118673550Y-81749362D01*
X118781391Y-81415469D01*
X118776848Y-80531831D01*
X118644775Y-79149324D01*
X118632226Y-79049754D01*
X118477626Y-77978193D01*
X118344961Y-77526328D01*
X118191339Y-77611284D01*
X118053622Y-77931797D01*
X117929655Y-79120318D01*
X116838516Y-79120318D01*
X116629047Y-78578160D01*
X116027846Y-77581049D01*
X115464653Y-77244321D01*
X115455107Y-77244222D01*
X114991485Y-77050851D01*
X114935000Y-76891444D01*
X114653823Y-76593842D01*
X113969334Y-76567109D01*
X113120097Y-76789193D01*
X112503510Y-77116233D01*
X112087487Y-77459368D01*
X111858918Y-77879009D01*
X111782833Y-78556132D01*
X110738872Y-78556132D01*
X110794387Y-78049017D01*
X111032374Y-77412629D01*
X111065844Y-77373934D01*
X111228859Y-76889684D01*
X111322957Y-76278973D01*
X112046651Y-76278973D01*
X113049130Y-76027367D01*
X113814724Y-75802143D01*
X114195242Y-75632128D01*
X114149429Y-75257106D01*
X113888771Y-74418543D01*
X113503137Y-73384418D01*
X113067761Y-72318900D01*
X112745237Y-71586903D01*
X112609918Y-71351865D01*
X112547673Y-71710691D01*
X112438605Y-72585803D01*
X112305786Y-73791405D01*
X112299544Y-73851181D01*
X112046651Y-76278973D01*
X111322957Y-76278973D01*
X111387207Y-75861982D01*
X111520491Y-74452757D01*
X111594647Y-73176242D01*
X111684807Y-71593079D01*
X111801390Y-70276118D01*
X111927926Y-69382104D01*
X112025395Y-69076605D01*
X112258784Y-69272287D01*
X112693275Y-70003887D01*
X113265297Y-71153292D01*
X113866917Y-72498186D01*
X114517794Y-73962320D01*
X115094650Y-75151216D01*
X115531072Y-75934774D01*
X115749472Y-76185889D01*
X116173845Y-76433210D01*
X116686598Y-76963870D01*
X117316569Y-77741852D01*
X117570261Y-76586804D01*
X117665895Y-75633133D01*
X117664405Y-74288097D01*
X117578394Y-72986600D01*
X117497093Y-71780323D01*
X117514199Y-70906787D01*
X117625469Y-70543217D01*
X117636903Y-70541444D01*
X117861539Y-70870541D01*
X118130349Y-71769405D01*
X118420916Y-73105398D01*
X118710822Y-74745882D01*
X118977651Y-76558216D01*
X119198988Y-78409764D01*
X119352414Y-80167886D01*
X119395728Y-80948389D01*
X119527765Y-82702678D01*
X119758130Y-84447024D01*
X120056446Y-86041816D01*
X120392339Y-87347443D01*
X120735434Y-88224295D01*
X121045923Y-88533111D01*
X121187667Y-88214273D01*
X121254821Y-87389195D01*
X121243230Y-86527088D01*
X121251522Y-85327728D01*
X121388985Y-84571316D01*
X121526966Y-84395511D01*
X121823745Y-84423383D01*
X122063314Y-84784950D01*
X122265025Y-85565302D01*
X122448232Y-86849528D01*
X122632288Y-88722720D01*
X122703284Y-89567454D01*
X122945639Y-92125584D01*
X123222500Y-94126422D01*
X123564705Y-95718223D01*
X124003093Y-97049241D01*
X124475989Y-98089452D01*
X125023130Y-99051725D01*
X125419489Y-99460941D01*
X125678195Y-99287215D01*
X125812375Y-98500662D01*
X125835158Y-97071399D01*
X125768283Y-95147694D01*
X125219777Y-90447687D01*
X124017244Y-85549127D01*
X122170784Y-80491666D01*
X122056249Y-80226001D01*
X123201313Y-80226001D01*
X123279481Y-80784358D01*
X123495996Y-81449032D01*
X123807375Y-82091818D01*
X124013865Y-82148134D01*
X124041334Y-82061618D01*
X123970756Y-81332645D01*
X123748169Y-80760274D01*
X123367065Y-80191962D01*
X123201313Y-80226001D01*
X122056249Y-80226001D01*
X121837308Y-79718170D01*
X121761205Y-79537278D01*
X122696111Y-79537278D01*
X122872500Y-79713667D01*
X123048889Y-79537278D01*
X122872500Y-79360889D01*
X122696111Y-79537278D01*
X121761205Y-79537278D01*
X121118391Y-78009351D01*
X120714917Y-76846860D01*
X120609261Y-76155032D01*
X120783796Y-75858205D01*
X120932222Y-75833111D01*
X121286278Y-76037715D01*
X121298554Y-76097694D01*
X121526045Y-76474643D01*
X122109050Y-77207210D01*
X122911872Y-78126167D01*
X124511636Y-79890055D01*
X124359947Y-77244222D01*
X124273461Y-76146723D01*
X124118819Y-75189280D01*
X123843499Y-74216006D01*
X123394979Y-73071012D01*
X122720738Y-71598408D01*
X121864685Y-69838040D01*
X121046283Y-68158796D01*
X120352441Y-66702951D01*
X120251635Y-66484500D01*
X121270068Y-66484500D01*
X122589615Y-69218528D01*
X123194167Y-70449029D01*
X123677854Y-71392202D01*
X123965088Y-71902363D01*
X124008192Y-71952556D01*
X124074682Y-71642698D01*
X124106707Y-70884566D01*
X124107222Y-70763204D01*
X123948376Y-69831950D01*
X123398180Y-68870080D01*
X122688645Y-68029176D01*
X121270068Y-66484500D01*
X120251635Y-66484500D01*
X119837768Y-65587641D01*
X119556871Y-64930005D01*
X119521111Y-64810957D01*
X119739843Y-64522116D01*
X120338938Y-64719536D01*
X121232744Y-65359721D01*
X122020626Y-66080196D01*
X123578056Y-67616169D01*
X123608159Y-65286446D01*
X123689828Y-63742123D01*
X123869191Y-62190787D01*
X124038340Y-61281758D01*
X124068957Y-61097076D01*
X124818180Y-61097076D01*
X124906854Y-61495259D01*
X125312677Y-61465841D01*
X125697151Y-61303926D01*
X126297009Y-60972850D01*
X126311641Y-60641809D01*
X125987707Y-60244818D01*
X125408903Y-59884748D01*
X124993210Y-60167922D01*
X124819151Y-61037121D01*
X124818180Y-61097076D01*
X124068957Y-61097076D01*
X124270834Y-59879374D01*
X124181915Y-59015316D01*
X123779771Y-58731389D01*
X123548860Y-58783407D01*
X123138642Y-58694754D01*
X123048889Y-58231965D01*
X122835655Y-57626648D01*
X122516511Y-57488667D01*
X122194684Y-57561774D01*
X121749787Y-57824723D01*
X121105643Y-58342957D01*
X120186074Y-59181916D01*
X118914904Y-60407044D01*
X117528243Y-61773962D01*
X116271035Y-62932213D01*
X115388003Y-63527786D01*
X114843530Y-63572356D01*
X114601998Y-63077597D01*
X114582222Y-62739509D01*
X114507103Y-62259656D01*
X114157402Y-62342623D01*
X113929931Y-62495746D01*
X113417787Y-62955692D01*
X112586715Y-63805851D01*
X111576686Y-64900504D01*
X111030387Y-65514361D01*
X110008300Y-66617235D01*
X109106463Y-67481410D01*
X108453750Y-67988602D01*
X108243095Y-68072631D01*
X107769386Y-68351114D01*
X107119195Y-69067940D01*
X106644722Y-69743573D01*
X106141010Y-70599990D01*
X105463619Y-71835506D01*
X104680780Y-73315614D01*
X103860722Y-74905808D01*
X103071678Y-76471581D01*
X102381877Y-77878428D01*
X101859551Y-78991841D01*
X101572929Y-79677314D01*
X101539071Y-79808582D01*
X100850944Y-79808582D01*
X100849052Y-79451820D01*
X101016422Y-78683678D01*
X101151273Y-78461305D01*
X101433595Y-78023830D01*
X101947047Y-77095892D01*
X102614089Y-75821483D01*
X103231491Y-74598389D01*
X104744670Y-71652430D01*
X106030614Y-69364423D01*
X107094616Y-67726179D01*
X107941969Y-66729513D01*
X108551118Y-66369481D01*
X109193629Y-66056522D01*
X110070294Y-65362108D01*
X110807321Y-64630993D01*
X112332830Y-63014750D01*
X113482691Y-61935664D01*
X114303650Y-61365750D01*
X114842455Y-61277017D01*
X115145852Y-61641479D01*
X115224119Y-61986583D01*
X115439735Y-62550635D01*
X115759005Y-62808383D01*
X115977803Y-62630684D01*
X115993333Y-62473233D01*
X116231995Y-62082280D01*
X116848072Y-61394214D01*
X117455829Y-60797539D01*
X118421164Y-59892382D01*
X119291118Y-59073673D01*
X119661525Y-58723389D01*
X120979147Y-57579110D01*
X122080370Y-56830241D01*
X122891266Y-56512117D01*
X123337905Y-56660073D01*
X123401667Y-56935727D01*
X123466501Y-57335977D01*
X123709468Y-57407632D01*
X124203264Y-57104228D01*
X125020586Y-56379304D01*
X126234129Y-55186397D01*
X126400278Y-55019222D01*
X127465899Y-53970361D01*
X128353924Y-53142752D01*
X128945084Y-52645044D01*
X129111102Y-52549778D01*
X129512729Y-52782613D01*
X130101503Y-53333447D01*
X130681943Y-53850758D01*
X131171412Y-53865086D01*
X131614551Y-53623657D01*
X133312640Y-52683150D01*
X134643953Y-52221696D01*
X135562983Y-52250631D01*
X135925278Y-52549778D01*
X136497159Y-52877486D01*
X137381980Y-52779651D01*
X138354844Y-52287392D01*
X138474848Y-52197000D01*
X139632071Y-51644023D01*
X140718754Y-51491444D01*
X141853689Y-51379393D01*
X142898780Y-51094434D01*
X143637476Y-50713363D01*
X143862778Y-50376485D01*
X144170937Y-50182477D01*
X144921627Y-50106918D01*
X145009306Y-50108184D01*
G36*
X148288663Y-50204282D02*
X149406201Y-50398760D01*
X150377787Y-50514188D01*
X150939173Y-50433958D01*
X150999216Y-50366852D01*
X151343141Y-50283734D01*
X152044668Y-50461689D01*
X152855640Y-50800037D01*
X153527901Y-51198099D01*
X153803765Y-51504684D01*
X154131159Y-51712037D01*
X154917386Y-51513455D01*
X156243181Y-51166898D01*
X157122019Y-51324934D01*
X157586337Y-51932417D01*
X157811745Y-52354657D01*
X158209337Y-52593807D01*
X158953435Y-52700687D01*
X160218364Y-52726121D01*
X160308996Y-52726167D01*
X161601856Y-52749833D01*
X162333055Y-52845189D01*
X162645612Y-53048769D01*
X162688959Y-53334123D01*
X162777557Y-53746084D01*
X163247801Y-53617586D01*
X163259936Y-53611118D01*
X163927508Y-53436479D01*
X164173044Y-53773490D01*
X164085450Y-54171767D01*
X164114990Y-54593254D01*
X164667974Y-54585885D01*
X165708448Y-54150784D01*
X165770150Y-54119101D01*
X166852141Y-53751543D01*
X167662312Y-53834902D01*
X168070675Y-54326039D01*
X168051230Y-54876095D01*
X167955647Y-55513881D01*
X168026762Y-55724778D01*
X168394963Y-55544007D01*
X169175310Y-55070965D01*
X170158754Y-54434396D01*
X171205502Y-53756431D01*
X171836049Y-53434601D01*
X172216763Y-53427023D01*
X172514012Y-53691811D01*
X172610981Y-53817035D01*
X172961048Y-54831424D01*
X172915894Y-55636583D01*
X172712034Y-56783111D01*
X174330662Y-56783111D01*
X175423976Y-56856432D01*
X176088732Y-57148625D01*
X176531690Y-57671966D01*
X176906519Y-58766981D01*
X176938538Y-60146474D01*
X176654473Y-61493880D01*
X176128989Y-62441871D01*
X175714374Y-62945040D01*
X175801698Y-63115552D01*
X176193102Y-63133111D01*
X177169877Y-63379646D01*
X177643163Y-64116906D01*
X177612996Y-65341380D01*
X177079408Y-67049552D01*
X176135262Y-69061805D01*
X175411994Y-70462945D01*
X174989710Y-71367541D01*
X174835155Y-71900414D01*
X174915070Y-72186381D01*
X175196198Y-72350263D01*
X175253317Y-72371901D01*
X175852506Y-72930806D01*
X175965556Y-73464658D01*
X175818343Y-74570377D01*
X175420083Y-76094905D01*
X174835841Y-77826274D01*
X174130682Y-79552515D01*
X174027406Y-79778710D01*
X173560926Y-80855914D01*
X173403505Y-81479722D01*
X173528423Y-81817268D01*
X173683720Y-81928313D01*
X174027241Y-82218709D01*
X174143969Y-82657833D01*
X174006585Y-83349411D01*
X173587768Y-84397169D01*
X172860198Y-85904833D01*
X172396211Y-86816609D01*
X171693228Y-88238958D01*
X171158514Y-89425883D01*
X170849206Y-90243031D01*
X170808711Y-90549415D01*
X170989437Y-90456809D01*
X171026667Y-90150009D01*
X171198435Y-89691163D01*
X171405903Y-89659060D01*
X171641174Y-89787785D01*
X171718318Y-90069177D01*
X171623481Y-90655775D01*
X171342807Y-91700119D01*
X171164373Y-92318133D01*
X170804467Y-93974500D01*
X170752217Y-95314697D01*
X170999478Y-96224936D01*
X171469614Y-96582164D01*
X172055571Y-96387857D01*
X172994872Y-95701570D01*
X174203465Y-94584937D01*
X174231864Y-94556581D01*
X175215115Y-93589382D01*
X175998170Y-92849171D01*
X176457794Y-92451213D01*
X176522944Y-92413667D01*
X176645209Y-92709293D01*
X176671111Y-93090369D01*
X176853474Y-94211310D01*
X177364815Y-94809128D01*
X177710513Y-94883111D01*
X178222073Y-94644791D01*
X179060116Y-94020586D01*
X180076458Y-93146623D01*
X181122917Y-92159032D01*
X182051309Y-91193943D01*
X182713451Y-90387485D01*
X182867243Y-90145861D01*
X183397897Y-89679125D01*
X183978823Y-89769629D01*
X184375793Y-90328957D01*
X184432222Y-90736599D01*
X184634761Y-91653800D01*
X184987087Y-92343301D01*
X185541951Y-93135481D01*
X186892320Y-92376531D01*
X187983132Y-91535872D01*
X188445303Y-90604513D01*
X188710855Y-89777889D01*
X189025329Y-89614922D01*
X189368219Y-90077139D01*
X189719020Y-91126065D01*
X190057226Y-92723228D01*
X190255642Y-94001167D01*
X190468474Y-95172308D01*
X190730816Y-96132394D01*
X190853756Y-96427829D01*
X191078768Y-96703093D01*
X191352046Y-96609187D01*
X191763400Y-96060518D01*
X192402637Y-94971492D01*
X192426868Y-94928524D01*
X192561240Y-94706722D01*
X193251667Y-94706722D01*
X193428056Y-94883111D01*
X193604444Y-94706722D01*
X193428056Y-94530333D01*
X193251667Y-94706722D01*
X192561240Y-94706722D01*
X193231668Y-93600079D01*
X193789942Y-92926353D01*
X194117109Y-92906936D01*
X194228585Y-93541417D01*
X194139787Y-94829387D01*
X194133611Y-94883111D01*
X194039365Y-96190528D01*
X194150223Y-96866672D01*
X194485712Y-96960979D01*
X194856806Y-96714004D01*
X195408637Y-96375137D01*
X196166397Y-96014046D01*
X197140851Y-95599862D01*
X196474033Y-96917181D01*
X195969010Y-98081440D01*
X195595768Y-99227918D01*
X195559744Y-99381028D01*
X195440135Y-100160127D01*
X195654306Y-100470764D01*
X196359267Y-100527530D01*
X196398637Y-100527556D01*
X197170964Y-100619783D01*
X197458214Y-101003059D01*
X197485000Y-101361925D01*
X197269492Y-102234772D01*
X196779444Y-103093263D01*
X196175152Y-104028740D01*
X196150559Y-104563917D01*
X196706174Y-104701414D01*
X197080775Y-104647706D01*
X198097862Y-104675412D01*
X198747108Y-105154338D01*
X198896111Y-105708963D01*
X198620359Y-106151945D01*
X197921431Y-106756073D01*
X197485000Y-107053944D01*
X196653071Y-107638263D01*
X196146188Y-108108310D01*
X196073889Y-108250293D01*
X196365182Y-108580941D01*
X197072369Y-108968944D01*
X197132222Y-108994222D01*
X197952513Y-109542187D01*
X198152618Y-110276547D01*
X197726837Y-111235301D01*
X196669471Y-112456448D01*
X196603056Y-112522000D01*
X195536343Y-113694000D01*
X195073151Y-114543259D01*
X195208335Y-115103876D01*
X195936749Y-115409952D01*
X196162083Y-115444761D01*
X196874652Y-115561501D01*
X196947068Y-115687980D01*
X196557275Y-115849944D01*
X195913433Y-116374546D01*
X195489228Y-117214188D01*
X194930096Y-118213114D01*
X193839593Y-119345406D01*
X193361164Y-119741774D01*
X192224794Y-120750571D01*
X191721929Y-121490947D01*
X191708263Y-121748726D01*
X191545093Y-122291849D01*
X190775444Y-123008003D01*
X190060417Y-123502839D01*
X189180795Y-124127349D01*
X188673047Y-124598608D01*
X188636226Y-124800649D01*
X188996265Y-125191376D01*
X188759195Y-125887804D01*
X188247808Y-126525879D01*
X187693139Y-127409548D01*
X187288215Y-128567063D01*
X187233631Y-128841671D01*
X187072414Y-129581884D01*
X186936860Y-129779899D01*
X186890957Y-129631722D01*
X186915547Y-127903591D01*
X187527130Y-126562408D01*
X187693844Y-126368528D01*
X188162308Y-125819064D01*
X188146292Y-125606005D01*
X187815707Y-125574778D01*
X187351679Y-125410395D01*
X187494118Y-124932672D01*
X188229338Y-124164743D01*
X189040904Y-123503864D01*
X189901705Y-122770839D01*
X190468521Y-122145038D01*
X190600708Y-121866372D01*
X190847794Y-121439220D01*
X191503574Y-120680657D01*
X192447255Y-119725589D01*
X192898889Y-119299707D01*
X195191944Y-117181564D01*
X194560443Y-116096330D01*
X194163645Y-115294816D01*
X194155865Y-114681464D01*
X194471877Y-113961173D01*
X195113272Y-113062637D01*
X196021405Y-112153642D01*
X196249907Y-111969199D01*
X197172849Y-111089747D01*
X197418848Y-110339910D01*
X196991557Y-109663298D01*
X196424436Y-109275213D01*
X195618267Y-108664564D01*
X195452594Y-108058004D01*
X195938754Y-107377178D01*
X196792025Y-106734715D01*
X197707960Y-106010972D01*
X197951849Y-105498329D01*
X197523974Y-105198964D01*
X196582236Y-105113667D01*
X195664872Y-104929760D01*
X195350113Y-104392520D01*
X195642948Y-103523665D01*
X196073889Y-102900737D01*
X196662087Y-101988622D01*
X196674814Y-101448540D01*
X196108273Y-101239005D01*
X195921273Y-101233111D01*
X195129937Y-100979285D01*
X194828488Y-100218707D01*
X195017281Y-98952725D01*
X195184143Y-98433001D01*
X195487084Y-97522571D01*
X195531104Y-97128539D01*
X195306624Y-97107275D01*
X195101053Y-97187148D01*
X194204780Y-97435181D01*
X193781494Y-97488439D01*
X193309545Y-97405641D01*
X193161022Y-96954163D01*
X193194899Y-96342582D01*
X193193300Y-95548546D01*
X192974170Y-95412511D01*
X192552768Y-95926435D01*
X191995421Y-96974975D01*
X191498650Y-97825656D01*
X191058003Y-98281372D01*
X190781818Y-98256442D01*
X190740438Y-97967501D01*
X190623870Y-97502339D01*
X190323748Y-96690908D01*
X190272145Y-96565209D01*
X189954557Y-95547073D01*
X189665936Y-94202108D01*
X189541267Y-93383806D01*
X189357329Y-92295623D01*
X189139013Y-91559384D01*
X188977685Y-91355333D01*
X188669307Y-91613936D01*
X188665556Y-91661232D01*
X188386203Y-92042123D01*
X187695257Y-92592518D01*
X186813382Y-93168779D01*
X185961245Y-93627271D01*
X185359511Y-93824357D01*
X185341734Y-93824778D01*
X184711904Y-93520819D01*
X184128886Y-92780263D01*
X183768954Y-91860090D01*
X183726667Y-91470251D01*
X183653918Y-91181114D01*
X183382042Y-91213371D01*
X182830598Y-91620382D01*
X181919143Y-92455508D01*
X181215165Y-93136247D01*
X179633591Y-94554356D01*
X178373341Y-95387024D01*
X177387924Y-95650911D01*
X176630851Y-95362673D01*
X176255395Y-94913426D01*
X175994872Y-94586602D01*
X175680942Y-94548178D01*
X175168810Y-94856153D01*
X174313680Y-95568526D01*
X174053604Y-95795370D01*
X172670037Y-96847827D01*
X171581216Y-97305576D01*
X170730972Y-97186008D01*
X170391667Y-96929222D01*
X170080492Y-96216187D01*
X169981571Y-95066255D01*
X170100874Y-93717260D01*
X170289872Y-92875369D01*
X170455614Y-92127392D01*
X170331823Y-91895927D01*
X170113483Y-91945303D01*
X169705095Y-91923565D01*
X169653287Y-91394802D01*
X169964365Y-90336658D01*
X170644633Y-88726778D01*
X171555833Y-86831599D01*
X172298286Y-85329401D01*
X172909523Y-84068087D01*
X173328824Y-83174734D01*
X173495470Y-82776422D01*
X173496111Y-82770784D01*
X173209092Y-82714261D01*
X172731052Y-82802010D01*
X172182245Y-82846659D01*
X172164058Y-82507776D01*
X172165406Y-82504400D01*
X173227118Y-79815176D01*
X174103495Y-77513947D01*
X174774333Y-75657778D01*
X175219425Y-74303734D01*
X175418565Y-73508880D01*
X175414493Y-73328238D01*
X174963850Y-73161197D01*
X174356435Y-73224227D01*
X173666153Y-73258798D01*
X173496111Y-73023573D01*
X173650448Y-72556608D01*
X174068559Y-71612467D01*
X174683088Y-70337004D01*
X175289229Y-69140587D01*
X176244943Y-67158995D01*
X176784833Y-65691222D01*
X176917581Y-64687525D01*
X176651866Y-64098161D01*
X176203891Y-63899543D01*
X175454934Y-64025026D01*
X174915997Y-64359892D01*
X174333880Y-64752012D01*
X174094381Y-64630382D01*
X174194433Y-64096317D01*
X174630965Y-63251134D01*
X174964551Y-62757177D01*
X175707273Y-61436219D01*
X176156486Y-60031259D01*
X176265926Y-58759371D01*
X176007458Y-57863671D01*
X175443317Y-57519638D01*
X174491377Y-57341154D01*
X174316465Y-57334405D01*
X173046222Y-57210826D01*
X172369735Y-56845496D01*
X172196132Y-56167241D01*
X172261389Y-55724778D01*
X172311324Y-54855714D01*
X171947805Y-54517726D01*
X171149254Y-54707155D01*
X170012977Y-55343352D01*
X168742088Y-56040542D01*
X167706098Y-56384283D01*
X167019090Y-56352310D01*
X166793333Y-55971722D01*
X167023201Y-55332466D01*
X167210787Y-55095657D01*
X167515306Y-54626541D01*
X167254886Y-54449929D01*
X166509142Y-54571342D01*
X165415754Y-54971161D01*
X164146099Y-55483752D01*
X163384948Y-55682047D01*
X163013475Y-55574651D01*
X162912854Y-55170169D01*
X162912778Y-55152415D01*
X162819992Y-54778068D01*
X162434893Y-54977195D01*
X162383611Y-55019222D01*
X161979328Y-55258128D01*
X161813985Y-55007426D01*
X161829874Y-54167911D01*
X161836714Y-54079056D01*
X161660028Y-53415389D01*
X160971632Y-53158923D01*
X159740196Y-53302888D01*
X159060192Y-53479213D01*
X157893338Y-53753373D01*
X157238311Y-53698186D01*
X156959499Y-53264720D01*
X156915555Y-52705347D01*
X156704747Y-52039657D01*
X156043639Y-51841260D01*
X154889209Y-52101166D01*
X154572988Y-52215824D01*
X153800416Y-52403803D01*
X153280923Y-52137535D01*
X153024547Y-51830364D01*
X152362364Y-51294100D01*
X151774108Y-51169719D01*
X150899518Y-51176784D01*
X149697345Y-51052502D01*
X148448335Y-50841436D01*
X147433239Y-50588152D01*
X147020906Y-50415219D01*
X146826185Y-50168926D01*
X147265287Y-50098500D01*
X148288663Y-50204282D01*
X148288663Y-50204282D01*
G37*
X148288663Y-50204282D02*
X149406201Y-50398760D01*
X150377787Y-50514188D01*
X150939173Y-50433958D01*
X150999216Y-50366852D01*
X151343141Y-50283734D01*
X152044668Y-50461689D01*
X152855640Y-50800037D01*
X153527901Y-51198099D01*
X153803765Y-51504684D01*
X154131159Y-51712037D01*
X154917386Y-51513455D01*
X156243181Y-51166898D01*
X157122019Y-51324934D01*
X157586337Y-51932417D01*
X157811745Y-52354657D01*
X158209337Y-52593807D01*
X158953435Y-52700687D01*
X160218364Y-52726121D01*
X160308996Y-52726167D01*
X161601856Y-52749833D01*
X162333055Y-52845189D01*
X162645612Y-53048769D01*
X162688959Y-53334123D01*
X162777557Y-53746084D01*
X163247801Y-53617586D01*
X163259936Y-53611118D01*
X163927508Y-53436479D01*
X164173044Y-53773490D01*
X164085450Y-54171767D01*
X164114990Y-54593254D01*
X164667974Y-54585885D01*
X165708448Y-54150784D01*
X165770150Y-54119101D01*
X166852141Y-53751543D01*
X167662312Y-53834902D01*
X168070675Y-54326039D01*
X168051230Y-54876095D01*
X167955647Y-55513881D01*
X168026762Y-55724778D01*
X168394963Y-55544007D01*
X169175310Y-55070965D01*
X170158754Y-54434396D01*
X171205502Y-53756431D01*
X171836049Y-53434601D01*
X172216763Y-53427023D01*
X172514012Y-53691811D01*
X172610981Y-53817035D01*
X172961048Y-54831424D01*
X172915894Y-55636583D01*
X172712034Y-56783111D01*
X174330662Y-56783111D01*
X175423976Y-56856432D01*
X176088732Y-57148625D01*
X176531690Y-57671966D01*
X176906519Y-58766981D01*
X176938538Y-60146474D01*
X176654473Y-61493880D01*
X176128989Y-62441871D01*
X175714374Y-62945040D01*
X175801698Y-63115552D01*
X176193102Y-63133111D01*
X177169877Y-63379646D01*
X177643163Y-64116906D01*
X177612996Y-65341380D01*
X177079408Y-67049552D01*
X176135262Y-69061805D01*
X175411994Y-70462945D01*
X174989710Y-71367541D01*
X174835155Y-71900414D01*
X174915070Y-72186381D01*
X175196198Y-72350263D01*
X175253317Y-72371901D01*
X175852506Y-72930806D01*
X175965556Y-73464658D01*
X175818343Y-74570377D01*
X175420083Y-76094905D01*
X174835841Y-77826274D01*
X174130682Y-79552515D01*
X174027406Y-79778710D01*
X173560926Y-80855914D01*
X173403505Y-81479722D01*
X173528423Y-81817268D01*
X173683720Y-81928313D01*
X174027241Y-82218709D01*
X174143969Y-82657833D01*
X174006585Y-83349411D01*
X173587768Y-84397169D01*
X172860198Y-85904833D01*
X172396211Y-86816609D01*
X171693228Y-88238958D01*
X171158514Y-89425883D01*
X170849206Y-90243031D01*
X170808711Y-90549415D01*
X170989437Y-90456809D01*
X171026667Y-90150009D01*
X171198435Y-89691163D01*
X171405903Y-89659060D01*
X171641174Y-89787785D01*
X171718318Y-90069177D01*
X171623481Y-90655775D01*
X171342807Y-91700119D01*
X171164373Y-92318133D01*
X170804467Y-93974500D01*
X170752217Y-95314697D01*
X170999478Y-96224936D01*
X171469614Y-96582164D01*
X172055571Y-96387857D01*
X172994872Y-95701570D01*
X174203465Y-94584937D01*
X174231864Y-94556581D01*
X175215115Y-93589382D01*
X175998170Y-92849171D01*
X176457794Y-92451213D01*
X176522944Y-92413667D01*
X176645209Y-92709293D01*
X176671111Y-93090369D01*
X176853474Y-94211310D01*
X177364815Y-94809128D01*
X177710513Y-94883111D01*
X178222073Y-94644791D01*
X179060116Y-94020586D01*
X180076458Y-93146623D01*
X181122917Y-92159032D01*
X182051309Y-91193943D01*
X182713451Y-90387485D01*
X182867243Y-90145861D01*
X183397897Y-89679125D01*
X183978823Y-89769629D01*
X184375793Y-90328957D01*
X184432222Y-90736599D01*
X184634761Y-91653800D01*
X184987087Y-92343301D01*
X185541951Y-93135481D01*
X186892320Y-92376531D01*
X187983132Y-91535872D01*
X188445303Y-90604513D01*
X188710855Y-89777889D01*
X189025329Y-89614922D01*
X189368219Y-90077139D01*
X189719020Y-91126065D01*
X190057226Y-92723228D01*
X190255642Y-94001167D01*
X190468474Y-95172308D01*
X190730816Y-96132394D01*
X190853756Y-96427829D01*
X191078768Y-96703093D01*
X191352046Y-96609187D01*
X191763400Y-96060518D01*
X192402637Y-94971492D01*
X192426868Y-94928524D01*
X192561240Y-94706722D01*
X193251667Y-94706722D01*
X193428056Y-94883111D01*
X193604444Y-94706722D01*
X193428056Y-94530333D01*
X193251667Y-94706722D01*
X192561240Y-94706722D01*
X193231668Y-93600079D01*
X193789942Y-92926353D01*
X194117109Y-92906936D01*
X194228585Y-93541417D01*
X194139787Y-94829387D01*
X194133611Y-94883111D01*
X194039365Y-96190528D01*
X194150223Y-96866672D01*
X194485712Y-96960979D01*
X194856806Y-96714004D01*
X195408637Y-96375137D01*
X196166397Y-96014046D01*
X197140851Y-95599862D01*
X196474033Y-96917181D01*
X195969010Y-98081440D01*
X195595768Y-99227918D01*
X195559744Y-99381028D01*
X195440135Y-100160127D01*
X195654306Y-100470764D01*
X196359267Y-100527530D01*
X196398637Y-100527556D01*
X197170964Y-100619783D01*
X197458214Y-101003059D01*
X197485000Y-101361925D01*
X197269492Y-102234772D01*
X196779444Y-103093263D01*
X196175152Y-104028740D01*
X196150559Y-104563917D01*
X196706174Y-104701414D01*
X197080775Y-104647706D01*
X198097862Y-104675412D01*
X198747108Y-105154338D01*
X198896111Y-105708963D01*
X198620359Y-106151945D01*
X197921431Y-106756073D01*
X197485000Y-107053944D01*
X196653071Y-107638263D01*
X196146188Y-108108310D01*
X196073889Y-108250293D01*
X196365182Y-108580941D01*
X197072369Y-108968944D01*
X197132222Y-108994222D01*
X197952513Y-109542187D01*
X198152618Y-110276547D01*
X197726837Y-111235301D01*
X196669471Y-112456448D01*
X196603056Y-112522000D01*
X195536343Y-113694000D01*
X195073151Y-114543259D01*
X195208335Y-115103876D01*
X195936749Y-115409952D01*
X196162083Y-115444761D01*
X196874652Y-115561501D01*
X196947068Y-115687980D01*
X196557275Y-115849944D01*
X195913433Y-116374546D01*
X195489228Y-117214188D01*
X194930096Y-118213114D01*
X193839593Y-119345406D01*
X193361164Y-119741774D01*
X192224794Y-120750571D01*
X191721929Y-121490947D01*
X191708263Y-121748726D01*
X191545093Y-122291849D01*
X190775444Y-123008003D01*
X190060417Y-123502839D01*
X189180795Y-124127349D01*
X188673047Y-124598608D01*
X188636226Y-124800649D01*
X188996265Y-125191376D01*
X188759195Y-125887804D01*
X188247808Y-126525879D01*
X187693139Y-127409548D01*
X187288215Y-128567063D01*
X187233631Y-128841671D01*
X187072414Y-129581884D01*
X186936860Y-129779899D01*
X186890957Y-129631722D01*
X186915547Y-127903591D01*
X187527130Y-126562408D01*
X187693844Y-126368528D01*
X188162308Y-125819064D01*
X188146292Y-125606005D01*
X187815707Y-125574778D01*
X187351679Y-125410395D01*
X187494118Y-124932672D01*
X188229338Y-124164743D01*
X189040904Y-123503864D01*
X189901705Y-122770839D01*
X190468521Y-122145038D01*
X190600708Y-121866372D01*
X190847794Y-121439220D01*
X191503574Y-120680657D01*
X192447255Y-119725589D01*
X192898889Y-119299707D01*
X195191944Y-117181564D01*
X194560443Y-116096330D01*
X194163645Y-115294816D01*
X194155865Y-114681464D01*
X194471877Y-113961173D01*
X195113272Y-113062637D01*
X196021405Y-112153642D01*
X196249907Y-111969199D01*
X197172849Y-111089747D01*
X197418848Y-110339910D01*
X196991557Y-109663298D01*
X196424436Y-109275213D01*
X195618267Y-108664564D01*
X195452594Y-108058004D01*
X195938754Y-107377178D01*
X196792025Y-106734715D01*
X197707960Y-106010972D01*
X197951849Y-105498329D01*
X197523974Y-105198964D01*
X196582236Y-105113667D01*
X195664872Y-104929760D01*
X195350113Y-104392520D01*
X195642948Y-103523665D01*
X196073889Y-102900737D01*
X196662087Y-101988622D01*
X196674814Y-101448540D01*
X196108273Y-101239005D01*
X195921273Y-101233111D01*
X195129937Y-100979285D01*
X194828488Y-100218707D01*
X195017281Y-98952725D01*
X195184143Y-98433001D01*
X195487084Y-97522571D01*
X195531104Y-97128539D01*
X195306624Y-97107275D01*
X195101053Y-97187148D01*
X194204780Y-97435181D01*
X193781494Y-97488439D01*
X193309545Y-97405641D01*
X193161022Y-96954163D01*
X193194899Y-96342582D01*
X193193300Y-95548546D01*
X192974170Y-95412511D01*
X192552768Y-95926435D01*
X191995421Y-96974975D01*
X191498650Y-97825656D01*
X191058003Y-98281372D01*
X190781818Y-98256442D01*
X190740438Y-97967501D01*
X190623870Y-97502339D01*
X190323748Y-96690908D01*
X190272145Y-96565209D01*
X189954557Y-95547073D01*
X189665936Y-94202108D01*
X189541267Y-93383806D01*
X189357329Y-92295623D01*
X189139013Y-91559384D01*
X188977685Y-91355333D01*
X188669307Y-91613936D01*
X188665556Y-91661232D01*
X188386203Y-92042123D01*
X187695257Y-92592518D01*
X186813382Y-93168779D01*
X185961245Y-93627271D01*
X185359511Y-93824357D01*
X185341734Y-93824778D01*
X184711904Y-93520819D01*
X184128886Y-92780263D01*
X183768954Y-91860090D01*
X183726667Y-91470251D01*
X183653918Y-91181114D01*
X183382042Y-91213371D01*
X182830598Y-91620382D01*
X181919143Y-92455508D01*
X181215165Y-93136247D01*
X179633591Y-94554356D01*
X178373341Y-95387024D01*
X177387924Y-95650911D01*
X176630851Y-95362673D01*
X176255395Y-94913426D01*
X175994872Y-94586602D01*
X175680942Y-94548178D01*
X175168810Y-94856153D01*
X174313680Y-95568526D01*
X174053604Y-95795370D01*
X172670037Y-96847827D01*
X171581216Y-97305576D01*
X170730972Y-97186008D01*
X170391667Y-96929222D01*
X170080492Y-96216187D01*
X169981571Y-95066255D01*
X170100874Y-93717260D01*
X170289872Y-92875369D01*
X170455614Y-92127392D01*
X170331823Y-91895927D01*
X170113483Y-91945303D01*
X169705095Y-91923565D01*
X169653287Y-91394802D01*
X169964365Y-90336658D01*
X170644633Y-88726778D01*
X171555833Y-86831599D01*
X172298286Y-85329401D01*
X172909523Y-84068087D01*
X173328824Y-83174734D01*
X173495470Y-82776422D01*
X173496111Y-82770784D01*
X173209092Y-82714261D01*
X172731052Y-82802010D01*
X172182245Y-82846659D01*
X172164058Y-82507776D01*
X172165406Y-82504400D01*
X173227118Y-79815176D01*
X174103495Y-77513947D01*
X174774333Y-75657778D01*
X175219425Y-74303734D01*
X175418565Y-73508880D01*
X175414493Y-73328238D01*
X174963850Y-73161197D01*
X174356435Y-73224227D01*
X173666153Y-73258798D01*
X173496111Y-73023573D01*
X173650448Y-72556608D01*
X174068559Y-71612467D01*
X174683088Y-70337004D01*
X175289229Y-69140587D01*
X176244943Y-67158995D01*
X176784833Y-65691222D01*
X176917581Y-64687525D01*
X176651866Y-64098161D01*
X176203891Y-63899543D01*
X175454934Y-64025026D01*
X174915997Y-64359892D01*
X174333880Y-64752012D01*
X174094381Y-64630382D01*
X174194433Y-64096317D01*
X174630965Y-63251134D01*
X174964551Y-62757177D01*
X175707273Y-61436219D01*
X176156486Y-60031259D01*
X176265926Y-58759371D01*
X176007458Y-57863671D01*
X175443317Y-57519638D01*
X174491377Y-57341154D01*
X174316465Y-57334405D01*
X173046222Y-57210826D01*
X172369735Y-56845496D01*
X172196132Y-56167241D01*
X172261389Y-55724778D01*
X172311324Y-54855714D01*
X171947805Y-54517726D01*
X171149254Y-54707155D01*
X170012977Y-55343352D01*
X168742088Y-56040542D01*
X167706098Y-56384283D01*
X167019090Y-56352310D01*
X166793333Y-55971722D01*
X167023201Y-55332466D01*
X167210787Y-55095657D01*
X167515306Y-54626541D01*
X167254886Y-54449929D01*
X166509142Y-54571342D01*
X165415754Y-54971161D01*
X164146099Y-55483752D01*
X163384948Y-55682047D01*
X163013475Y-55574651D01*
X162912854Y-55170169D01*
X162912778Y-55152415D01*
X162819992Y-54778068D01*
X162434893Y-54977195D01*
X162383611Y-55019222D01*
X161979328Y-55258128D01*
X161813985Y-55007426D01*
X161829874Y-54167911D01*
X161836714Y-54079056D01*
X161660028Y-53415389D01*
X160971632Y-53158923D01*
X159740196Y-53302888D01*
X159060192Y-53479213D01*
X157893338Y-53753373D01*
X157238311Y-53698186D01*
X156959499Y-53264720D01*
X156915555Y-52705347D01*
X156704747Y-52039657D01*
X156043639Y-51841260D01*
X154889209Y-52101166D01*
X154572988Y-52215824D01*
X153800416Y-52403803D01*
X153280923Y-52137535D01*
X153024547Y-51830364D01*
X152362364Y-51294100D01*
X151774108Y-51169719D01*
X150899518Y-51176784D01*
X149697345Y-51052502D01*
X148448335Y-50841436D01*
X147433239Y-50588152D01*
X147020906Y-50415219D01*
X146826185Y-50168926D01*
X147265287Y-50098500D01*
X148288663Y-50204282D01*
G36*
X187892625Y-116413775D02*
X188710735Y-116443860D01*
X188917869Y-116568189D01*
X188608481Y-116867729D01*
X188509935Y-116942942D01*
X187612520Y-117383163D01*
X186779341Y-117417388D01*
X186440887Y-117235294D01*
X186325321Y-116824556D01*
X186809155Y-116531143D01*
X187788672Y-116413746D01*
X187892625Y-116413775D01*
X187892625Y-116413775D01*
G37*
X187892625Y-116413775D02*
X188710735Y-116443860D01*
X188917869Y-116568189D01*
X188608481Y-116867729D01*
X188509935Y-116942942D01*
X187612520Y-117383163D01*
X186779341Y-117417388D01*
X186440887Y-117235294D01*
X186325321Y-116824556D01*
X186809155Y-116531143D01*
X187788672Y-116413746D01*
X187892625Y-116413775D01*
G36*
X199340754Y-115456207D02*
X199425278Y-115697000D01*
X198927695Y-115993356D01*
X198522513Y-116049778D01*
X197960663Y-115898032D01*
X197837778Y-115697000D01*
X198140302Y-115434057D01*
X198740542Y-115344222D01*
X199340754Y-115456207D01*
X199340754Y-115456207D01*
G37*
X199340754Y-115456207D02*
X199425278Y-115697000D01*
X198927695Y-115993356D01*
X198522513Y-116049778D01*
X197960663Y-115898032D01*
X197837778Y-115697000D01*
X198140302Y-115434057D01*
X198740542Y-115344222D01*
X199340754Y-115456207D01*
G36*
X149976280Y-117029844D02*
X151396817Y-117846812D01*
X152709023Y-118641398D01*
X153698531Y-119282399D01*
X153950243Y-119462099D01*
X154820659Y-120001106D01*
X155563158Y-120274620D01*
X155663681Y-120283111D01*
X156112081Y-120481981D01*
X156097969Y-120771774D01*
X156212407Y-121303039D01*
X156727675Y-122028166D01*
X156942170Y-122248887D01*
X157600238Y-123000075D01*
X157954311Y-123639314D01*
X157973889Y-123759200D01*
X157766934Y-123818932D01*
X157219875Y-123413257D01*
X156616968Y-122811254D01*
X155608600Y-121883196D01*
X154740564Y-121390874D01*
X154462558Y-121341444D01*
X153879400Y-121193642D01*
X153858993Y-120836086D01*
X153686102Y-120380004D01*
X153008898Y-119728465D01*
X151963607Y-118981850D01*
X150686455Y-118240539D01*
X149683611Y-117759371D01*
X148882977Y-117349754D01*
X148409975Y-116995984D01*
X148403272Y-116986975D01*
X147805902Y-116700507D01*
X146691464Y-116649207D01*
X145202205Y-116817023D01*
X143480373Y-117187901D01*
X141668214Y-117745791D01*
X141663166Y-117747594D01*
X139190135Y-118692868D01*
X137337844Y-119559855D01*
X136034281Y-120404063D01*
X135207432Y-121280999D01*
X134785283Y-122246171D01*
X134690556Y-123122080D01*
X134702514Y-123716411D01*
X134801942Y-124180234D01*
X135084165Y-124627924D01*
X135644509Y-125173855D01*
X136578302Y-125932401D01*
X137859750Y-126924526D01*
X138923889Y-127745108D01*
X138902859Y-126218971D01*
X138826416Y-124893373D01*
X138660084Y-123402841D01*
X138588176Y-122928944D01*
X138486820Y-122230701D01*
X139356478Y-122230701D01*
X139380287Y-123165374D01*
X139483669Y-124313113D01*
X139641000Y-125464214D01*
X139826657Y-126408973D01*
X140015015Y-126937684D01*
X140081452Y-126985889D01*
X140259045Y-126659764D01*
X140270635Y-125751758D01*
X140209426Y-125090924D01*
X139986710Y-123195960D01*
X142124953Y-122954045D01*
X143625861Y-122760504D01*
X144557030Y-122546574D01*
X145052446Y-122241024D01*
X145246090Y-121772622D01*
X145273889Y-121279928D01*
X145185013Y-120550249D01*
X144849466Y-120363964D01*
X144656528Y-120399343D01*
X143995301Y-120552324D01*
X142899450Y-120784729D01*
X141823979Y-121002679D01*
X140652334Y-121270451D01*
X139787056Y-121534182D01*
X139437866Y-121718799D01*
X139356478Y-122230701D01*
X138486820Y-122230701D01*
X138439271Y-121903140D01*
X138380314Y-121213064D01*
X138397630Y-121053251D01*
X138781036Y-120926159D01*
X139678014Y-120713439D01*
X140907388Y-120452483D01*
X142287982Y-120180683D01*
X143638620Y-119935431D01*
X144480139Y-119797908D01*
X145485161Y-119720523D01*
X145957847Y-119858006D01*
X145979444Y-119926164D01*
X146274874Y-120216164D01*
X146685000Y-120283111D01*
X147201445Y-120449426D01*
X147383277Y-121068248D01*
X147390556Y-121341444D01*
X147244013Y-122165378D01*
X146836190Y-122399778D01*
X146141911Y-122634251D01*
X145752659Y-122928944D01*
X145013160Y-123327736D01*
X144234454Y-123458111D01*
X143130269Y-123531729D01*
X142142986Y-123678597D01*
X141506320Y-123846156D01*
X141178726Y-124149927D01*
X141057666Y-124786777D01*
X141040556Y-125795264D01*
X141008480Y-126900955D01*
X140870401Y-127471141D01*
X140563536Y-127674546D01*
X140335000Y-127691444D01*
X139717415Y-127794680D01*
X139744584Y-128083646D01*
X140389857Y-128527235D01*
X141488346Y-129037640D01*
X142549262Y-129458368D01*
X143342749Y-129738217D01*
X143627808Y-129808111D01*
X144195492Y-129948338D01*
X145073004Y-130298053D01*
X146038724Y-130750807D01*
X146871034Y-131200153D01*
X147348313Y-131539640D01*
X147390556Y-131615442D01*
X147367289Y-131783270D01*
X147229663Y-131852556D01*
X146875940Y-131793814D01*
X146204379Y-131577561D01*
X145113242Y-131174310D01*
X143500790Y-130554579D01*
X142818868Y-130290535D01*
X141192405Y-129625420D01*
X139765099Y-128977171D01*
X138692508Y-128420676D01*
X138134331Y-128035327D01*
X137338064Y-127362061D01*
X136475361Y-126820317D01*
X135223484Y-125866245D01*
X134369122Y-124601513D01*
X133965967Y-123199655D01*
X134067709Y-121834202D01*
X134614098Y-120804556D01*
X135846850Y-119703326D01*
X137620868Y-118591832D01*
X139777169Y-117546180D01*
X142156768Y-116642479D01*
X144600684Y-115956835D01*
X144861002Y-115899202D01*
X147093948Y-115418602D01*
X149976280Y-117029844D01*
X149976280Y-117029844D01*
G37*
X149976280Y-117029844D02*
X151396817Y-117846812D01*
X152709023Y-118641398D01*
X153698531Y-119282399D01*
X153950243Y-119462099D01*
X154820659Y-120001106D01*
X155563158Y-120274620D01*
X155663681Y-120283111D01*
X156112081Y-120481981D01*
X156097969Y-120771774D01*
X156212407Y-121303039D01*
X156727675Y-122028166D01*
X156942170Y-122248887D01*
X157600238Y-123000075D01*
X157954311Y-123639314D01*
X157973889Y-123759200D01*
X157766934Y-123818932D01*
X157219875Y-123413257D01*
X156616968Y-122811254D01*
X155608600Y-121883196D01*
X154740564Y-121390874D01*
X154462558Y-121341444D01*
X153879400Y-121193642D01*
X153858993Y-120836086D01*
X153686102Y-120380004D01*
X153008898Y-119728465D01*
X151963607Y-118981850D01*
X150686455Y-118240539D01*
X149683611Y-117759371D01*
X148882977Y-117349754D01*
X148409975Y-116995984D01*
X148403272Y-116986975D01*
X147805902Y-116700507D01*
X146691464Y-116649207D01*
X145202205Y-116817023D01*
X143480373Y-117187901D01*
X141668214Y-117745791D01*
X141663166Y-117747594D01*
X139190135Y-118692868D01*
X137337844Y-119559855D01*
X136034281Y-120404063D01*
X135207432Y-121280999D01*
X134785283Y-122246171D01*
X134690556Y-123122080D01*
X134702514Y-123716411D01*
X134801942Y-124180234D01*
X135084165Y-124627924D01*
X135644509Y-125173855D01*
X136578302Y-125932401D01*
X137859750Y-126924526D01*
X138923889Y-127745108D01*
X138902859Y-126218971D01*
X138826416Y-124893373D01*
X138660084Y-123402841D01*
X138588176Y-122928944D01*
X138486820Y-122230701D01*
X139356478Y-122230701D01*
X139380287Y-123165374D01*
X139483669Y-124313113D01*
X139641000Y-125464214D01*
X139826657Y-126408973D01*
X140015015Y-126937684D01*
X140081452Y-126985889D01*
X140259045Y-126659764D01*
X140270635Y-125751758D01*
X140209426Y-125090924D01*
X139986710Y-123195960D01*
X142124953Y-122954045D01*
X143625861Y-122760504D01*
X144557030Y-122546574D01*
X145052446Y-122241024D01*
X145246090Y-121772622D01*
X145273889Y-121279928D01*
X145185013Y-120550249D01*
X144849466Y-120363964D01*
X144656528Y-120399343D01*
X143995301Y-120552324D01*
X142899450Y-120784729D01*
X141823979Y-121002679D01*
X140652334Y-121270451D01*
X139787056Y-121534182D01*
X139437866Y-121718799D01*
X139356478Y-122230701D01*
X138486820Y-122230701D01*
X138439271Y-121903140D01*
X138380314Y-121213064D01*
X138397630Y-121053251D01*
X138781036Y-120926159D01*
X139678014Y-120713439D01*
X140907388Y-120452483D01*
X142287982Y-120180683D01*
X143638620Y-119935431D01*
X144480139Y-119797908D01*
X145485161Y-119720523D01*
X145957847Y-119858006D01*
X145979444Y-119926164D01*
X146274874Y-120216164D01*
X146685000Y-120283111D01*
X147201445Y-120449426D01*
X147383277Y-121068248D01*
X147390556Y-121341444D01*
X147244013Y-122165378D01*
X146836190Y-122399778D01*
X146141911Y-122634251D01*
X145752659Y-122928944D01*
X145013160Y-123327736D01*
X144234454Y-123458111D01*
X143130269Y-123531729D01*
X142142986Y-123678597D01*
X141506320Y-123846156D01*
X141178726Y-124149927D01*
X141057666Y-124786777D01*
X141040556Y-125795264D01*
X141008480Y-126900955D01*
X140870401Y-127471141D01*
X140563536Y-127674546D01*
X140335000Y-127691444D01*
X139717415Y-127794680D01*
X139744584Y-128083646D01*
X140389857Y-128527235D01*
X141488346Y-129037640D01*
X142549262Y-129458368D01*
X143342749Y-129738217D01*
X143627808Y-129808111D01*
X144195492Y-129948338D01*
X145073004Y-130298053D01*
X146038724Y-130750807D01*
X146871034Y-131200153D01*
X147348313Y-131539640D01*
X147390556Y-131615442D01*
X147367289Y-131783270D01*
X147229663Y-131852556D01*
X146875940Y-131793814D01*
X146204379Y-131577561D01*
X145113242Y-131174310D01*
X143500790Y-130554579D01*
X142818868Y-130290535D01*
X141192405Y-129625420D01*
X139765099Y-128977171D01*
X138692508Y-128420676D01*
X138134331Y-128035327D01*
X137338064Y-127362061D01*
X136475361Y-126820317D01*
X135223484Y-125866245D01*
X134369122Y-124601513D01*
X133965967Y-123199655D01*
X134067709Y-121834202D01*
X134614098Y-120804556D01*
X135846850Y-119703326D01*
X137620868Y-118591832D01*
X139777169Y-117546180D01*
X142156768Y-116642479D01*
X144600684Y-115956835D01*
X144861002Y-115899202D01*
X147093948Y-115418602D01*
X149976280Y-117029844D01*
G36*
X150955868Y-120738073D02*
X151271030Y-120984278D01*
X151271111Y-120988667D01*
X150964558Y-121236363D01*
X150225945Y-121341417D01*
X150212778Y-121341444D01*
X149469687Y-121239260D01*
X149154526Y-120993056D01*
X149154444Y-120988667D01*
X149460997Y-120740970D01*
X150199611Y-120635916D01*
X150212778Y-120635889D01*
X150955868Y-120738073D01*
X150955868Y-120738073D01*
G37*
X150955868Y-120738073D02*
X151271030Y-120984278D01*
X151271111Y-120988667D01*
X150964558Y-121236363D01*
X150225945Y-121341417D01*
X150212778Y-121341444D01*
X149469687Y-121239260D01*
X149154526Y-120993056D01*
X149154444Y-120988667D01*
X149460997Y-120740970D01*
X150199611Y-120635916D01*
X150212778Y-120635889D01*
X150955868Y-120738073D01*
G36*
X161547638Y-120040538D02*
X161648593Y-120296750D01*
X161146886Y-120587367D01*
X160624935Y-120721235D01*
X159907380Y-120708488D01*
X159737778Y-120410580D01*
X160056239Y-120044210D01*
X160816931Y-119930333D01*
X161547638Y-120040538D01*
X161547638Y-120040538D01*
G37*
X161547638Y-120040538D02*
X161648593Y-120296750D01*
X161146886Y-120587367D01*
X160624935Y-120721235D01*
X159907380Y-120708488D01*
X159737778Y-120410580D01*
X160056239Y-120044210D01*
X160816931Y-119930333D01*
X161547638Y-120040538D01*
G36*
X170901445Y-118976663D02*
X170767172Y-119222707D01*
X170183980Y-119519270D01*
X169548981Y-119709693D01*
X168792606Y-119772496D01*
X168406421Y-119618958D01*
X168541669Y-119316509D01*
X169177003Y-119050017D01*
X170107934Y-118892674D01*
X170479861Y-118876817D01*
X170901445Y-118976663D01*
X170901445Y-118976663D01*
G37*
X170901445Y-118976663D02*
X170767172Y-119222707D01*
X170183980Y-119519270D01*
X169548981Y-119709693D01*
X168792606Y-119772496D01*
X168406421Y-119618958D01*
X168541669Y-119316509D01*
X169177003Y-119050017D01*
X170107934Y-118892674D01*
X170479861Y-118876817D01*
X170901445Y-118976663D01*
G36*
X184877794Y-103439998D02*
X184957575Y-104098660D01*
X184878652Y-104959751D01*
X184691330Y-105740251D01*
X184445917Y-106157138D01*
X184392182Y-106172000D01*
X184195122Y-105859240D01*
X184086704Y-105079272D01*
X184079444Y-104781709D01*
X184169425Y-103821080D01*
X184391056Y-103227798D01*
X184671868Y-103123654D01*
X184877794Y-103439998D01*
X184877794Y-103439998D01*
G37*
X184877794Y-103439998D02*
X184957575Y-104098660D01*
X184878652Y-104959751D01*
X184691330Y-105740251D01*
X184445917Y-106157138D01*
X184392182Y-106172000D01*
X184195122Y-105859240D01*
X184086704Y-105079272D01*
X184079444Y-104781709D01*
X184169425Y-103821080D01*
X184391056Y-103227798D01*
X184671868Y-103123654D01*
X184877794Y-103439998D01*
G36*
X110231296Y-83006259D02*
X110273517Y-83424924D01*
X110231296Y-83476630D01*
X110021570Y-83428204D01*
X109996111Y-83241444D01*
X110125187Y-82951068D01*
X110231296Y-83006259D01*
X110231296Y-83006259D01*
G37*
X110231296Y-83006259D02*
X110273517Y-83424924D01*
X110231296Y-83476630D01*
X110021570Y-83428204D01*
X109996111Y-83241444D01*
X110125187Y-82951068D01*
X110231296Y-83006259D01*
D13*
X171497667Y-141787571D02*
X171164333Y-141787571D01*
X171164333Y-142311381D02*
X171164333Y-141311381D01*
X171640524Y-141311381D01*
X171926238Y-141311381D02*
X172545286Y-141311381D01*
X172211952Y-141692333D01*
X172354810Y-141692333D01*
X172450048Y-141739952D01*
X172497667Y-141787571D01*
X172545286Y-141882810D01*
X172545286Y-142120905D01*
X172497667Y-142216143D01*
X172450048Y-142263762D01*
X172354810Y-142311381D01*
X172069095Y-142311381D01*
X171973857Y-142263762D01*
X171926238Y-142216143D01*
X117666667Y-129428571D02*
X117333333Y-129428571D01*
X117333333Y-129952381D02*
X117333333Y-128952381D01*
X117809524Y-128952381D01*
X118142857Y-129047619D02*
X118190476Y-129000000D01*
X118285714Y-128952381D01*
X118523810Y-128952381D01*
X118619048Y-129000000D01*
X118666667Y-129047619D01*
X118714286Y-129142857D01*
X118714286Y-129238095D01*
X118666667Y-129380952D01*
X118095238Y-129952381D01*
X118714286Y-129952381D01*
X174799667Y-131627571D02*
X174466333Y-131627571D01*
X174466333Y-132151381D02*
X174466333Y-131151381D01*
X174942524Y-131151381D01*
X175752048Y-131484714D02*
X175752048Y-132151381D01*
X175513952Y-131103762D02*
X175275857Y-131818048D01*
X175894905Y-131818048D01*
X113307905Y-84081381D02*
X113307905Y-83081381D01*
X113546000Y-83081381D01*
X113688858Y-83129000D01*
X113784096Y-83224238D01*
X113831715Y-83319476D01*
X113879334Y-83509952D01*
X113879334Y-83652810D01*
X113831715Y-83843286D01*
X113784096Y-83938524D01*
X113688858Y-84033762D01*
X113546000Y-84081381D01*
X113307905Y-84081381D01*
X114831715Y-84081381D02*
X114260286Y-84081381D01*
X114546000Y-84081381D02*
X114546000Y-83081381D01*
X114450762Y-83224238D01*
X114355524Y-83319476D01*
X114260286Y-83367095D01*
X116244905Y-96400381D02*
X116244905Y-95400381D01*
X116483000Y-95400381D01*
X116625858Y-95448000D01*
X116721096Y-95543238D01*
X116768715Y-95638476D01*
X116816334Y-95828952D01*
X116816334Y-95971810D01*
X116768715Y-96162286D01*
X116721096Y-96257524D01*
X116625858Y-96352762D01*
X116483000Y-96400381D01*
X116244905Y-96400381D01*
X117197286Y-95495619D02*
X117244905Y-95448000D01*
X117340143Y-95400381D01*
X117578239Y-95400381D01*
X117673477Y-95448000D01*
X117721096Y-95495619D01*
X117768715Y-95590857D01*
X117768715Y-95686095D01*
X117721096Y-95828952D01*
X117149667Y-96400381D01*
X117768715Y-96400381D01*
X121054905Y-107195381D02*
X121054905Y-106195381D01*
X121293000Y-106195381D01*
X121435858Y-106243000D01*
X121531096Y-106338238D01*
X121578715Y-106433476D01*
X121626334Y-106623952D01*
X121626334Y-106766810D01*
X121578715Y-106957286D01*
X121531096Y-107052524D01*
X121435858Y-107147762D01*
X121293000Y-107195381D01*
X121054905Y-107195381D01*
X121959667Y-106195381D02*
X122578715Y-106195381D01*
X122245381Y-106576333D01*
X122388239Y-106576333D01*
X122483477Y-106623952D01*
X122531096Y-106671571D01*
X122578715Y-106766810D01*
X122578715Y-107004905D01*
X122531096Y-107100143D01*
X122483477Y-107147762D01*
X122388239Y-107195381D01*
X122102524Y-107195381D01*
X122007286Y-107147762D01*
X121959667Y-107100143D01*
X126769905Y-70238381D02*
X126769905Y-69238381D01*
X127008000Y-69238381D01*
X127150858Y-69286000D01*
X127246096Y-69381238D01*
X127293715Y-69476476D01*
X127341334Y-69666952D01*
X127341334Y-69809810D01*
X127293715Y-70000286D01*
X127246096Y-70095524D01*
X127150858Y-70190762D01*
X127008000Y-70238381D01*
X126769905Y-70238381D01*
X128198477Y-69238381D02*
X128008000Y-69238381D01*
X127912762Y-69286000D01*
X127865143Y-69333619D01*
X127769905Y-69476476D01*
X127722286Y-69666952D01*
X127722286Y-70047905D01*
X127769905Y-70143143D01*
X127817524Y-70190762D01*
X127912762Y-70238381D01*
X128103239Y-70238381D01*
X128198477Y-70190762D01*
X128246096Y-70143143D01*
X128293715Y-70047905D01*
X128293715Y-69809810D01*
X128246096Y-69714571D01*
X128198477Y-69666952D01*
X128103239Y-69619333D01*
X127912762Y-69619333D01*
X127817524Y-69666952D01*
X127769905Y-69714571D01*
X127722286Y-69809810D01*
X128055905Y-83954381D02*
X128055905Y-82954381D01*
X128294000Y-82954381D01*
X128436858Y-83002000D01*
X128532096Y-83097238D01*
X128579715Y-83192476D01*
X128627334Y-83382952D01*
X128627334Y-83525810D01*
X128579715Y-83716286D01*
X128532096Y-83811524D01*
X128436858Y-83906762D01*
X128294000Y-83954381D01*
X128055905Y-83954381D01*
X128960667Y-82954381D02*
X129627334Y-82954381D01*
X129198762Y-83954381D01*
X129817905Y-97670381D02*
X129817905Y-96670381D01*
X130056000Y-96670381D01*
X130198858Y-96718000D01*
X130294096Y-96813238D01*
X130341715Y-96908476D01*
X130389334Y-97098952D01*
X130389334Y-97241810D01*
X130341715Y-97432286D01*
X130294096Y-97527524D01*
X130198858Y-97622762D01*
X130056000Y-97670381D01*
X129817905Y-97670381D01*
X130960762Y-97098952D02*
X130865524Y-97051333D01*
X130817905Y-97003714D01*
X130770286Y-96908476D01*
X130770286Y-96860857D01*
X130817905Y-96765619D01*
X130865524Y-96718000D01*
X130960762Y-96670381D01*
X131151239Y-96670381D01*
X131246477Y-96718000D01*
X131294096Y-96765619D01*
X131341715Y-96860857D01*
X131341715Y-96908476D01*
X131294096Y-97003714D01*
X131246477Y-97051333D01*
X131151239Y-97098952D01*
X130960762Y-97098952D01*
X130865524Y-97146571D01*
X130817905Y-97194190D01*
X130770286Y-97289429D01*
X130770286Y-97479905D01*
X130817905Y-97575143D01*
X130865524Y-97622762D01*
X130960762Y-97670381D01*
X131151239Y-97670381D01*
X131246477Y-97622762D01*
X131294096Y-97575143D01*
X131341715Y-97479905D01*
X131341715Y-97289429D01*
X131294096Y-97194190D01*
X131246477Y-97146571D01*
X131151239Y-97098952D01*
X143184714Y-63253381D02*
X143184714Y-62253381D01*
X143422809Y-62253381D01*
X143565667Y-62301000D01*
X143660905Y-62396238D01*
X143708524Y-62491476D01*
X143756143Y-62681952D01*
X143756143Y-62824810D01*
X143708524Y-63015286D01*
X143660905Y-63110524D01*
X143565667Y-63205762D01*
X143422809Y-63253381D01*
X143184714Y-63253381D01*
X144708524Y-63253381D02*
X144137095Y-63253381D01*
X144422809Y-63253381D02*
X144422809Y-62253381D01*
X144327571Y-62396238D01*
X144232333Y-62491476D01*
X144137095Y-62539095D01*
X145660905Y-63253381D02*
X145089476Y-63253381D01*
X145375190Y-63253381D02*
X145375190Y-62253381D01*
X145279952Y-62396238D01*
X145184714Y-62491476D01*
X145089476Y-62539095D01*
X142819714Y-80144381D02*
X142819714Y-79144381D01*
X143057809Y-79144381D01*
X143200667Y-79192000D01*
X143295905Y-79287238D01*
X143343524Y-79382476D01*
X143391143Y-79572952D01*
X143391143Y-79715810D01*
X143343524Y-79906286D01*
X143295905Y-80001524D01*
X143200667Y-80096762D01*
X143057809Y-80144381D01*
X142819714Y-80144381D01*
X144343524Y-80144381D02*
X143772095Y-80144381D01*
X144057809Y-80144381D02*
X144057809Y-79144381D01*
X143962571Y-79287238D01*
X143867333Y-79382476D01*
X143772095Y-79430095D01*
X144724476Y-79239619D02*
X144772095Y-79192000D01*
X144867333Y-79144381D01*
X145105429Y-79144381D01*
X145200667Y-79192000D01*
X145248286Y-79239619D01*
X145295905Y-79334857D01*
X145295905Y-79430095D01*
X145248286Y-79572952D01*
X144676857Y-80144381D01*
X145295905Y-80144381D01*
X140771714Y-97416381D02*
X140771714Y-96416381D01*
X141009809Y-96416381D01*
X141152667Y-96464000D01*
X141247905Y-96559238D01*
X141295524Y-96654476D01*
X141343143Y-96844952D01*
X141343143Y-96987810D01*
X141295524Y-97178286D01*
X141247905Y-97273524D01*
X141152667Y-97368762D01*
X141009809Y-97416381D01*
X140771714Y-97416381D01*
X142295524Y-97416381D02*
X141724095Y-97416381D01*
X142009809Y-97416381D02*
X142009809Y-96416381D01*
X141914571Y-96559238D01*
X141819333Y-96654476D01*
X141724095Y-96702095D01*
X142628857Y-96416381D02*
X143247905Y-96416381D01*
X142914571Y-96797333D01*
X143057429Y-96797333D01*
X143152667Y-96844952D01*
X143200286Y-96892571D01*
X143247905Y-96987810D01*
X143247905Y-97225905D01*
X143200286Y-97321143D01*
X143152667Y-97368762D01*
X143057429Y-97416381D01*
X142771714Y-97416381D01*
X142676476Y-97368762D01*
X142628857Y-97321143D01*
X162869714Y-70619381D02*
X162869714Y-69619381D01*
X163107809Y-69619381D01*
X163250667Y-69667000D01*
X163345905Y-69762238D01*
X163393524Y-69857476D01*
X163441143Y-70047952D01*
X163441143Y-70190810D01*
X163393524Y-70381286D01*
X163345905Y-70476524D01*
X163250667Y-70571762D01*
X163107809Y-70619381D01*
X162869714Y-70619381D01*
X164393524Y-70619381D02*
X163822095Y-70619381D01*
X164107809Y-70619381D02*
X164107809Y-69619381D01*
X164012571Y-69762238D01*
X163917333Y-69857476D01*
X163822095Y-69905095D01*
X165250667Y-69619381D02*
X165060190Y-69619381D01*
X164964952Y-69667000D01*
X164917333Y-69714619D01*
X164822095Y-69857476D01*
X164774476Y-70047952D01*
X164774476Y-70428905D01*
X164822095Y-70524143D01*
X164869714Y-70571762D01*
X164964952Y-70619381D01*
X165155429Y-70619381D01*
X165250667Y-70571762D01*
X165298286Y-70524143D01*
X165345905Y-70428905D01*
X165345905Y-70190810D01*
X165298286Y-70095571D01*
X165250667Y-70047952D01*
X165155429Y-70000333D01*
X164964952Y-70000333D01*
X164869714Y-70047952D01*
X164822095Y-70095571D01*
X164774476Y-70190810D01*
X158567714Y-85986381D02*
X158567714Y-84986381D01*
X158805809Y-84986381D01*
X158948667Y-85034000D01*
X159043905Y-85129238D01*
X159091524Y-85224476D01*
X159139143Y-85414952D01*
X159139143Y-85557810D01*
X159091524Y-85748286D01*
X159043905Y-85843524D01*
X158948667Y-85938762D01*
X158805809Y-85986381D01*
X158567714Y-85986381D01*
X160091524Y-85986381D02*
X159520095Y-85986381D01*
X159805809Y-85986381D02*
X159805809Y-84986381D01*
X159710571Y-85129238D01*
X159615333Y-85224476D01*
X159520095Y-85272095D01*
X160424857Y-84986381D02*
X161091524Y-84986381D01*
X160662952Y-85986381D01*
X152598714Y-99194381D02*
X152598714Y-98194381D01*
X152836809Y-98194381D01*
X152979667Y-98242000D01*
X153074905Y-98337238D01*
X153122524Y-98432476D01*
X153170143Y-98622952D01*
X153170143Y-98765810D01*
X153122524Y-98956286D01*
X153074905Y-99051524D01*
X152979667Y-99146762D01*
X152836809Y-99194381D01*
X152598714Y-99194381D01*
X154122524Y-99194381D02*
X153551095Y-99194381D01*
X153836809Y-99194381D02*
X153836809Y-98194381D01*
X153741571Y-98337238D01*
X153646333Y-98432476D01*
X153551095Y-98480095D01*
X154693952Y-98622952D02*
X154598714Y-98575333D01*
X154551095Y-98527714D01*
X154503476Y-98432476D01*
X154503476Y-98384857D01*
X154551095Y-98289619D01*
X154598714Y-98242000D01*
X154693952Y-98194381D01*
X154884429Y-98194381D01*
X154979667Y-98242000D01*
X155027286Y-98289619D01*
X155074905Y-98384857D01*
X155074905Y-98432476D01*
X155027286Y-98527714D01*
X154979667Y-98575333D01*
X154884429Y-98622952D01*
X154693952Y-98622952D01*
X154598714Y-98670571D01*
X154551095Y-98718190D01*
X154503476Y-98813429D01*
X154503476Y-99003905D01*
X154551095Y-99099143D01*
X154598714Y-99146762D01*
X154693952Y-99194381D01*
X154884429Y-99194381D01*
X154979667Y-99146762D01*
X155027286Y-99099143D01*
X155074905Y-99003905D01*
X155074905Y-98813429D01*
X155027286Y-98718190D01*
X154979667Y-98670571D01*
X154884429Y-98622952D01*
X102833334Y-134452381D02*
X102500000Y-133976190D01*
X102261905Y-134452381D02*
X102261905Y-133452381D01*
X102642858Y-133452381D01*
X102738096Y-133500000D01*
X102785715Y-133547619D01*
X102833334Y-133642857D01*
X102833334Y-133785714D01*
X102785715Y-133880952D01*
X102738096Y-133928571D01*
X102642858Y-133976190D01*
X102261905Y-133976190D01*
X103785715Y-134452381D02*
X103214286Y-134452381D01*
X103500000Y-134452381D02*
X103500000Y-133452381D01*
X103404762Y-133595238D01*
X103309524Y-133690476D01*
X103214286Y-133738095D01*
X157162667Y-144676762D02*
X157305524Y-144724381D01*
X157543620Y-144724381D01*
X157638858Y-144676762D01*
X157686477Y-144629143D01*
X157734096Y-144533905D01*
X157734096Y-144438667D01*
X157686477Y-144343429D01*
X157638858Y-144295810D01*
X157543620Y-144248190D01*
X157353143Y-144200571D01*
X157257905Y-144152952D01*
X157210286Y-144105333D01*
X157162667Y-144010095D01*
X157162667Y-143914857D01*
X157210286Y-143819619D01*
X157257905Y-143772000D01*
X157353143Y-143724381D01*
X157591239Y-143724381D01*
X157734096Y-143772000D01*
X158067429Y-143724381D02*
X158305524Y-144724381D01*
X158496001Y-144010095D01*
X158686477Y-144724381D01*
X158924572Y-143724381D01*
X159829334Y-144724381D02*
X159257905Y-144724381D01*
X159543619Y-144724381D02*
X159543619Y-143724381D01*
X159448381Y-143867238D01*
X159353143Y-143962476D01*
X159257905Y-144010095D01*
X176988095Y-133452381D02*
X176988095Y-134261905D01*
X177035714Y-134357143D01*
X177083333Y-134404762D01*
X177178571Y-134452381D01*
X177369048Y-134452381D01*
X177464286Y-134404762D01*
X177511905Y-134357143D01*
X177559524Y-134261905D01*
X177559524Y-133452381D01*
X178559524Y-134452381D02*
X177988095Y-134452381D01*
X178273809Y-134452381D02*
X178273809Y-133452381D01*
X178178571Y-133595238D01*
X178083333Y-133690476D01*
X177988095Y-133738095D01*
X183745286Y-133024571D02*
X183888143Y-133072190D01*
X183935762Y-133119810D01*
X183983381Y-133215048D01*
X183983381Y-133357905D01*
X183935762Y-133453143D01*
X183888143Y-133500762D01*
X183792905Y-133548381D01*
X183411952Y-133548381D01*
X183411952Y-132548381D01*
X183745286Y-132548381D01*
X183840524Y-132596000D01*
X183888143Y-132643619D01*
X183935762Y-132738857D01*
X183935762Y-132834095D01*
X183888143Y-132929333D01*
X183840524Y-132976952D01*
X183745286Y-133024571D01*
X183411952Y-133024571D01*
X184269095Y-132548381D02*
X184840524Y-132548381D01*
X184554809Y-133548381D02*
X184554809Y-132548381D01*
X185697667Y-133548381D02*
X185126238Y-133548381D01*
X185411952Y-133548381D02*
X185411952Y-132548381D01*
X185316714Y-132691238D01*
X185221476Y-132786476D01*
X185126238Y-132834095D01*
X110833334Y-130111143D02*
X110785715Y-130158762D01*
X110642858Y-130206381D01*
X110547620Y-130206381D01*
X110404762Y-130158762D01*
X110309524Y-130063524D01*
X110261905Y-129968286D01*
X110214286Y-129777810D01*
X110214286Y-129634952D01*
X110261905Y-129444476D01*
X110309524Y-129349238D01*
X110404762Y-129254000D01*
X110547620Y-129206381D01*
X110642858Y-129206381D01*
X110785715Y-129254000D01*
X110833334Y-129301619D01*
X111785715Y-130206381D02*
X111214286Y-130206381D01*
X111500000Y-130206381D02*
X111500000Y-129206381D01*
X111404762Y-129349238D01*
X111309524Y-129444476D01*
X111214286Y-129492095D01*
X117666667Y-141928571D02*
X117333333Y-141928571D01*
X117333333Y-142452381D02*
X117333333Y-141452381D01*
X117809524Y-141452381D01*
X118714286Y-142452381D02*
X118142857Y-142452381D01*
X118428571Y-142452381D02*
X118428571Y-141452381D01*
X118333333Y-141595238D01*
X118238095Y-141690476D01*
X118142857Y-141738095D01*
X112666667Y-141952381D02*
X112666667Y-142666667D01*
X112619047Y-142809524D01*
X112523809Y-142904762D01*
X112380952Y-142952381D01*
X112285714Y-142952381D01*
X113666667Y-142952381D02*
X113095238Y-142952381D01*
X113380952Y-142952381D02*
X113380952Y-141952381D01*
X113285714Y-142095238D01*
X113190476Y-142190476D01*
X113095238Y-142238095D01*
X181166667Y-145452381D02*
X181166667Y-146166667D01*
X181119047Y-146309524D01*
X181023809Y-146404762D01*
X180880952Y-146452381D01*
X180785714Y-146452381D01*
X181642857Y-146452381D02*
X181642857Y-145452381D01*
X182023810Y-145452381D01*
X182119048Y-145500000D01*
X182166667Y-145547619D01*
X182214286Y-145642857D01*
X182214286Y-145785714D01*
X182166667Y-145880952D01*
X182119048Y-145928571D01*
X182023810Y-145976190D01*
X181642857Y-145976190D01*
X183166667Y-146452381D02*
X182595238Y-146452381D01*
X182880952Y-146452381D02*
X182880952Y-145452381D01*
X182785714Y-145595238D01*
X182690476Y-145690476D01*
X182595238Y-145738095D01*
X188166667Y-145452381D02*
X188166667Y-146166667D01*
X188119047Y-146309524D01*
X188023809Y-146404762D01*
X187880952Y-146452381D01*
X187785714Y-146452381D01*
X188642857Y-146452381D02*
X188642857Y-145452381D01*
X189023810Y-145452381D01*
X189119048Y-145500000D01*
X189166667Y-145547619D01*
X189214286Y-145642857D01*
X189214286Y-145785714D01*
X189166667Y-145880952D01*
X189119048Y-145928571D01*
X189023810Y-145976190D01*
X188642857Y-145976190D01*
X189595238Y-145547619D02*
X189642857Y-145500000D01*
X189738095Y-145452381D01*
X189976191Y-145452381D01*
X190071429Y-145500000D01*
X190119048Y-145547619D01*
X190166667Y-145642857D01*
X190166667Y-145738095D01*
X190119048Y-145880952D01*
X189547619Y-146452381D01*
X190166667Y-146452381D01*
M02*
