G04 #@! TF.FileFunction,Copper,L2,Bot,Signal*
%FSLAX46Y46*%
G04 Gerber Fmt 4.6, Leading zero omitted, Abs format (unit mm)*
G04 Created by KiCad (PCBNEW 4.0.6) date 11/09/17 22:15:05*
%MOMM*%
%LPD*%
G01*
G04 APERTURE LIST*
%ADD10C,0.100000*%
%ADD11C,0.010000*%
%ADD12C,4.000000*%
%ADD13R,1.800000X1.800000*%
%ADD14C,1.800000*%
%ADD15C,1.600000*%
%ADD16O,1.600000X1.600000*%
%ADD17C,1.500000*%
%ADD18R,1.600000X1.600000*%
%ADD19R,1.700000X1.700000*%
%ADD20O,1.700000X1.700000*%
%ADD21C,0.600000*%
%ADD22C,0.250000*%
%ADD23C,0.254000*%
G04 APERTURE END LIST*
D10*
D11*
G36*
X141377060Y-113842017D02*
X141324758Y-113863739D01*
X141279313Y-113896916D01*
X141224529Y-113960341D01*
X141190586Y-114033592D01*
X141176207Y-114114007D01*
X141180117Y-114198922D01*
X141201038Y-114285673D01*
X141237695Y-114371597D01*
X141288811Y-114454031D01*
X141353110Y-114530311D01*
X141429317Y-114597774D01*
X141516154Y-114653756D01*
X141612345Y-114695594D01*
X141669809Y-114711850D01*
X141747464Y-114726981D01*
X141847972Y-114742190D01*
X141968787Y-114757226D01*
X142107364Y-114771840D01*
X142261158Y-114785781D01*
X142427624Y-114798799D01*
X142604216Y-114810644D01*
X142773400Y-114820289D01*
X142836862Y-114822801D01*
X142922709Y-114824981D01*
X143027927Y-114826827D01*
X143149504Y-114828342D01*
X143284427Y-114829527D01*
X143429684Y-114830382D01*
X143582260Y-114830908D01*
X143739144Y-114831107D01*
X143897322Y-114830981D01*
X144053781Y-114830528D01*
X144205508Y-114829752D01*
X144349491Y-114828653D01*
X144482717Y-114827231D01*
X144602171Y-114825489D01*
X144704843Y-114823426D01*
X144787718Y-114821045D01*
X144824450Y-114819568D01*
X144971542Y-114811593D01*
X145094026Y-114802375D01*
X145192669Y-114791790D01*
X145268239Y-114779716D01*
X145321503Y-114766028D01*
X145353229Y-114750603D01*
X145364183Y-114733317D01*
X145364200Y-114732561D01*
X145354272Y-114708802D01*
X145343359Y-114701119D01*
X145316313Y-114694007D01*
X145274033Y-114687868D01*
X145215282Y-114682660D01*
X145138825Y-114678339D01*
X145043426Y-114674863D01*
X144927851Y-114672189D01*
X144790864Y-114670274D01*
X144631229Y-114669075D01*
X144447710Y-114668549D01*
X144403661Y-114668520D01*
X143716171Y-114668300D01*
X143734811Y-114614325D01*
X143747008Y-114550183D01*
X143739360Y-114481662D01*
X143711274Y-114404194D01*
X143705953Y-114392943D01*
X143662594Y-114324952D01*
X143606731Y-114269475D01*
X143542319Y-114227574D01*
X143473315Y-114200314D01*
X143403675Y-114188756D01*
X143337356Y-114193965D01*
X143278315Y-114217003D01*
X143230508Y-114258934D01*
X143226555Y-114264128D01*
X143201272Y-114318866D01*
X143193977Y-114384959D01*
X143203753Y-114456801D01*
X143229682Y-114528785D01*
X143270848Y-114595303D01*
X143283165Y-114610140D01*
X143334359Y-114668300D01*
X142998793Y-114668300D01*
X142884446Y-114667925D01*
X142753968Y-114666876D01*
X142616616Y-114665269D01*
X142481645Y-114663216D01*
X142358313Y-114660833D01*
X142317974Y-114659902D01*
X141972720Y-114651504D01*
X141996925Y-114624977D01*
X142032491Y-114578468D01*
X142054678Y-114528386D01*
X142065837Y-114467380D01*
X142068407Y-114401600D01*
X142067293Y-114345208D01*
X142062452Y-114302813D01*
X142051439Y-114263742D01*
X142031807Y-114217325D01*
X142020804Y-114193915D01*
X141960882Y-114093635D01*
X141883084Y-114002992D01*
X141792851Y-113927523D01*
X141712950Y-113880631D01*
X141655747Y-113856022D01*
X141604386Y-113841650D01*
X141545625Y-113834204D01*
X141520864Y-113832623D01*
X141440252Y-113832224D01*
X141377060Y-113842017D01*
X141377060Y-113842017D01*
G37*
X141377060Y-113842017D02*
X141324758Y-113863739D01*
X141279313Y-113896916D01*
X141224529Y-113960341D01*
X141190586Y-114033592D01*
X141176207Y-114114007D01*
X141180117Y-114198922D01*
X141201038Y-114285673D01*
X141237695Y-114371597D01*
X141288811Y-114454031D01*
X141353110Y-114530311D01*
X141429317Y-114597774D01*
X141516154Y-114653756D01*
X141612345Y-114695594D01*
X141669809Y-114711850D01*
X141747464Y-114726981D01*
X141847972Y-114742190D01*
X141968787Y-114757226D01*
X142107364Y-114771840D01*
X142261158Y-114785781D01*
X142427624Y-114798799D01*
X142604216Y-114810644D01*
X142773400Y-114820289D01*
X142836862Y-114822801D01*
X142922709Y-114824981D01*
X143027927Y-114826827D01*
X143149504Y-114828342D01*
X143284427Y-114829527D01*
X143429684Y-114830382D01*
X143582260Y-114830908D01*
X143739144Y-114831107D01*
X143897322Y-114830981D01*
X144053781Y-114830528D01*
X144205508Y-114829752D01*
X144349491Y-114828653D01*
X144482717Y-114827231D01*
X144602171Y-114825489D01*
X144704843Y-114823426D01*
X144787718Y-114821045D01*
X144824450Y-114819568D01*
X144971542Y-114811593D01*
X145094026Y-114802375D01*
X145192669Y-114791790D01*
X145268239Y-114779716D01*
X145321503Y-114766028D01*
X145353229Y-114750603D01*
X145364183Y-114733317D01*
X145364200Y-114732561D01*
X145354272Y-114708802D01*
X145343359Y-114701119D01*
X145316313Y-114694007D01*
X145274033Y-114687868D01*
X145215282Y-114682660D01*
X145138825Y-114678339D01*
X145043426Y-114674863D01*
X144927851Y-114672189D01*
X144790864Y-114670274D01*
X144631229Y-114669075D01*
X144447710Y-114668549D01*
X144403661Y-114668520D01*
X143716171Y-114668300D01*
X143734811Y-114614325D01*
X143747008Y-114550183D01*
X143739360Y-114481662D01*
X143711274Y-114404194D01*
X143705953Y-114392943D01*
X143662594Y-114324952D01*
X143606731Y-114269475D01*
X143542319Y-114227574D01*
X143473315Y-114200314D01*
X143403675Y-114188756D01*
X143337356Y-114193965D01*
X143278315Y-114217003D01*
X143230508Y-114258934D01*
X143226555Y-114264128D01*
X143201272Y-114318866D01*
X143193977Y-114384959D01*
X143203753Y-114456801D01*
X143229682Y-114528785D01*
X143270848Y-114595303D01*
X143283165Y-114610140D01*
X143334359Y-114668300D01*
X142998793Y-114668300D01*
X142884446Y-114667925D01*
X142753968Y-114666876D01*
X142616616Y-114665269D01*
X142481645Y-114663216D01*
X142358313Y-114660833D01*
X142317974Y-114659902D01*
X141972720Y-114651504D01*
X141996925Y-114624977D01*
X142032491Y-114578468D01*
X142054678Y-114528386D01*
X142065837Y-114467380D01*
X142068407Y-114401600D01*
X142067293Y-114345208D01*
X142062452Y-114302813D01*
X142051439Y-114263742D01*
X142031807Y-114217325D01*
X142020804Y-114193915D01*
X141960882Y-114093635D01*
X141883084Y-114002992D01*
X141792851Y-113927523D01*
X141712950Y-113880631D01*
X141655747Y-113856022D01*
X141604386Y-113841650D01*
X141545625Y-113834204D01*
X141520864Y-113832623D01*
X141440252Y-113832224D01*
X141377060Y-113842017D01*
G36*
X140971839Y-112229110D02*
X140959113Y-112262066D01*
X140940750Y-112313339D01*
X140917713Y-112379966D01*
X140890965Y-112458982D01*
X140861468Y-112547421D01*
X140830186Y-112642320D01*
X140798080Y-112740711D01*
X140766113Y-112839632D01*
X140735248Y-112936116D01*
X140706447Y-113027200D01*
X140680674Y-113109918D01*
X140658891Y-113181304D01*
X140642060Y-113238395D01*
X140631144Y-113278225D01*
X140627105Y-113297830D01*
X140627101Y-113298117D01*
X140638606Y-113311461D01*
X140671449Y-113332471D01*
X140723114Y-113360075D01*
X140791090Y-113393199D01*
X140872862Y-113430771D01*
X140965918Y-113471719D01*
X141067745Y-113514969D01*
X141175828Y-113559451D01*
X141287656Y-113604090D01*
X141400715Y-113647814D01*
X141512492Y-113689552D01*
X141620473Y-113728230D01*
X141693900Y-113753394D01*
X142094177Y-113876773D01*
X142493429Y-113977740D01*
X142895202Y-114056905D01*
X143303043Y-114114879D01*
X143720502Y-114152272D01*
X144109358Y-114168875D01*
X144473765Y-114176792D01*
X144480478Y-114146321D01*
X144484442Y-114123252D01*
X144490927Y-114079454D01*
X144499536Y-114018024D01*
X144509872Y-113942055D01*
X144521539Y-113854642D01*
X144534140Y-113758880D01*
X144547279Y-113657862D01*
X144560558Y-113554685D01*
X144573582Y-113452441D01*
X144585954Y-113354227D01*
X144589145Y-113328554D01*
X144027934Y-113328554D01*
X144020796Y-113410268D01*
X143992145Y-113488322D01*
X143944227Y-113555481D01*
X143879897Y-113606583D01*
X143803752Y-113638603D01*
X143721572Y-113650779D01*
X143639135Y-113642349D01*
X143562220Y-113612551D01*
X143552935Y-113607072D01*
X143496730Y-113560405D01*
X143448736Y-113498268D01*
X143414979Y-113429568D01*
X143403667Y-113386499D01*
X143402454Y-113303998D01*
X143423522Y-113226248D01*
X143463782Y-113156788D01*
X143519464Y-113099850D01*
X142950643Y-113099850D01*
X142938825Y-113188249D01*
X142904761Y-113266925D01*
X142850529Y-113332614D01*
X142778211Y-113382056D01*
X142767332Y-113387237D01*
X142707837Y-113404385D01*
X142637552Y-113410144D01*
X142568368Y-113404316D01*
X142522168Y-113391329D01*
X142466425Y-113358344D01*
X142412133Y-113309733D01*
X142368192Y-113254156D01*
X142353065Y-113226850D01*
X142336255Y-113172007D01*
X142329242Y-113106187D01*
X142329179Y-113100684D01*
X142340027Y-113016674D01*
X142370825Y-112943361D01*
X142417970Y-112882360D01*
X142428933Y-112873742D01*
X141904593Y-112873742D01*
X141892835Y-112951266D01*
X141860436Y-113024019D01*
X141808119Y-113088415D01*
X141736606Y-113140868D01*
X141706600Y-113156002D01*
X141626128Y-113178946D01*
X141542519Y-113176894D01*
X141489994Y-113163100D01*
X141409790Y-113122714D01*
X141346190Y-113063386D01*
X141316359Y-113020044D01*
X141296264Y-112981055D01*
X141285511Y-112943928D01*
X141281475Y-112897571D01*
X141281150Y-112871250D01*
X141287250Y-112793240D01*
X141307649Y-112729903D01*
X141345501Y-112673087D01*
X141366792Y-112649789D01*
X141437213Y-112594101D01*
X141514605Y-112561530D01*
X141595390Y-112552089D01*
X141675994Y-112565789D01*
X141752841Y-112602641D01*
X141808805Y-112648395D01*
X141863300Y-112718721D01*
X141894988Y-112795032D01*
X141904593Y-112873742D01*
X142428933Y-112873742D01*
X142477858Y-112835285D01*
X142546885Y-112803748D01*
X142621448Y-112789364D01*
X142697944Y-112793746D01*
X142772767Y-112818509D01*
X142842316Y-112865265D01*
X142846497Y-112869039D01*
X142902746Y-112931984D01*
X142936355Y-112999079D01*
X142950022Y-113076299D01*
X142950643Y-113099850D01*
X143519464Y-113099850D01*
X143520144Y-113099155D01*
X143589518Y-113056885D01*
X143668816Y-113033515D01*
X143715059Y-113030000D01*
X143790673Y-113036598D01*
X143853738Y-113058856D01*
X143914109Y-113100462D01*
X143922512Y-113107693D01*
X143978567Y-113172642D01*
X144013783Y-113247804D01*
X144027934Y-113328554D01*
X144589145Y-113328554D01*
X144597277Y-113263135D01*
X144607155Y-113182262D01*
X144615190Y-113114702D01*
X144620987Y-113063548D01*
X144624149Y-113031897D01*
X144624484Y-113022650D01*
X144611724Y-113019354D01*
X144575829Y-113010983D01*
X144518475Y-112997908D01*
X144441337Y-112980497D01*
X144346090Y-112959121D01*
X144234410Y-112934149D01*
X144107971Y-112905952D01*
X143968449Y-112874900D01*
X143817518Y-112841362D01*
X143656855Y-112805708D01*
X143488134Y-112768308D01*
X143313031Y-112729533D01*
X143133220Y-112689751D01*
X142950376Y-112649334D01*
X142766176Y-112608650D01*
X142582294Y-112568070D01*
X142400406Y-112527963D01*
X142222185Y-112488700D01*
X142049309Y-112450651D01*
X141883451Y-112414184D01*
X141726287Y-112379672D01*
X141579493Y-112347482D01*
X141444743Y-112317985D01*
X141323713Y-112291551D01*
X141218077Y-112268551D01*
X141129511Y-112249353D01*
X141059691Y-112234327D01*
X141010290Y-112223844D01*
X140982985Y-112218274D01*
X140977967Y-112217439D01*
X140971839Y-112229110D01*
X140971839Y-112229110D01*
G37*
X140971839Y-112229110D02*
X140959113Y-112262066D01*
X140940750Y-112313339D01*
X140917713Y-112379966D01*
X140890965Y-112458982D01*
X140861468Y-112547421D01*
X140830186Y-112642320D01*
X140798080Y-112740711D01*
X140766113Y-112839632D01*
X140735248Y-112936116D01*
X140706447Y-113027200D01*
X140680674Y-113109918D01*
X140658891Y-113181304D01*
X140642060Y-113238395D01*
X140631144Y-113278225D01*
X140627105Y-113297830D01*
X140627101Y-113298117D01*
X140638606Y-113311461D01*
X140671449Y-113332471D01*
X140723114Y-113360075D01*
X140791090Y-113393199D01*
X140872862Y-113430771D01*
X140965918Y-113471719D01*
X141067745Y-113514969D01*
X141175828Y-113559451D01*
X141287656Y-113604090D01*
X141400715Y-113647814D01*
X141512492Y-113689552D01*
X141620473Y-113728230D01*
X141693900Y-113753394D01*
X142094177Y-113876773D01*
X142493429Y-113977740D01*
X142895202Y-114056905D01*
X143303043Y-114114879D01*
X143720502Y-114152272D01*
X144109358Y-114168875D01*
X144473765Y-114176792D01*
X144480478Y-114146321D01*
X144484442Y-114123252D01*
X144490927Y-114079454D01*
X144499536Y-114018024D01*
X144509872Y-113942055D01*
X144521539Y-113854642D01*
X144534140Y-113758880D01*
X144547279Y-113657862D01*
X144560558Y-113554685D01*
X144573582Y-113452441D01*
X144585954Y-113354227D01*
X144589145Y-113328554D01*
X144027934Y-113328554D01*
X144020796Y-113410268D01*
X143992145Y-113488322D01*
X143944227Y-113555481D01*
X143879897Y-113606583D01*
X143803752Y-113638603D01*
X143721572Y-113650779D01*
X143639135Y-113642349D01*
X143562220Y-113612551D01*
X143552935Y-113607072D01*
X143496730Y-113560405D01*
X143448736Y-113498268D01*
X143414979Y-113429568D01*
X143403667Y-113386499D01*
X143402454Y-113303998D01*
X143423522Y-113226248D01*
X143463782Y-113156788D01*
X143519464Y-113099850D01*
X142950643Y-113099850D01*
X142938825Y-113188249D01*
X142904761Y-113266925D01*
X142850529Y-113332614D01*
X142778211Y-113382056D01*
X142767332Y-113387237D01*
X142707837Y-113404385D01*
X142637552Y-113410144D01*
X142568368Y-113404316D01*
X142522168Y-113391329D01*
X142466425Y-113358344D01*
X142412133Y-113309733D01*
X142368192Y-113254156D01*
X142353065Y-113226850D01*
X142336255Y-113172007D01*
X142329242Y-113106187D01*
X142329179Y-113100684D01*
X142340027Y-113016674D01*
X142370825Y-112943361D01*
X142417970Y-112882360D01*
X142428933Y-112873742D01*
X141904593Y-112873742D01*
X141892835Y-112951266D01*
X141860436Y-113024019D01*
X141808119Y-113088415D01*
X141736606Y-113140868D01*
X141706600Y-113156002D01*
X141626128Y-113178946D01*
X141542519Y-113176894D01*
X141489994Y-113163100D01*
X141409790Y-113122714D01*
X141346190Y-113063386D01*
X141316359Y-113020044D01*
X141296264Y-112981055D01*
X141285511Y-112943928D01*
X141281475Y-112897571D01*
X141281150Y-112871250D01*
X141287250Y-112793240D01*
X141307649Y-112729903D01*
X141345501Y-112673087D01*
X141366792Y-112649789D01*
X141437213Y-112594101D01*
X141514605Y-112561530D01*
X141595390Y-112552089D01*
X141675994Y-112565789D01*
X141752841Y-112602641D01*
X141808805Y-112648395D01*
X141863300Y-112718721D01*
X141894988Y-112795032D01*
X141904593Y-112873742D01*
X142428933Y-112873742D01*
X142477858Y-112835285D01*
X142546885Y-112803748D01*
X142621448Y-112789364D01*
X142697944Y-112793746D01*
X142772767Y-112818509D01*
X142842316Y-112865265D01*
X142846497Y-112869039D01*
X142902746Y-112931984D01*
X142936355Y-112999079D01*
X142950022Y-113076299D01*
X142950643Y-113099850D01*
X143519464Y-113099850D01*
X143520144Y-113099155D01*
X143589518Y-113056885D01*
X143668816Y-113033515D01*
X143715059Y-113030000D01*
X143790673Y-113036598D01*
X143853738Y-113058856D01*
X143914109Y-113100462D01*
X143922512Y-113107693D01*
X143978567Y-113172642D01*
X144013783Y-113247804D01*
X144027934Y-113328554D01*
X144589145Y-113328554D01*
X144597277Y-113263135D01*
X144607155Y-113182262D01*
X144615190Y-113114702D01*
X144620987Y-113063548D01*
X144624149Y-113031897D01*
X144624484Y-113022650D01*
X144611724Y-113019354D01*
X144575829Y-113010983D01*
X144518475Y-112997908D01*
X144441337Y-112980497D01*
X144346090Y-112959121D01*
X144234410Y-112934149D01*
X144107971Y-112905952D01*
X143968449Y-112874900D01*
X143817518Y-112841362D01*
X143656855Y-112805708D01*
X143488134Y-112768308D01*
X143313031Y-112729533D01*
X143133220Y-112689751D01*
X142950376Y-112649334D01*
X142766176Y-112608650D01*
X142582294Y-112568070D01*
X142400406Y-112527963D01*
X142222185Y-112488700D01*
X142049309Y-112450651D01*
X141883451Y-112414184D01*
X141726287Y-112379672D01*
X141579493Y-112347482D01*
X141444743Y-112317985D01*
X141323713Y-112291551D01*
X141218077Y-112268551D01*
X141129511Y-112249353D01*
X141059691Y-112234327D01*
X141010290Y-112223844D01*
X140982985Y-112218274D01*
X140977967Y-112217439D01*
X140971839Y-112229110D01*
G36*
X141290182Y-110495784D02*
X141286946Y-110508871D01*
X141279639Y-110544383D01*
X141268721Y-110599848D01*
X141254649Y-110672792D01*
X141237883Y-110760742D01*
X141218879Y-110861225D01*
X141198096Y-110971766D01*
X141175993Y-111089893D01*
X141153027Y-111213132D01*
X141129657Y-111339010D01*
X141106342Y-111465053D01*
X141083539Y-111588788D01*
X141061707Y-111707741D01*
X141041303Y-111819439D01*
X141022787Y-111921409D01*
X141006615Y-112011177D01*
X140993248Y-112086270D01*
X140983142Y-112144214D01*
X140976756Y-112182537D01*
X140974549Y-112198763D01*
X140974613Y-112199143D01*
X140987234Y-112200355D01*
X141023746Y-112203671D01*
X141082740Y-112208967D01*
X141162804Y-112216118D01*
X141262528Y-112224999D01*
X141380501Y-112235484D01*
X141515313Y-112247448D01*
X141665554Y-112260767D01*
X141829813Y-112275315D01*
X142006679Y-112290967D01*
X142194742Y-112307598D01*
X142392592Y-112325083D01*
X142598818Y-112343296D01*
X142805150Y-112361508D01*
X143018920Y-112380390D01*
X143226161Y-112398734D01*
X143425422Y-112416408D01*
X143615251Y-112433283D01*
X143794198Y-112449229D01*
X143960810Y-112464114D01*
X144113636Y-112477810D01*
X144251224Y-112490185D01*
X144372124Y-112501109D01*
X144474884Y-112510453D01*
X144558052Y-112518085D01*
X144620177Y-112523875D01*
X144659807Y-112527694D01*
X144675225Y-112529365D01*
X144716500Y-112535850D01*
X144716500Y-111217148D01*
X144317796Y-111217148D01*
X144311810Y-111293856D01*
X144286324Y-111367588D01*
X144241348Y-111434508D01*
X144176896Y-111490779D01*
X144144768Y-111509922D01*
X144106415Y-111528827D01*
X144074889Y-111539164D01*
X144040355Y-111542714D01*
X143992977Y-111541260D01*
X143977255Y-111540277D01*
X143879360Y-111533874D01*
X143789930Y-111643762D01*
X143745458Y-111701140D01*
X143718016Y-111742925D01*
X143708153Y-111768244D01*
X143708787Y-111772700D01*
X143716411Y-111795028D01*
X143727324Y-111832493D01*
X143735554Y-111863173D01*
X143745531Y-111907919D01*
X143747214Y-111942494D01*
X143740374Y-111980291D01*
X143733110Y-112006573D01*
X143697034Y-112086665D01*
X143640603Y-112154692D01*
X143567706Y-112206167D01*
X143554450Y-112212718D01*
X143474875Y-112237949D01*
X143394355Y-112238708D01*
X143330577Y-112223195D01*
X143253411Y-112185110D01*
X143193251Y-112131745D01*
X143150427Y-112066981D01*
X143125269Y-111994698D01*
X143118107Y-111918775D01*
X143129270Y-111843093D01*
X143137434Y-111823500D01*
X142645843Y-111823500D01*
X142634606Y-111908544D01*
X142603211Y-111983688D01*
X142555130Y-112046651D01*
X142493834Y-112095155D01*
X142422794Y-112126923D01*
X142345484Y-112139675D01*
X142265374Y-112131134D01*
X142208250Y-112110681D01*
X142133204Y-112062888D01*
X142075998Y-112001156D01*
X142038004Y-111929313D01*
X142020593Y-111851188D01*
X142025138Y-111770611D01*
X142053009Y-111691412D01*
X142056032Y-111685717D01*
X142090504Y-111622381D01*
X142003327Y-111482507D01*
X141916150Y-111342634D01*
X141870128Y-111349484D01*
X141809835Y-111348482D01*
X141742343Y-111331725D01*
X141677302Y-111302465D01*
X141628956Y-111268233D01*
X141572525Y-111206341D01*
X141538572Y-111140499D01*
X141524275Y-111064503D01*
X141523390Y-111036100D01*
X141534589Y-110947022D01*
X141568003Y-110870167D01*
X141623359Y-110805948D01*
X141700383Y-110754781D01*
X141712950Y-110748650D01*
X141794495Y-110723487D01*
X141876697Y-110722779D01*
X141956274Y-110745888D01*
X142029943Y-110792176D01*
X142055111Y-110815115D01*
X142109087Y-110885529D01*
X142140267Y-110963901D01*
X142148112Y-111046511D01*
X142132084Y-111129639D01*
X142108314Y-111182715D01*
X142077294Y-111238217D01*
X142164318Y-111375283D01*
X142251342Y-111512350D01*
X142325046Y-111513174D01*
X142413306Y-111525443D01*
X142491669Y-111558236D01*
X142557108Y-111608624D01*
X142606594Y-111673676D01*
X142637099Y-111750464D01*
X142645843Y-111823500D01*
X143137434Y-111823500D01*
X143159089Y-111771531D01*
X143207893Y-111707970D01*
X143276011Y-111656288D01*
X143282092Y-111652899D01*
X143353597Y-111625527D01*
X143431645Y-111614663D01*
X143505374Y-111621688D01*
X143512712Y-111623600D01*
X143528602Y-111626317D01*
X143543731Y-111622649D01*
X143561810Y-111609577D01*
X143586550Y-111584082D01*
X143621662Y-111543146D01*
X143642701Y-111517835D01*
X143738228Y-111402419D01*
X143716525Y-111362134D01*
X143700430Y-111313064D01*
X143694049Y-111250397D01*
X143697183Y-111183924D01*
X143708005Y-111131350D01*
X143217343Y-111131350D01*
X143205820Y-111219881D01*
X143173045Y-111297240D01*
X143121705Y-111360738D01*
X143054488Y-111407687D01*
X142974083Y-111435399D01*
X142906750Y-111441942D01*
X142840613Y-111436253D01*
X142784222Y-111420799D01*
X142779469Y-111418737D01*
X142705018Y-111371729D01*
X142648200Y-111307950D01*
X142611176Y-111230779D01*
X142596111Y-111143591D01*
X142595879Y-111132184D01*
X142606115Y-111047693D01*
X142638425Y-110973814D01*
X142694204Y-110907533D01*
X142703863Y-110898778D01*
X142777433Y-110849452D01*
X142856946Y-110823661D01*
X142938845Y-110821385D01*
X143019577Y-110842601D01*
X143095587Y-110887287D01*
X143112524Y-110901318D01*
X143169393Y-110963338D01*
X143203345Y-111031283D01*
X143216863Y-111110598D01*
X143217343Y-111131350D01*
X143708005Y-111131350D01*
X143709635Y-111123436D01*
X143721940Y-111093250D01*
X143773080Y-111021802D01*
X143838467Y-110968527D01*
X143913912Y-110934768D01*
X143995228Y-110921865D01*
X144078226Y-110931161D01*
X144146493Y-110957267D01*
X144218630Y-111007522D01*
X144271218Y-111070145D01*
X144304269Y-111141299D01*
X144317796Y-111217148D01*
X144716500Y-111217148D01*
X144716500Y-110795950D01*
X144675225Y-110789186D01*
X144656523Y-110787065D01*
X144614444Y-110782906D01*
X144550920Y-110776886D01*
X144467876Y-110769178D01*
X144367243Y-110759959D01*
X144250948Y-110749404D01*
X144120920Y-110737687D01*
X143979087Y-110724985D01*
X143827377Y-110711472D01*
X143667719Y-110697324D01*
X143554450Y-110687329D01*
X143373361Y-110671369D01*
X143186421Y-110654878D01*
X142997068Y-110638161D01*
X142808740Y-110621521D01*
X142624875Y-110605263D01*
X142448910Y-110589690D01*
X142284284Y-110575108D01*
X142134433Y-110561819D01*
X142002796Y-110550129D01*
X141892810Y-110540340D01*
X141886775Y-110539802D01*
X141767164Y-110529331D01*
X141655359Y-110519911D01*
X141553890Y-110511731D01*
X141465286Y-110504976D01*
X141392078Y-110499834D01*
X141336795Y-110496491D01*
X141301968Y-110495134D01*
X141290182Y-110495784D01*
X141290182Y-110495784D01*
G37*
X141290182Y-110495784D02*
X141286946Y-110508871D01*
X141279639Y-110544383D01*
X141268721Y-110599848D01*
X141254649Y-110672792D01*
X141237883Y-110760742D01*
X141218879Y-110861225D01*
X141198096Y-110971766D01*
X141175993Y-111089893D01*
X141153027Y-111213132D01*
X141129657Y-111339010D01*
X141106342Y-111465053D01*
X141083539Y-111588788D01*
X141061707Y-111707741D01*
X141041303Y-111819439D01*
X141022787Y-111921409D01*
X141006615Y-112011177D01*
X140993248Y-112086270D01*
X140983142Y-112144214D01*
X140976756Y-112182537D01*
X140974549Y-112198763D01*
X140974613Y-112199143D01*
X140987234Y-112200355D01*
X141023746Y-112203671D01*
X141082740Y-112208967D01*
X141162804Y-112216118D01*
X141262528Y-112224999D01*
X141380501Y-112235484D01*
X141515313Y-112247448D01*
X141665554Y-112260767D01*
X141829813Y-112275315D01*
X142006679Y-112290967D01*
X142194742Y-112307598D01*
X142392592Y-112325083D01*
X142598818Y-112343296D01*
X142805150Y-112361508D01*
X143018920Y-112380390D01*
X143226161Y-112398734D01*
X143425422Y-112416408D01*
X143615251Y-112433283D01*
X143794198Y-112449229D01*
X143960810Y-112464114D01*
X144113636Y-112477810D01*
X144251224Y-112490185D01*
X144372124Y-112501109D01*
X144474884Y-112510453D01*
X144558052Y-112518085D01*
X144620177Y-112523875D01*
X144659807Y-112527694D01*
X144675225Y-112529365D01*
X144716500Y-112535850D01*
X144716500Y-111217148D01*
X144317796Y-111217148D01*
X144311810Y-111293856D01*
X144286324Y-111367588D01*
X144241348Y-111434508D01*
X144176896Y-111490779D01*
X144144768Y-111509922D01*
X144106415Y-111528827D01*
X144074889Y-111539164D01*
X144040355Y-111542714D01*
X143992977Y-111541260D01*
X143977255Y-111540277D01*
X143879360Y-111533874D01*
X143789930Y-111643762D01*
X143745458Y-111701140D01*
X143718016Y-111742925D01*
X143708153Y-111768244D01*
X143708787Y-111772700D01*
X143716411Y-111795028D01*
X143727324Y-111832493D01*
X143735554Y-111863173D01*
X143745531Y-111907919D01*
X143747214Y-111942494D01*
X143740374Y-111980291D01*
X143733110Y-112006573D01*
X143697034Y-112086665D01*
X143640603Y-112154692D01*
X143567706Y-112206167D01*
X143554450Y-112212718D01*
X143474875Y-112237949D01*
X143394355Y-112238708D01*
X143330577Y-112223195D01*
X143253411Y-112185110D01*
X143193251Y-112131745D01*
X143150427Y-112066981D01*
X143125269Y-111994698D01*
X143118107Y-111918775D01*
X143129270Y-111843093D01*
X143137434Y-111823500D01*
X142645843Y-111823500D01*
X142634606Y-111908544D01*
X142603211Y-111983688D01*
X142555130Y-112046651D01*
X142493834Y-112095155D01*
X142422794Y-112126923D01*
X142345484Y-112139675D01*
X142265374Y-112131134D01*
X142208250Y-112110681D01*
X142133204Y-112062888D01*
X142075998Y-112001156D01*
X142038004Y-111929313D01*
X142020593Y-111851188D01*
X142025138Y-111770611D01*
X142053009Y-111691412D01*
X142056032Y-111685717D01*
X142090504Y-111622381D01*
X142003327Y-111482507D01*
X141916150Y-111342634D01*
X141870128Y-111349484D01*
X141809835Y-111348482D01*
X141742343Y-111331725D01*
X141677302Y-111302465D01*
X141628956Y-111268233D01*
X141572525Y-111206341D01*
X141538572Y-111140499D01*
X141524275Y-111064503D01*
X141523390Y-111036100D01*
X141534589Y-110947022D01*
X141568003Y-110870167D01*
X141623359Y-110805948D01*
X141700383Y-110754781D01*
X141712950Y-110748650D01*
X141794495Y-110723487D01*
X141876697Y-110722779D01*
X141956274Y-110745888D01*
X142029943Y-110792176D01*
X142055111Y-110815115D01*
X142109087Y-110885529D01*
X142140267Y-110963901D01*
X142148112Y-111046511D01*
X142132084Y-111129639D01*
X142108314Y-111182715D01*
X142077294Y-111238217D01*
X142164318Y-111375283D01*
X142251342Y-111512350D01*
X142325046Y-111513174D01*
X142413306Y-111525443D01*
X142491669Y-111558236D01*
X142557108Y-111608624D01*
X142606594Y-111673676D01*
X142637099Y-111750464D01*
X142645843Y-111823500D01*
X143137434Y-111823500D01*
X143159089Y-111771531D01*
X143207893Y-111707970D01*
X143276011Y-111656288D01*
X143282092Y-111652899D01*
X143353597Y-111625527D01*
X143431645Y-111614663D01*
X143505374Y-111621688D01*
X143512712Y-111623600D01*
X143528602Y-111626317D01*
X143543731Y-111622649D01*
X143561810Y-111609577D01*
X143586550Y-111584082D01*
X143621662Y-111543146D01*
X143642701Y-111517835D01*
X143738228Y-111402419D01*
X143716525Y-111362134D01*
X143700430Y-111313064D01*
X143694049Y-111250397D01*
X143697183Y-111183924D01*
X143708005Y-111131350D01*
X143217343Y-111131350D01*
X143205820Y-111219881D01*
X143173045Y-111297240D01*
X143121705Y-111360738D01*
X143054488Y-111407687D01*
X142974083Y-111435399D01*
X142906750Y-111441942D01*
X142840613Y-111436253D01*
X142784222Y-111420799D01*
X142779469Y-111418737D01*
X142705018Y-111371729D01*
X142648200Y-111307950D01*
X142611176Y-111230779D01*
X142596111Y-111143591D01*
X142595879Y-111132184D01*
X142606115Y-111047693D01*
X142638425Y-110973814D01*
X142694204Y-110907533D01*
X142703863Y-110898778D01*
X142777433Y-110849452D01*
X142856946Y-110823661D01*
X142938845Y-110821385D01*
X143019577Y-110842601D01*
X143095587Y-110887287D01*
X143112524Y-110901318D01*
X143169393Y-110963338D01*
X143203345Y-111031283D01*
X143216863Y-111110598D01*
X143217343Y-111131350D01*
X143708005Y-111131350D01*
X143709635Y-111123436D01*
X143721940Y-111093250D01*
X143773080Y-111021802D01*
X143838467Y-110968527D01*
X143913912Y-110934768D01*
X143995228Y-110921865D01*
X144078226Y-110931161D01*
X144146493Y-110957267D01*
X144218630Y-111007522D01*
X144271218Y-111070145D01*
X144304269Y-111141299D01*
X144317796Y-111217148D01*
X144716500Y-111217148D01*
X144716500Y-110795950D01*
X144675225Y-110789186D01*
X144656523Y-110787065D01*
X144614444Y-110782906D01*
X144550920Y-110776886D01*
X144467876Y-110769178D01*
X144367243Y-110759959D01*
X144250948Y-110749404D01*
X144120920Y-110737687D01*
X143979087Y-110724985D01*
X143827377Y-110711472D01*
X143667719Y-110697324D01*
X143554450Y-110687329D01*
X143373361Y-110671369D01*
X143186421Y-110654878D01*
X142997068Y-110638161D01*
X142808740Y-110621521D01*
X142624875Y-110605263D01*
X142448910Y-110589690D01*
X142284284Y-110575108D01*
X142134433Y-110561819D01*
X142002796Y-110550129D01*
X141892810Y-110540340D01*
X141886775Y-110539802D01*
X141767164Y-110529331D01*
X141655359Y-110519911D01*
X141553890Y-110511731D01*
X141465286Y-110504976D01*
X141392078Y-110499834D01*
X141336795Y-110496491D01*
X141301968Y-110495134D01*
X141290182Y-110495784D01*
G36*
X142614968Y-108692278D02*
X142536881Y-108702414D01*
X142519400Y-108706060D01*
X142375284Y-108749754D01*
X142237132Y-108813401D01*
X142102662Y-108898401D01*
X141969592Y-109006154D01*
X141864200Y-109108034D01*
X141708295Y-109285096D01*
X141575123Y-109470859D01*
X141501725Y-109594077D01*
X141466985Y-109657004D01*
X142085268Y-109870616D01*
X142200437Y-109910405D01*
X142336046Y-109957255D01*
X142488525Y-110009931D01*
X142654306Y-110067201D01*
X142829819Y-110127833D01*
X143011495Y-110190593D01*
X143195766Y-110254249D01*
X143379063Y-110317567D01*
X143557817Y-110379315D01*
X143700500Y-110428602D01*
X143853298Y-110481387D01*
X143999291Y-110531830D01*
X144136681Y-110579309D01*
X144263670Y-110623202D01*
X144378463Y-110662889D01*
X144479261Y-110697747D01*
X144564267Y-110727155D01*
X144631684Y-110750492D01*
X144679714Y-110767136D01*
X144706561Y-110776465D01*
X144711699Y-110778273D01*
X144720487Y-110768719D01*
X144730921Y-110734960D01*
X144742700Y-110678113D01*
X144749229Y-110639959D01*
X144760931Y-110546897D01*
X144768752Y-110440319D01*
X144772678Y-110326797D01*
X144772694Y-110212905D01*
X144768785Y-110105214D01*
X144760934Y-110010298D01*
X144750842Y-109942997D01*
X144704954Y-109766639D01*
X144700431Y-109755395D01*
X144220415Y-109755395D01*
X144218508Y-109802383D01*
X144207346Y-109888584D01*
X144185837Y-109951679D01*
X144151752Y-110001572D01*
X144102856Y-110053162D01*
X144047198Y-110099224D01*
X143992831Y-110132538D01*
X143976413Y-110139552D01*
X143915977Y-110153093D01*
X143843730Y-110156431D01*
X143769905Y-110150111D01*
X143704738Y-110134676D01*
X143678613Y-110123717D01*
X143600047Y-110070309D01*
X143539489Y-110002528D01*
X143497566Y-109924233D01*
X143474903Y-109839282D01*
X143472126Y-109751531D01*
X143489860Y-109664839D01*
X143528731Y-109583062D01*
X143580473Y-109518674D01*
X143655198Y-109460264D01*
X143732232Y-109426244D01*
X143111491Y-109426244D01*
X143095125Y-109509716D01*
X143077210Y-109551828D01*
X143047463Y-109595273D01*
X143004297Y-109640447D01*
X142955714Y-109680206D01*
X142909720Y-109707409D01*
X142897669Y-109712039D01*
X142831159Y-109724287D01*
X142758496Y-109723490D01*
X142694000Y-109709880D01*
X142617860Y-109670139D01*
X142556565Y-109612902D01*
X142512374Y-109542493D01*
X142487549Y-109463239D01*
X142484353Y-109379464D01*
X142494105Y-109327576D01*
X142516187Y-109276962D01*
X142552486Y-109223468D01*
X142565591Y-109208047D01*
X142634520Y-109148033D01*
X142710449Y-109111172D01*
X142790100Y-109097567D01*
X142870193Y-109107321D01*
X142947447Y-109140535D01*
X143015305Y-109193995D01*
X143071111Y-109265667D01*
X143103330Y-109343989D01*
X143111491Y-109426244D01*
X143732232Y-109426244D01*
X143737638Y-109423857D01*
X143824122Y-109408748D01*
X143910983Y-109414233D01*
X143994552Y-109439608D01*
X144071160Y-109484167D01*
X144137137Y-109547208D01*
X144188816Y-109628026D01*
X144192657Y-109636185D01*
X144209487Y-109677131D01*
X144218192Y-109713349D01*
X144220415Y-109755395D01*
X144700431Y-109755395D01*
X144640841Y-109607271D01*
X144558829Y-109465321D01*
X144459243Y-109341216D01*
X144342409Y-109235383D01*
X144208653Y-109148248D01*
X144108159Y-109099879D01*
X144068248Y-109084064D01*
X144009034Y-109061925D01*
X143933758Y-109034577D01*
X143845662Y-109003134D01*
X143747987Y-108968710D01*
X143643974Y-108932420D01*
X143536863Y-108895379D01*
X143429898Y-108858701D01*
X143326317Y-108823501D01*
X143229364Y-108790893D01*
X143142278Y-108761992D01*
X143068302Y-108737913D01*
X143010676Y-108719769D01*
X142972642Y-108708676D01*
X142964828Y-108706726D01*
X142890294Y-108694893D01*
X142800953Y-108688531D01*
X142706085Y-108687654D01*
X142614968Y-108692278D01*
X142614968Y-108692278D01*
G37*
X142614968Y-108692278D02*
X142536881Y-108702414D01*
X142519400Y-108706060D01*
X142375284Y-108749754D01*
X142237132Y-108813401D01*
X142102662Y-108898401D01*
X141969592Y-109006154D01*
X141864200Y-109108034D01*
X141708295Y-109285096D01*
X141575123Y-109470859D01*
X141501725Y-109594077D01*
X141466985Y-109657004D01*
X142085268Y-109870616D01*
X142200437Y-109910405D01*
X142336046Y-109957255D01*
X142488525Y-110009931D01*
X142654306Y-110067201D01*
X142829819Y-110127833D01*
X143011495Y-110190593D01*
X143195766Y-110254249D01*
X143379063Y-110317567D01*
X143557817Y-110379315D01*
X143700500Y-110428602D01*
X143853298Y-110481387D01*
X143999291Y-110531830D01*
X144136681Y-110579309D01*
X144263670Y-110623202D01*
X144378463Y-110662889D01*
X144479261Y-110697747D01*
X144564267Y-110727155D01*
X144631684Y-110750492D01*
X144679714Y-110767136D01*
X144706561Y-110776465D01*
X144711699Y-110778273D01*
X144720487Y-110768719D01*
X144730921Y-110734960D01*
X144742700Y-110678113D01*
X144749229Y-110639959D01*
X144760931Y-110546897D01*
X144768752Y-110440319D01*
X144772678Y-110326797D01*
X144772694Y-110212905D01*
X144768785Y-110105214D01*
X144760934Y-110010298D01*
X144750842Y-109942997D01*
X144704954Y-109766639D01*
X144700431Y-109755395D01*
X144220415Y-109755395D01*
X144218508Y-109802383D01*
X144207346Y-109888584D01*
X144185837Y-109951679D01*
X144151752Y-110001572D01*
X144102856Y-110053162D01*
X144047198Y-110099224D01*
X143992831Y-110132538D01*
X143976413Y-110139552D01*
X143915977Y-110153093D01*
X143843730Y-110156431D01*
X143769905Y-110150111D01*
X143704738Y-110134676D01*
X143678613Y-110123717D01*
X143600047Y-110070309D01*
X143539489Y-110002528D01*
X143497566Y-109924233D01*
X143474903Y-109839282D01*
X143472126Y-109751531D01*
X143489860Y-109664839D01*
X143528731Y-109583062D01*
X143580473Y-109518674D01*
X143655198Y-109460264D01*
X143732232Y-109426244D01*
X143111491Y-109426244D01*
X143095125Y-109509716D01*
X143077210Y-109551828D01*
X143047463Y-109595273D01*
X143004297Y-109640447D01*
X142955714Y-109680206D01*
X142909720Y-109707409D01*
X142897669Y-109712039D01*
X142831159Y-109724287D01*
X142758496Y-109723490D01*
X142694000Y-109709880D01*
X142617860Y-109670139D01*
X142556565Y-109612902D01*
X142512374Y-109542493D01*
X142487549Y-109463239D01*
X142484353Y-109379464D01*
X142494105Y-109327576D01*
X142516187Y-109276962D01*
X142552486Y-109223468D01*
X142565591Y-109208047D01*
X142634520Y-109148033D01*
X142710449Y-109111172D01*
X142790100Y-109097567D01*
X142870193Y-109107321D01*
X142947447Y-109140535D01*
X143015305Y-109193995D01*
X143071111Y-109265667D01*
X143103330Y-109343989D01*
X143111491Y-109426244D01*
X143732232Y-109426244D01*
X143737638Y-109423857D01*
X143824122Y-109408748D01*
X143910983Y-109414233D01*
X143994552Y-109439608D01*
X144071160Y-109484167D01*
X144137137Y-109547208D01*
X144188816Y-109628026D01*
X144192657Y-109636185D01*
X144209487Y-109677131D01*
X144218192Y-109713349D01*
X144220415Y-109755395D01*
X144700431Y-109755395D01*
X144640841Y-109607271D01*
X144558829Y-109465321D01*
X144459243Y-109341216D01*
X144342409Y-109235383D01*
X144208653Y-109148248D01*
X144108159Y-109099879D01*
X144068248Y-109084064D01*
X144009034Y-109061925D01*
X143933758Y-109034577D01*
X143845662Y-109003134D01*
X143747987Y-108968710D01*
X143643974Y-108932420D01*
X143536863Y-108895379D01*
X143429898Y-108858701D01*
X143326317Y-108823501D01*
X143229364Y-108790893D01*
X143142278Y-108761992D01*
X143068302Y-108737913D01*
X143010676Y-108719769D01*
X142972642Y-108708676D01*
X142964828Y-108706726D01*
X142890294Y-108694893D01*
X142800953Y-108688531D01*
X142706085Y-108687654D01*
X142614968Y-108692278D01*
D12*
X172000000Y-145000000D03*
X118000000Y-132500000D03*
X172000000Y-132500000D03*
D13*
X112776000Y-79629000D03*
D14*
X115316000Y-79629000D03*
D13*
X115443000Y-91948000D03*
D14*
X117983000Y-91948000D03*
D13*
X120523000Y-102743000D03*
D14*
X123063000Y-102743000D03*
D13*
X114300000Y-85598000D03*
D14*
X116840000Y-85598000D03*
D13*
X117983000Y-97790000D03*
D14*
X120523000Y-97790000D03*
D13*
X126238000Y-65786000D03*
D14*
X128778000Y-65786000D03*
D13*
X127254000Y-79502000D03*
D14*
X129794000Y-79502000D03*
D13*
X129286000Y-93218000D03*
D14*
X131826000Y-93218000D03*
D13*
X127127000Y-72898000D03*
D14*
X129667000Y-72898000D03*
D13*
X128651000Y-85344000D03*
D14*
X131191000Y-85344000D03*
D13*
X143129000Y-58801000D03*
D14*
X145669000Y-58801000D03*
D13*
X142494000Y-75692000D03*
D14*
X145034000Y-75692000D03*
D13*
X140716000Y-92964000D03*
D14*
X143256000Y-92964000D03*
D13*
X143129000Y-67564000D03*
D14*
X145669000Y-67564000D03*
D13*
X141351000Y-83820000D03*
D14*
X143891000Y-83820000D03*
D13*
X162814000Y-66167000D03*
D14*
X165354000Y-66167000D03*
D13*
X158242000Y-81534000D03*
D14*
X160782000Y-81534000D03*
D13*
X152273000Y-94742000D03*
D14*
X154813000Y-94742000D03*
D13*
X160909000Y-74295000D03*
D14*
X163449000Y-74295000D03*
D13*
X155321000Y-88519000D03*
D14*
X157861000Y-88519000D03*
D15*
X105380000Y-133000000D03*
D16*
X113000000Y-133000000D03*
D17*
X164632000Y-145032000D03*
X162132000Y-145032000D03*
X167132000Y-145032000D03*
X167132000Y-141732000D03*
X164632000Y-141732000D03*
X162132000Y-141732000D03*
D18*
X178300000Y-143620000D03*
D16*
X196080000Y-136000000D03*
X180840000Y-143620000D03*
X193540000Y-136000000D03*
X183380000Y-143620000D03*
X191000000Y-136000000D03*
X185920000Y-143620000D03*
X188460000Y-136000000D03*
X188460000Y-143620000D03*
X185920000Y-136000000D03*
X191000000Y-143620000D03*
X183380000Y-136000000D03*
X193540000Y-143620000D03*
X180840000Y-136000000D03*
X196080000Y-143620000D03*
X178300000Y-136000000D03*
D19*
X187706000Y-132080000D03*
D20*
X190246000Y-132080000D03*
D15*
X113750000Y-129500000D03*
X113750000Y-127000000D03*
D12*
X118000000Y-145000000D03*
D19*
X102460000Y-140000000D03*
D20*
X102460000Y-137460000D03*
X105000000Y-140000000D03*
X105000000Y-137460000D03*
X107540000Y-140000000D03*
X107540000Y-137460000D03*
X110080000Y-140000000D03*
X110080000Y-137460000D03*
X112620000Y-140000000D03*
X112620000Y-137460000D03*
D21*
X169644700Y-143316800D03*
X169336800Y-140697300D03*
D22*
X188881400Y-132756100D02*
X191000000Y-134874700D01*
X188881400Y-131084600D02*
X188881400Y-132756100D01*
X187296800Y-129500000D02*
X188881400Y-131084600D01*
X113750000Y-129500000D02*
X187296800Y-129500000D01*
X191000000Y-136000000D02*
X191000000Y-134874700D01*
X188205300Y-127000000D02*
X196080000Y-134874700D01*
X113750000Y-127000000D02*
X188205300Y-127000000D01*
X196080000Y-136000000D02*
X196080000Y-134874700D01*
X183380000Y-143620000D02*
X182254700Y-143620000D01*
X110260200Y-147800200D02*
X102460000Y-140000000D01*
X178302600Y-147800200D02*
X110260200Y-147800200D01*
X182254700Y-143848100D02*
X178302600Y-147800200D01*
X182254700Y-143620000D02*
X182254700Y-143848100D01*
X102460000Y-137460000D02*
X102460000Y-138635300D01*
X180840000Y-143620000D02*
X179714700Y-143620000D01*
X103268100Y-138635300D02*
X102460000Y-138635300D01*
X103635300Y-139002500D02*
X103268100Y-138635300D01*
X103635300Y-140306600D02*
X103635300Y-139002500D01*
X110678600Y-147349900D02*
X103635300Y-140306600D01*
X176635100Y-147349900D02*
X110678600Y-147349900D01*
X179714700Y-144270300D02*
X176635100Y-147349900D01*
X179714700Y-143620000D02*
X179714700Y-144270300D01*
X120072600Y-143316800D02*
X169644700Y-143316800D01*
X118746600Y-141990800D02*
X120072600Y-143316800D01*
X107798800Y-141990800D02*
X118746600Y-141990800D01*
X106175300Y-140367300D02*
X107798800Y-141990800D01*
X106175300Y-140000000D02*
X106175300Y-140367300D01*
X105000000Y-140000000D02*
X106175300Y-140000000D01*
X179714700Y-136281400D02*
X179714700Y-136000000D01*
X178870800Y-137125300D02*
X179714700Y-136281400D01*
X177198700Y-137125300D02*
X178870800Y-137125300D01*
X176357300Y-136283900D02*
X177198700Y-137125300D01*
X106984100Y-136283900D02*
X176357300Y-136283900D01*
X106175300Y-137092700D02*
X106984100Y-136283900D01*
X106175300Y-137460000D02*
X106175300Y-137092700D01*
X105000000Y-137460000D02*
X106175300Y-137460000D01*
X180840000Y-136000000D02*
X179714700Y-136000000D01*
X184794700Y-136281300D02*
X184794700Y-136000000D01*
X182251300Y-138824700D02*
X184794700Y-136281300D01*
X109523200Y-138824700D02*
X182251300Y-138824700D01*
X108715300Y-139632600D02*
X109523200Y-138824700D01*
X108715300Y-140000000D02*
X108715300Y-139632600D01*
X107540000Y-140000000D02*
X108715300Y-140000000D01*
X185920000Y-136000000D02*
X184794700Y-136000000D01*
X189874700Y-143338600D02*
X189874700Y-143620000D01*
X189030800Y-142494700D02*
X189874700Y-143338600D01*
X168691500Y-142494700D02*
X189030800Y-142494700D01*
X168365800Y-142820400D02*
X168691500Y-142494700D01*
X120338400Y-142820400D02*
X168365800Y-142820400D01*
X118693300Y-141175300D02*
X120338400Y-142820400D01*
X112063200Y-141175300D02*
X118693300Y-141175300D01*
X111255300Y-140367400D02*
X112063200Y-141175300D01*
X111255300Y-140000000D02*
X111255300Y-140367400D01*
X110080000Y-140000000D02*
X111255300Y-140000000D01*
X191000000Y-143620000D02*
X189874700Y-143620000D01*
X192414700Y-143338700D02*
X192414700Y-143620000D01*
X189773300Y-140697300D02*
X192414700Y-143338700D01*
X169336800Y-140697300D02*
X189773300Y-140697300D01*
X193540000Y-143620000D02*
X192414700Y-143620000D01*
X112614600Y-131489300D02*
X113000000Y-131874700D01*
X112614600Y-129011600D02*
X112614600Y-131489300D01*
X113288900Y-128337300D02*
X112614600Y-129011600D01*
X188167800Y-128337300D02*
X113288900Y-128337300D01*
X193540000Y-133709500D02*
X188167800Y-128337300D01*
X193540000Y-136000000D02*
X193540000Y-133709500D01*
X113000000Y-133000000D02*
X113000000Y-131874700D01*
X167088900Y-139275100D02*
X164632000Y-141732000D01*
X184243900Y-139275100D02*
X167088900Y-139275100D01*
X187190000Y-136329000D02*
X184243900Y-139275100D01*
X187190000Y-133771300D02*
X187190000Y-136329000D01*
X187706000Y-133255300D02*
X187190000Y-133771300D01*
X187706000Y-132080000D02*
X187706000Y-133255300D01*
X158242000Y-78187300D02*
X158242000Y-81534000D01*
X160909000Y-75520300D02*
X158242000Y-78187300D01*
X160909000Y-74295000D02*
X160909000Y-75520300D01*
X143129000Y-58801000D02*
X143129000Y-60026300D01*
X145669000Y-67564000D02*
X145351500Y-67564000D01*
X145034000Y-67881500D02*
X145351500Y-67564000D01*
X145034000Y-75692000D02*
X145034000Y-67881500D01*
X145351500Y-62248800D02*
X143129000Y-60026300D01*
X145351500Y-67564000D02*
X145351500Y-62248800D01*
X127254000Y-74250300D02*
X127254000Y-79502000D01*
X127127000Y-74123300D02*
X127254000Y-74250300D01*
X127127000Y-72898000D02*
X127127000Y-74123300D01*
X117983000Y-97790000D02*
X117983000Y-91948000D01*
X140716000Y-92964000D02*
X139490700Y-92964000D01*
X131826000Y-92964000D02*
X139490700Y-92964000D01*
X131191000Y-92329000D02*
X131826000Y-92964000D01*
X131191000Y-85344000D02*
X131191000Y-92329000D01*
X131826000Y-92964000D02*
X131826000Y-93218000D01*
X158242000Y-81534000D02*
X158242000Y-82759300D01*
X117983000Y-86741000D02*
X117983000Y-91948000D01*
X116840000Y-85598000D02*
X117983000Y-86741000D01*
X157861000Y-83140300D02*
X157861000Y-88519000D01*
X158242000Y-82759300D02*
X157861000Y-83140300D01*
X155321000Y-88519000D02*
X155321000Y-89744300D01*
X163449000Y-68027300D02*
X162814000Y-67392300D01*
X163449000Y-74295000D02*
X163449000Y-68027300D01*
X162814000Y-66167000D02*
X162814000Y-67392300D01*
X163449000Y-78867000D02*
X163449000Y-74295000D01*
X160782000Y-81534000D02*
X163449000Y-78867000D01*
X128651000Y-91357700D02*
X128651000Y-85344000D01*
X129286000Y-91992700D02*
X128651000Y-91357700D01*
X129286000Y-93218000D02*
X129286000Y-91992700D01*
X155321000Y-89744300D02*
X152273000Y-92792300D01*
X152273000Y-92792300D02*
X152273000Y-94742000D01*
X126238000Y-65786000D02*
X126238000Y-67011300D01*
X129667000Y-70440300D02*
X126238000Y-67011300D01*
X129667000Y-72898000D02*
X129667000Y-70440300D01*
X152273000Y-92792300D02*
X143891000Y-92792300D01*
X143427700Y-92792300D02*
X143256000Y-92964000D01*
X143891000Y-92792300D02*
X143427700Y-92792300D01*
X143891000Y-92792300D02*
X143891000Y-83820000D01*
X143891000Y-78314300D02*
X142494000Y-76917300D01*
X143891000Y-83820000D02*
X143891000Y-78314300D01*
X142494000Y-75692000D02*
X142494000Y-76304600D01*
X142494000Y-76304600D02*
X142494000Y-76917300D01*
X142494000Y-76304600D02*
X129794000Y-76304600D01*
X129794000Y-73025000D02*
X129667000Y-72898000D01*
X129794000Y-76304600D02*
X129794000Y-73025000D01*
X115443000Y-91948000D02*
X115443000Y-90722700D01*
X114300000Y-89579700D02*
X114300000Y-85598000D01*
X115443000Y-90722700D02*
X114300000Y-89579700D01*
X114300000Y-80645000D02*
X115316000Y-79629000D01*
X114300000Y-85598000D02*
X114300000Y-80645000D01*
X129794000Y-76304600D02*
X129794000Y-79502000D01*
X129794000Y-82975700D02*
X128651000Y-84118700D01*
X129794000Y-79502000D02*
X129794000Y-82975700D01*
X128651000Y-85344000D02*
X128651000Y-84118700D01*
D23*
G36*
X152947532Y-50978570D02*
X154368479Y-51689043D01*
X154460254Y-51714176D01*
X154548214Y-51750502D01*
X154592735Y-51750455D01*
X154635669Y-51762213D01*
X154730079Y-51750312D01*
X154825242Y-51750212D01*
X156026302Y-51510000D01*
X156931908Y-51510000D01*
X157739954Y-52318046D01*
X157761167Y-52332220D01*
X157776807Y-52352372D01*
X157875673Y-52408730D01*
X157970295Y-52471954D01*
X157995314Y-52476931D01*
X158017478Y-52489565D01*
X158779479Y-52743565D01*
X158892382Y-52757798D01*
X159004000Y-52780000D01*
X161231237Y-52780000D01*
X162238102Y-52947811D01*
X162379199Y-53512200D01*
X162412417Y-53582517D01*
X162432957Y-53657522D01*
X162471015Y-53706559D01*
X162497529Y-53762685D01*
X162555127Y-53814937D01*
X162602807Y-53876372D01*
X162656733Y-53907112D01*
X162702708Y-53948820D01*
X162775917Y-53975052D01*
X162843478Y-54013565D01*
X162905065Y-54021329D01*
X162963500Y-54042267D01*
X163041176Y-54038487D01*
X163118331Y-54048213D01*
X163178198Y-54031818D01*
X163240200Y-54028801D01*
X163310517Y-53995583D01*
X163385522Y-53975043D01*
X163630478Y-53852565D01*
X163882372Y-53936530D01*
X164255244Y-54495837D01*
X164269360Y-54509982D01*
X164278000Y-54528000D01*
X164366737Y-54607563D01*
X164450928Y-54691930D01*
X164469383Y-54699597D01*
X164484260Y-54712936D01*
X164596677Y-54752481D01*
X164706757Y-54798213D01*
X164726743Y-54798234D01*
X164745591Y-54804864D01*
X164864588Y-54798378D01*
X164983786Y-54798502D01*
X165002258Y-54790873D01*
X165022208Y-54789786D01*
X165129665Y-54738256D01*
X165239837Y-54692756D01*
X165253982Y-54678640D01*
X165272000Y-54670000D01*
X166098667Y-54050000D01*
X167599908Y-54050000D01*
X167781437Y-54231528D01*
X167982435Y-54834522D01*
X168029198Y-54916556D01*
X168065244Y-55003837D01*
X168097215Y-55035875D01*
X168119628Y-55075193D01*
X168194228Y-55133091D01*
X168260928Y-55199930D01*
X168302721Y-55217293D01*
X168338478Y-55245044D01*
X168429555Y-55269985D01*
X168516757Y-55306213D01*
X168562018Y-55306260D01*
X168605669Y-55318214D01*
X168699358Y-55306403D01*
X168793786Y-55306502D01*
X168835615Y-55289227D01*
X168880522Y-55283566D01*
X168962560Y-55236800D01*
X169049837Y-55200756D01*
X169811837Y-54692756D01*
X169825982Y-54678640D01*
X169844000Y-54670000D01*
X170767826Y-53977130D01*
X171958000Y-53580406D01*
X172336470Y-53706562D01*
X172772000Y-54142092D01*
X172772000Y-54805236D01*
X172527660Y-56271277D01*
X172529499Y-56330191D01*
X172518000Y-56388000D01*
X172533780Y-56467329D01*
X172536303Y-56548170D01*
X172560547Y-56601895D01*
X172572046Y-56659705D01*
X172616980Y-56726955D01*
X172650249Y-56800679D01*
X172693207Y-56841036D01*
X172725954Y-56890046D01*
X172793208Y-56934983D01*
X172852154Y-56990361D01*
X172907286Y-57011207D01*
X172956295Y-57043954D01*
X173035621Y-57059733D01*
X173111277Y-57088340D01*
X173170191Y-57086501D01*
X173228000Y-57098000D01*
X175172596Y-57098000D01*
X175984489Y-57300973D01*
X176388228Y-57570133D01*
X176582000Y-58732764D01*
X176582000Y-60381698D01*
X176373372Y-61424837D01*
X175708000Y-62312000D01*
X175658794Y-62414610D01*
X175602435Y-62513478D01*
X175599244Y-62538791D01*
X175588214Y-62561792D01*
X175582020Y-62675424D01*
X175567787Y-62788331D01*
X175574525Y-62812935D01*
X175573136Y-62838409D01*
X175610896Y-62945754D01*
X175640956Y-63055522D01*
X175656600Y-63075679D01*
X175665064Y-63099740D01*
X175741028Y-63184463D01*
X175810807Y-63274372D01*
X175832969Y-63287005D01*
X175850000Y-63306000D01*
X175952610Y-63355206D01*
X176051478Y-63411565D01*
X176765608Y-63649608D01*
X177413098Y-63973354D01*
X177575000Y-64944766D01*
X176648471Y-67261091D01*
X175144694Y-70018015D01*
X175131994Y-70058639D01*
X175108782Y-70094312D01*
X174600782Y-71364313D01*
X174576197Y-71496298D01*
X174550000Y-71628000D01*
X174550000Y-72136000D01*
X174572202Y-72247617D01*
X174586435Y-72360522D01*
X174599069Y-72382686D01*
X174604046Y-72407705D01*
X174667270Y-72502327D01*
X174723628Y-72601193D01*
X174743780Y-72616833D01*
X174757954Y-72638046D01*
X174852578Y-72701271D01*
X174942478Y-72771043D01*
X175746798Y-73173203D01*
X175789116Y-73257840D01*
X175336237Y-75748673D01*
X173330782Y-80762313D01*
X173306197Y-80894298D01*
X173280000Y-81026000D01*
X173280000Y-81534000D01*
X173302202Y-81645617D01*
X173316435Y-81758522D01*
X173329069Y-81780686D01*
X173334046Y-81805705D01*
X173397270Y-81900327D01*
X173453628Y-81999193D01*
X173473780Y-82014833D01*
X173487954Y-82036046D01*
X173582578Y-82099271D01*
X173672478Y-82169043D01*
X173968798Y-82317203D01*
X173999498Y-82378603D01*
X173579738Y-84057643D01*
X171852717Y-87018252D01*
X171838354Y-87059950D01*
X171813407Y-87096318D01*
X171051407Y-88874317D01*
X171050494Y-88878631D01*
X171048046Y-88882295D01*
X171021855Y-89013965D01*
X170994053Y-89145343D01*
X170994860Y-89149676D01*
X170994000Y-89154000D01*
X171020189Y-89285661D01*
X171044781Y-89417687D01*
X171047186Y-89421384D01*
X171048046Y-89425705D01*
X171122646Y-89537353D01*
X171195871Y-89649887D01*
X171199504Y-89652379D01*
X171201954Y-89656046D01*
X171313601Y-89730646D01*
X171424317Y-89806593D01*
X171427338Y-89807232D01*
X171502000Y-90031217D01*
X171502000Y-90786268D01*
X170797407Y-92430317D01*
X170776823Y-92527588D01*
X170745483Y-92621936D01*
X170491483Y-94653935D01*
X170494685Y-94698336D01*
X170486000Y-94742000D01*
X170486000Y-95758000D01*
X170540046Y-96029705D01*
X170693954Y-96260046D01*
X170924295Y-96413954D01*
X171196000Y-96468000D01*
X171958000Y-96468000D01*
X172056024Y-96448502D01*
X172155605Y-96439947D01*
X172190810Y-96421691D01*
X172229705Y-96413954D01*
X172312807Y-96358427D01*
X172401533Y-96312417D01*
X173671534Y-95296417D01*
X173679408Y-95287063D01*
X173690062Y-95281072D01*
X175464317Y-93760282D01*
X176404944Y-92976426D01*
X176591660Y-94096724D01*
X176611441Y-94149037D01*
X176618435Y-94204522D01*
X176659973Y-94277390D01*
X176689639Y-94355847D01*
X176727932Y-94396608D01*
X176755628Y-94445193D01*
X176821890Y-94496619D01*
X176879321Y-94557751D01*
X176930295Y-94580753D01*
X176974478Y-94615044D01*
X177055381Y-94637199D01*
X177131830Y-94671697D01*
X177187729Y-94673442D01*
X177241669Y-94688213D01*
X177324883Y-94677723D01*
X177408723Y-94680340D01*
X177461036Y-94660560D01*
X177516522Y-94653565D01*
X178278522Y-94399565D01*
X178377390Y-94343206D01*
X178480000Y-94294000D01*
X180512000Y-92770000D01*
X180575037Y-92699695D01*
X180646440Y-92637898D01*
X182397301Y-90386791D01*
X182967158Y-89816934D01*
X183749470Y-89686549D01*
X183988102Y-90163812D01*
X184477199Y-92120201D01*
X184529285Y-92230458D01*
X184576070Y-92343072D01*
X184588205Y-92355182D01*
X184595529Y-92370685D01*
X184685851Y-92452624D01*
X184772163Y-92538756D01*
X185534163Y-93046756D01*
X185568843Y-93061078D01*
X185598023Y-93084661D01*
X185695891Y-93113548D01*
X185790214Y-93152502D01*
X185827736Y-93152463D01*
X185863720Y-93163084D01*
X185965189Y-93152319D01*
X186067242Y-93152213D01*
X186101894Y-93137817D01*
X186139202Y-93133859D01*
X186228832Y-93085081D01*
X186323072Y-93045930D01*
X186349574Y-93019372D01*
X186382531Y-93001437D01*
X187906531Y-91731437D01*
X187911007Y-91725898D01*
X187917193Y-91722372D01*
X187997908Y-91618372D01*
X188080661Y-91515977D01*
X188082677Y-91509148D01*
X188087043Y-91503522D01*
X188595044Y-90487521D01*
X188608443Y-90438592D01*
X188633565Y-90394522D01*
X188794565Y-89911521D01*
X188889607Y-89864000D01*
X189062392Y-89864000D01*
X189134389Y-89899998D01*
X190062191Y-93379259D01*
X190565788Y-95897243D01*
X190575287Y-95920109D01*
X190577017Y-95944813D01*
X190628132Y-96047309D01*
X190672070Y-96153072D01*
X190689599Y-96170565D01*
X190700650Y-96192724D01*
X190787092Y-96267854D01*
X190868163Y-96348756D01*
X190891050Y-96358208D01*
X190909741Y-96374453D01*
X191018358Y-96410784D01*
X191124215Y-96454502D01*
X191148979Y-96454476D01*
X191172462Y-96462331D01*
X191286715Y-96454332D01*
X191401242Y-96454212D01*
X191424108Y-96444713D01*
X191448813Y-96442983D01*
X191551311Y-96391867D01*
X191657072Y-96347930D01*
X191674565Y-96330401D01*
X191696724Y-96319350D01*
X191771854Y-96232908D01*
X191852756Y-96151837D01*
X191862208Y-96128950D01*
X191878453Y-96110259D01*
X192866992Y-94380315D01*
X193751001Y-93275304D01*
X193969607Y-93166000D01*
X193981940Y-93166000D01*
X194100953Y-93761066D01*
X193857524Y-96195352D01*
X193863400Y-96255939D01*
X193855787Y-96316331D01*
X193876643Y-96392491D01*
X193884266Y-96471087D01*
X193912879Y-96524812D01*
X193928957Y-96583522D01*
X193977370Y-96645902D01*
X194014490Y-96715599D01*
X194061487Y-96754286D01*
X194098807Y-96802372D01*
X194167409Y-96841478D01*
X194228374Y-96891663D01*
X194286594Y-96909419D01*
X194339478Y-96939565D01*
X194417823Y-96949441D01*
X194493352Y-96972476D01*
X194553939Y-96966600D01*
X194614331Y-96974213D01*
X194690491Y-96953357D01*
X194769087Y-96945734D01*
X194822812Y-96917121D01*
X194881522Y-96901043D01*
X195827812Y-96427898D01*
X196551065Y-96247085D01*
X195725547Y-97691741D01*
X195698411Y-97772866D01*
X195659318Y-97848948D01*
X195151318Y-99626948D01*
X195143243Y-99725258D01*
X195124000Y-99822000D01*
X195131996Y-99862198D01*
X195128641Y-99903046D01*
X195158803Y-99996964D01*
X195178046Y-100093705D01*
X195200815Y-100127781D01*
X195213348Y-100166807D01*
X195277153Y-100242031D01*
X195331954Y-100324046D01*
X195585954Y-100578046D01*
X195816295Y-100731954D01*
X196088000Y-100786000D01*
X196480783Y-100786000D01*
X196974470Y-100950562D01*
X197156000Y-101132091D01*
X197156000Y-101738783D01*
X196963081Y-102317539D01*
X196241180Y-103520708D01*
X196223373Y-103570404D01*
X196194046Y-103614295D01*
X196177075Y-103699611D01*
X196147733Y-103781500D01*
X196150299Y-103834224D01*
X196140000Y-103886000D01*
X196156971Y-103971317D01*
X196161199Y-104058200D01*
X196183747Y-104105931D01*
X196194046Y-104157705D01*
X196242373Y-104230032D01*
X196279529Y-104308685D01*
X196318626Y-104344153D01*
X196347954Y-104388046D01*
X196601954Y-104642046D01*
X196832295Y-104795954D01*
X197104000Y-104850000D01*
X198206392Y-104850000D01*
X198395833Y-104944720D01*
X198680000Y-105370971D01*
X198680000Y-105703029D01*
X198358705Y-106184971D01*
X197440000Y-106874000D01*
X196424000Y-107636000D01*
X196406969Y-107654995D01*
X196384807Y-107667628D01*
X196315031Y-107757533D01*
X196239064Y-107842260D01*
X196230599Y-107866323D01*
X196214957Y-107886478D01*
X196184899Y-107996239D01*
X196147136Y-108103591D01*
X196148525Y-108129066D01*
X196141787Y-108153669D01*
X196156020Y-108266576D01*
X196162214Y-108380208D01*
X196173244Y-108403209D01*
X196176435Y-108428522D01*
X196232794Y-108527390D01*
X196282000Y-108630000D01*
X196300995Y-108647031D01*
X196313628Y-108669193D01*
X196403533Y-108738969D01*
X196488260Y-108814936D01*
X196512323Y-108823401D01*
X196532478Y-108839043D01*
X197040478Y-109093043D01*
X197793435Y-109469522D01*
X197898669Y-109785223D01*
X197694538Y-111010007D01*
X196814448Y-112550164D01*
X195916000Y-113224000D01*
X195898969Y-113242995D01*
X195876807Y-113255628D01*
X195807028Y-113345537D01*
X195731064Y-113430260D01*
X195722600Y-113454321D01*
X195706956Y-113474478D01*
X195676896Y-113584246D01*
X195639136Y-113691591D01*
X195640525Y-113717065D01*
X195633787Y-113741669D01*
X195648020Y-113854576D01*
X195654214Y-113968208D01*
X195665244Y-113991209D01*
X195668435Y-114016522D01*
X195922435Y-114778522D01*
X195960948Y-114846083D01*
X195987180Y-114919292D01*
X196028888Y-114965267D01*
X196059628Y-115019193D01*
X196121064Y-115066874D01*
X196173315Y-115124471D01*
X196229438Y-115150984D01*
X196278478Y-115189044D01*
X196353488Y-115209585D01*
X196423800Y-115242801D01*
X197439800Y-115496801D01*
X197526683Y-115501029D01*
X197612000Y-115518000D01*
X198968392Y-115518000D01*
X199122736Y-115595172D01*
X199095908Y-115622000D01*
X197358000Y-115622000D01*
X197246382Y-115644202D01*
X197133479Y-115658435D01*
X196371478Y-115912435D01*
X196327406Y-115937558D01*
X196278478Y-115950957D01*
X196208148Y-116005540D01*
X196130807Y-116049628D01*
X196099703Y-116089704D01*
X196059628Y-116120807D01*
X196015542Y-116198145D01*
X195960956Y-116268478D01*
X195947557Y-116317408D01*
X195922435Y-116361478D01*
X195453463Y-117768394D01*
X192742028Y-121219311D01*
X191563380Y-122633689D01*
X189393194Y-123839348D01*
X189324830Y-123897335D01*
X189249037Y-123945204D01*
X189220136Y-123986136D01*
X189181928Y-124018545D01*
X189140960Y-124098276D01*
X189089253Y-124171509D01*
X189078217Y-124220383D01*
X189055318Y-124264948D01*
X189047980Y-124354290D01*
X189028235Y-124441733D01*
X189036742Y-124491110D01*
X189032641Y-124541047D01*
X189060053Y-124626401D01*
X189075273Y-124714739D01*
X189102027Y-124757099D01*
X189117348Y-124804806D01*
X189175335Y-124873170D01*
X189223204Y-124948963D01*
X194485204Y-130488964D01*
X194549713Y-130534511D01*
X194605546Y-130590343D01*
X194661781Y-130613637D01*
X194711509Y-130648747D01*
X194788534Y-130666140D01*
X194861486Y-130696358D01*
X196636390Y-131049408D01*
X198023654Y-131976349D01*
X198950592Y-133363610D01*
X199290000Y-135069931D01*
X199290000Y-139930069D01*
X198569989Y-143549807D01*
X196559187Y-146559186D01*
X193549805Y-148569990D01*
X189930069Y-149290000D01*
X110069931Y-149290000D01*
X106450193Y-148569989D01*
X103440814Y-146559187D01*
X101430010Y-143549805D01*
X100710000Y-139930069D01*
X100710000Y-139150000D01*
X100962560Y-139150000D01*
X100962560Y-140850000D01*
X101006838Y-141085317D01*
X101145910Y-141301441D01*
X101358110Y-141446431D01*
X101610000Y-141497440D01*
X102882638Y-141497440D01*
X109722799Y-148337601D01*
X109969361Y-148502348D01*
X110260200Y-148560200D01*
X178302600Y-148560200D01*
X178593439Y-148502348D01*
X178840001Y-148337601D01*
X182454914Y-144722688D01*
X182830849Y-144973880D01*
X183380000Y-145083113D01*
X183929151Y-144973880D01*
X184394698Y-144662811D01*
X184650000Y-144280725D01*
X184905302Y-144662811D01*
X185370849Y-144973880D01*
X185920000Y-145083113D01*
X186469151Y-144973880D01*
X186934698Y-144662811D01*
X187190000Y-144280725D01*
X187445302Y-144662811D01*
X187910849Y-144973880D01*
X188460000Y-145083113D01*
X189009151Y-144973880D01*
X189474698Y-144662811D01*
X189688424Y-144342947D01*
X189784321Y-144362022D01*
X189985302Y-144662811D01*
X190450849Y-144973880D01*
X191000000Y-145083113D01*
X191549151Y-144973880D01*
X192014698Y-144662811D01*
X192228424Y-144342947D01*
X192324321Y-144362022D01*
X192525302Y-144662811D01*
X192990849Y-144973880D01*
X193540000Y-145083113D01*
X194089151Y-144973880D01*
X194554698Y-144662811D01*
X194824986Y-144258297D01*
X194927611Y-144475134D01*
X195342577Y-144851041D01*
X195730961Y-145011904D01*
X195953000Y-144889915D01*
X195953000Y-143747000D01*
X196207000Y-143747000D01*
X196207000Y-144889915D01*
X196429039Y-145011904D01*
X196817423Y-144851041D01*
X197232389Y-144475134D01*
X197471914Y-143969041D01*
X197350629Y-143747000D01*
X196207000Y-143747000D01*
X195953000Y-143747000D01*
X195933000Y-143747000D01*
X195933000Y-143493000D01*
X195953000Y-143493000D01*
X195953000Y-142350085D01*
X196207000Y-142350085D01*
X196207000Y-143493000D01*
X197350629Y-143493000D01*
X197471914Y-143270959D01*
X197232389Y-142764866D01*
X196817423Y-142388959D01*
X196429039Y-142228096D01*
X196207000Y-142350085D01*
X195953000Y-142350085D01*
X195730961Y-142228096D01*
X195342577Y-142388959D01*
X194927611Y-142764866D01*
X194824986Y-142981703D01*
X194554698Y-142577189D01*
X194089151Y-142266120D01*
X193540000Y-142156887D01*
X192990849Y-142266120D01*
X192646805Y-142496003D01*
X190310701Y-140159899D01*
X190064139Y-139995152D01*
X189773300Y-139937300D01*
X184594526Y-139937300D01*
X184781301Y-139812501D01*
X187533784Y-137060018D01*
X187722577Y-137231041D01*
X188110961Y-137391904D01*
X188333000Y-137269915D01*
X188333000Y-136127000D01*
X188313000Y-136127000D01*
X188313000Y-135873000D01*
X188333000Y-135873000D01*
X188333000Y-134730085D01*
X188110961Y-134608096D01*
X187950000Y-134674764D01*
X187950000Y-134086102D01*
X188243401Y-133792701D01*
X188387234Y-133577440D01*
X188556000Y-133577440D01*
X188616546Y-133566048D01*
X189998721Y-134948223D01*
X189985302Y-134957189D01*
X189715014Y-135361703D01*
X189612389Y-135144866D01*
X189197423Y-134768959D01*
X188809039Y-134608096D01*
X188587000Y-134730085D01*
X188587000Y-135873000D01*
X188607000Y-135873000D01*
X188607000Y-136127000D01*
X188587000Y-136127000D01*
X188587000Y-137269915D01*
X188809039Y-137391904D01*
X189197423Y-137231041D01*
X189612389Y-136855134D01*
X189715014Y-136638297D01*
X189985302Y-137042811D01*
X190450849Y-137353880D01*
X191000000Y-137463113D01*
X191549151Y-137353880D01*
X192014698Y-137042811D01*
X192270000Y-136660725D01*
X192525302Y-137042811D01*
X192990849Y-137353880D01*
X193540000Y-137463113D01*
X194089151Y-137353880D01*
X194554698Y-137042811D01*
X194810000Y-136660725D01*
X195065302Y-137042811D01*
X195530849Y-137353880D01*
X196080000Y-137463113D01*
X196629151Y-137353880D01*
X197094698Y-137042811D01*
X197405767Y-136577264D01*
X197515000Y-136028113D01*
X197515000Y-135971887D01*
X197405767Y-135422736D01*
X197094698Y-134957189D01*
X196819882Y-134773563D01*
X196782148Y-134583861D01*
X196617401Y-134337299D01*
X188742701Y-126462599D01*
X188496139Y-126297852D01*
X188205300Y-126240000D01*
X114988646Y-126240000D01*
X114967243Y-126188200D01*
X114563923Y-125784176D01*
X114036691Y-125565250D01*
X113465813Y-125564752D01*
X112938200Y-125782757D01*
X112534176Y-126186077D01*
X112315250Y-126713309D01*
X112314752Y-127284187D01*
X112532757Y-127811800D01*
X112636087Y-127915311D01*
X112077199Y-128474199D01*
X111912452Y-128720761D01*
X111854600Y-129011600D01*
X111854600Y-131489300D01*
X111912452Y-131780139D01*
X112021033Y-131942643D01*
X111957189Y-131985302D01*
X111646120Y-132450849D01*
X111536887Y-133000000D01*
X111646120Y-133549151D01*
X111957189Y-134014698D01*
X112422736Y-134325767D01*
X112971887Y-134435000D01*
X113028113Y-134435000D01*
X113577264Y-134325767D01*
X114042811Y-134014698D01*
X114353880Y-133549151D01*
X114463113Y-133000000D01*
X114353880Y-132450849D01*
X114042811Y-131985302D01*
X113742022Y-131784321D01*
X113702148Y-131583861D01*
X113537401Y-131337299D01*
X113374600Y-131174498D01*
X113374600Y-130897915D01*
X113463309Y-130934750D01*
X114034187Y-130935248D01*
X114561800Y-130717243D01*
X114965824Y-130313923D01*
X114988215Y-130260000D01*
X116521087Y-130260000D01*
X116509342Y-130264853D01*
X115767458Y-131005443D01*
X115365458Y-131973567D01*
X115364543Y-133021834D01*
X115764853Y-133990658D01*
X116505443Y-134732542D01*
X117473567Y-135134542D01*
X118521834Y-135135457D01*
X119490658Y-134735147D01*
X120232542Y-133994557D01*
X120634542Y-133026433D01*
X120635457Y-131978166D01*
X120235147Y-131009342D01*
X119494557Y-130267458D01*
X119476596Y-130260000D01*
X170521087Y-130260000D01*
X170509342Y-130264853D01*
X169767458Y-131005443D01*
X169365458Y-131973567D01*
X169364543Y-133021834D01*
X169764853Y-133990658D01*
X170505443Y-134732542D01*
X171473567Y-135134542D01*
X172521834Y-135135457D01*
X173490658Y-134735147D01*
X174232542Y-133994557D01*
X174634542Y-133026433D01*
X174635457Y-131978166D01*
X174235147Y-131009342D01*
X173494557Y-130267458D01*
X173476596Y-130260000D01*
X186981998Y-130260000D01*
X187304558Y-130582560D01*
X186856000Y-130582560D01*
X186620683Y-130626838D01*
X186404559Y-130765910D01*
X186259569Y-130978110D01*
X186208560Y-131230000D01*
X186208560Y-132930000D01*
X186252838Y-133165317D01*
X186391910Y-133381441D01*
X186503204Y-133457485D01*
X186487852Y-133480461D01*
X186430000Y-133771300D01*
X186430000Y-134638332D01*
X185920000Y-134536887D01*
X185370849Y-134646120D01*
X184905302Y-134957189D01*
X184704321Y-135257978D01*
X184608424Y-135277053D01*
X184394698Y-134957189D01*
X183929151Y-134646120D01*
X183380000Y-134536887D01*
X182830849Y-134646120D01*
X182365302Y-134957189D01*
X182110000Y-135339275D01*
X181854698Y-134957189D01*
X181389151Y-134646120D01*
X180840000Y-134536887D01*
X180290849Y-134646120D01*
X179825302Y-134957189D01*
X179624321Y-135257978D01*
X179528424Y-135277053D01*
X179314698Y-134957189D01*
X178849151Y-134646120D01*
X178300000Y-134536887D01*
X177750849Y-134646120D01*
X177285302Y-134957189D01*
X176974233Y-135422736D01*
X176907322Y-135759120D01*
X176894701Y-135746499D01*
X176648139Y-135581752D01*
X176357300Y-135523900D01*
X106984100Y-135523900D01*
X106693261Y-135581752D01*
X106446699Y-135746499D01*
X105907558Y-136285640D01*
X105568285Y-136058946D01*
X105000000Y-135945907D01*
X104431715Y-136058946D01*
X103949946Y-136380853D01*
X103730000Y-136710026D01*
X103510054Y-136380853D01*
X103028285Y-136058946D01*
X102460000Y-135945907D01*
X101891715Y-136058946D01*
X101409946Y-136380853D01*
X101088039Y-136862622D01*
X100975000Y-137430907D01*
X100975000Y-137489093D01*
X101088039Y-138057378D01*
X101409946Y-138539147D01*
X101411179Y-138539971D01*
X101374683Y-138546838D01*
X101158559Y-138685910D01*
X101013569Y-138898110D01*
X100962560Y-139150000D01*
X100710000Y-139150000D01*
X100710000Y-135069931D01*
X101049408Y-133363610D01*
X101102476Y-133284187D01*
X103944752Y-133284187D01*
X104162757Y-133811800D01*
X104566077Y-134215824D01*
X105093309Y-134434750D01*
X105664187Y-134435248D01*
X106191800Y-134217243D01*
X106595824Y-133813923D01*
X106814750Y-133286691D01*
X106815248Y-132715813D01*
X106597243Y-132188200D01*
X106193923Y-131784176D01*
X105666691Y-131565250D01*
X105095813Y-131564752D01*
X104568200Y-131782757D01*
X104164176Y-132186077D01*
X103945250Y-132713309D01*
X103944752Y-133284187D01*
X101102476Y-133284187D01*
X101976349Y-131976346D01*
X103363610Y-131049408D01*
X105138514Y-130696358D01*
X105162432Y-130686451D01*
X105188246Y-130684589D01*
X105289650Y-130633755D01*
X105394454Y-130590343D01*
X105412756Y-130572041D01*
X105435898Y-130560440D01*
X115497898Y-122734440D01*
X115519141Y-122709894D01*
X115546726Y-122692787D01*
X115609159Y-122605883D01*
X115679188Y-122524968D01*
X115689421Y-122494163D01*
X115708360Y-122467800D01*
X115732784Y-122363617D01*
X115766517Y-122262065D01*
X115764182Y-122229689D01*
X115771591Y-122198085D01*
X115754286Y-122092479D01*
X115746589Y-121985754D01*
X115732044Y-121956739D01*
X115726794Y-121924702D01*
X115010000Y-120013251D01*
X115010000Y-119126000D01*
X114955954Y-118854295D01*
X114802046Y-118623954D01*
X114802043Y-118623952D01*
X114294046Y-118115954D01*
X114236206Y-118077307D01*
X114187072Y-118028070D01*
X114122155Y-118001101D01*
X114063705Y-117962046D01*
X113995480Y-117948475D01*
X113931242Y-117921788D01*
X112949624Y-117725464D01*
X112682666Y-117325028D01*
X112202212Y-114922758D01*
X112175525Y-114858520D01*
X112161954Y-114790295D01*
X112122899Y-114731845D01*
X112095930Y-114666928D01*
X112046693Y-114617794D01*
X112008046Y-114559954D01*
X111949596Y-114520899D01*
X111899837Y-114471244D01*
X111835541Y-114444690D01*
X111777705Y-114406046D01*
X111708762Y-114392332D01*
X111643786Y-114365498D01*
X111574224Y-114365571D01*
X111506000Y-114352000D01*
X110736382Y-114352000D01*
X110833000Y-113289198D01*
X139987163Y-113289198D01*
X139997193Y-113343570D01*
X139996154Y-113358145D01*
X139998920Y-113366447D01*
X139998565Y-113418399D01*
X140014207Y-113456903D01*
X140019355Y-113498727D01*
X140028934Y-113515647D01*
X140032462Y-113534770D01*
X140068298Y-113590055D01*
X140092550Y-113649754D01*
X140108615Y-113666040D01*
X140113661Y-113677566D01*
X140128899Y-113692208D01*
X140142387Y-113716031D01*
X140153892Y-113729375D01*
X140163438Y-113736828D01*
X140168290Y-113744314D01*
X140208360Y-113771903D01*
X140226916Y-113786392D01*
X140234946Y-113794107D01*
X140267916Y-113827531D01*
X140271151Y-113828897D01*
X140293723Y-113850586D01*
X140326565Y-113871596D01*
X140345548Y-113879019D01*
X140350717Y-113883055D01*
X140354031Y-113883973D01*
X140369853Y-113896953D01*
X140421518Y-113924557D01*
X140433113Y-113928072D01*
X140442762Y-113935404D01*
X140510738Y-113968528D01*
X140517895Y-113970410D01*
X140523884Y-113974749D01*
X140548901Y-113986244D01*
X140546199Y-114001355D01*
X140547586Y-114072796D01*
X140536884Y-114143445D01*
X140540794Y-114228360D01*
X140555487Y-114287792D01*
X140557953Y-114348964D01*
X140578874Y-114435715D01*
X140601361Y-114484363D01*
X140612370Y-114536811D01*
X140649027Y-114622735D01*
X140676616Y-114663097D01*
X140693778Y-114708871D01*
X140744894Y-114791305D01*
X140776856Y-114825517D01*
X140799468Y-114866515D01*
X140863767Y-114942795D01*
X140900467Y-114972115D01*
X140928889Y-115009515D01*
X141005096Y-115076978D01*
X141047367Y-115101647D01*
X141082539Y-115135682D01*
X141169376Y-115191664D01*
X141217964Y-115210861D01*
X141260888Y-115240646D01*
X141357079Y-115282484D01*
X141399484Y-115291696D01*
X141438132Y-115311427D01*
X141495596Y-115327683D01*
X141522467Y-115329819D01*
X141547408Y-115340036D01*
X141625062Y-115355167D01*
X141638793Y-115355113D01*
X141651708Y-115359777D01*
X141752216Y-115374986D01*
X141760788Y-115374590D01*
X141768931Y-115377290D01*
X141889746Y-115392326D01*
X141895833Y-115391884D01*
X141901666Y-115393697D01*
X142040243Y-115408311D01*
X142045003Y-115407875D01*
X142049587Y-115409227D01*
X142203381Y-115423168D01*
X142207386Y-115422742D01*
X142211261Y-115423833D01*
X142377727Y-115436851D01*
X142381310Y-115436425D01*
X142384792Y-115437364D01*
X142561384Y-115449209D01*
X142564623Y-115448788D01*
X142567789Y-115449607D01*
X142736974Y-115459252D01*
X142742583Y-115458465D01*
X142748087Y-115459788D01*
X142811549Y-115462300D01*
X142816109Y-115461579D01*
X142820615Y-115462595D01*
X142906462Y-115464775D01*
X142908982Y-115464340D01*
X142911482Y-115464883D01*
X143016700Y-115466729D01*
X143018333Y-115466434D01*
X143019952Y-115466777D01*
X143141529Y-115468292D01*
X143142708Y-115468073D01*
X143143883Y-115468317D01*
X143278806Y-115469502D01*
X143279733Y-115469326D01*
X143280660Y-115469516D01*
X143425917Y-115470371D01*
X143426699Y-115470220D01*
X143427478Y-115470378D01*
X143580054Y-115470904D01*
X143580752Y-115470768D01*
X143581448Y-115470907D01*
X143738332Y-115471106D01*
X143738991Y-115470976D01*
X143739654Y-115471107D01*
X143897832Y-115470981D01*
X143898505Y-115470847D01*
X143899175Y-115470978D01*
X144055634Y-115470525D01*
X144056342Y-115470382D01*
X144057054Y-115470520D01*
X144208781Y-115469744D01*
X144209588Y-115469579D01*
X144210393Y-115469733D01*
X144354376Y-115468634D01*
X144355345Y-115468434D01*
X144356322Y-115468617D01*
X144489548Y-115467195D01*
X144490796Y-115466933D01*
X144492049Y-115467163D01*
X144611503Y-115465421D01*
X144613259Y-115465045D01*
X144615028Y-115465360D01*
X144717700Y-115463297D01*
X144720449Y-115462693D01*
X144723223Y-115463162D01*
X144806097Y-115460781D01*
X144809741Y-115459947D01*
X144813432Y-115460528D01*
X144850164Y-115459051D01*
X144854591Y-115457984D01*
X144859098Y-115458629D01*
X145006190Y-115450654D01*
X145012799Y-115448963D01*
X145019572Y-115449788D01*
X145142055Y-115440570D01*
X145152013Y-115437798D01*
X145162310Y-115438722D01*
X145260953Y-115428137D01*
X145276924Y-115423140D01*
X145293643Y-115423774D01*
X145369212Y-115411701D01*
X145397460Y-115401236D01*
X145427533Y-115399575D01*
X145480797Y-115385887D01*
X145538940Y-115357952D01*
X145601345Y-115341605D01*
X145633071Y-115326180D01*
X145674285Y-115294921D01*
X145721579Y-115273975D01*
X145772831Y-115220178D01*
X145796313Y-115202368D01*
X145806443Y-115195924D01*
X145808299Y-115193277D01*
X145832033Y-115175276D01*
X145858146Y-115130627D01*
X145893826Y-115093175D01*
X145904780Y-115075888D01*
X145922140Y-115030927D01*
X145949811Y-114991465D01*
X145951864Y-114982235D01*
X145956242Y-114975638D01*
X145969348Y-114908663D01*
X145994726Y-114842935D01*
X145993558Y-114794751D01*
X146004021Y-114747705D01*
X146004038Y-114746949D01*
X146002597Y-114738746D01*
X146004197Y-114730570D01*
X145990343Y-114662035D01*
X145988677Y-114593292D01*
X145969409Y-114549786D01*
X145960840Y-114500999D01*
X145956368Y-114493969D01*
X145954718Y-114485806D01*
X145944790Y-114462046D01*
X145914474Y-114416979D01*
X145894919Y-114366310D01*
X145845450Y-114314369D01*
X145805411Y-114254848D01*
X145760157Y-114224814D01*
X145758374Y-114222942D01*
X145730595Y-114191562D01*
X145726662Y-114189645D01*
X145722699Y-114185484D01*
X145711786Y-114177801D01*
X145651429Y-114151059D01*
X145643651Y-114144053D01*
X145632538Y-114140115D01*
X145597349Y-114116761D01*
X145563538Y-114110145D01*
X145506119Y-114082161D01*
X145479074Y-114075049D01*
X145442659Y-114072833D01*
X145408275Y-114060649D01*
X145365996Y-114054510D01*
X145347918Y-114055454D01*
X145330544Y-114050368D01*
X145271793Y-114045160D01*
X145261458Y-114046280D01*
X145251394Y-114043680D01*
X145174937Y-114039359D01*
X145168479Y-114040268D01*
X145162129Y-114038763D01*
X145142707Y-114038055D01*
X145144029Y-114028336D01*
X145143979Y-114027511D01*
X145144247Y-114026725D01*
X145155913Y-113939312D01*
X145155875Y-113938711D01*
X145156069Y-113938138D01*
X145168670Y-113842375D01*
X145168638Y-113841889D01*
X145168794Y-113841427D01*
X145181933Y-113740409D01*
X145181904Y-113739971D01*
X145182043Y-113739557D01*
X145195322Y-113636380D01*
X145195293Y-113635959D01*
X145195428Y-113635556D01*
X145208452Y-113533312D01*
X145208421Y-113532861D01*
X145208564Y-113532430D01*
X145220936Y-113434216D01*
X145220898Y-113433679D01*
X145221067Y-113433168D01*
X145224258Y-113407494D01*
X145232389Y-113342084D01*
X145232338Y-113341390D01*
X145232556Y-113340729D01*
X145242434Y-113259856D01*
X145242357Y-113258826D01*
X145242676Y-113257845D01*
X145250711Y-113190285D01*
X145250571Y-113188488D01*
X145251120Y-113186768D01*
X145256917Y-113135615D01*
X145256556Y-113131305D01*
X145257817Y-113127169D01*
X145260979Y-113095517D01*
X145258993Y-113075063D01*
X145263729Y-113055068D01*
X145264064Y-113045821D01*
X145255036Y-112989928D01*
X145258230Y-112933395D01*
X145243256Y-112890556D01*
X145262603Y-112869574D01*
X145279910Y-112822482D01*
X145307783Y-112780767D01*
X145322580Y-112706378D01*
X145348744Y-112635186D01*
X145346712Y-112585057D01*
X145356500Y-112535850D01*
X145356500Y-110867431D01*
X145357609Y-110864813D01*
X145369388Y-110807966D01*
X145369478Y-110796639D01*
X145373530Y-110786062D01*
X145380059Y-110747908D01*
X145379672Y-110733492D01*
X145384229Y-110719806D01*
X145395931Y-110626744D01*
X145394733Y-110609957D01*
X145399215Y-110593736D01*
X145407036Y-110487158D01*
X145405492Y-110474679D01*
X145408370Y-110462439D01*
X145412296Y-110348917D01*
X145410492Y-110337866D01*
X145412678Y-110326887D01*
X145412694Y-110212995D01*
X145410385Y-110201381D01*
X145412273Y-110189689D01*
X145408364Y-110081998D01*
X145404901Y-110067381D01*
X145406607Y-110052456D01*
X145398756Y-109957540D01*
X145392837Y-109936868D01*
X145393858Y-109915389D01*
X145383766Y-109848088D01*
X145372205Y-109815939D01*
X145370218Y-109781836D01*
X145324331Y-109605478D01*
X145306350Y-109568341D01*
X145298716Y-109527793D01*
X145294192Y-109516549D01*
X145294186Y-109516540D01*
X145294184Y-109516529D01*
X145234594Y-109368405D01*
X145209664Y-109330257D01*
X145195001Y-109287103D01*
X145112989Y-109145154D01*
X145080637Y-109108286D01*
X145057992Y-109064776D01*
X144958406Y-108940671D01*
X144919318Y-108907866D01*
X144888909Y-108866888D01*
X144772075Y-108761055D01*
X144728272Y-108734817D01*
X144691747Y-108699134D01*
X144557991Y-108611999D01*
X144519418Y-108596546D01*
X144486215Y-108571569D01*
X144385722Y-108523200D01*
X144363341Y-108517432D01*
X144343928Y-108504889D01*
X144304017Y-108489074D01*
X144297775Y-108487932D01*
X144292379Y-108484593D01*
X144233165Y-108462454D01*
X144230169Y-108461966D01*
X144227573Y-108460393D01*
X144152296Y-108433045D01*
X144150476Y-108432766D01*
X144148893Y-108431819D01*
X144060797Y-108400376D01*
X144059512Y-108400186D01*
X144058395Y-108399524D01*
X143960720Y-108365100D01*
X143959703Y-108364954D01*
X143958818Y-108364433D01*
X143854805Y-108328143D01*
X143853918Y-108328019D01*
X143853144Y-108327566D01*
X143746033Y-108290525D01*
X143745189Y-108290409D01*
X143744453Y-108289981D01*
X143637487Y-108253303D01*
X143636600Y-108253183D01*
X143635824Y-108252735D01*
X143532243Y-108217535D01*
X143531226Y-108217401D01*
X143530337Y-108216891D01*
X143433384Y-108184283D01*
X143432086Y-108184116D01*
X143430948Y-108183469D01*
X143343862Y-108154568D01*
X143342003Y-108154336D01*
X143340367Y-108153419D01*
X143266391Y-108129340D01*
X143263267Y-108128969D01*
X143260509Y-108127457D01*
X143202883Y-108109313D01*
X143196008Y-108108563D01*
X143189873Y-108105368D01*
X143151838Y-108094275D01*
X143139137Y-108093162D01*
X143127603Y-108087719D01*
X143119789Y-108085769D01*
X143091625Y-108084410D01*
X143065177Y-108074642D01*
X142990643Y-108062809D01*
X142962710Y-108063896D01*
X142935753Y-108056510D01*
X142846412Y-108050148D01*
X142826510Y-108052654D01*
X142806869Y-108048558D01*
X142712001Y-108047681D01*
X142692889Y-108051299D01*
X142673648Y-108048477D01*
X142582531Y-108053101D01*
X142557914Y-108059309D01*
X142532585Y-108057603D01*
X142454498Y-108067739D01*
X142431005Y-108075666D01*
X142406208Y-108075896D01*
X142388728Y-108079542D01*
X142362294Y-108090780D01*
X142333708Y-108093591D01*
X142189592Y-108137285D01*
X142150543Y-108158150D01*
X142107487Y-108168475D01*
X141969335Y-108232122D01*
X141934895Y-108257131D01*
X141895170Y-108272418D01*
X141760701Y-108357418D01*
X141733331Y-108383434D01*
X141699908Y-108401018D01*
X141566838Y-108508772D01*
X141548668Y-108530619D01*
X141524775Y-108546004D01*
X141419383Y-108647884D01*
X141404553Y-108669285D01*
X141383865Y-108685094D01*
X141227960Y-108862156D01*
X141211743Y-108890116D01*
X141188148Y-108912206D01*
X141054976Y-109097969D01*
X141043649Y-109122954D01*
X141025281Y-109143332D01*
X140951883Y-109266550D01*
X140948316Y-109276604D01*
X140941437Y-109284759D01*
X140906697Y-109347687D01*
X140889948Y-109400322D01*
X140862070Y-109448011D01*
X140852447Y-109518170D01*
X140830976Y-109585645D01*
X140835644Y-109640681D01*
X140828138Y-109695410D01*
X140846097Y-109763912D01*
X140852082Y-109834467D01*
X140877458Y-109883531D01*
X140891466Y-109936962D01*
X140924164Y-109980055D01*
X140889330Y-110011819D01*
X140889107Y-110011987D01*
X140867383Y-110025309D01*
X140862605Y-110031890D01*
X140813400Y-110068843D01*
X140797728Y-110095350D01*
X140774976Y-110116097D01*
X140760878Y-110146140D01*
X140757156Y-110149813D01*
X140739340Y-110192037D01*
X140734638Y-110202057D01*
X140686309Y-110283798D01*
X140681974Y-110314284D01*
X140668893Y-110342159D01*
X140665658Y-110355246D01*
X140665067Y-110368064D01*
X140660079Y-110379886D01*
X140652772Y-110415398D01*
X140652754Y-110418190D01*
X140651689Y-110420775D01*
X140640771Y-110476239D01*
X140640773Y-110477476D01*
X140640308Y-110478618D01*
X140626236Y-110551562D01*
X140626240Y-110552279D01*
X140625970Y-110552946D01*
X140609204Y-110640896D01*
X140609208Y-110641372D01*
X140609031Y-110641810D01*
X140590027Y-110742292D01*
X140590030Y-110742642D01*
X140589899Y-110742969D01*
X140569116Y-110853510D01*
X140569119Y-110853795D01*
X140569014Y-110854057D01*
X140546911Y-110972184D01*
X140546914Y-110972423D01*
X140546825Y-110972645D01*
X140523859Y-111095884D01*
X140523862Y-111096104D01*
X140523780Y-111096308D01*
X140500410Y-111222186D01*
X140500413Y-111222400D01*
X140500333Y-111222600D01*
X140477018Y-111348643D01*
X140477021Y-111348860D01*
X140476941Y-111349061D01*
X140454138Y-111472796D01*
X140454141Y-111473032D01*
X140454053Y-111473255D01*
X140432221Y-111592209D01*
X140432225Y-111592482D01*
X140432125Y-111592735D01*
X140411721Y-111704433D01*
X140411726Y-111704776D01*
X140411600Y-111705096D01*
X140393084Y-111807066D01*
X140393092Y-111807517D01*
X140392926Y-111807938D01*
X140376755Y-111897706D01*
X140376767Y-111898384D01*
X140376520Y-111899017D01*
X140363153Y-111974109D01*
X140363176Y-111975244D01*
X140362765Y-111976307D01*
X140352659Y-112034252D01*
X140352717Y-112036716D01*
X140351847Y-112039018D01*
X140345461Y-112077340D01*
X140345461Y-112077348D01*
X140338226Y-112097550D01*
X140337698Y-112101101D01*
X140335885Y-112104201D01*
X140312848Y-112170828D01*
X140312560Y-112172925D01*
X140311505Y-112174756D01*
X140284756Y-112253772D01*
X140284567Y-112255220D01*
X140283843Y-112256489D01*
X140254346Y-112344928D01*
X140254202Y-112346066D01*
X140253640Y-112347060D01*
X140222358Y-112441959D01*
X140222239Y-112442930D01*
X140221759Y-112443784D01*
X140189653Y-112542175D01*
X140189543Y-112543098D01*
X140189089Y-112543911D01*
X140157122Y-112642832D01*
X140157010Y-112643791D01*
X140156544Y-112644632D01*
X140125678Y-112741116D01*
X140125554Y-112742206D01*
X140125028Y-112743163D01*
X140096227Y-112834247D01*
X140096077Y-112835610D01*
X140095419Y-112836818D01*
X140069646Y-112919536D01*
X140069444Y-112921442D01*
X140068539Y-112923128D01*
X140046756Y-112994515D01*
X140046448Y-112997589D01*
X140045012Y-113000327D01*
X140028181Y-113057417D01*
X140027617Y-113063641D01*
X140024821Y-113069231D01*
X140013905Y-113109062D01*
X140012422Y-113129868D01*
X140004308Y-113149085D01*
X140000269Y-113168690D01*
X139999982Y-113210681D01*
X139988847Y-113250882D01*
X139991201Y-113270009D01*
X139987167Y-113288911D01*
X139987163Y-113289198D01*
X110833000Y-113289198D01*
X110943084Y-112078280D01*
X110939651Y-112045919D01*
X110946000Y-112014000D01*
X110925139Y-111909125D01*
X110913859Y-111802798D01*
X110898303Y-111774214D01*
X110891954Y-111742295D01*
X110832552Y-111653393D01*
X110781437Y-111559469D01*
X110756124Y-111539011D01*
X110738045Y-111511955D01*
X110649142Y-111452552D01*
X110565976Y-111385339D01*
X110534764Y-111376127D01*
X110507705Y-111358046D01*
X110402831Y-111337185D01*
X110300280Y-111306916D01*
X110267919Y-111310349D01*
X110236000Y-111304000D01*
X110131125Y-111324861D01*
X110024798Y-111336141D01*
X109996213Y-111351697D01*
X109964295Y-111358046D01*
X109875396Y-111417446D01*
X109781469Y-111468562D01*
X109761011Y-111493876D01*
X109733954Y-111511955D01*
X109261632Y-111984276D01*
X108914000Y-112245000D01*
X108914000Y-109753329D01*
X109166196Y-106222585D01*
X109162998Y-106197145D01*
X109168000Y-106172000D01*
X109168000Y-105410000D01*
X109113954Y-105138295D01*
X108960046Y-104907954D01*
X108960043Y-104907952D01*
X108604053Y-104551961D01*
X108406000Y-103561698D01*
X108406000Y-102108000D01*
X108353288Y-101843000D01*
X118975560Y-101843000D01*
X118975560Y-103643000D01*
X119019838Y-103878317D01*
X119158910Y-104094441D01*
X119371110Y-104239431D01*
X119623000Y-104290440D01*
X121423000Y-104290440D01*
X121658317Y-104246162D01*
X121874441Y-104107090D01*
X122019431Y-103894890D01*
X122023567Y-103874466D01*
X122192357Y-104043551D01*
X122756330Y-104277733D01*
X123366991Y-104278265D01*
X123931371Y-104045068D01*
X124363551Y-103613643D01*
X124597733Y-103049670D01*
X124598265Y-102439009D01*
X124365068Y-101874629D01*
X123933643Y-101442449D01*
X123369670Y-101208267D01*
X122759009Y-101207735D01*
X122194629Y-101440932D01*
X122026387Y-101608880D01*
X122026162Y-101607683D01*
X121887090Y-101391559D01*
X121674890Y-101246569D01*
X121423000Y-101195560D01*
X119623000Y-101195560D01*
X119387683Y-101239838D01*
X119171559Y-101378910D01*
X119026569Y-101591110D01*
X118975560Y-101843000D01*
X108353288Y-101843000D01*
X108351954Y-101836295D01*
X108198046Y-101605954D01*
X107967705Y-101452046D01*
X107696000Y-101398000D01*
X107424295Y-101452046D01*
X107193954Y-101605954D01*
X107193952Y-101605957D01*
X106804470Y-101995438D01*
X106480478Y-102103435D01*
X106120000Y-101923196D01*
X106120000Y-101362887D01*
X106373196Y-96045771D01*
X106366904Y-96003790D01*
X106372214Y-95961669D01*
X106346540Y-95867917D01*
X106332135Y-95771803D01*
X106310258Y-95735427D01*
X106299044Y-95694478D01*
X106239451Y-95617693D01*
X106189358Y-95534402D01*
X106155220Y-95509163D01*
X106129193Y-95475628D01*
X106044755Y-95427494D01*
X105966598Y-95369712D01*
X105925404Y-95359459D01*
X105888522Y-95338435D01*
X105126522Y-95084435D01*
X105071037Y-95077441D01*
X105018724Y-95057660D01*
X104088000Y-94902539D01*
X104088000Y-89974763D01*
X104332340Y-88508723D01*
X104329723Y-88424890D01*
X104340214Y-88341669D01*
X104325442Y-88287726D01*
X104323697Y-88231830D01*
X104289199Y-88155381D01*
X104267044Y-88074478D01*
X104232754Y-88030296D01*
X104209751Y-87979320D01*
X104148618Y-87921888D01*
X104097193Y-87855628D01*
X104048606Y-87827931D01*
X104007846Y-87789639D01*
X103929392Y-87759974D01*
X103856522Y-87718435D01*
X103373521Y-87557435D01*
X102572871Y-85956134D01*
X102817019Y-81317316D01*
X102814306Y-81298573D01*
X102818000Y-81280000D01*
X102794551Y-81162113D01*
X102777328Y-81043146D01*
X102767648Y-81026868D01*
X102763954Y-81008295D01*
X102697180Y-80908360D01*
X102635739Y-80805034D01*
X102620566Y-80793699D01*
X102610046Y-80777954D01*
X102510108Y-80711178D01*
X102413806Y-80639233D01*
X102395451Y-80634567D01*
X102379705Y-80624046D01*
X102261820Y-80600597D01*
X102145317Y-80570981D01*
X102126573Y-80573694D01*
X102108000Y-80570000D01*
X101854000Y-80570000D01*
X101742382Y-80592202D01*
X101629479Y-80606435D01*
X101224280Y-80741501D01*
X101048402Y-79510354D01*
X101178627Y-78729000D01*
X111228560Y-78729000D01*
X111228560Y-80529000D01*
X111272838Y-80764317D01*
X111411910Y-80980441D01*
X111624110Y-81125431D01*
X111876000Y-81176440D01*
X113540000Y-81176440D01*
X113540000Y-84050560D01*
X113400000Y-84050560D01*
X113164683Y-84094838D01*
X112948559Y-84233910D01*
X112803569Y-84446110D01*
X112752560Y-84698000D01*
X112752560Y-86498000D01*
X112796838Y-86733317D01*
X112935910Y-86949441D01*
X113148110Y-87094431D01*
X113400000Y-87145440D01*
X113540000Y-87145440D01*
X113540000Y-89579700D01*
X113597852Y-89870539D01*
X113762599Y-90117101D01*
X114175435Y-90529937D01*
X114091559Y-90583910D01*
X113946569Y-90796110D01*
X113895560Y-91048000D01*
X113895560Y-92848000D01*
X113939838Y-93083317D01*
X114078910Y-93299441D01*
X114291110Y-93444431D01*
X114543000Y-93495440D01*
X116343000Y-93495440D01*
X116578317Y-93451162D01*
X116794441Y-93312090D01*
X116939431Y-93099890D01*
X116943567Y-93079466D01*
X117112357Y-93248551D01*
X117223000Y-93294494D01*
X117223000Y-96242560D01*
X117083000Y-96242560D01*
X116847683Y-96286838D01*
X116631559Y-96425910D01*
X116486569Y-96638110D01*
X116435560Y-96890000D01*
X116435560Y-98690000D01*
X116479838Y-98925317D01*
X116618910Y-99141441D01*
X116831110Y-99286431D01*
X117083000Y-99337440D01*
X118883000Y-99337440D01*
X119118317Y-99293162D01*
X119334441Y-99154090D01*
X119479431Y-98941890D01*
X119483567Y-98921466D01*
X119652357Y-99090551D01*
X120216330Y-99324733D01*
X120826991Y-99325265D01*
X121391371Y-99092068D01*
X121823551Y-98660643D01*
X122057733Y-98096670D01*
X122058265Y-97486009D01*
X121825068Y-96921629D01*
X121393643Y-96489449D01*
X120829670Y-96255267D01*
X120219009Y-96254735D01*
X119654629Y-96487932D01*
X119486387Y-96655880D01*
X119486162Y-96654683D01*
X119347090Y-96438559D01*
X119134890Y-96293569D01*
X118883000Y-96242560D01*
X118743000Y-96242560D01*
X118743000Y-93294846D01*
X118851371Y-93250068D01*
X119283551Y-92818643D01*
X119517733Y-92254670D01*
X119518265Y-91644009D01*
X119285068Y-91079629D01*
X118853643Y-90647449D01*
X118743000Y-90601506D01*
X118743000Y-86741000D01*
X118685148Y-86450161D01*
X118520401Y-86203599D01*
X118329766Y-86012964D01*
X118374733Y-85904670D01*
X118375265Y-85294009D01*
X118142068Y-84729629D01*
X117710643Y-84297449D01*
X117146670Y-84063267D01*
X116536009Y-84062735D01*
X115971629Y-84295932D01*
X115803387Y-84463880D01*
X115803162Y-84462683D01*
X115664090Y-84246559D01*
X115451890Y-84101569D01*
X115200000Y-84050560D01*
X115060000Y-84050560D01*
X115060000Y-81163777D01*
X115619991Y-81164265D01*
X116184371Y-80931068D01*
X116616551Y-80499643D01*
X116850733Y-79935670D01*
X116851265Y-79325009D01*
X116618068Y-78760629D01*
X116186643Y-78328449D01*
X115622670Y-78094267D01*
X115012009Y-78093735D01*
X114447629Y-78326932D01*
X114279387Y-78494880D01*
X114279162Y-78493683D01*
X114140090Y-78277559D01*
X113927890Y-78132569D01*
X113676000Y-78081560D01*
X111876000Y-78081560D01*
X111640683Y-78125838D01*
X111424559Y-78264910D01*
X111279569Y-78477110D01*
X111228560Y-78729000D01*
X101178627Y-78729000D01*
X101265399Y-78208371D01*
X103497490Y-73992200D01*
X103499896Y-73984154D01*
X103505043Y-73977522D01*
X104505956Y-71975695D01*
X107028079Y-67940300D01*
X107030407Y-67934156D01*
X107034820Y-67929292D01*
X107690447Y-66836581D01*
X109537522Y-65913043D01*
X109617222Y-65851188D01*
X109703120Y-65798283D01*
X110685578Y-64886000D01*
X124690560Y-64886000D01*
X124690560Y-66686000D01*
X124734838Y-66921317D01*
X124873910Y-67137441D01*
X125086110Y-67282431D01*
X125338000Y-67333440D01*
X125556767Y-67333440D01*
X125700599Y-67548701D01*
X128907000Y-70755102D01*
X128907000Y-71551154D01*
X128798629Y-71595932D01*
X128630387Y-71763880D01*
X128630162Y-71762683D01*
X128491090Y-71546559D01*
X128278890Y-71401569D01*
X128027000Y-71350560D01*
X126227000Y-71350560D01*
X125991683Y-71394838D01*
X125775559Y-71533910D01*
X125630569Y-71746110D01*
X125579560Y-71998000D01*
X125579560Y-73798000D01*
X125623838Y-74033317D01*
X125762910Y-74249441D01*
X125975110Y-74394431D01*
X126227000Y-74445440D01*
X126445767Y-74445440D01*
X126494000Y-74517627D01*
X126494000Y-77954560D01*
X126354000Y-77954560D01*
X126118683Y-77998838D01*
X125902559Y-78137910D01*
X125757569Y-78350110D01*
X125706560Y-78602000D01*
X125706560Y-80402000D01*
X125750838Y-80637317D01*
X125889910Y-80853441D01*
X126102110Y-80998431D01*
X126354000Y-81049440D01*
X128154000Y-81049440D01*
X128389317Y-81005162D01*
X128605441Y-80866090D01*
X128750431Y-80653890D01*
X128754567Y-80633466D01*
X128923357Y-80802551D01*
X129034000Y-80848494D01*
X129034000Y-82660898D01*
X128113599Y-83581299D01*
X127969767Y-83796560D01*
X127751000Y-83796560D01*
X127515683Y-83840838D01*
X127299559Y-83979910D01*
X127154569Y-84192110D01*
X127103560Y-84444000D01*
X127103560Y-86244000D01*
X127147838Y-86479317D01*
X127286910Y-86695441D01*
X127499110Y-86840431D01*
X127751000Y-86891440D01*
X127891000Y-86891440D01*
X127891000Y-91357700D01*
X127948852Y-91648539D01*
X128040518Y-91785727D01*
X127934559Y-91853910D01*
X127789569Y-92066110D01*
X127738560Y-92318000D01*
X127738560Y-94118000D01*
X127782838Y-94353317D01*
X127921910Y-94569441D01*
X128134110Y-94714431D01*
X128386000Y-94765440D01*
X130186000Y-94765440D01*
X130421317Y-94721162D01*
X130637441Y-94582090D01*
X130782431Y-94369890D01*
X130786567Y-94349466D01*
X130955357Y-94518551D01*
X131519330Y-94752733D01*
X132129991Y-94753265D01*
X132694371Y-94520068D01*
X133126551Y-94088643D01*
X133277964Y-93724000D01*
X139168560Y-93724000D01*
X139168560Y-93864000D01*
X139212838Y-94099317D01*
X139351910Y-94315441D01*
X139564110Y-94460431D01*
X139816000Y-94511440D01*
X141616000Y-94511440D01*
X141851317Y-94467162D01*
X142067441Y-94328090D01*
X142212431Y-94115890D01*
X142216567Y-94095466D01*
X142385357Y-94264551D01*
X142949330Y-94498733D01*
X143559991Y-94499265D01*
X144124371Y-94266068D01*
X144556551Y-93834643D01*
X144673790Y-93552300D01*
X150802403Y-93552300D01*
X150776569Y-93590110D01*
X150725560Y-93842000D01*
X150725560Y-95642000D01*
X150769838Y-95877317D01*
X150908910Y-96093441D01*
X151121110Y-96238431D01*
X151373000Y-96289440D01*
X153173000Y-96289440D01*
X153408317Y-96245162D01*
X153624441Y-96106090D01*
X153769431Y-95893890D01*
X153773567Y-95873466D01*
X153942357Y-96042551D01*
X154506330Y-96276733D01*
X155116991Y-96277265D01*
X155681371Y-96044068D01*
X156113551Y-95612643D01*
X156347733Y-95048670D01*
X156348265Y-94438009D01*
X156115068Y-93873629D01*
X155683643Y-93441449D01*
X155119670Y-93207267D01*
X154509009Y-93206735D01*
X153944629Y-93439932D01*
X153776387Y-93607880D01*
X153776162Y-93606683D01*
X153637090Y-93390559D01*
X153424890Y-93245569D01*
X153173000Y-93194560D01*
X153033000Y-93194560D01*
X153033000Y-93107102D01*
X155858401Y-90281701D01*
X156002233Y-90066440D01*
X156221000Y-90066440D01*
X156456317Y-90022162D01*
X156672441Y-89883090D01*
X156817431Y-89670890D01*
X156821567Y-89650466D01*
X156990357Y-89819551D01*
X157554330Y-90053733D01*
X158164991Y-90054265D01*
X158729371Y-89821068D01*
X159161551Y-89389643D01*
X159395733Y-88825670D01*
X159396265Y-88215009D01*
X159163068Y-87650629D01*
X158731643Y-87218449D01*
X158621000Y-87172506D01*
X158621000Y-83455102D01*
X158779401Y-83296701D01*
X158923234Y-83081440D01*
X159142000Y-83081440D01*
X159377317Y-83037162D01*
X159593441Y-82898090D01*
X159738431Y-82685890D01*
X159742567Y-82665466D01*
X159911357Y-82834551D01*
X160475330Y-83068733D01*
X161085991Y-83069265D01*
X161650371Y-82836068D01*
X162082551Y-82404643D01*
X162316733Y-81840670D01*
X162317265Y-81230009D01*
X162271515Y-81119287D01*
X163986401Y-79404401D01*
X164151148Y-79157839D01*
X164209000Y-78867000D01*
X164209000Y-75641846D01*
X164317371Y-75597068D01*
X164749551Y-75165643D01*
X164983733Y-74601670D01*
X164984265Y-73991009D01*
X164751068Y-73426629D01*
X164319643Y-72994449D01*
X164209000Y-72948506D01*
X164209000Y-68027300D01*
X164151148Y-67736461D01*
X164059482Y-67599273D01*
X164165441Y-67531090D01*
X164310431Y-67318890D01*
X164314567Y-67298466D01*
X164483357Y-67467551D01*
X165047330Y-67701733D01*
X165657991Y-67702265D01*
X166222371Y-67469068D01*
X166654551Y-67037643D01*
X166888733Y-66473670D01*
X166889265Y-65863009D01*
X166656068Y-65298629D01*
X166224643Y-64866449D01*
X165660670Y-64632267D01*
X165050009Y-64631735D01*
X164485629Y-64864932D01*
X164317387Y-65032880D01*
X164317162Y-65031683D01*
X164178090Y-64815559D01*
X163965890Y-64670569D01*
X163714000Y-64619560D01*
X161914000Y-64619560D01*
X161678683Y-64663838D01*
X161462559Y-64802910D01*
X161317569Y-65015110D01*
X161266560Y-65267000D01*
X161266560Y-67067000D01*
X161310838Y-67302317D01*
X161449910Y-67518441D01*
X161662110Y-67663431D01*
X161914000Y-67714440D01*
X162132767Y-67714440D01*
X162276599Y-67929701D01*
X162689000Y-68342102D01*
X162689000Y-72948154D01*
X162580629Y-72992932D01*
X162412387Y-73160880D01*
X162412162Y-73159683D01*
X162273090Y-72943559D01*
X162060890Y-72798569D01*
X161809000Y-72747560D01*
X160009000Y-72747560D01*
X159773683Y-72791838D01*
X159557559Y-72930910D01*
X159412569Y-73143110D01*
X159361560Y-73395000D01*
X159361560Y-75195000D01*
X159405838Y-75430317D01*
X159544910Y-75646441D01*
X159641833Y-75712665D01*
X157704599Y-77649899D01*
X157539852Y-77896461D01*
X157482000Y-78187300D01*
X157482000Y-79986560D01*
X157342000Y-79986560D01*
X157106683Y-80030838D01*
X156890559Y-80169910D01*
X156745569Y-80382110D01*
X156694560Y-80634000D01*
X156694560Y-82434000D01*
X156738838Y-82669317D01*
X156877910Y-82885441D01*
X157090110Y-83030431D01*
X157121587Y-83036805D01*
X157101000Y-83140300D01*
X157101000Y-87172154D01*
X156992629Y-87216932D01*
X156824387Y-87384880D01*
X156824162Y-87383683D01*
X156685090Y-87167559D01*
X156472890Y-87022569D01*
X156221000Y-86971560D01*
X154421000Y-86971560D01*
X154185683Y-87015838D01*
X153969559Y-87154910D01*
X153824569Y-87367110D01*
X153773560Y-87619000D01*
X153773560Y-89419000D01*
X153817838Y-89654317D01*
X153956910Y-89870441D01*
X154053833Y-89936665D01*
X151958198Y-92032300D01*
X144651000Y-92032300D01*
X144651000Y-85166846D01*
X144759371Y-85122068D01*
X145191551Y-84690643D01*
X145425733Y-84126670D01*
X145426265Y-83516009D01*
X145193068Y-82951629D01*
X144761643Y-82519449D01*
X144651000Y-82473506D01*
X144651000Y-78314300D01*
X144607232Y-78094267D01*
X144593148Y-78023460D01*
X144428401Y-77776899D01*
X143761565Y-77110063D01*
X143845441Y-77056090D01*
X143990431Y-76843890D01*
X143994567Y-76823466D01*
X144163357Y-76992551D01*
X144727330Y-77226733D01*
X145337991Y-77227265D01*
X145902371Y-76994068D01*
X146334551Y-76562643D01*
X146568733Y-75998670D01*
X146569265Y-75388009D01*
X146336068Y-74823629D01*
X145904643Y-74391449D01*
X145794000Y-74345506D01*
X145794000Y-69099109D01*
X145972991Y-69099265D01*
X146537371Y-68866068D01*
X146969551Y-68434643D01*
X147203733Y-67870670D01*
X147204265Y-67260009D01*
X146971068Y-66695629D01*
X146539643Y-66263449D01*
X146111500Y-66085669D01*
X146111500Y-62248800D01*
X146053648Y-61957961D01*
X145888901Y-61711399D01*
X144396565Y-60219063D01*
X144480441Y-60165090D01*
X144625431Y-59952890D01*
X144629567Y-59932466D01*
X144798357Y-60101551D01*
X145362330Y-60335733D01*
X145972991Y-60336265D01*
X146537371Y-60103068D01*
X146969551Y-59671643D01*
X147203733Y-59107670D01*
X147204265Y-58497009D01*
X146971068Y-57932629D01*
X146539643Y-57500449D01*
X145975670Y-57266267D01*
X145365009Y-57265735D01*
X144800629Y-57498932D01*
X144632387Y-57666880D01*
X144632162Y-57665683D01*
X144493090Y-57449559D01*
X144280890Y-57304569D01*
X144029000Y-57253560D01*
X142229000Y-57253560D01*
X141993683Y-57297838D01*
X141777559Y-57436910D01*
X141632569Y-57649110D01*
X141581560Y-57901000D01*
X141581560Y-59701000D01*
X141625838Y-59936317D01*
X141764910Y-60152441D01*
X141977110Y-60297431D01*
X142229000Y-60348440D01*
X142447767Y-60348440D01*
X142591599Y-60563701D01*
X144591500Y-62563602D01*
X144591500Y-66365492D01*
X144493090Y-66212559D01*
X144280890Y-66067569D01*
X144029000Y-66016560D01*
X142229000Y-66016560D01*
X141993683Y-66060838D01*
X141777559Y-66199910D01*
X141632569Y-66412110D01*
X141581560Y-66664000D01*
X141581560Y-68464000D01*
X141625838Y-68699317D01*
X141764910Y-68915441D01*
X141977110Y-69060431D01*
X142229000Y-69111440D01*
X144029000Y-69111440D01*
X144264317Y-69067162D01*
X144274000Y-69060931D01*
X144274000Y-74345154D01*
X144165629Y-74389932D01*
X143997387Y-74557880D01*
X143997162Y-74556683D01*
X143858090Y-74340559D01*
X143645890Y-74195569D01*
X143394000Y-74144560D01*
X141594000Y-74144560D01*
X141358683Y-74188838D01*
X141142559Y-74327910D01*
X140997569Y-74540110D01*
X140946560Y-74792000D01*
X140946560Y-75544600D01*
X130554000Y-75544600D01*
X130554000Y-74181472D01*
X130967551Y-73768643D01*
X131201733Y-73204670D01*
X131202265Y-72594009D01*
X130969068Y-72029629D01*
X130537643Y-71597449D01*
X130427000Y-71551506D01*
X130427000Y-70440300D01*
X130369148Y-70149461D01*
X130369148Y-70149460D01*
X130204401Y-69902899D01*
X127505565Y-67204063D01*
X127589441Y-67150090D01*
X127734431Y-66937890D01*
X127738567Y-66917466D01*
X127907357Y-67086551D01*
X128471330Y-67320733D01*
X129081991Y-67321265D01*
X129646371Y-67088068D01*
X130078551Y-66656643D01*
X130312733Y-66092670D01*
X130313265Y-65482009D01*
X130080068Y-64917629D01*
X129648643Y-64485449D01*
X129084670Y-64251267D01*
X128474009Y-64250735D01*
X127909629Y-64483932D01*
X127741387Y-64651880D01*
X127741162Y-64650683D01*
X127602090Y-64434559D01*
X127389890Y-64289569D01*
X127138000Y-64238560D01*
X125338000Y-64238560D01*
X125102683Y-64282838D01*
X124886559Y-64421910D01*
X124741569Y-64634110D01*
X124690560Y-64886000D01*
X110685578Y-64886000D01*
X113239960Y-62514075D01*
X114295055Y-61670000D01*
X114707000Y-61670000D01*
X115256000Y-62402000D01*
X115293770Y-62435865D01*
X115321954Y-62478046D01*
X115395980Y-62527508D01*
X115462260Y-62586936D01*
X115510113Y-62603769D01*
X115552295Y-62631954D01*
X115639610Y-62649322D01*
X115723591Y-62678864D01*
X115774245Y-62676103D01*
X115824000Y-62686000D01*
X115911318Y-62668631D01*
X116000208Y-62663786D01*
X116045949Y-62641851D01*
X116095705Y-62631954D01*
X116169727Y-62582494D01*
X116250000Y-62544000D01*
X116283865Y-62506230D01*
X116326046Y-62478046D01*
X116580046Y-62224046D01*
X119100761Y-59703330D01*
X120848930Y-58204899D01*
X122027378Y-57262142D01*
X122903655Y-56911631D01*
X122914798Y-56917203D01*
X123062957Y-57213521D01*
X123132726Y-57303418D01*
X123195954Y-57398046D01*
X123217167Y-57412220D01*
X123232807Y-57432372D01*
X123331673Y-57488730D01*
X123426295Y-57551954D01*
X123451314Y-57556931D01*
X123473478Y-57569565D01*
X123586383Y-57583798D01*
X123698000Y-57606000D01*
X123723023Y-57601023D01*
X123748331Y-57604213D01*
X123858087Y-57574156D01*
X123969705Y-57551954D01*
X123990916Y-57537781D01*
X124015522Y-57531043D01*
X124105422Y-57461271D01*
X124200046Y-57398046D01*
X125957167Y-55640925D01*
X129038078Y-53034000D01*
X129170783Y-53034000D01*
X129613072Y-53181429D01*
X130242000Y-54020000D01*
X130279770Y-54053865D01*
X130307954Y-54096046D01*
X130381980Y-54145508D01*
X130448260Y-54204936D01*
X130496113Y-54221769D01*
X130538295Y-54249954D01*
X130625610Y-54267322D01*
X130709591Y-54296864D01*
X130760245Y-54294103D01*
X130810000Y-54304000D01*
X131318000Y-54304000D01*
X131369776Y-54293701D01*
X131422500Y-54296267D01*
X131504389Y-54266925D01*
X131589705Y-54249954D01*
X131633596Y-54220627D01*
X131683292Y-54202820D01*
X132911972Y-53465612D01*
X134577734Y-52751714D01*
X135536366Y-52559987D01*
X136334479Y-52959044D01*
X136426259Y-52984178D01*
X136514214Y-53020502D01*
X136558734Y-53020455D01*
X136601669Y-53032213D01*
X136696082Y-53020312D01*
X136791242Y-53020212D01*
X138061242Y-52766212D01*
X138148445Y-52729984D01*
X138239522Y-52705043D01*
X139654744Y-51997432D01*
X141566064Y-51758517D01*
X141618247Y-51741183D01*
X141673052Y-51736682D01*
X143451052Y-51228682D01*
X143548530Y-51178595D01*
X143649837Y-51136756D01*
X144232971Y-50748000D01*
X151333543Y-50748000D01*
X152947532Y-50978570D01*
X152947532Y-50978570D01*
G37*
X152947532Y-50978570D02*
X154368479Y-51689043D01*
X154460254Y-51714176D01*
X154548214Y-51750502D01*
X154592735Y-51750455D01*
X154635669Y-51762213D01*
X154730079Y-51750312D01*
X154825242Y-51750212D01*
X156026302Y-51510000D01*
X156931908Y-51510000D01*
X157739954Y-52318046D01*
X157761167Y-52332220D01*
X157776807Y-52352372D01*
X157875673Y-52408730D01*
X157970295Y-52471954D01*
X157995314Y-52476931D01*
X158017478Y-52489565D01*
X158779479Y-52743565D01*
X158892382Y-52757798D01*
X159004000Y-52780000D01*
X161231237Y-52780000D01*
X162238102Y-52947811D01*
X162379199Y-53512200D01*
X162412417Y-53582517D01*
X162432957Y-53657522D01*
X162471015Y-53706559D01*
X162497529Y-53762685D01*
X162555127Y-53814937D01*
X162602807Y-53876372D01*
X162656733Y-53907112D01*
X162702708Y-53948820D01*
X162775917Y-53975052D01*
X162843478Y-54013565D01*
X162905065Y-54021329D01*
X162963500Y-54042267D01*
X163041176Y-54038487D01*
X163118331Y-54048213D01*
X163178198Y-54031818D01*
X163240200Y-54028801D01*
X163310517Y-53995583D01*
X163385522Y-53975043D01*
X163630478Y-53852565D01*
X163882372Y-53936530D01*
X164255244Y-54495837D01*
X164269360Y-54509982D01*
X164278000Y-54528000D01*
X164366737Y-54607563D01*
X164450928Y-54691930D01*
X164469383Y-54699597D01*
X164484260Y-54712936D01*
X164596677Y-54752481D01*
X164706757Y-54798213D01*
X164726743Y-54798234D01*
X164745591Y-54804864D01*
X164864588Y-54798378D01*
X164983786Y-54798502D01*
X165002258Y-54790873D01*
X165022208Y-54789786D01*
X165129665Y-54738256D01*
X165239837Y-54692756D01*
X165253982Y-54678640D01*
X165272000Y-54670000D01*
X166098667Y-54050000D01*
X167599908Y-54050000D01*
X167781437Y-54231528D01*
X167982435Y-54834522D01*
X168029198Y-54916556D01*
X168065244Y-55003837D01*
X168097215Y-55035875D01*
X168119628Y-55075193D01*
X168194228Y-55133091D01*
X168260928Y-55199930D01*
X168302721Y-55217293D01*
X168338478Y-55245044D01*
X168429555Y-55269985D01*
X168516757Y-55306213D01*
X168562018Y-55306260D01*
X168605669Y-55318214D01*
X168699358Y-55306403D01*
X168793786Y-55306502D01*
X168835615Y-55289227D01*
X168880522Y-55283566D01*
X168962560Y-55236800D01*
X169049837Y-55200756D01*
X169811837Y-54692756D01*
X169825982Y-54678640D01*
X169844000Y-54670000D01*
X170767826Y-53977130D01*
X171958000Y-53580406D01*
X172336470Y-53706562D01*
X172772000Y-54142092D01*
X172772000Y-54805236D01*
X172527660Y-56271277D01*
X172529499Y-56330191D01*
X172518000Y-56388000D01*
X172533780Y-56467329D01*
X172536303Y-56548170D01*
X172560547Y-56601895D01*
X172572046Y-56659705D01*
X172616980Y-56726955D01*
X172650249Y-56800679D01*
X172693207Y-56841036D01*
X172725954Y-56890046D01*
X172793208Y-56934983D01*
X172852154Y-56990361D01*
X172907286Y-57011207D01*
X172956295Y-57043954D01*
X173035621Y-57059733D01*
X173111277Y-57088340D01*
X173170191Y-57086501D01*
X173228000Y-57098000D01*
X175172596Y-57098000D01*
X175984489Y-57300973D01*
X176388228Y-57570133D01*
X176582000Y-58732764D01*
X176582000Y-60381698D01*
X176373372Y-61424837D01*
X175708000Y-62312000D01*
X175658794Y-62414610D01*
X175602435Y-62513478D01*
X175599244Y-62538791D01*
X175588214Y-62561792D01*
X175582020Y-62675424D01*
X175567787Y-62788331D01*
X175574525Y-62812935D01*
X175573136Y-62838409D01*
X175610896Y-62945754D01*
X175640956Y-63055522D01*
X175656600Y-63075679D01*
X175665064Y-63099740D01*
X175741028Y-63184463D01*
X175810807Y-63274372D01*
X175832969Y-63287005D01*
X175850000Y-63306000D01*
X175952610Y-63355206D01*
X176051478Y-63411565D01*
X176765608Y-63649608D01*
X177413098Y-63973354D01*
X177575000Y-64944766D01*
X176648471Y-67261091D01*
X175144694Y-70018015D01*
X175131994Y-70058639D01*
X175108782Y-70094312D01*
X174600782Y-71364313D01*
X174576197Y-71496298D01*
X174550000Y-71628000D01*
X174550000Y-72136000D01*
X174572202Y-72247617D01*
X174586435Y-72360522D01*
X174599069Y-72382686D01*
X174604046Y-72407705D01*
X174667270Y-72502327D01*
X174723628Y-72601193D01*
X174743780Y-72616833D01*
X174757954Y-72638046D01*
X174852578Y-72701271D01*
X174942478Y-72771043D01*
X175746798Y-73173203D01*
X175789116Y-73257840D01*
X175336237Y-75748673D01*
X173330782Y-80762313D01*
X173306197Y-80894298D01*
X173280000Y-81026000D01*
X173280000Y-81534000D01*
X173302202Y-81645617D01*
X173316435Y-81758522D01*
X173329069Y-81780686D01*
X173334046Y-81805705D01*
X173397270Y-81900327D01*
X173453628Y-81999193D01*
X173473780Y-82014833D01*
X173487954Y-82036046D01*
X173582578Y-82099271D01*
X173672478Y-82169043D01*
X173968798Y-82317203D01*
X173999498Y-82378603D01*
X173579738Y-84057643D01*
X171852717Y-87018252D01*
X171838354Y-87059950D01*
X171813407Y-87096318D01*
X171051407Y-88874317D01*
X171050494Y-88878631D01*
X171048046Y-88882295D01*
X171021855Y-89013965D01*
X170994053Y-89145343D01*
X170994860Y-89149676D01*
X170994000Y-89154000D01*
X171020189Y-89285661D01*
X171044781Y-89417687D01*
X171047186Y-89421384D01*
X171048046Y-89425705D01*
X171122646Y-89537353D01*
X171195871Y-89649887D01*
X171199504Y-89652379D01*
X171201954Y-89656046D01*
X171313601Y-89730646D01*
X171424317Y-89806593D01*
X171427338Y-89807232D01*
X171502000Y-90031217D01*
X171502000Y-90786268D01*
X170797407Y-92430317D01*
X170776823Y-92527588D01*
X170745483Y-92621936D01*
X170491483Y-94653935D01*
X170494685Y-94698336D01*
X170486000Y-94742000D01*
X170486000Y-95758000D01*
X170540046Y-96029705D01*
X170693954Y-96260046D01*
X170924295Y-96413954D01*
X171196000Y-96468000D01*
X171958000Y-96468000D01*
X172056024Y-96448502D01*
X172155605Y-96439947D01*
X172190810Y-96421691D01*
X172229705Y-96413954D01*
X172312807Y-96358427D01*
X172401533Y-96312417D01*
X173671534Y-95296417D01*
X173679408Y-95287063D01*
X173690062Y-95281072D01*
X175464317Y-93760282D01*
X176404944Y-92976426D01*
X176591660Y-94096724D01*
X176611441Y-94149037D01*
X176618435Y-94204522D01*
X176659973Y-94277390D01*
X176689639Y-94355847D01*
X176727932Y-94396608D01*
X176755628Y-94445193D01*
X176821890Y-94496619D01*
X176879321Y-94557751D01*
X176930295Y-94580753D01*
X176974478Y-94615044D01*
X177055381Y-94637199D01*
X177131830Y-94671697D01*
X177187729Y-94673442D01*
X177241669Y-94688213D01*
X177324883Y-94677723D01*
X177408723Y-94680340D01*
X177461036Y-94660560D01*
X177516522Y-94653565D01*
X178278522Y-94399565D01*
X178377390Y-94343206D01*
X178480000Y-94294000D01*
X180512000Y-92770000D01*
X180575037Y-92699695D01*
X180646440Y-92637898D01*
X182397301Y-90386791D01*
X182967158Y-89816934D01*
X183749470Y-89686549D01*
X183988102Y-90163812D01*
X184477199Y-92120201D01*
X184529285Y-92230458D01*
X184576070Y-92343072D01*
X184588205Y-92355182D01*
X184595529Y-92370685D01*
X184685851Y-92452624D01*
X184772163Y-92538756D01*
X185534163Y-93046756D01*
X185568843Y-93061078D01*
X185598023Y-93084661D01*
X185695891Y-93113548D01*
X185790214Y-93152502D01*
X185827736Y-93152463D01*
X185863720Y-93163084D01*
X185965189Y-93152319D01*
X186067242Y-93152213D01*
X186101894Y-93137817D01*
X186139202Y-93133859D01*
X186228832Y-93085081D01*
X186323072Y-93045930D01*
X186349574Y-93019372D01*
X186382531Y-93001437D01*
X187906531Y-91731437D01*
X187911007Y-91725898D01*
X187917193Y-91722372D01*
X187997908Y-91618372D01*
X188080661Y-91515977D01*
X188082677Y-91509148D01*
X188087043Y-91503522D01*
X188595044Y-90487521D01*
X188608443Y-90438592D01*
X188633565Y-90394522D01*
X188794565Y-89911521D01*
X188889607Y-89864000D01*
X189062392Y-89864000D01*
X189134389Y-89899998D01*
X190062191Y-93379259D01*
X190565788Y-95897243D01*
X190575287Y-95920109D01*
X190577017Y-95944813D01*
X190628132Y-96047309D01*
X190672070Y-96153072D01*
X190689599Y-96170565D01*
X190700650Y-96192724D01*
X190787092Y-96267854D01*
X190868163Y-96348756D01*
X190891050Y-96358208D01*
X190909741Y-96374453D01*
X191018358Y-96410784D01*
X191124215Y-96454502D01*
X191148979Y-96454476D01*
X191172462Y-96462331D01*
X191286715Y-96454332D01*
X191401242Y-96454212D01*
X191424108Y-96444713D01*
X191448813Y-96442983D01*
X191551311Y-96391867D01*
X191657072Y-96347930D01*
X191674565Y-96330401D01*
X191696724Y-96319350D01*
X191771854Y-96232908D01*
X191852756Y-96151837D01*
X191862208Y-96128950D01*
X191878453Y-96110259D01*
X192866992Y-94380315D01*
X193751001Y-93275304D01*
X193969607Y-93166000D01*
X193981940Y-93166000D01*
X194100953Y-93761066D01*
X193857524Y-96195352D01*
X193863400Y-96255939D01*
X193855787Y-96316331D01*
X193876643Y-96392491D01*
X193884266Y-96471087D01*
X193912879Y-96524812D01*
X193928957Y-96583522D01*
X193977370Y-96645902D01*
X194014490Y-96715599D01*
X194061487Y-96754286D01*
X194098807Y-96802372D01*
X194167409Y-96841478D01*
X194228374Y-96891663D01*
X194286594Y-96909419D01*
X194339478Y-96939565D01*
X194417823Y-96949441D01*
X194493352Y-96972476D01*
X194553939Y-96966600D01*
X194614331Y-96974213D01*
X194690491Y-96953357D01*
X194769087Y-96945734D01*
X194822812Y-96917121D01*
X194881522Y-96901043D01*
X195827812Y-96427898D01*
X196551065Y-96247085D01*
X195725547Y-97691741D01*
X195698411Y-97772866D01*
X195659318Y-97848948D01*
X195151318Y-99626948D01*
X195143243Y-99725258D01*
X195124000Y-99822000D01*
X195131996Y-99862198D01*
X195128641Y-99903046D01*
X195158803Y-99996964D01*
X195178046Y-100093705D01*
X195200815Y-100127781D01*
X195213348Y-100166807D01*
X195277153Y-100242031D01*
X195331954Y-100324046D01*
X195585954Y-100578046D01*
X195816295Y-100731954D01*
X196088000Y-100786000D01*
X196480783Y-100786000D01*
X196974470Y-100950562D01*
X197156000Y-101132091D01*
X197156000Y-101738783D01*
X196963081Y-102317539D01*
X196241180Y-103520708D01*
X196223373Y-103570404D01*
X196194046Y-103614295D01*
X196177075Y-103699611D01*
X196147733Y-103781500D01*
X196150299Y-103834224D01*
X196140000Y-103886000D01*
X196156971Y-103971317D01*
X196161199Y-104058200D01*
X196183747Y-104105931D01*
X196194046Y-104157705D01*
X196242373Y-104230032D01*
X196279529Y-104308685D01*
X196318626Y-104344153D01*
X196347954Y-104388046D01*
X196601954Y-104642046D01*
X196832295Y-104795954D01*
X197104000Y-104850000D01*
X198206392Y-104850000D01*
X198395833Y-104944720D01*
X198680000Y-105370971D01*
X198680000Y-105703029D01*
X198358705Y-106184971D01*
X197440000Y-106874000D01*
X196424000Y-107636000D01*
X196406969Y-107654995D01*
X196384807Y-107667628D01*
X196315031Y-107757533D01*
X196239064Y-107842260D01*
X196230599Y-107866323D01*
X196214957Y-107886478D01*
X196184899Y-107996239D01*
X196147136Y-108103591D01*
X196148525Y-108129066D01*
X196141787Y-108153669D01*
X196156020Y-108266576D01*
X196162214Y-108380208D01*
X196173244Y-108403209D01*
X196176435Y-108428522D01*
X196232794Y-108527390D01*
X196282000Y-108630000D01*
X196300995Y-108647031D01*
X196313628Y-108669193D01*
X196403533Y-108738969D01*
X196488260Y-108814936D01*
X196512323Y-108823401D01*
X196532478Y-108839043D01*
X197040478Y-109093043D01*
X197793435Y-109469522D01*
X197898669Y-109785223D01*
X197694538Y-111010007D01*
X196814448Y-112550164D01*
X195916000Y-113224000D01*
X195898969Y-113242995D01*
X195876807Y-113255628D01*
X195807028Y-113345537D01*
X195731064Y-113430260D01*
X195722600Y-113454321D01*
X195706956Y-113474478D01*
X195676896Y-113584246D01*
X195639136Y-113691591D01*
X195640525Y-113717065D01*
X195633787Y-113741669D01*
X195648020Y-113854576D01*
X195654214Y-113968208D01*
X195665244Y-113991209D01*
X195668435Y-114016522D01*
X195922435Y-114778522D01*
X195960948Y-114846083D01*
X195987180Y-114919292D01*
X196028888Y-114965267D01*
X196059628Y-115019193D01*
X196121064Y-115066874D01*
X196173315Y-115124471D01*
X196229438Y-115150984D01*
X196278478Y-115189044D01*
X196353488Y-115209585D01*
X196423800Y-115242801D01*
X197439800Y-115496801D01*
X197526683Y-115501029D01*
X197612000Y-115518000D01*
X198968392Y-115518000D01*
X199122736Y-115595172D01*
X199095908Y-115622000D01*
X197358000Y-115622000D01*
X197246382Y-115644202D01*
X197133479Y-115658435D01*
X196371478Y-115912435D01*
X196327406Y-115937558D01*
X196278478Y-115950957D01*
X196208148Y-116005540D01*
X196130807Y-116049628D01*
X196099703Y-116089704D01*
X196059628Y-116120807D01*
X196015542Y-116198145D01*
X195960956Y-116268478D01*
X195947557Y-116317408D01*
X195922435Y-116361478D01*
X195453463Y-117768394D01*
X192742028Y-121219311D01*
X191563380Y-122633689D01*
X189393194Y-123839348D01*
X189324830Y-123897335D01*
X189249037Y-123945204D01*
X189220136Y-123986136D01*
X189181928Y-124018545D01*
X189140960Y-124098276D01*
X189089253Y-124171509D01*
X189078217Y-124220383D01*
X189055318Y-124264948D01*
X189047980Y-124354290D01*
X189028235Y-124441733D01*
X189036742Y-124491110D01*
X189032641Y-124541047D01*
X189060053Y-124626401D01*
X189075273Y-124714739D01*
X189102027Y-124757099D01*
X189117348Y-124804806D01*
X189175335Y-124873170D01*
X189223204Y-124948963D01*
X194485204Y-130488964D01*
X194549713Y-130534511D01*
X194605546Y-130590343D01*
X194661781Y-130613637D01*
X194711509Y-130648747D01*
X194788534Y-130666140D01*
X194861486Y-130696358D01*
X196636390Y-131049408D01*
X198023654Y-131976349D01*
X198950592Y-133363610D01*
X199290000Y-135069931D01*
X199290000Y-139930069D01*
X198569989Y-143549807D01*
X196559187Y-146559186D01*
X193549805Y-148569990D01*
X189930069Y-149290000D01*
X110069931Y-149290000D01*
X106450193Y-148569989D01*
X103440814Y-146559187D01*
X101430010Y-143549805D01*
X100710000Y-139930069D01*
X100710000Y-139150000D01*
X100962560Y-139150000D01*
X100962560Y-140850000D01*
X101006838Y-141085317D01*
X101145910Y-141301441D01*
X101358110Y-141446431D01*
X101610000Y-141497440D01*
X102882638Y-141497440D01*
X109722799Y-148337601D01*
X109969361Y-148502348D01*
X110260200Y-148560200D01*
X178302600Y-148560200D01*
X178593439Y-148502348D01*
X178840001Y-148337601D01*
X182454914Y-144722688D01*
X182830849Y-144973880D01*
X183380000Y-145083113D01*
X183929151Y-144973880D01*
X184394698Y-144662811D01*
X184650000Y-144280725D01*
X184905302Y-144662811D01*
X185370849Y-144973880D01*
X185920000Y-145083113D01*
X186469151Y-144973880D01*
X186934698Y-144662811D01*
X187190000Y-144280725D01*
X187445302Y-144662811D01*
X187910849Y-144973880D01*
X188460000Y-145083113D01*
X189009151Y-144973880D01*
X189474698Y-144662811D01*
X189688424Y-144342947D01*
X189784321Y-144362022D01*
X189985302Y-144662811D01*
X190450849Y-144973880D01*
X191000000Y-145083113D01*
X191549151Y-144973880D01*
X192014698Y-144662811D01*
X192228424Y-144342947D01*
X192324321Y-144362022D01*
X192525302Y-144662811D01*
X192990849Y-144973880D01*
X193540000Y-145083113D01*
X194089151Y-144973880D01*
X194554698Y-144662811D01*
X194824986Y-144258297D01*
X194927611Y-144475134D01*
X195342577Y-144851041D01*
X195730961Y-145011904D01*
X195953000Y-144889915D01*
X195953000Y-143747000D01*
X196207000Y-143747000D01*
X196207000Y-144889915D01*
X196429039Y-145011904D01*
X196817423Y-144851041D01*
X197232389Y-144475134D01*
X197471914Y-143969041D01*
X197350629Y-143747000D01*
X196207000Y-143747000D01*
X195953000Y-143747000D01*
X195933000Y-143747000D01*
X195933000Y-143493000D01*
X195953000Y-143493000D01*
X195953000Y-142350085D01*
X196207000Y-142350085D01*
X196207000Y-143493000D01*
X197350629Y-143493000D01*
X197471914Y-143270959D01*
X197232389Y-142764866D01*
X196817423Y-142388959D01*
X196429039Y-142228096D01*
X196207000Y-142350085D01*
X195953000Y-142350085D01*
X195730961Y-142228096D01*
X195342577Y-142388959D01*
X194927611Y-142764866D01*
X194824986Y-142981703D01*
X194554698Y-142577189D01*
X194089151Y-142266120D01*
X193540000Y-142156887D01*
X192990849Y-142266120D01*
X192646805Y-142496003D01*
X190310701Y-140159899D01*
X190064139Y-139995152D01*
X189773300Y-139937300D01*
X184594526Y-139937300D01*
X184781301Y-139812501D01*
X187533784Y-137060018D01*
X187722577Y-137231041D01*
X188110961Y-137391904D01*
X188333000Y-137269915D01*
X188333000Y-136127000D01*
X188313000Y-136127000D01*
X188313000Y-135873000D01*
X188333000Y-135873000D01*
X188333000Y-134730085D01*
X188110961Y-134608096D01*
X187950000Y-134674764D01*
X187950000Y-134086102D01*
X188243401Y-133792701D01*
X188387234Y-133577440D01*
X188556000Y-133577440D01*
X188616546Y-133566048D01*
X189998721Y-134948223D01*
X189985302Y-134957189D01*
X189715014Y-135361703D01*
X189612389Y-135144866D01*
X189197423Y-134768959D01*
X188809039Y-134608096D01*
X188587000Y-134730085D01*
X188587000Y-135873000D01*
X188607000Y-135873000D01*
X188607000Y-136127000D01*
X188587000Y-136127000D01*
X188587000Y-137269915D01*
X188809039Y-137391904D01*
X189197423Y-137231041D01*
X189612389Y-136855134D01*
X189715014Y-136638297D01*
X189985302Y-137042811D01*
X190450849Y-137353880D01*
X191000000Y-137463113D01*
X191549151Y-137353880D01*
X192014698Y-137042811D01*
X192270000Y-136660725D01*
X192525302Y-137042811D01*
X192990849Y-137353880D01*
X193540000Y-137463113D01*
X194089151Y-137353880D01*
X194554698Y-137042811D01*
X194810000Y-136660725D01*
X195065302Y-137042811D01*
X195530849Y-137353880D01*
X196080000Y-137463113D01*
X196629151Y-137353880D01*
X197094698Y-137042811D01*
X197405767Y-136577264D01*
X197515000Y-136028113D01*
X197515000Y-135971887D01*
X197405767Y-135422736D01*
X197094698Y-134957189D01*
X196819882Y-134773563D01*
X196782148Y-134583861D01*
X196617401Y-134337299D01*
X188742701Y-126462599D01*
X188496139Y-126297852D01*
X188205300Y-126240000D01*
X114988646Y-126240000D01*
X114967243Y-126188200D01*
X114563923Y-125784176D01*
X114036691Y-125565250D01*
X113465813Y-125564752D01*
X112938200Y-125782757D01*
X112534176Y-126186077D01*
X112315250Y-126713309D01*
X112314752Y-127284187D01*
X112532757Y-127811800D01*
X112636087Y-127915311D01*
X112077199Y-128474199D01*
X111912452Y-128720761D01*
X111854600Y-129011600D01*
X111854600Y-131489300D01*
X111912452Y-131780139D01*
X112021033Y-131942643D01*
X111957189Y-131985302D01*
X111646120Y-132450849D01*
X111536887Y-133000000D01*
X111646120Y-133549151D01*
X111957189Y-134014698D01*
X112422736Y-134325767D01*
X112971887Y-134435000D01*
X113028113Y-134435000D01*
X113577264Y-134325767D01*
X114042811Y-134014698D01*
X114353880Y-133549151D01*
X114463113Y-133000000D01*
X114353880Y-132450849D01*
X114042811Y-131985302D01*
X113742022Y-131784321D01*
X113702148Y-131583861D01*
X113537401Y-131337299D01*
X113374600Y-131174498D01*
X113374600Y-130897915D01*
X113463309Y-130934750D01*
X114034187Y-130935248D01*
X114561800Y-130717243D01*
X114965824Y-130313923D01*
X114988215Y-130260000D01*
X116521087Y-130260000D01*
X116509342Y-130264853D01*
X115767458Y-131005443D01*
X115365458Y-131973567D01*
X115364543Y-133021834D01*
X115764853Y-133990658D01*
X116505443Y-134732542D01*
X117473567Y-135134542D01*
X118521834Y-135135457D01*
X119490658Y-134735147D01*
X120232542Y-133994557D01*
X120634542Y-133026433D01*
X120635457Y-131978166D01*
X120235147Y-131009342D01*
X119494557Y-130267458D01*
X119476596Y-130260000D01*
X170521087Y-130260000D01*
X170509342Y-130264853D01*
X169767458Y-131005443D01*
X169365458Y-131973567D01*
X169364543Y-133021834D01*
X169764853Y-133990658D01*
X170505443Y-134732542D01*
X171473567Y-135134542D01*
X172521834Y-135135457D01*
X173490658Y-134735147D01*
X174232542Y-133994557D01*
X174634542Y-133026433D01*
X174635457Y-131978166D01*
X174235147Y-131009342D01*
X173494557Y-130267458D01*
X173476596Y-130260000D01*
X186981998Y-130260000D01*
X187304558Y-130582560D01*
X186856000Y-130582560D01*
X186620683Y-130626838D01*
X186404559Y-130765910D01*
X186259569Y-130978110D01*
X186208560Y-131230000D01*
X186208560Y-132930000D01*
X186252838Y-133165317D01*
X186391910Y-133381441D01*
X186503204Y-133457485D01*
X186487852Y-133480461D01*
X186430000Y-133771300D01*
X186430000Y-134638332D01*
X185920000Y-134536887D01*
X185370849Y-134646120D01*
X184905302Y-134957189D01*
X184704321Y-135257978D01*
X184608424Y-135277053D01*
X184394698Y-134957189D01*
X183929151Y-134646120D01*
X183380000Y-134536887D01*
X182830849Y-134646120D01*
X182365302Y-134957189D01*
X182110000Y-135339275D01*
X181854698Y-134957189D01*
X181389151Y-134646120D01*
X180840000Y-134536887D01*
X180290849Y-134646120D01*
X179825302Y-134957189D01*
X179624321Y-135257978D01*
X179528424Y-135277053D01*
X179314698Y-134957189D01*
X178849151Y-134646120D01*
X178300000Y-134536887D01*
X177750849Y-134646120D01*
X177285302Y-134957189D01*
X176974233Y-135422736D01*
X176907322Y-135759120D01*
X176894701Y-135746499D01*
X176648139Y-135581752D01*
X176357300Y-135523900D01*
X106984100Y-135523900D01*
X106693261Y-135581752D01*
X106446699Y-135746499D01*
X105907558Y-136285640D01*
X105568285Y-136058946D01*
X105000000Y-135945907D01*
X104431715Y-136058946D01*
X103949946Y-136380853D01*
X103730000Y-136710026D01*
X103510054Y-136380853D01*
X103028285Y-136058946D01*
X102460000Y-135945907D01*
X101891715Y-136058946D01*
X101409946Y-136380853D01*
X101088039Y-136862622D01*
X100975000Y-137430907D01*
X100975000Y-137489093D01*
X101088039Y-138057378D01*
X101409946Y-138539147D01*
X101411179Y-138539971D01*
X101374683Y-138546838D01*
X101158559Y-138685910D01*
X101013569Y-138898110D01*
X100962560Y-139150000D01*
X100710000Y-139150000D01*
X100710000Y-135069931D01*
X101049408Y-133363610D01*
X101102476Y-133284187D01*
X103944752Y-133284187D01*
X104162757Y-133811800D01*
X104566077Y-134215824D01*
X105093309Y-134434750D01*
X105664187Y-134435248D01*
X106191800Y-134217243D01*
X106595824Y-133813923D01*
X106814750Y-133286691D01*
X106815248Y-132715813D01*
X106597243Y-132188200D01*
X106193923Y-131784176D01*
X105666691Y-131565250D01*
X105095813Y-131564752D01*
X104568200Y-131782757D01*
X104164176Y-132186077D01*
X103945250Y-132713309D01*
X103944752Y-133284187D01*
X101102476Y-133284187D01*
X101976349Y-131976346D01*
X103363610Y-131049408D01*
X105138514Y-130696358D01*
X105162432Y-130686451D01*
X105188246Y-130684589D01*
X105289650Y-130633755D01*
X105394454Y-130590343D01*
X105412756Y-130572041D01*
X105435898Y-130560440D01*
X115497898Y-122734440D01*
X115519141Y-122709894D01*
X115546726Y-122692787D01*
X115609159Y-122605883D01*
X115679188Y-122524968D01*
X115689421Y-122494163D01*
X115708360Y-122467800D01*
X115732784Y-122363617D01*
X115766517Y-122262065D01*
X115764182Y-122229689D01*
X115771591Y-122198085D01*
X115754286Y-122092479D01*
X115746589Y-121985754D01*
X115732044Y-121956739D01*
X115726794Y-121924702D01*
X115010000Y-120013251D01*
X115010000Y-119126000D01*
X114955954Y-118854295D01*
X114802046Y-118623954D01*
X114802043Y-118623952D01*
X114294046Y-118115954D01*
X114236206Y-118077307D01*
X114187072Y-118028070D01*
X114122155Y-118001101D01*
X114063705Y-117962046D01*
X113995480Y-117948475D01*
X113931242Y-117921788D01*
X112949624Y-117725464D01*
X112682666Y-117325028D01*
X112202212Y-114922758D01*
X112175525Y-114858520D01*
X112161954Y-114790295D01*
X112122899Y-114731845D01*
X112095930Y-114666928D01*
X112046693Y-114617794D01*
X112008046Y-114559954D01*
X111949596Y-114520899D01*
X111899837Y-114471244D01*
X111835541Y-114444690D01*
X111777705Y-114406046D01*
X111708762Y-114392332D01*
X111643786Y-114365498D01*
X111574224Y-114365571D01*
X111506000Y-114352000D01*
X110736382Y-114352000D01*
X110833000Y-113289198D01*
X139987163Y-113289198D01*
X139997193Y-113343570D01*
X139996154Y-113358145D01*
X139998920Y-113366447D01*
X139998565Y-113418399D01*
X140014207Y-113456903D01*
X140019355Y-113498727D01*
X140028934Y-113515647D01*
X140032462Y-113534770D01*
X140068298Y-113590055D01*
X140092550Y-113649754D01*
X140108615Y-113666040D01*
X140113661Y-113677566D01*
X140128899Y-113692208D01*
X140142387Y-113716031D01*
X140153892Y-113729375D01*
X140163438Y-113736828D01*
X140168290Y-113744314D01*
X140208360Y-113771903D01*
X140226916Y-113786392D01*
X140234946Y-113794107D01*
X140267916Y-113827531D01*
X140271151Y-113828897D01*
X140293723Y-113850586D01*
X140326565Y-113871596D01*
X140345548Y-113879019D01*
X140350717Y-113883055D01*
X140354031Y-113883973D01*
X140369853Y-113896953D01*
X140421518Y-113924557D01*
X140433113Y-113928072D01*
X140442762Y-113935404D01*
X140510738Y-113968528D01*
X140517895Y-113970410D01*
X140523884Y-113974749D01*
X140548901Y-113986244D01*
X140546199Y-114001355D01*
X140547586Y-114072796D01*
X140536884Y-114143445D01*
X140540794Y-114228360D01*
X140555487Y-114287792D01*
X140557953Y-114348964D01*
X140578874Y-114435715D01*
X140601361Y-114484363D01*
X140612370Y-114536811D01*
X140649027Y-114622735D01*
X140676616Y-114663097D01*
X140693778Y-114708871D01*
X140744894Y-114791305D01*
X140776856Y-114825517D01*
X140799468Y-114866515D01*
X140863767Y-114942795D01*
X140900467Y-114972115D01*
X140928889Y-115009515D01*
X141005096Y-115076978D01*
X141047367Y-115101647D01*
X141082539Y-115135682D01*
X141169376Y-115191664D01*
X141217964Y-115210861D01*
X141260888Y-115240646D01*
X141357079Y-115282484D01*
X141399484Y-115291696D01*
X141438132Y-115311427D01*
X141495596Y-115327683D01*
X141522467Y-115329819D01*
X141547408Y-115340036D01*
X141625062Y-115355167D01*
X141638793Y-115355113D01*
X141651708Y-115359777D01*
X141752216Y-115374986D01*
X141760788Y-115374590D01*
X141768931Y-115377290D01*
X141889746Y-115392326D01*
X141895833Y-115391884D01*
X141901666Y-115393697D01*
X142040243Y-115408311D01*
X142045003Y-115407875D01*
X142049587Y-115409227D01*
X142203381Y-115423168D01*
X142207386Y-115422742D01*
X142211261Y-115423833D01*
X142377727Y-115436851D01*
X142381310Y-115436425D01*
X142384792Y-115437364D01*
X142561384Y-115449209D01*
X142564623Y-115448788D01*
X142567789Y-115449607D01*
X142736974Y-115459252D01*
X142742583Y-115458465D01*
X142748087Y-115459788D01*
X142811549Y-115462300D01*
X142816109Y-115461579D01*
X142820615Y-115462595D01*
X142906462Y-115464775D01*
X142908982Y-115464340D01*
X142911482Y-115464883D01*
X143016700Y-115466729D01*
X143018333Y-115466434D01*
X143019952Y-115466777D01*
X143141529Y-115468292D01*
X143142708Y-115468073D01*
X143143883Y-115468317D01*
X143278806Y-115469502D01*
X143279733Y-115469326D01*
X143280660Y-115469516D01*
X143425917Y-115470371D01*
X143426699Y-115470220D01*
X143427478Y-115470378D01*
X143580054Y-115470904D01*
X143580752Y-115470768D01*
X143581448Y-115470907D01*
X143738332Y-115471106D01*
X143738991Y-115470976D01*
X143739654Y-115471107D01*
X143897832Y-115470981D01*
X143898505Y-115470847D01*
X143899175Y-115470978D01*
X144055634Y-115470525D01*
X144056342Y-115470382D01*
X144057054Y-115470520D01*
X144208781Y-115469744D01*
X144209588Y-115469579D01*
X144210393Y-115469733D01*
X144354376Y-115468634D01*
X144355345Y-115468434D01*
X144356322Y-115468617D01*
X144489548Y-115467195D01*
X144490796Y-115466933D01*
X144492049Y-115467163D01*
X144611503Y-115465421D01*
X144613259Y-115465045D01*
X144615028Y-115465360D01*
X144717700Y-115463297D01*
X144720449Y-115462693D01*
X144723223Y-115463162D01*
X144806097Y-115460781D01*
X144809741Y-115459947D01*
X144813432Y-115460528D01*
X144850164Y-115459051D01*
X144854591Y-115457984D01*
X144859098Y-115458629D01*
X145006190Y-115450654D01*
X145012799Y-115448963D01*
X145019572Y-115449788D01*
X145142055Y-115440570D01*
X145152013Y-115437798D01*
X145162310Y-115438722D01*
X145260953Y-115428137D01*
X145276924Y-115423140D01*
X145293643Y-115423774D01*
X145369212Y-115411701D01*
X145397460Y-115401236D01*
X145427533Y-115399575D01*
X145480797Y-115385887D01*
X145538940Y-115357952D01*
X145601345Y-115341605D01*
X145633071Y-115326180D01*
X145674285Y-115294921D01*
X145721579Y-115273975D01*
X145772831Y-115220178D01*
X145796313Y-115202368D01*
X145806443Y-115195924D01*
X145808299Y-115193277D01*
X145832033Y-115175276D01*
X145858146Y-115130627D01*
X145893826Y-115093175D01*
X145904780Y-115075888D01*
X145922140Y-115030927D01*
X145949811Y-114991465D01*
X145951864Y-114982235D01*
X145956242Y-114975638D01*
X145969348Y-114908663D01*
X145994726Y-114842935D01*
X145993558Y-114794751D01*
X146004021Y-114747705D01*
X146004038Y-114746949D01*
X146002597Y-114738746D01*
X146004197Y-114730570D01*
X145990343Y-114662035D01*
X145988677Y-114593292D01*
X145969409Y-114549786D01*
X145960840Y-114500999D01*
X145956368Y-114493969D01*
X145954718Y-114485806D01*
X145944790Y-114462046D01*
X145914474Y-114416979D01*
X145894919Y-114366310D01*
X145845450Y-114314369D01*
X145805411Y-114254848D01*
X145760157Y-114224814D01*
X145758374Y-114222942D01*
X145730595Y-114191562D01*
X145726662Y-114189645D01*
X145722699Y-114185484D01*
X145711786Y-114177801D01*
X145651429Y-114151059D01*
X145643651Y-114144053D01*
X145632538Y-114140115D01*
X145597349Y-114116761D01*
X145563538Y-114110145D01*
X145506119Y-114082161D01*
X145479074Y-114075049D01*
X145442659Y-114072833D01*
X145408275Y-114060649D01*
X145365996Y-114054510D01*
X145347918Y-114055454D01*
X145330544Y-114050368D01*
X145271793Y-114045160D01*
X145261458Y-114046280D01*
X145251394Y-114043680D01*
X145174937Y-114039359D01*
X145168479Y-114040268D01*
X145162129Y-114038763D01*
X145142707Y-114038055D01*
X145144029Y-114028336D01*
X145143979Y-114027511D01*
X145144247Y-114026725D01*
X145155913Y-113939312D01*
X145155875Y-113938711D01*
X145156069Y-113938138D01*
X145168670Y-113842375D01*
X145168638Y-113841889D01*
X145168794Y-113841427D01*
X145181933Y-113740409D01*
X145181904Y-113739971D01*
X145182043Y-113739557D01*
X145195322Y-113636380D01*
X145195293Y-113635959D01*
X145195428Y-113635556D01*
X145208452Y-113533312D01*
X145208421Y-113532861D01*
X145208564Y-113532430D01*
X145220936Y-113434216D01*
X145220898Y-113433679D01*
X145221067Y-113433168D01*
X145224258Y-113407494D01*
X145232389Y-113342084D01*
X145232338Y-113341390D01*
X145232556Y-113340729D01*
X145242434Y-113259856D01*
X145242357Y-113258826D01*
X145242676Y-113257845D01*
X145250711Y-113190285D01*
X145250571Y-113188488D01*
X145251120Y-113186768D01*
X145256917Y-113135615D01*
X145256556Y-113131305D01*
X145257817Y-113127169D01*
X145260979Y-113095517D01*
X145258993Y-113075063D01*
X145263729Y-113055068D01*
X145264064Y-113045821D01*
X145255036Y-112989928D01*
X145258230Y-112933395D01*
X145243256Y-112890556D01*
X145262603Y-112869574D01*
X145279910Y-112822482D01*
X145307783Y-112780767D01*
X145322580Y-112706378D01*
X145348744Y-112635186D01*
X145346712Y-112585057D01*
X145356500Y-112535850D01*
X145356500Y-110867431D01*
X145357609Y-110864813D01*
X145369388Y-110807966D01*
X145369478Y-110796639D01*
X145373530Y-110786062D01*
X145380059Y-110747908D01*
X145379672Y-110733492D01*
X145384229Y-110719806D01*
X145395931Y-110626744D01*
X145394733Y-110609957D01*
X145399215Y-110593736D01*
X145407036Y-110487158D01*
X145405492Y-110474679D01*
X145408370Y-110462439D01*
X145412296Y-110348917D01*
X145410492Y-110337866D01*
X145412678Y-110326887D01*
X145412694Y-110212995D01*
X145410385Y-110201381D01*
X145412273Y-110189689D01*
X145408364Y-110081998D01*
X145404901Y-110067381D01*
X145406607Y-110052456D01*
X145398756Y-109957540D01*
X145392837Y-109936868D01*
X145393858Y-109915389D01*
X145383766Y-109848088D01*
X145372205Y-109815939D01*
X145370218Y-109781836D01*
X145324331Y-109605478D01*
X145306350Y-109568341D01*
X145298716Y-109527793D01*
X145294192Y-109516549D01*
X145294186Y-109516540D01*
X145294184Y-109516529D01*
X145234594Y-109368405D01*
X145209664Y-109330257D01*
X145195001Y-109287103D01*
X145112989Y-109145154D01*
X145080637Y-109108286D01*
X145057992Y-109064776D01*
X144958406Y-108940671D01*
X144919318Y-108907866D01*
X144888909Y-108866888D01*
X144772075Y-108761055D01*
X144728272Y-108734817D01*
X144691747Y-108699134D01*
X144557991Y-108611999D01*
X144519418Y-108596546D01*
X144486215Y-108571569D01*
X144385722Y-108523200D01*
X144363341Y-108517432D01*
X144343928Y-108504889D01*
X144304017Y-108489074D01*
X144297775Y-108487932D01*
X144292379Y-108484593D01*
X144233165Y-108462454D01*
X144230169Y-108461966D01*
X144227573Y-108460393D01*
X144152296Y-108433045D01*
X144150476Y-108432766D01*
X144148893Y-108431819D01*
X144060797Y-108400376D01*
X144059512Y-108400186D01*
X144058395Y-108399524D01*
X143960720Y-108365100D01*
X143959703Y-108364954D01*
X143958818Y-108364433D01*
X143854805Y-108328143D01*
X143853918Y-108328019D01*
X143853144Y-108327566D01*
X143746033Y-108290525D01*
X143745189Y-108290409D01*
X143744453Y-108289981D01*
X143637487Y-108253303D01*
X143636600Y-108253183D01*
X143635824Y-108252735D01*
X143532243Y-108217535D01*
X143531226Y-108217401D01*
X143530337Y-108216891D01*
X143433384Y-108184283D01*
X143432086Y-108184116D01*
X143430948Y-108183469D01*
X143343862Y-108154568D01*
X143342003Y-108154336D01*
X143340367Y-108153419D01*
X143266391Y-108129340D01*
X143263267Y-108128969D01*
X143260509Y-108127457D01*
X143202883Y-108109313D01*
X143196008Y-108108563D01*
X143189873Y-108105368D01*
X143151838Y-108094275D01*
X143139137Y-108093162D01*
X143127603Y-108087719D01*
X143119789Y-108085769D01*
X143091625Y-108084410D01*
X143065177Y-108074642D01*
X142990643Y-108062809D01*
X142962710Y-108063896D01*
X142935753Y-108056510D01*
X142846412Y-108050148D01*
X142826510Y-108052654D01*
X142806869Y-108048558D01*
X142712001Y-108047681D01*
X142692889Y-108051299D01*
X142673648Y-108048477D01*
X142582531Y-108053101D01*
X142557914Y-108059309D01*
X142532585Y-108057603D01*
X142454498Y-108067739D01*
X142431005Y-108075666D01*
X142406208Y-108075896D01*
X142388728Y-108079542D01*
X142362294Y-108090780D01*
X142333708Y-108093591D01*
X142189592Y-108137285D01*
X142150543Y-108158150D01*
X142107487Y-108168475D01*
X141969335Y-108232122D01*
X141934895Y-108257131D01*
X141895170Y-108272418D01*
X141760701Y-108357418D01*
X141733331Y-108383434D01*
X141699908Y-108401018D01*
X141566838Y-108508772D01*
X141548668Y-108530619D01*
X141524775Y-108546004D01*
X141419383Y-108647884D01*
X141404553Y-108669285D01*
X141383865Y-108685094D01*
X141227960Y-108862156D01*
X141211743Y-108890116D01*
X141188148Y-108912206D01*
X141054976Y-109097969D01*
X141043649Y-109122954D01*
X141025281Y-109143332D01*
X140951883Y-109266550D01*
X140948316Y-109276604D01*
X140941437Y-109284759D01*
X140906697Y-109347687D01*
X140889948Y-109400322D01*
X140862070Y-109448011D01*
X140852447Y-109518170D01*
X140830976Y-109585645D01*
X140835644Y-109640681D01*
X140828138Y-109695410D01*
X140846097Y-109763912D01*
X140852082Y-109834467D01*
X140877458Y-109883531D01*
X140891466Y-109936962D01*
X140924164Y-109980055D01*
X140889330Y-110011819D01*
X140889107Y-110011987D01*
X140867383Y-110025309D01*
X140862605Y-110031890D01*
X140813400Y-110068843D01*
X140797728Y-110095350D01*
X140774976Y-110116097D01*
X140760878Y-110146140D01*
X140757156Y-110149813D01*
X140739340Y-110192037D01*
X140734638Y-110202057D01*
X140686309Y-110283798D01*
X140681974Y-110314284D01*
X140668893Y-110342159D01*
X140665658Y-110355246D01*
X140665067Y-110368064D01*
X140660079Y-110379886D01*
X140652772Y-110415398D01*
X140652754Y-110418190D01*
X140651689Y-110420775D01*
X140640771Y-110476239D01*
X140640773Y-110477476D01*
X140640308Y-110478618D01*
X140626236Y-110551562D01*
X140626240Y-110552279D01*
X140625970Y-110552946D01*
X140609204Y-110640896D01*
X140609208Y-110641372D01*
X140609031Y-110641810D01*
X140590027Y-110742292D01*
X140590030Y-110742642D01*
X140589899Y-110742969D01*
X140569116Y-110853510D01*
X140569119Y-110853795D01*
X140569014Y-110854057D01*
X140546911Y-110972184D01*
X140546914Y-110972423D01*
X140546825Y-110972645D01*
X140523859Y-111095884D01*
X140523862Y-111096104D01*
X140523780Y-111096308D01*
X140500410Y-111222186D01*
X140500413Y-111222400D01*
X140500333Y-111222600D01*
X140477018Y-111348643D01*
X140477021Y-111348860D01*
X140476941Y-111349061D01*
X140454138Y-111472796D01*
X140454141Y-111473032D01*
X140454053Y-111473255D01*
X140432221Y-111592209D01*
X140432225Y-111592482D01*
X140432125Y-111592735D01*
X140411721Y-111704433D01*
X140411726Y-111704776D01*
X140411600Y-111705096D01*
X140393084Y-111807066D01*
X140393092Y-111807517D01*
X140392926Y-111807938D01*
X140376755Y-111897706D01*
X140376767Y-111898384D01*
X140376520Y-111899017D01*
X140363153Y-111974109D01*
X140363176Y-111975244D01*
X140362765Y-111976307D01*
X140352659Y-112034252D01*
X140352717Y-112036716D01*
X140351847Y-112039018D01*
X140345461Y-112077340D01*
X140345461Y-112077348D01*
X140338226Y-112097550D01*
X140337698Y-112101101D01*
X140335885Y-112104201D01*
X140312848Y-112170828D01*
X140312560Y-112172925D01*
X140311505Y-112174756D01*
X140284756Y-112253772D01*
X140284567Y-112255220D01*
X140283843Y-112256489D01*
X140254346Y-112344928D01*
X140254202Y-112346066D01*
X140253640Y-112347060D01*
X140222358Y-112441959D01*
X140222239Y-112442930D01*
X140221759Y-112443784D01*
X140189653Y-112542175D01*
X140189543Y-112543098D01*
X140189089Y-112543911D01*
X140157122Y-112642832D01*
X140157010Y-112643791D01*
X140156544Y-112644632D01*
X140125678Y-112741116D01*
X140125554Y-112742206D01*
X140125028Y-112743163D01*
X140096227Y-112834247D01*
X140096077Y-112835610D01*
X140095419Y-112836818D01*
X140069646Y-112919536D01*
X140069444Y-112921442D01*
X140068539Y-112923128D01*
X140046756Y-112994515D01*
X140046448Y-112997589D01*
X140045012Y-113000327D01*
X140028181Y-113057417D01*
X140027617Y-113063641D01*
X140024821Y-113069231D01*
X140013905Y-113109062D01*
X140012422Y-113129868D01*
X140004308Y-113149085D01*
X140000269Y-113168690D01*
X139999982Y-113210681D01*
X139988847Y-113250882D01*
X139991201Y-113270009D01*
X139987167Y-113288911D01*
X139987163Y-113289198D01*
X110833000Y-113289198D01*
X110943084Y-112078280D01*
X110939651Y-112045919D01*
X110946000Y-112014000D01*
X110925139Y-111909125D01*
X110913859Y-111802798D01*
X110898303Y-111774214D01*
X110891954Y-111742295D01*
X110832552Y-111653393D01*
X110781437Y-111559469D01*
X110756124Y-111539011D01*
X110738045Y-111511955D01*
X110649142Y-111452552D01*
X110565976Y-111385339D01*
X110534764Y-111376127D01*
X110507705Y-111358046D01*
X110402831Y-111337185D01*
X110300280Y-111306916D01*
X110267919Y-111310349D01*
X110236000Y-111304000D01*
X110131125Y-111324861D01*
X110024798Y-111336141D01*
X109996213Y-111351697D01*
X109964295Y-111358046D01*
X109875396Y-111417446D01*
X109781469Y-111468562D01*
X109761011Y-111493876D01*
X109733954Y-111511955D01*
X109261632Y-111984276D01*
X108914000Y-112245000D01*
X108914000Y-109753329D01*
X109166196Y-106222585D01*
X109162998Y-106197145D01*
X109168000Y-106172000D01*
X109168000Y-105410000D01*
X109113954Y-105138295D01*
X108960046Y-104907954D01*
X108960043Y-104907952D01*
X108604053Y-104551961D01*
X108406000Y-103561698D01*
X108406000Y-102108000D01*
X108353288Y-101843000D01*
X118975560Y-101843000D01*
X118975560Y-103643000D01*
X119019838Y-103878317D01*
X119158910Y-104094441D01*
X119371110Y-104239431D01*
X119623000Y-104290440D01*
X121423000Y-104290440D01*
X121658317Y-104246162D01*
X121874441Y-104107090D01*
X122019431Y-103894890D01*
X122023567Y-103874466D01*
X122192357Y-104043551D01*
X122756330Y-104277733D01*
X123366991Y-104278265D01*
X123931371Y-104045068D01*
X124363551Y-103613643D01*
X124597733Y-103049670D01*
X124598265Y-102439009D01*
X124365068Y-101874629D01*
X123933643Y-101442449D01*
X123369670Y-101208267D01*
X122759009Y-101207735D01*
X122194629Y-101440932D01*
X122026387Y-101608880D01*
X122026162Y-101607683D01*
X121887090Y-101391559D01*
X121674890Y-101246569D01*
X121423000Y-101195560D01*
X119623000Y-101195560D01*
X119387683Y-101239838D01*
X119171559Y-101378910D01*
X119026569Y-101591110D01*
X118975560Y-101843000D01*
X108353288Y-101843000D01*
X108351954Y-101836295D01*
X108198046Y-101605954D01*
X107967705Y-101452046D01*
X107696000Y-101398000D01*
X107424295Y-101452046D01*
X107193954Y-101605954D01*
X107193952Y-101605957D01*
X106804470Y-101995438D01*
X106480478Y-102103435D01*
X106120000Y-101923196D01*
X106120000Y-101362887D01*
X106373196Y-96045771D01*
X106366904Y-96003790D01*
X106372214Y-95961669D01*
X106346540Y-95867917D01*
X106332135Y-95771803D01*
X106310258Y-95735427D01*
X106299044Y-95694478D01*
X106239451Y-95617693D01*
X106189358Y-95534402D01*
X106155220Y-95509163D01*
X106129193Y-95475628D01*
X106044755Y-95427494D01*
X105966598Y-95369712D01*
X105925404Y-95359459D01*
X105888522Y-95338435D01*
X105126522Y-95084435D01*
X105071037Y-95077441D01*
X105018724Y-95057660D01*
X104088000Y-94902539D01*
X104088000Y-89974763D01*
X104332340Y-88508723D01*
X104329723Y-88424890D01*
X104340214Y-88341669D01*
X104325442Y-88287726D01*
X104323697Y-88231830D01*
X104289199Y-88155381D01*
X104267044Y-88074478D01*
X104232754Y-88030296D01*
X104209751Y-87979320D01*
X104148618Y-87921888D01*
X104097193Y-87855628D01*
X104048606Y-87827931D01*
X104007846Y-87789639D01*
X103929392Y-87759974D01*
X103856522Y-87718435D01*
X103373521Y-87557435D01*
X102572871Y-85956134D01*
X102817019Y-81317316D01*
X102814306Y-81298573D01*
X102818000Y-81280000D01*
X102794551Y-81162113D01*
X102777328Y-81043146D01*
X102767648Y-81026868D01*
X102763954Y-81008295D01*
X102697180Y-80908360D01*
X102635739Y-80805034D01*
X102620566Y-80793699D01*
X102610046Y-80777954D01*
X102510108Y-80711178D01*
X102413806Y-80639233D01*
X102395451Y-80634567D01*
X102379705Y-80624046D01*
X102261820Y-80600597D01*
X102145317Y-80570981D01*
X102126573Y-80573694D01*
X102108000Y-80570000D01*
X101854000Y-80570000D01*
X101742382Y-80592202D01*
X101629479Y-80606435D01*
X101224280Y-80741501D01*
X101048402Y-79510354D01*
X101178627Y-78729000D01*
X111228560Y-78729000D01*
X111228560Y-80529000D01*
X111272838Y-80764317D01*
X111411910Y-80980441D01*
X111624110Y-81125431D01*
X111876000Y-81176440D01*
X113540000Y-81176440D01*
X113540000Y-84050560D01*
X113400000Y-84050560D01*
X113164683Y-84094838D01*
X112948559Y-84233910D01*
X112803569Y-84446110D01*
X112752560Y-84698000D01*
X112752560Y-86498000D01*
X112796838Y-86733317D01*
X112935910Y-86949441D01*
X113148110Y-87094431D01*
X113400000Y-87145440D01*
X113540000Y-87145440D01*
X113540000Y-89579700D01*
X113597852Y-89870539D01*
X113762599Y-90117101D01*
X114175435Y-90529937D01*
X114091559Y-90583910D01*
X113946569Y-90796110D01*
X113895560Y-91048000D01*
X113895560Y-92848000D01*
X113939838Y-93083317D01*
X114078910Y-93299441D01*
X114291110Y-93444431D01*
X114543000Y-93495440D01*
X116343000Y-93495440D01*
X116578317Y-93451162D01*
X116794441Y-93312090D01*
X116939431Y-93099890D01*
X116943567Y-93079466D01*
X117112357Y-93248551D01*
X117223000Y-93294494D01*
X117223000Y-96242560D01*
X117083000Y-96242560D01*
X116847683Y-96286838D01*
X116631559Y-96425910D01*
X116486569Y-96638110D01*
X116435560Y-96890000D01*
X116435560Y-98690000D01*
X116479838Y-98925317D01*
X116618910Y-99141441D01*
X116831110Y-99286431D01*
X117083000Y-99337440D01*
X118883000Y-99337440D01*
X119118317Y-99293162D01*
X119334441Y-99154090D01*
X119479431Y-98941890D01*
X119483567Y-98921466D01*
X119652357Y-99090551D01*
X120216330Y-99324733D01*
X120826991Y-99325265D01*
X121391371Y-99092068D01*
X121823551Y-98660643D01*
X122057733Y-98096670D01*
X122058265Y-97486009D01*
X121825068Y-96921629D01*
X121393643Y-96489449D01*
X120829670Y-96255267D01*
X120219009Y-96254735D01*
X119654629Y-96487932D01*
X119486387Y-96655880D01*
X119486162Y-96654683D01*
X119347090Y-96438559D01*
X119134890Y-96293569D01*
X118883000Y-96242560D01*
X118743000Y-96242560D01*
X118743000Y-93294846D01*
X118851371Y-93250068D01*
X119283551Y-92818643D01*
X119517733Y-92254670D01*
X119518265Y-91644009D01*
X119285068Y-91079629D01*
X118853643Y-90647449D01*
X118743000Y-90601506D01*
X118743000Y-86741000D01*
X118685148Y-86450161D01*
X118520401Y-86203599D01*
X118329766Y-86012964D01*
X118374733Y-85904670D01*
X118375265Y-85294009D01*
X118142068Y-84729629D01*
X117710643Y-84297449D01*
X117146670Y-84063267D01*
X116536009Y-84062735D01*
X115971629Y-84295932D01*
X115803387Y-84463880D01*
X115803162Y-84462683D01*
X115664090Y-84246559D01*
X115451890Y-84101569D01*
X115200000Y-84050560D01*
X115060000Y-84050560D01*
X115060000Y-81163777D01*
X115619991Y-81164265D01*
X116184371Y-80931068D01*
X116616551Y-80499643D01*
X116850733Y-79935670D01*
X116851265Y-79325009D01*
X116618068Y-78760629D01*
X116186643Y-78328449D01*
X115622670Y-78094267D01*
X115012009Y-78093735D01*
X114447629Y-78326932D01*
X114279387Y-78494880D01*
X114279162Y-78493683D01*
X114140090Y-78277559D01*
X113927890Y-78132569D01*
X113676000Y-78081560D01*
X111876000Y-78081560D01*
X111640683Y-78125838D01*
X111424559Y-78264910D01*
X111279569Y-78477110D01*
X111228560Y-78729000D01*
X101178627Y-78729000D01*
X101265399Y-78208371D01*
X103497490Y-73992200D01*
X103499896Y-73984154D01*
X103505043Y-73977522D01*
X104505956Y-71975695D01*
X107028079Y-67940300D01*
X107030407Y-67934156D01*
X107034820Y-67929292D01*
X107690447Y-66836581D01*
X109537522Y-65913043D01*
X109617222Y-65851188D01*
X109703120Y-65798283D01*
X110685578Y-64886000D01*
X124690560Y-64886000D01*
X124690560Y-66686000D01*
X124734838Y-66921317D01*
X124873910Y-67137441D01*
X125086110Y-67282431D01*
X125338000Y-67333440D01*
X125556767Y-67333440D01*
X125700599Y-67548701D01*
X128907000Y-70755102D01*
X128907000Y-71551154D01*
X128798629Y-71595932D01*
X128630387Y-71763880D01*
X128630162Y-71762683D01*
X128491090Y-71546559D01*
X128278890Y-71401569D01*
X128027000Y-71350560D01*
X126227000Y-71350560D01*
X125991683Y-71394838D01*
X125775559Y-71533910D01*
X125630569Y-71746110D01*
X125579560Y-71998000D01*
X125579560Y-73798000D01*
X125623838Y-74033317D01*
X125762910Y-74249441D01*
X125975110Y-74394431D01*
X126227000Y-74445440D01*
X126445767Y-74445440D01*
X126494000Y-74517627D01*
X126494000Y-77954560D01*
X126354000Y-77954560D01*
X126118683Y-77998838D01*
X125902559Y-78137910D01*
X125757569Y-78350110D01*
X125706560Y-78602000D01*
X125706560Y-80402000D01*
X125750838Y-80637317D01*
X125889910Y-80853441D01*
X126102110Y-80998431D01*
X126354000Y-81049440D01*
X128154000Y-81049440D01*
X128389317Y-81005162D01*
X128605441Y-80866090D01*
X128750431Y-80653890D01*
X128754567Y-80633466D01*
X128923357Y-80802551D01*
X129034000Y-80848494D01*
X129034000Y-82660898D01*
X128113599Y-83581299D01*
X127969767Y-83796560D01*
X127751000Y-83796560D01*
X127515683Y-83840838D01*
X127299559Y-83979910D01*
X127154569Y-84192110D01*
X127103560Y-84444000D01*
X127103560Y-86244000D01*
X127147838Y-86479317D01*
X127286910Y-86695441D01*
X127499110Y-86840431D01*
X127751000Y-86891440D01*
X127891000Y-86891440D01*
X127891000Y-91357700D01*
X127948852Y-91648539D01*
X128040518Y-91785727D01*
X127934559Y-91853910D01*
X127789569Y-92066110D01*
X127738560Y-92318000D01*
X127738560Y-94118000D01*
X127782838Y-94353317D01*
X127921910Y-94569441D01*
X128134110Y-94714431D01*
X128386000Y-94765440D01*
X130186000Y-94765440D01*
X130421317Y-94721162D01*
X130637441Y-94582090D01*
X130782431Y-94369890D01*
X130786567Y-94349466D01*
X130955357Y-94518551D01*
X131519330Y-94752733D01*
X132129991Y-94753265D01*
X132694371Y-94520068D01*
X133126551Y-94088643D01*
X133277964Y-93724000D01*
X139168560Y-93724000D01*
X139168560Y-93864000D01*
X139212838Y-94099317D01*
X139351910Y-94315441D01*
X139564110Y-94460431D01*
X139816000Y-94511440D01*
X141616000Y-94511440D01*
X141851317Y-94467162D01*
X142067441Y-94328090D01*
X142212431Y-94115890D01*
X142216567Y-94095466D01*
X142385357Y-94264551D01*
X142949330Y-94498733D01*
X143559991Y-94499265D01*
X144124371Y-94266068D01*
X144556551Y-93834643D01*
X144673790Y-93552300D01*
X150802403Y-93552300D01*
X150776569Y-93590110D01*
X150725560Y-93842000D01*
X150725560Y-95642000D01*
X150769838Y-95877317D01*
X150908910Y-96093441D01*
X151121110Y-96238431D01*
X151373000Y-96289440D01*
X153173000Y-96289440D01*
X153408317Y-96245162D01*
X153624441Y-96106090D01*
X153769431Y-95893890D01*
X153773567Y-95873466D01*
X153942357Y-96042551D01*
X154506330Y-96276733D01*
X155116991Y-96277265D01*
X155681371Y-96044068D01*
X156113551Y-95612643D01*
X156347733Y-95048670D01*
X156348265Y-94438009D01*
X156115068Y-93873629D01*
X155683643Y-93441449D01*
X155119670Y-93207267D01*
X154509009Y-93206735D01*
X153944629Y-93439932D01*
X153776387Y-93607880D01*
X153776162Y-93606683D01*
X153637090Y-93390559D01*
X153424890Y-93245569D01*
X153173000Y-93194560D01*
X153033000Y-93194560D01*
X153033000Y-93107102D01*
X155858401Y-90281701D01*
X156002233Y-90066440D01*
X156221000Y-90066440D01*
X156456317Y-90022162D01*
X156672441Y-89883090D01*
X156817431Y-89670890D01*
X156821567Y-89650466D01*
X156990357Y-89819551D01*
X157554330Y-90053733D01*
X158164991Y-90054265D01*
X158729371Y-89821068D01*
X159161551Y-89389643D01*
X159395733Y-88825670D01*
X159396265Y-88215009D01*
X159163068Y-87650629D01*
X158731643Y-87218449D01*
X158621000Y-87172506D01*
X158621000Y-83455102D01*
X158779401Y-83296701D01*
X158923234Y-83081440D01*
X159142000Y-83081440D01*
X159377317Y-83037162D01*
X159593441Y-82898090D01*
X159738431Y-82685890D01*
X159742567Y-82665466D01*
X159911357Y-82834551D01*
X160475330Y-83068733D01*
X161085991Y-83069265D01*
X161650371Y-82836068D01*
X162082551Y-82404643D01*
X162316733Y-81840670D01*
X162317265Y-81230009D01*
X162271515Y-81119287D01*
X163986401Y-79404401D01*
X164151148Y-79157839D01*
X164209000Y-78867000D01*
X164209000Y-75641846D01*
X164317371Y-75597068D01*
X164749551Y-75165643D01*
X164983733Y-74601670D01*
X164984265Y-73991009D01*
X164751068Y-73426629D01*
X164319643Y-72994449D01*
X164209000Y-72948506D01*
X164209000Y-68027300D01*
X164151148Y-67736461D01*
X164059482Y-67599273D01*
X164165441Y-67531090D01*
X164310431Y-67318890D01*
X164314567Y-67298466D01*
X164483357Y-67467551D01*
X165047330Y-67701733D01*
X165657991Y-67702265D01*
X166222371Y-67469068D01*
X166654551Y-67037643D01*
X166888733Y-66473670D01*
X166889265Y-65863009D01*
X166656068Y-65298629D01*
X166224643Y-64866449D01*
X165660670Y-64632267D01*
X165050009Y-64631735D01*
X164485629Y-64864932D01*
X164317387Y-65032880D01*
X164317162Y-65031683D01*
X164178090Y-64815559D01*
X163965890Y-64670569D01*
X163714000Y-64619560D01*
X161914000Y-64619560D01*
X161678683Y-64663838D01*
X161462559Y-64802910D01*
X161317569Y-65015110D01*
X161266560Y-65267000D01*
X161266560Y-67067000D01*
X161310838Y-67302317D01*
X161449910Y-67518441D01*
X161662110Y-67663431D01*
X161914000Y-67714440D01*
X162132767Y-67714440D01*
X162276599Y-67929701D01*
X162689000Y-68342102D01*
X162689000Y-72948154D01*
X162580629Y-72992932D01*
X162412387Y-73160880D01*
X162412162Y-73159683D01*
X162273090Y-72943559D01*
X162060890Y-72798569D01*
X161809000Y-72747560D01*
X160009000Y-72747560D01*
X159773683Y-72791838D01*
X159557559Y-72930910D01*
X159412569Y-73143110D01*
X159361560Y-73395000D01*
X159361560Y-75195000D01*
X159405838Y-75430317D01*
X159544910Y-75646441D01*
X159641833Y-75712665D01*
X157704599Y-77649899D01*
X157539852Y-77896461D01*
X157482000Y-78187300D01*
X157482000Y-79986560D01*
X157342000Y-79986560D01*
X157106683Y-80030838D01*
X156890559Y-80169910D01*
X156745569Y-80382110D01*
X156694560Y-80634000D01*
X156694560Y-82434000D01*
X156738838Y-82669317D01*
X156877910Y-82885441D01*
X157090110Y-83030431D01*
X157121587Y-83036805D01*
X157101000Y-83140300D01*
X157101000Y-87172154D01*
X156992629Y-87216932D01*
X156824387Y-87384880D01*
X156824162Y-87383683D01*
X156685090Y-87167559D01*
X156472890Y-87022569D01*
X156221000Y-86971560D01*
X154421000Y-86971560D01*
X154185683Y-87015838D01*
X153969559Y-87154910D01*
X153824569Y-87367110D01*
X153773560Y-87619000D01*
X153773560Y-89419000D01*
X153817838Y-89654317D01*
X153956910Y-89870441D01*
X154053833Y-89936665D01*
X151958198Y-92032300D01*
X144651000Y-92032300D01*
X144651000Y-85166846D01*
X144759371Y-85122068D01*
X145191551Y-84690643D01*
X145425733Y-84126670D01*
X145426265Y-83516009D01*
X145193068Y-82951629D01*
X144761643Y-82519449D01*
X144651000Y-82473506D01*
X144651000Y-78314300D01*
X144607232Y-78094267D01*
X144593148Y-78023460D01*
X144428401Y-77776899D01*
X143761565Y-77110063D01*
X143845441Y-77056090D01*
X143990431Y-76843890D01*
X143994567Y-76823466D01*
X144163357Y-76992551D01*
X144727330Y-77226733D01*
X145337991Y-77227265D01*
X145902371Y-76994068D01*
X146334551Y-76562643D01*
X146568733Y-75998670D01*
X146569265Y-75388009D01*
X146336068Y-74823629D01*
X145904643Y-74391449D01*
X145794000Y-74345506D01*
X145794000Y-69099109D01*
X145972991Y-69099265D01*
X146537371Y-68866068D01*
X146969551Y-68434643D01*
X147203733Y-67870670D01*
X147204265Y-67260009D01*
X146971068Y-66695629D01*
X146539643Y-66263449D01*
X146111500Y-66085669D01*
X146111500Y-62248800D01*
X146053648Y-61957961D01*
X145888901Y-61711399D01*
X144396565Y-60219063D01*
X144480441Y-60165090D01*
X144625431Y-59952890D01*
X144629567Y-59932466D01*
X144798357Y-60101551D01*
X145362330Y-60335733D01*
X145972991Y-60336265D01*
X146537371Y-60103068D01*
X146969551Y-59671643D01*
X147203733Y-59107670D01*
X147204265Y-58497009D01*
X146971068Y-57932629D01*
X146539643Y-57500449D01*
X145975670Y-57266267D01*
X145365009Y-57265735D01*
X144800629Y-57498932D01*
X144632387Y-57666880D01*
X144632162Y-57665683D01*
X144493090Y-57449559D01*
X144280890Y-57304569D01*
X144029000Y-57253560D01*
X142229000Y-57253560D01*
X141993683Y-57297838D01*
X141777559Y-57436910D01*
X141632569Y-57649110D01*
X141581560Y-57901000D01*
X141581560Y-59701000D01*
X141625838Y-59936317D01*
X141764910Y-60152441D01*
X141977110Y-60297431D01*
X142229000Y-60348440D01*
X142447767Y-60348440D01*
X142591599Y-60563701D01*
X144591500Y-62563602D01*
X144591500Y-66365492D01*
X144493090Y-66212559D01*
X144280890Y-66067569D01*
X144029000Y-66016560D01*
X142229000Y-66016560D01*
X141993683Y-66060838D01*
X141777559Y-66199910D01*
X141632569Y-66412110D01*
X141581560Y-66664000D01*
X141581560Y-68464000D01*
X141625838Y-68699317D01*
X141764910Y-68915441D01*
X141977110Y-69060431D01*
X142229000Y-69111440D01*
X144029000Y-69111440D01*
X144264317Y-69067162D01*
X144274000Y-69060931D01*
X144274000Y-74345154D01*
X144165629Y-74389932D01*
X143997387Y-74557880D01*
X143997162Y-74556683D01*
X143858090Y-74340559D01*
X143645890Y-74195569D01*
X143394000Y-74144560D01*
X141594000Y-74144560D01*
X141358683Y-74188838D01*
X141142559Y-74327910D01*
X140997569Y-74540110D01*
X140946560Y-74792000D01*
X140946560Y-75544600D01*
X130554000Y-75544600D01*
X130554000Y-74181472D01*
X130967551Y-73768643D01*
X131201733Y-73204670D01*
X131202265Y-72594009D01*
X130969068Y-72029629D01*
X130537643Y-71597449D01*
X130427000Y-71551506D01*
X130427000Y-70440300D01*
X130369148Y-70149461D01*
X130369148Y-70149460D01*
X130204401Y-69902899D01*
X127505565Y-67204063D01*
X127589441Y-67150090D01*
X127734431Y-66937890D01*
X127738567Y-66917466D01*
X127907357Y-67086551D01*
X128471330Y-67320733D01*
X129081991Y-67321265D01*
X129646371Y-67088068D01*
X130078551Y-66656643D01*
X130312733Y-66092670D01*
X130313265Y-65482009D01*
X130080068Y-64917629D01*
X129648643Y-64485449D01*
X129084670Y-64251267D01*
X128474009Y-64250735D01*
X127909629Y-64483932D01*
X127741387Y-64651880D01*
X127741162Y-64650683D01*
X127602090Y-64434559D01*
X127389890Y-64289569D01*
X127138000Y-64238560D01*
X125338000Y-64238560D01*
X125102683Y-64282838D01*
X124886559Y-64421910D01*
X124741569Y-64634110D01*
X124690560Y-64886000D01*
X110685578Y-64886000D01*
X113239960Y-62514075D01*
X114295055Y-61670000D01*
X114707000Y-61670000D01*
X115256000Y-62402000D01*
X115293770Y-62435865D01*
X115321954Y-62478046D01*
X115395980Y-62527508D01*
X115462260Y-62586936D01*
X115510113Y-62603769D01*
X115552295Y-62631954D01*
X115639610Y-62649322D01*
X115723591Y-62678864D01*
X115774245Y-62676103D01*
X115824000Y-62686000D01*
X115911318Y-62668631D01*
X116000208Y-62663786D01*
X116045949Y-62641851D01*
X116095705Y-62631954D01*
X116169727Y-62582494D01*
X116250000Y-62544000D01*
X116283865Y-62506230D01*
X116326046Y-62478046D01*
X116580046Y-62224046D01*
X119100761Y-59703330D01*
X120848930Y-58204899D01*
X122027378Y-57262142D01*
X122903655Y-56911631D01*
X122914798Y-56917203D01*
X123062957Y-57213521D01*
X123132726Y-57303418D01*
X123195954Y-57398046D01*
X123217167Y-57412220D01*
X123232807Y-57432372D01*
X123331673Y-57488730D01*
X123426295Y-57551954D01*
X123451314Y-57556931D01*
X123473478Y-57569565D01*
X123586383Y-57583798D01*
X123698000Y-57606000D01*
X123723023Y-57601023D01*
X123748331Y-57604213D01*
X123858087Y-57574156D01*
X123969705Y-57551954D01*
X123990916Y-57537781D01*
X124015522Y-57531043D01*
X124105422Y-57461271D01*
X124200046Y-57398046D01*
X125957167Y-55640925D01*
X129038078Y-53034000D01*
X129170783Y-53034000D01*
X129613072Y-53181429D01*
X130242000Y-54020000D01*
X130279770Y-54053865D01*
X130307954Y-54096046D01*
X130381980Y-54145508D01*
X130448260Y-54204936D01*
X130496113Y-54221769D01*
X130538295Y-54249954D01*
X130625610Y-54267322D01*
X130709591Y-54296864D01*
X130760245Y-54294103D01*
X130810000Y-54304000D01*
X131318000Y-54304000D01*
X131369776Y-54293701D01*
X131422500Y-54296267D01*
X131504389Y-54266925D01*
X131589705Y-54249954D01*
X131633596Y-54220627D01*
X131683292Y-54202820D01*
X132911972Y-53465612D01*
X134577734Y-52751714D01*
X135536366Y-52559987D01*
X136334479Y-52959044D01*
X136426259Y-52984178D01*
X136514214Y-53020502D01*
X136558734Y-53020455D01*
X136601669Y-53032213D01*
X136696082Y-53020312D01*
X136791242Y-53020212D01*
X138061242Y-52766212D01*
X138148445Y-52729984D01*
X138239522Y-52705043D01*
X139654744Y-51997432D01*
X141566064Y-51758517D01*
X141618247Y-51741183D01*
X141673052Y-51736682D01*
X143451052Y-51228682D01*
X143548530Y-51178595D01*
X143649837Y-51136756D01*
X144232971Y-50748000D01*
X151333543Y-50748000D01*
X152947532Y-50978570D01*
G36*
X190373000Y-131953000D02*
X190393000Y-131953000D01*
X190393000Y-132207000D01*
X190373000Y-132207000D01*
X190373000Y-132227000D01*
X190119000Y-132227000D01*
X190119000Y-132207000D01*
X190099000Y-132207000D01*
X190099000Y-131953000D01*
X190119000Y-131953000D01*
X190119000Y-131933000D01*
X190373000Y-131933000D01*
X190373000Y-131953000D01*
X190373000Y-131953000D01*
G37*
X190373000Y-131953000D02*
X190393000Y-131953000D01*
X190393000Y-132207000D01*
X190373000Y-132207000D01*
X190373000Y-132227000D01*
X190119000Y-132227000D01*
X190119000Y-132207000D01*
X190099000Y-132207000D01*
X190099000Y-131953000D01*
X190119000Y-131953000D01*
X190119000Y-131933000D01*
X190373000Y-131933000D01*
X190373000Y-131953000D01*
M02*
