M48
;DRILL file {KiCad 4.0.6} date 11/09/17 18:58:01
;FORMAT={2:4/ absolute / inch / suppress trailing zeros}
FMAT,2
INCH,LZ
T1C0.016
T2C0.031
T3C0.035
T4C0.039
T5C0.126
%
G90
G05
M72
T1
X043316Y-056202
X060113Y-053578
X064277Y-055241
X06542Y-058267
X0664Y-055891
X070317Y-051073
X070861Y-058521
X072829Y-054578
T2
X041488Y-052362
X044488Y-052362
X044783Y-05
X044783Y-050984
X070197Y-053543
X070197Y-056543
X071197Y-053543
X071197Y-056543
X072197Y-053543
X072197Y-056543
X073197Y-053543
X073197Y-056543
X074197Y-053543
X074197Y-056543
X075197Y-053543
X075197Y-056543
X076197Y-053543
X076197Y-056543
X077197Y-053543
X077197Y-056543
T3
X0409Y-0348
X0419Y-0348
X0422Y-0272
X0422Y-0363
X0432Y-0272
X0432Y-0363
X0436Y-0289
X0437Y-0376
X0446Y-0289
X0447Y-0376
X0448Y-0307
X0454Y-0392
X0458Y-024
X0458Y-0307
X0464Y-0392
X0468Y-024
X0469Y-0328
X0477Y-041
X0479Y-026
X0479Y-0328
X0487Y-041
X0489Y-026
X0489Y-0359
X0499Y-0359
X05Y-0287
X051Y-0287
X0518Y-0313
X0528Y-0313
X054Y-0343
X055Y-0343
X056Y-0219
X0563Y-0245
X057Y-0219
X0571Y-027
X0573Y-0245
X0576Y-0292
X0581Y-027
X0584Y-0321
X0586Y-0292
X0594Y-0321
X071216Y-0505
X071216Y-051799
X0722Y-0505
X0722Y-051799
X073184Y-0505
X073184Y-051799
T4
X040339Y-054118
X040339Y-055118
X041339Y-054118
X041339Y-055118
X042339Y-054118
X042339Y-055118
X043339Y-054118
X043339Y-055118
X044339Y-054118
X044339Y-055118
X0704Y-049
X0714Y-049
T5
X046457Y-052165
X046457Y-057087
X067717Y-052165
X067717Y-057087
T0
M30
