G04 #@! TF.FileFunction,Profile,NP*
%FSLAX46Y46*%
G04 Gerber Fmt 4.6, Leading zero omitted, Abs format (unit mm)*
G04 Created by KiCad (PCBNEW 4.0.6) date 11/09/17 18:57:56*
%MOMM*%
%LPD*%
G01*
G04 APERTURE LIST*
%ADD10C,0.100000*%
%ADD11C,0.150000*%
G04 APERTURE END LIST*
D10*
D11*
X179324000Y-114300000D02*
X180086000Y-115062000D01*
X179832000Y-110998000D02*
X179324000Y-114300000D01*
X180086000Y-106680000D02*
X179832000Y-110998000D01*
X180086000Y-105410000D02*
X180086000Y-106680000D01*
X180340000Y-103632000D02*
X180086000Y-105410000D01*
X181102000Y-101092000D02*
X180340000Y-103632000D01*
X120904000Y-114554000D02*
X120650000Y-115062000D01*
X117348000Y-109982000D02*
X120904000Y-114554000D01*
X114808000Y-106426000D02*
X117348000Y-109982000D01*
X109728000Y-101600000D02*
X114808000Y-106426000D01*
X102108000Y-92964000D02*
X109728000Y-101600000D01*
X100838000Y-90932000D02*
X102108000Y-92964000D01*
X100584000Y-87122000D02*
X100838000Y-90932000D01*
X101092000Y-84582000D02*
X100584000Y-87122000D01*
X102108000Y-83820000D02*
X101092000Y-84582000D01*
X105918000Y-83566000D02*
X102108000Y-83820000D01*
X109220000Y-84836000D02*
X105918000Y-83566000D01*
X112014000Y-86106000D02*
X109220000Y-84836000D01*
X105664000Y-76962000D02*
X112014000Y-86106000D01*
X103632000Y-72136000D02*
X105664000Y-76962000D01*
X102616000Y-69342000D02*
X103632000Y-72136000D01*
X102616000Y-67310000D02*
X102616000Y-69342000D01*
X102870000Y-66294000D02*
X102616000Y-67310000D01*
X105156000Y-63754000D02*
X102870000Y-66294000D01*
X107950000Y-63246000D02*
X105156000Y-63754000D01*
X110236000Y-64008000D02*
X107950000Y-63246000D01*
X111506000Y-64770000D02*
X110236000Y-64008000D01*
X111252000Y-63754000D02*
X111506000Y-64770000D01*
X110236000Y-61722000D02*
X111252000Y-63754000D01*
X110490000Y-59436000D02*
X110236000Y-61722000D01*
X112014000Y-56896000D02*
X110490000Y-59436000D01*
X115824000Y-55372000D02*
X112014000Y-56896000D01*
X119634000Y-55118000D02*
X115824000Y-55372000D01*
X122936000Y-56388000D02*
X119634000Y-55118000D01*
X130302000Y-62484000D02*
X122936000Y-56388000D01*
X135382000Y-69088000D02*
X130302000Y-62484000D01*
X138176000Y-73152000D02*
X135382000Y-69088000D01*
X140462000Y-77216000D02*
X138176000Y-73152000D01*
X140716000Y-76454000D02*
X140462000Y-77216000D01*
X140208000Y-73914000D02*
X140716000Y-76454000D01*
X139192000Y-70866000D02*
X140208000Y-73914000D01*
X137922000Y-68072000D02*
X139192000Y-70866000D01*
X136652000Y-63246000D02*
X137922000Y-68072000D01*
X136398000Y-59182000D02*
X136652000Y-63246000D01*
X136398000Y-56642000D02*
X136398000Y-59182000D01*
X137160000Y-53086000D02*
X136398000Y-56642000D01*
X138938000Y-50800000D02*
X137160000Y-53086000D01*
X141478000Y-50038000D02*
X138938000Y-50800000D01*
X145288000Y-50038000D02*
X141478000Y-50038000D01*
X147574000Y-50292000D02*
X145288000Y-50038000D01*
X150114000Y-51816000D02*
X147574000Y-50292000D01*
X152400000Y-57404000D02*
X150114000Y-51816000D01*
X155194000Y-70866000D02*
X152400000Y-57404000D01*
X156972000Y-78232000D02*
X155194000Y-70866000D01*
X158750000Y-86868000D02*
X156972000Y-78232000D01*
X161036000Y-91694000D02*
X158750000Y-86868000D01*
X162814000Y-94996000D02*
X161036000Y-91694000D01*
X164084000Y-95758000D02*
X162814000Y-94996000D01*
X165354000Y-95758000D02*
X164084000Y-95758000D01*
X166370000Y-94996000D02*
X165354000Y-95758000D01*
X166116000Y-94488000D02*
X166370000Y-94996000D01*
X165608000Y-93472000D02*
X166116000Y-94488000D01*
X165862000Y-91948000D02*
X165608000Y-93472000D01*
X166116000Y-91186000D02*
X165862000Y-91948000D01*
X167640000Y-89408000D02*
X166116000Y-91186000D01*
X167894000Y-88900000D02*
X167640000Y-89408000D01*
X166878000Y-87884000D02*
X167894000Y-88900000D01*
X165862000Y-86614000D02*
X166878000Y-87884000D01*
X165862000Y-84582000D02*
X165862000Y-86614000D01*
X166370000Y-83820000D02*
X165862000Y-84582000D01*
X167132000Y-83058000D02*
X166370000Y-83820000D01*
X168656000Y-82296000D02*
X167132000Y-83058000D01*
X166878000Y-73914000D02*
X168656000Y-82296000D01*
X166624000Y-71628000D02*
X166878000Y-73914000D01*
X166878000Y-70358000D02*
X166624000Y-71628000D01*
X170688000Y-67564000D02*
X166878000Y-70358000D01*
X174244000Y-65278000D02*
X170688000Y-67564000D01*
X175260000Y-65024000D02*
X174244000Y-65278000D01*
X177292000Y-66548000D02*
X175260000Y-65024000D01*
X179832000Y-69342000D02*
X177292000Y-66548000D01*
X183388000Y-74168000D02*
X179832000Y-69342000D01*
X186436000Y-72390000D02*
X183388000Y-74168000D01*
X187706000Y-71374000D02*
X186436000Y-72390000D01*
X188468000Y-72136000D02*
X187706000Y-71374000D01*
X189992000Y-73914000D02*
X188468000Y-72136000D01*
X189992000Y-74930000D02*
X189992000Y-73914000D01*
X189484000Y-76200000D02*
X189992000Y-74930000D01*
X187706000Y-77470000D02*
X189484000Y-76200000D01*
X184658000Y-79502000D02*
X187706000Y-77470000D01*
X186690000Y-81534000D02*
X184658000Y-79502000D01*
X187960000Y-80772000D02*
X186690000Y-81534000D01*
X189484000Y-80518000D02*
X187960000Y-80772000D01*
X190246000Y-80518000D02*
X189484000Y-80518000D01*
X190754000Y-80772000D02*
X190246000Y-80518000D01*
X191008000Y-81534000D02*
X190754000Y-80772000D01*
X190754000Y-82296000D02*
X191008000Y-81534000D01*
X189230000Y-84074000D02*
X190754000Y-82296000D01*
X189738000Y-84582000D02*
X189230000Y-84074000D01*
X190500000Y-85090000D02*
X189738000Y-84582000D01*
X190754000Y-85852000D02*
X190500000Y-85090000D01*
X190500000Y-86360000D02*
X190754000Y-85852000D01*
X189484000Y-87376000D02*
X190500000Y-86360000D01*
X188468000Y-88900000D02*
X189484000Y-87376000D01*
X188214000Y-91694000D02*
X188468000Y-88900000D01*
X188214000Y-96012000D02*
X188214000Y-91694000D01*
X188214000Y-98552000D02*
X188214000Y-96012000D01*
X187960000Y-98552000D02*
X188214000Y-98552000D01*
X186436000Y-98552000D02*
X187960000Y-98552000D01*
X184658000Y-98044000D02*
X186436000Y-98552000D01*
X183896000Y-99060000D02*
X184658000Y-98044000D01*
X182880000Y-99568000D02*
X183896000Y-99060000D01*
X182118000Y-99314000D02*
X182880000Y-99568000D01*
X181610000Y-98806000D02*
X182118000Y-99314000D01*
X181102000Y-101092000D02*
X181610000Y-98806000D01*
X105000000Y-130000000D02*
X120650000Y-115062000D01*
X195000000Y-130000000D02*
X180086000Y-115062000D01*
X105000000Y-130000000D02*
G75*
G03X100000000Y-135000000I0J-5000000D01*
G01*
X200000000Y-135000000D02*
G75*
G03X195000000Y-130000000I-5000000J0D01*
G01*
X100000000Y-140000000D02*
X100000000Y-135000000D01*
X200000000Y-140000000D02*
X200000000Y-135000000D01*
X190000000Y-150000000D02*
X110000000Y-150000000D01*
X100000000Y-140000000D02*
G75*
G03X110000000Y-150000000I10000000J0D01*
G01*
X190000000Y-150000000D02*
G75*
G03X200000000Y-140000000I0J10000000D01*
G01*
M02*
