G04 #@! TF.FileFunction,Soldermask,Top*
%FSLAX46Y46*%
G04 Gerber Fmt 4.6, Leading zero omitted, Abs format (unit mm)*
G04 Created by KiCad (PCBNEW 4.0.6) date 11/09/17 18:57:56*
%MOMM*%
%LPD*%
G01*
G04 APERTURE LIST*
%ADD10C,0.100000*%
%ADD11C,4.000000*%
%ADD12R,1.800000X1.800000*%
%ADD13C,1.800000*%
%ADD14C,1.600000*%
%ADD15O,1.600000X1.600000*%
%ADD16C,1.500000*%
%ADD17R,1.600000X1.600000*%
%ADD18R,1.700000X1.700000*%
%ADD19O,1.700000X1.700000*%
%ADD20R,1.000000X1.000000*%
%ADD21R,1.000000X0.254000*%
G04 APERTURE END LIST*
D10*
D11*
X172000000Y-145000000D03*
X118000000Y-132500000D03*
X172000000Y-132500000D03*
D12*
X103886000Y-88392000D03*
D13*
X106426000Y-88392000D03*
D12*
X110998000Y-95504000D03*
D13*
X113538000Y-95504000D03*
D12*
X121158000Y-104140000D03*
D13*
X123698000Y-104140000D03*
D12*
X107188000Y-92202000D03*
D13*
X109728000Y-92202000D03*
D12*
X115316000Y-99568000D03*
D13*
X117856000Y-99568000D03*
D12*
X107188000Y-69088000D03*
D13*
X109728000Y-69088000D03*
D12*
X113792000Y-77978000D03*
D13*
X116332000Y-77978000D03*
D12*
X124206000Y-91186000D03*
D13*
X126746000Y-91186000D03*
D12*
X110744000Y-73406000D03*
D13*
X113284000Y-73406000D03*
D12*
X119126000Y-83312000D03*
D13*
X121666000Y-83312000D03*
D12*
X116332000Y-60960000D03*
D13*
X118872000Y-60960000D03*
D12*
X127000000Y-72898000D03*
D13*
X129540000Y-72898000D03*
D12*
X137160000Y-87122000D03*
D13*
X139700000Y-87122000D03*
D12*
X121666000Y-66040000D03*
D13*
X124206000Y-66040000D03*
D12*
X131572000Y-79502000D03*
D13*
X134112000Y-79502000D03*
D12*
X142240000Y-55626000D03*
D13*
X144780000Y-55626000D03*
D12*
X145034000Y-68580000D03*
D13*
X147574000Y-68580000D03*
D12*
X148336000Y-81534000D03*
D13*
X150876000Y-81534000D03*
D12*
X143002000Y-62230000D03*
D13*
X145542000Y-62230000D03*
D12*
X146304000Y-74168000D03*
D13*
X148844000Y-74168000D03*
D14*
X105380000Y-133000000D03*
D15*
X113000000Y-133000000D03*
D16*
X183388000Y-128270000D03*
X185888000Y-128270000D03*
X180888000Y-128270000D03*
X180888000Y-131570000D03*
X183388000Y-131570000D03*
X185888000Y-131570000D03*
D17*
X178300000Y-143620000D03*
D15*
X196080000Y-136000000D03*
X180840000Y-143620000D03*
X193540000Y-136000000D03*
X183380000Y-143620000D03*
X191000000Y-136000000D03*
X185920000Y-143620000D03*
X188460000Y-136000000D03*
X188460000Y-143620000D03*
X185920000Y-136000000D03*
X191000000Y-143620000D03*
X183380000Y-136000000D03*
X193540000Y-143620000D03*
X180840000Y-136000000D03*
X196080000Y-143620000D03*
X178300000Y-136000000D03*
D18*
X178816000Y-124460000D03*
D19*
X181356000Y-124460000D03*
D14*
X113750000Y-129500000D03*
X113750000Y-127000000D03*
D11*
X118000000Y-145000000D03*
D18*
X102460000Y-140000000D03*
D19*
X102460000Y-137460000D03*
X105000000Y-140000000D03*
X105000000Y-137460000D03*
X107540000Y-140000000D03*
X107540000Y-137460000D03*
X110080000Y-140000000D03*
X110080000Y-137460000D03*
X112620000Y-140000000D03*
X112620000Y-137460000D03*
D20*
X183000000Y-148000000D03*
X181000000Y-148000000D03*
D21*
X182000000Y-148000000D03*
D20*
X188000000Y-148000000D03*
X190000000Y-148000000D03*
D21*
X189000000Y-148000000D03*
M02*
