G04 #@! TF.FileFunction,Soldermask,Bot*
%FSLAX46Y46*%
G04 Gerber Fmt 4.6, Leading zero omitted, Abs format (unit mm)*
G04 Created by KiCad (PCBNEW 4.0.6) date 11/09/17 18:57:56*
%MOMM*%
%LPD*%
G01*
G04 APERTURE LIST*
%ADD10C,0.100000*%
%ADD11C,0.010000*%
%ADD12C,4.000000*%
%ADD13R,1.800000X1.800000*%
%ADD14C,1.800000*%
%ADD15C,1.600000*%
%ADD16O,1.600000X1.600000*%
%ADD17C,1.500000*%
%ADD18R,1.600000X1.600000*%
%ADD19R,1.700000X1.700000*%
%ADD20O,1.700000X1.700000*%
G04 APERTURE END LIST*
D10*
D11*
G36*
X150531476Y-108599921D02*
X150439698Y-108607468D01*
X150362871Y-108619599D01*
X150347807Y-108623116D01*
X150251216Y-108654087D01*
X150145300Y-108699133D01*
X150038430Y-108754111D01*
X149938982Y-108814877D01*
X149889956Y-108849661D01*
X149768909Y-108951671D01*
X149647468Y-109074196D01*
X149529534Y-109212719D01*
X149419010Y-109362720D01*
X149338299Y-109488366D01*
X149296679Y-109568089D01*
X149276093Y-109633872D01*
X149276503Y-109685953D01*
X149297867Y-109724568D01*
X149298124Y-109724825D01*
X149312961Y-109731923D01*
X149350226Y-109746682D01*
X149408316Y-109768533D01*
X149485628Y-109796905D01*
X149580562Y-109831225D01*
X149691516Y-109870923D01*
X149816887Y-109915429D01*
X149955074Y-109964171D01*
X150104474Y-110016578D01*
X150263487Y-110072080D01*
X150430509Y-110130105D01*
X150589666Y-110185157D01*
X150761629Y-110244607D01*
X150926385Y-110301747D01*
X151082401Y-110356034D01*
X151228142Y-110406928D01*
X151362075Y-110453885D01*
X151482665Y-110496364D01*
X151588379Y-110533824D01*
X151677684Y-110565722D01*
X151749044Y-110591518D01*
X151800927Y-110610669D01*
X151831798Y-110622633D01*
X151840235Y-110626856D01*
X151825239Y-110626246D01*
X151786659Y-110623499D01*
X151726209Y-110618761D01*
X151645604Y-110612179D01*
X151546556Y-110603899D01*
X151430779Y-110594066D01*
X151299988Y-110582827D01*
X151155895Y-110570328D01*
X151000215Y-110556716D01*
X150834662Y-110542136D01*
X150660948Y-110526735D01*
X150537990Y-110515774D01*
X150358796Y-110499811D01*
X150185986Y-110484508D01*
X150021334Y-110470017D01*
X149866618Y-110456489D01*
X149723613Y-110444077D01*
X149594094Y-110432934D01*
X149479839Y-110423212D01*
X149382623Y-110415062D01*
X149304222Y-110408638D01*
X149246412Y-110404091D01*
X149210968Y-110401575D01*
X149200764Y-110401100D01*
X149147517Y-110406109D01*
X149112655Y-110423134D01*
X149090815Y-110455174D01*
X149087204Y-110464597D01*
X149082647Y-110483557D01*
X149074014Y-110525311D01*
X149061720Y-110587657D01*
X149046184Y-110668388D01*
X149027821Y-110765302D01*
X149007050Y-110876193D01*
X148984285Y-110998857D01*
X148959945Y-111131089D01*
X148934446Y-111270686D01*
X148925676Y-111318940D01*
X148777616Y-112134650D01*
X148601258Y-112689242D01*
X148564946Y-112804428D01*
X148531154Y-112913539D01*
X148500663Y-113013914D01*
X148474255Y-113102892D01*
X148452710Y-113177813D01*
X148436808Y-113236017D01*
X148427331Y-113274843D01*
X148424900Y-113290152D01*
X148428718Y-113329033D01*
X148437996Y-113360850D01*
X148438859Y-113362551D01*
X148455849Y-113377863D01*
X148493269Y-113401301D01*
X148548045Y-113431361D01*
X148617105Y-113466537D01*
X148697374Y-113505323D01*
X148785781Y-113546214D01*
X148879251Y-113587704D01*
X148974712Y-113628289D01*
X149015450Y-113645023D01*
X149080356Y-113671402D01*
X149139116Y-113695315D01*
X149186653Y-113714693D01*
X149217892Y-113727469D01*
X149225000Y-113730397D01*
X149244172Y-113739241D01*
X149245009Y-113745793D01*
X149225183Y-113754354D01*
X149209005Y-113759972D01*
X149128213Y-113800515D01*
X149062713Y-113860224D01*
X149014025Y-113936922D01*
X148983669Y-114028430D01*
X148974417Y-114095877D01*
X148977830Y-114222554D01*
X149005709Y-114342608D01*
X149057884Y-114455610D01*
X149134188Y-114561129D01*
X149173128Y-114602851D01*
X149273650Y-114688563D01*
X149382840Y-114751972D01*
X149505024Y-114795373D01*
X149558962Y-114807737D01*
X149659096Y-114824962D01*
X149782456Y-114841743D01*
X149926868Y-114857875D01*
X150090160Y-114873150D01*
X150270159Y-114887361D01*
X150464691Y-114900301D01*
X150628350Y-114909548D01*
X150688969Y-114911925D01*
X150772069Y-114913994D01*
X150874734Y-114915756D01*
X150994046Y-114917212D01*
X151127088Y-114918364D01*
X151270945Y-114919214D01*
X151422698Y-114919762D01*
X151579432Y-114920010D01*
X151738229Y-114919959D01*
X151896173Y-114919611D01*
X152050346Y-114918968D01*
X152197832Y-114918030D01*
X152335714Y-114916799D01*
X152461075Y-114915276D01*
X152570998Y-114913463D01*
X152662566Y-114911362D01*
X152732863Y-114908972D01*
X152742454Y-114908539D01*
X152824669Y-114904144D01*
X152909154Y-114898758D01*
X152987782Y-114892953D01*
X153052425Y-114887306D01*
X153072654Y-114885208D01*
X153163468Y-114873484D01*
X153231812Y-114860100D01*
X153280612Y-114843433D01*
X153312798Y-114821863D01*
X153331299Y-114793768D01*
X153339044Y-114757526D01*
X153339800Y-114737315D01*
X153335652Y-114684446D01*
X153319948Y-114649305D01*
X153287801Y-114625114D01*
X153247507Y-114609266D01*
X153230974Y-114604563D01*
X153210873Y-114600533D01*
X153185111Y-114597108D01*
X153151594Y-114594215D01*
X153108228Y-114591784D01*
X153052920Y-114589745D01*
X152983576Y-114588026D01*
X152898102Y-114586556D01*
X152794404Y-114585266D01*
X152670390Y-114584084D01*
X152523965Y-114582939D01*
X152453975Y-114582443D01*
X151726900Y-114577408D01*
X151726900Y-114540929D01*
X151718059Y-114463748D01*
X151694261Y-114383819D01*
X151662616Y-114319858D01*
X151642059Y-114286801D01*
X151628506Y-114263774D01*
X151625300Y-114257158D01*
X151637484Y-114256387D01*
X151671979Y-114256051D01*
X151725701Y-114256133D01*
X151795563Y-114256615D01*
X151878483Y-114257481D01*
X151971374Y-114258714D01*
X152010939Y-114259310D01*
X152120009Y-114260964D01*
X152206531Y-114262048D01*
X152273356Y-114262420D01*
X152323332Y-114261934D01*
X152359309Y-114260448D01*
X152384136Y-114257819D01*
X152400662Y-114253902D01*
X152411737Y-114248555D01*
X152420210Y-114241633D01*
X152423366Y-114238534D01*
X152445407Y-114208859D01*
X152452642Y-114191587D01*
X151037733Y-114191587D01*
X151034373Y-114203043D01*
X151022414Y-114229362D01*
X151015508Y-114243226D01*
X150999266Y-114293345D01*
X150991078Y-114358181D01*
X150991168Y-114428289D01*
X150999760Y-114494224D01*
X151008787Y-114527003D01*
X151027274Y-114579400D01*
X150770662Y-114579364D01*
X150670320Y-114578866D01*
X150557915Y-114577515D01*
X150443689Y-114575482D01*
X150337882Y-114572939D01*
X150277797Y-114571071D01*
X150041543Y-114562814D01*
X150047626Y-114446524D01*
X150045708Y-114334578D01*
X150026244Y-114232811D01*
X149987344Y-114135322D01*
X149927115Y-114036213D01*
X149907347Y-114008939D01*
X149884504Y-113976064D01*
X149872485Y-113953938D01*
X149873640Y-113946968D01*
X149874439Y-113947223D01*
X149892204Y-113952490D01*
X149930347Y-113962822D01*
X149984609Y-113977096D01*
X150050731Y-113994191D01*
X150120937Y-114012097D01*
X150322153Y-114060135D01*
X150530294Y-114104392D01*
X150734554Y-114142678D01*
X150888700Y-114167654D01*
X150946285Y-114176366D01*
X150993703Y-114183808D01*
X151025887Y-114189167D01*
X151037733Y-114191587D01*
X152452642Y-114191587D01*
X152456303Y-114182848D01*
X152460374Y-114158668D01*
X152467037Y-114113076D01*
X152475881Y-114049291D01*
X152486498Y-113970530D01*
X152498476Y-113880010D01*
X152511406Y-113780950D01*
X152524877Y-113676566D01*
X152538480Y-113570077D01*
X152551805Y-113464701D01*
X152564441Y-113363654D01*
X152565348Y-113356302D01*
X151822593Y-113356302D01*
X151805822Y-113417373D01*
X151769345Y-113474610D01*
X151715705Y-113523340D01*
X151682450Y-113543468D01*
X151626758Y-113561222D01*
X151567747Y-113556692D01*
X151514665Y-113536699D01*
X151455043Y-113496256D01*
X151411455Y-113442937D01*
X151386602Y-113381838D01*
X151383188Y-113318058D01*
X151387383Y-113296700D01*
X151414531Y-113235647D01*
X151458310Y-113182834D01*
X151512881Y-113143146D01*
X151572405Y-113121474D01*
X151599802Y-113118900D01*
X151662901Y-113130822D01*
X151722482Y-113163630D01*
X151773099Y-113212880D01*
X151809302Y-113274130D01*
X151817113Y-113296071D01*
X151822593Y-113356302D01*
X152565348Y-113356302D01*
X152575979Y-113270156D01*
X152586007Y-113187422D01*
X152594118Y-113118672D01*
X152599020Y-113074960D01*
X150744756Y-113074960D01*
X150741308Y-113142007D01*
X150712612Y-113210159D01*
X150706098Y-113220439D01*
X150667907Y-113261595D01*
X150616486Y-113295769D01*
X150561614Y-113317394D01*
X150527585Y-113322089D01*
X150492853Y-113316478D01*
X150450736Y-113302415D01*
X150436928Y-113296253D01*
X150394936Y-113268405D01*
X150357185Y-113231458D01*
X150349854Y-113221803D01*
X150315823Y-113154825D01*
X150307097Y-113089145D01*
X150323588Y-113025429D01*
X150365209Y-112964342D01*
X150386559Y-112942909D01*
X150449153Y-112899166D01*
X150513569Y-112880528D01*
X150578021Y-112886957D01*
X150640722Y-112918417D01*
X150676429Y-112948961D01*
X150723086Y-113010214D01*
X150744756Y-113074960D01*
X152599020Y-113074960D01*
X152599899Y-113067123D01*
X152602942Y-113035992D01*
X152603310Y-113029252D01*
X152596825Y-112983561D01*
X152574974Y-112952115D01*
X152533768Y-112930485D01*
X152507225Y-112922616D01*
X152485570Y-112917519D01*
X152441015Y-112907400D01*
X152375471Y-112892682D01*
X152290846Y-112873789D01*
X152189050Y-112851145D01*
X152157204Y-112844079D01*
X149697893Y-112844079D01*
X149692619Y-112905471D01*
X149667808Y-112965242D01*
X149625633Y-113018263D01*
X149568270Y-113059403D01*
X149564910Y-113061123D01*
X149503115Y-113084335D01*
X149447619Y-113086010D01*
X149391140Y-113065713D01*
X149363090Y-113049050D01*
X149306910Y-112999387D01*
X149272080Y-112940546D01*
X149258420Y-112876828D01*
X149265750Y-112812532D01*
X149293889Y-112751956D01*
X149342657Y-112699402D01*
X149378764Y-112675159D01*
X149444417Y-112651467D01*
X149510927Y-112651323D01*
X149574447Y-112673315D01*
X149631125Y-112716031D01*
X149677114Y-112778060D01*
X149681454Y-112786194D01*
X149697893Y-112844079D01*
X152157204Y-112844079D01*
X152071994Y-112825173D01*
X151941586Y-112796298D01*
X151799737Y-112764943D01*
X151648356Y-112731531D01*
X151489352Y-112696488D01*
X151353867Y-112666666D01*
X151192371Y-112631041D01*
X151038621Y-112596934D01*
X150894340Y-112564739D01*
X150761248Y-112534847D01*
X150641066Y-112507653D01*
X150535514Y-112483549D01*
X150446313Y-112462927D01*
X150375185Y-112446180D01*
X150323849Y-112433701D01*
X150294026Y-112425883D01*
X150287067Y-112423146D01*
X150302973Y-112423724D01*
X150342344Y-112426437D01*
X150403347Y-112431130D01*
X150484150Y-112437646D01*
X150582922Y-112445833D01*
X150697829Y-112455536D01*
X150827041Y-112466598D01*
X150968725Y-112478867D01*
X151121048Y-112492187D01*
X151282179Y-112506403D01*
X151450286Y-112521361D01*
X151452637Y-112521571D01*
X151620668Y-112536569D01*
X151781630Y-112550902D01*
X151933706Y-112564412D01*
X152075074Y-112576937D01*
X152203917Y-112588317D01*
X152318413Y-112598393D01*
X152416745Y-112607004D01*
X152497092Y-112613990D01*
X152557635Y-112619192D01*
X152596555Y-112622448D01*
X152612032Y-112623599D01*
X152612089Y-112623600D01*
X152632490Y-112615219D01*
X152658499Y-112594805D01*
X152660928Y-112592427D01*
X152692100Y-112561254D01*
X152692150Y-112417363D01*
X150235492Y-112417363D01*
X150223009Y-112419397D01*
X150206537Y-112417062D01*
X150206340Y-112412727D01*
X150223338Y-112409695D01*
X150230682Y-112411724D01*
X150235492Y-112417363D01*
X152692150Y-112417363D01*
X152692327Y-111910493D01*
X151535161Y-111910493D01*
X151530099Y-111977545D01*
X151500473Y-112039038D01*
X151464509Y-112079974D01*
X151402441Y-112125549D01*
X151338936Y-112145769D01*
X151273908Y-112140641D01*
X151207270Y-112110174D01*
X151199850Y-112105284D01*
X151150007Y-112059787D01*
X151114761Y-112003875D01*
X151097674Y-111944499D01*
X151098096Y-111906636D01*
X151121259Y-111834513D01*
X151123409Y-111831652D01*
X150442614Y-111831652D01*
X150432272Y-111876919D01*
X150424544Y-111896759D01*
X150385828Y-111962666D01*
X150330699Y-112010629D01*
X150298150Y-112028096D01*
X150249838Y-112046445D01*
X150209810Y-112049400D01*
X150166140Y-112036956D01*
X150145750Y-112028022D01*
X150077717Y-111985177D01*
X150030754Y-111930958D01*
X150005910Y-111868198D01*
X150004233Y-111799729D01*
X150026772Y-111728385D01*
X150031450Y-111719205D01*
X150050007Y-111676919D01*
X150061442Y-111636551D01*
X150063200Y-111620434D01*
X150065079Y-111594315D01*
X150073863Y-111588509D01*
X150087766Y-111594453D01*
X150113140Y-111601416D01*
X150154154Y-111606182D01*
X150193229Y-111607600D01*
X150274616Y-111618131D01*
X150342223Y-111649130D01*
X150394508Y-111699703D01*
X150416970Y-111737169D01*
X150437685Y-111788700D01*
X150442614Y-111831652D01*
X151123409Y-111831652D01*
X151165976Y-111775022D01*
X151211541Y-111740870D01*
X151250025Y-111720926D01*
X151285317Y-111710721D01*
X151326294Y-111709025D01*
X151381833Y-111714608D01*
X151391503Y-111715932D01*
X151439391Y-111719021D01*
X151474667Y-111714305D01*
X151480913Y-111711708D01*
X151497167Y-111705323D01*
X151502601Y-111713915D01*
X151500599Y-111741908D01*
X151502221Y-111782360D01*
X151512654Y-111827393D01*
X151515963Y-111836436D01*
X151535161Y-111910493D01*
X152692327Y-111910493D01*
X152692403Y-111693902D01*
X152692644Y-111526725D01*
X152693229Y-111372056D01*
X152694082Y-111240108D01*
X152109855Y-111240108D01*
X152104562Y-111277400D01*
X152076840Y-111345388D01*
X152032781Y-111395932D01*
X151971256Y-111429712D01*
X151891136Y-111447410D01*
X151817328Y-111450526D01*
X151706952Y-111448850D01*
X151711958Y-111414329D01*
X151709901Y-111383704D01*
X151699315Y-111341237D01*
X151688035Y-111310012D01*
X151672017Y-111268020D01*
X151666012Y-111238103D01*
X151668915Y-111209497D01*
X151675270Y-111185782D01*
X151699487Y-111135350D01*
X151722512Y-111106460D01*
X151011456Y-111106460D01*
X151008008Y-111173507D01*
X150979312Y-111241659D01*
X150972798Y-111251939D01*
X150934607Y-111293095D01*
X150883186Y-111327269D01*
X150828314Y-111348894D01*
X150794285Y-111353589D01*
X150760031Y-111347994D01*
X150717693Y-111333896D01*
X150701372Y-111326661D01*
X150644083Y-111286587D01*
X150602270Y-111232273D01*
X150578558Y-111169415D01*
X150575576Y-111103709D01*
X150583110Y-111070244D01*
X150607095Y-111026086D01*
X150619623Y-111011871D01*
X149940647Y-111011871D01*
X149937280Y-111079556D01*
X149909325Y-111146185D01*
X149902643Y-111156400D01*
X149891696Y-111184805D01*
X149885755Y-111224543D01*
X149885400Y-111236068D01*
X149884711Y-111269677D01*
X149880120Y-111282446D01*
X149867846Y-111278934D01*
X149856044Y-111271450D01*
X149817662Y-111258144D01*
X149758998Y-111254053D01*
X149751269Y-111254197D01*
X149680844Y-111249327D01*
X149624210Y-111228153D01*
X149573201Y-111187142D01*
X149557779Y-111170445D01*
X149518058Y-111108418D01*
X149502283Y-111042801D01*
X149510039Y-110977192D01*
X149540908Y-110915188D01*
X149593578Y-110861078D01*
X149657213Y-110825700D01*
X149723511Y-110814868D01*
X149789636Y-110828334D01*
X149852751Y-110865847D01*
X149874901Y-110885900D01*
X149919746Y-110946271D01*
X149940647Y-111011871D01*
X150619623Y-111011871D01*
X150646431Y-110981455D01*
X150693368Y-110943351D01*
X150740156Y-110918776D01*
X150755435Y-110914596D01*
X150822847Y-110914435D01*
X150888099Y-110938285D01*
X150943129Y-110980461D01*
X150989786Y-111041714D01*
X151011456Y-111106460D01*
X151722512Y-111106460D01*
X151738480Y-111086425D01*
X151785361Y-111045764D01*
X151833241Y-111020124D01*
X151848306Y-111016070D01*
X151913426Y-111015389D01*
X151975168Y-111035254D01*
X152029608Y-111071662D01*
X152072819Y-111120608D01*
X152100876Y-111178091D01*
X152109855Y-111240108D01*
X152694082Y-111240108D01*
X152694138Y-111231513D01*
X152695347Y-111106712D01*
X152696834Y-110999272D01*
X152698577Y-110910809D01*
X152700554Y-110842941D01*
X152702743Y-110797285D01*
X152705047Y-110775750D01*
X152716212Y-110718766D01*
X152727165Y-110643355D01*
X152737216Y-110556484D01*
X152745676Y-110465121D01*
X152751853Y-110376234D01*
X152755059Y-110296790D01*
X152755353Y-110267827D01*
X152745302Y-110061997D01*
X152716061Y-109871376D01*
X152694571Y-109793361D01*
X152017966Y-109793361D01*
X152003258Y-109867277D01*
X151971074Y-109928734D01*
X151913252Y-109995893D01*
X151846289Y-110041851D01*
X151773145Y-110065457D01*
X151696778Y-110065565D01*
X151649555Y-110053486D01*
X151578719Y-110016608D01*
X151520134Y-109963445D01*
X151477184Y-109898880D01*
X151453251Y-109827799D01*
X151450384Y-109765955D01*
X151469861Y-109689450D01*
X151510761Y-109618927D01*
X151569106Y-109560574D01*
X151592890Y-109544185D01*
X151666131Y-109512741D01*
X151742627Y-109504352D01*
X151817900Y-109517881D01*
X151887470Y-109552190D01*
X151946857Y-109606142D01*
X151971472Y-109640353D01*
X152007371Y-109717819D01*
X152017966Y-109793361D01*
X152694571Y-109793361D01*
X152667861Y-109696404D01*
X152600931Y-109537522D01*
X152515503Y-109395171D01*
X152504432Y-109381784D01*
X150900243Y-109381784D01*
X150899796Y-109445759D01*
X150878424Y-109507085D01*
X150837093Y-109561951D01*
X150776774Y-109606544D01*
X150742650Y-109622664D01*
X150687221Y-109632354D01*
X150625703Y-109622337D01*
X150574603Y-109599038D01*
X150521270Y-109554225D01*
X150483859Y-109498002D01*
X150464960Y-109436268D01*
X150467159Y-109374918D01*
X150470674Y-109362234D01*
X150504416Y-109292860D01*
X150552163Y-109241244D01*
X150609875Y-109208507D01*
X150673514Y-109195772D01*
X150739042Y-109204162D01*
X150802421Y-109234798D01*
X150834486Y-109261138D01*
X150878796Y-109318973D01*
X150900243Y-109381784D01*
X152504432Y-109381784D01*
X152411807Y-109269793D01*
X152290075Y-109161827D01*
X152150536Y-109071716D01*
X152121319Y-109056286D01*
X152083758Y-109039169D01*
X152025392Y-109015202D01*
X151949516Y-108985560D01*
X151859426Y-108951414D01*
X151758416Y-108913940D01*
X151649782Y-108874310D01*
X151536819Y-108833699D01*
X151422821Y-108793279D01*
X151311083Y-108754224D01*
X151204901Y-108717708D01*
X151107569Y-108684904D01*
X151022383Y-108656986D01*
X150952638Y-108635127D01*
X150901628Y-108620501D01*
X150888700Y-108617283D01*
X150816819Y-108605637D01*
X150728007Y-108598919D01*
X150630236Y-108597042D01*
X150531476Y-108599921D01*
X150531476Y-108599921D01*
G37*
X150531476Y-108599921D02*
X150439698Y-108607468D01*
X150362871Y-108619599D01*
X150347807Y-108623116D01*
X150251216Y-108654087D01*
X150145300Y-108699133D01*
X150038430Y-108754111D01*
X149938982Y-108814877D01*
X149889956Y-108849661D01*
X149768909Y-108951671D01*
X149647468Y-109074196D01*
X149529534Y-109212719D01*
X149419010Y-109362720D01*
X149338299Y-109488366D01*
X149296679Y-109568089D01*
X149276093Y-109633872D01*
X149276503Y-109685953D01*
X149297867Y-109724568D01*
X149298124Y-109724825D01*
X149312961Y-109731923D01*
X149350226Y-109746682D01*
X149408316Y-109768533D01*
X149485628Y-109796905D01*
X149580562Y-109831225D01*
X149691516Y-109870923D01*
X149816887Y-109915429D01*
X149955074Y-109964171D01*
X150104474Y-110016578D01*
X150263487Y-110072080D01*
X150430509Y-110130105D01*
X150589666Y-110185157D01*
X150761629Y-110244607D01*
X150926385Y-110301747D01*
X151082401Y-110356034D01*
X151228142Y-110406928D01*
X151362075Y-110453885D01*
X151482665Y-110496364D01*
X151588379Y-110533824D01*
X151677684Y-110565722D01*
X151749044Y-110591518D01*
X151800927Y-110610669D01*
X151831798Y-110622633D01*
X151840235Y-110626856D01*
X151825239Y-110626246D01*
X151786659Y-110623499D01*
X151726209Y-110618761D01*
X151645604Y-110612179D01*
X151546556Y-110603899D01*
X151430779Y-110594066D01*
X151299988Y-110582827D01*
X151155895Y-110570328D01*
X151000215Y-110556716D01*
X150834662Y-110542136D01*
X150660948Y-110526735D01*
X150537990Y-110515774D01*
X150358796Y-110499811D01*
X150185986Y-110484508D01*
X150021334Y-110470017D01*
X149866618Y-110456489D01*
X149723613Y-110444077D01*
X149594094Y-110432934D01*
X149479839Y-110423212D01*
X149382623Y-110415062D01*
X149304222Y-110408638D01*
X149246412Y-110404091D01*
X149210968Y-110401575D01*
X149200764Y-110401100D01*
X149147517Y-110406109D01*
X149112655Y-110423134D01*
X149090815Y-110455174D01*
X149087204Y-110464597D01*
X149082647Y-110483557D01*
X149074014Y-110525311D01*
X149061720Y-110587657D01*
X149046184Y-110668388D01*
X149027821Y-110765302D01*
X149007050Y-110876193D01*
X148984285Y-110998857D01*
X148959945Y-111131089D01*
X148934446Y-111270686D01*
X148925676Y-111318940D01*
X148777616Y-112134650D01*
X148601258Y-112689242D01*
X148564946Y-112804428D01*
X148531154Y-112913539D01*
X148500663Y-113013914D01*
X148474255Y-113102892D01*
X148452710Y-113177813D01*
X148436808Y-113236017D01*
X148427331Y-113274843D01*
X148424900Y-113290152D01*
X148428718Y-113329033D01*
X148437996Y-113360850D01*
X148438859Y-113362551D01*
X148455849Y-113377863D01*
X148493269Y-113401301D01*
X148548045Y-113431361D01*
X148617105Y-113466537D01*
X148697374Y-113505323D01*
X148785781Y-113546214D01*
X148879251Y-113587704D01*
X148974712Y-113628289D01*
X149015450Y-113645023D01*
X149080356Y-113671402D01*
X149139116Y-113695315D01*
X149186653Y-113714693D01*
X149217892Y-113727469D01*
X149225000Y-113730397D01*
X149244172Y-113739241D01*
X149245009Y-113745793D01*
X149225183Y-113754354D01*
X149209005Y-113759972D01*
X149128213Y-113800515D01*
X149062713Y-113860224D01*
X149014025Y-113936922D01*
X148983669Y-114028430D01*
X148974417Y-114095877D01*
X148977830Y-114222554D01*
X149005709Y-114342608D01*
X149057884Y-114455610D01*
X149134188Y-114561129D01*
X149173128Y-114602851D01*
X149273650Y-114688563D01*
X149382840Y-114751972D01*
X149505024Y-114795373D01*
X149558962Y-114807737D01*
X149659096Y-114824962D01*
X149782456Y-114841743D01*
X149926868Y-114857875D01*
X150090160Y-114873150D01*
X150270159Y-114887361D01*
X150464691Y-114900301D01*
X150628350Y-114909548D01*
X150688969Y-114911925D01*
X150772069Y-114913994D01*
X150874734Y-114915756D01*
X150994046Y-114917212D01*
X151127088Y-114918364D01*
X151270945Y-114919214D01*
X151422698Y-114919762D01*
X151579432Y-114920010D01*
X151738229Y-114919959D01*
X151896173Y-114919611D01*
X152050346Y-114918968D01*
X152197832Y-114918030D01*
X152335714Y-114916799D01*
X152461075Y-114915276D01*
X152570998Y-114913463D01*
X152662566Y-114911362D01*
X152732863Y-114908972D01*
X152742454Y-114908539D01*
X152824669Y-114904144D01*
X152909154Y-114898758D01*
X152987782Y-114892953D01*
X153052425Y-114887306D01*
X153072654Y-114885208D01*
X153163468Y-114873484D01*
X153231812Y-114860100D01*
X153280612Y-114843433D01*
X153312798Y-114821863D01*
X153331299Y-114793768D01*
X153339044Y-114757526D01*
X153339800Y-114737315D01*
X153335652Y-114684446D01*
X153319948Y-114649305D01*
X153287801Y-114625114D01*
X153247507Y-114609266D01*
X153230974Y-114604563D01*
X153210873Y-114600533D01*
X153185111Y-114597108D01*
X153151594Y-114594215D01*
X153108228Y-114591784D01*
X153052920Y-114589745D01*
X152983576Y-114588026D01*
X152898102Y-114586556D01*
X152794404Y-114585266D01*
X152670390Y-114584084D01*
X152523965Y-114582939D01*
X152453975Y-114582443D01*
X151726900Y-114577408D01*
X151726900Y-114540929D01*
X151718059Y-114463748D01*
X151694261Y-114383819D01*
X151662616Y-114319858D01*
X151642059Y-114286801D01*
X151628506Y-114263774D01*
X151625300Y-114257158D01*
X151637484Y-114256387D01*
X151671979Y-114256051D01*
X151725701Y-114256133D01*
X151795563Y-114256615D01*
X151878483Y-114257481D01*
X151971374Y-114258714D01*
X152010939Y-114259310D01*
X152120009Y-114260964D01*
X152206531Y-114262048D01*
X152273356Y-114262420D01*
X152323332Y-114261934D01*
X152359309Y-114260448D01*
X152384136Y-114257819D01*
X152400662Y-114253902D01*
X152411737Y-114248555D01*
X152420210Y-114241633D01*
X152423366Y-114238534D01*
X152445407Y-114208859D01*
X152452642Y-114191587D01*
X151037733Y-114191587D01*
X151034373Y-114203043D01*
X151022414Y-114229362D01*
X151015508Y-114243226D01*
X150999266Y-114293345D01*
X150991078Y-114358181D01*
X150991168Y-114428289D01*
X150999760Y-114494224D01*
X151008787Y-114527003D01*
X151027274Y-114579400D01*
X150770662Y-114579364D01*
X150670320Y-114578866D01*
X150557915Y-114577515D01*
X150443689Y-114575482D01*
X150337882Y-114572939D01*
X150277797Y-114571071D01*
X150041543Y-114562814D01*
X150047626Y-114446524D01*
X150045708Y-114334578D01*
X150026244Y-114232811D01*
X149987344Y-114135322D01*
X149927115Y-114036213D01*
X149907347Y-114008939D01*
X149884504Y-113976064D01*
X149872485Y-113953938D01*
X149873640Y-113946968D01*
X149874439Y-113947223D01*
X149892204Y-113952490D01*
X149930347Y-113962822D01*
X149984609Y-113977096D01*
X150050731Y-113994191D01*
X150120937Y-114012097D01*
X150322153Y-114060135D01*
X150530294Y-114104392D01*
X150734554Y-114142678D01*
X150888700Y-114167654D01*
X150946285Y-114176366D01*
X150993703Y-114183808D01*
X151025887Y-114189167D01*
X151037733Y-114191587D01*
X152452642Y-114191587D01*
X152456303Y-114182848D01*
X152460374Y-114158668D01*
X152467037Y-114113076D01*
X152475881Y-114049291D01*
X152486498Y-113970530D01*
X152498476Y-113880010D01*
X152511406Y-113780950D01*
X152524877Y-113676566D01*
X152538480Y-113570077D01*
X152551805Y-113464701D01*
X152564441Y-113363654D01*
X152565348Y-113356302D01*
X151822593Y-113356302D01*
X151805822Y-113417373D01*
X151769345Y-113474610D01*
X151715705Y-113523340D01*
X151682450Y-113543468D01*
X151626758Y-113561222D01*
X151567747Y-113556692D01*
X151514665Y-113536699D01*
X151455043Y-113496256D01*
X151411455Y-113442937D01*
X151386602Y-113381838D01*
X151383188Y-113318058D01*
X151387383Y-113296700D01*
X151414531Y-113235647D01*
X151458310Y-113182834D01*
X151512881Y-113143146D01*
X151572405Y-113121474D01*
X151599802Y-113118900D01*
X151662901Y-113130822D01*
X151722482Y-113163630D01*
X151773099Y-113212880D01*
X151809302Y-113274130D01*
X151817113Y-113296071D01*
X151822593Y-113356302D01*
X152565348Y-113356302D01*
X152575979Y-113270156D01*
X152586007Y-113187422D01*
X152594118Y-113118672D01*
X152599020Y-113074960D01*
X150744756Y-113074960D01*
X150741308Y-113142007D01*
X150712612Y-113210159D01*
X150706098Y-113220439D01*
X150667907Y-113261595D01*
X150616486Y-113295769D01*
X150561614Y-113317394D01*
X150527585Y-113322089D01*
X150492853Y-113316478D01*
X150450736Y-113302415D01*
X150436928Y-113296253D01*
X150394936Y-113268405D01*
X150357185Y-113231458D01*
X150349854Y-113221803D01*
X150315823Y-113154825D01*
X150307097Y-113089145D01*
X150323588Y-113025429D01*
X150365209Y-112964342D01*
X150386559Y-112942909D01*
X150449153Y-112899166D01*
X150513569Y-112880528D01*
X150578021Y-112886957D01*
X150640722Y-112918417D01*
X150676429Y-112948961D01*
X150723086Y-113010214D01*
X150744756Y-113074960D01*
X152599020Y-113074960D01*
X152599899Y-113067123D01*
X152602942Y-113035992D01*
X152603310Y-113029252D01*
X152596825Y-112983561D01*
X152574974Y-112952115D01*
X152533768Y-112930485D01*
X152507225Y-112922616D01*
X152485570Y-112917519D01*
X152441015Y-112907400D01*
X152375471Y-112892682D01*
X152290846Y-112873789D01*
X152189050Y-112851145D01*
X152157204Y-112844079D01*
X149697893Y-112844079D01*
X149692619Y-112905471D01*
X149667808Y-112965242D01*
X149625633Y-113018263D01*
X149568270Y-113059403D01*
X149564910Y-113061123D01*
X149503115Y-113084335D01*
X149447619Y-113086010D01*
X149391140Y-113065713D01*
X149363090Y-113049050D01*
X149306910Y-112999387D01*
X149272080Y-112940546D01*
X149258420Y-112876828D01*
X149265750Y-112812532D01*
X149293889Y-112751956D01*
X149342657Y-112699402D01*
X149378764Y-112675159D01*
X149444417Y-112651467D01*
X149510927Y-112651323D01*
X149574447Y-112673315D01*
X149631125Y-112716031D01*
X149677114Y-112778060D01*
X149681454Y-112786194D01*
X149697893Y-112844079D01*
X152157204Y-112844079D01*
X152071994Y-112825173D01*
X151941586Y-112796298D01*
X151799737Y-112764943D01*
X151648356Y-112731531D01*
X151489352Y-112696488D01*
X151353867Y-112666666D01*
X151192371Y-112631041D01*
X151038621Y-112596934D01*
X150894340Y-112564739D01*
X150761248Y-112534847D01*
X150641066Y-112507653D01*
X150535514Y-112483549D01*
X150446313Y-112462927D01*
X150375185Y-112446180D01*
X150323849Y-112433701D01*
X150294026Y-112425883D01*
X150287067Y-112423146D01*
X150302973Y-112423724D01*
X150342344Y-112426437D01*
X150403347Y-112431130D01*
X150484150Y-112437646D01*
X150582922Y-112445833D01*
X150697829Y-112455536D01*
X150827041Y-112466598D01*
X150968725Y-112478867D01*
X151121048Y-112492187D01*
X151282179Y-112506403D01*
X151450286Y-112521361D01*
X151452637Y-112521571D01*
X151620668Y-112536569D01*
X151781630Y-112550902D01*
X151933706Y-112564412D01*
X152075074Y-112576937D01*
X152203917Y-112588317D01*
X152318413Y-112598393D01*
X152416745Y-112607004D01*
X152497092Y-112613990D01*
X152557635Y-112619192D01*
X152596555Y-112622448D01*
X152612032Y-112623599D01*
X152612089Y-112623600D01*
X152632490Y-112615219D01*
X152658499Y-112594805D01*
X152660928Y-112592427D01*
X152692100Y-112561254D01*
X152692150Y-112417363D01*
X150235492Y-112417363D01*
X150223009Y-112419397D01*
X150206537Y-112417062D01*
X150206340Y-112412727D01*
X150223338Y-112409695D01*
X150230682Y-112411724D01*
X150235492Y-112417363D01*
X152692150Y-112417363D01*
X152692327Y-111910493D01*
X151535161Y-111910493D01*
X151530099Y-111977545D01*
X151500473Y-112039038D01*
X151464509Y-112079974D01*
X151402441Y-112125549D01*
X151338936Y-112145769D01*
X151273908Y-112140641D01*
X151207270Y-112110174D01*
X151199850Y-112105284D01*
X151150007Y-112059787D01*
X151114761Y-112003875D01*
X151097674Y-111944499D01*
X151098096Y-111906636D01*
X151121259Y-111834513D01*
X151123409Y-111831652D01*
X150442614Y-111831652D01*
X150432272Y-111876919D01*
X150424544Y-111896759D01*
X150385828Y-111962666D01*
X150330699Y-112010629D01*
X150298150Y-112028096D01*
X150249838Y-112046445D01*
X150209810Y-112049400D01*
X150166140Y-112036956D01*
X150145750Y-112028022D01*
X150077717Y-111985177D01*
X150030754Y-111930958D01*
X150005910Y-111868198D01*
X150004233Y-111799729D01*
X150026772Y-111728385D01*
X150031450Y-111719205D01*
X150050007Y-111676919D01*
X150061442Y-111636551D01*
X150063200Y-111620434D01*
X150065079Y-111594315D01*
X150073863Y-111588509D01*
X150087766Y-111594453D01*
X150113140Y-111601416D01*
X150154154Y-111606182D01*
X150193229Y-111607600D01*
X150274616Y-111618131D01*
X150342223Y-111649130D01*
X150394508Y-111699703D01*
X150416970Y-111737169D01*
X150437685Y-111788700D01*
X150442614Y-111831652D01*
X151123409Y-111831652D01*
X151165976Y-111775022D01*
X151211541Y-111740870D01*
X151250025Y-111720926D01*
X151285317Y-111710721D01*
X151326294Y-111709025D01*
X151381833Y-111714608D01*
X151391503Y-111715932D01*
X151439391Y-111719021D01*
X151474667Y-111714305D01*
X151480913Y-111711708D01*
X151497167Y-111705323D01*
X151502601Y-111713915D01*
X151500599Y-111741908D01*
X151502221Y-111782360D01*
X151512654Y-111827393D01*
X151515963Y-111836436D01*
X151535161Y-111910493D01*
X152692327Y-111910493D01*
X152692403Y-111693902D01*
X152692644Y-111526725D01*
X152693229Y-111372056D01*
X152694082Y-111240108D01*
X152109855Y-111240108D01*
X152104562Y-111277400D01*
X152076840Y-111345388D01*
X152032781Y-111395932D01*
X151971256Y-111429712D01*
X151891136Y-111447410D01*
X151817328Y-111450526D01*
X151706952Y-111448850D01*
X151711958Y-111414329D01*
X151709901Y-111383704D01*
X151699315Y-111341237D01*
X151688035Y-111310012D01*
X151672017Y-111268020D01*
X151666012Y-111238103D01*
X151668915Y-111209497D01*
X151675270Y-111185782D01*
X151699487Y-111135350D01*
X151722512Y-111106460D01*
X151011456Y-111106460D01*
X151008008Y-111173507D01*
X150979312Y-111241659D01*
X150972798Y-111251939D01*
X150934607Y-111293095D01*
X150883186Y-111327269D01*
X150828314Y-111348894D01*
X150794285Y-111353589D01*
X150760031Y-111347994D01*
X150717693Y-111333896D01*
X150701372Y-111326661D01*
X150644083Y-111286587D01*
X150602270Y-111232273D01*
X150578558Y-111169415D01*
X150575576Y-111103709D01*
X150583110Y-111070244D01*
X150607095Y-111026086D01*
X150619623Y-111011871D01*
X149940647Y-111011871D01*
X149937280Y-111079556D01*
X149909325Y-111146185D01*
X149902643Y-111156400D01*
X149891696Y-111184805D01*
X149885755Y-111224543D01*
X149885400Y-111236068D01*
X149884711Y-111269677D01*
X149880120Y-111282446D01*
X149867846Y-111278934D01*
X149856044Y-111271450D01*
X149817662Y-111258144D01*
X149758998Y-111254053D01*
X149751269Y-111254197D01*
X149680844Y-111249327D01*
X149624210Y-111228153D01*
X149573201Y-111187142D01*
X149557779Y-111170445D01*
X149518058Y-111108418D01*
X149502283Y-111042801D01*
X149510039Y-110977192D01*
X149540908Y-110915188D01*
X149593578Y-110861078D01*
X149657213Y-110825700D01*
X149723511Y-110814868D01*
X149789636Y-110828334D01*
X149852751Y-110865847D01*
X149874901Y-110885900D01*
X149919746Y-110946271D01*
X149940647Y-111011871D01*
X150619623Y-111011871D01*
X150646431Y-110981455D01*
X150693368Y-110943351D01*
X150740156Y-110918776D01*
X150755435Y-110914596D01*
X150822847Y-110914435D01*
X150888099Y-110938285D01*
X150943129Y-110980461D01*
X150989786Y-111041714D01*
X151011456Y-111106460D01*
X151722512Y-111106460D01*
X151738480Y-111086425D01*
X151785361Y-111045764D01*
X151833241Y-111020124D01*
X151848306Y-111016070D01*
X151913426Y-111015389D01*
X151975168Y-111035254D01*
X152029608Y-111071662D01*
X152072819Y-111120608D01*
X152100876Y-111178091D01*
X152109855Y-111240108D01*
X152694082Y-111240108D01*
X152694138Y-111231513D01*
X152695347Y-111106712D01*
X152696834Y-110999272D01*
X152698577Y-110910809D01*
X152700554Y-110842941D01*
X152702743Y-110797285D01*
X152705047Y-110775750D01*
X152716212Y-110718766D01*
X152727165Y-110643355D01*
X152737216Y-110556484D01*
X152745676Y-110465121D01*
X152751853Y-110376234D01*
X152755059Y-110296790D01*
X152755353Y-110267827D01*
X152745302Y-110061997D01*
X152716061Y-109871376D01*
X152694571Y-109793361D01*
X152017966Y-109793361D01*
X152003258Y-109867277D01*
X151971074Y-109928734D01*
X151913252Y-109995893D01*
X151846289Y-110041851D01*
X151773145Y-110065457D01*
X151696778Y-110065565D01*
X151649555Y-110053486D01*
X151578719Y-110016608D01*
X151520134Y-109963445D01*
X151477184Y-109898880D01*
X151453251Y-109827799D01*
X151450384Y-109765955D01*
X151469861Y-109689450D01*
X151510761Y-109618927D01*
X151569106Y-109560574D01*
X151592890Y-109544185D01*
X151666131Y-109512741D01*
X151742627Y-109504352D01*
X151817900Y-109517881D01*
X151887470Y-109552190D01*
X151946857Y-109606142D01*
X151971472Y-109640353D01*
X152007371Y-109717819D01*
X152017966Y-109793361D01*
X152694571Y-109793361D01*
X152667861Y-109696404D01*
X152600931Y-109537522D01*
X152515503Y-109395171D01*
X152504432Y-109381784D01*
X150900243Y-109381784D01*
X150899796Y-109445759D01*
X150878424Y-109507085D01*
X150837093Y-109561951D01*
X150776774Y-109606544D01*
X150742650Y-109622664D01*
X150687221Y-109632354D01*
X150625703Y-109622337D01*
X150574603Y-109599038D01*
X150521270Y-109554225D01*
X150483859Y-109498002D01*
X150464960Y-109436268D01*
X150467159Y-109374918D01*
X150470674Y-109362234D01*
X150504416Y-109292860D01*
X150552163Y-109241244D01*
X150609875Y-109208507D01*
X150673514Y-109195772D01*
X150739042Y-109204162D01*
X150802421Y-109234798D01*
X150834486Y-109261138D01*
X150878796Y-109318973D01*
X150900243Y-109381784D01*
X152504432Y-109381784D01*
X152411807Y-109269793D01*
X152290075Y-109161827D01*
X152150536Y-109071716D01*
X152121319Y-109056286D01*
X152083758Y-109039169D01*
X152025392Y-109015202D01*
X151949516Y-108985560D01*
X151859426Y-108951414D01*
X151758416Y-108913940D01*
X151649782Y-108874310D01*
X151536819Y-108833699D01*
X151422821Y-108793279D01*
X151311083Y-108754224D01*
X151204901Y-108717708D01*
X151107569Y-108684904D01*
X151022383Y-108656986D01*
X150952638Y-108635127D01*
X150901628Y-108620501D01*
X150888700Y-108617283D01*
X150816819Y-108605637D01*
X150728007Y-108598919D01*
X150630236Y-108597042D01*
X150531476Y-108599921D01*
D12*
X172000000Y-145000000D03*
X118000000Y-132500000D03*
X172000000Y-132500000D03*
D13*
X103886000Y-88392000D03*
D14*
X106426000Y-88392000D03*
D13*
X110998000Y-95504000D03*
D14*
X113538000Y-95504000D03*
D13*
X121158000Y-104140000D03*
D14*
X123698000Y-104140000D03*
D13*
X107188000Y-92202000D03*
D14*
X109728000Y-92202000D03*
D13*
X115316000Y-99568000D03*
D14*
X117856000Y-99568000D03*
D13*
X107188000Y-69088000D03*
D14*
X109728000Y-69088000D03*
D13*
X113792000Y-77978000D03*
D14*
X116332000Y-77978000D03*
D13*
X124206000Y-91186000D03*
D14*
X126746000Y-91186000D03*
D13*
X110744000Y-73406000D03*
D14*
X113284000Y-73406000D03*
D13*
X119126000Y-83312000D03*
D14*
X121666000Y-83312000D03*
D13*
X116332000Y-60960000D03*
D14*
X118872000Y-60960000D03*
D13*
X127000000Y-72898000D03*
D14*
X129540000Y-72898000D03*
D13*
X137160000Y-87122000D03*
D14*
X139700000Y-87122000D03*
D13*
X121666000Y-66040000D03*
D14*
X124206000Y-66040000D03*
D13*
X131572000Y-79502000D03*
D14*
X134112000Y-79502000D03*
D13*
X142240000Y-55626000D03*
D14*
X144780000Y-55626000D03*
D13*
X145034000Y-68580000D03*
D14*
X147574000Y-68580000D03*
D13*
X148336000Y-81534000D03*
D14*
X150876000Y-81534000D03*
D13*
X143002000Y-62230000D03*
D14*
X145542000Y-62230000D03*
D13*
X146304000Y-74168000D03*
D14*
X148844000Y-74168000D03*
D15*
X105380000Y-133000000D03*
D16*
X113000000Y-133000000D03*
D17*
X183388000Y-128270000D03*
X185888000Y-128270000D03*
X180888000Y-128270000D03*
X180888000Y-131570000D03*
X183388000Y-131570000D03*
X185888000Y-131570000D03*
D18*
X178300000Y-143620000D03*
D16*
X196080000Y-136000000D03*
X180840000Y-143620000D03*
X193540000Y-136000000D03*
X183380000Y-143620000D03*
X191000000Y-136000000D03*
X185920000Y-143620000D03*
X188460000Y-136000000D03*
X188460000Y-143620000D03*
X185920000Y-136000000D03*
X191000000Y-143620000D03*
X183380000Y-136000000D03*
X193540000Y-143620000D03*
X180840000Y-136000000D03*
X196080000Y-143620000D03*
X178300000Y-136000000D03*
D19*
X178816000Y-124460000D03*
D20*
X181356000Y-124460000D03*
D15*
X113750000Y-129500000D03*
X113750000Y-127000000D03*
D12*
X118000000Y-145000000D03*
D19*
X102460000Y-140000000D03*
D20*
X102460000Y-137460000D03*
X105000000Y-140000000D03*
X105000000Y-137460000D03*
X107540000Y-140000000D03*
X107540000Y-137460000D03*
X110080000Y-140000000D03*
X110080000Y-137460000D03*
X112620000Y-140000000D03*
X112620000Y-137460000D03*
M02*
