G04 #@! TF.FileFunction,Soldermask,Top*
%FSLAX46Y46*%
G04 Gerber Fmt 4.6, Leading zero omitted, Abs format (unit mm)*
G04 Created by KiCad (PCBNEW 4.0.6) date 11/09/17 18:00:55*
%MOMM*%
%LPD*%
G01*
G04 APERTURE LIST*
%ADD10C,0.100000*%
%ADD11C,4.000000*%
%ADD12R,1.800000X1.800000*%
%ADD13C,1.800000*%
%ADD14C,1.600000*%
%ADD15O,1.600000X1.600000*%
%ADD16C,1.500000*%
%ADD17R,1.600000X1.600000*%
%ADD18R,1.700000X1.700000*%
%ADD19O,1.700000X1.700000*%
%ADD20R,1.000000X1.000000*%
%ADD21R,1.000000X0.254000*%
G04 APERTURE END LIST*
D10*
D11*
X172000000Y-145000000D03*
X118000000Y-132500000D03*
X172000000Y-132500000D03*
D12*
X116270000Y-79032000D03*
D13*
X118810000Y-79032000D03*
D12*
X120730000Y-88032000D03*
D13*
X123270000Y-88032000D03*
D12*
X126730000Y-98032000D03*
D13*
X129270000Y-98032000D03*
D12*
X118730000Y-83032000D03*
D13*
X121270000Y-83032000D03*
D12*
X123730000Y-94032000D03*
D13*
X126270000Y-94032000D03*
D12*
X133730000Y-63032000D03*
D13*
X136270000Y-63032000D03*
D12*
X133730000Y-74032000D03*
D13*
X136270000Y-74032000D03*
D12*
X135730000Y-86032000D03*
D13*
X138270000Y-86032000D03*
D12*
X133730000Y-68032000D03*
D13*
X136270000Y-68032000D03*
D12*
X134730000Y-81032000D03*
D13*
X137270000Y-81032000D03*
D12*
X149730000Y-57032000D03*
D13*
X152270000Y-57032000D03*
D12*
X149730000Y-72032000D03*
D13*
X152270000Y-72032000D03*
D12*
X148730000Y-85032000D03*
D13*
X151270000Y-85032000D03*
D12*
X149730000Y-65032000D03*
D13*
X152270000Y-65032000D03*
D12*
X148730000Y-79032000D03*
D13*
X151270000Y-79032000D03*
D12*
X164730000Y-65032000D03*
D13*
X167270000Y-65032000D03*
D12*
X162730000Y-76032000D03*
D13*
X165270000Y-76032000D03*
D12*
X158730000Y-89032000D03*
D13*
X161270000Y-89032000D03*
D12*
X163730000Y-71032000D03*
D13*
X166270000Y-71032000D03*
D12*
X160730000Y-83032000D03*
D13*
X163270000Y-83032000D03*
D14*
X105380000Y-133000000D03*
D15*
X113000000Y-133000000D03*
D16*
X181000000Y-126550000D03*
X183500000Y-126550000D03*
X178500000Y-126550000D03*
X178500000Y-129850000D03*
X181000000Y-129850000D03*
X183500000Y-129850000D03*
D17*
X178300000Y-143620000D03*
D15*
X196080000Y-136000000D03*
X180840000Y-143620000D03*
X193540000Y-136000000D03*
X183380000Y-143620000D03*
X191000000Y-136000000D03*
X185920000Y-143620000D03*
X188460000Y-136000000D03*
X188460000Y-143620000D03*
X185920000Y-136000000D03*
X191000000Y-143620000D03*
X183380000Y-136000000D03*
X193540000Y-143620000D03*
X180840000Y-136000000D03*
X196080000Y-143620000D03*
X178300000Y-136000000D03*
D18*
X189000000Y-129000000D03*
D19*
X189000000Y-131540000D03*
D14*
X113750000Y-129500000D03*
X113750000Y-127000000D03*
D11*
X118000000Y-145000000D03*
D18*
X102460000Y-140000000D03*
D19*
X102460000Y-137460000D03*
X105000000Y-140000000D03*
X105000000Y-137460000D03*
X107540000Y-140000000D03*
X107540000Y-137460000D03*
X110080000Y-140000000D03*
X110080000Y-137460000D03*
X112620000Y-140000000D03*
X112620000Y-137460000D03*
D20*
X183000000Y-148000000D03*
X181000000Y-148000000D03*
D21*
X182000000Y-148000000D03*
D20*
X188000000Y-148000000D03*
X190000000Y-148000000D03*
D21*
X189000000Y-148000000D03*
M02*
