G04 #@! TF.FileFunction,Soldermask,Bot*
%FSLAX46Y46*%
G04 Gerber Fmt 4.6, Leading zero omitted, Abs format (unit mm)*
G04 Created by KiCad (PCBNEW 4.0.6) date 11/09/17 18:00:55*
%MOMM*%
%LPD*%
G01*
G04 APERTURE LIST*
%ADD10C,0.100000*%
%ADD11C,0.010000*%
%ADD12C,4.000000*%
%ADD13R,1.800000X1.800000*%
%ADD14C,1.800000*%
%ADD15C,1.600000*%
%ADD16O,1.600000X1.600000*%
%ADD17C,1.500000*%
%ADD18R,1.600000X1.600000*%
%ADD19R,1.700000X1.700000*%
%ADD20O,1.700000X1.700000*%
G04 APERTURE END LIST*
D10*
D11*
G36*
X145959476Y-109869921D02*
X145867698Y-109877468D01*
X145790871Y-109889599D01*
X145775807Y-109893116D01*
X145679216Y-109924087D01*
X145573300Y-109969133D01*
X145466430Y-110024111D01*
X145366982Y-110084877D01*
X145317956Y-110119661D01*
X145196909Y-110221671D01*
X145075468Y-110344196D01*
X144957534Y-110482719D01*
X144847010Y-110632720D01*
X144766299Y-110758366D01*
X144724679Y-110838089D01*
X144704093Y-110903872D01*
X144704503Y-110955953D01*
X144725867Y-110994568D01*
X144726124Y-110994825D01*
X144740961Y-111001923D01*
X144778226Y-111016682D01*
X144836316Y-111038533D01*
X144913628Y-111066905D01*
X145008562Y-111101225D01*
X145119516Y-111140923D01*
X145244887Y-111185429D01*
X145383074Y-111234171D01*
X145532474Y-111286578D01*
X145691487Y-111342080D01*
X145858509Y-111400105D01*
X146017666Y-111455157D01*
X146189629Y-111514607D01*
X146354385Y-111571747D01*
X146510401Y-111626034D01*
X146656142Y-111676928D01*
X146790075Y-111723885D01*
X146910665Y-111766364D01*
X147016379Y-111803824D01*
X147105684Y-111835722D01*
X147177044Y-111861518D01*
X147228927Y-111880669D01*
X147259798Y-111892633D01*
X147268235Y-111896856D01*
X147253239Y-111896246D01*
X147214659Y-111893499D01*
X147154209Y-111888761D01*
X147073604Y-111882179D01*
X146974556Y-111873899D01*
X146858779Y-111864066D01*
X146727988Y-111852827D01*
X146583895Y-111840328D01*
X146428215Y-111826716D01*
X146262662Y-111812136D01*
X146088948Y-111796735D01*
X145965990Y-111785774D01*
X145786796Y-111769811D01*
X145613986Y-111754508D01*
X145449334Y-111740017D01*
X145294618Y-111726489D01*
X145151613Y-111714077D01*
X145022094Y-111702934D01*
X144907839Y-111693212D01*
X144810623Y-111685062D01*
X144732222Y-111678638D01*
X144674412Y-111674091D01*
X144638968Y-111671575D01*
X144628764Y-111671100D01*
X144575517Y-111676109D01*
X144540655Y-111693134D01*
X144518815Y-111725174D01*
X144515204Y-111734597D01*
X144510647Y-111753557D01*
X144502014Y-111795311D01*
X144489720Y-111857657D01*
X144474184Y-111938388D01*
X144455821Y-112035302D01*
X144435050Y-112146193D01*
X144412285Y-112268857D01*
X144387945Y-112401089D01*
X144362446Y-112540686D01*
X144353676Y-112588940D01*
X144205616Y-113404650D01*
X144029258Y-113959242D01*
X143992946Y-114074428D01*
X143959154Y-114183539D01*
X143928663Y-114283914D01*
X143902255Y-114372892D01*
X143880710Y-114447813D01*
X143864808Y-114506017D01*
X143855331Y-114544843D01*
X143852900Y-114560152D01*
X143856718Y-114599033D01*
X143865996Y-114630850D01*
X143866859Y-114632551D01*
X143883849Y-114647863D01*
X143921269Y-114671301D01*
X143976045Y-114701361D01*
X144045105Y-114736537D01*
X144125374Y-114775323D01*
X144213781Y-114816214D01*
X144307251Y-114857704D01*
X144402712Y-114898289D01*
X144443450Y-114915023D01*
X144508356Y-114941402D01*
X144567116Y-114965315D01*
X144614653Y-114984693D01*
X144645892Y-114997469D01*
X144653000Y-115000397D01*
X144672172Y-115009241D01*
X144673009Y-115015793D01*
X144653183Y-115024354D01*
X144637005Y-115029972D01*
X144556213Y-115070515D01*
X144490713Y-115130224D01*
X144442025Y-115206922D01*
X144411669Y-115298430D01*
X144402417Y-115365877D01*
X144405830Y-115492554D01*
X144433709Y-115612608D01*
X144485884Y-115725610D01*
X144562188Y-115831129D01*
X144601128Y-115872851D01*
X144701650Y-115958563D01*
X144810840Y-116021972D01*
X144933024Y-116065373D01*
X144986962Y-116077737D01*
X145087096Y-116094962D01*
X145210456Y-116111743D01*
X145354868Y-116127875D01*
X145518160Y-116143150D01*
X145698159Y-116157361D01*
X145892691Y-116170301D01*
X146056350Y-116179548D01*
X146116969Y-116181925D01*
X146200069Y-116183994D01*
X146302734Y-116185756D01*
X146422046Y-116187212D01*
X146555088Y-116188364D01*
X146698945Y-116189214D01*
X146850698Y-116189762D01*
X147007432Y-116190010D01*
X147166229Y-116189959D01*
X147324173Y-116189611D01*
X147478346Y-116188968D01*
X147625832Y-116188030D01*
X147763714Y-116186799D01*
X147889075Y-116185276D01*
X147998998Y-116183463D01*
X148090566Y-116181362D01*
X148160863Y-116178972D01*
X148170454Y-116178539D01*
X148252669Y-116174144D01*
X148337154Y-116168758D01*
X148415782Y-116162953D01*
X148480425Y-116157306D01*
X148500654Y-116155208D01*
X148591468Y-116143484D01*
X148659812Y-116130100D01*
X148708612Y-116113433D01*
X148740798Y-116091863D01*
X148759299Y-116063768D01*
X148767044Y-116027526D01*
X148767800Y-116007315D01*
X148763652Y-115954446D01*
X148747948Y-115919305D01*
X148715801Y-115895114D01*
X148675507Y-115879266D01*
X148658974Y-115874563D01*
X148638873Y-115870533D01*
X148613111Y-115867108D01*
X148579594Y-115864215D01*
X148536228Y-115861784D01*
X148480920Y-115859745D01*
X148411576Y-115858026D01*
X148326102Y-115856556D01*
X148222404Y-115855266D01*
X148098390Y-115854084D01*
X147951965Y-115852939D01*
X147881975Y-115852443D01*
X147154900Y-115847408D01*
X147154900Y-115810929D01*
X147146059Y-115733748D01*
X147122261Y-115653819D01*
X147090616Y-115589858D01*
X147070059Y-115556801D01*
X147056506Y-115533774D01*
X147053300Y-115527158D01*
X147065484Y-115526387D01*
X147099979Y-115526051D01*
X147153701Y-115526133D01*
X147223563Y-115526615D01*
X147306483Y-115527481D01*
X147399374Y-115528714D01*
X147438939Y-115529310D01*
X147548009Y-115530964D01*
X147634531Y-115532048D01*
X147701356Y-115532420D01*
X147751332Y-115531934D01*
X147787309Y-115530448D01*
X147812136Y-115527819D01*
X147828662Y-115523902D01*
X147839737Y-115518555D01*
X147848210Y-115511633D01*
X147851366Y-115508534D01*
X147873407Y-115478859D01*
X147880642Y-115461587D01*
X146465733Y-115461587D01*
X146462373Y-115473043D01*
X146450414Y-115499362D01*
X146443508Y-115513226D01*
X146427266Y-115563345D01*
X146419078Y-115628181D01*
X146419168Y-115698289D01*
X146427760Y-115764224D01*
X146436787Y-115797003D01*
X146455274Y-115849400D01*
X146198662Y-115849364D01*
X146098320Y-115848866D01*
X145985915Y-115847515D01*
X145871689Y-115845482D01*
X145765882Y-115842939D01*
X145705797Y-115841071D01*
X145469543Y-115832814D01*
X145475626Y-115716524D01*
X145473708Y-115604578D01*
X145454244Y-115502811D01*
X145415344Y-115405322D01*
X145355115Y-115306213D01*
X145335347Y-115278939D01*
X145312504Y-115246064D01*
X145300485Y-115223938D01*
X145301640Y-115216968D01*
X145302439Y-115217223D01*
X145320204Y-115222490D01*
X145358347Y-115232822D01*
X145412609Y-115247096D01*
X145478731Y-115264191D01*
X145548937Y-115282097D01*
X145750153Y-115330135D01*
X145958294Y-115374392D01*
X146162554Y-115412678D01*
X146316700Y-115437654D01*
X146374285Y-115446366D01*
X146421703Y-115453808D01*
X146453887Y-115459167D01*
X146465733Y-115461587D01*
X147880642Y-115461587D01*
X147884303Y-115452848D01*
X147888374Y-115428668D01*
X147895037Y-115383076D01*
X147903881Y-115319291D01*
X147914498Y-115240530D01*
X147926476Y-115150010D01*
X147939406Y-115050950D01*
X147952877Y-114946566D01*
X147966480Y-114840077D01*
X147979805Y-114734701D01*
X147992441Y-114633654D01*
X147993348Y-114626302D01*
X147250593Y-114626302D01*
X147233822Y-114687373D01*
X147197345Y-114744610D01*
X147143705Y-114793340D01*
X147110450Y-114813468D01*
X147054758Y-114831222D01*
X146995747Y-114826692D01*
X146942665Y-114806699D01*
X146883043Y-114766256D01*
X146839455Y-114712937D01*
X146814602Y-114651838D01*
X146811188Y-114588058D01*
X146815383Y-114566700D01*
X146842531Y-114505647D01*
X146886310Y-114452834D01*
X146940881Y-114413146D01*
X147000405Y-114391474D01*
X147027802Y-114388900D01*
X147090901Y-114400822D01*
X147150482Y-114433630D01*
X147201099Y-114482880D01*
X147237302Y-114544130D01*
X147245113Y-114566071D01*
X147250593Y-114626302D01*
X147993348Y-114626302D01*
X148003979Y-114540156D01*
X148014007Y-114457422D01*
X148022118Y-114388672D01*
X148027020Y-114344960D01*
X146172756Y-114344960D01*
X146169308Y-114412007D01*
X146140612Y-114480159D01*
X146134098Y-114490439D01*
X146095907Y-114531595D01*
X146044486Y-114565769D01*
X145989614Y-114587394D01*
X145955585Y-114592089D01*
X145920853Y-114586478D01*
X145878736Y-114572415D01*
X145864928Y-114566253D01*
X145822936Y-114538405D01*
X145785185Y-114501458D01*
X145777854Y-114491803D01*
X145743823Y-114424825D01*
X145735097Y-114359145D01*
X145751588Y-114295429D01*
X145793209Y-114234342D01*
X145814559Y-114212909D01*
X145877153Y-114169166D01*
X145941569Y-114150528D01*
X146006021Y-114156957D01*
X146068722Y-114188417D01*
X146104429Y-114218961D01*
X146151086Y-114280214D01*
X146172756Y-114344960D01*
X148027020Y-114344960D01*
X148027899Y-114337123D01*
X148030942Y-114305992D01*
X148031310Y-114299252D01*
X148024825Y-114253561D01*
X148002974Y-114222115D01*
X147961768Y-114200485D01*
X147935225Y-114192616D01*
X147913570Y-114187519D01*
X147869015Y-114177400D01*
X147803471Y-114162682D01*
X147718846Y-114143789D01*
X147617050Y-114121145D01*
X147585204Y-114114079D01*
X145125893Y-114114079D01*
X145120619Y-114175471D01*
X145095808Y-114235242D01*
X145053633Y-114288263D01*
X144996270Y-114329403D01*
X144992910Y-114331123D01*
X144931115Y-114354335D01*
X144875619Y-114356010D01*
X144819140Y-114335713D01*
X144791090Y-114319050D01*
X144734910Y-114269387D01*
X144700080Y-114210546D01*
X144686420Y-114146828D01*
X144693750Y-114082532D01*
X144721889Y-114021956D01*
X144770657Y-113969402D01*
X144806764Y-113945159D01*
X144872417Y-113921467D01*
X144938927Y-113921323D01*
X145002447Y-113943315D01*
X145059125Y-113986031D01*
X145105114Y-114048060D01*
X145109454Y-114056194D01*
X145125893Y-114114079D01*
X147585204Y-114114079D01*
X147499994Y-114095173D01*
X147369586Y-114066298D01*
X147227737Y-114034943D01*
X147076356Y-114001531D01*
X146917352Y-113966488D01*
X146781867Y-113936666D01*
X146620371Y-113901041D01*
X146466621Y-113866934D01*
X146322340Y-113834739D01*
X146189248Y-113804847D01*
X146069066Y-113777653D01*
X145963514Y-113753549D01*
X145874313Y-113732927D01*
X145803185Y-113716180D01*
X145751849Y-113703701D01*
X145722026Y-113695883D01*
X145715067Y-113693146D01*
X145730973Y-113693724D01*
X145770344Y-113696437D01*
X145831347Y-113701130D01*
X145912150Y-113707646D01*
X146010922Y-113715833D01*
X146125829Y-113725536D01*
X146255041Y-113736598D01*
X146396725Y-113748867D01*
X146549048Y-113762187D01*
X146710179Y-113776403D01*
X146878286Y-113791361D01*
X146880637Y-113791571D01*
X147048668Y-113806569D01*
X147209630Y-113820902D01*
X147361706Y-113834412D01*
X147503074Y-113846937D01*
X147631917Y-113858317D01*
X147746413Y-113868393D01*
X147844745Y-113877004D01*
X147925092Y-113883990D01*
X147985635Y-113889192D01*
X148024555Y-113892448D01*
X148040032Y-113893599D01*
X148040089Y-113893600D01*
X148060490Y-113885219D01*
X148086499Y-113864805D01*
X148088928Y-113862427D01*
X148120100Y-113831254D01*
X148120150Y-113687363D01*
X145663492Y-113687363D01*
X145651009Y-113689397D01*
X145634537Y-113687062D01*
X145634340Y-113682727D01*
X145651338Y-113679695D01*
X145658682Y-113681724D01*
X145663492Y-113687363D01*
X148120150Y-113687363D01*
X148120327Y-113180493D01*
X146963161Y-113180493D01*
X146958099Y-113247545D01*
X146928473Y-113309038D01*
X146892509Y-113349974D01*
X146830441Y-113395549D01*
X146766936Y-113415769D01*
X146701908Y-113410641D01*
X146635270Y-113380174D01*
X146627850Y-113375284D01*
X146578007Y-113329787D01*
X146542761Y-113273875D01*
X146525674Y-113214499D01*
X146526096Y-113176636D01*
X146549259Y-113104513D01*
X146551409Y-113101652D01*
X145870614Y-113101652D01*
X145860272Y-113146919D01*
X145852544Y-113166759D01*
X145813828Y-113232666D01*
X145758699Y-113280629D01*
X145726150Y-113298096D01*
X145677838Y-113316445D01*
X145637810Y-113319400D01*
X145594140Y-113306956D01*
X145573750Y-113298022D01*
X145505717Y-113255177D01*
X145458754Y-113200958D01*
X145433910Y-113138198D01*
X145432233Y-113069729D01*
X145454772Y-112998385D01*
X145459450Y-112989205D01*
X145478007Y-112946919D01*
X145489442Y-112906551D01*
X145491200Y-112890434D01*
X145493079Y-112864315D01*
X145501863Y-112858509D01*
X145515766Y-112864453D01*
X145541140Y-112871416D01*
X145582154Y-112876182D01*
X145621229Y-112877600D01*
X145702616Y-112888131D01*
X145770223Y-112919130D01*
X145822508Y-112969703D01*
X145844970Y-113007169D01*
X145865685Y-113058700D01*
X145870614Y-113101652D01*
X146551409Y-113101652D01*
X146593976Y-113045022D01*
X146639541Y-113010870D01*
X146678025Y-112990926D01*
X146713317Y-112980721D01*
X146754294Y-112979025D01*
X146809833Y-112984608D01*
X146819503Y-112985932D01*
X146867391Y-112989021D01*
X146902667Y-112984305D01*
X146908913Y-112981708D01*
X146925167Y-112975323D01*
X146930601Y-112983915D01*
X146928599Y-113011908D01*
X146930221Y-113052360D01*
X146940654Y-113097393D01*
X146943963Y-113106436D01*
X146963161Y-113180493D01*
X148120327Y-113180493D01*
X148120403Y-112963902D01*
X148120644Y-112796725D01*
X148121229Y-112642056D01*
X148122082Y-112510108D01*
X147537855Y-112510108D01*
X147532562Y-112547400D01*
X147504840Y-112615388D01*
X147460781Y-112665932D01*
X147399256Y-112699712D01*
X147319136Y-112717410D01*
X147245328Y-112720526D01*
X147134952Y-112718850D01*
X147139958Y-112684329D01*
X147137901Y-112653704D01*
X147127315Y-112611237D01*
X147116035Y-112580012D01*
X147100017Y-112538020D01*
X147094012Y-112508103D01*
X147096915Y-112479497D01*
X147103270Y-112455782D01*
X147127487Y-112405350D01*
X147150512Y-112376460D01*
X146439456Y-112376460D01*
X146436008Y-112443507D01*
X146407312Y-112511659D01*
X146400798Y-112521939D01*
X146362607Y-112563095D01*
X146311186Y-112597269D01*
X146256314Y-112618894D01*
X146222285Y-112623589D01*
X146188031Y-112617994D01*
X146145693Y-112603896D01*
X146129372Y-112596661D01*
X146072083Y-112556587D01*
X146030270Y-112502273D01*
X146006558Y-112439415D01*
X146003576Y-112373709D01*
X146011110Y-112340244D01*
X146035095Y-112296086D01*
X146047623Y-112281871D01*
X145368647Y-112281871D01*
X145365280Y-112349556D01*
X145337325Y-112416185D01*
X145330643Y-112426400D01*
X145319696Y-112454805D01*
X145313755Y-112494543D01*
X145313400Y-112506068D01*
X145312711Y-112539677D01*
X145308120Y-112552446D01*
X145295846Y-112548934D01*
X145284044Y-112541450D01*
X145245662Y-112528144D01*
X145186998Y-112524053D01*
X145179269Y-112524197D01*
X145108844Y-112519327D01*
X145052210Y-112498153D01*
X145001201Y-112457142D01*
X144985779Y-112440445D01*
X144946058Y-112378418D01*
X144930283Y-112312801D01*
X144938039Y-112247192D01*
X144968908Y-112185188D01*
X145021578Y-112131078D01*
X145085213Y-112095700D01*
X145151511Y-112084868D01*
X145217636Y-112098334D01*
X145280751Y-112135847D01*
X145302901Y-112155900D01*
X145347746Y-112216271D01*
X145368647Y-112281871D01*
X146047623Y-112281871D01*
X146074431Y-112251455D01*
X146121368Y-112213351D01*
X146168156Y-112188776D01*
X146183435Y-112184596D01*
X146250847Y-112184435D01*
X146316099Y-112208285D01*
X146371129Y-112250461D01*
X146417786Y-112311714D01*
X146439456Y-112376460D01*
X147150512Y-112376460D01*
X147166480Y-112356425D01*
X147213361Y-112315764D01*
X147261241Y-112290124D01*
X147276306Y-112286070D01*
X147341426Y-112285389D01*
X147403168Y-112305254D01*
X147457608Y-112341662D01*
X147500819Y-112390608D01*
X147528876Y-112448091D01*
X147537855Y-112510108D01*
X148122082Y-112510108D01*
X148122138Y-112501513D01*
X148123347Y-112376712D01*
X148124834Y-112269272D01*
X148126577Y-112180809D01*
X148128554Y-112112941D01*
X148130743Y-112067285D01*
X148133047Y-112045750D01*
X148144212Y-111988766D01*
X148155165Y-111913355D01*
X148165216Y-111826484D01*
X148173676Y-111735121D01*
X148179853Y-111646234D01*
X148183059Y-111566790D01*
X148183353Y-111537827D01*
X148173302Y-111331997D01*
X148144061Y-111141376D01*
X148122571Y-111063361D01*
X147445966Y-111063361D01*
X147431258Y-111137277D01*
X147399074Y-111198734D01*
X147341252Y-111265893D01*
X147274289Y-111311851D01*
X147201145Y-111335457D01*
X147124778Y-111335565D01*
X147077555Y-111323486D01*
X147006719Y-111286608D01*
X146948134Y-111233445D01*
X146905184Y-111168880D01*
X146881251Y-111097799D01*
X146878384Y-111035955D01*
X146897861Y-110959450D01*
X146938761Y-110888927D01*
X146997106Y-110830574D01*
X147020890Y-110814185D01*
X147094131Y-110782741D01*
X147170627Y-110774352D01*
X147245900Y-110787881D01*
X147315470Y-110822190D01*
X147374857Y-110876142D01*
X147399472Y-110910353D01*
X147435371Y-110987819D01*
X147445966Y-111063361D01*
X148122571Y-111063361D01*
X148095861Y-110966404D01*
X148028931Y-110807522D01*
X147943503Y-110665171D01*
X147932432Y-110651784D01*
X146328243Y-110651784D01*
X146327796Y-110715759D01*
X146306424Y-110777085D01*
X146265093Y-110831951D01*
X146204774Y-110876544D01*
X146170650Y-110892664D01*
X146115221Y-110902354D01*
X146053703Y-110892337D01*
X146002603Y-110869038D01*
X145949270Y-110824225D01*
X145911859Y-110768002D01*
X145892960Y-110706268D01*
X145895159Y-110644918D01*
X145898674Y-110632234D01*
X145932416Y-110562860D01*
X145980163Y-110511244D01*
X146037875Y-110478507D01*
X146101514Y-110465772D01*
X146167042Y-110474162D01*
X146230421Y-110504798D01*
X146262486Y-110531138D01*
X146306796Y-110588973D01*
X146328243Y-110651784D01*
X147932432Y-110651784D01*
X147839807Y-110539793D01*
X147718075Y-110431827D01*
X147578536Y-110341716D01*
X147549319Y-110326286D01*
X147511758Y-110309169D01*
X147453392Y-110285202D01*
X147377516Y-110255560D01*
X147287426Y-110221414D01*
X147186416Y-110183940D01*
X147077782Y-110144310D01*
X146964819Y-110103699D01*
X146850821Y-110063279D01*
X146739083Y-110024224D01*
X146632901Y-109987708D01*
X146535569Y-109954904D01*
X146450383Y-109926986D01*
X146380638Y-109905127D01*
X146329628Y-109890501D01*
X146316700Y-109887283D01*
X146244819Y-109875637D01*
X146156007Y-109868919D01*
X146058236Y-109867042D01*
X145959476Y-109869921D01*
X145959476Y-109869921D01*
G37*
X145959476Y-109869921D02*
X145867698Y-109877468D01*
X145790871Y-109889599D01*
X145775807Y-109893116D01*
X145679216Y-109924087D01*
X145573300Y-109969133D01*
X145466430Y-110024111D01*
X145366982Y-110084877D01*
X145317956Y-110119661D01*
X145196909Y-110221671D01*
X145075468Y-110344196D01*
X144957534Y-110482719D01*
X144847010Y-110632720D01*
X144766299Y-110758366D01*
X144724679Y-110838089D01*
X144704093Y-110903872D01*
X144704503Y-110955953D01*
X144725867Y-110994568D01*
X144726124Y-110994825D01*
X144740961Y-111001923D01*
X144778226Y-111016682D01*
X144836316Y-111038533D01*
X144913628Y-111066905D01*
X145008562Y-111101225D01*
X145119516Y-111140923D01*
X145244887Y-111185429D01*
X145383074Y-111234171D01*
X145532474Y-111286578D01*
X145691487Y-111342080D01*
X145858509Y-111400105D01*
X146017666Y-111455157D01*
X146189629Y-111514607D01*
X146354385Y-111571747D01*
X146510401Y-111626034D01*
X146656142Y-111676928D01*
X146790075Y-111723885D01*
X146910665Y-111766364D01*
X147016379Y-111803824D01*
X147105684Y-111835722D01*
X147177044Y-111861518D01*
X147228927Y-111880669D01*
X147259798Y-111892633D01*
X147268235Y-111896856D01*
X147253239Y-111896246D01*
X147214659Y-111893499D01*
X147154209Y-111888761D01*
X147073604Y-111882179D01*
X146974556Y-111873899D01*
X146858779Y-111864066D01*
X146727988Y-111852827D01*
X146583895Y-111840328D01*
X146428215Y-111826716D01*
X146262662Y-111812136D01*
X146088948Y-111796735D01*
X145965990Y-111785774D01*
X145786796Y-111769811D01*
X145613986Y-111754508D01*
X145449334Y-111740017D01*
X145294618Y-111726489D01*
X145151613Y-111714077D01*
X145022094Y-111702934D01*
X144907839Y-111693212D01*
X144810623Y-111685062D01*
X144732222Y-111678638D01*
X144674412Y-111674091D01*
X144638968Y-111671575D01*
X144628764Y-111671100D01*
X144575517Y-111676109D01*
X144540655Y-111693134D01*
X144518815Y-111725174D01*
X144515204Y-111734597D01*
X144510647Y-111753557D01*
X144502014Y-111795311D01*
X144489720Y-111857657D01*
X144474184Y-111938388D01*
X144455821Y-112035302D01*
X144435050Y-112146193D01*
X144412285Y-112268857D01*
X144387945Y-112401089D01*
X144362446Y-112540686D01*
X144353676Y-112588940D01*
X144205616Y-113404650D01*
X144029258Y-113959242D01*
X143992946Y-114074428D01*
X143959154Y-114183539D01*
X143928663Y-114283914D01*
X143902255Y-114372892D01*
X143880710Y-114447813D01*
X143864808Y-114506017D01*
X143855331Y-114544843D01*
X143852900Y-114560152D01*
X143856718Y-114599033D01*
X143865996Y-114630850D01*
X143866859Y-114632551D01*
X143883849Y-114647863D01*
X143921269Y-114671301D01*
X143976045Y-114701361D01*
X144045105Y-114736537D01*
X144125374Y-114775323D01*
X144213781Y-114816214D01*
X144307251Y-114857704D01*
X144402712Y-114898289D01*
X144443450Y-114915023D01*
X144508356Y-114941402D01*
X144567116Y-114965315D01*
X144614653Y-114984693D01*
X144645892Y-114997469D01*
X144653000Y-115000397D01*
X144672172Y-115009241D01*
X144673009Y-115015793D01*
X144653183Y-115024354D01*
X144637005Y-115029972D01*
X144556213Y-115070515D01*
X144490713Y-115130224D01*
X144442025Y-115206922D01*
X144411669Y-115298430D01*
X144402417Y-115365877D01*
X144405830Y-115492554D01*
X144433709Y-115612608D01*
X144485884Y-115725610D01*
X144562188Y-115831129D01*
X144601128Y-115872851D01*
X144701650Y-115958563D01*
X144810840Y-116021972D01*
X144933024Y-116065373D01*
X144986962Y-116077737D01*
X145087096Y-116094962D01*
X145210456Y-116111743D01*
X145354868Y-116127875D01*
X145518160Y-116143150D01*
X145698159Y-116157361D01*
X145892691Y-116170301D01*
X146056350Y-116179548D01*
X146116969Y-116181925D01*
X146200069Y-116183994D01*
X146302734Y-116185756D01*
X146422046Y-116187212D01*
X146555088Y-116188364D01*
X146698945Y-116189214D01*
X146850698Y-116189762D01*
X147007432Y-116190010D01*
X147166229Y-116189959D01*
X147324173Y-116189611D01*
X147478346Y-116188968D01*
X147625832Y-116188030D01*
X147763714Y-116186799D01*
X147889075Y-116185276D01*
X147998998Y-116183463D01*
X148090566Y-116181362D01*
X148160863Y-116178972D01*
X148170454Y-116178539D01*
X148252669Y-116174144D01*
X148337154Y-116168758D01*
X148415782Y-116162953D01*
X148480425Y-116157306D01*
X148500654Y-116155208D01*
X148591468Y-116143484D01*
X148659812Y-116130100D01*
X148708612Y-116113433D01*
X148740798Y-116091863D01*
X148759299Y-116063768D01*
X148767044Y-116027526D01*
X148767800Y-116007315D01*
X148763652Y-115954446D01*
X148747948Y-115919305D01*
X148715801Y-115895114D01*
X148675507Y-115879266D01*
X148658974Y-115874563D01*
X148638873Y-115870533D01*
X148613111Y-115867108D01*
X148579594Y-115864215D01*
X148536228Y-115861784D01*
X148480920Y-115859745D01*
X148411576Y-115858026D01*
X148326102Y-115856556D01*
X148222404Y-115855266D01*
X148098390Y-115854084D01*
X147951965Y-115852939D01*
X147881975Y-115852443D01*
X147154900Y-115847408D01*
X147154900Y-115810929D01*
X147146059Y-115733748D01*
X147122261Y-115653819D01*
X147090616Y-115589858D01*
X147070059Y-115556801D01*
X147056506Y-115533774D01*
X147053300Y-115527158D01*
X147065484Y-115526387D01*
X147099979Y-115526051D01*
X147153701Y-115526133D01*
X147223563Y-115526615D01*
X147306483Y-115527481D01*
X147399374Y-115528714D01*
X147438939Y-115529310D01*
X147548009Y-115530964D01*
X147634531Y-115532048D01*
X147701356Y-115532420D01*
X147751332Y-115531934D01*
X147787309Y-115530448D01*
X147812136Y-115527819D01*
X147828662Y-115523902D01*
X147839737Y-115518555D01*
X147848210Y-115511633D01*
X147851366Y-115508534D01*
X147873407Y-115478859D01*
X147880642Y-115461587D01*
X146465733Y-115461587D01*
X146462373Y-115473043D01*
X146450414Y-115499362D01*
X146443508Y-115513226D01*
X146427266Y-115563345D01*
X146419078Y-115628181D01*
X146419168Y-115698289D01*
X146427760Y-115764224D01*
X146436787Y-115797003D01*
X146455274Y-115849400D01*
X146198662Y-115849364D01*
X146098320Y-115848866D01*
X145985915Y-115847515D01*
X145871689Y-115845482D01*
X145765882Y-115842939D01*
X145705797Y-115841071D01*
X145469543Y-115832814D01*
X145475626Y-115716524D01*
X145473708Y-115604578D01*
X145454244Y-115502811D01*
X145415344Y-115405322D01*
X145355115Y-115306213D01*
X145335347Y-115278939D01*
X145312504Y-115246064D01*
X145300485Y-115223938D01*
X145301640Y-115216968D01*
X145302439Y-115217223D01*
X145320204Y-115222490D01*
X145358347Y-115232822D01*
X145412609Y-115247096D01*
X145478731Y-115264191D01*
X145548937Y-115282097D01*
X145750153Y-115330135D01*
X145958294Y-115374392D01*
X146162554Y-115412678D01*
X146316700Y-115437654D01*
X146374285Y-115446366D01*
X146421703Y-115453808D01*
X146453887Y-115459167D01*
X146465733Y-115461587D01*
X147880642Y-115461587D01*
X147884303Y-115452848D01*
X147888374Y-115428668D01*
X147895037Y-115383076D01*
X147903881Y-115319291D01*
X147914498Y-115240530D01*
X147926476Y-115150010D01*
X147939406Y-115050950D01*
X147952877Y-114946566D01*
X147966480Y-114840077D01*
X147979805Y-114734701D01*
X147992441Y-114633654D01*
X147993348Y-114626302D01*
X147250593Y-114626302D01*
X147233822Y-114687373D01*
X147197345Y-114744610D01*
X147143705Y-114793340D01*
X147110450Y-114813468D01*
X147054758Y-114831222D01*
X146995747Y-114826692D01*
X146942665Y-114806699D01*
X146883043Y-114766256D01*
X146839455Y-114712937D01*
X146814602Y-114651838D01*
X146811188Y-114588058D01*
X146815383Y-114566700D01*
X146842531Y-114505647D01*
X146886310Y-114452834D01*
X146940881Y-114413146D01*
X147000405Y-114391474D01*
X147027802Y-114388900D01*
X147090901Y-114400822D01*
X147150482Y-114433630D01*
X147201099Y-114482880D01*
X147237302Y-114544130D01*
X147245113Y-114566071D01*
X147250593Y-114626302D01*
X147993348Y-114626302D01*
X148003979Y-114540156D01*
X148014007Y-114457422D01*
X148022118Y-114388672D01*
X148027020Y-114344960D01*
X146172756Y-114344960D01*
X146169308Y-114412007D01*
X146140612Y-114480159D01*
X146134098Y-114490439D01*
X146095907Y-114531595D01*
X146044486Y-114565769D01*
X145989614Y-114587394D01*
X145955585Y-114592089D01*
X145920853Y-114586478D01*
X145878736Y-114572415D01*
X145864928Y-114566253D01*
X145822936Y-114538405D01*
X145785185Y-114501458D01*
X145777854Y-114491803D01*
X145743823Y-114424825D01*
X145735097Y-114359145D01*
X145751588Y-114295429D01*
X145793209Y-114234342D01*
X145814559Y-114212909D01*
X145877153Y-114169166D01*
X145941569Y-114150528D01*
X146006021Y-114156957D01*
X146068722Y-114188417D01*
X146104429Y-114218961D01*
X146151086Y-114280214D01*
X146172756Y-114344960D01*
X148027020Y-114344960D01*
X148027899Y-114337123D01*
X148030942Y-114305992D01*
X148031310Y-114299252D01*
X148024825Y-114253561D01*
X148002974Y-114222115D01*
X147961768Y-114200485D01*
X147935225Y-114192616D01*
X147913570Y-114187519D01*
X147869015Y-114177400D01*
X147803471Y-114162682D01*
X147718846Y-114143789D01*
X147617050Y-114121145D01*
X147585204Y-114114079D01*
X145125893Y-114114079D01*
X145120619Y-114175471D01*
X145095808Y-114235242D01*
X145053633Y-114288263D01*
X144996270Y-114329403D01*
X144992910Y-114331123D01*
X144931115Y-114354335D01*
X144875619Y-114356010D01*
X144819140Y-114335713D01*
X144791090Y-114319050D01*
X144734910Y-114269387D01*
X144700080Y-114210546D01*
X144686420Y-114146828D01*
X144693750Y-114082532D01*
X144721889Y-114021956D01*
X144770657Y-113969402D01*
X144806764Y-113945159D01*
X144872417Y-113921467D01*
X144938927Y-113921323D01*
X145002447Y-113943315D01*
X145059125Y-113986031D01*
X145105114Y-114048060D01*
X145109454Y-114056194D01*
X145125893Y-114114079D01*
X147585204Y-114114079D01*
X147499994Y-114095173D01*
X147369586Y-114066298D01*
X147227737Y-114034943D01*
X147076356Y-114001531D01*
X146917352Y-113966488D01*
X146781867Y-113936666D01*
X146620371Y-113901041D01*
X146466621Y-113866934D01*
X146322340Y-113834739D01*
X146189248Y-113804847D01*
X146069066Y-113777653D01*
X145963514Y-113753549D01*
X145874313Y-113732927D01*
X145803185Y-113716180D01*
X145751849Y-113703701D01*
X145722026Y-113695883D01*
X145715067Y-113693146D01*
X145730973Y-113693724D01*
X145770344Y-113696437D01*
X145831347Y-113701130D01*
X145912150Y-113707646D01*
X146010922Y-113715833D01*
X146125829Y-113725536D01*
X146255041Y-113736598D01*
X146396725Y-113748867D01*
X146549048Y-113762187D01*
X146710179Y-113776403D01*
X146878286Y-113791361D01*
X146880637Y-113791571D01*
X147048668Y-113806569D01*
X147209630Y-113820902D01*
X147361706Y-113834412D01*
X147503074Y-113846937D01*
X147631917Y-113858317D01*
X147746413Y-113868393D01*
X147844745Y-113877004D01*
X147925092Y-113883990D01*
X147985635Y-113889192D01*
X148024555Y-113892448D01*
X148040032Y-113893599D01*
X148040089Y-113893600D01*
X148060490Y-113885219D01*
X148086499Y-113864805D01*
X148088928Y-113862427D01*
X148120100Y-113831254D01*
X148120150Y-113687363D01*
X145663492Y-113687363D01*
X145651009Y-113689397D01*
X145634537Y-113687062D01*
X145634340Y-113682727D01*
X145651338Y-113679695D01*
X145658682Y-113681724D01*
X145663492Y-113687363D01*
X148120150Y-113687363D01*
X148120327Y-113180493D01*
X146963161Y-113180493D01*
X146958099Y-113247545D01*
X146928473Y-113309038D01*
X146892509Y-113349974D01*
X146830441Y-113395549D01*
X146766936Y-113415769D01*
X146701908Y-113410641D01*
X146635270Y-113380174D01*
X146627850Y-113375284D01*
X146578007Y-113329787D01*
X146542761Y-113273875D01*
X146525674Y-113214499D01*
X146526096Y-113176636D01*
X146549259Y-113104513D01*
X146551409Y-113101652D01*
X145870614Y-113101652D01*
X145860272Y-113146919D01*
X145852544Y-113166759D01*
X145813828Y-113232666D01*
X145758699Y-113280629D01*
X145726150Y-113298096D01*
X145677838Y-113316445D01*
X145637810Y-113319400D01*
X145594140Y-113306956D01*
X145573750Y-113298022D01*
X145505717Y-113255177D01*
X145458754Y-113200958D01*
X145433910Y-113138198D01*
X145432233Y-113069729D01*
X145454772Y-112998385D01*
X145459450Y-112989205D01*
X145478007Y-112946919D01*
X145489442Y-112906551D01*
X145491200Y-112890434D01*
X145493079Y-112864315D01*
X145501863Y-112858509D01*
X145515766Y-112864453D01*
X145541140Y-112871416D01*
X145582154Y-112876182D01*
X145621229Y-112877600D01*
X145702616Y-112888131D01*
X145770223Y-112919130D01*
X145822508Y-112969703D01*
X145844970Y-113007169D01*
X145865685Y-113058700D01*
X145870614Y-113101652D01*
X146551409Y-113101652D01*
X146593976Y-113045022D01*
X146639541Y-113010870D01*
X146678025Y-112990926D01*
X146713317Y-112980721D01*
X146754294Y-112979025D01*
X146809833Y-112984608D01*
X146819503Y-112985932D01*
X146867391Y-112989021D01*
X146902667Y-112984305D01*
X146908913Y-112981708D01*
X146925167Y-112975323D01*
X146930601Y-112983915D01*
X146928599Y-113011908D01*
X146930221Y-113052360D01*
X146940654Y-113097393D01*
X146943963Y-113106436D01*
X146963161Y-113180493D01*
X148120327Y-113180493D01*
X148120403Y-112963902D01*
X148120644Y-112796725D01*
X148121229Y-112642056D01*
X148122082Y-112510108D01*
X147537855Y-112510108D01*
X147532562Y-112547400D01*
X147504840Y-112615388D01*
X147460781Y-112665932D01*
X147399256Y-112699712D01*
X147319136Y-112717410D01*
X147245328Y-112720526D01*
X147134952Y-112718850D01*
X147139958Y-112684329D01*
X147137901Y-112653704D01*
X147127315Y-112611237D01*
X147116035Y-112580012D01*
X147100017Y-112538020D01*
X147094012Y-112508103D01*
X147096915Y-112479497D01*
X147103270Y-112455782D01*
X147127487Y-112405350D01*
X147150512Y-112376460D01*
X146439456Y-112376460D01*
X146436008Y-112443507D01*
X146407312Y-112511659D01*
X146400798Y-112521939D01*
X146362607Y-112563095D01*
X146311186Y-112597269D01*
X146256314Y-112618894D01*
X146222285Y-112623589D01*
X146188031Y-112617994D01*
X146145693Y-112603896D01*
X146129372Y-112596661D01*
X146072083Y-112556587D01*
X146030270Y-112502273D01*
X146006558Y-112439415D01*
X146003576Y-112373709D01*
X146011110Y-112340244D01*
X146035095Y-112296086D01*
X146047623Y-112281871D01*
X145368647Y-112281871D01*
X145365280Y-112349556D01*
X145337325Y-112416185D01*
X145330643Y-112426400D01*
X145319696Y-112454805D01*
X145313755Y-112494543D01*
X145313400Y-112506068D01*
X145312711Y-112539677D01*
X145308120Y-112552446D01*
X145295846Y-112548934D01*
X145284044Y-112541450D01*
X145245662Y-112528144D01*
X145186998Y-112524053D01*
X145179269Y-112524197D01*
X145108844Y-112519327D01*
X145052210Y-112498153D01*
X145001201Y-112457142D01*
X144985779Y-112440445D01*
X144946058Y-112378418D01*
X144930283Y-112312801D01*
X144938039Y-112247192D01*
X144968908Y-112185188D01*
X145021578Y-112131078D01*
X145085213Y-112095700D01*
X145151511Y-112084868D01*
X145217636Y-112098334D01*
X145280751Y-112135847D01*
X145302901Y-112155900D01*
X145347746Y-112216271D01*
X145368647Y-112281871D01*
X146047623Y-112281871D01*
X146074431Y-112251455D01*
X146121368Y-112213351D01*
X146168156Y-112188776D01*
X146183435Y-112184596D01*
X146250847Y-112184435D01*
X146316099Y-112208285D01*
X146371129Y-112250461D01*
X146417786Y-112311714D01*
X146439456Y-112376460D01*
X147150512Y-112376460D01*
X147166480Y-112356425D01*
X147213361Y-112315764D01*
X147261241Y-112290124D01*
X147276306Y-112286070D01*
X147341426Y-112285389D01*
X147403168Y-112305254D01*
X147457608Y-112341662D01*
X147500819Y-112390608D01*
X147528876Y-112448091D01*
X147537855Y-112510108D01*
X148122082Y-112510108D01*
X148122138Y-112501513D01*
X148123347Y-112376712D01*
X148124834Y-112269272D01*
X148126577Y-112180809D01*
X148128554Y-112112941D01*
X148130743Y-112067285D01*
X148133047Y-112045750D01*
X148144212Y-111988766D01*
X148155165Y-111913355D01*
X148165216Y-111826484D01*
X148173676Y-111735121D01*
X148179853Y-111646234D01*
X148183059Y-111566790D01*
X148183353Y-111537827D01*
X148173302Y-111331997D01*
X148144061Y-111141376D01*
X148122571Y-111063361D01*
X147445966Y-111063361D01*
X147431258Y-111137277D01*
X147399074Y-111198734D01*
X147341252Y-111265893D01*
X147274289Y-111311851D01*
X147201145Y-111335457D01*
X147124778Y-111335565D01*
X147077555Y-111323486D01*
X147006719Y-111286608D01*
X146948134Y-111233445D01*
X146905184Y-111168880D01*
X146881251Y-111097799D01*
X146878384Y-111035955D01*
X146897861Y-110959450D01*
X146938761Y-110888927D01*
X146997106Y-110830574D01*
X147020890Y-110814185D01*
X147094131Y-110782741D01*
X147170627Y-110774352D01*
X147245900Y-110787881D01*
X147315470Y-110822190D01*
X147374857Y-110876142D01*
X147399472Y-110910353D01*
X147435371Y-110987819D01*
X147445966Y-111063361D01*
X148122571Y-111063361D01*
X148095861Y-110966404D01*
X148028931Y-110807522D01*
X147943503Y-110665171D01*
X147932432Y-110651784D01*
X146328243Y-110651784D01*
X146327796Y-110715759D01*
X146306424Y-110777085D01*
X146265093Y-110831951D01*
X146204774Y-110876544D01*
X146170650Y-110892664D01*
X146115221Y-110902354D01*
X146053703Y-110892337D01*
X146002603Y-110869038D01*
X145949270Y-110824225D01*
X145911859Y-110768002D01*
X145892960Y-110706268D01*
X145895159Y-110644918D01*
X145898674Y-110632234D01*
X145932416Y-110562860D01*
X145980163Y-110511244D01*
X146037875Y-110478507D01*
X146101514Y-110465772D01*
X146167042Y-110474162D01*
X146230421Y-110504798D01*
X146262486Y-110531138D01*
X146306796Y-110588973D01*
X146328243Y-110651784D01*
X147932432Y-110651784D01*
X147839807Y-110539793D01*
X147718075Y-110431827D01*
X147578536Y-110341716D01*
X147549319Y-110326286D01*
X147511758Y-110309169D01*
X147453392Y-110285202D01*
X147377516Y-110255560D01*
X147287426Y-110221414D01*
X147186416Y-110183940D01*
X147077782Y-110144310D01*
X146964819Y-110103699D01*
X146850821Y-110063279D01*
X146739083Y-110024224D01*
X146632901Y-109987708D01*
X146535569Y-109954904D01*
X146450383Y-109926986D01*
X146380638Y-109905127D01*
X146329628Y-109890501D01*
X146316700Y-109887283D01*
X146244819Y-109875637D01*
X146156007Y-109868919D01*
X146058236Y-109867042D01*
X145959476Y-109869921D01*
D12*
X172000000Y-145000000D03*
X118000000Y-132500000D03*
X172000000Y-132500000D03*
D13*
X116270000Y-79032000D03*
D14*
X118810000Y-79032000D03*
D13*
X120730000Y-88032000D03*
D14*
X123270000Y-88032000D03*
D13*
X126730000Y-98032000D03*
D14*
X129270000Y-98032000D03*
D13*
X118730000Y-83032000D03*
D14*
X121270000Y-83032000D03*
D13*
X123730000Y-94032000D03*
D14*
X126270000Y-94032000D03*
D13*
X133730000Y-63032000D03*
D14*
X136270000Y-63032000D03*
D13*
X133730000Y-74032000D03*
D14*
X136270000Y-74032000D03*
D13*
X135730000Y-86032000D03*
D14*
X138270000Y-86032000D03*
D13*
X133730000Y-68032000D03*
D14*
X136270000Y-68032000D03*
D13*
X134730000Y-81032000D03*
D14*
X137270000Y-81032000D03*
D13*
X149730000Y-57032000D03*
D14*
X152270000Y-57032000D03*
D13*
X149730000Y-72032000D03*
D14*
X152270000Y-72032000D03*
D13*
X148730000Y-85032000D03*
D14*
X151270000Y-85032000D03*
D13*
X149730000Y-65032000D03*
D14*
X152270000Y-65032000D03*
D13*
X148730000Y-79032000D03*
D14*
X151270000Y-79032000D03*
D13*
X164730000Y-65032000D03*
D14*
X167270000Y-65032000D03*
D13*
X162730000Y-76032000D03*
D14*
X165270000Y-76032000D03*
D13*
X158730000Y-89032000D03*
D14*
X161270000Y-89032000D03*
D13*
X163730000Y-71032000D03*
D14*
X166270000Y-71032000D03*
D13*
X160730000Y-83032000D03*
D14*
X163270000Y-83032000D03*
D15*
X105380000Y-133000000D03*
D16*
X113000000Y-133000000D03*
D17*
X181000000Y-126550000D03*
X183500000Y-126550000D03*
X178500000Y-126550000D03*
X178500000Y-129850000D03*
X181000000Y-129850000D03*
X183500000Y-129850000D03*
D18*
X178300000Y-143620000D03*
D16*
X196080000Y-136000000D03*
X180840000Y-143620000D03*
X193540000Y-136000000D03*
X183380000Y-143620000D03*
X191000000Y-136000000D03*
X185920000Y-143620000D03*
X188460000Y-136000000D03*
X188460000Y-143620000D03*
X185920000Y-136000000D03*
X191000000Y-143620000D03*
X183380000Y-136000000D03*
X193540000Y-143620000D03*
X180840000Y-136000000D03*
X196080000Y-143620000D03*
X178300000Y-136000000D03*
D19*
X189000000Y-129000000D03*
D20*
X189000000Y-131540000D03*
D15*
X113750000Y-129500000D03*
X113750000Y-127000000D03*
D12*
X118000000Y-145000000D03*
D19*
X102460000Y-140000000D03*
D20*
X102460000Y-137460000D03*
X105000000Y-140000000D03*
X105000000Y-137460000D03*
X107540000Y-140000000D03*
X107540000Y-137460000D03*
X110080000Y-140000000D03*
X110080000Y-137460000D03*
X112620000Y-140000000D03*
X112620000Y-137460000D03*
M02*
