G04 #@! TF.FileFunction,Legend,Bot*
%FSLAX46Y46*%
G04 Gerber Fmt 4.6, Leading zero omitted, Abs format (unit mm)*
G04 Created by KiCad (PCBNEW 4.0.6) date 11/09/17 18:00:55*
%MOMM*%
%LPD*%
G01*
G04 APERTURE LIST*
%ADD10C,0.100000*%
%ADD11C,0.200000*%
%ADD12C,0.300000*%
%ADD13C,0.120000*%
%ADD14C,0.150000*%
G04 APERTURE END LIST*
D10*
D11*
X191000000Y-131500000D02*
X192500000Y-131500000D01*
X191750000Y-128250000D02*
X191750000Y-129750000D01*
X191000000Y-129000000D02*
X192500000Y-129000000D01*
D12*
X176035714Y-148678571D02*
X176035714Y-147178571D01*
X176035714Y-147892857D02*
X175178571Y-147892857D01*
X175178571Y-148678571D02*
X175178571Y-147178571D01*
X173821428Y-148678571D02*
X173821428Y-147892857D01*
X173892857Y-147750000D01*
X174035714Y-147678571D01*
X174321428Y-147678571D01*
X174464285Y-147750000D01*
X173821428Y-148607143D02*
X173964285Y-148678571D01*
X174321428Y-148678571D01*
X174464285Y-148607143D01*
X174535714Y-148464286D01*
X174535714Y-148321429D01*
X174464285Y-148178571D01*
X174321428Y-148107143D01*
X173964285Y-148107143D01*
X173821428Y-148035714D01*
X173107142Y-147678571D02*
X173107142Y-149178571D01*
X173107142Y-147750000D02*
X172964285Y-147678571D01*
X172678571Y-147678571D01*
X172535714Y-147750000D01*
X172464285Y-147821429D01*
X172392856Y-147964286D01*
X172392856Y-148392857D01*
X172464285Y-148535714D01*
X172535714Y-148607143D01*
X172678571Y-148678571D01*
X172964285Y-148678571D01*
X173107142Y-148607143D01*
X171749999Y-147678571D02*
X171749999Y-149178571D01*
X171749999Y-147750000D02*
X171607142Y-147678571D01*
X171321428Y-147678571D01*
X171178571Y-147750000D01*
X171107142Y-147821429D01*
X171035713Y-147964286D01*
X171035713Y-148392857D01*
X171107142Y-148535714D01*
X171178571Y-148607143D01*
X171321428Y-148678571D01*
X171607142Y-148678571D01*
X171749999Y-148607143D01*
X170535713Y-147678571D02*
X170178570Y-148678571D01*
X169821428Y-147678571D02*
X170178570Y-148678571D01*
X170321428Y-149035714D01*
X170392856Y-149107143D01*
X170535713Y-149178571D01*
X168321428Y-147178571D02*
X167464285Y-147178571D01*
X167892856Y-148678571D02*
X167892856Y-147178571D01*
X166964285Y-148678571D02*
X166964285Y-147178571D01*
X166321428Y-148678571D02*
X166321428Y-147892857D01*
X166392857Y-147750000D01*
X166535714Y-147678571D01*
X166749999Y-147678571D01*
X166892857Y-147750000D01*
X166964285Y-147821429D01*
X164964285Y-148678571D02*
X164964285Y-147892857D01*
X165035714Y-147750000D01*
X165178571Y-147678571D01*
X165464285Y-147678571D01*
X165607142Y-147750000D01*
X164964285Y-148607143D02*
X165107142Y-148678571D01*
X165464285Y-148678571D01*
X165607142Y-148607143D01*
X165678571Y-148464286D01*
X165678571Y-148321429D01*
X165607142Y-148178571D01*
X165464285Y-148107143D01*
X165107142Y-148107143D01*
X164964285Y-148035714D01*
X164249999Y-147678571D02*
X164249999Y-148678571D01*
X164249999Y-147821429D02*
X164178571Y-147750000D01*
X164035713Y-147678571D01*
X163821428Y-147678571D01*
X163678571Y-147750000D01*
X163607142Y-147892857D01*
X163607142Y-148678571D01*
X162892856Y-148678571D02*
X162892856Y-147178571D01*
X162749999Y-148107143D02*
X162321428Y-148678571D01*
X162321428Y-147678571D02*
X162892856Y-148250000D01*
X161749999Y-148607143D02*
X161607142Y-148678571D01*
X161321427Y-148678571D01*
X161178570Y-148607143D01*
X161107142Y-148464286D01*
X161107142Y-148392857D01*
X161178570Y-148250000D01*
X161321427Y-148178571D01*
X161535713Y-148178571D01*
X161678570Y-148107143D01*
X161749999Y-147964286D01*
X161749999Y-147892857D01*
X161678570Y-147750000D01*
X161535713Y-147678571D01*
X161321427Y-147678571D01*
X161178570Y-147750000D01*
X159821427Y-147678571D02*
X159821427Y-148892857D01*
X159892856Y-149035714D01*
X159964284Y-149107143D01*
X160107141Y-149178571D01*
X160321427Y-149178571D01*
X160464284Y-149107143D01*
X159821427Y-148607143D02*
X159964284Y-148678571D01*
X160249998Y-148678571D01*
X160392856Y-148607143D01*
X160464284Y-148535714D01*
X160535713Y-148392857D01*
X160535713Y-147964286D01*
X160464284Y-147821429D01*
X160392856Y-147750000D01*
X160249998Y-147678571D01*
X159964284Y-147678571D01*
X159821427Y-147750000D01*
X159107141Y-148678571D02*
X159107141Y-147678571D01*
X159107141Y-147178571D02*
X159178570Y-147250000D01*
X159107141Y-147321429D01*
X159035713Y-147250000D01*
X159107141Y-147178571D01*
X159107141Y-147321429D01*
X158535712Y-147678571D02*
X158178569Y-148678571D01*
X157821427Y-147678571D01*
X157249998Y-148678571D02*
X157249998Y-147678571D01*
X157249998Y-147178571D02*
X157321427Y-147250000D01*
X157249998Y-147321429D01*
X157178570Y-147250000D01*
X157249998Y-147178571D01*
X157249998Y-147321429D01*
X156535712Y-147678571D02*
X156535712Y-148678571D01*
X156535712Y-147821429D02*
X156464284Y-147750000D01*
X156321426Y-147678571D01*
X156107141Y-147678571D01*
X155964284Y-147750000D01*
X155892855Y-147892857D01*
X155892855Y-148678571D01*
X154535712Y-147678571D02*
X154535712Y-148892857D01*
X154607141Y-149035714D01*
X154678569Y-149107143D01*
X154821426Y-149178571D01*
X155035712Y-149178571D01*
X155178569Y-149107143D01*
X154535712Y-148607143D02*
X154678569Y-148678571D01*
X154964283Y-148678571D01*
X155107141Y-148607143D01*
X155178569Y-148535714D01*
X155249998Y-148392857D01*
X155249998Y-147964286D01*
X155178569Y-147821429D01*
X155107141Y-147750000D01*
X154964283Y-147678571D01*
X154678569Y-147678571D01*
X154535712Y-147750000D01*
X152892855Y-147678571D02*
X152321426Y-147678571D01*
X152678569Y-148678571D02*
X152678569Y-147392857D01*
X152607141Y-147250000D01*
X152464283Y-147178571D01*
X152321426Y-147178571D01*
X151821426Y-148678571D02*
X151821426Y-147678571D01*
X151821426Y-147964286D02*
X151749998Y-147821429D01*
X151678569Y-147750000D01*
X151535712Y-147678571D01*
X151392855Y-147678571D01*
X150678569Y-148678571D02*
X150821427Y-148607143D01*
X150892855Y-148535714D01*
X150964284Y-148392857D01*
X150964284Y-147964286D01*
X150892855Y-147821429D01*
X150821427Y-147750000D01*
X150678569Y-147678571D01*
X150464284Y-147678571D01*
X150321427Y-147750000D01*
X150249998Y-147821429D01*
X150178569Y-147964286D01*
X150178569Y-148392857D01*
X150249998Y-148535714D01*
X150321427Y-148607143D01*
X150464284Y-148678571D01*
X150678569Y-148678571D01*
X149535712Y-148678571D02*
X149535712Y-147678571D01*
X149535712Y-147821429D02*
X149464284Y-147750000D01*
X149321426Y-147678571D01*
X149107141Y-147678571D01*
X148964284Y-147750000D01*
X148892855Y-147892857D01*
X148892855Y-148678571D01*
X148892855Y-147892857D02*
X148821426Y-147750000D01*
X148678569Y-147678571D01*
X148464284Y-147678571D01*
X148321426Y-147750000D01*
X148249998Y-147892857D01*
X148249998Y-148678571D01*
X145749998Y-148678571D02*
X145749998Y-147892857D01*
X145821427Y-147750000D01*
X145964284Y-147678571D01*
X146249998Y-147678571D01*
X146392855Y-147750000D01*
X145749998Y-148607143D02*
X145892855Y-148678571D01*
X146249998Y-148678571D01*
X146392855Y-148607143D01*
X146464284Y-148464286D01*
X146464284Y-148321429D01*
X146392855Y-148178571D01*
X146249998Y-148107143D01*
X145892855Y-148107143D01*
X145749998Y-148035714D01*
X144821426Y-148678571D02*
X144964284Y-148607143D01*
X145035712Y-148464286D01*
X145035712Y-147178571D01*
X144035712Y-148678571D02*
X144178570Y-148607143D01*
X144249998Y-148464286D01*
X144249998Y-147178571D01*
X142107141Y-148678571D02*
X142249999Y-148607143D01*
X142321427Y-148535714D01*
X142392856Y-148392857D01*
X142392856Y-147964286D01*
X142321427Y-147821429D01*
X142249999Y-147750000D01*
X142107141Y-147678571D01*
X141892856Y-147678571D01*
X141749999Y-147750000D01*
X141678570Y-147821429D01*
X141607141Y-147964286D01*
X141607141Y-148392857D01*
X141678570Y-148535714D01*
X141749999Y-148607143D01*
X141892856Y-148678571D01*
X142107141Y-148678571D01*
X141178570Y-147678571D02*
X140607141Y-147678571D01*
X140964284Y-148678571D02*
X140964284Y-147392857D01*
X140892856Y-147250000D01*
X140749998Y-147178571D01*
X140607141Y-147178571D01*
X138321427Y-147678571D02*
X138321427Y-148678571D01*
X138964284Y-147678571D02*
X138964284Y-148464286D01*
X138892856Y-148607143D01*
X138749998Y-148678571D01*
X138535713Y-148678571D01*
X138392856Y-148607143D01*
X138321427Y-148535714D01*
X137678570Y-148607143D02*
X137535713Y-148678571D01*
X137249998Y-148678571D01*
X137107141Y-148607143D01*
X137035713Y-148464286D01*
X137035713Y-148392857D01*
X137107141Y-148250000D01*
X137249998Y-148178571D01*
X137464284Y-148178571D01*
X137607141Y-148107143D01*
X137678570Y-147964286D01*
X137678570Y-147892857D01*
X137607141Y-147750000D01*
X137464284Y-147678571D01*
X137249998Y-147678571D01*
X137107141Y-147750000D01*
X135249998Y-148678571D02*
X135249998Y-147178571D01*
X134607141Y-148678571D02*
X134607141Y-147892857D01*
X134678570Y-147750000D01*
X134821427Y-147678571D01*
X135035712Y-147678571D01*
X135178570Y-147750000D01*
X135249998Y-147821429D01*
X133321427Y-148607143D02*
X133464284Y-148678571D01*
X133749998Y-148678571D01*
X133892855Y-148607143D01*
X133964284Y-148464286D01*
X133964284Y-147892857D01*
X133892855Y-147750000D01*
X133749998Y-147678571D01*
X133464284Y-147678571D01*
X133321427Y-147750000D01*
X133249998Y-147892857D01*
X133249998Y-148035714D01*
X133964284Y-148178571D01*
X132607141Y-148678571D02*
X132607141Y-147678571D01*
X132607141Y-147964286D02*
X132535713Y-147821429D01*
X132464284Y-147750000D01*
X132321427Y-147678571D01*
X132178570Y-147678571D01*
X131107142Y-148607143D02*
X131249999Y-148678571D01*
X131535713Y-148678571D01*
X131678570Y-148607143D01*
X131749999Y-148464286D01*
X131749999Y-147892857D01*
X131678570Y-147750000D01*
X131535713Y-147678571D01*
X131249999Y-147678571D01*
X131107142Y-147750000D01*
X131035713Y-147892857D01*
X131035713Y-148035714D01*
X131749999Y-148178571D01*
X128607142Y-148678571D02*
X128607142Y-147892857D01*
X128678571Y-147750000D01*
X128821428Y-147678571D01*
X129107142Y-147678571D01*
X129249999Y-147750000D01*
X128607142Y-148607143D02*
X128749999Y-148678571D01*
X129107142Y-148678571D01*
X129249999Y-148607143D01*
X129321428Y-148464286D01*
X129321428Y-148321429D01*
X129249999Y-148178571D01*
X129107142Y-148107143D01*
X128749999Y-148107143D01*
X128607142Y-148035714D01*
X128107142Y-147678571D02*
X127535713Y-147678571D01*
X127892856Y-147178571D02*
X127892856Y-148464286D01*
X127821428Y-148607143D01*
X127678570Y-148678571D01*
X127535713Y-148678571D01*
X126107142Y-147178571D02*
X125249999Y-147178571D01*
X125678570Y-148678571D02*
X125678570Y-147178571D01*
X124749999Y-148678571D02*
X124749999Y-147178571D01*
X124107142Y-148678571D02*
X124107142Y-147892857D01*
X124178571Y-147750000D01*
X124321428Y-147678571D01*
X124535713Y-147678571D01*
X124678571Y-147750000D01*
X124749999Y-147821429D01*
X123392856Y-148678571D02*
X123392856Y-147678571D01*
X123392856Y-147178571D02*
X123464285Y-147250000D01*
X123392856Y-147321429D01*
X123321428Y-147250000D01*
X123392856Y-147178571D01*
X123392856Y-147321429D01*
X122678570Y-148678571D02*
X122678570Y-147678571D01*
X122678570Y-147821429D02*
X122607142Y-147750000D01*
X122464284Y-147678571D01*
X122249999Y-147678571D01*
X122107142Y-147750000D01*
X122035713Y-147892857D01*
X122035713Y-148678571D01*
X122035713Y-147892857D02*
X121964284Y-147750000D01*
X121821427Y-147678571D01*
X121607142Y-147678571D01*
X121464284Y-147750000D01*
X121392856Y-147892857D01*
X121392856Y-148678571D01*
X120678570Y-148678571D02*
X120678570Y-147178571D01*
X120678570Y-147750000D02*
X120535713Y-147678571D01*
X120249999Y-147678571D01*
X120107142Y-147750000D01*
X120035713Y-147821429D01*
X119964284Y-147964286D01*
X119964284Y-148392857D01*
X120035713Y-148535714D01*
X120107142Y-148607143D01*
X120249999Y-148678571D01*
X120535713Y-148678571D01*
X120678570Y-148607143D01*
X119107141Y-148678571D02*
X119249999Y-148607143D01*
X119321427Y-148464286D01*
X119321427Y-147178571D01*
X117964285Y-148607143D02*
X118107142Y-148678571D01*
X118392856Y-148678571D01*
X118535713Y-148607143D01*
X118607142Y-148464286D01*
X118607142Y-147892857D01*
X118535713Y-147750000D01*
X118392856Y-147678571D01*
X118107142Y-147678571D01*
X117964285Y-147750000D01*
X117892856Y-147892857D01*
X117892856Y-148035714D01*
X118607142Y-148178571D01*
D11*
X174000000Y-123000000D02*
X170000000Y-123000000D01*
X174000000Y-145000000D02*
X174000000Y-123000000D01*
X116000000Y-123000000D02*
X120000000Y-123000000D01*
X170000000Y-145000000D02*
X170000000Y-123000000D01*
X116000000Y-145000000D02*
X116000000Y-123000000D01*
X120000000Y-145000000D02*
X120000000Y-123000000D01*
D13*
X122990000Y-83031538D02*
G75*
G02X117440000Y-84576830I-2990000J-462D01*
G01*
X122990000Y-83032462D02*
G75*
G03X117440000Y-81487170I-2990000J462D01*
G01*
X122500000Y-83032000D02*
G75*
G03X122500000Y-83032000I-2500000J0D01*
G01*
X117440000Y-84577000D02*
X117440000Y-81487000D01*
X127990000Y-94031538D02*
G75*
G02X122440000Y-95576830I-2990000J-462D01*
G01*
X127990000Y-94032462D02*
G75*
G03X122440000Y-92487170I-2990000J462D01*
G01*
X127500000Y-94032000D02*
G75*
G03X127500000Y-94032000I-2500000J0D01*
G01*
X122440000Y-95577000D02*
X122440000Y-92487000D01*
X137990000Y-68031538D02*
G75*
G02X132440000Y-69576830I-2990000J-462D01*
G01*
X137990000Y-68032462D02*
G75*
G03X132440000Y-66487170I-2990000J462D01*
G01*
X137500000Y-68032000D02*
G75*
G03X137500000Y-68032000I-2500000J0D01*
G01*
X132440000Y-69577000D02*
X132440000Y-66487000D01*
X138990000Y-81031538D02*
G75*
G02X133440000Y-82576830I-2990000J-462D01*
G01*
X138990000Y-81032462D02*
G75*
G03X133440000Y-79487170I-2990000J462D01*
G01*
X138500000Y-81032000D02*
G75*
G03X138500000Y-81032000I-2500000J0D01*
G01*
X133440000Y-82577000D02*
X133440000Y-79487000D01*
X153990000Y-65031538D02*
G75*
G02X148440000Y-66576830I-2990000J-462D01*
G01*
X153990000Y-65032462D02*
G75*
G03X148440000Y-63487170I-2990000J462D01*
G01*
X153500000Y-65032000D02*
G75*
G03X153500000Y-65032000I-2500000J0D01*
G01*
X148440000Y-66577000D02*
X148440000Y-63487000D01*
X152990000Y-79031538D02*
G75*
G02X147440000Y-80576830I-2990000J-462D01*
G01*
X152990000Y-79032462D02*
G75*
G03X147440000Y-77487170I-2990000J462D01*
G01*
X152500000Y-79032000D02*
G75*
G03X152500000Y-79032000I-2500000J0D01*
G01*
X147440000Y-80577000D02*
X147440000Y-77487000D01*
X167990000Y-71031538D02*
G75*
G02X162440000Y-72576830I-2990000J-462D01*
G01*
X167990000Y-71032462D02*
G75*
G03X162440000Y-69487170I-2990000J462D01*
G01*
X167500000Y-71032000D02*
G75*
G03X167500000Y-71032000I-2500000J0D01*
G01*
X162440000Y-72577000D02*
X162440000Y-69487000D01*
X164990000Y-83031538D02*
G75*
G02X159440000Y-84576830I-2990000J-462D01*
G01*
X164990000Y-83032462D02*
G75*
G03X159440000Y-81487170I-2990000J462D01*
G01*
X164500000Y-83032000D02*
G75*
G03X164500000Y-83032000I-2500000J0D01*
G01*
X159440000Y-84577000D02*
X159440000Y-81487000D01*
D14*
X120738095Y-87444381D02*
X120738095Y-86444381D01*
X120500000Y-86444381D01*
X120357142Y-86492000D01*
X120261904Y-86587238D01*
X120214285Y-86682476D01*
X120166666Y-86872952D01*
X120166666Y-87015810D01*
X120214285Y-87206286D01*
X120261904Y-87301524D01*
X120357142Y-87396762D01*
X120500000Y-87444381D01*
X120738095Y-87444381D01*
X119309523Y-86777714D02*
X119309523Y-87444381D01*
X119547619Y-86396762D02*
X119785714Y-87111048D01*
X119166666Y-87111048D01*
X125738095Y-98444381D02*
X125738095Y-97444381D01*
X125500000Y-97444381D01*
X125357142Y-97492000D01*
X125261904Y-97587238D01*
X125214285Y-97682476D01*
X125166666Y-97872952D01*
X125166666Y-98015810D01*
X125214285Y-98206286D01*
X125261904Y-98301524D01*
X125357142Y-98396762D01*
X125500000Y-98444381D01*
X125738095Y-98444381D01*
X124261904Y-97444381D02*
X124738095Y-97444381D01*
X124785714Y-97920571D01*
X124738095Y-97872952D01*
X124642857Y-97825333D01*
X124404761Y-97825333D01*
X124309523Y-97872952D01*
X124261904Y-97920571D01*
X124214285Y-98015810D01*
X124214285Y-98253905D01*
X124261904Y-98349143D01*
X124309523Y-98396762D01*
X124404761Y-98444381D01*
X124642857Y-98444381D01*
X124738095Y-98396762D01*
X124785714Y-98349143D01*
X135738095Y-72444381D02*
X135738095Y-71444381D01*
X135500000Y-71444381D01*
X135357142Y-71492000D01*
X135261904Y-71587238D01*
X135214285Y-71682476D01*
X135166666Y-71872952D01*
X135166666Y-72015810D01*
X135214285Y-72206286D01*
X135261904Y-72301524D01*
X135357142Y-72396762D01*
X135500000Y-72444381D01*
X135738095Y-72444381D01*
X134690476Y-72444381D02*
X134500000Y-72444381D01*
X134404761Y-72396762D01*
X134357142Y-72349143D01*
X134261904Y-72206286D01*
X134214285Y-72015810D01*
X134214285Y-71634857D01*
X134261904Y-71539619D01*
X134309523Y-71492000D01*
X134404761Y-71444381D01*
X134595238Y-71444381D01*
X134690476Y-71492000D01*
X134738095Y-71539619D01*
X134785714Y-71634857D01*
X134785714Y-71872952D01*
X134738095Y-71968190D01*
X134690476Y-72015810D01*
X134595238Y-72063429D01*
X134404761Y-72063429D01*
X134309523Y-72015810D01*
X134261904Y-71968190D01*
X134214285Y-71872952D01*
X137214286Y-85444381D02*
X137214286Y-84444381D01*
X136976191Y-84444381D01*
X136833333Y-84492000D01*
X136738095Y-84587238D01*
X136690476Y-84682476D01*
X136642857Y-84872952D01*
X136642857Y-85015810D01*
X136690476Y-85206286D01*
X136738095Y-85301524D01*
X136833333Y-85396762D01*
X136976191Y-85444381D01*
X137214286Y-85444381D01*
X135690476Y-85444381D02*
X136261905Y-85444381D01*
X135976191Y-85444381D02*
X135976191Y-84444381D01*
X136071429Y-84587238D01*
X136166667Y-84682476D01*
X136261905Y-84730095D01*
X135071429Y-84444381D02*
X134976190Y-84444381D01*
X134880952Y-84492000D01*
X134833333Y-84539619D01*
X134785714Y-84634857D01*
X134738095Y-84825333D01*
X134738095Y-85063429D01*
X134785714Y-85253905D01*
X134833333Y-85349143D01*
X134880952Y-85396762D01*
X134976190Y-85444381D01*
X135071429Y-85444381D01*
X135166667Y-85396762D01*
X135214286Y-85349143D01*
X135261905Y-85253905D01*
X135309524Y-85063429D01*
X135309524Y-84825333D01*
X135261905Y-84634857D01*
X135214286Y-84539619D01*
X135166667Y-84492000D01*
X135071429Y-84444381D01*
X152214286Y-69444381D02*
X152214286Y-68444381D01*
X151976191Y-68444381D01*
X151833333Y-68492000D01*
X151738095Y-68587238D01*
X151690476Y-68682476D01*
X151642857Y-68872952D01*
X151642857Y-69015810D01*
X151690476Y-69206286D01*
X151738095Y-69301524D01*
X151833333Y-69396762D01*
X151976191Y-69444381D01*
X152214286Y-69444381D01*
X150690476Y-69444381D02*
X151261905Y-69444381D01*
X150976191Y-69444381D02*
X150976191Y-68444381D01*
X151071429Y-68587238D01*
X151166667Y-68682476D01*
X151261905Y-68730095D01*
X149833333Y-68777714D02*
X149833333Y-69444381D01*
X150071429Y-68396762D02*
X150309524Y-69111048D01*
X149690476Y-69111048D01*
X151214286Y-83444381D02*
X151214286Y-82444381D01*
X150976191Y-82444381D01*
X150833333Y-82492000D01*
X150738095Y-82587238D01*
X150690476Y-82682476D01*
X150642857Y-82872952D01*
X150642857Y-83015810D01*
X150690476Y-83206286D01*
X150738095Y-83301524D01*
X150833333Y-83396762D01*
X150976191Y-83444381D01*
X151214286Y-83444381D01*
X149690476Y-83444381D02*
X150261905Y-83444381D01*
X149976191Y-83444381D02*
X149976191Y-82444381D01*
X150071429Y-82587238D01*
X150166667Y-82682476D01*
X150261905Y-82730095D01*
X148785714Y-82444381D02*
X149261905Y-82444381D01*
X149309524Y-82920571D01*
X149261905Y-82872952D01*
X149166667Y-82825333D01*
X148928571Y-82825333D01*
X148833333Y-82872952D01*
X148785714Y-82920571D01*
X148738095Y-83015810D01*
X148738095Y-83253905D01*
X148785714Y-83349143D01*
X148833333Y-83396762D01*
X148928571Y-83444381D01*
X149166667Y-83444381D01*
X149261905Y-83396762D01*
X149309524Y-83349143D01*
X166214286Y-75444381D02*
X166214286Y-74444381D01*
X165976191Y-74444381D01*
X165833333Y-74492000D01*
X165738095Y-74587238D01*
X165690476Y-74682476D01*
X165642857Y-74872952D01*
X165642857Y-75015810D01*
X165690476Y-75206286D01*
X165738095Y-75301524D01*
X165833333Y-75396762D01*
X165976191Y-75444381D01*
X166214286Y-75444381D01*
X164690476Y-75444381D02*
X165261905Y-75444381D01*
X164976191Y-75444381D02*
X164976191Y-74444381D01*
X165071429Y-74587238D01*
X165166667Y-74682476D01*
X165261905Y-74730095D01*
X164214286Y-75444381D02*
X164023810Y-75444381D01*
X163928571Y-75396762D01*
X163880952Y-75349143D01*
X163785714Y-75206286D01*
X163738095Y-75015810D01*
X163738095Y-74634857D01*
X163785714Y-74539619D01*
X163833333Y-74492000D01*
X163928571Y-74444381D01*
X164119048Y-74444381D01*
X164214286Y-74492000D01*
X164261905Y-74539619D01*
X164309524Y-74634857D01*
X164309524Y-74872952D01*
X164261905Y-74968190D01*
X164214286Y-75015810D01*
X164119048Y-75063429D01*
X163928571Y-75063429D01*
X163833333Y-75015810D01*
X163785714Y-74968190D01*
X163738095Y-74872952D01*
X163214286Y-87444381D02*
X163214286Y-86444381D01*
X162976191Y-86444381D01*
X162833333Y-86492000D01*
X162738095Y-86587238D01*
X162690476Y-86682476D01*
X162642857Y-86872952D01*
X162642857Y-87015810D01*
X162690476Y-87206286D01*
X162738095Y-87301524D01*
X162833333Y-87396762D01*
X162976191Y-87444381D01*
X163214286Y-87444381D01*
X162261905Y-86539619D02*
X162214286Y-86492000D01*
X162119048Y-86444381D01*
X161880952Y-86444381D01*
X161785714Y-86492000D01*
X161738095Y-86539619D01*
X161690476Y-86634857D01*
X161690476Y-86730095D01*
X161738095Y-86872952D01*
X162309524Y-87444381D01*
X161690476Y-87444381D01*
X161071429Y-86444381D02*
X160976190Y-86444381D01*
X160880952Y-86492000D01*
X160833333Y-86539619D01*
X160785714Y-86634857D01*
X160738095Y-86825333D01*
X160738095Y-87063429D01*
X160785714Y-87253905D01*
X160833333Y-87349143D01*
X160880952Y-87396762D01*
X160976190Y-87444381D01*
X161071429Y-87444381D01*
X161166667Y-87396762D01*
X161214286Y-87349143D01*
X161261905Y-87253905D01*
X161309524Y-87063429D01*
X161309524Y-86825333D01*
X161261905Y-86634857D01*
X161214286Y-86539619D01*
X161166667Y-86492000D01*
X161071429Y-86444381D01*
M02*
