M48
;DRILL file {KiCad 4.0.6} date 11/09/17 18:00:57
;FORMAT={2:4/ absolute / inch / suppress trailing zeros}
FMAT,2
INCH,LZ
T1C0.016
T2C0.031
T3C0.035
T4C0.039
T5C0.126
%
G90
G05
M72
T1
X067757Y-055404
T2
X041488Y-052362
X044488Y-052362
X044783Y-05
X044783Y-050984
X070197Y-053543
X070197Y-056543
X071197Y-053543
X071197Y-056543
X072197Y-053543
X072197Y-056543
X073197Y-053543
X073197Y-056543
X074197Y-053543
X074197Y-056543
X075197Y-053543
X075197Y-056543
X076197Y-053543
X076197Y-056543
X077197Y-053543
X077197Y-056543
T3
X045776Y-031115
X046744Y-03269
X046776Y-031115
X047531Y-034658
X047744Y-03269
X048531Y-034658
X048713Y-03702
X049713Y-03702
X049894Y-038595
X050894Y-038595
X05265Y-024816
X05265Y-026784
X05265Y-029146
X053043Y-031902
X053437Y-033871
X05365Y-024816
X05365Y-026784
X05365Y-029146
X054043Y-031902
X054437Y-033871
X058555Y-031115
X058555Y-033477
X058949Y-022454
X058949Y-025603
X058949Y-028359
X059555Y-031115
X059555Y-033477
X059949Y-022454
X059949Y-025603
X059949Y-028359
X062492Y-035052
X06328Y-03269
X063492Y-035052
X064067Y-029934
X06428Y-03269
X064461Y-027965
X064854Y-025603
X065067Y-029934
X065461Y-027965
X065854Y-025603
X070276Y-049823
X070276Y-051122
X07126Y-049823
X07126Y-051122
X072244Y-049823
X072244Y-051122
T4
X040339Y-054118
X040339Y-055118
X041339Y-054118
X041339Y-055118
X042339Y-054118
X042339Y-055118
X043339Y-054118
X043339Y-055118
X044339Y-054118
X044339Y-055118
X074409Y-050787
X074409Y-051787
T5
X046457Y-052165
X046457Y-057087
X067717Y-052165
X067717Y-057087
T0
M30
