G04 #@! TF.FileFunction,Legend,Top*
%FSLAX46Y46*%
G04 Gerber Fmt 4.6, Leading zero omitted, Abs format (unit mm)*
G04 Created by KiCad (PCBNEW 4.0.6) date 11/09/17 18:00:55*
%MOMM*%
%LPD*%
G01*
G04 APERTURE LIST*
%ADD10C,0.100000*%
%ADD11C,0.010000*%
%ADD12C,0.120000*%
%ADD13C,0.150000*%
G04 APERTURE END LIST*
D10*
D11*
G36*
X151156647Y-51900796D02*
X151474861Y-52009350D01*
X153246386Y-53074671D01*
X154664130Y-54687985D01*
X155203207Y-55664222D01*
X155397825Y-56130978D01*
X155549151Y-56649117D01*
X155661384Y-57305623D01*
X155738722Y-58187478D01*
X155785363Y-59381665D01*
X155805504Y-60975167D01*
X155803345Y-63054967D01*
X155783082Y-65708046D01*
X155766799Y-67341722D01*
X155726317Y-70090763D01*
X155665369Y-72725314D01*
X155588324Y-75129461D01*
X155499555Y-77187291D01*
X155403433Y-78782892D01*
X155304329Y-79800350D01*
X155294503Y-79865333D01*
X155070565Y-81599970D01*
X154952750Y-83236533D01*
X154942703Y-84621905D01*
X155042065Y-85602966D01*
X155228540Y-86015038D01*
X155436048Y-85962493D01*
X155631085Y-85478639D01*
X155833097Y-84482462D01*
X156061526Y-82892947D01*
X156154154Y-82158389D01*
X156369620Y-81197059D01*
X156813425Y-79760255D01*
X157427868Y-78017474D01*
X158155250Y-76138216D01*
X158435860Y-75455611D01*
X159315669Y-73216461D01*
X160211299Y-70706926D01*
X161021429Y-68224397D01*
X161644734Y-66066270D01*
X161676261Y-65944723D01*
X162384423Y-63394598D01*
X163057334Y-61484022D01*
X163747177Y-60152428D01*
X164506135Y-59339246D01*
X165386391Y-58983909D01*
X166440129Y-59025849D01*
X167407599Y-59292485D01*
X168753756Y-59883990D01*
X169745351Y-60662547D01*
X170405161Y-61710965D01*
X170755964Y-63112052D01*
X170820538Y-64948618D01*
X170621661Y-67303470D01*
X170273033Y-69709703D01*
X169947282Y-71510678D01*
X169560393Y-73348034D01*
X169179429Y-74911140D01*
X169054487Y-75354147D01*
X168651680Y-76979478D01*
X168314704Y-78818032D01*
X168168340Y-79970667D01*
X167994009Y-81113384D01*
X167652917Y-82762963D01*
X167184153Y-84751407D01*
X166626802Y-86910719D01*
X166174734Y-88539297D01*
X165565669Y-90762323D01*
X165007014Y-92984488D01*
X164540953Y-95024056D01*
X164209669Y-96699293D01*
X164079736Y-97564992D01*
X163953880Y-99646107D01*
X164016321Y-101795813D01*
X164242867Y-103872707D01*
X164609325Y-105735382D01*
X165091502Y-107242436D01*
X165665206Y-108252464D01*
X165952433Y-108510763D01*
X166619366Y-108723461D01*
X167283859Y-108787709D01*
X167985762Y-108631383D01*
X168747738Y-108104252D01*
X169645474Y-107131583D01*
X170754659Y-105638642D01*
X171337719Y-104784957D01*
X172741703Y-102996248D01*
X174475911Y-101240384D01*
X176322012Y-99717797D01*
X178021389Y-98649170D01*
X180074026Y-97775265D01*
X182177493Y-97168152D01*
X184167949Y-96853983D01*
X185881557Y-96858907D01*
X187128609Y-97195529D01*
X188461277Y-98145936D01*
X189372649Y-99332626D01*
X189786523Y-100604127D01*
X189626701Y-101808969D01*
X189540457Y-101989825D01*
X189394968Y-102503275D01*
X189700780Y-102933023D01*
X190301915Y-103325077D01*
X191583812Y-104171037D01*
X192732475Y-105103613D01*
X193619111Y-105998386D01*
X194114931Y-106730936D01*
X194167171Y-107059138D01*
X193974667Y-107340407D01*
X193488292Y-107537225D01*
X192584284Y-107675174D01*
X191138875Y-107779836D01*
X190529232Y-107811081D01*
X188852443Y-107934206D01*
X187517192Y-108115152D01*
X186675181Y-108330873D01*
X186510598Y-108421625D01*
X186200283Y-108888226D01*
X186101382Y-109703169D01*
X186169923Y-110857200D01*
X186245738Y-112061263D01*
X186139349Y-112843568D01*
X185787097Y-113477881D01*
X185472954Y-113854445D01*
X184612546Y-114543506D01*
X183654925Y-114908306D01*
X182797815Y-114921290D01*
X182238940Y-114554903D01*
X182147378Y-114317889D01*
X182229110Y-113883914D01*
X183316182Y-113883914D01*
X183426769Y-114079132D01*
X183520911Y-114084778D01*
X184126033Y-113836310D01*
X184645765Y-113375190D01*
X185098763Y-112393328D01*
X185209457Y-111100155D01*
X184956000Y-109812942D01*
X184900556Y-109675055D01*
X184720240Y-109437564D01*
X184615940Y-109799646D01*
X184572573Y-110807841D01*
X184469929Y-112087971D01*
X184153261Y-112923836D01*
X183775702Y-113365480D01*
X183316182Y-113883914D01*
X182229110Y-113883914D01*
X182279177Y-113618074D01*
X182778938Y-112855325D01*
X183367270Y-111842479D01*
X183428228Y-111140273D01*
X183351772Y-110757324D01*
X183178747Y-110610788D01*
X182807732Y-110749074D01*
X182137310Y-111220589D01*
X181066061Y-112073743D01*
X180490833Y-112542319D01*
X179193997Y-113602799D01*
X178006294Y-114577692D01*
X177096466Y-115328318D01*
X176756046Y-115611760D01*
X176198354Y-116155950D01*
X175299578Y-117119012D01*
X174170943Y-118378316D01*
X172923677Y-119811234D01*
X172541496Y-120258389D01*
X168179625Y-125071225D01*
X163279147Y-129906986D01*
X159853333Y-133011265D01*
X158582016Y-134166583D01*
X157469148Y-135253166D01*
X156651489Y-136133053D01*
X156303838Y-136591916D01*
X155502941Y-137389965D01*
X154194501Y-138067996D01*
X152575155Y-138550074D01*
X150841537Y-138760260D01*
X150681111Y-138763300D01*
X149093611Y-138778260D01*
X149211047Y-140660231D01*
X149337249Y-141828082D01*
X149599500Y-142528130D01*
X150100467Y-142997334D01*
X150269380Y-143102966D01*
X151093126Y-143705294D01*
X152061508Y-144562924D01*
X152426674Y-144926330D01*
X153141206Y-145745242D01*
X153373190Y-146268229D01*
X153211619Y-146620381D01*
X152720506Y-146875259D01*
X152088204Y-146619694D01*
X151367520Y-146239919D01*
X151106784Y-146338193D01*
X151209276Y-146889954D01*
X151324930Y-147747449D01*
X151043163Y-148066936D01*
X150477250Y-147797232D01*
X150096659Y-147392684D01*
X149273505Y-146363944D01*
X149271752Y-147472729D01*
X149102001Y-148387522D01*
X148697292Y-148812387D01*
X148209048Y-148680828D01*
X147847595Y-148098129D01*
X147591671Y-147312952D01*
X147506111Y-146870145D01*
X147286334Y-146559005D01*
X146667732Y-146773764D01*
X146250621Y-147058280D01*
X145444910Y-147505204D01*
X144868316Y-147528738D01*
X144683889Y-147196711D01*
X144857954Y-146698737D01*
X145301712Y-145834778D01*
X148211667Y-145834778D01*
X148340742Y-146125154D01*
X148446852Y-146069963D01*
X148489072Y-145651298D01*
X148446852Y-145599593D01*
X148237126Y-145648018D01*
X148211667Y-145834778D01*
X145301712Y-145834778D01*
X145308971Y-145820646D01*
X145636996Y-145260612D01*
X146811283Y-145260612D01*
X146956152Y-145337687D01*
X147181590Y-145041028D01*
X147707646Y-144528362D01*
X148052807Y-144423667D01*
X148510808Y-144626566D01*
X148564444Y-144788856D01*
X148808268Y-144958907D01*
X149292778Y-144764254D01*
X149781232Y-144377241D01*
X149661989Y-143945025D01*
X149602360Y-143869898D01*
X149011300Y-143435930D01*
X148713756Y-143365333D01*
X148424157Y-143106761D01*
X148229725Y-142282946D01*
X148120491Y-140984083D01*
X147997079Y-138602833D01*
X147927984Y-141293665D01*
X147828198Y-142930532D01*
X147618882Y-143956078D01*
X147329722Y-144423667D01*
X146889204Y-144977126D01*
X146811283Y-145260612D01*
X145636996Y-145260612D01*
X145794417Y-144991850D01*
X146523693Y-143608010D01*
X146866263Y-142320058D01*
X146940944Y-141248667D01*
X146976944Y-139308389D01*
X144154722Y-139087409D01*
X142610363Y-138946615D01*
X141160597Y-138780704D01*
X140093777Y-138623083D01*
X140009583Y-138607176D01*
X139148690Y-138474770D01*
X138766985Y-138612763D01*
X138655458Y-139136019D01*
X138644591Y-139357322D01*
X138593020Y-141481496D01*
X138660084Y-143073696D01*
X138872573Y-144301501D01*
X139257273Y-145332490D01*
X139733594Y-146169781D01*
X140445232Y-147462929D01*
X140774781Y-148480366D01*
X140708677Y-149128067D01*
X140233354Y-149312004D01*
X140185972Y-149305341D01*
X139397349Y-149367876D01*
X139113478Y-149489127D01*
X138557809Y-149446368D01*
X137922743Y-148839312D01*
X137187142Y-147904147D01*
X136241906Y-148809740D01*
X135434262Y-149505590D01*
X135008509Y-149633580D01*
X134908119Y-149178660D01*
X135005775Y-148480611D01*
X135112883Y-147641339D01*
X134948947Y-147315608D01*
X134409561Y-147468140D01*
X133524809Y-147980232D01*
X132738080Y-148418309D01*
X132332255Y-148465460D01*
X132131964Y-148181260D01*
X132269237Y-147595938D01*
X132975111Y-146729789D01*
X132988884Y-146716722D01*
X136217222Y-146716722D01*
X136393611Y-146893111D01*
X136570000Y-146716722D01*
X136393611Y-146540333D01*
X136217222Y-146716722D01*
X132988884Y-146716722D01*
X133427723Y-146300389D01*
X134663726Y-145153230D01*
X136079511Y-145153230D01*
X136148829Y-145567205D01*
X136237640Y-145682991D01*
X136837650Y-146117379D01*
X137142362Y-146187556D01*
X137583231Y-146404427D01*
X137628333Y-146561153D01*
X137844458Y-146771845D01*
X137981111Y-146716722D01*
X138317213Y-146201768D01*
X138333889Y-146057773D01*
X138139450Y-145434928D01*
X137864989Y-144975594D01*
X137399679Y-144546922D01*
X136822050Y-144648166D01*
X136607489Y-144756381D01*
X136079511Y-145153230D01*
X134663726Y-145153230D01*
X134777582Y-145047558D01*
X135673670Y-144046899D01*
X136208347Y-143103878D01*
X136447742Y-142130611D01*
X137275556Y-142130611D01*
X137451944Y-142307000D01*
X137628333Y-142130611D01*
X137451944Y-141954222D01*
X137275556Y-142130611D01*
X136447742Y-142130611D01*
X136473976Y-142023959D01*
X136562917Y-140612607D01*
X136570000Y-139681985D01*
X136570000Y-137850721D01*
X134541528Y-137019933D01*
X132442999Y-135836688D01*
X130391968Y-134085659D01*
X128497445Y-131901931D01*
X126868439Y-129420590D01*
X125613961Y-126776719D01*
X125143307Y-125373667D01*
X124476772Y-122453655D01*
X123972070Y-119001917D01*
X123646797Y-115177381D01*
X123518546Y-111138973D01*
X123517222Y-110685482D01*
X123517222Y-105164875D01*
X120183054Y-98071354D01*
X118434892Y-94301553D01*
X116984498Y-91046174D01*
X115794520Y-88198754D01*
X114827607Y-85652826D01*
X114046407Y-83301924D01*
X113413567Y-81039584D01*
X112891736Y-78759340D01*
X112443562Y-76354725D01*
X112335799Y-75704077D01*
X112328486Y-75578831D01*
X113071869Y-75578831D01*
X113222685Y-76095523D01*
X113457495Y-76663744D01*
X113694835Y-77669041D01*
X113817037Y-78421294D01*
X114270651Y-80797331D01*
X115049196Y-83544248D01*
X116169294Y-86706414D01*
X117647567Y-90328201D01*
X119500639Y-94453977D01*
X121016300Y-97638056D01*
X121948011Y-99583293D01*
X122800411Y-101410202D01*
X123511900Y-102983113D01*
X124020875Y-104166356D01*
X124239199Y-104736167D01*
X124468325Y-105895680D01*
X124601326Y-107697308D01*
X124639647Y-110165203D01*
X124629971Y-111262555D01*
X124718385Y-116164584D01*
X125139004Y-120480867D01*
X125904621Y-124254770D01*
X127028024Y-127529659D01*
X128522005Y-130348900D01*
X130399354Y-132755861D01*
X131207417Y-133563472D01*
X132754306Y-134820191D01*
X134485722Y-135815658D01*
X136575689Y-136632513D01*
X139178344Y-137348664D01*
X141100325Y-137792945D01*
X142528595Y-138077937D01*
X143651237Y-138225905D01*
X144656335Y-138259118D01*
X145731974Y-138199840D01*
X146095000Y-138167494D01*
X147564251Y-138043147D01*
X149053859Y-137937456D01*
X149622778Y-137904561D01*
X150882712Y-137790679D01*
X152026580Y-137548932D01*
X153145590Y-137122811D01*
X154330949Y-136455811D01*
X155673865Y-135491424D01*
X157265546Y-134173143D01*
X159197199Y-132444462D01*
X160738161Y-131018111D01*
X162814306Y-129033324D01*
X165057310Y-126808697D01*
X167293627Y-124521701D01*
X169349708Y-122349808D01*
X171046917Y-120476291D01*
X174438873Y-116814028D01*
X177823667Y-113554529D01*
X179757559Y-111880166D01*
X181242376Y-110637097D01*
X182539264Y-109521844D01*
X183546975Y-108623779D01*
X184164262Y-108032275D01*
X184300724Y-107869902D01*
X184822168Y-107433181D01*
X185066984Y-107382000D01*
X185649361Y-107098833D01*
X185682492Y-107066965D01*
X187017222Y-107066965D01*
X187274188Y-107301918D01*
X187550823Y-107252725D01*
X188166177Y-107111487D01*
X189238164Y-106947366D01*
X190373045Y-106813487D01*
X191702859Y-106648592D01*
X192416534Y-106460504D01*
X192602872Y-106196605D01*
X192350675Y-105804275D01*
X192250609Y-105700943D01*
X191803761Y-105496513D01*
X191456859Y-105801271D01*
X190787275Y-106148704D01*
X190246331Y-106091714D01*
X189669669Y-105812857D01*
X189557326Y-105257970D01*
X189620151Y-104862497D01*
X189678443Y-104083364D01*
X189453965Y-103907560D01*
X188999609Y-104317820D01*
X188385945Y-105265333D01*
X187855628Y-106107127D01*
X187427222Y-106611879D01*
X187305039Y-106676444D01*
X187030202Y-106951238D01*
X187017222Y-107066965D01*
X185682492Y-107066965D01*
X186400419Y-106376411D01*
X187170928Y-105405353D01*
X187811660Y-104376280D01*
X188173385Y-103479810D01*
X188190668Y-103391934D01*
X188409737Y-102237237D01*
X188620554Y-101297237D01*
X188581100Y-100109487D01*
X187937852Y-99009064D01*
X186789530Y-98148768D01*
X186500626Y-98015906D01*
X184951981Y-97707066D01*
X183054256Y-97860997D01*
X180952020Y-98436367D01*
X178789841Y-99391847D01*
X176712288Y-100686104D01*
X176433889Y-100893909D01*
X174724730Y-102281898D01*
X173403768Y-103589299D01*
X172237660Y-105069431D01*
X171333268Y-106431138D01*
X170113697Y-108045616D01*
X168829079Y-109192509D01*
X167586638Y-109785551D01*
X167085278Y-109848807D01*
X165859394Y-109534219D01*
X164726063Y-108715753D01*
X163916357Y-107581354D01*
X163749700Y-107135767D01*
X163183463Y-104790439D01*
X162867270Y-102525998D01*
X162809563Y-100214921D01*
X163018786Y-97729680D01*
X163503384Y-94942751D01*
X164271799Y-91726608D01*
X164927638Y-89344937D01*
X165513691Y-87196169D01*
X166058847Y-85014842D01*
X166514508Y-83008408D01*
X166832081Y-81384321D01*
X166910932Y-80878271D01*
X167219315Y-79023305D01*
X167647633Y-76929196D01*
X168106517Y-75030593D01*
X168134690Y-74926444D01*
X168534867Y-73271206D01*
X168955400Y-71222944D01*
X169335842Y-69089548D01*
X169532605Y-67805843D01*
X169776134Y-65985889D01*
X169905209Y-64704459D01*
X169921771Y-63804190D01*
X169827759Y-63127719D01*
X169625114Y-62517680D01*
X169598595Y-62453422D01*
X168671989Y-61072235D01*
X167311498Y-60225830D01*
X165938688Y-59972472D01*
X165326135Y-59991819D01*
X164837134Y-60151190D01*
X164424207Y-60540187D01*
X164039873Y-61248409D01*
X163636653Y-62365460D01*
X163167067Y-63980939D01*
X162583637Y-66184448D01*
X162522913Y-66418561D01*
X161905605Y-68569871D01*
X161098580Y-71055650D01*
X160206187Y-73569016D01*
X159332780Y-75803086D01*
X159327526Y-75815703D01*
X158098942Y-78992020D01*
X157249228Y-81704137D01*
X156852153Y-83517722D01*
X156492261Y-85374367D01*
X156056602Y-87052264D01*
X155589055Y-88424155D01*
X155133500Y-89362782D01*
X154733818Y-89740889D01*
X154705573Y-89743111D01*
X154501921Y-89416508D01*
X154323562Y-88540950D01*
X154177962Y-87272811D01*
X154140957Y-86744500D01*
X154914444Y-86744500D01*
X155090833Y-86920889D01*
X155267222Y-86744500D01*
X155090833Y-86568111D01*
X154914444Y-86744500D01*
X154140957Y-86744500D01*
X154072589Y-85768467D01*
X154014910Y-84184292D01*
X154012389Y-82676660D01*
X154072496Y-81401947D01*
X154202695Y-80516529D01*
X154257018Y-80349027D01*
X154399099Y-79642311D01*
X154522522Y-78256185D01*
X154627540Y-76184921D01*
X154714408Y-73422790D01*
X154783382Y-69964063D01*
X154812586Y-67861702D01*
X154952225Y-56387238D01*
X153878248Y-54904655D01*
X152745534Y-53694175D01*
X151531413Y-53145825D01*
X150130682Y-53216581D01*
X149899481Y-53277500D01*
X149037852Y-53599169D01*
X148395975Y-54067182D01*
X147939659Y-54781730D01*
X147634712Y-55843003D01*
X147446940Y-57351189D01*
X147342151Y-59406479D01*
X147306156Y-60876377D01*
X147192236Y-64270526D01*
X146976691Y-67157218D01*
X146637227Y-69730074D01*
X146151548Y-72182719D01*
X145872934Y-73323746D01*
X145624962Y-74546548D01*
X145371679Y-76232163D01*
X145146058Y-78138890D01*
X145006661Y-79673746D01*
X144728827Y-82593904D01*
X144394843Y-84851688D01*
X144007242Y-86435707D01*
X143568559Y-87334570D01*
X143255302Y-87546393D01*
X142701762Y-87310096D01*
X142106019Y-86458927D01*
X141491205Y-85080538D01*
X140880453Y-83262582D01*
X140296897Y-81092711D01*
X139763669Y-78658575D01*
X139303903Y-76047829D01*
X138940730Y-73348123D01*
X138697285Y-70647109D01*
X138667762Y-70163944D01*
X138493224Y-67238006D01*
X138322327Y-64926503D01*
X138132651Y-63138794D01*
X137901777Y-61784241D01*
X137607284Y-60772203D01*
X137226753Y-60012041D01*
X136737764Y-59413115D01*
X136117897Y-58884785D01*
X135824828Y-58670457D01*
X135065719Y-58177050D01*
X134522361Y-58079664D01*
X133845462Y-58351787D01*
X133568431Y-58499200D01*
X132682040Y-59123903D01*
X132060631Y-59817550D01*
X132026806Y-59878138D01*
X131763284Y-60764258D01*
X131543468Y-62254039D01*
X131368200Y-64246889D01*
X131238325Y-66642216D01*
X131154685Y-69339428D01*
X131118123Y-72237933D01*
X131129482Y-75237140D01*
X131189604Y-78236457D01*
X131299334Y-81135292D01*
X131459513Y-83833053D01*
X131670985Y-86229149D01*
X131797100Y-87289310D01*
X132113007Y-89894456D01*
X132283040Y-91836329D01*
X132308098Y-93141779D01*
X132189082Y-93837652D01*
X132021197Y-93976444D01*
X131360660Y-93691459D01*
X130528979Y-92823314D01*
X129512899Y-91352229D01*
X128299164Y-89258420D01*
X126874521Y-86522106D01*
X126441428Y-85649106D01*
X125356762Y-83458306D01*
X124493816Y-81776881D01*
X123769556Y-80477862D01*
X123100950Y-79434281D01*
X122404964Y-78519169D01*
X121598564Y-77605556D01*
X120598717Y-76566476D01*
X120310123Y-76273563D01*
X118709405Y-74712209D01*
X117462877Y-73660987D01*
X116483496Y-73079461D01*
X115684219Y-72927198D01*
X114978004Y-73163763D01*
X114469465Y-73560382D01*
X113453327Y-74690202D01*
X113071869Y-75578831D01*
X112328486Y-75578831D01*
X112292667Y-74965471D01*
X112520524Y-74344786D01*
X113131207Y-73618206D01*
X113613821Y-73146438D01*
X114523752Y-72379685D01*
X115324216Y-71873000D01*
X115707252Y-71751444D01*
X116629059Y-72030068D01*
X117835773Y-72797727D01*
X119227450Y-73952104D01*
X120704145Y-75390883D01*
X122165914Y-77011745D01*
X123512813Y-78712374D01*
X124644897Y-80390453D01*
X125285207Y-81556793D01*
X126667747Y-84405093D01*
X127784825Y-86678718D01*
X128670173Y-88441971D01*
X129357522Y-89759154D01*
X129880602Y-90694572D01*
X130273144Y-91312527D01*
X130568879Y-91677322D01*
X130619304Y-91725495D01*
X131060013Y-92073302D01*
X131241431Y-91943398D01*
X131278198Y-91228031D01*
X131278333Y-91106051D01*
X131231755Y-90275215D01*
X131105263Y-88937299D01*
X130918722Y-87283686D01*
X130714281Y-85671514D01*
X130534858Y-84146768D01*
X130402481Y-82548481D01*
X130313929Y-80762844D01*
X130265983Y-78676049D01*
X130255422Y-76174289D01*
X130279025Y-73143754D01*
X130305291Y-71217662D01*
X130360803Y-67990017D01*
X130427898Y-65388581D01*
X130519548Y-63334005D01*
X130648726Y-61746944D01*
X130828402Y-60548050D01*
X131071548Y-59657977D01*
X131391136Y-58997379D01*
X131800136Y-58486909D01*
X132311521Y-58047219D01*
X132478649Y-57923202D01*
X133712918Y-57208879D01*
X134763157Y-57096489D01*
X135826175Y-57596792D01*
X136493902Y-58142718D01*
X137657928Y-59380979D01*
X138485381Y-60754151D01*
X139023810Y-62403766D01*
X139320762Y-64471359D01*
X139421475Y-66856959D01*
X139467204Y-68789128D01*
X139552251Y-70760615D01*
X139662734Y-72489353D01*
X139740475Y-73338944D01*
X139992108Y-75168256D01*
X140358484Y-77243746D01*
X140801764Y-79399992D01*
X141284111Y-81471573D01*
X141767685Y-83293067D01*
X142214648Y-84699053D01*
X142488737Y-85353808D01*
X143184951Y-86710868D01*
X143564963Y-84258240D01*
X143790814Y-82608140D01*
X144011084Y-80683207D01*
X144170863Y-78983389D01*
X144299211Y-77524678D01*
X144446408Y-76265673D01*
X144645862Y-75007169D01*
X144930978Y-73549959D01*
X145335166Y-71694840D01*
X145561174Y-70693111D01*
X145826921Y-69143818D01*
X146063363Y-67018419D01*
X146258655Y-64446149D01*
X146400954Y-61556241D01*
X146402547Y-61513222D01*
X146495600Y-59171096D01*
X146587519Y-57419543D01*
X146693421Y-56143767D01*
X146828423Y-55228972D01*
X147007640Y-54560363D01*
X147246189Y-54023143D01*
X147430689Y-53705424D01*
X148513507Y-52445723D01*
X149774673Y-51836136D01*
X151156647Y-51900796D01*
X151156647Y-51900796D01*
G37*
X151156647Y-51900796D02*
X151474861Y-52009350D01*
X153246386Y-53074671D01*
X154664130Y-54687985D01*
X155203207Y-55664222D01*
X155397825Y-56130978D01*
X155549151Y-56649117D01*
X155661384Y-57305623D01*
X155738722Y-58187478D01*
X155785363Y-59381665D01*
X155805504Y-60975167D01*
X155803345Y-63054967D01*
X155783082Y-65708046D01*
X155766799Y-67341722D01*
X155726317Y-70090763D01*
X155665369Y-72725314D01*
X155588324Y-75129461D01*
X155499555Y-77187291D01*
X155403433Y-78782892D01*
X155304329Y-79800350D01*
X155294503Y-79865333D01*
X155070565Y-81599970D01*
X154952750Y-83236533D01*
X154942703Y-84621905D01*
X155042065Y-85602966D01*
X155228540Y-86015038D01*
X155436048Y-85962493D01*
X155631085Y-85478639D01*
X155833097Y-84482462D01*
X156061526Y-82892947D01*
X156154154Y-82158389D01*
X156369620Y-81197059D01*
X156813425Y-79760255D01*
X157427868Y-78017474D01*
X158155250Y-76138216D01*
X158435860Y-75455611D01*
X159315669Y-73216461D01*
X160211299Y-70706926D01*
X161021429Y-68224397D01*
X161644734Y-66066270D01*
X161676261Y-65944723D01*
X162384423Y-63394598D01*
X163057334Y-61484022D01*
X163747177Y-60152428D01*
X164506135Y-59339246D01*
X165386391Y-58983909D01*
X166440129Y-59025849D01*
X167407599Y-59292485D01*
X168753756Y-59883990D01*
X169745351Y-60662547D01*
X170405161Y-61710965D01*
X170755964Y-63112052D01*
X170820538Y-64948618D01*
X170621661Y-67303470D01*
X170273033Y-69709703D01*
X169947282Y-71510678D01*
X169560393Y-73348034D01*
X169179429Y-74911140D01*
X169054487Y-75354147D01*
X168651680Y-76979478D01*
X168314704Y-78818032D01*
X168168340Y-79970667D01*
X167994009Y-81113384D01*
X167652917Y-82762963D01*
X167184153Y-84751407D01*
X166626802Y-86910719D01*
X166174734Y-88539297D01*
X165565669Y-90762323D01*
X165007014Y-92984488D01*
X164540953Y-95024056D01*
X164209669Y-96699293D01*
X164079736Y-97564992D01*
X163953880Y-99646107D01*
X164016321Y-101795813D01*
X164242867Y-103872707D01*
X164609325Y-105735382D01*
X165091502Y-107242436D01*
X165665206Y-108252464D01*
X165952433Y-108510763D01*
X166619366Y-108723461D01*
X167283859Y-108787709D01*
X167985762Y-108631383D01*
X168747738Y-108104252D01*
X169645474Y-107131583D01*
X170754659Y-105638642D01*
X171337719Y-104784957D01*
X172741703Y-102996248D01*
X174475911Y-101240384D01*
X176322012Y-99717797D01*
X178021389Y-98649170D01*
X180074026Y-97775265D01*
X182177493Y-97168152D01*
X184167949Y-96853983D01*
X185881557Y-96858907D01*
X187128609Y-97195529D01*
X188461277Y-98145936D01*
X189372649Y-99332626D01*
X189786523Y-100604127D01*
X189626701Y-101808969D01*
X189540457Y-101989825D01*
X189394968Y-102503275D01*
X189700780Y-102933023D01*
X190301915Y-103325077D01*
X191583812Y-104171037D01*
X192732475Y-105103613D01*
X193619111Y-105998386D01*
X194114931Y-106730936D01*
X194167171Y-107059138D01*
X193974667Y-107340407D01*
X193488292Y-107537225D01*
X192584284Y-107675174D01*
X191138875Y-107779836D01*
X190529232Y-107811081D01*
X188852443Y-107934206D01*
X187517192Y-108115152D01*
X186675181Y-108330873D01*
X186510598Y-108421625D01*
X186200283Y-108888226D01*
X186101382Y-109703169D01*
X186169923Y-110857200D01*
X186245738Y-112061263D01*
X186139349Y-112843568D01*
X185787097Y-113477881D01*
X185472954Y-113854445D01*
X184612546Y-114543506D01*
X183654925Y-114908306D01*
X182797815Y-114921290D01*
X182238940Y-114554903D01*
X182147378Y-114317889D01*
X182229110Y-113883914D01*
X183316182Y-113883914D01*
X183426769Y-114079132D01*
X183520911Y-114084778D01*
X184126033Y-113836310D01*
X184645765Y-113375190D01*
X185098763Y-112393328D01*
X185209457Y-111100155D01*
X184956000Y-109812942D01*
X184900556Y-109675055D01*
X184720240Y-109437564D01*
X184615940Y-109799646D01*
X184572573Y-110807841D01*
X184469929Y-112087971D01*
X184153261Y-112923836D01*
X183775702Y-113365480D01*
X183316182Y-113883914D01*
X182229110Y-113883914D01*
X182279177Y-113618074D01*
X182778938Y-112855325D01*
X183367270Y-111842479D01*
X183428228Y-111140273D01*
X183351772Y-110757324D01*
X183178747Y-110610788D01*
X182807732Y-110749074D01*
X182137310Y-111220589D01*
X181066061Y-112073743D01*
X180490833Y-112542319D01*
X179193997Y-113602799D01*
X178006294Y-114577692D01*
X177096466Y-115328318D01*
X176756046Y-115611760D01*
X176198354Y-116155950D01*
X175299578Y-117119012D01*
X174170943Y-118378316D01*
X172923677Y-119811234D01*
X172541496Y-120258389D01*
X168179625Y-125071225D01*
X163279147Y-129906986D01*
X159853333Y-133011265D01*
X158582016Y-134166583D01*
X157469148Y-135253166D01*
X156651489Y-136133053D01*
X156303838Y-136591916D01*
X155502941Y-137389965D01*
X154194501Y-138067996D01*
X152575155Y-138550074D01*
X150841537Y-138760260D01*
X150681111Y-138763300D01*
X149093611Y-138778260D01*
X149211047Y-140660231D01*
X149337249Y-141828082D01*
X149599500Y-142528130D01*
X150100467Y-142997334D01*
X150269380Y-143102966D01*
X151093126Y-143705294D01*
X152061508Y-144562924D01*
X152426674Y-144926330D01*
X153141206Y-145745242D01*
X153373190Y-146268229D01*
X153211619Y-146620381D01*
X152720506Y-146875259D01*
X152088204Y-146619694D01*
X151367520Y-146239919D01*
X151106784Y-146338193D01*
X151209276Y-146889954D01*
X151324930Y-147747449D01*
X151043163Y-148066936D01*
X150477250Y-147797232D01*
X150096659Y-147392684D01*
X149273505Y-146363944D01*
X149271752Y-147472729D01*
X149102001Y-148387522D01*
X148697292Y-148812387D01*
X148209048Y-148680828D01*
X147847595Y-148098129D01*
X147591671Y-147312952D01*
X147506111Y-146870145D01*
X147286334Y-146559005D01*
X146667732Y-146773764D01*
X146250621Y-147058280D01*
X145444910Y-147505204D01*
X144868316Y-147528738D01*
X144683889Y-147196711D01*
X144857954Y-146698737D01*
X145301712Y-145834778D01*
X148211667Y-145834778D01*
X148340742Y-146125154D01*
X148446852Y-146069963D01*
X148489072Y-145651298D01*
X148446852Y-145599593D01*
X148237126Y-145648018D01*
X148211667Y-145834778D01*
X145301712Y-145834778D01*
X145308971Y-145820646D01*
X145636996Y-145260612D01*
X146811283Y-145260612D01*
X146956152Y-145337687D01*
X147181590Y-145041028D01*
X147707646Y-144528362D01*
X148052807Y-144423667D01*
X148510808Y-144626566D01*
X148564444Y-144788856D01*
X148808268Y-144958907D01*
X149292778Y-144764254D01*
X149781232Y-144377241D01*
X149661989Y-143945025D01*
X149602360Y-143869898D01*
X149011300Y-143435930D01*
X148713756Y-143365333D01*
X148424157Y-143106761D01*
X148229725Y-142282946D01*
X148120491Y-140984083D01*
X147997079Y-138602833D01*
X147927984Y-141293665D01*
X147828198Y-142930532D01*
X147618882Y-143956078D01*
X147329722Y-144423667D01*
X146889204Y-144977126D01*
X146811283Y-145260612D01*
X145636996Y-145260612D01*
X145794417Y-144991850D01*
X146523693Y-143608010D01*
X146866263Y-142320058D01*
X146940944Y-141248667D01*
X146976944Y-139308389D01*
X144154722Y-139087409D01*
X142610363Y-138946615D01*
X141160597Y-138780704D01*
X140093777Y-138623083D01*
X140009583Y-138607176D01*
X139148690Y-138474770D01*
X138766985Y-138612763D01*
X138655458Y-139136019D01*
X138644591Y-139357322D01*
X138593020Y-141481496D01*
X138660084Y-143073696D01*
X138872573Y-144301501D01*
X139257273Y-145332490D01*
X139733594Y-146169781D01*
X140445232Y-147462929D01*
X140774781Y-148480366D01*
X140708677Y-149128067D01*
X140233354Y-149312004D01*
X140185972Y-149305341D01*
X139397349Y-149367876D01*
X139113478Y-149489127D01*
X138557809Y-149446368D01*
X137922743Y-148839312D01*
X137187142Y-147904147D01*
X136241906Y-148809740D01*
X135434262Y-149505590D01*
X135008509Y-149633580D01*
X134908119Y-149178660D01*
X135005775Y-148480611D01*
X135112883Y-147641339D01*
X134948947Y-147315608D01*
X134409561Y-147468140D01*
X133524809Y-147980232D01*
X132738080Y-148418309D01*
X132332255Y-148465460D01*
X132131964Y-148181260D01*
X132269237Y-147595938D01*
X132975111Y-146729789D01*
X132988884Y-146716722D01*
X136217222Y-146716722D01*
X136393611Y-146893111D01*
X136570000Y-146716722D01*
X136393611Y-146540333D01*
X136217222Y-146716722D01*
X132988884Y-146716722D01*
X133427723Y-146300389D01*
X134663726Y-145153230D01*
X136079511Y-145153230D01*
X136148829Y-145567205D01*
X136237640Y-145682991D01*
X136837650Y-146117379D01*
X137142362Y-146187556D01*
X137583231Y-146404427D01*
X137628333Y-146561153D01*
X137844458Y-146771845D01*
X137981111Y-146716722D01*
X138317213Y-146201768D01*
X138333889Y-146057773D01*
X138139450Y-145434928D01*
X137864989Y-144975594D01*
X137399679Y-144546922D01*
X136822050Y-144648166D01*
X136607489Y-144756381D01*
X136079511Y-145153230D01*
X134663726Y-145153230D01*
X134777582Y-145047558D01*
X135673670Y-144046899D01*
X136208347Y-143103878D01*
X136447742Y-142130611D01*
X137275556Y-142130611D01*
X137451944Y-142307000D01*
X137628333Y-142130611D01*
X137451944Y-141954222D01*
X137275556Y-142130611D01*
X136447742Y-142130611D01*
X136473976Y-142023959D01*
X136562917Y-140612607D01*
X136570000Y-139681985D01*
X136570000Y-137850721D01*
X134541528Y-137019933D01*
X132442999Y-135836688D01*
X130391968Y-134085659D01*
X128497445Y-131901931D01*
X126868439Y-129420590D01*
X125613961Y-126776719D01*
X125143307Y-125373667D01*
X124476772Y-122453655D01*
X123972070Y-119001917D01*
X123646797Y-115177381D01*
X123518546Y-111138973D01*
X123517222Y-110685482D01*
X123517222Y-105164875D01*
X120183054Y-98071354D01*
X118434892Y-94301553D01*
X116984498Y-91046174D01*
X115794520Y-88198754D01*
X114827607Y-85652826D01*
X114046407Y-83301924D01*
X113413567Y-81039584D01*
X112891736Y-78759340D01*
X112443562Y-76354725D01*
X112335799Y-75704077D01*
X112328486Y-75578831D01*
X113071869Y-75578831D01*
X113222685Y-76095523D01*
X113457495Y-76663744D01*
X113694835Y-77669041D01*
X113817037Y-78421294D01*
X114270651Y-80797331D01*
X115049196Y-83544248D01*
X116169294Y-86706414D01*
X117647567Y-90328201D01*
X119500639Y-94453977D01*
X121016300Y-97638056D01*
X121948011Y-99583293D01*
X122800411Y-101410202D01*
X123511900Y-102983113D01*
X124020875Y-104166356D01*
X124239199Y-104736167D01*
X124468325Y-105895680D01*
X124601326Y-107697308D01*
X124639647Y-110165203D01*
X124629971Y-111262555D01*
X124718385Y-116164584D01*
X125139004Y-120480867D01*
X125904621Y-124254770D01*
X127028024Y-127529659D01*
X128522005Y-130348900D01*
X130399354Y-132755861D01*
X131207417Y-133563472D01*
X132754306Y-134820191D01*
X134485722Y-135815658D01*
X136575689Y-136632513D01*
X139178344Y-137348664D01*
X141100325Y-137792945D01*
X142528595Y-138077937D01*
X143651237Y-138225905D01*
X144656335Y-138259118D01*
X145731974Y-138199840D01*
X146095000Y-138167494D01*
X147564251Y-138043147D01*
X149053859Y-137937456D01*
X149622778Y-137904561D01*
X150882712Y-137790679D01*
X152026580Y-137548932D01*
X153145590Y-137122811D01*
X154330949Y-136455811D01*
X155673865Y-135491424D01*
X157265546Y-134173143D01*
X159197199Y-132444462D01*
X160738161Y-131018111D01*
X162814306Y-129033324D01*
X165057310Y-126808697D01*
X167293627Y-124521701D01*
X169349708Y-122349808D01*
X171046917Y-120476291D01*
X174438873Y-116814028D01*
X177823667Y-113554529D01*
X179757559Y-111880166D01*
X181242376Y-110637097D01*
X182539264Y-109521844D01*
X183546975Y-108623779D01*
X184164262Y-108032275D01*
X184300724Y-107869902D01*
X184822168Y-107433181D01*
X185066984Y-107382000D01*
X185649361Y-107098833D01*
X185682492Y-107066965D01*
X187017222Y-107066965D01*
X187274188Y-107301918D01*
X187550823Y-107252725D01*
X188166177Y-107111487D01*
X189238164Y-106947366D01*
X190373045Y-106813487D01*
X191702859Y-106648592D01*
X192416534Y-106460504D01*
X192602872Y-106196605D01*
X192350675Y-105804275D01*
X192250609Y-105700943D01*
X191803761Y-105496513D01*
X191456859Y-105801271D01*
X190787275Y-106148704D01*
X190246331Y-106091714D01*
X189669669Y-105812857D01*
X189557326Y-105257970D01*
X189620151Y-104862497D01*
X189678443Y-104083364D01*
X189453965Y-103907560D01*
X188999609Y-104317820D01*
X188385945Y-105265333D01*
X187855628Y-106107127D01*
X187427222Y-106611879D01*
X187305039Y-106676444D01*
X187030202Y-106951238D01*
X187017222Y-107066965D01*
X185682492Y-107066965D01*
X186400419Y-106376411D01*
X187170928Y-105405353D01*
X187811660Y-104376280D01*
X188173385Y-103479810D01*
X188190668Y-103391934D01*
X188409737Y-102237237D01*
X188620554Y-101297237D01*
X188581100Y-100109487D01*
X187937852Y-99009064D01*
X186789530Y-98148768D01*
X186500626Y-98015906D01*
X184951981Y-97707066D01*
X183054256Y-97860997D01*
X180952020Y-98436367D01*
X178789841Y-99391847D01*
X176712288Y-100686104D01*
X176433889Y-100893909D01*
X174724730Y-102281898D01*
X173403768Y-103589299D01*
X172237660Y-105069431D01*
X171333268Y-106431138D01*
X170113697Y-108045616D01*
X168829079Y-109192509D01*
X167586638Y-109785551D01*
X167085278Y-109848807D01*
X165859394Y-109534219D01*
X164726063Y-108715753D01*
X163916357Y-107581354D01*
X163749700Y-107135767D01*
X163183463Y-104790439D01*
X162867270Y-102525998D01*
X162809563Y-100214921D01*
X163018786Y-97729680D01*
X163503384Y-94942751D01*
X164271799Y-91726608D01*
X164927638Y-89344937D01*
X165513691Y-87196169D01*
X166058847Y-85014842D01*
X166514508Y-83008408D01*
X166832081Y-81384321D01*
X166910932Y-80878271D01*
X167219315Y-79023305D01*
X167647633Y-76929196D01*
X168106517Y-75030593D01*
X168134690Y-74926444D01*
X168534867Y-73271206D01*
X168955400Y-71222944D01*
X169335842Y-69089548D01*
X169532605Y-67805843D01*
X169776134Y-65985889D01*
X169905209Y-64704459D01*
X169921771Y-63804190D01*
X169827759Y-63127719D01*
X169625114Y-62517680D01*
X169598595Y-62453422D01*
X168671989Y-61072235D01*
X167311498Y-60225830D01*
X165938688Y-59972472D01*
X165326135Y-59991819D01*
X164837134Y-60151190D01*
X164424207Y-60540187D01*
X164039873Y-61248409D01*
X163636653Y-62365460D01*
X163167067Y-63980939D01*
X162583637Y-66184448D01*
X162522913Y-66418561D01*
X161905605Y-68569871D01*
X161098580Y-71055650D01*
X160206187Y-73569016D01*
X159332780Y-75803086D01*
X159327526Y-75815703D01*
X158098942Y-78992020D01*
X157249228Y-81704137D01*
X156852153Y-83517722D01*
X156492261Y-85374367D01*
X156056602Y-87052264D01*
X155589055Y-88424155D01*
X155133500Y-89362782D01*
X154733818Y-89740889D01*
X154705573Y-89743111D01*
X154501921Y-89416508D01*
X154323562Y-88540950D01*
X154177962Y-87272811D01*
X154140957Y-86744500D01*
X154914444Y-86744500D01*
X155090833Y-86920889D01*
X155267222Y-86744500D01*
X155090833Y-86568111D01*
X154914444Y-86744500D01*
X154140957Y-86744500D01*
X154072589Y-85768467D01*
X154014910Y-84184292D01*
X154012389Y-82676660D01*
X154072496Y-81401947D01*
X154202695Y-80516529D01*
X154257018Y-80349027D01*
X154399099Y-79642311D01*
X154522522Y-78256185D01*
X154627540Y-76184921D01*
X154714408Y-73422790D01*
X154783382Y-69964063D01*
X154812586Y-67861702D01*
X154952225Y-56387238D01*
X153878248Y-54904655D01*
X152745534Y-53694175D01*
X151531413Y-53145825D01*
X150130682Y-53216581D01*
X149899481Y-53277500D01*
X149037852Y-53599169D01*
X148395975Y-54067182D01*
X147939659Y-54781730D01*
X147634712Y-55843003D01*
X147446940Y-57351189D01*
X147342151Y-59406479D01*
X147306156Y-60876377D01*
X147192236Y-64270526D01*
X146976691Y-67157218D01*
X146637227Y-69730074D01*
X146151548Y-72182719D01*
X145872934Y-73323746D01*
X145624962Y-74546548D01*
X145371679Y-76232163D01*
X145146058Y-78138890D01*
X145006661Y-79673746D01*
X144728827Y-82593904D01*
X144394843Y-84851688D01*
X144007242Y-86435707D01*
X143568559Y-87334570D01*
X143255302Y-87546393D01*
X142701762Y-87310096D01*
X142106019Y-86458927D01*
X141491205Y-85080538D01*
X140880453Y-83262582D01*
X140296897Y-81092711D01*
X139763669Y-78658575D01*
X139303903Y-76047829D01*
X138940730Y-73348123D01*
X138697285Y-70647109D01*
X138667762Y-70163944D01*
X138493224Y-67238006D01*
X138322327Y-64926503D01*
X138132651Y-63138794D01*
X137901777Y-61784241D01*
X137607284Y-60772203D01*
X137226753Y-60012041D01*
X136737764Y-59413115D01*
X136117897Y-58884785D01*
X135824828Y-58670457D01*
X135065719Y-58177050D01*
X134522361Y-58079664D01*
X133845462Y-58351787D01*
X133568431Y-58499200D01*
X132682040Y-59123903D01*
X132060631Y-59817550D01*
X132026806Y-59878138D01*
X131763284Y-60764258D01*
X131543468Y-62254039D01*
X131368200Y-64246889D01*
X131238325Y-66642216D01*
X131154685Y-69339428D01*
X131118123Y-72237933D01*
X131129482Y-75237140D01*
X131189604Y-78236457D01*
X131299334Y-81135292D01*
X131459513Y-83833053D01*
X131670985Y-86229149D01*
X131797100Y-87289310D01*
X132113007Y-89894456D01*
X132283040Y-91836329D01*
X132308098Y-93141779D01*
X132189082Y-93837652D01*
X132021197Y-93976444D01*
X131360660Y-93691459D01*
X130528979Y-92823314D01*
X129512899Y-91352229D01*
X128299164Y-89258420D01*
X126874521Y-86522106D01*
X126441428Y-85649106D01*
X125356762Y-83458306D01*
X124493816Y-81776881D01*
X123769556Y-80477862D01*
X123100950Y-79434281D01*
X122404964Y-78519169D01*
X121598564Y-77605556D01*
X120598717Y-76566476D01*
X120310123Y-76273563D01*
X118709405Y-74712209D01*
X117462877Y-73660987D01*
X116483496Y-73079461D01*
X115684219Y-72927198D01*
X114978004Y-73163763D01*
X114469465Y-73560382D01*
X113453327Y-74690202D01*
X113071869Y-75578831D01*
X112328486Y-75578831D01*
X112292667Y-74965471D01*
X112520524Y-74344786D01*
X113131207Y-73618206D01*
X113613821Y-73146438D01*
X114523752Y-72379685D01*
X115324216Y-71873000D01*
X115707252Y-71751444D01*
X116629059Y-72030068D01*
X117835773Y-72797727D01*
X119227450Y-73952104D01*
X120704145Y-75390883D01*
X122165914Y-77011745D01*
X123512813Y-78712374D01*
X124644897Y-80390453D01*
X125285207Y-81556793D01*
X126667747Y-84405093D01*
X127784825Y-86678718D01*
X128670173Y-88441971D01*
X129357522Y-89759154D01*
X129880602Y-90694572D01*
X130273144Y-91312527D01*
X130568879Y-91677322D01*
X130619304Y-91725495D01*
X131060013Y-92073302D01*
X131241431Y-91943398D01*
X131278198Y-91228031D01*
X131278333Y-91106051D01*
X131231755Y-90275215D01*
X131105263Y-88937299D01*
X130918722Y-87283686D01*
X130714281Y-85671514D01*
X130534858Y-84146768D01*
X130402481Y-82548481D01*
X130313929Y-80762844D01*
X130265983Y-78676049D01*
X130255422Y-76174289D01*
X130279025Y-73143754D01*
X130305291Y-71217662D01*
X130360803Y-67990017D01*
X130427898Y-65388581D01*
X130519548Y-63334005D01*
X130648726Y-61746944D01*
X130828402Y-60548050D01*
X131071548Y-59657977D01*
X131391136Y-58997379D01*
X131800136Y-58486909D01*
X132311521Y-58047219D01*
X132478649Y-57923202D01*
X133712918Y-57208879D01*
X134763157Y-57096489D01*
X135826175Y-57596792D01*
X136493902Y-58142718D01*
X137657928Y-59380979D01*
X138485381Y-60754151D01*
X139023810Y-62403766D01*
X139320762Y-64471359D01*
X139421475Y-66856959D01*
X139467204Y-68789128D01*
X139552251Y-70760615D01*
X139662734Y-72489353D01*
X139740475Y-73338944D01*
X139992108Y-75168256D01*
X140358484Y-77243746D01*
X140801764Y-79399992D01*
X141284111Y-81471573D01*
X141767685Y-83293067D01*
X142214648Y-84699053D01*
X142488737Y-85353808D01*
X143184951Y-86710868D01*
X143564963Y-84258240D01*
X143790814Y-82608140D01*
X144011084Y-80683207D01*
X144170863Y-78983389D01*
X144299211Y-77524678D01*
X144446408Y-76265673D01*
X144645862Y-75007169D01*
X144930978Y-73549959D01*
X145335166Y-71694840D01*
X145561174Y-70693111D01*
X145826921Y-69143818D01*
X146063363Y-67018419D01*
X146258655Y-64446149D01*
X146400954Y-61556241D01*
X146402547Y-61513222D01*
X146495600Y-59171096D01*
X146587519Y-57419543D01*
X146693421Y-56143767D01*
X146828423Y-55228972D01*
X147007640Y-54560363D01*
X147246189Y-54023143D01*
X147430689Y-53705424D01*
X148513507Y-52445723D01*
X149774673Y-51836136D01*
X151156647Y-51900796D01*
G36*
X159260264Y-125101615D02*
X159708072Y-125478596D01*
X159690493Y-126036536D01*
X159704249Y-126589360D01*
X160287290Y-126904766D01*
X160371724Y-126926939D01*
X161071723Y-127381941D01*
X161271999Y-128126401D01*
X160963013Y-128942304D01*
X160480394Y-129410607D01*
X159450472Y-129905797D01*
X158565591Y-129767782D01*
X158051258Y-129396052D01*
X157405798Y-129063498D01*
X156902914Y-129175204D01*
X156770278Y-129655331D01*
X156815265Y-129807775D01*
X156808034Y-130349195D01*
X156693057Y-130479845D01*
X156324379Y-130394863D01*
X156230838Y-130226559D01*
X155958088Y-130032869D01*
X155393451Y-130389946D01*
X155324469Y-130450262D01*
X154773853Y-131225573D01*
X154785647Y-132037762D01*
X154905680Y-132657175D01*
X154777365Y-132653476D01*
X154481013Y-132287585D01*
X154025315Y-131860927D01*
X153703925Y-132037971D01*
X153688375Y-132062444D01*
X153673557Y-132603335D01*
X153840494Y-132772348D01*
X154039140Y-133051768D01*
X153720599Y-133246666D01*
X153133036Y-133247357D01*
X152950906Y-133097141D01*
X152960597Y-132958389D01*
X153150555Y-132958389D01*
X153326944Y-133134778D01*
X153503333Y-132958389D01*
X153326944Y-132782000D01*
X153150555Y-132958389D01*
X152960597Y-132958389D01*
X152986322Y-132590069D01*
X153292386Y-132114631D01*
X153737939Y-131499743D01*
X153751128Y-130941168D01*
X153302882Y-130206532D01*
X153007175Y-129834904D01*
X152183613Y-128828085D01*
X151616865Y-129637231D01*
X151151773Y-130160490D01*
X150860674Y-130256933D01*
X150922435Y-129883089D01*
X151329165Y-129231810D01*
X151370171Y-129178930D01*
X151733079Y-128631787D01*
X152867122Y-128631787D01*
X153065290Y-129291025D01*
X153545551Y-130019068D01*
X154293325Y-131069219D01*
X155335245Y-130073526D01*
X156062575Y-129192981D01*
X156255499Y-128372278D01*
X156678333Y-128372278D01*
X156854722Y-128548667D01*
X156947346Y-128456043D01*
X157774038Y-128456043D01*
X157898659Y-128774884D01*
X158089444Y-128908800D01*
X158587368Y-129190968D01*
X158769671Y-129049525D01*
X158795008Y-128346827D01*
X158795005Y-128324464D01*
X159157123Y-128324464D01*
X159289097Y-129113653D01*
X159667611Y-129440645D01*
X160196286Y-129303052D01*
X160662648Y-128841521D01*
X160854221Y-128196695D01*
X160844880Y-128083825D01*
X160487647Y-127437470D01*
X160034553Y-127313944D01*
X159415972Y-127603408D01*
X159157123Y-128324464D01*
X158795005Y-128324464D01*
X158795000Y-128296682D01*
X158758293Y-127644410D01*
X158547564Y-127614198D01*
X158177639Y-127956663D01*
X157774038Y-128456043D01*
X156947346Y-128456043D01*
X157031111Y-128372278D01*
X156854722Y-128195889D01*
X156678333Y-128372278D01*
X156255499Y-128372278D01*
X156259190Y-128356579D01*
X156236070Y-128107694D01*
X156187378Y-127339104D01*
X156418544Y-127202777D01*
X157015450Y-127652612D01*
X157040945Y-127675622D01*
X157685246Y-127945917D01*
X158211170Y-127555952D01*
X158501422Y-126784844D01*
X158862887Y-126119258D01*
X159147778Y-125827134D01*
X159419550Y-125520382D01*
X159122823Y-125401299D01*
X158695475Y-125384886D01*
X157213017Y-125638455D01*
X155522983Y-126369674D01*
X154032638Y-127337756D01*
X153175321Y-128059140D01*
X152867122Y-128631787D01*
X151733079Y-128631787D01*
X151804596Y-128523964D01*
X151912855Y-128136915D01*
X151904278Y-128125537D01*
X152016451Y-127969163D01*
X152180417Y-127951204D01*
X152685576Y-127758873D01*
X153562665Y-127267242D01*
X154489689Y-126670628D01*
X155904507Y-125844233D01*
X157246118Y-125298133D01*
X158402158Y-125046027D01*
X159260264Y-125101615D01*
X159260264Y-125101615D01*
G37*
X159260264Y-125101615D02*
X159708072Y-125478596D01*
X159690493Y-126036536D01*
X159704249Y-126589360D01*
X160287290Y-126904766D01*
X160371724Y-126926939D01*
X161071723Y-127381941D01*
X161271999Y-128126401D01*
X160963013Y-128942304D01*
X160480394Y-129410607D01*
X159450472Y-129905797D01*
X158565591Y-129767782D01*
X158051258Y-129396052D01*
X157405798Y-129063498D01*
X156902914Y-129175204D01*
X156770278Y-129655331D01*
X156815265Y-129807775D01*
X156808034Y-130349195D01*
X156693057Y-130479845D01*
X156324379Y-130394863D01*
X156230838Y-130226559D01*
X155958088Y-130032869D01*
X155393451Y-130389946D01*
X155324469Y-130450262D01*
X154773853Y-131225573D01*
X154785647Y-132037762D01*
X154905680Y-132657175D01*
X154777365Y-132653476D01*
X154481013Y-132287585D01*
X154025315Y-131860927D01*
X153703925Y-132037971D01*
X153688375Y-132062444D01*
X153673557Y-132603335D01*
X153840494Y-132772348D01*
X154039140Y-133051768D01*
X153720599Y-133246666D01*
X153133036Y-133247357D01*
X152950906Y-133097141D01*
X152960597Y-132958389D01*
X153150555Y-132958389D01*
X153326944Y-133134778D01*
X153503333Y-132958389D01*
X153326944Y-132782000D01*
X153150555Y-132958389D01*
X152960597Y-132958389D01*
X152986322Y-132590069D01*
X153292386Y-132114631D01*
X153737939Y-131499743D01*
X153751128Y-130941168D01*
X153302882Y-130206532D01*
X153007175Y-129834904D01*
X152183613Y-128828085D01*
X151616865Y-129637231D01*
X151151773Y-130160490D01*
X150860674Y-130256933D01*
X150922435Y-129883089D01*
X151329165Y-129231810D01*
X151370171Y-129178930D01*
X151733079Y-128631787D01*
X152867122Y-128631787D01*
X153065290Y-129291025D01*
X153545551Y-130019068D01*
X154293325Y-131069219D01*
X155335245Y-130073526D01*
X156062575Y-129192981D01*
X156255499Y-128372278D01*
X156678333Y-128372278D01*
X156854722Y-128548667D01*
X156947346Y-128456043D01*
X157774038Y-128456043D01*
X157898659Y-128774884D01*
X158089444Y-128908800D01*
X158587368Y-129190968D01*
X158769671Y-129049525D01*
X158795008Y-128346827D01*
X158795005Y-128324464D01*
X159157123Y-128324464D01*
X159289097Y-129113653D01*
X159667611Y-129440645D01*
X160196286Y-129303052D01*
X160662648Y-128841521D01*
X160854221Y-128196695D01*
X160844880Y-128083825D01*
X160487647Y-127437470D01*
X160034553Y-127313944D01*
X159415972Y-127603408D01*
X159157123Y-128324464D01*
X158795005Y-128324464D01*
X158795000Y-128296682D01*
X158758293Y-127644410D01*
X158547564Y-127614198D01*
X158177639Y-127956663D01*
X157774038Y-128456043D01*
X156947346Y-128456043D01*
X157031111Y-128372278D01*
X156854722Y-128195889D01*
X156678333Y-128372278D01*
X156255499Y-128372278D01*
X156259190Y-128356579D01*
X156236070Y-128107694D01*
X156187378Y-127339104D01*
X156418544Y-127202777D01*
X157015450Y-127652612D01*
X157040945Y-127675622D01*
X157685246Y-127945917D01*
X158211170Y-127555952D01*
X158501422Y-126784844D01*
X158862887Y-126119258D01*
X159147778Y-125827134D01*
X159419550Y-125520382D01*
X159122823Y-125401299D01*
X158695475Y-125384886D01*
X157213017Y-125638455D01*
X155522983Y-126369674D01*
X154032638Y-127337756D01*
X153175321Y-128059140D01*
X152867122Y-128631787D01*
X151733079Y-128631787D01*
X151804596Y-128523964D01*
X151912855Y-128136915D01*
X151904278Y-128125537D01*
X152016451Y-127969163D01*
X152180417Y-127951204D01*
X152685576Y-127758873D01*
X153562665Y-127267242D01*
X154489689Y-126670628D01*
X155904507Y-125844233D01*
X157246118Y-125298133D01*
X158402158Y-125046027D01*
X159260264Y-125101615D01*
G36*
X185207274Y-99125092D02*
X185980399Y-99759085D01*
X186197647Y-100824387D01*
X186134507Y-101350860D01*
X185626532Y-102761510D01*
X184794428Y-103610834D01*
X183742276Y-103858340D01*
X182574163Y-103463536D01*
X181944575Y-102980890D01*
X181304484Y-102230973D01*
X181186436Y-101594848D01*
X182096958Y-101594848D01*
X182352811Y-102103072D01*
X182594760Y-102301030D01*
X183599834Y-102754180D01*
X184446947Y-102601578D01*
X184888143Y-102113525D01*
X185166553Y-101319187D01*
X185243159Y-100523461D01*
X185105068Y-100005114D01*
X184988750Y-99938134D01*
X183693195Y-99828287D01*
X182903041Y-99966797D01*
X182445134Y-100408704D01*
X182271919Y-100801725D01*
X182096958Y-101594848D01*
X181186436Y-101594848D01*
X181169374Y-101502911D01*
X181234887Y-101128807D01*
X181779028Y-99829129D01*
X182691321Y-99111091D01*
X183871700Y-98915333D01*
X185207274Y-99125092D01*
X185207274Y-99125092D01*
G37*
X185207274Y-99125092D02*
X185980399Y-99759085D01*
X186197647Y-100824387D01*
X186134507Y-101350860D01*
X185626532Y-102761510D01*
X184794428Y-103610834D01*
X183742276Y-103858340D01*
X182574163Y-103463536D01*
X181944575Y-102980890D01*
X181304484Y-102230973D01*
X181186436Y-101594848D01*
X182096958Y-101594848D01*
X182352811Y-102103072D01*
X182594760Y-102301030D01*
X183599834Y-102754180D01*
X184446947Y-102601578D01*
X184888143Y-102113525D01*
X185166553Y-101319187D01*
X185243159Y-100523461D01*
X185105068Y-100005114D01*
X184988750Y-99938134D01*
X183693195Y-99828287D01*
X182903041Y-99966797D01*
X182445134Y-100408704D01*
X182271919Y-100801725D01*
X182096958Y-101594848D01*
X181186436Y-101594848D01*
X181169374Y-101502911D01*
X181234887Y-101128807D01*
X181779028Y-99829129D01*
X182691321Y-99111091D01*
X183871700Y-98915333D01*
X185207274Y-99125092D01*
G36*
X184469391Y-101301244D02*
X184485450Y-101620128D01*
X184159072Y-102208151D01*
X183658045Y-102359382D01*
X183324564Y-102108955D01*
X183266545Y-101503343D01*
X183729799Y-101087388D01*
X184065298Y-101032000D01*
X184469391Y-101301244D01*
X184469391Y-101301244D01*
G37*
X184469391Y-101301244D02*
X184485450Y-101620128D01*
X184159072Y-102208151D01*
X183658045Y-102359382D01*
X183324564Y-102108955D01*
X183266545Y-101503343D01*
X183729799Y-101087388D01*
X184065298Y-101032000D01*
X184469391Y-101301244D01*
D12*
X120530000Y-79032462D02*
G75*
G03X114980000Y-77487170I-2990000J462D01*
G01*
X120530000Y-79031538D02*
G75*
G02X114980000Y-80576830I-2990000J-462D01*
G01*
X120040000Y-79032000D02*
G75*
G03X120040000Y-79032000I-2500000J0D01*
G01*
X114980000Y-77487000D02*
X114980000Y-80577000D01*
X124990000Y-88032462D02*
G75*
G03X119440000Y-86487170I-2990000J462D01*
G01*
X124990000Y-88031538D02*
G75*
G02X119440000Y-89576830I-2990000J-462D01*
G01*
X124500000Y-88032000D02*
G75*
G03X124500000Y-88032000I-2500000J0D01*
G01*
X119440000Y-86487000D02*
X119440000Y-89577000D01*
X130990000Y-98032462D02*
G75*
G03X125440000Y-96487170I-2990000J462D01*
G01*
X130990000Y-98031538D02*
G75*
G02X125440000Y-99576830I-2990000J-462D01*
G01*
X130500000Y-98032000D02*
G75*
G03X130500000Y-98032000I-2500000J0D01*
G01*
X125440000Y-96487000D02*
X125440000Y-99577000D01*
X137990000Y-63032462D02*
G75*
G03X132440000Y-61487170I-2990000J462D01*
G01*
X137990000Y-63031538D02*
G75*
G02X132440000Y-64576830I-2990000J-462D01*
G01*
X137500000Y-63032000D02*
G75*
G03X137500000Y-63032000I-2500000J0D01*
G01*
X132440000Y-61487000D02*
X132440000Y-64577000D01*
X137990000Y-74032462D02*
G75*
G03X132440000Y-72487170I-2990000J462D01*
G01*
X137990000Y-74031538D02*
G75*
G02X132440000Y-75576830I-2990000J-462D01*
G01*
X137500000Y-74032000D02*
G75*
G03X137500000Y-74032000I-2500000J0D01*
G01*
X132440000Y-72487000D02*
X132440000Y-75577000D01*
X139990000Y-86032462D02*
G75*
G03X134440000Y-84487170I-2990000J462D01*
G01*
X139990000Y-86031538D02*
G75*
G02X134440000Y-87576830I-2990000J-462D01*
G01*
X139500000Y-86032000D02*
G75*
G03X139500000Y-86032000I-2500000J0D01*
G01*
X134440000Y-84487000D02*
X134440000Y-87577000D01*
X153990000Y-57032462D02*
G75*
G03X148440000Y-55487170I-2990000J462D01*
G01*
X153990000Y-57031538D02*
G75*
G02X148440000Y-58576830I-2990000J-462D01*
G01*
X153500000Y-57032000D02*
G75*
G03X153500000Y-57032000I-2500000J0D01*
G01*
X148440000Y-55487000D02*
X148440000Y-58577000D01*
X153990000Y-72032462D02*
G75*
G03X148440000Y-70487170I-2990000J462D01*
G01*
X153990000Y-72031538D02*
G75*
G02X148440000Y-73576830I-2990000J-462D01*
G01*
X153500000Y-72032000D02*
G75*
G03X153500000Y-72032000I-2500000J0D01*
G01*
X148440000Y-70487000D02*
X148440000Y-73577000D01*
X152990000Y-85032462D02*
G75*
G03X147440000Y-83487170I-2990000J462D01*
G01*
X152990000Y-85031538D02*
G75*
G02X147440000Y-86576830I-2990000J-462D01*
G01*
X152500000Y-85032000D02*
G75*
G03X152500000Y-85032000I-2500000J0D01*
G01*
X147440000Y-83487000D02*
X147440000Y-86577000D01*
X168990000Y-65032462D02*
G75*
G03X163440000Y-63487170I-2990000J462D01*
G01*
X168990000Y-65031538D02*
G75*
G02X163440000Y-66576830I-2990000J-462D01*
G01*
X168500000Y-65032000D02*
G75*
G03X168500000Y-65032000I-2500000J0D01*
G01*
X163440000Y-63487000D02*
X163440000Y-66577000D01*
X166990000Y-76032462D02*
G75*
G03X161440000Y-74487170I-2990000J462D01*
G01*
X166990000Y-76031538D02*
G75*
G02X161440000Y-77576830I-2990000J-462D01*
G01*
X166500000Y-76032000D02*
G75*
G03X166500000Y-76032000I-2500000J0D01*
G01*
X161440000Y-74487000D02*
X161440000Y-77577000D01*
X162990000Y-89032462D02*
G75*
G03X157440000Y-87487170I-2990000J462D01*
G01*
X162990000Y-89031538D02*
G75*
G02X157440000Y-90576830I-2990000J-462D01*
G01*
X162500000Y-89032000D02*
G75*
G03X162500000Y-89032000I-2500000J0D01*
G01*
X157440000Y-87487000D02*
X157440000Y-90577000D01*
X105980000Y-132020000D02*
X105980000Y-131690000D01*
X105980000Y-131690000D02*
X112400000Y-131690000D01*
X112400000Y-131690000D02*
X112400000Y-132020000D01*
X105980000Y-133980000D02*
X105980000Y-134310000D01*
X105980000Y-134310000D02*
X112400000Y-134310000D01*
X112400000Y-134310000D02*
X112400000Y-133980000D01*
D10*
X185500000Y-131000000D02*
X185500000Y-125500000D01*
X176500000Y-131000000D02*
X185500000Y-131000000D01*
X176500000Y-125500000D02*
X176500000Y-131000000D01*
X185500000Y-125500000D02*
X176500000Y-125500000D01*
D12*
X176970000Y-138810000D02*
G75*
G02X176970000Y-140810000I0J-1000000D01*
G01*
X176970000Y-140810000D02*
X176970000Y-142460000D01*
X176970000Y-142460000D02*
X197410000Y-142460000D01*
X197410000Y-142460000D02*
X197410000Y-137160000D01*
X197410000Y-137160000D02*
X176970000Y-137160000D01*
X176970000Y-137160000D02*
X176970000Y-138810000D01*
X187670000Y-132870000D02*
X190330000Y-132870000D01*
X187670000Y-130270000D02*
X187670000Y-132870000D01*
X190330000Y-130270000D02*
X190330000Y-132870000D01*
X187670000Y-130270000D02*
X190330000Y-130270000D01*
X187670000Y-129000000D02*
X187670000Y-127670000D01*
X187670000Y-127670000D02*
X189000000Y-127670000D01*
X112390000Y-130210000D02*
X112390000Y-126290000D01*
X115110000Y-130210000D02*
X115110000Y-126290000D01*
X112390000Y-130210000D02*
X113000000Y-130210000D01*
X114500000Y-130210000D02*
X115110000Y-130210000D01*
X112390000Y-126290000D02*
X113000000Y-126290000D01*
X114500000Y-126290000D02*
X115110000Y-126290000D01*
X113950000Y-141330000D02*
X113950000Y-136130000D01*
X103730000Y-141330000D02*
X113950000Y-141330000D01*
X101130000Y-136130000D02*
X113950000Y-136130000D01*
X103730000Y-141330000D02*
X103730000Y-138730000D01*
X103730000Y-138730000D02*
X101130000Y-138730000D01*
X101130000Y-138730000D02*
X101130000Y-136130000D01*
X102460000Y-141330000D02*
X101130000Y-141330000D01*
X101130000Y-141330000D02*
X101130000Y-140000000D01*
D13*
X171666667Y-141928571D02*
X171333333Y-141928571D01*
X171333333Y-142452381D02*
X171333333Y-141452381D01*
X171809524Y-141452381D01*
X172095238Y-141452381D02*
X172714286Y-141452381D01*
X172380952Y-141833333D01*
X172523810Y-141833333D01*
X172619048Y-141880952D01*
X172666667Y-141928571D01*
X172714286Y-142023810D01*
X172714286Y-142261905D01*
X172666667Y-142357143D01*
X172619048Y-142404762D01*
X172523810Y-142452381D01*
X172238095Y-142452381D01*
X172142857Y-142404762D01*
X172095238Y-142357143D01*
X117666667Y-129428571D02*
X117333333Y-129428571D01*
X117333333Y-129952381D02*
X117333333Y-128952381D01*
X117809524Y-128952381D01*
X118142857Y-129047619D02*
X118190476Y-129000000D01*
X118285714Y-128952381D01*
X118523810Y-128952381D01*
X118619048Y-129000000D01*
X118666667Y-129047619D01*
X118714286Y-129142857D01*
X118714286Y-129238095D01*
X118666667Y-129380952D01*
X118095238Y-129952381D01*
X118714286Y-129952381D01*
X171666667Y-129428571D02*
X171333333Y-129428571D01*
X171333333Y-129952381D02*
X171333333Y-128952381D01*
X171809524Y-128952381D01*
X172619048Y-129285714D02*
X172619048Y-129952381D01*
X172380952Y-128904762D02*
X172142857Y-129619048D01*
X172761905Y-129619048D01*
X116801905Y-83484381D02*
X116801905Y-82484381D01*
X117040000Y-82484381D01*
X117182858Y-82532000D01*
X117278096Y-82627238D01*
X117325715Y-82722476D01*
X117373334Y-82912952D01*
X117373334Y-83055810D01*
X117325715Y-83246286D01*
X117278096Y-83341524D01*
X117182858Y-83436762D01*
X117040000Y-83484381D01*
X116801905Y-83484381D01*
X118325715Y-83484381D02*
X117754286Y-83484381D01*
X118040000Y-83484381D02*
X118040000Y-82484381D01*
X117944762Y-82627238D01*
X117849524Y-82722476D01*
X117754286Y-82770095D01*
X121531905Y-92484381D02*
X121531905Y-91484381D01*
X121770000Y-91484381D01*
X121912858Y-91532000D01*
X122008096Y-91627238D01*
X122055715Y-91722476D01*
X122103334Y-91912952D01*
X122103334Y-92055810D01*
X122055715Y-92246286D01*
X122008096Y-92341524D01*
X121912858Y-92436762D01*
X121770000Y-92484381D01*
X121531905Y-92484381D01*
X122484286Y-91579619D02*
X122531905Y-91532000D01*
X122627143Y-91484381D01*
X122865239Y-91484381D01*
X122960477Y-91532000D01*
X123008096Y-91579619D01*
X123055715Y-91674857D01*
X123055715Y-91770095D01*
X123008096Y-91912952D01*
X122436667Y-92484381D01*
X123055715Y-92484381D01*
X127261905Y-102484381D02*
X127261905Y-101484381D01*
X127500000Y-101484381D01*
X127642858Y-101532000D01*
X127738096Y-101627238D01*
X127785715Y-101722476D01*
X127833334Y-101912952D01*
X127833334Y-102055810D01*
X127785715Y-102246286D01*
X127738096Y-102341524D01*
X127642858Y-102436762D01*
X127500000Y-102484381D01*
X127261905Y-102484381D01*
X128166667Y-101484381D02*
X128785715Y-101484381D01*
X128452381Y-101865333D01*
X128595239Y-101865333D01*
X128690477Y-101912952D01*
X128738096Y-101960571D01*
X128785715Y-102055810D01*
X128785715Y-102293905D01*
X128738096Y-102389143D01*
X128690477Y-102436762D01*
X128595239Y-102484381D01*
X128309524Y-102484381D01*
X128214286Y-102436762D01*
X128166667Y-102389143D01*
X134261905Y-67484381D02*
X134261905Y-66484381D01*
X134500000Y-66484381D01*
X134642858Y-66532000D01*
X134738096Y-66627238D01*
X134785715Y-66722476D01*
X134833334Y-66912952D01*
X134833334Y-67055810D01*
X134785715Y-67246286D01*
X134738096Y-67341524D01*
X134642858Y-67436762D01*
X134500000Y-67484381D01*
X134261905Y-67484381D01*
X135690477Y-66484381D02*
X135500000Y-66484381D01*
X135404762Y-66532000D01*
X135357143Y-66579619D01*
X135261905Y-66722476D01*
X135214286Y-66912952D01*
X135214286Y-67293905D01*
X135261905Y-67389143D01*
X135309524Y-67436762D01*
X135404762Y-67484381D01*
X135595239Y-67484381D01*
X135690477Y-67436762D01*
X135738096Y-67389143D01*
X135785715Y-67293905D01*
X135785715Y-67055810D01*
X135738096Y-66960571D01*
X135690477Y-66912952D01*
X135595239Y-66865333D01*
X135404762Y-66865333D01*
X135309524Y-66912952D01*
X135261905Y-66960571D01*
X135214286Y-67055810D01*
X134531905Y-78484381D02*
X134531905Y-77484381D01*
X134770000Y-77484381D01*
X134912858Y-77532000D01*
X135008096Y-77627238D01*
X135055715Y-77722476D01*
X135103334Y-77912952D01*
X135103334Y-78055810D01*
X135055715Y-78246286D01*
X135008096Y-78341524D01*
X134912858Y-78436762D01*
X134770000Y-78484381D01*
X134531905Y-78484381D01*
X135436667Y-77484381D02*
X136103334Y-77484381D01*
X135674762Y-78484381D01*
X136261905Y-90484381D02*
X136261905Y-89484381D01*
X136500000Y-89484381D01*
X136642858Y-89532000D01*
X136738096Y-89627238D01*
X136785715Y-89722476D01*
X136833334Y-89912952D01*
X136833334Y-90055810D01*
X136785715Y-90246286D01*
X136738096Y-90341524D01*
X136642858Y-90436762D01*
X136500000Y-90484381D01*
X136261905Y-90484381D01*
X137404762Y-89912952D02*
X137309524Y-89865333D01*
X137261905Y-89817714D01*
X137214286Y-89722476D01*
X137214286Y-89674857D01*
X137261905Y-89579619D01*
X137309524Y-89532000D01*
X137404762Y-89484381D01*
X137595239Y-89484381D01*
X137690477Y-89532000D01*
X137738096Y-89579619D01*
X137785715Y-89674857D01*
X137785715Y-89722476D01*
X137738096Y-89817714D01*
X137690477Y-89865333D01*
X137595239Y-89912952D01*
X137404762Y-89912952D01*
X137309524Y-89960571D01*
X137261905Y-90008190D01*
X137214286Y-90103429D01*
X137214286Y-90293905D01*
X137261905Y-90389143D01*
X137309524Y-90436762D01*
X137404762Y-90484381D01*
X137595239Y-90484381D01*
X137690477Y-90436762D01*
X137738096Y-90389143D01*
X137785715Y-90293905D01*
X137785715Y-90103429D01*
X137738096Y-90008190D01*
X137690477Y-89960571D01*
X137595239Y-89912952D01*
X149785714Y-61484381D02*
X149785714Y-60484381D01*
X150023809Y-60484381D01*
X150166667Y-60532000D01*
X150261905Y-60627238D01*
X150309524Y-60722476D01*
X150357143Y-60912952D01*
X150357143Y-61055810D01*
X150309524Y-61246286D01*
X150261905Y-61341524D01*
X150166667Y-61436762D01*
X150023809Y-61484381D01*
X149785714Y-61484381D01*
X151309524Y-61484381D02*
X150738095Y-61484381D01*
X151023809Y-61484381D02*
X151023809Y-60484381D01*
X150928571Y-60627238D01*
X150833333Y-60722476D01*
X150738095Y-60770095D01*
X152261905Y-61484381D02*
X151690476Y-61484381D01*
X151976190Y-61484381D02*
X151976190Y-60484381D01*
X151880952Y-60627238D01*
X151785714Y-60722476D01*
X151690476Y-60770095D01*
X150055714Y-76484381D02*
X150055714Y-75484381D01*
X150293809Y-75484381D01*
X150436667Y-75532000D01*
X150531905Y-75627238D01*
X150579524Y-75722476D01*
X150627143Y-75912952D01*
X150627143Y-76055810D01*
X150579524Y-76246286D01*
X150531905Y-76341524D01*
X150436667Y-76436762D01*
X150293809Y-76484381D01*
X150055714Y-76484381D01*
X151579524Y-76484381D02*
X151008095Y-76484381D01*
X151293809Y-76484381D02*
X151293809Y-75484381D01*
X151198571Y-75627238D01*
X151103333Y-75722476D01*
X151008095Y-75770095D01*
X151960476Y-75579619D02*
X152008095Y-75532000D01*
X152103333Y-75484381D01*
X152341429Y-75484381D01*
X152436667Y-75532000D01*
X152484286Y-75579619D01*
X152531905Y-75674857D01*
X152531905Y-75770095D01*
X152484286Y-75912952D01*
X151912857Y-76484381D01*
X152531905Y-76484381D01*
X148785714Y-89484381D02*
X148785714Y-88484381D01*
X149023809Y-88484381D01*
X149166667Y-88532000D01*
X149261905Y-88627238D01*
X149309524Y-88722476D01*
X149357143Y-88912952D01*
X149357143Y-89055810D01*
X149309524Y-89246286D01*
X149261905Y-89341524D01*
X149166667Y-89436762D01*
X149023809Y-89484381D01*
X148785714Y-89484381D01*
X150309524Y-89484381D02*
X149738095Y-89484381D01*
X150023809Y-89484381D02*
X150023809Y-88484381D01*
X149928571Y-88627238D01*
X149833333Y-88722476D01*
X149738095Y-88770095D01*
X150642857Y-88484381D02*
X151261905Y-88484381D01*
X150928571Y-88865333D01*
X151071429Y-88865333D01*
X151166667Y-88912952D01*
X151214286Y-88960571D01*
X151261905Y-89055810D01*
X151261905Y-89293905D01*
X151214286Y-89389143D01*
X151166667Y-89436762D01*
X151071429Y-89484381D01*
X150785714Y-89484381D01*
X150690476Y-89436762D01*
X150642857Y-89389143D01*
X164785714Y-69484381D02*
X164785714Y-68484381D01*
X165023809Y-68484381D01*
X165166667Y-68532000D01*
X165261905Y-68627238D01*
X165309524Y-68722476D01*
X165357143Y-68912952D01*
X165357143Y-69055810D01*
X165309524Y-69246286D01*
X165261905Y-69341524D01*
X165166667Y-69436762D01*
X165023809Y-69484381D01*
X164785714Y-69484381D01*
X166309524Y-69484381D02*
X165738095Y-69484381D01*
X166023809Y-69484381D02*
X166023809Y-68484381D01*
X165928571Y-68627238D01*
X165833333Y-68722476D01*
X165738095Y-68770095D01*
X167166667Y-68484381D02*
X166976190Y-68484381D01*
X166880952Y-68532000D01*
X166833333Y-68579619D01*
X166738095Y-68722476D01*
X166690476Y-68912952D01*
X166690476Y-69293905D01*
X166738095Y-69389143D01*
X166785714Y-69436762D01*
X166880952Y-69484381D01*
X167071429Y-69484381D01*
X167166667Y-69436762D01*
X167214286Y-69389143D01*
X167261905Y-69293905D01*
X167261905Y-69055810D01*
X167214286Y-68960571D01*
X167166667Y-68912952D01*
X167071429Y-68865333D01*
X166880952Y-68865333D01*
X166785714Y-68912952D01*
X166738095Y-68960571D01*
X166690476Y-69055810D01*
X163055714Y-80484381D02*
X163055714Y-79484381D01*
X163293809Y-79484381D01*
X163436667Y-79532000D01*
X163531905Y-79627238D01*
X163579524Y-79722476D01*
X163627143Y-79912952D01*
X163627143Y-80055810D01*
X163579524Y-80246286D01*
X163531905Y-80341524D01*
X163436667Y-80436762D01*
X163293809Y-80484381D01*
X163055714Y-80484381D01*
X164579524Y-80484381D02*
X164008095Y-80484381D01*
X164293809Y-80484381D02*
X164293809Y-79484381D01*
X164198571Y-79627238D01*
X164103333Y-79722476D01*
X164008095Y-79770095D01*
X164912857Y-79484381D02*
X165579524Y-79484381D01*
X165150952Y-80484381D01*
X159055714Y-93484381D02*
X159055714Y-92484381D01*
X159293809Y-92484381D01*
X159436667Y-92532000D01*
X159531905Y-92627238D01*
X159579524Y-92722476D01*
X159627143Y-92912952D01*
X159627143Y-93055810D01*
X159579524Y-93246286D01*
X159531905Y-93341524D01*
X159436667Y-93436762D01*
X159293809Y-93484381D01*
X159055714Y-93484381D01*
X160579524Y-93484381D02*
X160008095Y-93484381D01*
X160293809Y-93484381D02*
X160293809Y-92484381D01*
X160198571Y-92627238D01*
X160103333Y-92722476D01*
X160008095Y-92770095D01*
X161150952Y-92912952D02*
X161055714Y-92865333D01*
X161008095Y-92817714D01*
X160960476Y-92722476D01*
X160960476Y-92674857D01*
X161008095Y-92579619D01*
X161055714Y-92532000D01*
X161150952Y-92484381D01*
X161341429Y-92484381D01*
X161436667Y-92532000D01*
X161484286Y-92579619D01*
X161531905Y-92674857D01*
X161531905Y-92722476D01*
X161484286Y-92817714D01*
X161436667Y-92865333D01*
X161341429Y-92912952D01*
X161150952Y-92912952D01*
X161055714Y-92960571D01*
X161008095Y-93008190D01*
X160960476Y-93103429D01*
X160960476Y-93293905D01*
X161008095Y-93389143D01*
X161055714Y-93436762D01*
X161150952Y-93484381D01*
X161341429Y-93484381D01*
X161436667Y-93436762D01*
X161484286Y-93389143D01*
X161531905Y-93293905D01*
X161531905Y-93103429D01*
X161484286Y-93008190D01*
X161436667Y-92960571D01*
X161341429Y-92912952D01*
X102833334Y-134452381D02*
X102500000Y-133976190D01*
X102261905Y-134452381D02*
X102261905Y-133452381D01*
X102642858Y-133452381D01*
X102738096Y-133500000D01*
X102785715Y-133547619D01*
X102833334Y-133642857D01*
X102833334Y-133785714D01*
X102785715Y-133880952D01*
X102738096Y-133928571D01*
X102642858Y-133976190D01*
X102261905Y-133976190D01*
X103785715Y-134452381D02*
X103214286Y-134452381D01*
X103500000Y-134452381D02*
X103500000Y-133452381D01*
X103404762Y-133595238D01*
X103309524Y-133690476D01*
X103214286Y-133738095D01*
X177166667Y-124904762D02*
X177309524Y-124952381D01*
X177547620Y-124952381D01*
X177642858Y-124904762D01*
X177690477Y-124857143D01*
X177738096Y-124761905D01*
X177738096Y-124666667D01*
X177690477Y-124571429D01*
X177642858Y-124523810D01*
X177547620Y-124476190D01*
X177357143Y-124428571D01*
X177261905Y-124380952D01*
X177214286Y-124333333D01*
X177166667Y-124238095D01*
X177166667Y-124142857D01*
X177214286Y-124047619D01*
X177261905Y-124000000D01*
X177357143Y-123952381D01*
X177595239Y-123952381D01*
X177738096Y-124000000D01*
X178071429Y-123952381D02*
X178309524Y-124952381D01*
X178500001Y-124238095D01*
X178690477Y-124952381D01*
X178928572Y-123952381D01*
X179833334Y-124952381D02*
X179261905Y-124952381D01*
X179547619Y-124952381D02*
X179547619Y-123952381D01*
X179452381Y-124095238D01*
X179357143Y-124190476D01*
X179261905Y-124238095D01*
X176988095Y-133452381D02*
X176988095Y-134261905D01*
X177035714Y-134357143D01*
X177083333Y-134404762D01*
X177178571Y-134452381D01*
X177369048Y-134452381D01*
X177464286Y-134404762D01*
X177511905Y-134357143D01*
X177559524Y-134261905D01*
X177559524Y-133452381D01*
X178559524Y-134452381D02*
X177988095Y-134452381D01*
X178273809Y-134452381D02*
X178273809Y-133452381D01*
X178178571Y-133595238D01*
X178083333Y-133690476D01*
X177988095Y-133738095D01*
X191964286Y-132678571D02*
X192107143Y-132726190D01*
X192154762Y-132773810D01*
X192202381Y-132869048D01*
X192202381Y-133011905D01*
X192154762Y-133107143D01*
X192107143Y-133154762D01*
X192011905Y-133202381D01*
X191630952Y-133202381D01*
X191630952Y-132202381D01*
X191964286Y-132202381D01*
X192059524Y-132250000D01*
X192107143Y-132297619D01*
X192154762Y-132392857D01*
X192154762Y-132488095D01*
X192107143Y-132583333D01*
X192059524Y-132630952D01*
X191964286Y-132678571D01*
X191630952Y-132678571D01*
X192488095Y-132202381D02*
X193059524Y-132202381D01*
X192773809Y-133202381D02*
X192773809Y-132202381D01*
X193916667Y-133202381D02*
X193345238Y-133202381D01*
X193630952Y-133202381D02*
X193630952Y-132202381D01*
X193535714Y-132345238D01*
X193440476Y-132440476D01*
X193345238Y-132488095D01*
X110833334Y-130111143D02*
X110785715Y-130158762D01*
X110642858Y-130206381D01*
X110547620Y-130206381D01*
X110404762Y-130158762D01*
X110309524Y-130063524D01*
X110261905Y-129968286D01*
X110214286Y-129777810D01*
X110214286Y-129634952D01*
X110261905Y-129444476D01*
X110309524Y-129349238D01*
X110404762Y-129254000D01*
X110547620Y-129206381D01*
X110642858Y-129206381D01*
X110785715Y-129254000D01*
X110833334Y-129301619D01*
X111785715Y-130206381D02*
X111214286Y-130206381D01*
X111500000Y-130206381D02*
X111500000Y-129206381D01*
X111404762Y-129349238D01*
X111309524Y-129444476D01*
X111214286Y-129492095D01*
X117666667Y-141928571D02*
X117333333Y-141928571D01*
X117333333Y-142452381D02*
X117333333Y-141452381D01*
X117809524Y-141452381D01*
X118714286Y-142452381D02*
X118142857Y-142452381D01*
X118428571Y-142452381D02*
X118428571Y-141452381D01*
X118333333Y-141595238D01*
X118238095Y-141690476D01*
X118142857Y-141738095D01*
X112666667Y-141952381D02*
X112666667Y-142666667D01*
X112619047Y-142809524D01*
X112523809Y-142904762D01*
X112380952Y-142952381D01*
X112285714Y-142952381D01*
X113666667Y-142952381D02*
X113095238Y-142952381D01*
X113380952Y-142952381D02*
X113380952Y-141952381D01*
X113285714Y-142095238D01*
X113190476Y-142190476D01*
X113095238Y-142238095D01*
X181166667Y-145452381D02*
X181166667Y-146166667D01*
X181119047Y-146309524D01*
X181023809Y-146404762D01*
X180880952Y-146452381D01*
X180785714Y-146452381D01*
X181642857Y-146452381D02*
X181642857Y-145452381D01*
X182023810Y-145452381D01*
X182119048Y-145500000D01*
X182166667Y-145547619D01*
X182214286Y-145642857D01*
X182214286Y-145785714D01*
X182166667Y-145880952D01*
X182119048Y-145928571D01*
X182023810Y-145976190D01*
X181642857Y-145976190D01*
X183166667Y-146452381D02*
X182595238Y-146452381D01*
X182880952Y-146452381D02*
X182880952Y-145452381D01*
X182785714Y-145595238D01*
X182690476Y-145690476D01*
X182595238Y-145738095D01*
X188166667Y-145452381D02*
X188166667Y-146166667D01*
X188119047Y-146309524D01*
X188023809Y-146404762D01*
X187880952Y-146452381D01*
X187785714Y-146452381D01*
X188642857Y-146452381D02*
X188642857Y-145452381D01*
X189023810Y-145452381D01*
X189119048Y-145500000D01*
X189166667Y-145547619D01*
X189214286Y-145642857D01*
X189214286Y-145785714D01*
X189166667Y-145880952D01*
X189119048Y-145928571D01*
X189023810Y-145976190D01*
X188642857Y-145976190D01*
X189595238Y-145547619D02*
X189642857Y-145500000D01*
X189738095Y-145452381D01*
X189976191Y-145452381D01*
X190071429Y-145500000D01*
X190119048Y-145547619D01*
X190166667Y-145642857D01*
X190166667Y-145738095D01*
X190119048Y-145880952D01*
X189547619Y-146452381D01*
X190166667Y-146452381D01*
M02*
